<svg width="45" height="45" viewBox="0 0 45 45" fill="none" xmlns="http://www.w3.org/2000/svg">
<g clip-path="url(#clip0_85_2917)">
<rect width="45" height="45" rx="22.5" fill="#FF78B9"/>
<path d="M36.5306 52.8912C38.0599 49.6848 33.9591 44.5386 27.3709 41.3962C20.7831 38.2538 14.2026 38.3056 12.6733 41.512C11.144 44.7181 15.2448 49.8647 21.833 53.0071C28.4208 56.1491 35.0013 56.0973 36.5306 52.8912Z" fill="black"/>
<path d="M37.3847 35.1374C35.4327 33.9214 35.3367 33.9534 34.2487 32.0014C33.1607 30.0494 31.7847 29.0894 30.1847 28.8654L32.1687 43.2334C36.3287 44.4494 38.8887 42.3374 39.4647 40.2574C40.0407 38.1774 39.3687 36.3534 37.3847 35.1374Z" fill="#3442D9"/>
<path d="M35.4327 37.0253C34.8887 34.6893 33.4487 31.9693 31.7527 29.9213C31.145 29.1814 30.7139 28.3126 30.4922 27.3811C30.2704 26.4496 30.2637 25.4798 30.4727 24.5453L31.1766 21.3453C31.6717 19.1243 31.4077 16.8016 30.4275 14.7481C29.4471 12.6947 27.8067 11.029 25.7687 10.0173C24.5991 9.44148 23.3261 9.10426 22.0247 9.02532C19.5757 8.84593 17.1533 9.62785 15.2714 11.2051C13.3895 12.7823 12.1962 15.0308 11.9447 17.4733C11.8915 17.8871 11.8701 18.3043 11.8807 18.7213V20.0973L11.9447 25.8573C12.0141 28.4451 11.4656 31.0118 10.3447 33.3453C9.87937 34.271 9.52513 35.2486 9.28865 36.2573L24.9366 52.8973C32.3926 51.6493 37.0647 44.4493 35.4327 37.0253Z" fill="#3442D9"/>
<path d="M24.9687 52.8972C32.3927 51.6492 37.0647 44.4492 35.4327 37.0252C34.9207 34.8172 33.6087 32.2572 32.0407 30.2732" stroke="black" stroke-miterlimit="10" stroke-linecap="round"/>
<path d="M30.4406 37.5053C31.9126 35.0733 32.4886 35.3933 35.1126 36.0973C37.2246 36.6413 39.6566 40.9613 36.4246 43.1373C33.1926 45.3133 26.6006 44.0013 30.4406 37.5053Z" fill="#3442D9"/>
<path d="M23.1456 30.3331C23.4406 30.1075 23.488 29.6746 23.2518 29.3655C23.0157 29.0567 22.5853 28.9891 22.2906 29.2144C21.9958 29.44 21.9482 29.873 22.1843 30.1818C22.4205 30.4909 22.8509 30.5584 23.1456 30.3331Z" fill="black"/>
<path d="M27.1763 30.5833C27.471 30.358 27.5187 29.9247 27.2826 29.6159C27.0464 29.3071 26.616 29.2393 26.321 29.4649C26.0262 29.6902 25.9786 30.1234 26.2147 30.4322C26.4509 30.741 26.8813 30.8089 27.1763 30.5833Z" fill="black"/>
<path d="M26.7606 30.0813C30.1846 32.8973 28.7766 34.9133 31.5286 39.0733" stroke="white" stroke-miterlimit="10" stroke-linecap="round"/>
<path d="M22.8887 36.3853C25.0007 34.9133 25.6407 34.4973 26.4407 34.5293L28.5207 34.7213L27.9767 43.1693L22.6967 43.0093L22.8887 36.3853Z" fill="#FFC619"/>
<path d="M33.1287 34.2413C33.1687 34.1296 33.1818 34.0099 33.1677 33.8922C33.1536 33.7744 33.1123 33.6614 33.0474 33.5622C32.9821 33.463 32.8951 33.3802 32.7927 33.3203C32.6899 33.2605 32.5751 33.2253 32.4567 33.2173L28.9367 32.7053C28.6813 32.6781 28.424 32.7395 28.2087 32.8794C27.993 33.0192 27.832 33.2288 27.7527 33.4733L25.7687 40.8333C25.729 40.9453 25.7155 41.0646 25.7296 41.1824C25.7437 41.3002 25.785 41.4131 25.8499 41.5123C25.9152 41.6115 26.0023 41.6944 26.105 41.7542C26.2074 41.8141 26.3223 41.8493 26.4407 41.8573L29.9607 42.3693C30.2163 42.3965 30.4733 42.335 30.689 42.1952C30.9043 42.0554 31.0653 41.8458 31.1447 41.6013L33.1287 34.2413Z" fill="black"/>
<path d="M32.9687 33.5054L33.3527 33.9534L32.2967 34.0494L32.9687 33.5054Z" fill="black"/>
<path d="M34.6967 38.3692C34.2487 37.6332 33.8327 36.7052 32.6167 36.5132L32.4567 38.0492L34.6967 38.3692Z" fill="#FFC619"/>
<path d="M33.4807 34.6573C33.5143 34.5456 33.523 34.4279 33.506 34.3124C33.489 34.1968 33.4471 34.0864 33.3831 33.9888C33.3191 33.8912 33.2346 33.809 33.1354 33.7476C33.0362 33.6861 32.9245 33.6471 32.8087 33.6333L29.2567 33.1213C29.0023 33.0999 28.7476 33.1639 28.5335 33.3028C28.3191 33.442 28.1569 33.648 28.0727 33.8893L26.0887 41.2493C26.0551 41.361 26.0465 41.4788 26.0634 41.5943C26.0804 41.7098 26.1223 41.8202 26.1863 41.9178C26.2503 42.0154 26.3348 42.098 26.434 42.1591C26.5335 42.2205 26.6449 42.2596 26.7607 42.2733L30.3127 42.7533C30.5617 42.7943 30.817 42.7415 31.0295 42.6058C31.242 42.4698 31.3972 42.2605 31.4647 42.0173L33.4807 34.6573Z" fill="white"/>
<path d="M32.3926 37.5693L33.8326 37.7933C34.1245 37.8256 34.3917 37.9712 34.5773 38.1984C34.7629 38.426 34.8515 38.7172 34.8246 39.0093C34.8173 39.1613 34.7782 39.3101 34.7101 39.4461C34.6416 39.5818 34.5456 39.7021 34.4281 39.7984C34.3104 39.8951 34.1741 39.9658 34.0272 40.0061C33.8806 40.0468 33.727 40.056 33.5766 40.0333L32.5206 39.8733C32.1926 39.8263 31.8893 39.672 31.6576 39.4349C31.4262 39.1975 31.2797 38.8906 31.2406 38.5613C31.2326 38.4148 31.2585 38.2682 31.3161 38.1332C31.3737 37.9981 31.4617 37.8781 31.5728 37.7821C31.6841 37.6864 31.816 37.6173 31.9581 37.5805C32.1001 37.5437 32.2489 37.5399 32.3926 37.5693Z" fill="#FFC619"/>
<path d="M31.9127 39.7132L32.9047 39.8732C33.0708 39.8943 33.2301 39.9509 33.3719 40.0396C33.5136 40.1282 33.6343 40.2469 33.7255 40.3868C33.817 40.5269 33.8768 40.6853 33.9008 40.8508C33.9248 41.0162 33.9124 41.1849 33.8647 41.3452C33.7965 41.6031 33.6333 41.8258 33.4077 41.9682C33.1821 42.1106 32.9111 42.1625 32.6487 42.1132L32.0407 42.0172C31.7088 41.9714 31.401 41.8185 31.1642 41.5817C30.9274 41.3449 30.7744 41.037 30.7287 40.7052C30.7194 40.5551 30.7456 40.4053 30.8048 40.2671C30.8644 40.1292 30.9552 40.0069 31.0704 39.9103C31.1856 39.814 31.3216 39.7458 31.4682 39.7116C31.6144 39.6773 31.7668 39.678 31.9127 39.7132Z" fill="#FFC619"/>
<path d="M28.8086 43.3612L25.3526 42.8812L25.5126 41.4732L28.9686 41.9852L28.8086 43.3612Z" fill="#FFC619"/>
<path d="M29.6406 37.7613L27.4646 37.4413C27.3609 37.4272 27.2636 37.3833 27.184 37.3155C27.1046 37.2473 27.0464 37.1577 27.0166 37.0573L26.8246 36.4813L26.6646 35.2973L25.4806 39.4573L29.0006 39.9693C29.3283 40.0131 29.6611 39.9453 29.9456 39.7769C30.23 39.6086 30.4496 39.3497 30.5686 39.0413C30.6067 38.895 30.6118 38.7421 30.584 38.5936C30.5558 38.4451 30.4953 38.3046 30.4067 38.1824C30.318 38.0598 30.2032 37.9587 30.071 37.8861C29.9385 37.8131 29.7916 37.7705 29.6406 37.7613Z" fill="#FFC619"/>
<path d="M28.9366 39.9373L25.4806 39.4573L25.6406 41.7613L28.2966 42.1453C28.6208 42.1936 28.9513 42.127 29.2316 41.9578C29.512 41.7885 29.7244 41.5264 29.8326 41.2173C29.8764 41.0733 29.887 40.9213 29.8636 40.7725C29.84 40.6237 29.7827 40.4826 29.6966 40.359C29.6102 40.2358 29.4969 40.1338 29.3651 40.0605C29.2336 39.9875 29.087 39.9453 28.9366 39.9373Z" fill="#FFC619"/>
<path d="M53.4487 54.0493C53.5447 50.5933 50.6967 50.0493 48.7447 48.8333C46.7927 47.6173 44.4887 45.0573 42.0887 43.3293C39.6887 41.6013 37.6087 41.6333 33.5447 42.8813L38.1847 51.9053C40.8087 53.2493 41.3847 54.7213 42.7927 56.7053C44.2007 58.6893 46.0887 59.4573 47.9767 59.1053C48.9687 60.7373 49.1607 61.1213 50.6007 60.6093C52.0407 60.0973 54.4087 59.0093 55.0487 57.1213C55.6887 55.2333 54.7607 54.9133 53.4487 54.0493Z" fill="#66BCFF"/>
<path d="M39.8807 63.2333C36.9687 65.8573 34.5047 65.1213 33.3527 64.9933C32.2007 64.8653 32.3287 64.0333 32.2327 63.3293C32.1367 62.6253 32.0727 61.5693 32.0727 61.5693C29.1607 61.3773 28.8087 59.3933 28.7447 57.6333C28.6807 55.8733 28.2327 55.6173 28.0087 54.3693C24.4976 53.7385 21.1792 52.3081 18.3101 50.1881C15.441 48.0685 13.0989 45.3161 11.4647 42.1453L14.5047 39.9373L21.2887 44.3533C25.8647 42.6573 28.3927 41.7933 30.8567 41.6333C33.3207 41.4733 35.7527 42.4013 36.5527 45.8253C37.3527 49.2493 37.4487 50.3053 38.1847 51.9373C38.3767 52.3533 38.6967 52.9293 39.0167 53.5373C39.9127 55.3613 40.8407 57.9213 39.0167 60.7053C39.2391 61.5689 39.528 62.4144 39.8807 63.2333Z" fill="#8CD9FF"/>
<path d="M16.4246 48.6091C16.3286 46.3371 17.1926 44.7371 18.7606 44.4811L14.7926 41.7291L11.9126 42.9771C12.6486 45.0251 14.5366 47.2651 16.4246 48.6091Z" fill="black"/>
<path d="M22.9526 35.9374C22.0246 35.1374 21.3206 35.2014 20.2006 35.6814C19.0166 34.5934 17.4806 34.4334 15.8806 34.9774C14.2806 35.5214 11.8166 36.2574 10.3766 36.6414C10.2963 36.6715 10.209 36.6776 10.1251 36.6593C10.0413 36.6408 9.96449 36.5988 9.90369 36.5384C9.84321 36.4776 9.80129 36.4008 9.78305 36.3169C9.76449 36.2331 9.77088 36.1457 9.80064 36.0654L10.8566 32.2254C7.43264 34.7854 6.31264 40.2574 7.40064 43.2334C8.48864 46.2094 13.2246 46.1774 14.7286 45.3454C16.2326 44.5134 16.7446 44.2574 18.4726 44.5774C20.2006 44.8974 21.5446 45.1214 23.8166 43.3934L25.1606 42.9454C25.6726 40.0334 25.2246 37.9214 22.9526 35.9374Z" fill="#3442D9"/>
<path d="M22.9527 35.9372C22.0247 35.1372 21.3207 35.2012 20.2007 35.6812C19.0167 34.5932 17.4807 34.4332 15.8807 34.9772C14.2807 35.5212 11.8167 36.2572 10.3767 36.6412" stroke="black" stroke-miterlimit="10" stroke-linecap="round"/>
<path d="M20.2006 35.6813C21.1564 36.4215 21.9523 37.3476 22.5408 38.4032C23.1292 39.4592 23.4979 40.6234 23.6246 41.8253" stroke="black" stroke-miterlimit="10" stroke-linecap="round"/>
<path d="M29.8967 34.7214C29.9111 34.6772 29.9159 34.6305 29.9104 34.5841C29.905 34.538 29.8896 34.4936 29.865 34.4542C29.8407 34.4145 29.8081 34.3806 29.7693 34.355C29.7306 34.3294 29.6868 34.3124 29.6407 34.3054H29.3207C29.2317 34.2859 29.1386 34.3019 29.0612 34.3496C28.9834 34.3972 28.9274 34.4731 28.9047 34.5614L28.6167 35.6174C28.602 35.6641 28.5981 35.7134 28.6055 35.7617C28.6129 35.81 28.6311 35.8558 28.6586 35.8961C28.6865 35.9361 28.7232 35.9694 28.7658 35.9934C28.8084 36.0171 28.8561 36.0308 28.9047 36.0334H29.2247C29.3089 36.0443 29.394 36.0241 29.4647 35.9771C29.5351 35.93 29.5863 35.8593 29.6087 35.7774L29.8967 34.7214Z" fill="#29CC7A"/>
<path d="M24.7767 28.5773C25.024 28.0765 25.3891 27.6433 25.8403 27.3145C26.2919 26.9857 26.8163 26.7712 27.3687 26.6893C27.4327 26.6893 27.4647 26.6253 27.4327 26.5933C27.0167 25.0573 27.2087 24.1933 27.7527 23.0733C27.7581 23.0652 27.7616 23.0559 27.7629 23.0463C27.7642 23.0366 27.7632 23.0267 27.7603 23.0175C27.7571 23.0082 27.752 22.9998 27.745 22.9928C27.7383 22.9858 27.7299 22.9805 27.7207 22.9773C25.9287 22.2093 25.2567 20.9293 25.0647 19.9693C25.0327 19.9053 24.9367 19.8733 24.9047 19.9373C24.1047 21.5373 23.0167 21.6013 22.0887 21.4733C22.0247 21.4733 21.9927 21.5373 22.0247 21.5693C22.9527 23.3613 22.2807 24.6413 21.3527 25.5373C21.3479 25.5498 21.3453 25.5633 21.3459 25.5768C21.3466 25.5903 21.3501 25.6035 21.3562 25.6156C21.3623 25.6277 21.3706 25.6384 21.3811 25.6469C21.3914 25.6555 21.4035 25.6618 21.4167 25.6653C23.2087 25.9853 24.1687 27.1693 24.6167 28.5453C24.6487 28.6093 24.7447 28.6413 24.7767 28.5773Z" fill="#FFC619"/>
<path d="M28.9366 39.9373L27.1126 39.6813" stroke="black" stroke-miterlimit="10" stroke-linecap="round"/>
<path d="M32.2647 39.8413L33.2887 40.0013" stroke="black" stroke-miterlimit="10" stroke-linecap="round"/>
<path d="M25.0006 19.9053C25.8006 18.1133 25.7366 16.8653 25.5126 16.1613" stroke="black" stroke-miterlimit="10" stroke-linecap="round"/>
<path d="M27.5606 23.0413C28.0598 23.1178 28.5699 23.086 29.0556 22.948C29.5417 22.8099 29.9923 22.5689 30.3766 22.2413" stroke="black" stroke-miterlimit="10" stroke-linecap="round"/>
<path d="M24.7766 28.5773C24.7792 28.8153 24.7468 29.0528 24.6806 29.2813" stroke="black" stroke-miterlimit="10" stroke-linecap="round"/>
<path d="M21.5127 25.5695C20.3287 26.4015 18.5367 26.2735 17.2887 25.8895" stroke="black" stroke-miterlimit="10" stroke-linecap="round"/>
<path d="M22.0886 21.4733C21.6406 20.5453 20.8086 19.4893 20.0406 19.1373" stroke="black" stroke-miterlimit="10" stroke-linecap="round"/>
<path d="M27.4326 26.5932C27.8454 26.8135 28.287 26.9751 28.7446 27.0732" stroke="black" stroke-miterlimit="10" stroke-linecap="round"/>
<path d="M24.0086 23.1695C24.5526 25.2815 25.2566 25.1535 25.5766 24.5135C25.8966 23.8735 26.1207 23.0735 26.6327 23.1375C27.1447 23.2015 27.0166 24.0975 26.4086 25.3775C25.8006 26.6575 24.8086 26.9455 23.8806 25.8255C22.9526 24.7055 22.9206 23.6175 22.8886 22.8495C22.8566 22.0815 23.6566 21.8895 24.0086 23.1695Z" fill="#C40655"/>
<path d="M22.7287 29.8254C23.1127 34.2414 20.8727 36.3534 20.1687 40.7374" stroke="white" stroke-miterlimit="10" stroke-linecap="round"/>
<path d="M27.7526 54.4013C27.1766 52.5133 26.9206 49.0573 28.4886 46.0173" stroke="black" stroke-width="2" stroke-miterlimit="10" stroke-linecap="round"/>
<path d="M11.6247 36.2893L9.2567 37.0573" stroke="black" stroke-miterlimit="10" stroke-linecap="round"/>
<path d="M35.1447 36.0013L36.7447 36.4493" stroke="black" stroke-miterlimit="10" stroke-linecap="round"/>
</g>
<defs>
<clipPath id="clip0_85_2917">
<rect width="45" height="45" rx="22.5" fill="white"/>
</clipPath>
</defs>
</svg>
