<svg width="45" height="45" viewBox="0 0 45 45" fill="none" xmlns="http://www.w3.org/2000/svg">
<g clip-path="url(#clip0_85_2888)">
<rect width="45" height="45" rx="22.5" fill="#3442D9"/>
<path d="M9.98322 17.6843C8.67122 13.3323 7.96722 11.2523 10.3352 9.9723C12.7032 8.6923 19.9032 9.5563 23.2632 10.3563C26.6232 11.1563 27.1032 11.9883 24.8952 15.2843L9.98322 17.6843Z" fill="#FFF4B3"/>
<path d="M8.44717 56.8204C7.93517 43.8924 8.25518 33.1404 8.67118 27.4124C6.52718 26.0044 5.53517 24.9164 5.11917 24.3084C5.03277 24.1913 4.98861 24.0482 4.99469 23.9026C5.00045 23.7574 5.0555 23.6182 5.15118 23.5084C8.54318 19.2524 11.4552 15.5404 14.4952 13.8124C17.5352 12.0844 21.6952 11.6364 28.3192 18.2284C28.3825 18.3128 28.4139 18.4169 28.4081 18.5222C28.4024 18.6278 28.3595 18.7276 28.2872 18.8044C27.7611 19.3266 27.2056 19.8182 26.6232 20.2764C27.9672 22.6764 29.9192 26.3244 29.9192 26.3244H31.4552C32.4395 26.3244 33.3838 26.7154 34.0798 27.4118C34.7761 28.1078 35.1672 29.0518 35.1672 30.0364C35.1992 33.0124 34.4952 36.5964 33.1192 41.2044C39.2632 46.1964 37.7592 56.7884 37.7592 56.7884L8.44717 56.8204Z" fill="#29CC7A"/>
<path d="M33.1193 41.2043C33.3113 40.5323 33.5033 39.9243 33.6633 39.2843L28.8312 41.9723C28.8312 41.9723 21.1833 36.8203 8.35125 33.6203C8.12725 39.5723 8.09525 47.6363 8.44725 56.8203H37.7593C37.7593 56.8203 39.2633 46.1963 33.1193 41.2043Z" fill="#8CD9FF"/>
<path d="M34.3353 42.3883C33.9621 41.9618 33.5554 41.5659 33.1193 41.2043C33.3113 40.5323 33.5033 39.9243 33.6633 39.2843L28.8313 41.9723C28.8313 41.9723 21.1833 36.8203 8.35126 33.6203C8.31926 34.3563 8.28726 35.1563 8.28726 35.9563C18.1113 40.0203 23.3913 46.9963 23.9993 56.8203H31.2633C32.5433 51.1883 33.5673 46.2603 34.3353 42.3883Z" fill="#BAE8FF"/>
<path d="M12.2232 29.8764H12.3512C12.4152 29.8124 12.4792 29.7804 12.5112 29.6844L15.2952 20.6924C15.3138 20.6546 15.3243 20.6133 15.3253 20.5711C15.3263 20.5292 15.3183 20.4872 15.3013 20.4488C15.2847 20.4101 15.2594 20.3756 15.228 20.3477C15.1963 20.3199 15.1592 20.2994 15.1186 20.2876C15.0783 20.2757 15.0357 20.2728 14.9941 20.2789C14.9525 20.2853 14.9128 20.3007 14.8776 20.324C14.8427 20.3474 14.8133 20.3781 14.7912 20.4143C14.7695 20.4501 14.7557 20.4904 14.7512 20.5324L12.0632 29.2364C10.9019 28.741 9.78802 28.141 8.73522 27.4444H8.67122C8.67122 27.6364 8.63922 27.8604 8.63922 28.0524C9.74482 28.7637 10.9122 29.3743 12.1272 29.8764H12.2232Z" fill="black"/>
<path d="M24.1273 15.4124L12.6712 16.2444C25.4712 18.6764 26.0153 19.0284 24.1273 15.4124Z" fill="black"/>
<path d="M21.2641 23.7357C21.7064 23.5572 21.7861 22.7213 21.4417 21.8692C21.0974 21.0173 20.46 20.4714 20.0174 20.65C19.5749 20.8288 19.4955 21.6644 19.8398 22.5165C20.1838 23.3687 20.8216 23.9146 21.2641 23.7357Z" fill="black"/>
<path d="M24.5631 25.5051C25.1336 24.4274 25.0645 23.2722 24.4085 22.925C23.7525 22.5774 22.7583 23.1698 22.1874 24.2472C21.6168 25.325 21.6863 26.4802 22.342 26.8277C22.998 27.1749 23.9925 26.5829 24.5631 25.5051Z" stroke="white" stroke-miterlimit="10"/>
<path d="M29.2751 25.5116C29.8456 24.4341 29.7765 23.2789 29.1205 22.9314C28.4645 22.5842 27.4703 23.1762 26.8997 24.254C26.3291 25.3317 26.3983 26.4869 27.0543 26.8341C27.7103 27.1813 28.7045 26.5893 29.2751 25.5116Z" stroke="white" stroke-miterlimit="10"/>
<path d="M26.0386 23.5812C26.3336 23.4622 26.3045 22.7015 25.9733 21.882C25.6424 21.0628 25.1349 20.4951 24.8399 20.6145C24.5451 20.7335 24.5743 21.4942 24.9051 22.3137C25.2363 23.1329 25.7439 23.7006 26.0386 23.5812Z" fill="black"/>
<path d="M29.0873 31.9563C26.6165 31.9643 24.2191 31.1163 22.3033 29.5563C20.3193 27.9243 21.1193 27.7323 22.3673 27.7003C23.6153 27.6683 29.5993 27.8923 31.3273 28.1483C33.0553 28.4043 33.3753 31.8283 29.0873 31.9563Z" fill="#912869"/>
<path d="M29.0873 31.9563C26.6165 31.9643 24.2191 31.1163 22.3033 29.5563C20.3193 27.9243 21.1193 27.7323 22.3673 27.7003C23.6153 27.6683 29.5993 27.8923 31.3273 28.1483C33.0553 28.4043 33.3753 31.8283 29.0873 31.9563Z" fill="#611B46"/>
<path d="M28.9593 35.5403L28.8313 34.3563C29.7353 34.2843 30.6162 34.0341 31.4233 33.6203" stroke="black" stroke-linecap="round" stroke-linejoin="round"/>
<path d="M30.2713 31.7963C28.5433 30.1323 26.2073 28.8843 21.8873 29.1723C25.5993 32.5963 29.4713 32.0203 30.2713 31.7963Z" fill="#EB459F"/>
<path d="M24.7673 24.3724H26.7193" stroke="white" stroke-miterlimit="10"/>
<path d="M21.8232 24.7563L13.5672 21.3963C13.3941 21.3291 13.2072 21.3051 13.0229 21.3256C12.8383 21.3464 12.6616 21.4113 12.5074 21.515C12.3535 21.6187 12.2267 21.7582 12.1384 21.9214C12.0498 22.0846 12.0021 22.2667 11.9992 22.4523C11.9954 22.6708 12.0575 22.8852 12.1775 23.068C12.2971 23.2504 12.4693 23.3928 12.6712 23.4763L13.2152 23.7323" stroke="white" stroke-miterlimit="10" stroke-linecap="round"/>
<path d="M20.0952 20.5643C20.7445 20.581 21.3928 20.4946 22.0152 20.3083" stroke="black" stroke-miterlimit="10" stroke-linecap="round"/>
<path d="M24.8952 20.5643C25.3045 20.5749 25.7106 20.4872 26.0792 20.3083" stroke="black" stroke-miterlimit="10" stroke-linecap="round"/>
<path d="M11.0713 16.5642C22.4953 16.4042 26.3673 15.1242 29.6313 13.9402C32.8953 12.7562 32.5753 11.8282 30.0793 11.9242C27.5833 12.0202 19.0393 15.2842 11.0713 16.5642Z" fill="#FFF4B3"/>
<path d="M11.0713 16.5643L14.9753 16.2443L24.3513 14.3883L22.0153 12.0843H10.8473L11.0713 16.5643Z" fill="#FFF4B3"/>
<path d="M29.9832 28.3723L27.7432 28.2443C27.9992 29.5883 28.6392 30.2923 29.1832 30.0683C29.7272 29.8443 29.9192 28.6603 29.9832 28.3723Z" fill="white"/>
<path d="M23.0713 28.0843C23.3593 29.6203 23.9353 30.4203 24.4793 30.1643C25.0233 29.9083 25.1513 28.6282 25.2473 28.1162L23.0713 28.0843Z" fill="white"/>
<path d="M25.6633 12.8843C20.7311 14.2056 15.7321 15.2631 10.6873 16.0523" stroke="#FFC619" stroke-width="2" stroke-miterlimit="10" stroke-linecap="round"/>
</g>
<defs>
<clipPath id="clip0_85_2888">
<rect width="45" height="45" rx="22.5" fill="white"/>
</clipPath>
</defs>
</svg>
