<svg width="45" height="45" viewBox="0 0 45 45" fill="none" xmlns="http://www.w3.org/2000/svg">
<g clip-path="url(#clip0_85_2853)">
<rect width="45" height="45" rx="22.5" fill="#FFE75C"/>
<path d="M34.5402 45.7445C34.7005 46.3947 34.7107 47.0731 34.5699 47.7279C34.4294 48.3829 34.1414 48.997 33.7283 49.5243C33.3152 50.0514 32.7875 50.4779 32.1853 50.7711C31.5831 51.0642 30.9223 51.2165 30.2522 51.2165H21.1002L16.8122 53.6165V53.4885C14.8602 53.4885 13.7405 52.8485 14.6045 45.6805C14.2205 43.6645 12.4285 35.7285 11.4365 29.8085C10.5405 24.4005 12.5565 22.4165 18.1245 19.2805C20.4925 12.2405 26.6362 12.6565 27.8202 16.8805C29.0042 21.1045 32.9082 39.0565 34.5402 45.7445Z" fill="#66BCFF"/>
<path d="M34.5402 45.7445C33.7082 42.2885 32.2362 35.8885 30.8602 29.9045L23.6922 29.3605L18.1565 33.2645L14.9565 37.5525L13.3245 39.7605C13.9005 42.5125 14.3802 44.7525 14.5722 45.7125C13.7082 52.8805 14.8282 53.5205 16.7802 53.5205L22.4445 51.1205L35.5645 50.1925C35.2445 48.7525 34.8922 47.2485 34.5402 45.7445Z" fill="#EB459F"/>
<path d="M19.8746 42.142C20.2781 39.7548 20.0688 37.7285 19.4064 37.6165C18.7444 37.5045 17.8804 39.349 17.4765 41.7365C17.0727 44.1237 17.2823 46.1497 17.9444 46.2617C18.6064 46.3737 19.4708 44.5292 19.8746 42.142Z" fill="black"/>
<path d="M15.6922 36.2085C16.0122 35.6325 16.3645 35.0565 16.7165 34.5445C20.3325 29.3285 23.7242 27.9204 26.9882 27.9204H31.0522C31.113 27.922 31.1722 27.938 31.2256 27.9668C31.2788 27.9956 31.3245 28.0369 31.3588 28.0868C31.393 28.1368 31.4151 28.194 31.4231 28.2542C31.4311 28.3144 31.4247 28.3755 31.4045 28.4325L30.8602 29.9045C24.6202 29.9045 22.4122 29.7125 17.2282 35.1525L14.9565 37.5525L15.6922 36.2085Z" fill="#D11583"/>
<path d="M17.2282 35.3444C15.0842 35.7284 13.3882 36.8484 12.4282 38.8324C12.1556 39.3828 11.762 39.8641 11.2762 40.2404L5.51622 44.4324C4.86886 44.8919 4.41766 45.5777 4.25158 46.354C4.08582 47.1304 4.21734 47.9406 4.62022 48.6244C4.90118 49.1044 5.30342 49.5019 5.7863 49.7771C6.2695 50.0523 6.81638 50.1956 7.37222 50.1924H9.77222C14.7642 47.4084 17.0682 45.5204 18.2522 44.4324C19.4362 43.3444 20.7482 41.3924 20.5242 39.1524C20.3002 36.9124 19.6602 34.8964 17.2282 35.3444Z" fill="white"/>
<path d="M19.0202 18.8006C18.2522 17.5206 17.2282 15.8246 16.8442 15.0246C16.4602 14.2246 15.5322 14.4166 16.8442 18.0006C13.6442 16.7846 12.9722 17.2326 12.8122 17.6806C12.6522 18.1286 13.3562 18.3526 14.7002 19.1206C16.0442 19.8886 17.4842 20.8166 17.4842 20.8166L19.0202 18.8006Z" fill="#66BCFF"/>
<path d="M22.3482 18.8965C22.8922 18.2245 23.0845 17.4885 22.7645 17.2325C22.4445 16.9765 22.0922 17.1045 21.6122 17.7445C21.4051 18.0047 21.1808 18.2507 20.9402 18.4805C20.3962 18.9925 20.5242 19.3765 20.7802 19.6005C21.0362 19.8245 21.8042 19.5685 22.3482 18.8965Z" fill="black"/>
<path d="M27.7882 16.9125C27.7882 16.9125 23.9802 15.1845 22.3482 14.1285C20.7162 13.0725 19.8842 11.5045 20.6202 11.0885C21.3562 10.6725 22.7645 11.6645 23.7565 12.9445C23.7245 10.6725 24.1085 10.1925 24.7165 10.1605C25.3245 10.1285 25.3882 11.0245 25.4202 12.3045C25.4522 13.5845 25.6765 14.0965 26.6365 14.9605C27.2112 15.4779 27.6132 16.1592 27.7882 16.9125Z" fill="#3442D9"/>
<path d="M13.8045 27.5365C12.9085 27.5365 12.1405 26.7685 12.8445 25.4245C13.5485 24.0805 15.8522 22.7365 16.9722 22.2245C18.0922 21.7125 18.6045 22.2245 18.6365 22.6085C18.6685 22.9925 18.5082 23.5685 17.7082 24.5925C16.9082 25.6165 15.4365 27.5365 13.8045 27.5365Z" fill="white"/>
<path d="M14.5082 27.4405L13.9645 27.5365L13.1965 24.9125L13.6445 24.4325L14.5082 27.4405Z" fill="#8CD9FF"/>
<path d="M16.4922 26.0324L16.0445 26.4804L15.1482 23.2484L15.6282 22.9284L16.4922 26.0324Z" fill="#8CD9FF"/>
<path d="M18.2845 23.7925L17.8682 24.3685L17.2282 22.1285L17.7722 22.0325L18.2845 23.7925Z" fill="#8CD9FF"/>
<path d="M17.5802 21.7445C18.1725 22.0274 18.7818 22.2735 19.4045 22.4805" stroke="black" stroke-linecap="round" stroke-linejoin="round"/>
<path d="M31.8522 34.1285C31.2397 33.6427 30.4893 33.3627 29.7085 33.3285C28.0445 33.3285 27.1165 34.9605 26.7965 36.5285C26.745 36.78 26.609 37.0059 26.4109 37.1691C26.2128 37.3323 25.9648 37.4222 25.7085 37.4245H25.4845C25.3402 37.3979 25.2026 37.3425 25.0803 37.2612C24.9578 37.1803 24.8531 37.0753 24.7725 36.9528C24.6919 36.8302 24.6365 36.6926 24.6106 36.5483C24.5843 36.4037 24.5879 36.2555 24.6205 36.1125C25.2285 33.0725 27.2125 31.1204 29.7085 31.1204C30.1213 31.1256 30.5203 31.2709 30.8403 31.5326C31.16 31.7941 31.3815 32.1566 31.4685 32.5604L31.8522 34.1285Z" fill="white"/>
<path d="M34.5402 45.7445C34.6109 46.0306 34.6225 46.3282 34.5745 46.6187C34.5265 46.9096 34.4202 47.1877 34.2615 47.436C34.1028 47.6843 33.8954 47.8978 33.6519 48.0635C33.4084 48.2296 33.1335 48.3442 32.8445 48.4005L32.0445 48.4645C30.2205 48.4645 28.3322 47.3765 26.8602 45.4885C26.7722 45.3707 26.7079 45.237 26.6714 45.0946C26.6349 44.9518 26.6269 44.8037 26.6477 44.6581C26.6685 44.5125 26.7178 44.3723 26.7927 44.2459C26.8676 44.1192 26.9668 44.0088 27.0845 43.9205C27.2004 43.828 27.3341 43.7602 27.4772 43.7211C27.6202 43.6824 27.77 43.6731 27.9169 43.6939C28.0637 43.715 28.2045 43.7656 28.3313 43.8434C28.4577 43.9208 28.5671 44.0232 28.6522 44.1445C29.6762 45.4565 30.9245 46.2565 32.0445 46.2565C33.1645 46.2565 33.8365 45.6165 34.3165 44.7845C34.3805 45.1365 34.4762 45.4565 34.5402 45.7445Z" fill="#2331B5"/>
<path d="M32.3962 36.5925C32.1702 36.5938 31.9504 36.6651 31.7667 36.797C31.5834 36.9288 31.4454 37.1147 31.3722 37.3285L30.0282 40.9445C29.9107 41.284 29.9133 41.6536 30.0355 41.9915C30.1581 42.3294 30.3926 42.6149 30.7002 42.8005C30.8394 42.8859 30.9962 42.9394 31.1584 42.956C31.321 42.973 31.4851 42.9528 31.639 42.8974C31.7926 42.8421 31.9318 42.7528 32.0464 42.6363C32.161 42.5198 32.2477 42.379 32.3002 42.2245L33.1645 39.8885C32.9405 38.8325 32.6842 37.7445 32.3962 36.5925Z" fill="#5865F2"/>
<path d="M30.7002 42.8004C30.3926 42.6148 30.1581 42.3294 30.0355 41.9914C29.9133 41.6535 29.9107 41.2839 30.0282 40.9444L30.4122 39.9524C30.4765 39.7793 30.5776 39.6222 30.7082 39.4916C30.839 39.3614 30.9965 39.2609 31.1696 39.1969C31.343 39.1332 31.528 39.1076 31.7123 39.122C31.8963 39.1364 32.0752 39.1905 32.2362 39.2804C32.4995 39.4343 32.7011 39.6746 32.8061 39.961C32.911 40.2471 32.9133 40.5607 32.8122 40.8484L32.3002 42.2244C32.2477 42.379 32.161 42.5198 32.0464 42.6362C31.9318 42.7527 31.7926 42.842 31.639 42.8974C31.4851 42.9527 31.321 42.9729 31.1584 42.9559C30.9962 42.9393 30.8394 42.8862 30.7002 42.8004Z" fill="#FFE75C"/>
</g>
<defs>
<clipPath id="clip0_85_2853">
<rect width="45" height="45" rx="22.5" fill="white"/>
</clipPath>
</defs>
</svg>
