<svg width="45" height="45" viewBox="0 0 45 45" fill="none" xmlns="http://www.w3.org/2000/svg">
<g clip-path="url(#clip0_85_1998)">
<rect width="45" height="45" rx="22.5" fill="#3091F0"/>
<path d="M23.1289 19.7922L13.1625 14.9203C14.638 23.0772 16.9765 25.1373 18.953 25.3322C20.9296 25.5271 22.6 23.1329 23.1289 19.7922Z" fill="#D11583"/>
<path d="M23.1289 19.7921L30.6455 15.1152C28.8638 23.2442 26.8594 24.5805 25.356 24.7475C23.8527 24.9146 23.0175 23.1329 23.1289 19.7921Z" fill="#D11583"/>
<path d="M22.377 27.4763C26.0518 26.3627 26.4137 26.6132 28.6409 29.1466C30.868 31.68 32.1765 33.4339 34.6263 35.494L32.594 37.3592C27.4438 33.5731 26.3859 32.0697 22.377 27.4763Z" fill="#FFE75C"/>
<path d="M39.3868 44.9591C36.5751 41.7854 32.9281 38.7231 28.0841 34.6864C28.0841 34.6864 28.1676 33.5171 28.3068 32.2644C28.5295 29.7867 27.4995 29.0907 23.6855 27.2811L14.9996 28.6731C15.278 32.7655 16.0575 33.7398 17.7 36.4402C16.8092 40.0315 16.1132 47.4368 16.4194 56.7351C16.4231 56.8083 16.4412 56.8798 16.4723 56.9461C16.5038 57.0123 16.5478 57.0716 16.6021 57.1209C16.6563 57.1699 16.7198 57.2078 16.7889 57.2326C16.8579 57.2571 16.9308 57.2676 17.0041 57.264C24.2701 57.1527 34.5985 54.4522 39.4703 45.7942C39.5411 45.6626 39.5708 45.5128 39.5561 45.3638C39.5413 45.2152 39.4823 45.074 39.3868 44.9591Z" fill="#0C1AAD"/>
<path d="M23.6853 27.2811L14.8324 28.6731C15.083 32.7655 16.0017 33.7955 17.6999 36.4402C21.0684 35.2988 25.133 34.1296 28.0839 34.6864C28.0839 34.6864 28.3066 33.5171 28.418 32.2644C28.6407 29.7867 27.722 29.0628 23.6853 27.2811Z" fill="white"/>
<path d="M29.6709 21.1568C29.1977 17.4541 21.5697 12.9999 19.7045 13.1947C17.8392 13.3896 11.9373 17.8996 11.7981 21.7135C11.6589 25.5275 15.4729 28.2558 20.7624 28.2558C26.0518 28.2558 30.1999 25.1378 29.6709 21.1568Z" fill="#FFE75C"/>
<path d="M19.2308 27.4759L19.3979 27.5316C19.4839 27.5246 19.5635 27.4846 19.6206 27.4202C19.6426 27.391 19.6587 27.3576 19.6676 27.3223C19.6768 27.2869 19.6788 27.25 19.6735 27.2138C19.6685 27.1776 19.6562 27.1428 19.6376 27.1114C19.6189 27.0799 19.5941 27.0524 19.5649 27.0305C16.2242 24.5249 14.4146 23.3 12.8278 24.9704C12.9233 25.1302 13.0352 25.2795 13.1619 25.4158C13.1619 25.4084 13.1649 25.4013 13.1702 25.3961C13.1752 25.3909 13.1825 25.388 13.1897 25.388C14.359 24.1352 15.5839 24.7476 19.2308 27.4759Z" fill="#FFC619"/>
<path d="M19.4537 16.0898C17.1987 13.0831 14.7767 11.3571 11.5195 9.43619C9.04181 7.96071 9.68211 5.48301 12.8001 6.09548C15.9181 6.70794 18.9247 10.1322 20.3724 13.2502C23.5461 8.62885 24.1307 6.90282 26.6362 7.57096C29.1418 8.2391 29.9213 11.023 30.0604 12.3036C30.1996 13.5842 29.9769 14.0297 28.5293 14.0297C27.0816 14.0297 26.2465 12.8883 25.7732 11.4963C24.5987 13.189 23.2858 14.7813 21.8479 16.2568C20.8735 17.2033 20.4837 17.4261 19.4537 16.0898Z" fill="#FFE75C"/>
<path d="M22.3494 13.6676L24.9384 10.132" stroke="#FFC619" stroke-miterlimit="10" stroke-linecap="round"/>
<path d="M23.129 19.7924C22.6 23.1331 20.9575 25.5273 18.9531 25.3324C16.9487 25.1375 15.167 23.5507 13.7193 17.5931C14.2029 17.0125 14.7235 16.4638 15.2783 15.9506L23.129 19.7924Z" fill="#FF8C19"/>
<path d="M29.3085 19.9596C27.9166 23.8292 26.4968 24.6366 25.3554 24.7479C24.214 24.8593 23.0169 23.1332 23.1282 19.7925L27.1649 17.287C28.0836 18.15 28.8631 19.0409 29.3085 19.9596Z" fill="#FF8C19"/>
<path d="M26.2467 20.4884L26.9149 19.7089" stroke="black" stroke-linecap="round" stroke-linejoin="round"/>
<path d="M26.3026 21.0172L27.3883 20.4047" stroke="black" stroke-linecap="round" stroke-linejoin="round"/>
<path d="M18.8692 20.6552L18.2567 19.5138" stroke="black" stroke-linecap="round" stroke-linejoin="round"/>
<path d="M18.8134 21.1842L17.1709 20.0706" stroke="black" stroke-linecap="round" stroke-linejoin="round"/>
<path d="M20.9017 22.4102C21.5876 21.6211 21.6074 20.5154 20.9459 19.9404C20.2845 19.3655 19.1923 19.539 18.5064 20.3281C17.8204 21.1171 17.8007 22.2229 18.4621 22.7979C19.1236 23.3728 20.2157 23.1993 20.9017 22.4102Z" fill="white"/>
<path d="M26.6363 21.2955C26.9982 20.3768 26.6641 19.5138 25.9403 19.2911C25.2165 19.0684 24.2978 19.5973 23.8802 20.516C23.4626 21.4347 23.741 22.4648 24.5484 22.6875C25.3557 22.9102 26.3022 22.2699 26.6363 21.2955Z" fill="white"/>
<path d="M20.3172 22.4821C20.5491 22.2804 20.6148 21.9757 20.4634 21.8017C20.3122 21.6276 20.0013 21.65 19.7694 21.8518C19.5372 22.0535 19.4718 22.3582 19.6229 22.5322C19.7744 22.7063 20.085 22.6838 20.3172 22.4821Z" fill="black"/>
<path d="M25.4226 22.1852C25.62 22.0137 25.6734 21.7524 25.5423 21.6015C25.4112 21.4507 25.145 21.4674 24.9477 21.6389C24.7506 21.8104 24.6968 22.0717 24.828 22.2225C24.9591 22.3734 25.2255 22.3566 25.4226 22.1852Z" fill="black"/>
<path d="M21.7091 26.0843C22.2077 25.8046 22.6587 25.4475 23.0454 25.0264" stroke="black" stroke-linecap="round" stroke-linejoin="round"/>
<path d="M24.8551 33.2386C27.0822 31.8745 30.3672 32.487 31.2859 34.7698C33.0676 31.8188 35.3505 31.1507 36.9095 32.5148L31.6757 36.6629L24.8551 33.2386Z" fill="#FF78B9"/>
<path d="M31.6752 36.663L31.536 35.5216" stroke="black" stroke-linecap="round" stroke-linejoin="round"/>
<path d="M29.3368 43.8735H29.6709C29.9393 43.8785 30.1988 43.7785 30.3947 43.5951L34.1809 40.0595C34.2321 40.0266 34.2714 39.9776 34.2922 39.9203L37.8557 32.8213C37.8977 32.733 37.9094 32.6336 37.8893 32.5379C37.8693 32.4424 37.8181 32.3561 37.7443 32.2923H37.7165C37.6444 32.2258 37.55 32.1888 37.452 32.1888C37.354 32.1888 37.2593 32.2258 37.1875 32.2923L31.6754 36.6631L24.465 33.044C24.3288 32.9697 24.1696 32.9499 24.0196 32.9883C23.9171 33.0195 23.8244 33.0771 23.7512 33.1553C23.678 33.2333 23.6265 33.3293 23.602 33.4337L22.043 40.1152C22.0299 40.1814 22.0393 40.2502 22.0697 40.3106C22.0998 40.371 22.149 40.4197 22.21 40.4492L28.8636 43.7621C29.0084 43.8412 29.1718 43.8796 29.3368 43.8735Z" fill="#3F99F2"/>
<path d="M23.7412 33.1831C23.6844 33.2605 23.6376 33.3446 23.602 33.4337L22.043 40.1151C22.0299 40.1813 22.0393 40.2501 22.0697 40.3105C22.0998 40.3709 22.149 40.4196 22.21 40.4492L28.8079 43.7342C28.8421 43.7528 28.88 43.7637 28.919 43.7668C28.958 43.7698 28.9969 43.7645 29.0337 43.7514C29.0704 43.7384 29.1041 43.7175 29.1322 43.6905C29.1606 43.6638 29.1826 43.6312 29.1977 43.595L31.564 37.6095C31.5941 37.5205 31.591 37.4233 31.5551 37.3364C31.5192 37.2493 31.4532 37.1783 31.3691 37.1363L23.7412 33.1831Z" fill="#66BCFF"/>
<path d="M36.1579 36.1896C35.7403 36.9969 35.3784 37.2475 34.5432 37.8043C33.7081 38.3611 33.7916 38.5003 33.3183 39.6417C32.845 40.7831 33.0121 41.2285 33.7637 40.7831C34.4881 40.3307 35.1524 39.7881 35.7403 39.1684C36.2136 38.6395 36.3806 38.027 36.7704 36.9134C37.1601 35.7998 37.0766 35.4379 36.6869 35.1595L36.1579 36.1896Z" fill="#FFE75C"/>
<path d="M39.9157 56.039C44.2308 51.362 40.9457 48.4668 37.2431 44.5693L33.6518 44.3744L32.2877 47.214C36.2687 50.9445 37.4658 51.8632 36.6863 52.8097C35.9068 53.7562 34.9881 54.7584 32.2877 57.5424C34.4592 59.4911 33.5683 59.9365 32.6496 61.9688C32.2599 62.8597 32.6496 63.2494 33.0951 64.8919C33.1106 64.3566 33.2746 63.8363 33.5683 63.3886C34.8768 61.4955 35.5728 60.716 39.9157 56.039Z" fill="#FFE75C"/>
<path d="M38.3288 45.7108C37.9669 45.321 35.6563 45.7108 34.0694 48.8566L31.4247 47.047L36.2966 44.5137H37.9112L38.3288 45.7108Z" fill="black"/>
<path d="M28.5575 38.6396C28.3627 38.2777 27.8337 37.7766 25.5231 36.7187C26.1077 35.9949 26.4417 35.2154 26.3026 34.9092C26.1634 34.6029 25.8571 34.5751 25.2168 35.1876C24.3727 36.0344 23.37 36.7062 22.2659 37.1642C22.0504 37.246 21.8263 37.302 21.5977 37.3312C20.8182 37.4982 18.6189 37.888 15.7515 38.3612C15.7793 37.6096 15.7793 32.0696 15.7793 32.0696C17.1387 30.659 18.6303 29.3817 20.2336 28.2556C16.0299 25.0541 14.443 23.9962 12.9954 25.5552C11.5477 27.1142 11.5199 29.6476 11.854 35.3546C12.0489 39.1964 12.2716 42.732 13.6635 43.0382C15.0555 43.3445 21.2358 40.1151 22.0153 39.7254C22.6556 40.0873 23.4908 40.143 24.5487 39.9481L26.2747 41.34C26.3343 41.384 26.4053 41.4099 26.4793 41.4147C26.5534 41.4197 26.6272 41.4035 26.6923 41.3679C26.7382 41.3437 26.7781 41.3091 26.8081 41.2668C26.8385 41.2245 26.8585 41.1758 26.8666 41.1243C26.8747 41.0731 26.8708 41.0205 26.8549 40.9709C26.8393 40.9213 26.812 40.8762 26.7758 40.8389C26.4974 40.5049 26.052 40.0316 25.3839 39.3635L26.7201 40.0316C27.1934 40.2543 27.4718 40.3935 28.0564 39.7532C28.6411 39.1129 28.7524 39.0015 28.5575 38.6396Z" fill="#FFE75C"/>
<path d="M17.4492 56.6515C23.8522 55.872 27.4435 52.3086 30.5058 49.1628C33.5681 46.0169 35.1271 45.3488 39.0524 45.3488L35.656 41.7018L23.0727 47.6038L17.4492 56.6515Z" fill="#0C1AAD"/>
<path d="M16.085 28.8121C16.0474 28.8077 16.0093 28.8118 15.9733 28.8241C15.9374 28.8366 15.9051 28.8569 15.8781 28.8837C15.8514 28.9107 15.8311 28.943 15.8186 28.9789C15.8063 29.0148 15.8021 29.0529 15.8066 29.0905V32.0693L16.3634 31.4847V29.0905C16.3634 29.054 16.3561 29.0179 16.3422 28.9839C16.3283 28.9502 16.3077 28.9196 16.2818 28.8937C16.2559 28.8678 16.2253 28.8472 16.1916 28.8333C16.1576 28.8194 16.1215 28.8121 16.085 28.8121Z" fill="black"/>
<path d="M14.8049 38.5283H14.8327L15.7514 38.3613C15.7503 38.1753 15.7598 37.9893 15.7793 37.8045H15.6679L14.7492 37.9437C14.678 37.9568 14.6136 37.9949 14.5677 38.0509C14.5218 38.1068 14.4973 38.1775 14.4987 38.2499C14.5109 38.324 14.5477 38.3916 14.6033 38.4423C14.659 38.4927 14.7297 38.523 14.8049 38.5283Z" fill="black"/>
<path d="M25.7178 38.0272L28.0285 39.3913" stroke="#FFC619" stroke-width="2" stroke-miterlimit="10" stroke-linecap="round"/>
<path d="M36.2685 37.693C36.2852 37.6619 36.2914 37.6262 36.2864 37.5911C36.2813 37.5561 36.2655 37.5235 36.2407 37.4982C36.2101 37.4709 36.1705 37.4556 36.1293 37.4556C36.0881 37.4556 36.0486 37.4709 36.018 37.4982C35.8231 37.7487 35.6004 37.9714 35.3777 38.222L34.6817 38.8901C34.4445 39.0847 34.1934 39.2618 33.93 39.4191C33.8178 39.4848 33.6956 39.5318 33.5681 39.5583H33.3733L33.3176 39.6696C33.2633 39.7966 33.2168 39.9269 33.1784 40.0594L33.2897 40.115C33.4108 40.1343 33.535 40.1248 33.6516 40.0872C33.844 40.0594 34.0261 39.9825 34.1806 39.8645C34.4632 39.6805 34.7246 39.4658 34.9601 39.2242L35.6561 38.5004L36.2685 37.693Z" fill="#FFC619"/>
<path d="M24.9661 9.4365C24.9355 9.3708 24.8809 9.31952 24.8133 9.29355C24.7456 9.26755 24.6707 9.26891 24.6042 9.29731C24.5363 9.33308 24.4845 9.39296 24.4586 9.46512C24.433 9.53725 24.4352 9.61646 24.465 9.68706C24.8253 10.4633 25.1321 11.2632 25.3837 12.0812L25.7735 11.5244C25.2445 9.99329 24.994 9.4365 24.9661 9.4365Z" fill="black"/>
<path d="M12.132 8.26697C16.2243 9.90948 18.0896 12.1088 19.6764 14.4751" stroke="#FFC619" stroke-miterlimit="10" stroke-linecap="round"/>
<path d="M22.2377 22.799C23.0172 21.1008 22.9894 20.7946 23.3513 22.7155H23.5183V19.8759L23.1286 19.7924L22.2934 20.0151L22.015 22.7712L22.2377 22.799Z" fill="#FF8C19"/>
</g>
<defs>
<clipPath id="clip0_85_1998">
<rect width="45" height="45" rx="22.5" fill="white"/>
</clipPath>
</defs>
</svg>
