<svg width="45" height="45" viewBox="0 0 45 45" fill="none" xmlns="http://www.w3.org/2000/svg">
<rect width="45" height="45" rx="22.5" fill="#EB459F"/>
<path d="M27.7916 25.2533L13.0784 22.6577C17.8752 32.5239 21.6826 34.2878 24.314 33.8145C26.9455 33.3413 28.2648 29.6917 27.7916 25.2533Z" fill="#D11583"/>
<path d="M27.7916 25.2533L35.9011 16.5774C36.446 27.5693 34.338 30.0072 32.402 30.7385C30.4661 31.4699 28.8384 29.5554 27.7916 25.2533Z" fill="#D11583"/>
<path d="M36.783 24.6009C34.8399 20.0478 23.3246 17.1582 20.9585 18.0904C18.7214 18.9795 12.5335 26.9025 13.7094 31.771C14.8853 36.6396 20.8294 38.7763 27.6984 36.8619C34.5675 34.9474 38.8624 29.4766 36.783 24.6009Z" fill="#FFE75C"/>
<path d="M21.6683 21.8618C17.6674 18.8719 13.9317 17.5597 8.97713 16.2691C5.22713 15.3083 5.19128 11.8953 9.47188 11.5726C13.7525 11.25 18.8505 14.498 21.8834 17.9469C24.3356 10.8986 24.4934 8.4751 28.0068 8.43925C31.5202 8.4034 33.492 11.6443 34.1301 13.2074C34.632 14.4263 34.6535 15.4517 32.7534 15.9823C30.8533 16.5129 29.3834 15.3441 28.2936 13.7524C27.3601 16.3279 26.2062 18.8181 24.8447 21.195C23.9269 22.7724 23.4824 23.2026 21.6683 21.8618Z" fill="#FFE75C"/>
<path d="M24.6726 18.0617C24.7253 18.0452 24.774 18.0187 24.816 17.9828C24.8572 17.9455 24.8891 17.8989 24.9092 17.8466L27.01 12.4116C27.028 12.3693 27.0372 12.3248 27.0372 12.2789C27.0372 12.233 27.028 12.1879 27.01 12.1463C26.9915 12.104 26.9645 12.0653 26.9308 12.0337C26.897 12.0014 26.8572 11.9771 26.8136 11.9606C26.7701 11.9448 26.7238 11.9376 26.6774 11.9398C26.6311 11.9419 26.5857 11.9541 26.544 11.9742C26.4568 12.0115 26.3874 12.0803 26.3504 12.1678L24.2495 17.6028C24.2393 17.6472 24.2393 17.6938 24.2495 17.739C24.2421 17.7842 24.2421 17.8301 24.2495 17.8752C24.2649 17.9176 24.2923 17.9556 24.3284 17.9828C24.3617 18.0172 24.4039 18.0423 24.4503 18.0545C24.5214 18.0818 24.5998 18.0846 24.6726 18.0617Z" fill="#FFC619"/>
<path d="M27.7917 25.2533C28.2864 29.6917 26.9671 33.327 24.307 33.8074C21.9767 34.2232 18.7644 32.9039 14.7563 25.8556C15.1707 24.9407 15.65 24.0566 16.1903 23.2098L27.7917 25.2533Z" fill="#FF8C19"/>
<path d="M35.8509 23.2242C35.4135 28.6664 33.8576 30.1936 32.4092 30.7385C30.4947 31.4555 28.8241 29.5555 27.7773 25.2605L32.1511 20.6214C33.53 21.261 34.7831 22.1422 35.8509 23.2242Z" fill="#FF8C19"/>
<path d="M32.1582 25.3538C32.2071 25.3373 32.2531 25.3129 32.2945 25.2821C32.3295 25.2448 32.3607 25.2039 32.3877 25.1602L32.9828 23.9198C33.0004 23.8775 33.0094 23.8323 33.0094 23.7871C33.0094 23.7412 33.0004 23.6968 32.9828 23.6545C32.949 23.5663 32.8822 23.4946 32.7967 23.4544C32.7111 23.4143 32.6134 23.4092 32.5239 23.4394C32.4374 23.4723 32.366 23.5362 32.3232 23.6186L31.7137 24.859C31.6943 24.9021 31.6843 24.948 31.6843 24.9953C31.6843 25.0419 31.6943 25.0885 31.7137 25.1315C31.729 25.1753 31.7526 25.2154 31.7834 25.2498C31.8141 25.2842 31.8514 25.3122 31.8929 25.3323C31.9759 25.371 32.0701 25.3789 32.1582 25.3538Z" fill="black"/>
<path d="M32.4379 25.999C32.4972 25.9847 32.5517 25.9553 32.5957 25.913L33.7572 24.7514C33.8229 24.684 33.8613 24.5944 33.8648 24.5004C33.8627 24.4058 33.8241 24.3162 33.7572 24.2495C33.6899 24.1842 33.5999 24.1484 33.5063 24.1491C33.4119 24.1513 33.3219 24.19 33.2553 24.2567L32.0866 25.4182C32.0217 25.4856 31.9856 25.5753 31.9862 25.6692C31.9858 25.7473 32.0117 25.8226 32.06 25.8843C32.1082 25.9452 32.1757 25.9883 32.2515 26.0062C32.313 26.022 32.3778 26.0191 32.4379 25.999Z" fill="black"/>
<path d="M22.6218 28.2218C22.6777 28.2046 22.7292 28.1752 22.7724 28.1358C22.8078 28.1042 22.8363 28.0655 22.856 28.0225C22.8757 27.9794 22.8863 27.9321 22.8871 27.8848C22.8895 27.8389 22.8825 27.793 22.8664 27.75C22.8505 27.707 22.8257 27.6675 22.7939 27.6338L21.6036 26.4221C21.573 26.3877 21.5354 26.3604 21.4934 26.3425C21.4513 26.3239 21.4058 26.3145 21.3599 26.3145C21.2892 26.3109 21.2191 26.3282 21.1585 26.3647C21.0979 26.4013 21.0498 26.4551 21.0203 26.5189C20.9909 26.5834 20.9816 26.6551 20.9935 26.7247C21.0055 26.7942 21.0382 26.8587 21.0874 26.9097L22.2633 28.1142C22.3087 28.1616 22.3655 28.1967 22.4284 28.2153C22.4912 28.234 22.5578 28.2369 22.6218 28.2218Z" fill="black"/>
<path d="M22.751 28.9244C22.8103 28.9101 22.8648 28.8807 22.9088 28.8384C22.9496 28.799 22.9793 28.7495 22.9948 28.695C23.0127 28.6534 23.022 28.6083 23.022 28.5624C23.022 28.5165 23.0127 28.472 22.9948 28.4297C22.9742 28.3881 22.9451 28.3508 22.9093 28.3214C22.8734 28.292 22.8317 28.2698 22.7869 28.2576L20.263 27.4474C20.2155 27.4402 20.1671 27.4402 20.1196 27.4474C20.075 27.4524 20.0315 27.4646 19.9905 27.4832C19.9466 27.5033 19.9076 27.5327 19.8758 27.5693C19.8479 27.6073 19.8239 27.6482 19.8041 27.6912C19.7865 27.7335 19.7775 27.7787 19.7775 27.8238C19.7775 27.8697 19.7865 27.9142 19.8041 27.9565C19.8247 27.9981 19.8538 28.0354 19.8896 28.0648C19.9255 28.0941 19.9672 28.1164 20.012 28.1286L22.5359 28.9388C22.6068 28.9617 22.6837 28.956 22.751 28.9244Z" fill="black"/>
<path d="M22.7724 30.7887C22.5095 30.636 22.2796 30.4331 22.0962 30.1907C21.9127 29.9484 21.7794 29.6716 21.704 29.3777C21.6285 29.083 21.6125 28.7768 21.6569 28.4764C21.7012 28.1752 21.805 27.887 21.9622 27.6267C22.1918 27.0495 22.6355 26.5834 23.2007 26.3253C23.7658 26.0672 24.4088 26.0378 24.9951 26.2428C25.2572 26.3956 25.4864 26.5992 25.6695 26.8416C25.8525 27.0839 25.9859 27.36 26.0619 27.6539C26.1378 27.9472 26.155 28.2534 26.1122 28.5538C26.0694 28.8549 25.9676 29.1439 25.8125 29.4049C25.5801 29.9814 25.1348 30.4467 24.569 30.7041C24.0031 30.9615 23.3599 30.9917 22.7724 30.7887Z" fill="white"/>
<path d="M32.8824 25.8771C32.9971 24.5937 32.2801 23.5898 31.2619 23.5755C30.2437 23.5612 29.2256 24.5722 29.0105 25.8843C28.7954 27.1964 29.5196 28.4154 30.6524 28.401C31.7853 28.3867 32.7676 27.2395 32.8824 25.8771Z" fill="white"/>
<path d="M24.4861 27.555C24.3269 27.4897 24.1998 27.3642 24.1327 27.2058C24.0655 27.0473 24.0637 26.8688 24.1276 26.7089C24.2343 26.5712 24.3902 26.4794 24.5626 26.4543C24.7352 26.4292 24.9108 26.4716 25.0526 26.5727C25.2132 26.6365 25.3418 26.7612 25.4104 26.9204C25.4789 27.0789 25.4818 27.2581 25.4183 27.4187C25.3055 27.55 25.1491 27.6367 24.9777 27.6618C24.8064 27.6862 24.6318 27.6489 24.4861 27.555Z" fill="black"/>
<path d="M31.0038 25.239C30.888 25.1436 30.8146 25.0067 30.7998 24.8576C30.7851 24.7084 30.83 24.5593 30.9249 24.4431C31.0502 24.3585 31.2028 24.3255 31.3519 24.3492C31.501 24.3729 31.6355 24.4532 31.728 24.5722C31.785 24.6188 31.8324 24.6762 31.8673 24.7407C31.9022 24.8059 31.9239 24.8769 31.9312 24.9501C31.9385 25.0239 31.9314 25.0978 31.91 25.168C31.8886 25.2383 31.8536 25.3043 31.8068 25.3609C31.6824 25.4462 31.5303 25.4814 31.3813 25.4584C31.2322 25.4355 31.0973 25.3573 31.0038 25.239Z" fill="black"/>
<path d="M30.1147 33.3269C30.1962 33.304 30.2671 33.2531 30.3155 33.1835C30.3654 33.1183 30.3885 33.0358 30.38 32.9541C30.3793 32.9089 30.3669 32.8645 30.3441 32.825C30.3237 32.7834 30.2943 32.7469 30.2581 32.7175C30.2237 32.6845 30.182 32.6601 30.1362 32.6458C30.091 32.6386 30.0451 32.6386 30 32.6458C29.275 32.6802 28.5491 32.6006 27.8489 32.4092C27.8042 32.3984 27.7574 32.3984 27.7127 32.4092C27.6652 32.4156 27.6191 32.4307 27.5765 32.4522C27.536 32.4744 27.4996 32.5038 27.4689 32.5382C27.4405 32.5748 27.4186 32.6164 27.4044 32.6601C27.3974 32.7053 27.3974 32.7512 27.4044 32.7964C27.411 32.8437 27.4255 32.8903 27.4474 32.9326C27.47 32.9706 27.4991 33.005 27.5334 33.033C27.5726 33.0617 27.6162 33.0832 27.6625 33.0975C28.4489 33.3126 29.2648 33.4001 30.0789 33.3556L30.1147 33.3269Z" fill="black"/>
<path d="M26.5297 11.3862C26.4589 11.3152 26.3647 11.2715 26.2644 11.2643C26.2162 11.2615 26.168 11.2686 26.1224 11.2844C26.0769 11.3002 26.035 11.3253 25.9991 11.3575C25.9616 11.3898 25.9308 11.4292 25.9086 11.4737C25.8864 11.5181 25.8734 11.5662 25.8701 11.6157C25.8678 11.6644 25.8757 11.7132 25.8929 11.7583C25.9101 11.8042 25.9365 11.8458 25.9704 11.881C26.6857 12.7536 27.3512 13.6656 27.9637 14.6128C28.0785 14.3188 28.1789 14.032 28.2792 13.7524C27.7408 12.9314 27.1566 12.1419 26.5297 11.3862Z" fill="black"/>
<path d="M21.4674 20.0622C21.5345 20.0449 21.5945 20.0069 21.6395 19.9546C21.6706 19.9195 21.6944 19.8786 21.7091 19.8341C21.7239 19.7897 21.7295 19.7431 21.7255 19.6965C21.7194 19.6054 21.6782 19.5208 21.6108 19.4599C18.2403 16.4111 13.9529 14.5676 9.42153 14.2185C9.37636 14.2113 9.33047 14.2113 9.2853 14.2185C9.2384 14.2314 9.19452 14.2529 9.15623 14.283C9.11995 14.3117 9.09063 14.349 9.07019 14.3905C9.04954 14.4314 9.03506 14.4744 9.02717 14.5196C9.02086 14.5648 9.02395 14.6114 9.03628 14.6558C9.04861 14.7003 9.06991 14.7419 9.09887 14.7777C9.12763 14.8136 9.16333 14.8444 9.20406 14.8659C9.24471 14.8882 9.28938 14.9025 9.33549 14.9068C13.7351 15.2366 17.8988 17.0256 21.1663 19.9904C21.2103 20.0256 21.2618 20.05 21.3168 20.0622C21.3665 20.0729 21.4178 20.0729 21.4674 20.0622Z" fill="#FFC619"/>
<path d="M27.6768 29.4192C28.0999 26.9455 27.9421 26.5512 29.1109 28.8958L29.3332 28.8385L28.3222 25.2032L27.7844 25.2534L26.7447 25.8341L27.3757 29.4192H27.6768Z" fill="#FF8C19"/>
</svg>
