<svg width="45" height="45" viewBox="0 0 45 45" fill="none" xmlns="http://www.w3.org/2000/svg">
<g clip-path="url(#clip0_104_453)">
<rect width="45" height="45" rx="22.5" fill="#3F99F2"/>
<path d="M34.45 8L41.34 15.77L35.07 45.17H17.08L34.45 8Z" fill="#8CD9FF"/>
<path d="M12.91 8H34.45L26.55 45.16H5L12.91 8Z" fill="url(#paint0_linear_104_453)"/>
<path d="M24.3612 22.1539C26.9276 19.397 27.1271 15.411 24.8067 13.251C22.4864 11.091 18.5249 11.575 15.9585 14.3319C13.3921 17.0889 13.1926 21.0748 15.513 23.2348C17.8333 25.3948 21.7948 24.9109 24.3612 22.1539Z" fill="url(#paint1_linear_104_453)"/>
<path d="M25.25 21.05C24.336 22.4734 22.9903 23.5667 21.41 24.17L20.63 20.8L22.24 19.47L25.25 21.05Z" fill="#606DFF"/>
<path d="M23.2042 21.0278C24.875 19.233 25.0038 16.637 23.4919 15.2297C21.9801 13.8223 19.4 14.1364 17.7292 15.9312C16.0584 17.7261 15.9296 20.322 17.4415 21.7294C18.9533 23.1368 21.5334 22.8227 23.2042 21.0278Z" stroke="black" stroke-width="0.64" stroke-miterlimit="10" stroke-linecap="round"/>
<path d="M22.8408 20.5973C24.2369 19.0976 24.3429 16.927 23.0776 15.7491C21.8123 14.5713 19.6549 14.8323 18.2588 16.332C16.8627 17.8318 16.7566 20.0024 18.0219 21.1802C19.2872 22.358 21.4447 22.0971 22.8408 20.5973Z" fill="white"/>
<path d="M21.1376 18.9549C21.8902 18.1465 21.9465 16.9755 21.2633 16.3395C20.5802 15.7036 19.4162 15.8435 18.6636 16.6519C17.911 17.4604 17.8547 18.6314 18.5379 19.2673C19.2211 19.9033 20.385 19.7634 21.1376 18.9549Z" fill="black"/>
<path d="M19.9942 32.4082C21.8607 30.4032 22.004 27.5026 20.3142 25.9297C18.6245 24.3567 15.7416 24.707 13.8752 26.7121C12.0087 28.7171 11.8654 31.6177 13.5552 33.1906C15.2449 34.7636 18.1278 34.4133 19.9942 32.4082Z" fill="url(#paint2_linear_104_453)"/>
<path d="M20.64 31.61C19.9704 32.6439 18.99 33.4387 17.84 33.88L17.27 31.43L18.45 30.43L20.64 31.61Z" fill="#606DFF"/>
<path d="M19.1399 31.5882C20.3554 30.2825 20.4494 28.3943 19.3498 27.3708C18.2503 26.3472 16.3736 26.5759 15.1581 27.8816C13.9427 29.1874 13.8487 31.0756 14.9482 32.0991C16.0478 33.1227 17.9245 32.894 19.1399 31.5882Z" stroke="black" stroke-width="0.64" stroke-miterlimit="10" stroke-linecap="round"/>
<path d="M18.6765 31.0869C19.5758 30.1207 19.6462 28.7244 18.8337 27.968C18.0212 27.2116 16.6334 27.3817 15.734 28.3478C14.8347 29.314 14.7643 30.7103 15.5768 31.4667C16.3893 32.2231 17.7771 32.053 18.6765 31.0869Z" fill="white"/>
<path d="M17.5963 30.034C18.0817 29.5125 18.1181 28.7572 17.6774 28.3471C17.2368 27.9369 16.4861 28.0271 16.0007 28.5486C15.5152 29.0701 15.4789 29.8253 15.9195 30.2355C16.3602 30.6457 17.1109 30.5554 17.5963 30.034Z" fill="black"/>
<path d="M20 42.1C19.2786 42.0846 18.5611 41.9907 17.86 41.82C14.97 41.17 12.42 39.56 12.07 38.14C12.018 37.9561 12.0099 37.7626 12.0464 37.575C12.0828 37.3874 12.1629 37.211 12.28 37.06C12.5985 36.7617 12.9783 36.5364 13.3928 36.4C13.8073 36.2635 14.2466 36.2192 14.68 36.27C15.4039 36.279 16.1248 36.3662 16.83 36.53C17.12 36.6 17.41 36.67 17.69 36.76C17.8367 36.7995 17.988 36.8197 18.14 36.82C18.2936 36.8303 18.4476 36.8049 18.5898 36.746C18.732 36.687 18.8587 36.596 18.96 36.48C19.0989 36.2847 19.2492 36.0977 19.41 35.92C19.8132 35.4293 20.3118 35.0256 20.8756 34.7334C21.4394 34.4412 22.0567 34.2665 22.69 34.22C23.011 34.2101 23.3302 34.2703 23.6255 34.3964C23.9208 34.5225 24.1851 34.7114 24.4 34.95C25.53 36.21 25.13 38.61 23.51 40.41C22.8832 41.1548 22.0525 41.7005 21.12 41.98C20.7527 42.0637 20.3768 42.104 20 42.1Z" fill="black"/>
<path d="M22.72 34.54C22.9967 34.5311 23.2721 34.5819 23.5275 34.6889C23.7829 34.7959 24.0122 34.9566 24.2 35.16C25.2 36.29 24.8 38.54 23.3 40.16C22.9222 40.667 22.4277 41.0753 21.8585 41.3504C21.2892 41.6254 20.662 41.7591 20.03 41.74C19.3323 41.7243 18.6384 41.6338 17.96 41.47C15.21 40.86 12.73 39.31 12.41 38.02C12.17 37.09 13.13 36.55 14.71 36.55C15.4103 36.5585 16.1076 36.6423 16.79 36.8C17.07 36.86 17.35 36.94 17.63 37.02C17.8057 37.0703 17.9873 37.0972 18.17 37.1C18.3749 37.1094 18.5793 37.0709 18.7667 36.9876C18.9542 36.9043 19.1197 36.7784 19.25 36.62C19.38 36.44 19.52 36.26 19.67 36.09C20.0452 35.6333 20.5087 35.2571 21.0328 34.9839C21.5569 34.7106 22.1308 34.5461 22.72 34.5V34.54ZM22.72 33.86C22.041 33.9062 21.3785 34.0906 20.7733 34.4019C20.168 34.7131 19.6326 35.1446 19.2 35.67C19.04 35.85 18.88 36.05 18.73 36.25C18.6589 36.326 18.5717 36.3852 18.4748 36.4232C18.378 36.4613 18.2738 36.4773 18.17 36.47C18.0475 36.4696 17.926 36.4494 17.81 36.41L16.93 36.18C16.2022 36.0086 15.4577 35.918 14.71 35.91C14.2276 35.855 13.739 35.9091 13.2803 36.0683C12.8216 36.2276 12.4045 36.4879 12.06 36.83C11.9105 37.0171 11.8079 37.2373 11.761 37.4722C11.714 37.7071 11.7239 37.9498 11.79 38.18C12.23 39.94 15.23 41.51 17.79 42.09C18.5142 42.2654 19.2551 42.3626 20 42.38C20.4042 42.3826 20.8072 42.3356 21.2 42.24C22.194 41.9478 23.0805 41.3707 23.75 40.58C25.48 38.66 25.87 36.08 24.64 34.7C24.3957 34.4265 24.0946 34.2097 23.7578 34.0646C23.421 33.9195 23.0566 33.8497 22.69 33.86H22.72Z" fill="#5865F2"/>
<path d="M12.64 37.16C13.25 36.56 14.82 36.4 16.79 36.84C17.07 36.9 17.35 36.98 17.63 37.06C17.909 37.164 18.2127 37.1814 18.5018 37.1101C18.7908 37.0387 19.0515 36.8818 19.25 36.66C19.38 36.48 19.52 36.3 19.67 36.13C20.98 34.69 22.67 34.13 23.76 34.81C23.6357 35.1394 23.4349 35.4345 23.1741 35.6709C22.9133 35.9074 22.6 36.0785 22.26 36.17C22.2674 36.626 22.1479 37.0751 21.9148 37.4671C21.6817 37.8592 21.3442 38.1787 20.94 38.39C20.5922 38.5839 20.1984 38.6799 19.8003 38.6675C19.4023 38.6552 19.0151 38.5351 18.68 38.32C18.4623 38.6698 18.1596 38.9588 17.8 39.16C17.562 39.2975 17.2965 39.3809 17.0225 39.4041C16.7486 39.4273 16.4729 39.3899 16.2151 39.2944C15.9572 39.1989 15.7236 39.0477 15.5309 38.8516C15.3382 38.6556 15.1911 38.4194 15.1 38.16C15.1 38.06 15.04 37.96 15.02 37.86C14.8221 37.9873 14.5991 38.0705 14.3661 38.104C14.1332 38.1375 13.8958 38.1205 13.67 38.0541C13.4442 37.9877 13.2354 37.8735 13.0576 37.7192C12.8799 37.5649 12.7375 37.3742 12.64 37.16V37.16Z" fill="white"/>
</g>
<defs>
<linearGradient id="paint0_linear_104_453" x1="16.5" y1="50.58" x2="24.38" y2="-8.03" gradientUnits="userSpaceOnUse">
<stop stop-color="white"/>
<stop offset="1" stop-color="#8BD8FF"/>
</linearGradient>
<linearGradient id="paint1_linear_104_453" x1="20.9466" y1="23.566" x2="19.468" y2="13.2811" gradientUnits="userSpaceOnUse">
<stop stop-color="#5765F1"/>
<stop offset="1" stop-color="#2536D3"/>
</linearGradient>
<linearGradient id="paint2_linear_104_453" x1="-1301.07" y1="987.911" x2="-1308.75" y2="924.921" gradientUnits="userSpaceOnUse">
<stop stop-color="#5765F1"/>
<stop offset="1" stop-color="#2536D3"/>
</linearGradient>
<clipPath id="clip0_104_453">
<rect width="45" height="45" rx="22.5" fill="white"/>
</clipPath>
</defs>
</svg>
