<svg width="45" height="45" viewBox="0 0 45 45" fill="none" xmlns="http://www.w3.org/2000/svg">
<rect width="45" height="45" rx="22.5" fill="#3F99F2"/>
<path d="M15.5067 8.88247C8.2086 8.23723 8.48106 13.7359 9.49189 17.5212C9.06178 16.7398 8.59574 15.987 8.05807 15.2486C7.80716 14.8758 7.54188 14.5317 7.26949 14.1302L6.88953 13.5782C6.74611 13.3918 6.61714 13.2197 6.44505 13.019L6.38771 12.9545C6.26919 12.8088 6.12599 12.6851 5.96472 12.5888C5.54941 12.3597 5.06219 12.2982 4.60297 12.4169C4.14376 12.5356 3.7474 12.8256 3.49518 13.2272C3.24304 13.629 3.15406 14.1119 3.24667 14.5772C3.33928 15.0423 3.60645 15.4544 3.99323 15.7289C4.30866 15.9224 4.66713 16.1805 4.99686 16.4458C5.32667 16.711 5.67077 16.9476 6.00057 17.2057C6.66816 17.7102 7.30941 18.2485 7.92184 18.8187C8.13696 19.0195 8.34483 19.2345 8.55277 19.4496C6.25148 18.1019 2.86055 16.8759 2.13641 20.7544C1.01092 26.7477 6.24429 28.6332 9.56359 28.5543C9.56359 28.5543 18.9909 25.5648 21.0771 21.5501C21.0771 21.5501 26.5614 9.85025 15.5067 8.88247Z" fill="#FF78B9"/>
<path d="M16.0081 25.042C17.9872 24.995 19.543 22.9097 19.4831 20.3844C19.4231 17.859 17.7701 15.8499 15.791 15.8969C13.8119 15.9439 12.2561 18.0292 12.316 20.5545C12.376 23.0799 14.029 25.089 16.0081 25.042Z" fill="white" stroke="#FFAB18" stroke-width="1.11" stroke-miterlimit="10"/>
<path d="M14.9403 18.4458C15.1478 18.4277 15.3565 18.4277 15.564 18.4458C15.7603 18.472 15.9544 18.5127 16.1447 18.5677C16.5364 18.6817 16.8985 18.8799 17.2057 19.1484C17.5044 19.4141 17.7375 19.7453 17.8868 20.1162L17.9441 20.2524L17.9871 20.3887L18.066 20.6682C18.109 20.8546 18.1234 21.041 18.152 21.2274C18.156 21.2558 18.1541 21.2848 18.1464 21.3125C18.1386 21.3401 18.1253 21.3659 18.107 21.3881C18.0889 21.4104 18.0663 21.4286 18.0407 21.4416C18.0152 21.4546 17.9871 21.4623 17.9585 21.464C17.9066 21.471 17.854 21.4588 17.8104 21.4298C17.7669 21.4008 17.7354 21.3569 17.7219 21.3063C17.6789 21.1414 17.6502 20.9765 17.6 20.8188L17.514 20.5822L17.471 20.4675L17.4064 20.3671C17.2687 20.0816 17.0616 19.8352 16.8042 19.6502C16.5526 19.4661 16.2639 19.3389 15.9583 19.2775C15.8024 19.2465 15.644 19.2298 15.4852 19.2272C15.3349 19.2123 15.1837 19.2123 15.0335 19.2272C14.9816 19.2364 14.9285 19.2351 14.8771 19.2235C14.8257 19.2118 14.7772 19.1899 14.7345 19.1592C14.6917 19.1285 14.6555 19.0895 14.6281 19.0445C14.6006 18.9995 14.5825 18.9495 14.5746 18.8975C14.5581 18.793 14.5834 18.6861 14.6452 18.6002C14.7069 18.5143 14.8001 18.4562 14.9045 18.4386L14.9403 18.4458Z" fill="black"/>
<path d="M37.4409 21.1605C37.6087 18.64 36.3677 16.505 34.669 16.3919C32.9702 16.2788 31.457 18.2303 31.2891 20.7508C31.1213 23.2713 32.3623 25.4062 34.0611 25.5194C35.7598 25.6325 37.2731 23.6809 37.4409 21.1605Z" fill="white" stroke="#FFAB18" stroke-width="1.03" stroke-miterlimit="10"/>
<path d="M35.3722 20.0304C35.1748 20.0022 34.9745 20.0022 34.7771 20.0304C34.5746 20.0673 34.3804 20.1402 34.2036 20.2455C34.0221 20.3458 33.8653 20.4854 33.7448 20.6541C33.6173 20.8313 33.5182 21.0272 33.4508 21.2348C33.442 21.2607 33.428 21.2847 33.4099 21.3052C33.3917 21.3257 33.3697 21.3425 33.3451 21.3545C33.3204 21.3665 33.2936 21.3735 33.2662 21.3751C33.2389 21.3767 33.2114 21.3728 33.1856 21.3638C33.137 21.3474 33.0966 21.313 33.0726 21.2676C33.0486 21.2223 33.0428 21.1695 33.0566 21.1201C33.1005 20.8534 33.1903 20.5963 33.3218 20.3602C33.452 20.1126 33.6357 19.8971 33.8594 19.7293C34.0767 19.5617 34.3185 19.4286 34.5764 19.335C34.8473 19.2468 35.1302 19.2008 35.4151 19.1988C35.5115 19.2118 35.5998 19.2592 35.6639 19.3324C35.7278 19.4056 35.7631 19.4995 35.7631 19.5967C35.7631 19.6939 35.7278 19.7878 35.6639 19.8609C35.5998 19.9341 35.5115 19.9816 35.4151 19.9946H35.3435L35.3722 20.0304Z" fill="black"/>
<path d="M23.3784 17.7289C21.3063 20.1809 18.8775 22.3075 16.1734 24.0377C14.2944 25.2158 12.2733 26.1505 10.1586 26.8193C5.17611 28.4395 3.42686 31.3931 2.81036 33.3861C3.31828 34.305 3.89086 35.1866 4.52376 36.0244C16.1233 38.3256 33.2 22.9838 33.2 22.9838C36.1608 14.0655 28.8412 11.2481 23.3784 17.7289Z" fill="#FFC619"/>
<path d="M31.7087 24.1955C32.8015 22.5537 33.3068 20.5905 33.1425 18.6251C33.1425 18.1233 32.7625 16.0873 30.748 15.7575C29.4977 15.5654 28.2205 15.8439 27.1635 16.5389C26.1319 17.2655 25.1909 18.1126 24.3604 19.0625C23.2994 20.1665 21.0841 23.156 19.8439 24.3676C14.7037 29.35 13.657 30.1817 8.73901 31.5007C8.73901 31.5007 27.1277 30.067 31.7087 24.1955Z" fill="black"/>
<path d="M31.4937 24.0305C31.946 23.4211 32.2814 22.7333 32.483 22.0017C32.7004 21.2673 32.8257 20.5087 32.8559 19.7434C32.8773 19.3614 32.8773 18.9784 32.8559 18.5964C32.822 18.2374 32.7299 17.8863 32.5834 17.5569C32.4559 17.2251 32.2577 16.9251 32.0028 16.6775C31.7478 16.4299 31.4419 16.2407 31.1066 16.1231C30.7608 16.0157 30.4005 15.9625 30.0384 15.9654C29.6715 15.9593 29.3052 16.0003 28.9487 16.0872C28.2253 16.2668 27.5468 16.5938 26.9557 17.0479C26.3467 17.5179 25.7762 18.0357 25.2495 18.5964C24.9842 18.876 24.6974 19.1699 24.4465 19.4495C24.1956 19.7291 23.9375 20.0374 23.7297 20.3384C22.7259 21.55 21.7725 22.8118 20.7115 24.009C20.439 24.3102 20.1451 24.604 19.8655 24.8765L18.9765 25.7655C18.403 26.3103 17.8367 26.8623 17.2417 27.4C16.6466 27.9376 16.0516 28.461 15.4207 28.9556C15.0957 29.1994 14.766 29.4384 14.4314 29.6726L13.9081 29.988C13.736 30.0956 13.5496 30.1816 13.3775 30.282C11.9272 30.9835 10.381 31.4666 8.78935 31.7158L8.72483 31.3645C10.7537 31.1852 12.7825 30.9128 14.797 30.583C16.8115 30.2533 18.8116 29.8662 20.7903 29.35C22.7617 28.8418 24.6911 28.1827 26.5614 27.3785C27.4913 26.9714 28.3878 26.492 29.2426 25.9447C30.0937 25.4355 30.8543 24.7887 31.4937 24.0305ZM31.9167 24.3603C31.2439 25.1723 30.4393 25.8655 29.5366 26.4106C28.6574 26.9634 27.7342 27.443 26.7765 27.8445C24.8687 28.6243 22.9033 29.2547 20.8979 29.7299C18.9049 30.2246 16.8904 30.6117 14.8615 30.9271C12.8327 31.2426 10.8038 31.5007 8.7535 31.6441L7.42725 31.7516L8.69616 31.2928C10.1729 30.8186 11.611 30.2314 12.9975 29.5364C14.3387 28.7653 15.581 27.8336 16.6968 26.7619C17.2703 26.2314 17.8438 25.6866 18.4102 25.1417C18.9765 24.5969 19.5644 24.0521 20.0662 23.4928C21.1057 22.3315 22.0808 21.0912 23.0988 19.8725C23.3497 19.5642 23.6078 19.2631 23.8802 18.962L24.7118 18.1018C25.2822 17.5177 25.901 16.9829 26.5614 16.503C27.2256 15.9786 28.0036 15.6171 28.8327 15.4478C29.662 15.2785 30.5194 15.306 31.336 15.5281C31.7592 15.6774 32.142 15.9228 32.4543 16.2449C32.7606 16.5537 33.0041 16.9188 33.1713 17.3203C33.3392 17.7173 33.4432 18.1383 33.4795 18.5677C33.5011 18.9737 33.5011 19.3805 33.4795 19.7865C33.4178 20.6 33.2615 21.4036 33.0136 22.181C32.7788 22.9574 32.4073 23.6857 31.9167 24.3317V24.3603Z" fill="#FFAB18"/>
<path d="M38.8491 23.5502C36.9994 21.9587 30.8198 21.6433 24.8336 24.5324C18.8474 27.4215 16.116 29.9737 11.6497 30.0669C9.7027 30.0688 7.82832 30.8063 6.40198 32.1316C5.1904 33.2858 4.30144 34.2823 4.30144 34.2823L4.1795 35.5225C6.25326 38.451 8.99853 40.8397 12.1855 42.4887C15.3724 44.1377 18.9082 44.9988 22.4964 45C22.9338 45 23.3639 45 23.7869 44.957C25.4414 43.8155 26.8063 42.3033 27.7729 40.5408C29.8591 36.7198 31.3574 32.0456 34.9419 29.9521C39.523 27.3283 39.8527 24.4033 38.8491 23.5502Z" fill="url(#paint0_linear_104_570)"/>
<path d="M23.1059 28.9487C13.7861 34.562 7.81428 34.6839 4.79612 34.3469L4.69574 34.9277L21.4928 43.9463L25.4286 43.6237C26.3576 42.7172 27.1475 41.6784 27.7729 40.541C29.8591 36.7199 31.3575 32.0456 34.942 29.9523C36.4762 29.1735 37.7864 28.0163 38.7487 26.59C36.9493 25.0487 32.1461 23.493 23.1059 28.9487Z" fill="#FFC619"/>
<path d="M20.4819 39.7094C20.3602 39.7094 20.2436 39.661 20.1575 39.575C20.0714 39.4889 20.0231 39.3722 20.0231 39.2506C20.0231 39.1289 20.0714 39.0122 20.1575 38.9262C20.2436 38.8401 20.3602 38.7917 20.4819 38.7917C21.1105 38.7489 21.6996 38.4696 22.1308 38.0103C22.3947 37.6505 22.5807 37.2396 22.677 36.8039C22.7733 36.3682 22.7777 35.9171 22.69 35.4796L22.6398 35.028L23.0843 34.9778C23.4781 34.9294 23.8462 34.7567 24.135 34.4846C24.4239 34.2125 24.6183 33.8554 24.6902 33.4652L24.7331 33.0851H25.1203C25.534 33.0542 25.932 32.9138 26.2734 32.6782C26.6149 32.4426 26.8874 32.1203 27.0631 31.7446C27.0846 31.6879 27.117 31.6361 27.1586 31.592C27.2001 31.548 27.2501 31.5126 27.3054 31.488C27.3607 31.4633 27.4203 31.4498 27.4809 31.4484C27.5414 31.4469 27.6017 31.4574 27.6581 31.4793C27.7708 31.5227 27.8619 31.6087 27.9115 31.7188C27.9611 31.8288 27.9654 31.954 27.9234 32.0672C27.718 32.5574 27.391 32.9872 26.9733 33.3158C26.5556 33.6444 26.0609 33.8612 25.5361 33.9454C25.4075 34.3966 25.1621 34.8058 24.8247 35.1318C24.4874 35.4579 24.0701 35.6891 23.6148 35.8023C23.6772 36.3111 23.6363 36.8273 23.4946 37.32C23.353 37.8127 23.1135 38.2719 22.7903 38.6699C22.1917 39.3152 21.3677 39.7054 20.4891 39.7596L20.4819 39.7094Z" fill="#FFAB18"/>
<path d="M13.1696 41.6162C13.0629 41.6147 12.9605 41.5735 12.8825 41.5007C12.8044 41.4278 12.7562 41.3286 12.7473 41.2222C12.7384 41.1158 12.7693 41.0099 12.8341 40.9251C12.8989 40.8402 12.993 40.7825 13.098 40.7631C13.7976 40.6175 14.4272 40.2391 14.8842 39.6897C15.3412 39.1403 15.5985 38.4523 15.6144 37.7378V37.3364H16.0158C16.4536 37.3125 16.8674 37.1283 17.1781 36.8189C17.4888 36.5094 17.6748 36.0965 17.7005 35.6588C17.7264 35.5533 17.7913 35.4614 17.8821 35.4018C17.973 35.3421 18.083 35.3191 18.1901 35.3372C18.2973 35.3554 18.3936 35.4134 18.4597 35.4996C18.5258 35.5859 18.5568 35.694 18.5464 35.8022C18.4855 36.3722 18.244 36.9079 17.8571 37.3309C17.4701 37.754 16.9581 38.0422 16.3957 38.1536C16.2877 38.9892 15.9226 39.7705 15.3511 40.3896C14.7796 41.0086 14.0298 41.4348 13.2055 41.6091L13.1696 41.6162Z" fill="#FFAB18"/>
<path d="M25.6439 38.591C25.5478 38.5876 25.4556 38.5522 25.382 38.4904C25.3084 38.4286 25.2577 38.3438 25.2379 38.2497C25.2181 38.1557 25.2303 38.0577 25.2727 37.9714C25.3152 37.8851 25.3852 37.8155 25.4718 37.7737C25.4718 37.7737 26.963 37.0569 26.9558 35.8022V35.4438L27.3071 35.3793C27.6785 35.3003 28.0189 35.1154 28.2874 34.8469C28.5559 34.5785 28.7408 34.2379 28.8198 33.8666C28.8439 33.7567 28.9096 33.6603 29.0031 33.5975C29.0966 33.5347 29.2107 33.5104 29.3216 33.5297C29.3772 33.54 29.4301 33.5612 29.4775 33.592C29.5248 33.6228 29.5657 33.6627 29.5976 33.7093C29.6296 33.7559 29.652 33.8083 29.6637 33.8636C29.6754 33.9189 29.6761 33.9759 29.6657 34.0315C29.5694 34.5177 29.3444 34.9692 29.0139 35.3387C28.6835 35.7083 28.26 35.9822 27.7874 36.1321C27.5867 37.7307 25.902 38.5194 25.8231 38.5551C25.766 38.578 25.7053 38.5901 25.6439 38.591Z" fill="#FFAB18"/>
<defs>
<linearGradient id="paint0_linear_104_570" x1="28.8267" y1="16.9547" x2="17.8366" y2="37.2431" gradientUnits="userSpaceOnUse">
<stop stop-color="#FFE75C"/>
<stop offset="1" stop-color="#FFC619"/>
</linearGradient>
</defs>
</svg>
