<svg width="45" height="45" viewBox="0 0 45 45" fill="none" xmlns="http://www.w3.org/2000/svg">
<g clip-path="url(#clip0_85_3005)">
<rect width="45" height="45" rx="22.5" fill="#6874F6"/>
<path d="M32.2871 32.1761C32.2871 32.1761 40.9922 31.4823 47.9784 20.9373L50.47 23.7575C50.47 23.7575 40.3772 40.1453 30.5287 39.8168L32.2871 32.1761Z" fill="#EB459F"/>
<path d="M9.76217 32.5888C9.76217 32.5888 0.781106 33.535 0.0556816 39.1702C-0.669743 44.8054 5.93267 40.1374 5.93267 40.1374L9.01309 37.0123L9.76217 32.5888Z" fill="#EB459F"/>
<path d="M12.5351 12.2375C5.80652 13.599 7.50969 18.4694 9.43365 21.6076C8.83964 21.0188 8.21409 20.4669 7.57015 19.9386C7.23897 19.6679 6.90255 19.4024 6.56086 19.1422L6.04308 18.7558C5.86435 18.6271 5.69876 18.5061 5.49375 18.3695L5.42804 18.3248C5.28348 18.2302 5.12315 18.1566 4.94968 18.1093C4.0245 17.8491 3.06516 18.3905 2.80758 19.313C2.54737 20.2382 3.08881 21.1976 4.01136 21.4552C4.34516 21.5498 4.73679 21.6838 5.0995 21.81C5.46747 21.9414 5.83806 22.0781 6.2034 22.2253C6.93409 22.517 7.65688 22.835 8.35339 23.1925C8.60309 23.3213 8.84752 23.4553 9.09196 23.5946C6.66337 22.9954 3.28594 22.7956 3.6723 26.4753C4.26631 32.1578 9.45993 32.4285 12.4326 31.5086C12.4326 31.5086 20.1126 26.3123 20.9248 22.1464C20.9169 22.1412 22.7016 10.1822 12.5351 12.2375Z" fill="#FF63AF"/>
<path d="M17.2864 26.6354C19.0537 26.0666 19.8979 23.7773 19.172 21.5223C18.4462 19.2672 16.4251 17.9003 14.6578 18.4691C12.8905 19.038 12.0462 21.3272 12.7721 23.5823C13.498 25.8373 15.5191 27.2044 17.2864 26.6354Z" fill="white" stroke="#FFAB18" stroke-miterlimit="10"/>
<path d="M14.5748 20.9846C14.7798 20.9084 14.9454 20.869 15.1346 20.8375C15.3186 20.8059 15.5052 20.7928 15.6944 20.7901C16.0703 20.7901 16.4514 20.8664 16.7957 21.0293C17.1348 21.1949 17.4475 21.4236 17.6683 21.718L17.7577 21.8231L17.8313 21.9361L17.9758 22.1648C18.06 22.3225 18.1283 22.4854 18.2045 22.6431C18.2518 22.7404 18.2098 22.8587 18.1125 22.9033C18.0205 22.948 17.9128 22.9139 17.8602 22.8271L17.8444 22.8008C17.7629 22.6642 17.6894 22.5222 17.6026 22.3934L17.4607 22.2095L17.3897 22.1175L17.3082 22.0386C17.1032 21.8099 16.843 21.6601 16.5749 21.555C16.3042 21.4551 16.0098 21.4209 15.7155 21.4472C15.5683 21.463 15.4211 21.484 15.2792 21.5235C15.1399 21.5576 14.9848 21.6154 14.8796 21.6654L14.8665 21.6733C14.6799 21.7626 14.4565 21.6838 14.3671 21.4972C14.2778 21.3106 14.3566 21.0871 14.5432 20.9978C14.5537 20.9925 14.5642 20.9899 14.5748 20.9846Z" fill="black"/>
<path d="M33.6452 22.2608C35.203 21.9105 36.0446 19.7529 35.5247 17.4417C35.0051 15.1305 33.3209 13.5409 31.763 13.8912C30.2052 14.2415 29.3636 16.3991 29.8835 18.7103C30.4031 21.0215 32.0874 22.6111 33.6452 22.2608Z" fill="white" stroke="#FFAB18" stroke-miterlimit="10"/>
<path d="M33.3542 16.9423C33.1992 16.9659 32.9889 17.0369 32.8207 17.1236C32.6472 17.213 32.4895 17.326 32.3607 17.4653C32.2293 17.6046 32.1242 17.7676 32.0611 17.9542C31.9875 18.1382 31.9665 18.3432 31.9533 18.5535V18.5719C31.9454 18.6796 31.8534 18.7611 31.7457 18.7559C31.6458 18.7506 31.5696 18.6717 31.5617 18.5745C31.5433 18.3301 31.5354 18.0751 31.5985 17.8228C31.6484 17.5705 31.7614 17.3208 31.9165 17.1079C32.069 16.8924 32.2635 16.7084 32.479 16.5586C32.7024 16.4114 32.9127 16.2957 33.1965 16.209C33.3936 16.1485 33.6039 16.2589 33.6644 16.4587C33.7248 16.6558 33.6144 16.8661 33.4147 16.9265C33.3989 16.9318 33.3805 16.9344 33.3647 16.937L33.3542 16.9423Z" fill="black"/>
<path d="M23.653 42.1008L28.3078 48.79C35.3754 46.5611 40.3956 40.395 40.3956 40.395L32.2188 55.6368L36.1692 57.7552L46.4119 38.6629C48.6828 34.4313 43.9255 29.9026 39.8095 32.3785L23.653 42.1008Z" fill="#242145"/>
<path d="M7.88809 39.5592C7.88809 39.5592 6.03248 34.2289 12.4982 29.7844C14.2119 28.6069 15.8073 27.2586 17.1714 25.6868C18.7353 23.8811 20.541 21.35 21.9682 18.0961C25.1564 10.8182 32.4869 11.4017 32.1689 20.2225C32.1662 20.2225 19.5238 40.8366 7.88809 39.5592Z" fill="url(#paint0_linear_85_3005)"/>
<path d="M31.1753 21.6969C31.7746 20.1725 31.63 18.1381 31.0019 16.3062C30.8494 15.8594 29.9847 14.1194 28.0765 14.3297C26.9016 14.4585 25.824 15.0971 25.046 15.9882C24.268 16.8792 23.7371 17.9542 23.193 19.0055C22.5333 20.2802 21.3401 23.5578 20.5489 24.9771C17.2608 30.8515 16.5354 31.887 12.4667 34.3577C12.4667 34.3524 28.6206 28.1889 31.1753 21.6969Z" fill="black"/>
<path d="M30.9441 21.6049C31.1911 20.9505 31.2936 20.2355 31.2936 19.5206C31.2936 18.8057 31.1964 18.0856 31.0282 17.3864C30.9441 17.0395 30.8363 16.6846 30.7206 16.3587C30.5997 16.0565 30.4131 15.7516 30.195 15.4966C29.7613 14.9736 29.1515 14.6345 28.4944 14.6214C28.1711 14.6082 27.8242 14.6713 27.4957 14.7607C27.1671 14.8579 26.8465 14.992 26.5468 15.1655C25.9423 15.5124 25.4324 15.9908 25.0092 16.5611C24.5808 17.1288 24.2286 17.7596 23.8896 18.4115C23.724 18.7348 23.5452 19.0738 23.3928 19.3918C23.2404 19.7178 23.0932 20.0542 22.9512 20.3932C22.3783 21.7521 21.8552 23.1346 21.2139 24.4987C21.0536 24.8378 20.8643 25.1847 20.683 25.5001L20.1362 26.47C19.7683 27.1139 19.4003 27.7605 19.0139 28.3966C18.6302 29.0353 18.2254 29.6687 17.7839 30.2811C17.5657 30.5886 17.3292 30.8856 17.0873 31.18L16.7036 31.6032C16.5748 31.7425 16.4329 31.8739 16.2988 32.0079C15.1844 33.0671 13.8755 33.8294 12.5508 34.4996L12.4036 34.2C14.1804 33.4956 15.9309 32.7123 17.6524 31.8818C19.374 31.0459 21.0693 30.1549 22.7121 29.1772C24.3522 28.1994 25.9476 27.1402 27.4089 25.9259C28.137 25.3161 28.8309 24.6669 29.4485 23.9547C30.0636 23.2397 30.605 22.4591 30.9441 21.6049ZM31.4093 21.7863C31.0334 22.7167 30.4552 23.5289 29.8165 24.2648C29.1699 24.9981 28.455 25.6578 27.7086 26.2755C26.2104 27.5029 24.5887 28.5595 22.9302 29.5346C21.2665 30.5071 19.558 31.3903 17.8207 32.2182C16.0833 33.0409 14.3249 33.8136 12.5272 34.5101L11.3602 34.9622L12.38 34.2105C13.5759 33.3352 14.7849 32.502 15.7942 31.4849C16.8114 30.4782 17.6183 29.2587 18.3779 28.0023C18.759 27.3741 19.1243 26.7354 19.4897 26.0915C19.8471 25.4476 20.2361 24.8062 20.541 24.1649C21.1666 22.8481 21.7107 21.4709 22.2994 20.1041C22.4492 19.7624 22.599 19.4208 22.7646 19.0791C22.9381 18.7295 23.1063 18.4167 23.2824 18.0829C23.632 17.4232 24.0105 16.7635 24.4836 16.1511C25.4087 14.9184 26.878 13.9774 28.5207 14.0064C28.9334 14.0248 29.346 14.1378 29.7114 14.3349C30.0767 14.532 30.3868 14.808 30.6418 15.1155C30.8967 15.4283 31.1018 15.7647 31.2516 16.1485C31.3777 16.5243 31.4802 16.8765 31.567 17.2497C31.7352 17.9909 31.8298 18.7505 31.8219 19.5154C31.8114 20.2855 31.6958 21.0608 31.4093 21.7863Z" fill="#FFAB18"/>
<path d="M9.66229 37.8061C9.66229 37.8061 9.75166 36.9072 10.5375 35.5457C11.4496 33.9634 12.9635 32.8437 14.7061 32.2944C18.6959 31.0407 20.4806 28.0155 25.0908 23.8259C29.7009 19.6363 35.3413 18.2774 37.4282 19.2131C38.5505 19.7151 39.0368 22.4328 35.6436 26.0021C32.9311 28.8539 32.8523 33.4483 31.9875 37.4381C31.1885 41.1388 28.4445 44.8921 25.1565 44.9788H10.5454L9.66229 37.8061Z" fill="url(#paint1_linear_85_3005)"/>
<path d="M24.7096 28.26C17.8496 35.7771 12.4851 37.475 9.68332 37.9822L9.75166 38.5289L27.246 42.1692L30.697 40.834C31.291 39.7748 31.7352 38.6052 31.9849 37.4408C32.847 33.451 32.9285 28.8566 35.6409 26.0049C37.097 24.4725 37.8382 23.0979 38.1221 21.9861C36.1167 21.0767 31.383 20.9479 24.7096 28.26Z" fill="#FFC619"/>
<path d="M11.9411 37.7378L4.56856 40.4713C3.52773 40.8577 2.37126 40.3267 1.98489 39.2859C1.59852 38.2451 2.12945 37.0886 3.17027 36.7022L10.5428 33.9688L11.9411 37.7378Z" fill="#EB459F"/>
<path d="M1.30145 50.275L12.3405 45.3678L10.2562 34.8045C4.21892 38.0374 1.30145 50.275 1.30145 50.275Z" fill="#242145"/>
<path d="M26.5468 38.6393C24.2023 39.2281 21.7422 38.5552 19.884 37.0097C17.416 34.957 13.6338 35.622 13.6338 35.622L15.0794 44.9789H25.1564C28.4471 44.8922 31.1885 41.1389 31.9875 37.4382C32.2398 36.2764 32.4238 35.0648 32.6262 33.8584C30.7785 36.8336 28.5444 38.1399 26.5468 38.6393Z" fill="#EB459F"/>
<path d="M22.2442 34.978C22.2442 34.978 24.5834 34.5864 24.7543 31.9896C24.7543 31.9896 26.2997 31.9869 26.5994 30.2128" stroke="#FFAB18" stroke-miterlimit="10" stroke-linecap="round"/>
<path d="M14.8296 34.3104C13.137 33.7715 11.6125 34.0317 10.2563 34.8019L13.526 61.3114L14.2987 67.5747L18.4699 68.5236C18.5304 66.7521 18.5777 65.0726 18.6145 63.4824C18.6197 63.301 18.6224 63.1197 18.6276 62.941C19.1874 37.6589 16.9534 34.9885 14.8296 34.3104Z" fill="#242145"/>
<path d="M27.9845 31.7399C27.9845 31.7399 30.492 31.6926 30.1503 28.6148C30.1503 28.6148 31.6353 28.4308 31.7877 27.0536C31.7877 27.0536 33.2386 26.9642 33.7064 25.7184" stroke="#FFAB18" stroke-miterlimit="10" stroke-linecap="round"/>
<path d="M27.3853 36.6101C27.3853 36.6101 28.9071 35.9189 28.9018 34.5469C28.9018 34.5469 30.2659 34.2946 30.5261 32.9278" stroke="#FFAB18" stroke-miterlimit="10" stroke-linecap="round"/>
<path d="M29.9138 36.8625C28.7205 36.3553 28.844 38.1951 26.3024 38.663C24.3785 38.8496 22.8829 37.1044 21.9604 37.4329C20.0969 38.1005 21.9472 42.206 21.9472 42.206C21.9472 42.206 24.297 39.1545 26.1579 39.0388C28.0187 38.9232 28.8177 41.1178 28.8177 41.1178C28.8177 41.1178 30.8205 37.2489 29.9138 36.8625Z" fill="white"/>
<path d="M4.10605 36.7627L7.65432 35.0438" stroke="black" stroke-miterlimit="10" stroke-linecap="round"/>
<path d="M16.6537 34.2368C16.6327 34.1159 16.2464 32.8806 15.061 32.8465C14.8297 32.8386 14.6089 32.857 14.4065 32.9174C14.0149 32.6362 13.4261 32.5048 12.798 32.5968C11.9832 32.7177 11.3445 33.1829 11.1579 33.727C10.8267 33.6612 10.4561 33.7217 10.1328 33.932C9.54143 34.3131 9.32854 35.0306 9.62291 35.5694C9.81215 36.0951 10.2826 36.6865 10.4508 37.22C10.9529 38.8023 10.8793 39.6302 11.6126 39.9535C11.9779 40.1165 12.6481 40.1296 13.3604 40.0613C14.0727 39.9929 14.827 39.8431 15.3632 39.6828C16.433 39.3595 16.7904 38.8102 16.8929 37.1018C16.9639 35.8401 16.772 34.8834 16.6537 34.2368Z" fill="#FFAB18"/>
<path d="M12.869 40.0954C13.0293 40.0902 13.1923 40.077 13.3605 40.0612C13.4472 40.0534 13.5339 40.0428 13.6207 40.0323C13.7179 38.0243 13.1239 36.7811 13.095 36.7206C13.003 36.534 12.7796 36.4604 12.5956 36.5498C12.4116 36.6418 12.3328 36.8652 12.4248 37.0491C12.4274 37.0649 12.9794 38.2161 12.869 40.0954Z" fill="#E89300"/>
<path d="M15.3606 39.6828C15.5866 39.6144 15.7759 39.5356 15.9441 39.4383C16.0545 37.8009 15.6918 36.6523 15.6734 36.5892C15.6103 36.3921 15.4 36.2869 15.2029 36.35C15.0058 36.4131 14.898 36.6234 14.9611 36.8205C14.9664 36.8363 15.3475 38.0584 15.1661 39.738C15.2345 39.7196 15.2975 39.7012 15.3606 39.6828Z" fill="#E89300"/>
<path d="M40.5454 39.9508L41.6572 37.7588" stroke="black" stroke-miterlimit="10" stroke-linecap="round"/>
<path d="M11.0106 40.8812C10.9843 40.6762 10.8003 40.529 10.5953 40.5553C10.3903 40.5816 10.2457 40.7656 10.2694 40.9706L10.682 44.327H11.4337L11.0106 40.8812Z" fill="black"/>
</g>
<defs>
<linearGradient id="paint0_linear_85_3005" x1="28.6626" y1="11.8115" x2="16.2544" y2="34.7055" gradientUnits="userSpaceOnUse">
<stop stop-color="#FFE75C"/>
<stop offset="1" stop-color="#FFC619"/>
</linearGradient>
<linearGradient id="paint1_linear_85_3005" x1="32.9335" y1="15.4621" x2="19.6845" y2="39.9074" gradientUnits="userSpaceOnUse">
<stop stop-color="#FFE75C"/>
<stop offset="1" stop-color="#FFC619"/>
</linearGradient>
<clipPath id="clip0_85_3005">
<rect width="45" height="45" rx="22.5" fill="white"/>
</clipPath>
</defs>
</svg>
