<svg width="45" height="45" viewBox="0 0 45 45" fill="none" xmlns="http://www.w3.org/2000/svg">
<g clip-path="url(#clip0_85_2830)">
<rect width="45" height="45" rx="22.5" fill="#FFD751"/>
<path d="M20.8638 38.9574C19.9097 34.7437 20.4663 31.0069 27.3037 29.3373C27.3037 29.3373 23.726 22.2613 18.2401 22.8179C12.7543 23.3744 12.2772 29.5758 14.2649 33.2331C16.2525 36.8903 20.8638 38.9574 20.8638 38.9574Z" fill="#D11583"/>
<path d="M18.2402 22.8182C16.4911 24.6468 17.2861 25.2033 22.931 29.7351C28.5759 34.2669 32.8692 37.0495 34.1412 35.1414L26.4292 28.5426L23.9646 24.8853L19.5918 22.0231L18.2402 22.8182Z" fill="white"/>
<path d="M38.3559 23.295C40.5026 18.0477 38.9125 12.2438 33.9037 11.1307C33.3471 5.48585 28.8153 2.94168 23.409 2.54415C21.2997 2.41376 19.1928 2.82425 17.287 3.73673C16.1923 2.65903 14.8136 1.91463 13.3118 1.59009C8.45718 3.51865 4.42547 7.07611 1.90674 11.6523C-0.611194 16.2285 -1.45951 21.5384 -0.491134 26.6712C0.477241 31.8045 3.2011 36.4404 7.21373 39.7844C11.2264 43.1284 16.2773 44.9722 21.5008 45H22.2959C23.4885 43.9664 23.9655 42.5353 23.8065 40.5477C24.9991 40.0707 24.7606 38.6396 23.568 38.242C22.3754 37.8445 18.0026 37.129 15.5379 33.6307C13.0733 30.1325 13.9478 25.6007 16.174 24.1696C18.4001 22.7385 22.2164 23.295 25.3171 27.9858C28.4178 32.6767 31.9955 34.9028 34.1422 35.2208C36.2888 35.5389 36.7659 34.6643 36.6863 33.9487C39.7076 31.0866 40.9796 27.1908 38.3559 23.295Z" fill="#FF78B9"/>
<path d="M19.1147 37.4468C19.0145 37.4356 18.9127 37.446 18.8165 37.477C18.7203 37.5072 18.6313 37.5581 18.5565 37.6265C18.481 37.694 18.4214 37.7767 18.3808 37.8689C18.3395 37.9612 18.3188 38.0614 18.3196 38.1623C18.2401 41.263 17.127 43.4097 15.1394 44.0457L17.3655 44.6023C18.5581 43.5687 19.8302 41.7401 19.9097 38.2418C19.9097 38.1377 19.8891 38.0343 19.8493 37.9373C19.8096 37.8411 19.7507 37.7537 19.6768 37.6797C19.6028 37.6058 19.5154 37.547 19.4192 37.5072C19.3222 37.4674 19.2188 37.4468 19.1147 37.4468Z" fill="#F54C9D"/>
<path d="M11.642 5.56538C15.1402 6.59895 17.2073 9.38163 15.6967 14.311C18.8769 16.2191 20.467 19.0813 18.4794 22.4205" stroke="#F54C9D" stroke-width="2" stroke-linecap="round" stroke-linejoin="round"/>
<path d="M16.0148 9.61999C16.0148 9.61999 16.9688 7.15533 18.7975 6.6783" stroke="#F54C9D" stroke-width="2" stroke-linecap="round" stroke-linejoin="round"/>
<path d="M31.5183 9.06343C33.4264 12.4822 33.3469 17.4115 31.6773 20.9892C35.414 24.726 35.891 29.5758 31.1207 32.8355" stroke="#F54C9D" stroke-width="2" stroke-linecap="round" stroke-linejoin="round"/>
<path d="M27.543 10.7332L28.7355 9.38159" stroke="black" stroke-width="2" stroke-miterlimit="10" stroke-linecap="round"/>
<path d="M28.417 12.8798L30.0866 12.3233" stroke="black" stroke-width="2" stroke-miterlimit="10" stroke-linecap="round"/>
<path d="M35.9699 16.2191L37.083 14.8675" stroke="black" stroke-width="2" stroke-miterlimit="10" stroke-linecap="round"/>
<path d="M29.8479 15.424C30.0864 19.4788 29.1323 21.0688 27.3037 21.0688C25.4751 21.0688 24.6005 19.9558 24.998 17.0141C25.2095 15.4134 24.8732 13.7882 24.044 12.4027C22.0564 9.30202 22.9309 8.42746 24.521 8.34795C26.1111 8.26845 29.6094 11.3692 29.8479 15.424Z" fill="white"/>
<path d="M37.719 18.2862C37.4805 16.696 36.4469 15.1854 35.4133 15.1854C34.3798 15.1854 34.3002 16.537 34.5388 18.1271C34.7773 19.7173 35.0953 21.0688 36.2879 21.0688C37.4805 21.0688 38.037 19.8763 37.719 18.2862Z" fill="white"/>
<path d="M27.3038 21.0686L28.0988 20.9096C28.649 20.3537 28.9869 19.622 29.0529 18.8425C29.2119 17.4114 28.8144 16.2188 27.7013 16.2188C26.5882 16.2188 25.7932 17.4114 25.6342 18.8425C25.5785 19.4361 25.6604 20.0345 25.8727 20.5916C26.2798 20.9123 26.7854 21.081 27.3038 21.0686Z" fill="black"/>
<path d="M36.2886 18.5246C35.6526 18.5246 35.1756 19.2402 35.0961 20.0352V20.1942C35.1788 20.4462 35.3378 20.6659 35.5516 20.8227C35.7655 20.9794 36.0231 21.0655 36.2886 21.0688C36.3689 21.0923 36.4532 21.0973 36.5359 21.0836C36.6186 21.0698 36.6973 21.0376 36.7657 20.9893C36.9907 20.7186 37.1298 20.3861 37.1632 20.0352C37.2427 19.2402 37.0042 18.5246 36.2886 18.5246Z" fill="black"/>
<path d="M27.3047 27.9062C24.2835 23.5334 19.9107 19.7172 15.538 22.4999C11.1652 25.2826 11.4832 29.7349 13.1528 33.4715C14.8224 37.2083 18.7182 39.3549 23.8065 40.468C24.9991 39.991 24.7606 38.5599 23.568 38.1623C22.3754 37.7648 18.0026 37.0493 15.538 33.551C13.0733 30.0529 13.9478 25.5211 16.174 24.09C18.4001 22.6589 22.2164 23.2154 25.3171 27.9062C28.4178 32.597 31.9955 34.8231 34.1422 35.1411C36.2888 35.4592 36.6069 34.9026 36.6864 34.3461V33.869C33.3471 33.869 30.2464 32.2789 27.3047 27.9062Z" fill="#8CD9FF"/>
<path d="M6.5528 12.9592C6.66014 12.972 6.76906 12.9603 6.87162 12.9248C6.97418 12.8893 7.06639 12.8312 7.14351 12.7547C7.21984 12.6781 7.27789 12.5852 7.31367 12.4829C7.34865 12.3807 7.36058 12.2717 7.34786 12.1642C7.35899 12.0638 7.34863 11.9621 7.31762 11.8659C7.28741 11.7697 7.23654 11.6811 7.16896 11.606C7.10139 11.5308 7.0179 11.471 6.92568 11.4301C6.83345 11.3893 6.73326 11.3685 6.63229 11.3691C5.9883 11.3755 5.35544 11.1998 4.80686 10.8621C4.25827 10.5245 3.81622 10.0388 3.53159 9.46099C3.53159 9.38148 3.45208 9.22247 3.45208 9.14297C3.0625 9.6142 2.71666 10.1198 2.41852 10.6536C2.85341 11.3591 3.46162 11.9414 4.18511 12.345C4.90861 12.7487 5.72436 12.9602 6.5528 12.9592Z" fill="#F54C9D"/>
<path d="M18.3999 41.9787C19.4096 41.7108 20.4607 41.6305 21.5006 41.7402" stroke="#F54C9D" stroke-width="2" stroke-linecap="round" stroke-linejoin="round"/>
</g>
<defs>
<clipPath id="clip0_85_2830">
<rect width="45" height="45" rx="22.5" fill="white"/>
</clipPath>
</defs>
</svg>
