<svg width="45" height="45" viewBox="0 0 45 45" fill="none" xmlns="http://www.w3.org/2000/svg">
<g clip-path="url(#clip0_85_2793)">
<rect width="45" height="45" rx="22.5" fill="#3895F2"/>
<path d="M30.8162 15.9866L28.256 19.0088C28.256 19.0088 33.4433 25.9722 34.8214 27.4173C36.2005 28.8623 37.5796 28.5343 38.3016 27.5483C39.0237 26.5632 39.8117 24.3951 30.8162 15.9866V15.9866Z" fill="#FFAE17"/>
<path d="M13.0223 28.9283C12.1683 32.2785 11.8403 36.5488 13.4164 40.49L24.316 36.5488L23.5929 32.3445C27.6642 32.3445 31.2754 32.9356 32.5885 28.5993C33.5736 25.4461 34.2306 19.0748 32.5885 15.6586C30.9474 12.2424 27.8612 10.0745 21.8209 11.3884C18.2097 12.2424 17.4216 14.1475 16.6336 16.6436C12.2993 16.3156 9.0821 17.2347 8.36006 21.6359C7.63801 26.0382 9.93617 28.1403 13.0223 28.9283V28.9283Z" fill="#FFD73B"/>
<path d="M29.8964 12.4395L28.1233 16.0526C28.1233 16.0526 34.2956 22.162 35.8057 23.41C37.3158 24.6581 38.6949 24.1331 39.3519 23.082C40.008 22.0309 40.008 19.5338 29.8964 12.4395V12.4395Z" fill="#FFD73B"/>
<path d="M19.9158 16.9726L17.8146 16.7746C18.3407 15.0671 18.9967 14.5415 19.7187 14.5415C20.4418 14.5415 20.9668 15.3955 19.9158 16.9726Z" fill="white"/>
<path d="M25.4966 17.9576L22.4764 17.3666C23.3954 15.4612 24.2495 14.7386 25.3656 14.8699C26.4816 15.0013 26.6126 16.1835 25.4966 17.9576V17.9576Z" fill="white"/>
<path d="M13.9413 19.0747C13.9793 19.0057 14.0383 18.9507 14.1083 18.9157C14.1784 18.8807 14.2573 18.8667 14.3354 18.8777C17.4935 18.7017 20.6577 19.1247 23.6589 20.1258C24.841 20.5848 24.2499 21.3738 22.1488 22.4899C20.1157 23.577 17.8146 24.056 15.5174 23.87C13.4813 23.738 12.6933 21.5048 13.9413 19.0747V19.0747Z" fill="black"/>
<path d="M24.0533 21.1107C20.6391 20.3227 16.3048 20.7167 14.2037 23.3439C15.9108 24.921 22.2141 23.3439 24.0533 21.1107Z" fill="#EB459F"/>
<path d="M23.1341 20.9798C21.259 21.1358 19.4319 21.6489 17.7498 22.4899" stroke="black" stroke-width="0.861558" stroke-miterlimit="10" stroke-linecap="round"/>
<path d="M23.6591 20.1259C20.936 19.1858 18.0678 18.7408 15.1886 18.8118C14.5976 19.8629 14.4666 20.9139 16.7648 21.1109C17.7498 21.1769 17.8148 20.3879 17.8148 20.3879C19.7449 20.6789 21.653 21.0959 23.5271 21.636C24.4472 20.9799 24.5122 20.4539 23.6591 20.1259Z" fill="white"/>
<path d="M8.8203 36.0887C18.8659 34.7747 24.6442 34.2496 28.1244 34.1176C31.6036 33.9866 33.3107 35.4317 33.5077 36.8118C33.8367 39.3729 30.3565 52.4457 30.3565 52.4457C30.3565 52.4457 30.6846 56.2559 30.6196 58.3581C30.5535 60.4602 30.0935 61.8403 23.9222 62.0373C20.0479 62.1033 7.04717 60.3292 2.38489 58.8841C-2.27638 57.439 -3.26143 56.585 -1.22631 50.3436C-0.903293 49.4425 -0.640283 48.5205 -0.438272 47.5844C0.218767 44.5632 2.51693 37.0738 8.8203 36.0887V36.0887Z" fill="white"/>
<path d="M20.3753 45.3513L25.8256 37.1398" stroke="black" stroke-width="0.861558" stroke-miterlimit="10" stroke-linecap="round"/>
<path opacity="0.6" d="M21.6891 46.3362C9.3454 48.0443 -0.963206 49.7524 0.217863 45.2201C-0.0581529 45.9911 -0.278172 46.7812 -0.438181 47.5852C-0.640193 48.5213 -0.903203 49.4423 -1.22622 50.3434C-3.26134 56.5848 -1.94827 57.7018 2.38498 58.9499C6.71824 60.198 20.048 62.3001 23.8562 62.1681C30.0276 62.0371 30.5537 60.526 30.6187 58.3579C30.6847 56.1907 30.4876 52.4455 30.4876 52.4455L32.1947 44.9571L21.6891 46.3362Z" fill="#949CFF"/>
<path d="M17.9469 20.8469L16.1738 20.6498C16.0428 20.5848 15.9767 20.5188 15.9767 20.3878C15.9767 20.2568 16.1088 20.1908 16.2398 20.1908L18.0129 20.3878C18.0779 20.4538 18.2099 20.5188 18.1439 20.6498C18.1439 20.7029 18.1229 20.7529 18.0859 20.7899C18.0489 20.8269 17.9989 20.8469 17.9469 20.8469V20.8469Z" fill="black"/>
<path d="M33.5734 21.3739L31.2092 19.0747C31.0782 18.9427 30.8812 18.9427 30.8152 19.0747C30.7872 19.0987 30.7652 19.1297 30.7502 19.1637C30.7342 19.1977 30.7262 19.2337 30.7272 19.2717C30.7262 19.3087 30.7342 19.3457 30.7502 19.3797C30.7652 19.4137 30.7872 19.4437 30.8152 19.4687L33.5734 22.1619V21.3739Z" fill="black"/>
<path d="M31.2095 19.0745C32.9826 20.7826 35.0177 22.7527 35.8058 23.4097C36.1268 23.7077 36.5188 23.9188 36.9438 24.0218C37.3689 24.1258 37.8139 24.1188 38.2359 24.0008C38.695 23.3437 38.827 22.0957 36.8568 20.5846C34.8867 19.0745 32.1296 18.6795 31.2095 19.0745V19.0745Z" fill="white"/>
<path d="M19.3257 15.133C18.8657 15.133 18.3407 15.7238 18.0777 16.3808C17.8156 17.0378 18.0116 16.6438 18.0116 16.7748L19.5227 16.9728C19.6367 16.7878 19.7247 16.5898 19.7848 16.3808C19.9818 15.7238 19.7847 15.133 19.3257 15.133V15.133Z" fill="black"/>
<path d="M22.4764 17.3667L24.2495 17.6948C24.3835 17.5127 24.4935 17.3137 24.5775 17.1037C24.9055 16.3157 24.6435 15.6586 24.1175 15.5927C23.8835 15.5879 23.6545 15.6566 23.4615 15.7896C23.0744 16.2767 22.7444 16.8057 22.4764 17.3667Z" fill="black"/>
<path d="M23.5282 30.2424C23.3962 30.2424 23.2652 30.3734 23.3312 30.5044L23.5932 32.3445H24.1192L23.8562 30.4394C23.7902 30.3074 23.6592 30.1764 23.5282 30.2424V30.2424Z" fill="black"/>
<path d="M13.0212 28.9944C14.7723 29.3674 16.5514 29.5874 18.3405 29.6514C18.3405 29.6514 12.4312 37.0088 13.0212 28.9944Z" fill="black"/>
<path d="M24.447 56.979C26.5861 55.4099 28.3562 53.3918 29.6343 51.0666C31.8394 47.4734 33.6245 43.6382 34.9526 39.636C35.8066 36.8768 34.8866 35.6947 33.5085 34.8407C32.1294 33.9866 31.9974 33.7896 27.2701 34.1176C26.9421 36.7458 23.5929 41.5411 20.8358 45.2203C23.3959 47.5854 24.578 50.0156 24.447 56.979V56.979Z" fill="white"/>
<path d="M26.7451 34.1837C19.5227 36.9429 16.0425 37.8629 14.5324 37.7969C13.0223 37.7309 12.5623 37.1399 11.3152 35.7608L12.2993 35.6288C15.9115 35.1038 20.7698 34.6437 23.987 34.3807C24.89 34.1697 25.8211 34.1037 26.7451 34.1837V34.1837Z" fill="#5865F2"/>
<path d="M23.9209 34.3804C15.1224 37.2056 14.2033 37.3366 12.3652 35.6285C12.3652 35.1035 12.8903 35.0375 13.2183 34.9065C17.8146 33.4604 23.9209 34.3804 23.9209 34.3804V34.3804Z" fill="#FFD73B"/>
<path d="M18.7998 13.8193C19.7849 13.031 21.295 12.6368 21.82 14.2792C24.5782 12.5054 26.2193 12.8339 26.6793 13.9507" stroke="black" stroke-width="0.861558" stroke-linecap="round" stroke-linejoin="round"/>
<path d="M20.7698 44.8262C22.895 45.9002 24.6201 47.6273 25.6941 49.7525" stroke="black" stroke-width="0.861558" stroke-linecap="round" stroke-linejoin="round"/>
</g>
<defs>
<clipPath id="clip0_85_2793">
<rect width="45" height="45" rx="22.5" fill="white"/>
</clipPath>
</defs>
</svg>
