<svg width="45" height="45" viewBox="0 0 45 45" fill="none" xmlns="http://www.w3.org/2000/svg">
<rect width="45" height="45" rx="22.5" fill="#5865F2"/>
<path d="M29.8708 23.624L18.0037 27.7081L9.68933 27.9671L23.4093 24.049C23.5136 24.0211 23.6203 24.0033 23.7281 23.9959L29.8708 23.624C29.8708 23.624 29.8775 23.6174 29.8708 23.624Z" fill="black"/>
<path d="M7.11268 16.359L9.10493 27.3761C9.12183 27.4665 9.15732 27.5525 9.20918 27.6285C9.26103 27.7044 9.32811 27.7688 9.40615 27.8175C9.4842 27.8662 9.57151 27.8982 9.66255 27.9114C9.7536 27.9245 9.84638 27.9187 9.93503 27.8941L23.2167 24.0889C23.4336 24.0295 23.6562 23.9938 23.8808 23.9826L29.4525 23.6572C29.55 23.6587 29.6467 23.6386 29.7357 23.5984C29.8246 23.5582 29.9036 23.4989 29.967 23.4247C30.0304 23.3505 30.0766 23.2633 30.1025 23.1692C30.1283 23.0751 30.1331 22.9764 30.1165 22.8803L27.8055 8.89466C27.7723 8.68823 27.6663 8.50049 27.5068 8.36532C27.3473 8.23015 27.1447 8.15645 26.9356 8.15753H21.4835C21.0355 8.15773 20.5931 8.25753 20.1885 8.44972L8.37443 13.9151C7.92136 14.123 7.55095 14.4766 7.32226 14.9195C7.09357 15.3625 7.01979 15.8692 7.11268 16.359V16.359Z" fill="#8CD9FF"/>
<path d="M20.8924 8.77502L23.4757 23.5708C23.4968 23.6874 23.4738 23.8077 23.4112 23.9083C23.3486 24.0089 23.2509 24.0827 23.137 24.1154L9.76238 27.9471C9.72279 27.9535 9.68243 27.9535 9.64284 27.9471C9.52932 27.9503 9.41844 27.9125 9.3306 27.8405C9.24276 27.7685 9.18385 27.6673 9.1647 27.5553L7.02635 15.9073C6.96197 15.5546 7.01635 15.1906 7.18098 14.8721C7.34561 14.5537 7.6112 14.2988 7.93615 14.1475L20.2151 8.44962C20.28 8.41774 20.3513 8.40103 20.4237 8.40072C20.496 8.40042 20.5675 8.41654 20.6327 8.44787C20.698 8.4792 20.7552 8.52492 20.8002 8.58159C20.8452 8.63826 20.8767 8.7044 20.8924 8.77502V8.77502Z" fill="#3F99F2"/>
<path d="M13.6871 16.3125C13.5145 14.1277 14.9422 12.2682 16.888 12.2549C18.8338 12.2417 20.4209 14.0944 20.4209 16.2793C20.4209 18.3579 18.9799 19.9782 17.2001 19.9782C15.4204 19.9782 13.8531 18.3844 13.6871 16.3125Z" fill="black"/>
<path d="M13.2422 16.3589C13.1094 14.5725 14.1852 13.1049 15.6462 13.1182C17.1072 13.1315 18.3025 14.5991 18.3888 16.3655C18.4752 18.132 17.3927 19.4602 16.0048 19.4668C14.6168 19.4735 13.375 18.0988 13.2422 16.3589Z" fill="#FF78B9"/>
<path d="M13.6539 16.7242C13.5742 15.582 14.2317 14.6456 15.1215 14.6523C16.0114 14.6589 16.7552 15.6019 16.8017 16.7309C16.8481 17.8598 16.1907 18.7231 15.3407 18.7231C14.4907 18.7231 13.7336 17.8333 13.6539 16.7242Z" fill="white"/>
<path d="M15.98 16.3467C16.215 16.1711 16.2116 15.7691 15.9722 15.4488C15.7329 15.1286 15.3484 15.0114 15.1134 15.187C14.8783 15.3627 14.8818 15.7646 15.1211 16.0849C15.3604 16.4051 15.7449 16.5223 15.98 16.3467Z" fill="black"/>
<path d="M21.3241 6.07222L21.9417 9.39264L22.732 9.31295L22.028 5.80659C21.9894 5.60298 21.8988 5.41283 21.765 5.25458C21.6311 5.09633 21.4587 4.97537 21.2643 4.90344C20.8092 4.79915 20.3432 4.7501 19.8764 4.75734H19.3916C19.8184 4.70492 20.2497 4.80938 20.6052 5.05127C20.9607 5.29316 21.2162 5.656 21.3241 6.07222Z" fill="black"/>
<path d="M23.0241 9.33954L22.3601 5.61403C22.271 5.15358 22.0224 4.7393 21.658 4.44412C21.2936 4.14894 20.8367 3.99178 20.3678 4.00031H18.163C17.7076 4.00521 17.2588 4.10972 16.8481 4.30651C16.4373 4.5033 16.0746 4.78759 15.7854 5.13944C15.4962 5.49128 15.2875 5.90216 15.174 6.34323C15.0605 6.78429 15.0448 7.24486 15.1282 7.69261L16.2306 13.6694L16.3102 14.2139L17.5454 14.4397L16.2704 7.40706C16.2152 7.09205 16.2295 6.76877 16.3125 6.45991C16.3955 6.15105 16.5451 5.8641 16.7507 5.61919C16.9564 5.37429 17.2132 5.17736 17.5031 5.04224C17.7929 4.90713 18.1089 4.83709 18.4287 4.83705H20.8194C21.1097 4.83687 21.3909 4.93841 21.6141 5.12403C21.8374 5.30965 21.9885 5.56762 22.0413 5.8531L22.7054 9.479L23.0241 9.33954Z" fill="#FF78B9"/>
<path d="M27.0817 8.15752H21.2643C21.2056 8.15768 21.1476 8.17062 21.0944 8.19541C21.0412 8.22021 20.994 8.25628 20.9561 8.30113C20.9182 8.34598 20.8905 8.39854 20.8749 8.45515C20.8593 8.51177 20.8563 8.57109 20.8659 8.62902L23.5222 23.6041C23.5416 23.7131 23.6003 23.8112 23.6872 23.8798C23.7741 23.9483 23.8832 23.9826 23.9937 23.976L29.7978 23.6373C29.8946 23.6195 29.9812 23.5658 30.0402 23.4871C30.0993 23.4083 30.1266 23.3102 30.1166 23.2123L27.7325 8.76183C27.7178 8.59853 27.6432 8.44645 27.523 8.33488C27.4028 8.2233 27.2457 8.16013 27.0817 8.15752Z" fill="#8CD9FF"/>
<path d="M15.5067 9.83096L16.6091 9.31298L16.297 7.54652L15.1813 8.0645L15.5067 9.83096Z" fill="#FFE75C"/>
<path d="M19.2057 26.7319C18.9256 26.7442 18.6573 26.8484 18.4424 27.0285C18.2276 27.2085 18.078 27.4544 18.017 27.728V27.728L17.2865 30.9621L16.9146 32.5759L16.722 33.3794L16.6357 33.7446C16.6195 33.8107 16.5973 33.8752 16.5693 33.9372C16.4484 34.1895 16.234 34.3849 15.9716 34.4818C15.8385 34.5339 15.6958 34.5565 15.5532 34.5482C15.4803 34.5547 15.407 34.5547 15.3341 34.5482L15.2344 34.515L15.0419 34.4486L12.2992 33.4192C12.1813 33.3812 12.0547 33.3799 11.9362 33.4155C11.8176 33.4511 11.7126 33.5219 11.6351 33.6185C11.3799 33.9465 11.2233 34.3404 11.1835 34.754C10.9511 37.2576 11.0839 38.5194 11.2632 39.1503C11.2826 39.2144 11.321 39.2712 11.3733 39.3131C11.4255 39.355 11.4893 39.3801 11.5561 39.3852C11.6229 39.3902 11.6897 39.3749 11.7476 39.3413C11.8056 39.3076 11.852 39.2573 11.8808 39.1968L13.3617 35.8763L14.3246 36.3014L14.5172 36.3877C14.6102 36.3877 14.7032 36.4607 14.8028 36.4873C14.9965 36.5522 15.197 36.5945 15.4005 36.6135C15.8108 36.6616 16.2265 36.6254 16.6224 36.5072C17.4312 36.2743 18.1143 35.7297 18.5217 34.9931C18.6259 34.8123 18.7105 34.6208 18.774 34.422C18.8139 34.3025 18.8205 34.256 18.8471 34.1896L18.9068 33.9837L19.1393 33.1868L19.6041 31.5864L20.5206 28.3855V28.3124C20.5689 28.1182 20.5708 27.9152 20.5261 27.7201C20.4815 27.5249 20.3915 27.343 20.2634 27.1891C20.1354 27.0352 19.9729 26.9136 19.7891 26.8342C19.6054 26.7548 19.4055 26.7197 19.2057 26.7319V26.7319Z" fill="#57F287"/>
<path d="M23.9671 33.4125L22.639 28.0002V27.9338C22.6095 27.7349 22.5376 27.5447 22.4281 27.3761C22.3186 27.2075 22.1741 27.0644 22.0044 26.9566C21.8348 26.8487 21.6439 26.7787 21.4447 26.7512C21.2456 26.7237 21.0428 26.7393 20.8503 26.7971C20.6577 26.8548 20.4798 26.9534 20.3287 27.086C20.1776 27.2186 20.0568 27.3821 19.9745 27.5656C19.8922 27.749 19.8503 27.948 19.8517 28.149C19.8531 28.3501 19.8978 28.5484 19.9826 28.7307L21.5565 34.0434C21.5703 34.1158 21.5703 34.1901 21.5565 34.2625C21.5556 34.3386 21.5374 34.4135 21.5034 34.4817C21.4732 34.5545 21.428 34.6202 21.3706 34.6742V34.6742L21.2311 34.7871L20.9655 35.0063L18.8006 36.7595C17.8709 37.4767 18.7541 38.3931 21.1116 40.3654C22.6523 41.6471 21.3174 38.7716 20.8592 38.0677L22.4331 36.9188L22.712 36.713L22.8515 36.6134H22.8913C22.8913 36.6134 22.8913 36.6134 22.9312 36.6134L23.0441 36.527C23.6443 36.0232 24.0331 35.312 24.1332 34.5348C24.147 34.1537 24.0907 33.7733 23.9671 33.4125Z" fill="#57F287"/>
<path d="M27.0241 10.5462C27.3227 10.5108 27.5168 10.0775 27.4576 9.57859C27.3983 9.07962 27.1082 8.70387 26.8096 8.73933C26.5109 8.77478 26.3168 9.20801 26.3761 9.70697C26.4353 10.2059 26.7254 10.5817 27.0241 10.5462Z" fill="#FF78B9"/>
<path d="M9.88855 24.6136L10.1807 26.1476C10.1931 26.2085 10.2178 26.2662 10.2534 26.317C10.289 26.3679 10.3347 26.4109 10.3877 26.4433C10.4407 26.4757 10.4998 26.4969 10.5613 26.5054C10.6228 26.5139 10.6854 26.5097 10.7452 26.4929L12.8371 25.9019C12.946 25.8721 13.0396 25.8021 13.0988 25.7059C13.158 25.6097 13.1784 25.4946 13.1559 25.3839L12.8504 23.737C12.8384 23.6738 12.8132 23.614 12.7763 23.5614C12.7394 23.5088 12.6917 23.4647 12.6364 23.432C12.5811 23.3993 12.5194 23.3788 12.4555 23.3718C12.3916 23.3649 12.327 23.3716 12.266 23.3917L10.194 24.1022C10.0889 24.1346 9.99952 24.2048 9.94311 24.2992C9.88669 24.3937 9.86725 24.5057 9.88855 24.6136V24.6136Z" fill="#66BCFF"/>
<path d="M9.22449 21.645L9.51669 23.1658C9.52659 23.2267 9.54986 23.2847 9.58481 23.3356C9.61976 23.3864 9.66553 23.4289 9.71885 23.46C9.77217 23.4912 9.83171 23.5101 9.8932 23.5155C9.95469 23.5208 10.0166 23.5125 10.0745 23.4912L12.1465 22.8271C12.2535 22.7921 12.3445 22.72 12.4029 22.6237C12.4614 22.5275 12.4835 22.4135 12.4652 22.3024L12.1863 20.6555C12.1742 20.5931 12.1485 20.5341 12.111 20.4827C12.0735 20.4314 12.025 20.3889 11.9692 20.3585C11.9134 20.328 11.8515 20.3103 11.788 20.3065C11.7245 20.3028 11.661 20.3131 11.6019 20.3368L9.52998 21.127C9.42516 21.162 9.33651 21.2337 9.28038 21.3289C9.22424 21.4241 9.20439 21.5363 9.22449 21.645V21.645Z" fill="#66BCFF"/>
<path d="M26.5371 19.4202L32.2549 20.2503C33.2033 20.3894 34.1713 20.2949 35.0749 19.9751C35.9785 19.6553 36.7904 19.1198 37.4402 18.4151C38.0899 17.7104 38.5579 16.8578 38.8034 15.9312C39.049 15.0046 39.0647 14.0322 38.8492 13.0981V13.0981C38.6346 12.1639 38.1954 11.2961 37.5698 10.5698C36.9441 9.84352 36.1509 9.28072 35.2587 8.93012C34.3665 8.57953 33.4023 8.45171 32.4496 8.55775C31.4969 8.66379 30.5844 9.00048 29.7911 9.53866L25.0097 12.786C24.4013 13.1999 23.9321 13.7879 23.6635 14.473C23.395 15.1581 23.3396 15.9084 23.5047 16.6255C23.6698 17.3425 24.0477 17.993 24.5888 18.4917C25.1299 18.9904 25.809 19.3141 26.5371 19.4202V19.4202Z" fill="#3F99F2"/>
<path d="M33.6998 19.6525C36.2744 19.6382 38.3487 17.3253 38.3329 14.4866C38.317 11.6479 36.217 9.3583 33.6424 9.37268C31.0677 9.38706 28.9934 11.6999 29.0093 14.5386C29.0251 17.3773 31.1252 19.6669 33.6998 19.6525Z" fill="black"/>
<mask id="mask0_104_497" style="mask-type:alpha" maskUnits="userSpaceOnUse" x="29" y="9" width="10" height="11">
<path d="M33.6998 19.6526C36.2744 19.6382 38.3487 17.3253 38.3329 14.4866C38.317 11.6479 36.217 9.35834 33.6424 9.37272C31.0677 9.3871 28.9934 11.7 29.0093 14.5387C29.0251 17.3774 31.1251 19.667 33.6998 19.6526Z" fill="black"/>
</mask>
<g mask="url(#mask0_104_497)">
<path d="M27.7723 13.0918C28.4783 13.204 29.2017 13.0936 29.8419 12.7759C30.4822 12.4581 31.0076 11.9488 31.3451 11.3186C32.1354 10.2428 33.6827 15.8079 35.5222 10.7409C35.7613 10.0768 36.4519 12.4874 38.0391 12.0691C38.0391 12.0691 34.3136 7.86541 34.2737 7.86541C34.2339 7.86541 29.1536 10.5217 29.1536 10.5217L27.7723 13.0918Z" fill="white"/>
</g>
<path d="M38.7496 19.8919C38.6252 18.9264 38.2497 18.0105 37.6605 17.2355C36.7266 15.8895 35.3712 14.8926 33.8081 14.402C32.245 13.9115 30.563 13.9551 29.0275 14.5261C29.0323 15.3911 29.2368 16.2434 29.6251 17.0164C31.1697 17.3565 32.5166 18.295 33.3706 19.6262C33.8578 20.3374 34.2486 21.1101 34.5327 21.924C35.4292 24.4475 38.9887 23.1127 38.7496 19.8919Z" fill="#EB459F"/>
<mask id="mask1_104_497" style="mask-type:alpha" maskUnits="userSpaceOnUse" x="29" y="9" width="10" height="11">
<path d="M33.6998 19.6526C36.2744 19.6382 38.3487 17.3253 38.3329 14.4866C38.317 11.6479 36.217 9.35834 33.6424 9.37272C31.0677 9.3871 28.9934 11.7 29.0093 14.5387C29.0251 17.3774 31.1251 19.667 33.6998 19.6526Z" fill="black"/>
</mask>
<g mask="url(#mask1_104_497)">
<path d="M35.7148 18.2981C35.6805 18.2991 35.6466 18.2903 35.6172 18.2726C35.5877 18.255 35.564 18.2293 35.5487 18.1985C34.3534 15.9473 32.7131 14.6124 30.6677 14.214C29.7623 14.0382 28.8286 14.0723 27.9383 14.3136C27.889 14.3284 27.8359 14.3235 27.7901 14.3C27.7443 14.2765 27.7093 14.2361 27.6926 14.1874C27.6844 14.163 27.6811 14.1372 27.6831 14.1115C27.685 14.0859 27.692 14.0608 27.7038 14.0379C27.7156 14.015 27.7318 13.9947 27.7516 13.9782C27.7713 13.9616 27.7942 13.9493 27.8188 13.9417C28.765 13.6828 29.7583 13.6464 30.7209 13.8355C32.215 14.1077 34.3202 15.0574 35.8874 17.9993C35.9113 18.0452 35.9163 18.0987 35.9014 18.1482C35.8865 18.1978 35.8529 18.2397 35.8077 18.2649C35.7798 18.2831 35.7479 18.2945 35.7148 18.2981V18.2981Z" fill="black"/>
</g>
<path d="M25.375 12.5405C24.8839 13.7094 24.7645 15.0012 25.033 16.2404C25.3015 17.4795 25.9449 18.606 26.8758 19.4669L28.4431 19.6993C25.0164 16.6312 26.0258 13.2311 26.9422 11.478L25.375 12.5405Z" fill="#1416A8"/>
<path d="M32.215 31.7258C31.6904 32.1309 30.9599 33.3727 30.4154 33.8642L22.8647 26.7718C22.7448 26.647 22.6006 26.5479 22.4411 26.4806C22.2816 26.4133 22.1101 26.3792 21.937 26.3804C21.7639 26.3816 21.5928 26.418 21.4342 26.4874C21.2756 26.5568 21.1328 26.6578 21.0146 26.7843C20.8963 26.9107 20.805 27.0598 20.7462 27.2227C20.6875 27.3855 20.6625 27.5586 20.6728 27.7314C20.6831 27.9042 20.7285 28.0731 20.8062 28.2278C20.884 28.3825 20.9924 28.5198 21.1248 28.6312L29.3794 36.3146L29.7845 36.733C29.8588 36.8093 29.9476 36.87 30.0457 36.9114C30.1437 36.9528 30.2491 36.9741 30.3556 36.9741C30.4621 36.9741 30.5675 36.9528 30.6656 36.9114C30.7637 36.87 30.8525 36.8093 30.9267 36.733C32.215 35.3517 33.5299 30.7231 32.215 31.7258Z" fill="#57F287"/>
<path d="M23.6152 27.4756L23.9472 27.2498C24.2352 27.052 24.4335 26.7487 24.4994 26.4056C24.5653 26.0626 24.4934 25.7074 24.2992 25.417C24.1024 25.128 23.7996 24.9282 23.4564 24.8611C23.1133 24.794 22.7575 24.8648 22.4663 25.0584L20.6003 26.3201L17.9041 26.2471C17.554 26.2381 17.2146 26.3677 16.9596 26.6078C16.7047 26.8478 16.5548 27.1788 16.5427 27.5287C16.5415 27.8623 16.6658 28.1841 16.891 28.4301C17.1161 28.6762 17.4256 28.8286 17.758 28.8569L17.3994 30.4507C18.2361 30.2316 19.0861 30.4507 19.5112 31.7324L19.5709 31.5332L20.162 29.4745L20.2549 29.7933L20.5139 30.6566C20.5139 30.6566 21.4768 28.9167 23.0906 29.8198L23.2898 30.6234L24.1265 31.4004C24.1929 30.7363 24.4387 29.594 25.3684 29.1026L23.6152 27.4756Z" fill="black"/>
</svg>
