<svg width="45" height="45" viewBox="0 0 45 45" fill="none" xmlns="http://www.w3.org/2000/svg">
<g clip-path="url(#clip0_85_2776)">
<rect width="45" height="45" rx="22.5" fill="#FF82A6"/>
<path d="M22.4997 45C34.9261 45 44.9997 34.9264 44.9997 22.5C44.9997 10.0735 34.9261 -4.57764e-05 22.4997 -4.57764e-05C10.0733 -4.57764e-05 -0.000320435 10.0735 -0.000320435 22.5C-0.000320435 34.9264 10.0733 45 22.4997 45Z" fill="#FF82A6"/>
<path d="M35.2122 5.27458L35.1463 5.46743L34.9503 5.93672L34.8844 6.12798L34.7317 6.4703C31.3711 14.2971 24.9249 20.0667 20.6547 24.0765C16.2319 28.2101 11.2545 31.7057 5.86579 34.4651C0.559 37.0124 -1.84205 34.7239 -1.24901 30.383L-0.718678 28.2053L1.89614 17.2253L2.00865 16.6901C3.77812 9.53511 6.50865 5.42566 15.3881 3.2078L28.8994 -0.106124L28.9411 -0.127018C33.6597 -1.26648 36.9431 0.32297 35.2122 5.27458Z" fill="url(#paint0_linear_85_2776)"/>
<path d="M33.822 -0.0659485C29.5358 0.64923 21.5097 5.80495 13.5495 13.381C5.59093 20.9571 -0.4921 29.3191 -1.03853 33.4253C-0.286386 35.6142 2.01985 36.2957 5.86574 34.4651C11.2545 31.7073 16.2318 28.2101 20.6547 24.0766C24.9249 20.0667 31.3711 14.2971 34.7316 6.4703L34.8843 6.12799L34.9502 5.93673L35.1463 5.46743L35.2122 5.27458C36.2408 2.37208 35.5497 0.633159 33.822 -0.0659485Z" fill="url(#paint1_linear_85_2776)"/>
<path d="M21.1031 21.2479C28.8303 13.9161 33.9587 6.77561 32.5573 5.29865C31.1558 3.82329 23.7566 8.56918 16.031 15.901C8.30387 23.2328 3.17548 30.3733 4.57691 31.8502C5.97673 33.3256 13.3776 28.5797 21.1031 21.2479Z" fill="#6B3143"/>
<path d="M19.4815 33.9766L17.4356 35.4584C16.9422 35.7862 16.5292 36.2202 16.2238 36.7296C15.9201 37.2375 15.7337 37.808 15.679 38.3978L15.3367 41.0705L11.7351 44.3797C10.9813 45.1206 10.5362 46.1186 10.4912 47.1745L10.5137 49.7202C10.5137 49.7202 30.2044 60.2196 40.7938 58.3361C51.3817 56.4541 44.937 38.2934 44.937 38.2934C44.8438 38.1166 44.7024 37.9671 44.5305 37.8643C44.3569 37.7614 44.1592 37.7068 43.9583 37.7084L40.8131 37.4898L39.4712 34.2048C39.3474 33.8994 39.1497 33.6295 38.899 33.4189C38.6467 33.2084 38.3462 33.0621 38.0247 32.993L28.7515 31.0339L19.4815 33.9766Z" fill="#EF6270"/>
<path d="M19.93 39.4601C17.1094 38.9233 17.3007 38.9892 18.1043 37.689C18.5623 36.887 19.2341 36.2249 20.0457 35.7797L19.93 39.4601Z" fill="#BD3C53"/>
<path d="M24.2531 13.3617C23.914 12.9953 21.0725 15.0267 17.9225 17.9549C14.7741 20.8831 12.5048 23.5397 12.8456 23.9062C16.6288 29.6726 19.1536 35.1513 19.9314 39.4601L35.3166 42.4751C34.4857 28.8127 28.099 19.472 24.2531 13.3617Z" fill="#FFB685"/>
<path d="M30.1079 25.5068C29.9777 25.0231 29.6049 24.7 29.2722 24.7884C28.9395 24.8768 28.7756 25.3429 28.9041 25.8283C29.0343 26.3136 29.4072 26.6351 29.7399 26.5467C30.0726 26.4583 30.2365 25.9922 30.1079 25.5068Z" fill="#543247"/>
<path d="M25.0535 28.374C25.2929 28.0253 25.1194 27.4885 24.663 27.1719C24.2065 26.8553 23.6408 26.881 23.3997 27.2297C23.1603 27.5769 23.3338 28.1153 23.7903 28.4303C24.2467 28.7469 24.8124 28.7212 25.0535 28.374Z" fill="#543247"/>
<path d="M28.2212 33.107C29.5117 32.4754 30.693 31.8422 31.249 31.9965C31.8035 32.1508 31.5608 33.1761 30.9517 34.3269C30.3426 35.4776 30.5178 34.9665 29.1083 34.5904C27.6989 34.2144 27.2328 33.5908 28.2212 33.107Z" fill="#C74153"/>
<path d="M28.758 32.8965L27.768 33.5941C27.8081 34.0023 28.3819 34.4137 29.1083 34.5905C29.8347 34.7673 30.6688 34.838 30.9517 34.3269L31.212 33.7724C30.8504 33.4703 29.8508 32.7342 28.758 32.8965Z" fill="#A82C3C"/>
<path d="M30.7139 31.9918C29.8524 32.2891 29.0184 32.6619 28.2228 33.1055C27.6635 33.3803 27.7037 33.6793 27.9592 33.9814L30.9228 32.6362C31.0948 32.551 30.8842 32.2296 30.7139 31.9918Z" fill="white"/>
<path d="M34.4489 27.9771C34.4697 27.9128 34.428 27.8276 34.4505 27.7633C34.399 27.3294 34.2142 26.9212 33.9217 26.5965C33.6292 26.2735 33.2435 26.0469 32.816 25.9521C32.9205 26.0437 33.0008 26.1594 33.0538 26.288C33.1053 26.4165 33.1278 26.5547 33.1181 26.693C33.1101 26.8312 33.0683 26.9646 32.9992 27.0851C32.9301 27.2056 32.8337 27.3085 32.7196 27.3857C32.3065 27.6219 31.8437 27.7585 31.368 27.781C30.7492 27.8501 30.153 28.0542 29.621 28.3788C29.089 28.7051 28.6358 29.1422 28.2919 29.6613C26.1094 29.5569 25.3492 30.9423 23.8015 31.7008C23.3853 31.9162 22.9353 32.064 22.4708 32.1395C20.9488 32.4047 20.6981 31.7828 20.6612 30.9471C18.9817 32.3035 20.036 34.2385 21.3378 34.719C22.1044 35.0903 23.133 34.9054 24.2114 34.0585C26.8808 34.7222 27.8258 34.3655 29.3655 31.8535C31.908 32.4723 33.5424 31.4581 33.6678 29.1053C33.8815 28.9976 34.0648 28.8369 34.2014 28.6408C34.338 28.4432 34.4231 28.2149 34.4489 27.9771Z" fill="#6B3143"/>
<path d="M29.3654 31.8536C31.9079 32.4723 33.5424 31.4582 33.6693 29.1053C33.8831 28.9976 34.0663 28.837 34.2013 28.6409C34.3379 28.4432 34.4231 28.215 34.4488 27.9771C34.4697 27.9128 34.4279 27.8276 34.4504 27.7634C34.407 27.5416 34.3363 27.3246 34.2415 27.1189C34.2704 27.4741 34.1675 27.8277 33.9522 28.1105C33.7368 28.3934 33.4234 28.5862 33.0731 28.6505C32.3097 30.3573 30.7668 30.6868 28.9925 30.33C28.9925 30.33 27.0013 33.1184 24.245 32.4964C22.3052 34.0859 20.232 33.8753 19.7948 32.3309C19.7547 32.8436 19.8832 33.3546 20.1629 33.7853C20.4409 34.2177 20.8539 34.5455 21.3377 34.7191C22.1043 35.0903 23.1345 34.9055 24.2113 34.0585C26.8807 34.7223 27.8257 34.3655 29.3654 31.8536Z" fill="#5E2737"/>
</g>
<defs>
<linearGradient id="paint0_linear_85_2776" x1="16.084" y1="4.47745" x2="18.0769" y2="27.8228" gradientUnits="userSpaceOnUse">
<stop stop-color="#FFC285"/>
<stop offset="1" stop-color="#DB8D6B"/>
</linearGradient>
<linearGradient id="paint1_linear_85_2776" x1="-3.56014" y1="28.3757" x2="38.5197" y2="7.76406" gradientUnits="userSpaceOnUse">
<stop stop-color="#D67569"/>
<stop offset="1" stop-color="#E39E7F"/>
</linearGradient>
<clipPath id="clip0_85_2776">
<rect width="45" height="45" rx="22.5" fill="white"/>
</clipPath>
</defs>
</svg>
