<svg width="45" height="45" viewBox="0 0 45 45" fill="none" xmlns="http://www.w3.org/2000/svg">
<g clip-path="url(#clip0_85_2713)">
<rect width="45" height="45" rx="22.5" fill="#3895F2"/>
<path d="M19.6552 14.1069C19.6764 12.8481 19.7852 11.5923 19.9802 10.3486C20.1193 9.97737 20.3976 9.65252 21.3251 10.7662C22.2525 11.8797 23.8291 14.2461 23.8291 14.2461L19.6552 14.1069Z" fill="#FF8C19"/>
<path d="M28.328 14.4317C30.322 11.6941 31.8993 10.5341 32.6876 10.5805C33.4759 10.6269 33.3834 11.4621 32.6876 16.5197C31.9918 21.5772 28.328 14.4317 28.328 14.4317V14.4317Z" fill="#FF8C19"/>
<path d="M20.1193 56.0985L14.4148 45.0094C11.5392 43.8955 8.29278 43.7097 7.59702 46.7259C6.90197 49.742 8.15362 51.9225 10.7509 57.0266C8.57108 57.9548 7.17957 58.2797 5.83466 59.7645C4.48976 61.2492 3.37725 63.1048 4.39723 63.8938C5.41791 64.6828 6.29874 64.2188 6.9945 63.5689C7.69026 62.9191 8.57108 61.9916 9.45261 61.6201C10.3334 61.2492 13.4407 60.1353 14.7856 59.4855C17.2904 58.2797 19.9335 57.0733 20.1193 56.0985V56.0985Z" fill="#FF8C19"/>
<path d="M13.3017 37.724C12.2351 40.5544 10.8902 45.0093 12.1426 50.0202C13.07 53.8247 16.7339 58.4647 23.7833 58.4647C30.832 58.4647 35.9341 53.8713 35.2383 48.6746C34.9134 46.54 33.1976 43.478 31.3886 42.0391C32.0844 40.6935 33.7542 37.5848 34.2642 36.0542C34.7742 34.5228 35.47 32.9448 33.2443 30.1611C26.844 22.1804 18.6354 24.4076 16.7798 25.8924C14.9249 27.3771 14.2291 29.6508 13.6266 33.1772C13.3985 34.6817 13.2904 36.2025 13.3017 37.724Z" fill="white"/>
<path d="M16.2696 33.363C15.607 31.8465 15.3824 30.1749 15.6204 28.5373H14.7856C14.2402 30.0239 13.8517 31.5632 13.6264 33.1306C13.3983 34.6359 13.2895 36.1559 13.3015 37.6781C11.8174 41.39 11.4466 44.3129 11.3074 49.9737L10.2408 53.8247L15.4347 55.4027C14.823 54.7762 14.2925 54.0748 13.8581 53.3147C11.6324 48.2572 12.6057 42.1324 16.2696 33.363V33.363Z" fill="#FF8C19"/>
<path d="M35.2382 48.6746C34.9132 46.54 33.1975 43.4779 31.3885 42.0391C32.0843 40.6935 33.7541 37.5848 34.2641 36.0541C34.7741 34.5228 35.4699 32.9448 33.2441 30.1611C32.732 29.5037 32.1571 28.8976 31.5277 28.3515L28.6528 26.6811C30.8785 30.0219 29.0696 32.1565 26.7972 34.1978C29.3945 37.5389 29.7653 45.4727 29.8119 51.8758L29.487 57.3048C33.3367 55.6343 35.7015 52.294 35.2382 48.6746V48.6746Z" fill="#FF8C19"/>
<path d="M35.0989 51.2267C34.5423 53.6397 32.6874 55.7276 30.0435 57.0732C28.652 59.8104 27.632 60.4136 25.6839 59.9961C25.2092 59.9086 24.7578 59.7228 24.3587 59.4515C23.9596 59.1796 23.6213 58.8278 23.3656 58.4189C22.626 57.2294 22.0045 55.9706 21.51 54.6603C19.9334 50.8552 17.7536 48.953 18.7277 47.4216C19.7017 45.8909 21.3708 46.4009 22.2058 47.6074C23.2427 49.2553 24.1871 50.959 25.0347 52.7115C24.7105 46.865 25.7771 44.1738 28.2352 44.267C30.6926 44.3596 33.939 46.2151 35.0989 51.2267V51.2267Z" fill="#FF8C19"/>
<path d="M32.2233 33.1773C28.8843 31.9708 27.3536 31.5068 25.4055 34.1514L22.484 38.049C21.51 39.3946 21.2783 40.6936 22.484 41.2969C23.6898 41.9001 25.1279 40.5545 25.9162 39.7196C26.7045 38.8847 30.0901 35.497 32.2233 35.4511H34.4956C34.9597 34.1055 35.1447 32.5741 33.2432 30.1613L32.9649 29.8364L31.3883 29.6973L32.2233 33.1773Z" fill="#FF8C19"/>
<path d="M33.4756 34.1053C33.4219 34.6711 33.3131 35.2306 33.1507 35.7759L32.7332 35.636C32.9253 35.131 33.0348 34.5984 33.0581 34.0587C33.0581 33.9662 33.1973 33.873 33.2898 33.873C33.3824 33.873 33.4756 34.0121 33.4756 34.1053V34.1053Z" fill="black"/>
<path d="M34.5886 32.5739C34.7278 33.0379 34.4495 33.9195 32.2238 33.1771L31.3888 32.8988C28.9773 32.0173 27.5858 31.7849 26.0559 33.3629C17.5224 34.1978 16.3626 30.9033 14.3685 30.9033H14.0902C14.6002 28.6763 15.3426 27.0987 16.78 25.8923C18.2181 24.6859 26.8442 22.1803 33.2437 30.1611L33.522 30.4859C33.5722 30.6113 33.652 30.7227 33.7544 30.8108C33.806 30.9245 33.8682 31.0333 33.9395 31.1357C34.121 31.4147 34.2757 31.71 34.4036 32.0173L34.5427 32.2956C34.5427 32.3881 34.5886 32.4813 34.5886 32.5739V32.5739Z" fill="black"/>
<path d="M11.8639 25.7996L17.6143 26.4956L28.6518 26.6812L35.5621 30.5787L37.8811 21.8093L30.8316 13.6429L20.8141 13.2717L13.3479 12.7149L12.6522 20.6029L11.8639 25.7996Z" fill="#FFD73B"/>
<path d="M28.6519 26.6812L30.0901 20.7884L30.8318 13.6429L37.8812 21.8093L35.5622 30.5788L28.6519 26.6812Z" fill="#FFB619"/>
<path d="M11.8644 25.7996L7.92226 28.4444L8.24647 29.2332L16.27 30.5787H24.8494L28.5599 27.5628L30.0439 31.0426L36.4442 33.6413L36.9542 33.363L35.5627 30.5787L33.6152 30.6251L28.6524 26.6812L15.1568 28.5371L11.8644 25.7996Z" fill="#FFD73B"/>
<path d="M11.8644 25.7996L7.92226 28.4444L16.5016 29.8827H24.5718L28.6524 26.6812L17.6149 26.4956L11.8644 25.7996Z" fill="#FFF2A6"/>
<path d="M35.5622 30.5787L28.6519 26.6811L30.6001 30.5787L36.9537 33.3629L35.5622 30.5787Z" fill="#FFB619"/>
<path d="M26.7046 21.7628C26.0795 22.7904 25.0828 23.5379 23.9215 23.8508C23.5443 23.9686 23.1396 23.9686 22.7624 23.8508C22.7158 23.8044 22.7158 23.758 22.7158 23.6652C22.477 22.6448 22.5583 21.5756 22.9482 20.6029C23.4582 19.4892 25.128 18.1437 26.2871 18.0973H26.7046L26.8437 18.5149C27.0288 19.2573 27.2612 20.7884 26.7046 21.7628V21.7628Z" fill="black"/>
<path d="M26.7046 18.1437H26.2871C25.128 18.1901 23.4582 19.5357 22.9482 20.6493C22.5583 21.6221 22.4771 22.6913 22.7158 23.7117C22.7158 23.8044 22.7158 23.8508 22.7624 23.8972C22.5993 23.8396 22.4587 23.7327 22.3591 23.5915C22.2588 23.4502 22.2058 23.2814 22.2058 23.1085C21.9671 22.0881 22.0483 21.0188 22.4382 20.0461C22.9482 18.9325 24.6173 17.5869 25.7771 17.5405C25.9784 17.5104 26.184 17.5552 26.355 17.6663C26.5259 17.7774 26.6502 17.9472 26.7046 18.1437V18.1437Z" fill="#FFB012"/>
<path d="M18.5883 22.0877C18.3566 22.7836 18.1708 23.3869 17.7534 23.4797C17.3359 23.5725 16.5476 22.7373 15.991 21.8557C15.5276 20.9277 15.481 19.7213 15.6668 18.3757C15.8519 17.0301 16.6868 16.3805 17.29 17.2621C17.7675 18.0891 18.2012 18.9409 18.5883 19.8141C18.796 20.5577 18.796 21.3441 18.5883 22.0877Z" fill="black"/>
<path d="M17.2904 17.2622C16.6872 16.3806 15.8989 16.8446 15.6672 18.3757C15.4348 19.907 15.5281 20.9277 15.9914 21.8557C15.9144 21.7743 15.8516 21.6801 15.8064 21.5773C15.1565 20.6029 15.0181 19.2109 15.2498 17.6798C15.4815 16.1486 16.2238 15.5454 16.8264 16.4734L17.2904 17.2622Z" fill="#FFB012"/>
<path d="M15.992 21.8558C15.9454 21.8093 15.9454 21.7627 15.8988 21.7627C15.8521 21.7627 15.9454 21.8093 15.992 21.8558Z" fill="#FFB012"/>
<path d="M14.2288 33.363C13.1622 32.0633 11.9564 29.6508 11.2148 27.3772C10.4724 25.1036 9.63747 24.6396 8.66411 24.5468C8.41971 24.5201 8.17179 24.5463 7.93869 24.6235C7.70559 24.7007 7.49086 24.8271 7.31074 24.9943C7.13061 25.1615 6.98864 25.3655 6.89399 25.5925C6.79934 25.8195 6.75413 26.0642 6.7626 26.31C6.7626 28.2588 7.64342 30.486 8.84917 33.873C10.0549 37.2607 10.5649 38.003 13.3013 37.724C15.2495 37.539 15.2495 34.6154 14.2288 33.363Z" fill="#FF8C19"/>
<path d="M9.86993 26.3565C9.85651 26.2422 9.81767 26.1325 9.7548 26.036C9.69264 25.9396 9.60859 25.8589 9.5097 25.8004C9.41081 25.7419 9.29991 25.7072 9.18548 25.699C9.07034 25.6909 8.9559 25.7094 8.84924 25.7532C8.79627 25.6221 8.70727 25.5088 8.59213 25.4265C8.477 25.3443 8.34138 25.2967 8.20011 25.2893C7.82927 25.2893 7.6435 25.5677 7.69012 25.9389C7.73603 26.31 6.8552 25.9853 7.04097 26.8669C7.17518 27.4448 7.41111 27.9946 7.73603 28.4908C7.88508 28.7405 8.10828 28.9375 8.37387 29.054C8.64017 29.1705 8.93613 29.2007 9.22009 29.1404C9.46095 29.0659 9.66792 28.9085 9.80354 28.6962C9.93916 28.4839 9.99566 28.2303 9.96246 27.9804C10.0218 27.4377 9.99072 26.8889 9.86993 26.3565V26.3565Z" fill="white"/>
<path d="M26.7045 21.7627C26.4954 22.1544 26.2122 22.5012 25.8696 22.7835C26.0095 22.5601 26.0893 22.3044 26.1013 22.0411C26.2871 20.974 25.823 20.1388 25.0813 20.1852C24.3389 20.2316 23.5973 21.0668 23.4115 22.0875C23.2257 23.1084 23.5506 23.5723 24.0147 23.8043H23.9215L23.319 23.8971C22.9425 23.3222 22.809 22.6215 22.9474 21.9483C23.1332 20.6028 24.1072 19.4428 25.1738 19.4428C26.2404 19.4428 26.7971 20.4635 26.7045 21.7627V21.7627Z" fill="#57F287"/>
<path d="M18.5885 19.814L18.3568 19.3036C18.1428 19.1873 17.9041 19.1236 17.6611 19.118C16.7336 19.118 15.9912 20.1388 15.9912 21.3916C15.9835 21.5783 15.9997 21.7654 16.0379 21.9483C16.5945 22.8299 17.1504 23.6187 17.7536 23.4796C18.3568 23.3404 18.3568 22.7835 18.5885 22.0876C18.7962 21.344 18.7962 20.5576 18.5885 19.814V19.814Z" fill="#57F287"/>
<path d="M18.5884 22.0876C18.7368 21.5119 18.7679 20.9124 18.681 20.3244C18.5899 20.1573 18.4563 20.0175 18.2932 19.9196C18.13 19.8217 17.9436 19.7692 17.7535 19.7676C17.0578 19.7676 16.5012 20.6028 16.5012 21.67C16.4694 22.2268 16.6523 22.7748 17.0119 23.2011C17.1023 23.3055 17.2181 23.3855 17.3474 23.4341C17.4766 23.4827 17.6165 23.4983 17.7535 23.4796C18.171 23.3868 18.3568 22.7835 18.5884 22.0876V22.0876Z" fill="black"/>
<path d="M13.9046 32.6206L14.832 34.0121" stroke="black" stroke-width="0.902235" stroke-miterlimit="10" stroke-linecap="round"/>
<path d="M9.44004 26.9451C9.60745 26.8796 9.66678 26.6331 9.57354 26.3945C9.47959 26.156 9.2691 26.0156 9.10169 26.081C8.93499 26.1465 8.87566 26.393 8.96889 26.6316C9.06213 26.8702 9.27334 27.0105 9.44004 26.9451Z" fill="#FF78B9"/>
<path d="M8.3578 26.6176C8.5252 26.5521 8.58455 26.3057 8.49131 26.0671C8.39736 25.8285 8.18687 25.6881 8.01946 25.7536C7.85276 25.8191 7.79343 26.0655 7.88666 26.3041C7.9799 26.5427 8.1911 26.6831 8.3578 26.6176Z" fill="#FF78B9"/>
<path d="M7.695 27.1841C7.83839 27.1281 7.88572 26.9085 7.80166 26.6938C7.71761 26.4791 7.53325 26.3504 7.39057 26.4066C7.24717 26.4627 7.19914 26.6822 7.2839 26.8969C7.36796 27.1117 7.55161 27.2403 7.695 27.1841Z" fill="#FF78B9"/>
<path d="M8.0609 27.0989C7.87512 27.6093 7.87513 27.9341 8.15344 28.0269C8.33497 28.1043 8.53345 28.1323 8.72911 28.1079C8.92406 28.0833 9.10984 28.0074 9.26665 27.8877C9.59086 27.6557 9.45172 27.4237 9.1275 27.1917C8.80258 26.9597 8.24596 26.5885 8.0609 27.0989Z" fill="#FF78B9"/>
<path d="M7.96829 45.7517C8.61743 44.6844 10.5189 45.5193 11.6781 45.8442C12.8379 46.1692 12.2813 45.241 10.9823 44.267C9.63741 44.2203 8.57081 44.6378 7.96829 45.7517Z" fill="#ED5F00"/>
<path d="M33.8001 17.03L33.3826 20.51L35.2842 22.3196L35.655 19.2108L33.8001 17.03Z" fill="white"/>
<path d="M17.1513 20.6956C17.407 20.6956 17.6147 20.4879 17.6147 20.2316C17.6147 19.9753 17.407 19.7676 17.1513 19.7676C16.8949 19.7676 16.6872 19.9753 16.6872 20.2316C16.6872 20.4879 16.8949 20.6956 17.1513 20.6956Z" fill="white"/>
<path d="M24.0609 21.3451C24.3173 21.3451 24.5249 21.1374 24.5249 20.8811C24.5249 20.6249 24.3173 20.4171 24.0609 20.4171C23.8052 20.4171 23.5975 20.6249 23.5975 20.8811C23.5975 21.1374 23.8052 21.3451 24.0609 21.3451Z" fill="white"/>
<path d="M24.2008 35.7752C24.8499 34.8936 27.354 34.7545 28.2355 35.2652C29.1163 35.7752 28.6989 35.1727 28.328 34.8477C27.9572 34.5228 26.1482 33.1772 24.7108 35.0794L24.2008 35.7752Z" fill="#ED5F00"/>
<path d="M28.6519 32.2024C29.8584 32.249 30.4143 33.1306 30.7392 33.7804C31.0642 34.4303 31.2033 33.5946 30.8784 32.7131C30.1586 32.4581 29.4113 32.2865 28.6519 32.2024Z" fill="#ED5F00"/>
<path d="M11.6326 35.0795C10.1944 35.1727 9.31361 35.1727 9.03531 34.4303C9.29878 35.1678 9.62442 35.8819 10.0094 36.5642C12.3743 35.9151 13.1166 35.0328 11.6326 35.0795Z" fill="#ED5F00"/>
</g>
<defs>
<clipPath id="clip0_85_2713">
<rect width="45" height="45" rx="22.5" fill="white"/>
</clipPath>
</defs>
</svg>
