<svg width="45" height="45" viewBox="0 0 45 45" fill="none" xmlns="http://www.w3.org/2000/svg">
<g clip-path="url(#clip0_85_2662)">
<rect width="45" height="45" rx="22.5" fill="#FFC619"/>
<path d="M49.2673 65.0374C50.2969 61.387 50.0629 56.8006 43.2301 55.1626C44.0257 45.3813 43.9321 43.3689 36.1633 37.8933C34.9816 37.056 34.0896 35.872 33.6117 34.505C33.1334 33.1379 33.0932 31.6558 33.4957 30.2649C34.1303 28.1593 34.5538 25.9958 34.7593 23.8064C34.9226 22.0477 34.7158 20.2735 34.1513 18.5995C33.5869 16.9254 32.6781 15.3885 31.4828 14.0875C30.288 12.7864 28.8334 11.7507 27.2127 11.0469C25.5925 10.3425 23.8427 9.98636 22.0764 10.0004C18.807 10.0271 15.6536 11.2125 13.1764 13.3466C10.6998 15.4807 9.06084 18.4244 8.55119 21.6536C7.92734 25.7224 8.11829 29.8741 9.11279 33.8685C4.47958 33.2601 2.74797 37.4721 4.80717 41.0289C-1.18324 44.0709 -3.10205 44.8665 -1.93204 59.4682L-2.82124 59.6554C-3.48955 59.7939 -4.11621 60.0859 -4.65207 60.5085C-5.18794 60.9311 -5.61803 61.4721 -5.90866 62.0899C-6.19929 62.7072 -6.34203 63.3835 -6.32611 64.0658C-6.3102 64.7482 -6.13563 65.4169 -5.81645 66.0202L-5.53566 66.535L-8.43726 68.0326C-8.60574 68.1126 -8.74755 68.2385 -8.84724 68.3958C-8.94645 68.553 -8.99934 68.7355 -8.99887 68.9218C-9.00542 69.0608 -8.98343 69.1998 -8.93429 69.3304C-8.88561 69.4605 -8.81073 69.5798 -8.71432 69.6804C-8.61838 69.781 -8.50278 69.8611 -8.37455 69.9158C-8.24632 69.9701 -8.10873 69.9982 -7.96926 69.9982H49.3141C49.7349 69.9926 50.1444 69.8611 50.4902 69.6205C50.8356 69.38 51.1009 69.0411 51.2521 68.6485C51.4033 68.2554 51.4332 67.8262 51.3378 67.4162C51.2428 67.0063 51.0265 66.6342 50.7181 66.3478L49.2673 65.0374Z" fill="#3DDB7F"/>
<path d="M29.9389 23.5725C30.4537 23.0109 31.5301 22.0749 31.5301 22.0749" stroke="#19B375" stroke-width="2" stroke-linecap="round" stroke-linejoin="round"/>
<path d="M15.3842 21.6068C16.0858 21.6115 16.7723 21.8113 17.3671 22.1829C17.962 22.555 18.4421 23.0843 18.7538 23.7128" stroke="#19B375" stroke-width="2" stroke-linecap="round" stroke-linejoin="round"/>
<path d="M24.416 19.9221C24.8204 18.8616 24.9711 17.7211 24.8574 16.5922C24.7436 15.463 24.3683 14.3758 23.7608 13.4169" stroke="#19B375" stroke-width="2" stroke-linecap="round" stroke-linejoin="round"/>
<path d="M37.3327 42.0585C39.6259 45.7089 39.0643 49.0785 38.2687 54.8817C37.4731 60.6849 36.2564 54.0393 35.4139 48.4233C34.5715 42.8073 35.4139 39.0165 37.3327 42.0585Z" fill="black"/>
<path d="M12.8099 42.0585C9.95509 42.7137 10.2359 43.8837 10.0955 51.793C9.95509 59.7022 13.2311 50.9038 13.5119 47.7682C13.7038 45.8362 13.4637 43.8861 12.8099 42.0585Z" fill="black"/>
<path d="M28.0665 46.4577C27.7857 43.5093 27.2709 39.3441 24.5565 36.8169C24.5565 40.1865 23.2929 45.8961 23.2929 45.8961" stroke="black" stroke-linecap="round" stroke-linejoin="round"/>
<path d="M13.4181 48.9848L14.1669 48.8444L20.0637 46.598L23.6205 43.088L21.6549 41.0288C19.9701 39.2972 19.0809 39.6716 17.5365 40.3736C16.0455 41.1491 14.4552 41.7158 12.8097 42.0584C12.4835 42.1183 12.1783 42.262 11.9238 42.4754C11.6696 42.6888 11.4749 42.9645 11.3589 43.2752C11.0654 44.0811 10.947 44.9404 11.0116 45.7959C11.0762 46.6514 11.3224 47.483 11.7333 48.236C11.8966 48.5253 12.1484 48.7546 12.4517 48.8894C12.7554 49.0241 13.0942 49.0578 13.4181 48.9848Z" fill="#3091F0"/>
<path d="M20.0641 44.1178L19.4557 42.2458" stroke="black" stroke-linecap="round" stroke-linejoin="round"/>
<path d="M34.5716 41.4501H23.5268C22.9184 41.4459 22.3166 41.5783 21.7657 41.8376C21.2149 42.0969 20.7291 42.4759 20.3444 42.9477L16.9748 47.0193C16.5952 47.4602 16.3823 48.0204 16.3739 48.6021C16.3654 49.1838 16.5616 49.7501 16.928 50.2017C17.3408 50.7034 17.9304 51.0273 18.5754 51.1059C19.2203 51.1841 19.8708 51.0114 20.3912 50.6229L23.1992 48.5169H31.436L31.904 49.6401C32.0725 50.0763 32.3674 50.4521 32.7511 50.7189C33.1349 50.9856 33.5898 51.1316 34.0568 51.1377C34.6774 51.1377 35.2727 50.8911 35.7117 50.4526C36.1507 50.0136 36.3968 49.4183 36.3968 48.7977V43.2753C36.3968 42.7914 36.2045 42.3271 35.8624 41.9846C35.5203 41.6424 35.056 41.4501 34.5716 41.4501Z" fill="white"/>
<path d="M14.9161 42.7137L19.0813 42.9009C19.0813 42.9009 19.7833 45.3813 20.0641 46.0365C20.7114 46.2906 21.3872 46.4633 22.0765 46.5513C22.3583 46.6135 22.6236 46.7329 22.8571 46.9018C23.0907 47.0708 23.2868 47.286 23.4337 47.5341C23.5531 47.7353 23.6326 47.9581 23.6677 48.1893C23.6827 48.3938 23.6523 48.5993 23.5793 48.7907C23.5063 48.9821 23.3921 49.1557 23.2447 49.2985C23.0977 49.4412 22.9208 49.5498 22.7271 49.6167C22.5333 49.6841 22.3274 49.708 22.1233 49.6869C19.7833 49.4997 17.9581 49.2657 16.9753 47.0193C17.7283 48.5702 18.158 50.2579 18.2389 51.9801C18.2516 52.1622 18.2277 52.3451 18.1678 52.5174C18.1083 52.6901 18.0147 52.8487 17.8921 52.984C17.77 53.1197 17.6216 53.2287 17.4559 53.3055C17.2903 53.3827 17.111 53.4253 16.9285 53.4309C16.7502 53.4435 16.5714 53.4211 16.4015 53.3645C16.2321 53.3078 16.0753 53.218 15.9406 53.1005C15.8058 52.983 15.6953 52.8403 15.6162 52.6802C15.5367 52.5202 15.4899 52.3456 15.4777 52.1673C15.3958 50.5068 14.6947 48.9372 13.5121 47.7681C12.1549 46.1769 13.4653 42.6201 14.9161 42.7137Z" fill="#3091F0"/>
<path d="M35.3678 52.8693C35.1661 52.9797 34.9423 53.0439 34.7126 53.0565C34.5558 53.0546 34.4023 53.0158 34.2637 52.9423C34.1252 52.8693 34.0064 52.764 33.917 52.6353C33.7372 52.4303 33.6464 52.1626 33.6638 51.8907C33.6816 51.6188 33.806 51.3647 34.0106 51.1845H34.0574C34.3634 51.1826 34.6662 51.1199 34.9475 50.9992C35.2288 50.8784 35.4829 50.7029 35.6954 50.4825C36.0267 50.1867 36.256 49.7936 36.3506 49.3593H33.4022C31.7642 49.3593 31.6705 48.5169 32.3725 47.8149C33.0746 47.1129 33.4958 46.7853 34.1042 46.7853H36.3974V43.3221C36.3974 42.8381 36.205 42.3739 35.8629 42.0313C35.5203 41.6892 35.0561 41.4969 34.5722 41.4969H31.5302C31.7642 41.0757 32.045 40.5608 32.3258 39.9524C32.6066 39.344 33.0278 38.8292 33.8234 38.8292C34.1121 38.8077 34.4018 38.8611 34.6644 38.9837C34.9264 39.1068 35.153 39.2954 35.321 39.5312C35.6706 40.0802 36.1535 40.5309 36.725 40.8416C37.9418 41.5436 37.9886 42.152 38.363 43.6497C38.7374 45.1473 38.831 45.8025 39.065 46.6449C39.9074 50.1081 38.4098 50.6697 35.3678 52.8693Z" fill="#3091F0"/>
<path d="M28.4412 44.2114H30.594C31.0044 44.2095 31.4093 44.1113 31.7752 43.9245C32.1407 43.7373 32.4576 43.4668 32.7 43.135C32.7295 43.1088 32.7506 43.0742 32.7595 43.0353C32.7683 42.9969 32.7646 42.9567 32.7492 42.9202C32.7332 42.8837 32.7066 42.8533 32.6724 42.8327C32.6382 42.8125 32.5989 42.8037 32.5596 42.8074H26.6628C26.5991 42.7995 26.5355 42.813 26.4807 42.8463C26.4265 42.8795 26.3848 42.93 26.3633 42.9899C26.3413 43.0498 26.3408 43.1153 26.3609 43.1757C26.3815 43.2361 26.4218 43.2876 26.4756 43.3222L26.7559 43.5562C27.2178 43.9751 27.8178 44.2081 28.4412 44.2114Z" fill="#3442D9"/>
<path d="M23.246 44.5856C23.246 45.0508 23.6232 45.428 24.0884 45.428C24.5541 45.428 24.9308 45.0508 24.9308 44.5856V43.6309C24.9308 43.1657 24.5541 42.7885 24.0884 42.7885C23.6232 42.7885 23.246 43.1657 23.246 43.6309V44.5856Z" fill="#FFE75C"/>
<path d="M33.683 44.5856C33.683 45.0508 34.0602 45.428 34.5254 45.428C34.9906 45.428 35.3679 45.0508 35.3679 44.5856V43.6309C35.3679 43.1657 34.9906 42.7885 34.5254 42.7885C34.0602 42.7885 33.683 43.1657 33.683 43.6309V44.5856Z" fill="#FFE75C"/>
<path d="M20.064 19.3606C16.4136 21.9346 15.8052 27.1294 18.8472 30.265L24.51 36.0214L29.4241 28.627C30.2496 27.4004 30.6549 25.9388 30.5786 24.4618C30.5028 22.9852 29.9501 21.5728 29.0029 20.437C27.9199 19.1687 26.3994 18.3539 24.7436 18.1545C23.0878 17.9552 21.4175 18.3857 20.064 19.3606Z" fill="#3091F0"/>
<path d="M27.0837 23.0107H21.0933C19.8526 23.0107 18.8469 24.0155 18.8469 25.2548C18.8469 26.4941 19.8526 27.4989 21.0933 27.4989H27.0837C28.3244 27.4989 29.3301 26.4941 29.3301 25.2548C29.3301 24.0155 28.3244 23.0107 27.0837 23.0107Z" fill="#3442D9"/>
<path d="M21.0938 24.6489L21.983 25.4445" stroke="black" stroke-linecap="round" stroke-linejoin="round"/>
<path d="M26.9437 25.4445L27.5053 24.6489" stroke="black" stroke-linecap="round" stroke-linejoin="round"/>
<path d="M24.5571 36.8168C27.2247 33.962 28.9095 33.9152 28.3947 36.8168C27.8799 39.7184 27.1311 38.2676 24.5571 36.8168Z" stroke="black" stroke-linecap="round" stroke-linejoin="round"/>
<path d="M24.557 36.817C21.2342 34.711 18.707 34.1962 20.0642 36.817C21.4214 39.4378 21.7958 39.6718 24.557 36.817Z" stroke="black" stroke-linecap="round" stroke-linejoin="round"/>
<path d="M9.11292 33.8217C10.7608 34.1161 12.307 34.8246 13.6057 35.8809C13.6933 35.9665 13.8107 36.0147 13.9333 36.0147C14.0559 36.0147 14.1734 35.9665 14.2609 35.8809C14.3082 35.8336 14.3442 35.777 14.3676 35.7147C14.391 35.6525 14.4009 35.5856 14.3967 35.5191C14.392 35.4527 14.3737 35.3881 14.3424 35.3296C14.3105 35.2706 14.267 35.2196 14.2141 35.1789C12.7114 33.9176 10.874 33.1206 8.92572 32.8857C8.96129 33.2025 9.02353 33.5156 9.11292 33.8217Z" fill="#19B375"/>
<path d="M24.4165 31.5754C25.9932 31.5754 27.2713 30.4437 27.2713 29.0481C27.2713 27.6526 25.9932 26.5209 24.4165 26.5209C22.8398 26.5209 21.5617 27.6526 21.5617 29.0481C21.5617 30.4437 22.8398 31.5754 24.4165 31.5754Z" fill="#3442D9"/>
<path d="M25.3052 28.7672C25.1648 29.2235 24.8507 29.6068 24.4305 29.8342C24.0107 30.0617 23.5183 30.1155 23.0587 29.984" stroke="black" stroke-linecap="round" stroke-linejoin="round"/>
</g>
<defs>
<clipPath id="clip0_85_2662">
<rect width="45" height="45" rx="22.5" fill="white"/>
</clipPath>
</defs>
</svg>
