<svg width="45" height="45" viewBox="0 0 45 45" fill="none" xmlns="http://www.w3.org/2000/svg">
<g clip-path="url(#clip0_85_2623)">
<rect width="45" height="45" rx="22.5" fill="#FFE75C"/>
<path d="M37.5104 42.1218C37.5127 42.8133 37.6031 43.5016 37.7791 44.1701C34.6542 47.0589 30.7813 49.0004 26.6071 49.7706C22.4287 50.5433 18.1184 50.1152 14.1707 48.5357C13.384 46.0568 12.9431 43.4801 12.8607 40.8793C10.2417 41.45 7.89086 42.0211 5.40545 42.2558C4.41306 42.364 3.41507 42.4198 2.41663 42.424L3.9278 40.342L10.2752 31.6446H35.5629L37.9137 39.7038C37.6443 40.4809 37.5079 41.2984 37.5104 42.1213V42.1218Z" fill="white"/>
<path d="M12.8608 35.7749C12.8608 35.7749 12.0216 38.898 11.1484 41.2485L12.8608 40.8793C12.7602 38.6633 12.8608 35.7749 12.8608 35.7749V35.7749Z" fill="black"/>
<path d="M19.3088 43.4317C19.3088 43.9349 19.6446 44.4053 20.0478 44.439C20.4507 44.4723 20.7864 44.0361 20.7194 43.4983C20.6972 43.2918 20.6052 43.0992 20.4586 42.9529C20.3116 42.8061 20.1192 42.7142 19.9133 42.6924C19.7806 42.7051 19.6546 42.7572 19.5514 42.842C19.4481 42.9268 19.3723 43.0406 19.3335 43.1689C19.3079 43.2538 19.2995 43.343 19.3088 43.4313V43.4317ZM32.406 44.3378C32.1708 43.1628 31.9356 42.0881 31.7009 40.9801C31.6781 40.8608 31.616 40.7528 31.5245 40.6735C31.433 40.5943 31.3176 40.5484 31.197 40.5434C29.182 40.5097 26.3948 40.1068 25.2864 37.3529C25.2715 37.3106 25.2483 37.2718 25.2181 37.2388C25.1879 37.2058 25.1515 37.1793 25.1109 37.1608C25.0702 37.142 25.0262 37.1315 24.9814 37.1299C24.9366 37.1282 24.892 37.1356 24.8501 37.1514C24.7707 37.1874 24.7085 37.2534 24.6771 37.3351C24.6456 37.4168 24.6474 37.5077 24.682 37.5881C26.059 41.0133 29.7194 41.1815 31.0629 41.2152C31.2976 42.2895 31.4993 43.3306 31.7344 44.4723C31.9696 45.6141 32.1708 46.6888 32.406 47.8306L33.044 47.5284C32.8088 46.4199 32.6076 45.3789 32.406 44.3378V44.3378Z" fill="#8CD9FF"/>
<path d="M3.9278 40.342L2.41663 42.424C3.41554 42.4367 4.41445 42.3809 5.40545 42.2558C6.5138 42.1551 7.55509 41.9874 8.62945 41.7859C7.84108 40.0992 7.20065 38.3464 6.71545 36.5475L3.9278 40.342V40.342Z" fill="#0EC2BC"/>
<path d="M36.6372 5.45137L22.7675 1.8584L16.7228 17.574L34.2529 22.1077L36.6372 5.45137V5.45137Z" fill="white"/>
<path d="M36.6778 5.38345C37.2436 3.09714 34.5789 0.471162 30.7262 -0.482248C26.8735 -1.43613 23.2914 -0.355751 22.7256 1.93103C22.1598 4.21734 24.824 6.84378 28.6771 7.79719C32.5298 8.7506 36.1119 7.67022 36.6778 5.38345Z" fill="white"/>
<path d="M24.5474 2.32878L19.7787 15.6264L19.1071 15.4249L23.8758 2.16058L24.7155 -0.189913L25.5551 -0.525832L24.5474 2.32878V2.32878ZM35.9317 2.63096L35.5289 5.18291L33.2116 19.1191L32.5065 18.9176L34.8574 5.01519L35.3612 1.95912C35.5689 2.16714 35.7599 2.39202 35.9317 2.63096V2.63096ZM23.7752 16.6674L23.1037 16.4659L27.1334 3.00014L28.2752 -0.828018H28.9803L27.8049 3.16834L23.7752 16.6674V16.6674ZM33.111 0.380727L32.2378 4.30962L29.2155 18.0781L28.5439 17.9099L31.5998 4.14189L32.473 0.112273L33.111 0.380727V0.380727Z" fill="#8CD9FF"/>
<path d="M19.4764 12.1341C18.0323 11.7982 16.3199 12.3693 15.3797 16.7349H22.4992C22.0624 14.1487 21.0886 12.4701 19.4764 12.1341Z" fill="#2AE5C4"/>
<path d="M18.8384 13.78C17.7301 13.6113 16.9915 14.4514 16.7228 15.9623H20.249C20.3161 14.8543 19.8122 13.8803 18.8384 13.7795V13.78Z" fill="black"/>
<path d="M19.0401 14.9887C17.3943 14.8206 16.2864 15.9286 15.9507 17.5744H20.4507C20.887 16.3657 20.5177 15.1227 19.0401 14.9883V14.9887ZM29.4506 11.765C27.8049 11.5635 26.025 12.9737 25.6222 16.0968L33.111 17.0033C32.7752 13.4773 31.3982 11.9997 29.4506 11.765V11.765Z" fill="#2AE5C4"/>
<path d="M28.9468 13.7463C27.8389 13.5781 27.1334 14.4847 26.8647 16.0968H30.3909C30.4244 14.9213 29.921 13.8807 28.9468 13.7463Z" fill="black"/>
<path d="M28.7116 14.9213C27.0328 14.7536 26.0585 15.8616 25.9579 17.6414L30.8612 17.5744C30.9618 16.2982 30.2228 15.0557 28.7116 14.9213Z" fill="#2AE5C4"/>
<path d="M22.4317 15.3579C16.2189 15.5931 12.7262 16.6341 10.2748 19.1191C9.31263 20.1262 8.63643 21.3744 8.31653 22.7336C7.99765 24.0915 8.04767 25.5107 8.46137 26.8424C10.0396 32.1483 14.439 37.7563 23.2043 38.1592C31.9691 38.5621 38.3836 33.223 39.9618 27.7157C41.5401 22.2084 37.1071 14.8206 22.4317 15.3579V15.3579Z" fill="#2AE5C4"/>
<path d="M21.7937 20.0594L14.439 19.7905C11.3831 26.238 11.8199 31.141 13.9691 35.0361C16.2864 36.7822 19.3088 37.9915 23.2043 38.1592C26.076 38.2988 28.9402 37.7582 31.5663 36.5808C33.3797 27.0776 32.0702 22.1414 30.9618 19.9919L21.7937 20.0594V20.0594Z" fill="#ADFDDC"/>
<path d="M30.1557 19.9582C23.1033 18.9509 20.9876 18.9177 14.439 19.7905C13.4988 24.7941 16.7228 27.8835 20.3496 28.2189C24.8496 28.6218 28.544 24.9956 30.1557 19.9582V19.9582Z" fill="#9E0960"/>
<path d="M15.5809 19.2531C15.2804 19.6913 14.8801 20.0508 14.4134 20.3016C13.9454 20.5528 13.4247 20.6884 12.8943 20.697C11.8535 20.63 11.5512 19.8242 12.2228 18.9172C12.8943 18.0106 14.1032 17.5407 14.9764 17.6747C15.8496 17.8092 16.0848 18.4805 15.5809 19.2536V19.2531ZM29.5177 19.656C30.0551 20.7978 31.5328 21.5703 32.6746 21.3019C33.8165 21.0329 33.9842 20.0931 33.4132 19.1524C33.1268 18.6957 32.7312 18.3184 32.2625 18.0551C31.7927 17.791 31.2648 17.6488 30.7267 17.6414C29.6523 17.7084 29.0478 18.5817 29.5177 19.656V19.656Z" fill="#5865F2"/>
<path d="M28.9132 22.8798C28.5904 22.3518 28.1493 21.907 27.6251 21.5811C27.0998 21.2544 26.506 21.0551 25.8909 20.9992C23.5401 20.7645 21.3573 22.5781 21.0886 25.0293C21.0174 25.5875 21.058 26.1544 21.208 26.6965C21.3579 27.2387 21.6142 27.7452 21.9618 28.1861C24.8496 27.816 27.2675 25.8014 28.9132 22.8798Z" fill="black"/>
<path d="M14.9429 36.6145C14.8786 37.517 15.0008 38.4231 15.3017 39.2758C15.6025 40.1285 16.0756 40.9092 16.6911 41.569C17.3077 42.2314 18.0532 42.7591 18.8813 43.1193C19.7107 43.4803 20.6048 43.6665 21.5085 43.6665C22.4122 43.6665 23.3063 43.4803 24.1357 43.1193C24.9637 42.7591 25.7092 42.2314 26.3258 41.569C26.9414 40.9092 27.4145 40.1283 27.7154 39.2756C28.0162 38.4228 28.1384 37.5166 28.0741 36.6141H14.9429V36.6145Z" fill="#0C1AAD"/>
<path d="M9.43557 26.3388C8.46134 25.0626 7.65569 24.1897 6.64793 23.5184C5.71586 22.8916 4.61199 22.5744 3.49146 22.6113H2.45016C2.40943 22.6196 2.37118 22.6373 2.33841 22.663C2.30565 22.6887 2.27929 22.7217 2.2614 22.7594C2.24351 22.7971 2.23458 22.8385 2.23533 22.8803C2.23609 22.9221 2.2465 22.9632 2.26575 23.0002C2.29192 23.0499 2.33299 23.0901 2.38311 23.115C4.83452 23.7868 6.04346 24.5252 7.65569 26.507C9.26746 28.4878 12.9278 33.5585 15.7825 37.857L18.4356 38.1255C15.2786 33.6929 11.4837 28.9915 9.43557 26.3388V26.3388Z" fill="#0C1AAD"/>
<path d="M-0.538626 40.6104C-0.362068 40.9941 -0.110749 41.3382 0.200433 41.6224C0.512324 41.907 0.877596 42.126 1.27479 42.2666C1.67253 42.4073 2.09414 42.4669 2.51502 42.442C2.9359 42.417 3.34763 42.308 3.72621 42.1213C6.58091 40.7111 9.93903 38.9318 11.4502 38.1592C13.734 36.9837 14.1033 35.9432 13.9691 34.1966C16.387 33.1555 16.8574 31.7453 16.0513 30.3347C15.2451 28.9245 14.7753 27.9842 13.5998 27.9842C13.5998 26.1036 12.7937 25.4655 10.3083 26.305C9.13338 26.708 8.42785 26.9094 7.9915 27.3461C7.55468 27.7827 7.45408 28.8575 7.38702 31.6446C7.35349 32.9203 7.25244 33.2563 6.24514 33.7936L0.939022 36.4126C0.195613 36.7806 -0.375541 37.4261 -0.652719 38.2117C-0.928569 38.9954 -0.887602 39.8567 -0.538626 40.6104V40.6104Z" fill="#2AE5C4"/>
<path d="M37.5104 42.1218C37.5128 42.8022 37.6031 43.4794 37.7791 44.1364C37.0677 44.7982 36.3162 45.415 35.5289 45.9832L32.7752 35.9764C35.2937 29.764 38.5177 28.79 41.2718 32.8201C41.7082 33.4915 42.1445 34.2303 42.5814 35.0028C41.1047 35.5162 39.8226 36.4775 38.9117 37.7544C38.004 39.0279 37.5142 40.5547 37.5104 42.1218Z" fill="white"/>
<path d="M22.5328 24.5252C20.6523 23.182 19.2753 23.3502 18.234 25.2978C18.0033 25.711 17.8231 26.1506 17.697 26.6072C18.6794 27.4755 19.9182 27.9947 21.2228 28.0849C21.6694 28.1355 22.1202 28.1355 22.5663 28.0849C24.4233 27.6668 26.0892 26.6389 27.3015 25.1633C26.63 23.9208 24.8501 22.6783 22.5328 24.5257V24.5252Z" fill="#FF78B9"/>
<path d="M19.6781 33.1223C16.2864 31.9805 17.1591 27.2453 18.2339 25.2978C18.4302 24.8802 18.7038 24.5041 19.0401 24.1897L21.7937 25.3648L25.4541 24.5589C25.442 25.143 25.3972 25.726 25.3199 26.305C24.8496 31.8461 23.0697 34.2636 19.6781 33.1218V33.1223Z" fill="#FF78B9"/>
<path d="M22.5323 24.5252L22.2976 24.2905C22.1965 24.223 21.9954 24.1223 21.9278 24.156C20.887 25.2308 20.1819 27.1113 19.611 30.3347C19.6102 30.4221 19.6401 30.5071 19.6953 30.5746C19.7506 30.6421 19.8278 30.6879 19.9133 30.7038H19.9468C20.028 30.6977 20.1049 30.6649 20.1656 30.6103C20.2263 30.5558 20.2674 30.4826 20.2825 30.4021C20.8535 27.2116 21.525 25.4322 22.5323 24.4919V24.5257V24.5252Z" fill="black"/>
<path d="M15.7825 37.8907L18.4356 38.1592C17.0925 36.3123 15.682 34.398 14.3049 32.6182L13.6669 33.0211C13.8387 33.3912 13.9412 33.7894 13.9691 34.197V35.1706C14.5736 36.0771 15.2116 36.9837 15.7825 37.8907Z" fill="#0C1AAD"/>
<path d="M37.7121 43.8675L35.1596 39.1665C35.1254 39.111 35.1099 39.046 35.1154 38.981C35.121 38.916 35.1472 38.8545 35.1903 38.8057C35.2192 38.7733 35.2546 38.7474 35.2942 38.7298C35.3534 38.6943 35.4221 38.678 35.4908 38.6832C35.5596 38.6884 35.6251 38.7148 35.6784 38.7589C35.7139 38.7876 35.7431 38.8235 35.7641 38.8643C36.1674 39.6701 36.8389 40.8789 37.5104 42.1218C37.5092 42.7098 37.5769 43.2959 37.7121 43.8679V43.8675Z" fill="black"/>
<path d="M28.8462 43.4317C28.8462 43.9349 29.182 44.4053 29.5848 44.439C29.9881 44.4723 30.3238 44.0361 30.2563 43.4983C30.2343 43.2918 30.1424 43.0993 29.996 42.9529C29.849 42.8061 29.6566 42.7142 29.4506 42.6924C29.2725 42.7098 29.1084 42.7974 28.9943 42.9361C28.9383 43.0047 28.8963 43.0838 28.8709 43.1688C28.8455 43.2538 28.8371 43.343 28.8462 43.4313V43.4317ZM20.4171 48.5694C20.0814 48.5694 19.8127 48.8716 19.8127 49.3415C19.8238 49.5837 19.9053 49.817 20.0474 50.0133L21.0886 50.0803C21.2251 49.8723 21.2731 49.6188 21.2228 49.3752C21.2008 49.1688 21.1089 48.9762 20.9624 48.8299C20.8156 48.6829 20.6231 48.591 20.4171 48.5694V48.5694ZM30.2898 48.1327C30.1505 48.1454 30.018 48.1994 29.9092 48.2879C29.8005 48.3764 29.7203 48.4954 29.6788 48.6298C29.6518 48.7188 29.6425 48.8125 29.6518 48.9048C29.6518 48.9386 29.6854 48.9386 29.6854 48.9723L30.8943 48.5357C30.832 48.4255 30.7449 48.3316 30.6399 48.2616C30.5348 48.1916 30.4149 48.1475 30.2898 48.1327V48.1327Z" fill="#8CD9FF"/>
<path d="M13.5658 27.2791C12.5531 27.3967 11.5662 27.6803 10.6445 28.1186C10.5633 28.1617 10.5009 28.2338 10.4698 28.3208C10.4387 28.4077 10.4411 28.5032 10.4764 28.5885C10.5129 28.6462 10.5622 28.6944 10.6205 28.7294C10.6788 28.7644 10.7445 28.7851 10.8122 28.79H10.9468C11.7762 28.3583 12.6736 28.0742 13.5994 27.9504C13.6059 27.7261 13.5947 27.5016 13.5658 27.2791V27.2791ZM15.8161 29.8985L15.4468 29.2604C14.3726 29.3368 13.3233 29.6219 12.3569 30.0999C12.2781 30.1365 12.2165 30.2024 12.1852 30.2839C12.1539 30.3653 12.1554 30.4558 12.1893 30.5361C12.215 30.5954 12.2572 30.646 12.3108 30.6817C12.3644 30.7175 12.4272 30.7369 12.4915 30.7376H12.6256C13.6224 30.2504 14.7087 29.9761 15.8161 29.9317V29.8985V29.8985Z" fill="black"/>
<path d="M22.5179 16.0696C23.296 16.0303 23.9219 15.908 23.9163 15.7969C23.9107 15.6859 23.2755 15.6278 22.4974 15.6672C21.7196 15.7065 21.0933 15.8288 21.0989 15.9398C21.1045 16.0509 21.7401 16.109 22.5179 16.0696Z" fill="#2FFFDA"/>
<path d="M19.7223 24.8625C19.9128 24.6114 19.9593 24.3261 19.8266 24.2253C19.6934 24.1242 19.4312 24.246 19.2408 24.4971C19.0498 24.7482 19.0033 25.0335 19.1365 25.1343C19.2692 25.2354 19.5314 25.1136 19.7223 24.8625Z" fill="#FFABD3"/>
<path d="M4.69995 23.048C4.46524 23.048 4.33066 23.0813 4.36419 23.1487C4.39772 23.2157 4.49877 23.2494 5.00218 23.4509C5.64437 23.6947 6.22807 24.0723 6.71501 24.5589C7.08431 24.8948 7.08431 24.8611 7.45407 24.8611C7.82336 24.8611 7.72276 24.7604 7.65524 24.6934C7.09643 24.0996 6.43696 23.6106 5.70772 23.2494C5.3856 23.1252 5.04481 23.0571 4.69995 23.048V23.048Z" fill="#5865F2"/>
<path d="M21.4915 37.2522C25.1081 37.2522 28.0401 36.9668 28.0401 36.6145C28.0401 36.2622 25.1081 35.9764 21.4915 35.9764C17.8749 35.9764 14.9429 36.2622 14.9429 36.6145C14.9429 36.9668 17.8749 37.2526 21.4915 37.2526V37.2522Z" fill="#0C1AAD"/>
<path d="M15.715 36.749C15.5138 37.0174 18.0993 37.2526 21.4915 37.2526C24.8831 37.2526 27.5026 37.0174 27.301 36.749C27.0998 36.4801 24.5138 36.2786 21.4915 36.2786C18.4691 36.2786 15.8831 36.4801 15.715 36.749Z" fill="black"/>
<path d="M25.6222 37.7563C24.6149 37.857 23.6746 37.924 23.0702 37.924C23.0051 37.9321 22.9452 37.964 22.9018 38.0135C22.8585 38.0631 22.8347 38.1269 22.835 38.1929C22.6333 40.4427 22.4317 42.3233 21.4915 43.1966C24.3462 43.1966 25.6222 40.5097 25.8238 37.9577C25.8238 37.9312 25.8186 37.9048 25.8084 37.8803C25.7983 37.8558 25.7834 37.8335 25.7647 37.8148C25.7459 37.7961 25.7237 37.7812 25.6992 37.7712C25.6748 37.7612 25.6486 37.7561 25.6222 37.7563V37.7563Z" fill="#5865F2"/>
</g>
<defs>
<clipPath id="clip0_85_2623">
<rect width="45" height="45" rx="22.5" fill="white"/>
</clipPath>
</defs>
</svg>
