<svg width="45" height="45" viewBox="0 0 45 45" fill="none" xmlns="http://www.w3.org/2000/svg">
<g clip-path="url(#clip0_85_2591)">
<rect width="45" height="45" rx="22.5" fill="#5865F2"/>
<path d="M31.4982 55.8443C26.3586 54.6146 19.4242 47.6349 19.4242 47.6349C19.4242 47.6349 17.0099 53.0724 15.5762 55.8443H10.4165C8.05372 55.8443 6.19348 53.595 6.44055 51.2469C6.67647 49.0004 7.74404 46.4817 9.36282 42.8043C12.0603 36.6758 12.9268 33.4647 18.2508 33.4647H23.0389L34.037 28.5861C41.1593 32.2774 46.0407 34.4411 50.1976 36.957C56.3909 40.6998 61.2298 48.3643 56.4619 55.8443H31.4982Z" fill="#FFC619"/>
<path d="M36.423 55.8444C36.4543 55.7651 39.6035 47.4896 41.2508 42.3298L41.3559 42.0006C42.4743 38.5195 43.3692 35.719 43.2551 33.2344L44.022 33.6179C44.022 36.1108 43.1528 38.8626 42.0713 42.231L41.9634 42.5602C40.4553 47.2543 37.7209 54.504 37.1982 55.8444H36.4028C36.4174 55.827 36.4174 55.8611 36.423 55.8444Z" fill="black"/>
<path d="M7.65644 54.5236C7.37597 54.2459 7.16303 53.907 7.03219 53.5346C6.90205 53.1616 6.85819 52.7635 6.90413 52.3717C7.23609 49.0743 8.94883 45.1728 10.7263 41.1231C11.345 39.7033 11.9867 38.2495 12.5636 36.8242L13.2589 37.1081C12.691 38.5446 12.0354 40.0102 11.4132 41.4272C9.24113 46.3427 7.17902 51.0452 7.65644 54.5236Z" fill="white"/>
<path d="M23.0367 42.5289C23.9087 46.1068 25.1468 50.7641 26.7426 55.8445H36.3975C36.3975 55.8445 39.5669 47.5864 41.2455 42.3584C42.9235 37.1304 44.1727 33.4335 42.492 29.9775C40.8106 26.5214 38.127 26.2855 34.0466 28.5863L34.6514 35.1031L31.5962 43.8241L30.1277 39.212C27.1317 37.2014 23.3151 38.3121 23.0367 42.5289Z" fill="#FFC619"/>
<path d="M35.4687 52.7378L36.2523 50.4489C37.9567 45.4707 39.4328 41.1719 40.444 37.2815C41.2958 34.0551 41.9577 30.2385 41.5429 28.5119C41.886 28.9252 42.1797 29.3769 42.4177 29.8585C42.4177 32.3347 41.6111 35.779 41.1713 37.4715C40.1517 41.3876 38.6749 45.7067 36.9622 50.6903L36.1786 52.9793C35.8494 53.9474 35.523 55.0435 35.2021 55.8445H34.3928C34.7449 55.0212 35.088 53.8507 35.4687 52.7378Z" fill="white"/>
<path d="M28.4966 55.8444C27.452 52.3062 25.9181 46.8764 23.9535 40.1494C23.9395 40.102 23.9354 40.0519 23.9409 40.0032C23.9458 39.9538 23.9611 39.9065 23.9848 39.8633C24.0084 39.8202 24.0404 39.7819 24.0787 39.7513C24.1177 39.72 24.1615 39.697 24.2089 39.6838C24.2562 39.6699 24.3056 39.6657 24.355 39.6705C24.4037 39.6761 24.4517 39.6907 24.4949 39.7151C24.538 39.7387 24.5763 39.7708 24.6069 39.809C24.6375 39.8473 24.6605 39.8918 24.6744 39.9392C26.6621 46.8026 28.2328 52.3062 29.2774 55.8416L28.4966 55.8444Z" fill="white"/>
<path d="M24.7454 14.2032C30.5524 13.3764 32.7474 13.8023 34.9425 18.69C37.1382 23.5769 36.0052 27.683 32.3869 32.9221C28.7694 38.1612 19.9942 37.2412 16.5952 35.9662C13.1962 34.6912 10.294 31.3632 8.6641 26.621C7.03419 21.8788 7.52833 16.6961 10.0101 13.8678C12.4918 11.0394 16.6661 8.63422 20.4208 9.83543C24.1747 11.0366 24.7454 14.2032 24.7454 14.2032Z" fill="#DE3A93"/>
<path d="M21.966 21.5433C21.8553 21.5433 21.7482 21.5022 21.6646 21.4291C21.5811 21.3561 21.5269 21.2552 21.5122 21.1452C21.4976 21.0352 21.5227 20.9232 21.5839 20.8306C21.6444 20.738 21.737 20.6706 21.8442 20.6406L23.5848 20.1632C23.6432 20.1472 23.7045 20.143 23.7643 20.1507C23.8242 20.1583 23.8826 20.1771 23.9348 20.207C23.9877 20.237 24.0336 20.2773 24.0705 20.3247C24.1081 20.3727 24.1353 20.4277 24.1513 20.4854C24.1673 20.5439 24.1721 20.6051 24.1645 20.665C24.1568 20.7248 24.1373 20.7833 24.1074 20.8355C24.0775 20.8884 24.0378 20.9343 23.9898 20.9719C23.9418 21.0088 23.8875 21.0359 23.829 21.0519L22.0857 21.5294C22.0467 21.5398 22.0063 21.5447 21.966 21.5433Z" fill="black"/>
<path d="M23.6703 22.5029H23.6105L21.8219 22.2761C21.7593 22.2719 21.698 22.2552 21.6423 22.2266C21.5867 22.1974 21.5372 22.1584 21.4976 22.1097C21.4579 22.0617 21.428 22.0053 21.4106 21.9455C21.3932 21.8856 21.3883 21.8223 21.396 21.7603C21.4036 21.6984 21.4245 21.6379 21.4558 21.5843C21.4878 21.53 21.5296 21.4834 21.5804 21.4465C21.6312 21.4089 21.6883 21.3831 21.7495 21.3685C21.8101 21.3546 21.8734 21.3532 21.9353 21.3643L23.7267 21.5919C23.8443 21.6045 23.9522 21.6622 24.0288 21.7527C24.1046 21.8432 24.1429 21.9594 24.1352 22.0777C24.1283 22.1953 24.0761 22.306 23.9891 22.386C23.9028 22.4667 23.7886 22.5106 23.6703 22.5092V22.5029Z" fill="black"/>
<path d="M9.18683 21.4068C9.09706 21.4068 9.00934 21.3804 8.93418 21.3303L7.54857 20.4158C7.45461 20.3455 7.39126 20.2425 7.37178 20.127C7.35159 20.0114 7.37595 19.8924 7.44067 19.795C7.5054 19.6969 7.60426 19.628 7.71839 19.6008C7.83253 19.5737 7.95223 19.5911 8.05384 19.6495L9.43945 20.564C9.52574 20.6169 9.59258 20.697 9.62877 20.7909C9.66496 20.8856 9.66913 20.9892 9.6399 21.0867C9.61136 21.1834 9.55152 21.2683 9.46939 21.3282C9.38727 21.3873 9.28844 21.4179 9.18683 21.4159V21.4068Z" fill="black"/>
<path d="M9.26305 22.1737C9.24008 22.1765 9.21573 22.1765 9.19207 22.1737L7.77235 21.9524C7.65474 21.9308 7.54964 21.864 7.48074 21.7659C7.41115 21.6684 7.38261 21.5473 7.4014 21.429C7.41949 21.3107 7.48351 21.2035 7.57955 21.1319C7.67559 21.0602 7.7953 21.0282 7.91431 21.0435L9.33403 21.2648C9.44886 21.2829 9.55187 21.3434 9.62356 21.4346C9.69524 21.5251 9.73005 21.6399 9.721 21.7547C9.71195 21.8703 9.65974 21.9781 9.57483 22.0568C9.49062 22.1354 9.37927 22.1793 9.26305 22.1793V22.1737Z" fill="black"/>
<path d="M26.6507 9.52009C27.6139 9.53749 28.3551 10.1903 28.392 10.6559C28.4289 11.1215 26.6876 12.576 24.4501 15.373L23.8537 15.1427C25.9638 9.73027 25.6882 9.50338 26.6507 9.52009Z" fill="black"/>
<path d="M25.9555 16.8868C25.8532 16.8882 25.7529 16.8568 25.6708 16.7956C25.6569 16.7782 23.6693 15.2763 21.9454 14.2227C21.8417 14.1586 21.7673 14.0563 21.7387 13.9373C21.7109 13.8183 21.7311 13.6937 21.7951 13.5893C21.8591 13.4857 21.9614 13.4112 22.0804 13.3834C22.1994 13.3548 22.324 13.375 22.4284 13.439C24.1829 14.5178 26.2109 16.0488 26.2332 16.0628C26.3104 16.1212 26.3675 16.2026 26.3953 16.2952C26.4232 16.3878 26.4218 16.4873 26.3904 16.5785C26.3591 16.6703 26.2993 16.7497 26.2199 16.8053C26.1413 16.861 26.046 16.8902 25.9492 16.8895L25.9555 16.8868Z" fill="black"/>
<path d="M23.036 42.529C22.4681 40.1837 22.0534 38.2044 21.8035 36.6483C21.1758 32.712 22.3881 32.0814 24.1037 31.5623C25.7649 31.0563 27.1108 30.0966 27.9488 27.0783C28.786 24.0592 29.292 24.1789 30.2802 24.6584C31.3896 25.257 32.3346 26.1186 33.032 27.1687C33.5999 28.0978 33.5261 29.2023 32.4641 31.9228C31.7633 33.6195 30.6448 35.1109 29.2126 36.2592L30.1264 39.2121C26.6112 39.0416 24.4954 39.5274 23.036 42.529Z" fill="#FF78B9"/>
<path d="M17.2689 40.6687C17.7943 38.3971 18.4046 35.9975 17.2689 35.3502C15.6445 34.4191 12.5552 33.0216 10.6664 28.8389C10.5745 28.6295 10.4033 28.4652 10.1904 28.3817C9.97742 28.2982 9.7408 28.3024 9.53063 28.3928L9.4116 28.4409C9.33018 28.4757 9.2571 28.5258 9.19586 28.5891C9.13462 28.6524 9.0866 28.7269 9.05458 28.809C9.02257 28.8911 9.00726 28.9788 9.00934 29.0665C9.01213 29.1549 9.0316 29.2412 9.06779 29.3212C9.9941 31.3235 11.1216 33.2269 12.4327 35.0009C12.1697 36.0873 11.8238 37.1528 11.3992 38.1869C13.5205 39.1807 17.2689 40.6687 17.2689 40.6687Z" fill="#FF78B9"/>
<path d="M28.5846 33.3109C28.5129 33.2427 28.4705 33.1487 28.467 33.0492C28.4642 32.9497 28.5004 32.853 28.5679 32.7799C29.2639 32.0526 29.8819 31.2544 30.4108 30.3977C31.294 28.9069 32.1375 26.1976 31.5271 25.4989C31.7429 25.6805 31.953 25.874 32.1486 26.0668C32.2579 26.1781 32.34 26.3124 32.3894 26.46C32.4388 26.6075 32.4534 26.7648 32.4325 26.9186C32.2001 28.2764 31.7331 29.5834 31.0525 30.7811C30.4943 31.6831 29.8443 32.5252 29.1129 33.2942C29.0795 33.3304 29.0391 33.3589 28.9939 33.3798C28.9493 33.4 28.9006 33.4111 28.8512 33.4132C28.8018 33.4146 28.7523 33.4062 28.7064 33.3888C28.6605 33.3714 28.6181 33.345 28.5819 33.3109H28.5846Z" fill="black"/>
<path d="M28.8128 36.8297H28.762C27.4655 36.6661 26.1585 36.5972 24.8515 36.6223C24.7916 36.6258 24.7311 36.6167 24.674 36.5972C24.617 36.577 24.564 36.5457 24.5188 36.5054C24.4736 36.465 24.4374 36.4163 24.411 36.362C24.3845 36.307 24.3692 36.2479 24.3664 36.188C24.3629 36.1275 24.3713 36.0669 24.3915 36.0098C24.4116 35.9528 24.4423 35.8999 24.4826 35.8546C24.523 35.8101 24.5717 35.7732 24.6267 35.7468C24.681 35.721 24.7401 35.7057 24.8007 35.7022C26.1578 35.673 27.5149 35.744 28.8616 35.9152C28.9778 35.9284 29.0849 35.9855 29.1615 36.0746C29.2374 36.1644 29.2763 36.2792 29.2701 36.3968C29.2638 36.5137 29.213 36.6244 29.1281 36.7051C29.0432 36.7858 28.9305 36.8318 28.8128 36.8325V36.8297Z" fill="black"/>
<path d="M33.1665 49.3157C33.0683 49.315 32.973 49.2837 32.8936 49.2252C32.815 49.1668 32.7558 49.0854 32.7266 48.9921L29.8384 39.8083C29.8197 39.7506 29.8127 39.69 29.8175 39.6295C29.8224 39.5696 29.8391 39.5105 29.8663 39.4569C29.8941 39.4026 29.9317 39.3546 29.9776 39.3156C30.0242 39.2759 30.0771 39.246 30.1349 39.2279C30.1927 39.2091 30.2532 39.2022 30.3138 39.207C30.3743 39.2119 30.4328 39.2279 30.4871 39.2558C30.5407 39.2836 30.5887 39.3212 30.6284 39.3671C30.6673 39.4137 30.6972 39.4666 30.716 39.5244L33.6091 48.7165C33.63 48.7854 33.6341 48.8578 33.6223 48.9288C33.6105 48.9998 33.5819 49.0665 33.5395 49.125C33.497 49.1828 33.4421 49.2301 33.378 49.2635C33.3147 49.2962 33.2437 49.3143 33.172 49.3157H33.1665Z" fill="black"/>
<path d="M31.584 44.284C31.5318 44.2833 31.4803 44.275 31.4309 44.2583C31.3738 44.2388 31.3209 44.2081 31.2757 44.1678C31.2305 44.1281 31.1936 44.0794 31.1671 44.0251C31.1407 43.9708 31.1254 43.9117 31.1219 43.8511C31.1184 43.7906 31.1268 43.73 31.147 43.673L33.9558 35.6542C33.9954 35.5387 34.0804 35.4441 34.1903 35.3912C34.3003 35.3383 34.427 35.3313 34.5418 35.3717C34.6573 35.4113 34.7513 35.4963 34.8048 35.6062C34.8577 35.7162 34.8647 35.8428 34.8243 35.9577L32.0134 43.9771C31.9821 44.0662 31.9243 44.1434 31.8471 44.1984C31.7705 44.2534 31.6787 44.2833 31.584 44.284Z" fill="black"/>
<path d="M14.5832 52.238C14.54 52.238 14.4969 52.2317 14.4552 52.2206C14.3382 52.1865 14.2401 52.1079 14.1809 52.0014C14.1225 51.8949 14.1072 51.7696 14.1399 51.6527C14.1601 51.5901 15.9431 45.3544 16.7413 40.956C16.7483 40.8933 16.7678 40.8328 16.7998 40.7778C16.8311 40.7228 16.8736 40.6755 16.9237 40.6379C16.9745 40.6003 17.0322 40.5732 17.0935 40.5593C17.1547 40.5447 17.2188 40.5433 17.2807 40.5544C17.3427 40.5662 17.4018 40.5899 17.454 40.6247C17.5069 40.6602 17.5514 40.7054 17.5855 40.7583C17.6196 40.8119 17.6419 40.8711 17.6524 40.9337C17.6628 40.9957 17.66 41.059 17.644 41.1202C16.8402 45.5618 15.0433 51.8434 15.0259 51.9116C14.9973 52.0063 14.9381 52.0891 14.8588 52.1482C14.7788 52.2067 14.682 52.2387 14.5832 52.238Z" fill="black"/>
<path d="M10.8249 16.6619C10.7039 16.6612 10.5855 16.6291 10.4811 16.5686C10.3767 16.508 10.2904 16.421 10.2299 16.3167C10.1693 16.2123 10.1367 16.094 10.136 15.9729C10.1353 15.8525 10.1666 15.7335 10.2257 15.6284C10.3336 15.4439 10.447 15.2588 10.5667 15.0772C10.6767 14.9477 10.8305 14.8635 10.9989 14.8405C11.1681 14.8169 11.3385 14.8573 11.4798 14.9526C11.6204 15.0479 11.7213 15.192 11.7624 15.3569C11.8034 15.5219 11.7819 15.6966 11.7025 15.8469C11.6002 15.9972 11.5035 16.1538 11.4186 16.3125C11.358 16.4176 11.2717 16.5046 11.168 16.5658C11.0636 16.6271 10.9453 16.6605 10.8249 16.6619Z" fill="#FFA8D2"/>
<path d="M12.4981 14.5858C12.3547 14.5914 12.2135 14.5517 12.0938 14.4724C11.9741 14.3938 11.8822 14.2796 11.8307 14.146C11.7785 14.0124 11.7694 13.8662 11.8049 13.727C11.8397 13.5878 11.9177 13.4633 12.0269 13.3707C13.0249 12.4729 14.2102 11.809 15.497 11.4255C15.584 11.3998 15.6751 11.3914 15.7649 11.4012C15.8553 11.4102 15.9424 11.4374 16.0224 11.4805C16.1018 11.5244 16.172 11.5828 16.2291 11.6531C16.2862 11.7234 16.3286 11.8041 16.3544 11.8911C16.3801 11.9781 16.3885 12.0693 16.3794 12.1591C16.3697 12.2495 16.3425 12.3365 16.2994 12.4166C16.2562 12.4959 16.1978 12.5662 16.1268 12.6233C16.0565 12.6803 15.9758 12.7228 15.8888 12.7485C14.7989 13.0729 13.7953 13.6359 12.9498 14.3959C12.828 14.5128 12.6672 14.581 12.4981 14.5858Z" fill="#FFA8D2"/>
<path d="M10.0025 23.4118C8.48049 21.6907 8.69902 20.6064 9.20497 20.3051C9.71023 20.0044 10.528 20.589 11.9025 22.7987C13.277 25.0076 12.13 25.8142 10.0025 23.4118Z" fill="white"/>
<path d="M17.2237 23.423C18.2259 21.3275 20.0033 19.7769 21.5971 20.0358C23.1901 20.294 22.5394 22.6568 20.4606 24.2352C18.3825 25.8143 16.1276 25.7203 17.2237 23.423Z" fill="white"/>
<path d="M9.28705 21.4776C9.22998 21.0594 9.27175 20.6334 9.40955 20.234C9.83547 20.1832 10.443 20.6488 11.3234 21.9154C11.2322 22.5341 10.9399 23.0059 10.5342 23.0741C9.96907 23.1674 9.41232 22.4575 9.28705 21.4776Z" fill="black"/>
<path d="M17.1784 23.5372C17.1958 23.5003 17.2042 23.4634 17.2244 23.4231C17.7129 22.3555 18.4534 21.4215 19.3825 20.7033C19.64 21.2246 19.7506 21.8071 19.7033 22.3868C19.6267 23.6506 18.9622 24.6389 18.221 24.5936C17.7637 24.5651 17.383 24.1615 17.1784 23.5372Z" fill="black"/>
<path d="M13.3584 32.6498C12.5692 32.6498 12.0521 32.4424 11.7827 32.0165C11.416 31.4486 11.6317 30.6503 11.9247 29.9599C11.4703 29.4463 10.766 28.4609 11.416 27.5067C12.0667 26.5526 13.2282 26.8936 16.099 27.6174L16.4338 27.7002C16.4929 27.7148 16.5479 27.7406 16.5966 27.7768C16.6453 27.8129 16.6864 27.8582 16.717 27.9104C16.7484 27.9619 16.7692 28.0196 16.7783 28.0795C16.7866 28.1393 16.7839 28.2006 16.7692 28.259C16.7546 28.3182 16.7282 28.3732 16.692 28.4219C16.6558 28.4706 16.6106 28.5117 16.5591 28.543C16.5069 28.5736 16.4491 28.5945 16.3892 28.6035C16.3294 28.6119 16.2681 28.6091 16.2097 28.5945L15.8742 28.5089C13.6569 27.941 12.4383 27.657 12.1829 28.0238C12.089 28.163 11.8335 28.5346 12.8051 29.5486C12.8684 29.6154 12.9109 29.6996 12.9262 29.7908C12.9415 29.882 12.929 29.9759 12.89 30.0595C12.4126 31.0964 12.5037 31.4256 12.5636 31.5223C12.6228 31.6184 12.9408 31.7297 13.3667 31.7297C14.6535 31.7297 16.076 30.9176 16.0907 30.9085C16.1429 30.8744 16.2013 30.8508 16.2632 30.8403C16.3245 30.8292 16.3878 30.8313 16.4491 30.8459C16.5096 30.8598 16.5674 30.887 16.6175 30.9245C16.6676 30.9614 16.7094 31.0087 16.7407 31.063C16.772 31.1173 16.7922 31.1772 16.7998 31.2391C16.8068 31.3017 16.8012 31.3644 16.7838 31.4242C16.7658 31.4848 16.7358 31.5404 16.6961 31.5885C16.6558 31.6365 16.6064 31.6755 16.5507 31.704C16.4762 31.7437 14.895 32.6498 13.3584 32.6498Z" fill="black"/>
<path d="M13.9572 30.8634C13.889 30.8634 13.8208 30.8474 13.7596 30.8182C13.6976 30.7889 13.6426 30.7458 13.5995 30.6929C13.2689 30.2551 12.994 29.7784 12.7818 29.2732C12.7331 29.1604 12.7316 29.0324 12.7776 28.9189C12.8235 28.8048 12.9126 28.7136 13.026 28.6656C13.1388 28.6176 13.2661 28.6162 13.3803 28.6614C13.4944 28.7074 13.5856 28.7964 13.6336 28.9099C13.8125 29.3393 14.0435 29.7457 14.3205 30.1194C14.3755 30.1869 14.4096 30.2684 14.42 30.3547C14.4305 30.441 14.4159 30.5286 14.3783 30.6073C14.3407 30.6859 14.2822 30.7521 14.2085 30.798C14.1347 30.8446 14.0498 30.869 13.9628 30.869L13.9572 30.8634Z" fill="black"/>
</g>
<defs>
<clipPath id="clip0_85_2591">
<rect width="45" height="45" rx="22.5" fill="white"/>
</clipPath>
</defs>
</svg>
