<svg width="45" height="45" viewBox="0 0 45 45" fill="none" xmlns="http://www.w3.org/2000/svg">
<g clip-path="url(#clip0_85_2538)">
<rect width="45" height="45" rx="22.5" fill="#29CC7A"/>
<path d="M16.9705 9C18.3428 10.5577 22.0886 10.0756 21.0502 14.5261" stroke="#FF8C19" stroke-width="2" stroke-linecap="round" stroke-linejoin="round"/>
<path d="M30.359 63.6302C29.636 61.7068 28.781 59.8357 27.8 58.0299C30.4179 54.2926 32.4792 50.1948 33.9195 45.8652L38.4441 51.9475C40.5952 54.8033 42.5608 56.5835 45.6391 54.5808C48.7174 52.578 48.124 49.7223 45.4166 48.0904C44.1834 47.339 43.182 46.2605 42.5237 44.9751C37.3314 34.7018 35.5141 35.2581 31.1379 35.9999L26.8357 36.7045C17.8234 31.6606 12.9649 29.0274 10.2205 33.4408L8.44025 36.2966C7.15587 38.3223 5.52364 40.1051 3.61885 41.563C0.651819 43.9366 0.169679 47.2374 2.35783 49.2772C3.61885 50.464 5.51032 51.3541 7.14218 51.9475C5.65867 57.7703 6.40039 60.0326 6.66 62.5175C4.13804 67.7469 5.65867 68.8966 8.99656 68.8966C12.3345 68.8966 23.9058 67.5614 30.359 63.6302Z" fill="#459FF7"/>
<path d="M20.0113 35.666C22.9783 39.894 21.5319 42.3788 23.275 44.8266C25.0182 47.2744 27.6514 47.7936 28.9865 43.8994C30.3217 40.0052 29.6541 38.0396 28.5786 35.9627" stroke="white" stroke-miterlimit="10" stroke-linecap="round"/>
<path d="M19.9375 49.3142C20.1229 47.7936 21.013 46.3101 10.2205 44.2703" stroke="black" stroke-width="2" stroke-linecap="round" stroke-linejoin="round"/>
<path d="M31.4344 28.7307H32.3616C32.4403 28.7503 32.5235 28.738 32.5931 28.6962C32.6626 28.6545 32.7128 28.5868 32.7324 28.5082C32.7521 28.4295 32.7397 28.3462 32.698 28.2766C32.6563 28.2071 32.5886 28.1569 32.5099 28.1373C30.7778 27.2626 29.2095 26.0958 27.874 24.6881L22.6817 19.5329C22.1643 18.9938 21.8724 18.2774 21.8658 17.5302V17.1964C21.8658 14.6374 21.4949 13.8214 20.5677 12.8572C19.9546 12.1793 19.1653 11.6851 18.2878 11.4297C17.4102 11.1743 16.479 11.1677 15.5979 11.4107C13.6323 11.93 13.0018 12.6346 12.8534 13.0426C12.7051 13.4506 12.7422 13.8956 13.2985 13.5618C12.668 14.6003 12.5938 15.8242 12.5938 17.1964C12.5938 18.5687 11.6296 19.6442 10.3315 20.386C10.2848 20.4116 10.2471 20.4509 10.2236 20.4987C10.2001 20.5465 10.1918 20.6003 10.1999 20.6529C10.208 20.7056 10.2321 20.7545 10.2689 20.793C10.3057 20.8314 10.3534 20.8577 10.4057 20.8681C10.7765 20.9794 11.407 21.0164 12.3713 20.6456C11.1845 22.5741 10.7395 23.0934 11.1845 23.1304C11.6296 23.1675 12.3342 22.945 13.1501 22.0178C13.5785 23.1307 14.2355 24.1415 15.0787 24.9848C17.8232 27.9889 19.1584 29.9546 19.7888 31.6977C17.1185 34.2567 17.1927 33.923 19.9001 33.923L17.6748 36.1853C16.896 37.0383 16.7106 38.4105 19.4921 38.4105C19.418 39.3377 20.2339 40.0795 21.4949 39.4119C21.4949 39.4119 20.9015 40.3762 21.6061 41.155C22.3108 41.9339 25.3149 41.4146 26.5017 40.0424C27.0179 40.2697 27.5975 40.309 28.1397 40.1533C28.6818 39.9971 29.1521 39.6563 29.4687 39.1894C30.8781 39.7828 32.139 39.0781 32.7695 37.5575C33.4 36.037 34.0305 31.6235 31.4344 28.7307Z" fill="#FFD736"/>
<path d="M22.0143 17.4932H20.4566V18.1311H22.0143V17.4932Z" fill="black"/>
<path d="M23.5507 17.8823C23.7281 17.0614 23.45 16.3048 22.9295 16.1922C22.409 16.0797 21.8431 16.6538 21.6657 17.4747C21.4882 18.2955 21.7663 19.0522 22.2868 19.1647C22.8073 19.2773 23.3732 18.7031 23.5507 17.8823Z" fill="black"/>
<path d="M23.2011 16.3063L21.6063 17.901C21.5841 18.3055 21.7167 18.7033 21.9772 19.0137L23.609 17.3818C23.6229 17.1837 23.5937 16.9849 23.5232 16.7992C23.4528 16.6135 23.3429 16.4453 23.2011 16.3063Z" fill="#3442D9"/>
<path d="M21.7546 22.3515C25.4262 21.6468 27.9853 23.3158 29.3204 22.574C29.9509 22.2402 30.3218 21.0905 29.2463 20.2004C29.875 19.7523 30.3638 19.135 30.6556 18.4202C30.9894 17.3817 30.1735 16.3433 28.1336 17.1221C26.0938 17.901 23.9798 18.8282 21.087 18.346C19.826 18.1606 18.565 19.199 19.3439 20.7567C20.1227 22.3144 20.8274 22.5369 21.7546 22.3515Z" fill="#EB459F"/>
<path d="M20.8239 17.8863C21.0132 17.003 20.5645 16.158 19.8218 15.9989C19.0791 15.8397 18.3236 16.4267 18.1343 17.3099C17.945 18.1932 18.3937 19.0382 19.1364 19.1973C19.8791 19.3565 20.6346 18.7695 20.8239 17.8863Z" fill="black"/>
<path d="M19.7147 13.6361C18.8246 10.3724 15.6721 10.8174 13.929 11.0028C12.1859 11.1883 10.7765 10.4465 10.3686 9.85313" stroke="#FF8C19" stroke-width="2" stroke-linecap="round" stroke-linejoin="round"/>
<path d="M18.0832 17.7898C18.0833 18.0722 18.1467 18.351 18.2686 18.6057L20.4568 16.4547C20.2812 16.2609 20.0465 16.1305 19.7892 16.0838L18.0832 17.7898Z" fill="#3442D9"/>
<path d="M27.3551 20.5714C28.0562 20.219 28.6465 19.68 29.0611 19.0137" stroke="black" stroke-width="0.5" stroke-linecap="round" stroke-linejoin="round"/>
<path d="M28.1338 20.1633C28.3737 20.2475 28.5726 20.4199 28.6901 20.6454" stroke="black" stroke-width="0.5" stroke-linecap="round" stroke-linejoin="round"/>
<path d="M12.5939 44.7526C13.2986 43.7512 14.0033 42.6386 14.5225 41.8968C14.5617 41.8523 14.6134 41.8204 14.671 41.8056C14.7284 41.7907 14.7891 41.7933 14.845 41.8134C14.9009 41.8334 14.9496 41.8697 14.9846 41.9176C15.0197 41.9654 15.0396 42.0229 15.0417 42.0822C14.9264 43.1296 14.7531 44.1695 14.5225 45.1976L12.5939 44.7526Z" fill="black"/>
<path d="M34.4386 46.5697L34.5128 46.4214C34.8837 45.42 35.4029 43.7511 35.6625 42.7126C35.6796 42.664 35.6863 42.6125 35.6822 42.5609C35.6781 42.5097 35.6633 42.4597 35.6388 42.4144C35.6147 42.3688 35.5809 42.3291 35.5401 42.2976C35.4997 42.2661 35.453 42.2431 35.4029 42.2305C35.3102 42.216 35.2153 42.2338 35.134 42.2813C35.0532 42.3284 34.9909 42.4022 34.9579 42.4901C34.6983 43.4173 34.2531 44.8637 33.9193 45.8651L34.4386 46.5697Z" fill="black"/>
<path d="M23.3494 53.3197L36.3301 43.0835C36.4785 43.0093 36.6639 43.0093 36.7381 43.1577C36.7604 43.1844 36.7774 43.2151 36.7878 43.2482C36.7978 43.2815 36.8015 43.3164 36.7978 43.3509C36.7945 43.3857 36.7841 43.4191 36.7674 43.4495C36.7507 43.4799 36.7281 43.507 36.701 43.5285L24.054 54.1727C23.9995 54.2283 23.9338 54.2721 23.8613 54.3007C23.7888 54.3296 23.711 54.3426 23.6331 54.3392C23.5551 54.3363 23.4788 54.3166 23.4089 54.2817C23.3391 54.2469 23.2773 54.1979 23.2276 54.1378C23.1779 54.0778 23.1415 54.0077 23.1205 53.9327C23.0996 53.8575 23.0948 53.7788 23.1063 53.7017C23.1177 53.6245 23.1453 53.5507 23.1872 53.4847C23.2291 53.4191 23.2844 53.3627 23.3494 53.3197Z" fill="#4553EB"/>
<path d="M21.6064 33.8488C20.7163 35.7032 22.9416 35.7032 23.6091 34.7018C23.6462 36.1854 24.9814 37.1125 26.1311 35.8887" stroke="#FFB914" stroke-width="2" stroke-linecap="round" stroke-linejoin="round"/>
<path d="M29.7286 28.3226C29.2631 27.9892 28.7506 27.7267 28.208 27.5437" stroke="#FFB914" stroke-width="2" stroke-linecap="round" stroke-linejoin="round"/>
</g>
<defs>
<clipPath id="clip0_85_2538">
<rect width="45" height="45" rx="22.5" fill="white"/>
</clipPath>
</defs>
</svg>
