<svg width="45" height="45" viewBox="0 0 45 45" fill="none" xmlns="http://www.w3.org/2000/svg">
<g clip-path="url(#clip0_85_2515)">
<rect width="45" height="45" rx="22.5" fill="#4C5AF2"/>
<path d="M36.5692 50.18C36.5692 50.18 32.7567 43.3813 29.2511 38.4232L23.0312 40.7049C23.0312 40.7049 29.2176 48.1694 30.8724 53.9997H31.5452C33.264 54.0141 34.9734 53.7411 36.6026 53.1918C38.2677 52.6139 39.6466 51.8214 40.2294 50.7992C40.2294 50.0586 39.072 50.18 36.5692 50.18Z" fill="#FFC619"/>
<path d="M30.9987 40.9965C30.4187 40.1138 29.8311 39.2438 29.2511 38.4156L23.0312 40.6972C23.0312 40.6972 24.7505 42.7748 26.6193 45.6012C26.1605 43.3169 29.8079 41.5255 30.9987 40.9965Z" fill="black"/>
<path d="M23.1569 51.1602C25.5953 45.8874 25.4252 44.0472 24.3941 39.0605L17.6923 38.8541C19.1615 44.7465 19.3729 47.307 17.2051 52.1877C16.98 52.7613 16.9037 53.3831 16.9834 53.9945H27.4615C27.7451 53.0369 26.8326 52.611 23.1569 51.1602Z" fill="#FFC619"/>
<path d="M24.8713 41.5901C24.7501 40.8288 24.5877 40.0002 24.3944 39.0581L17.6925 38.8517C18.1503 40.5387 18.4948 42.2546 18.7236 43.9879V44.0034C18.7236 44.0034 21.9688 42.1578 24.8713 41.5901Z" fill="black"/>
<path d="M32.5481 16.4094C32.8149 15.487 32.723 14.4973 32.2904 13.6401C32.1555 13.3504 32.1081 13.0275 32.1539 12.7111C32.1996 12.3948 32.3367 12.0985 32.5481 11.8592C32.8585 11.4589 33.0866 11.0011 33.2185 10.5118C33.7028 8.74901 32.9606 6.95269 31.5455 6.50083C30.1303 6.04929 28.6018 7.11021 28.1146 8.87305C27.8475 9.79451 27.9396 10.7836 28.3724 11.6397C28.5093 11.9282 28.5591 12.2504 28.5156 12.5667C28.4721 12.8831 28.3372 13.1801 28.1275 13.4206C27.8185 13.8226 27.5909 14.2813 27.4573 14.7706C26.9727 16.5335 27.7151 18.3272 29.1302 18.7813C30.5454 19.2358 32.0636 18.1696 32.5481 16.4094Z" fill="#FFD751"/>
<path d="M31.679 14.5875C31.8024 14.1281 31.8218 13.6464 31.7357 13.1784C31.6451 12.8004 31.6946 12.4023 31.8749 12.0581C32.0081 11.8077 32.1094 11.5416 32.1765 11.2659C32.4343 10.2542 32.2383 9.30686 31.746 9.14673C31.2537 8.98691 30.6505 9.68359 30.3953 10.6956C30.237 11.242 30.245 11.8235 30.4185 12.3653C30.4622 12.4713 30.4791 12.5861 30.4679 12.7C30.4566 12.8138 30.4176 12.9231 30.3541 13.0183C30.1562 13.3284 30.0026 13.6648 29.8979 14.0172C29.5963 15.0187 29.8386 15.9763 30.3283 16.1338C30.8181 16.291 31.4264 15.5995 31.679 14.5875Z" fill="black"/>
<path d="M32.5326 39.959L17.2241 42.0805C16.9591 42.1176 16.6892 42.0838 16.4412 41.9833C16.1933 41.8829 15.9762 41.7189 15.8115 41.5075L6.31806 29.2917C6.15572 29.079 6.05117 28.828 6.01458 28.5628C5.97796 28.298 6.01061 28.0279 6.10925 27.7792L11.9296 13.4415C12.0297 13.1934 12.1935 12.9759 12.4044 12.8115C12.6153 12.647 12.8659 12.5411 13.1308 12.5046L28.442 10.3805C28.7071 10.3441 28.9773 10.3779 29.2252 10.4789C29.4731 10.58 29.6902 10.7444 29.8545 10.9561L39.3454 23.1693C39.5098 23.381 39.6158 23.632 39.6529 23.8975C39.69 24.163 39.6568 24.4334 39.5568 24.6821L33.7363 39.0195C33.6362 39.2685 33.4721 39.4864 33.2608 39.6515C33.0495 39.8165 32.7981 39.9225 32.5326 39.959Z" fill="#29CC7A"/>
<path d="M16.4485 41.6672C16.3592 41.6682 16.2718 41.6416 16.1983 41.5907C16.1249 41.5399 16.0691 41.4673 16.0386 41.3833L14.3967 36.6084L6.29511 28.9168C6.22505 28.8498 6.17954 28.7612 6.16599 28.6654C6.15243 28.5693 6.17156 28.4715 6.22036 28.3878L11.9505 18.469C12.0036 18.3775 12.0881 18.3089 12.1883 18.2757C12.2884 18.2423 12.3973 18.2468 12.4944 18.2882L28.3494 25.0997C28.4051 25.1236 28.4552 25.1588 28.4965 25.2034C28.5378 25.2477 28.5693 25.3002 28.5892 25.3576L33.1258 39.099C33.1488 39.1696 33.1534 39.2448 33.1389 39.3176C33.1245 39.3905 33.0917 39.4584 33.0435 39.5148C32.9955 39.5713 32.9335 39.6146 32.864 39.6402C32.7947 39.6658 32.7196 39.6733 32.6464 39.6618L15.4122 36.9001L16.8557 41.0942C16.875 41.1471 16.8836 41.2035 16.8811 41.2599C16.8785 41.3164 16.8649 41.3715 16.8409 41.4227C16.817 41.4739 16.7832 41.5195 16.7415 41.5576C16.6998 41.5956 16.651 41.6249 16.598 41.6439C16.5499 41.6603 16.4993 41.6682 16.4485 41.6672ZM14.9689 35.9632L32.0819 38.7017L27.8288 25.8196L12.5073 19.2382L7.13801 28.5299L14.9689 35.9632Z" fill="#15AD75"/>
<path d="M14.7673 36.7917C14.6632 36.7914 14.5628 36.7534 14.4846 36.6848C14.4064 36.6159 14.3557 36.521 14.342 36.4177L11.8958 18.7377C11.892 18.7095 11.892 18.6806 11.8958 18.6524L12.2283 13.2323C12.2403 13.1214 12.2946 13.0193 12.3798 12.9474C12.4651 12.8756 12.5747 12.8391 12.686 12.846C12.7972 12.8533 12.9015 12.9028 12.9771 12.9849C13.0527 13.0669 13.0938 13.1748 13.0918 13.2864L12.7568 18.6704L15.1978 36.3067C15.2125 36.4203 15.1822 36.5348 15.1132 36.626C15.0442 36.7173 14.9422 36.778 14.8292 36.7944L14.7673 36.7917Z" fill="#15AD75"/>
<path d="M14.7692 36.7918C14.7047 36.7918 14.6409 36.777 14.5826 36.7494C14.5243 36.7219 14.4727 36.6818 14.4315 36.632C14.3596 36.5424 14.3259 36.4282 14.338 36.314C14.3501 36.1998 14.4069 36.0951 14.496 36.0229L27.8997 25.1541C27.9605 25.1029 28.0349 25.0708 28.1137 25.0613L39.0918 23.5383C39.2011 23.5311 39.3093 23.5652 39.3943 23.6345C39.4793 23.7037 39.5348 23.8028 39.5499 23.9114C39.565 24.02 39.5384 24.1306 39.4754 24.2202C39.4124 24.3101 39.3175 24.3725 39.2106 24.3951L28.356 25.8974L15.0399 36.694C14.9641 36.7576 14.8682 36.7924 14.7692 36.7918Z" fill="#15AD75"/>
<path d="M28.178 25.9235H28.1599C28.103 25.9212 28.0472 25.9074 27.9955 25.8835C27.9439 25.8595 27.8974 25.8257 27.8589 25.7837C27.8203 25.7417 27.7904 25.6925 27.7709 25.639C27.7513 25.5855 27.7425 25.5287 27.7449 25.4716L28.3249 11.808L12.5033 19.0733C12.4001 19.115 12.285 19.115 12.1817 19.0736C12.0784 19.0323 11.995 18.9529 11.9486 18.8518C11.9022 18.7507 11.8965 18.6355 11.9325 18.5302C11.9686 18.4249 12.0438 18.3376 12.1424 18.2861L28.6084 10.7264C28.6755 10.6952 28.7494 10.6821 28.8231 10.6877C28.8968 10.6936 28.9677 10.7182 29.0291 10.7595C29.0905 10.8009 29.1402 10.8573 29.1735 10.9233C29.2069 10.9892 29.2226 11.0627 29.2193 11.1369L28.6084 25.5077C28.6038 25.6193 28.5565 25.7246 28.4763 25.8021C28.3962 25.8792 28.2893 25.9228 28.178 25.9235Z" fill="#15AD75"/>
<path d="M25.4251 14.4507C25.1634 13.3051 24.5353 12.2764 23.6362 11.521C23.3453 11.2785 23.1243 10.9628 22.9961 10.6061C22.8678 10.2494 22.837 9.86509 22.9068 9.49231C23.0057 8.9269 22.9881 8.34738 22.8552 7.78886C22.3835 5.6959 20.6255 4 18.9269 4C17.2282 4 16.2332 5.6959 16.7049 7.78886C16.9656 8.93412 17.5939 9.96222 18.4938 10.7157C18.7837 10.9569 19.0041 11.2709 19.1323 11.626C19.2605 11.9807 19.2919 12.3633 19.2233 12.7341C19.1254 13.3005 19.1438 13.881 19.2774 14.4402C19.7491 16.5309 21.5071 18.2264 23.2057 18.2264C24.9044 18.2264 25.8968 16.541 25.4251 14.4507Z" fill="#FFD751"/>
<path d="M23.6494 13.4932C23.5298 12.9566 23.3094 12.4477 22.9998 11.9938C22.7264 11.6329 22.5731 11.1948 22.5616 10.7419C22.562 10.4246 22.5239 10.1083 22.4482 9.79981C22.1698 8.6073 21.4558 7.52603 20.8346 7.39444C20.2134 7.26285 19.9169 8.1866 20.2314 9.45918C20.3954 10.1795 20.7346 10.8479 21.2186 11.4051C21.3185 11.5016 21.3964 11.6181 21.4471 11.7474C21.4978 11.8767 21.5201 12.0152 21.5125 12.1537C21.4741 12.5645 21.4967 12.9783 21.5795 13.3823C21.8089 14.562 22.5667 15.4936 23.1261 15.4936C23.6855 15.4936 23.9071 14.6033 23.6494 13.4932Z" fill="black"/>
<path d="M34.2671 32.7885C33.7877 32.7885 33.3391 32.4866 32.9345 31.8956C32.3313 31.005 31.357 28.7519 30.8724 27.286C30.8427 27.179 30.8551 27.0648 30.907 26.9667C30.959 26.8686 31.0465 26.7941 31.1515 26.7586C31.2566 26.7235 31.3712 26.7298 31.4717 26.7764C31.5723 26.823 31.6511 26.9066 31.6921 27.0097C32.1663 28.4188 33.1097 30.6 33.6613 31.3974C33.8858 31.7279 34.1126 31.9136 34.2852 31.9136C34.4578 31.9136 34.6383 31.7354 34.824 31.4309C35.2234 30.7752 35.5971 29.7222 35.9735 28.7056C36.1593 28.1891 36.3525 27.6601 36.5511 27.1567C36.5987 27.0579 36.6823 26.9811 36.7847 26.9418C36.8868 26.902 37.0003 26.903 37.102 26.9437C37.2038 26.9847 37.2861 27.0628 37.3327 27.1623C37.379 27.2617 37.3862 27.3749 37.3524 27.4796C37.1591 27.9594 36.9685 28.486 36.7854 28.9921C36.386 30.0993 36.0122 31.1444 35.561 31.8749C35.1101 32.6054 34.6356 32.7655 34.3085 32.773L34.2671 32.7885Z" fill="black"/>
<path d="M30.3236 27.8099C30.2294 27.8099 30.1377 27.779 30.0626 27.7219C29.9875 27.6651 29.933 27.5851 29.9074 27.4945C29.8817 27.4036 29.8863 27.3068 29.9205 27.2188C29.9547 27.1312 30.0166 27.0567 30.0968 27.0072C30.5685 26.7128 31.0206 26.3876 31.45 26.0342C31.5387 25.9627 31.652 25.9292 31.7653 25.9407C31.8786 25.9522 31.9828 26.008 32.0553 26.0959C32.1279 26.1839 32.1629 26.2967 32.1528 26.4103C32.1428 26.5238 32.0885 26.6288 32.0016 26.7027C31.538 27.0754 31.0525 27.4203 30.5478 27.735C30.4819 27.781 30.404 27.8072 30.3236 27.8099Z" fill="black"/>
</g>
<defs>
<clipPath id="clip0_85_2515">
<rect width="45" height="45" rx="22.5" fill="white"/>
</clipPath>
</defs>
</svg>
