<svg width="45" height="45" viewBox="0 0 45 45" fill="none" xmlns="http://www.w3.org/2000/svg">
<g clip-path="url(#clip0_85_2469)">
<rect width="45" height="45" rx="22.5" fill="#1F48B8"/>
<path d="M21.6892 13.478L21.2576 14.0665L21.6892 14.6944L22.1208 14.0665L21.6892 13.478Z" fill="#D360DF"/>
<path d="M33.7357 43.378L14.3909 39.3364V27.7217C14.387 27.0868 14.5282 26.4598 14.7989 25.8861C15.0736 25.3128 15.47 24.8078 15.9644 24.4084C16.4549 24.0093 17.0316 23.726 17.6516 23.5796C18.2677 23.4329 18.9112 23.427 19.5312 23.5624L30.7927 25.9167C31.6246 26.0882 32.3701 26.541 32.9077 27.1982C33.4414 27.8559 33.7357 28.6783 33.7357 29.5267V43.378Z" fill="#C12254"/>
<path d="M20.0411 23.2484C18.1577 22.8952 17.4122 21.9927 16.8236 19.8346C16.235 17.6764 17.5691 16.1069 18.9033 13.988C20.2374 11.8691 21.4538 10.8489 24.2397 10.4565C27.0257 10.0641 29.5762 10.7704 30.5964 12.026C31.6166 13.2817 32.2053 14.2234 32.4407 17.0094C32.6761 19.7953 33.6178 22.3851 30.7926 23.3661C27.9674 24.347 25.103 24.3471 20.0411 23.2484Z" fill="#1A0D2B"/>
<path d="M27.3003 53.1092C22.9055 53.4232 12.7819 53.5409 8.81874 51.2258C4.85561 48.9107 4.50247 45.8108 4.85562 43.2995C5.20877 40.7882 6.15049 38.787 6.6606 37.3352C7.17071 35.8834 7.40617 35.6479 7.72008 33.9606C8.15171 31.3709 8.19095 30.2329 9.09344 28.8596C9.99594 27.4862 12.7819 27.3293 14.6654 27.4077C16.5488 27.4862 18.8247 27.8001 20.7474 28.0356C20.7474 28.0356 29.6154 29.6051 31.9305 30.1545C34.2456 30.7038 36.1683 30.7431 37.8948 36.2758C39.6213 41.8084 39.739 52.246 27.3003 53.1092Z" fill="#B9D5FE"/>
<path d="M29.4192 38.7088C29.066 40.1606 26.7509 41.7694 25.1421 42.5934C23.5333 43.4175 21.336 43.9668 17.9222 42.9858C14.5084 42.0049 12.7819 41.377 11.8794 41.1024C10.9769 40.8277 10.3098 40.3568 10.663 42.7112C11.0161 45.0655 12.6642 51.226 12.6642 51.226L17.6867 53.1095L30.0863 56.6802L34.9126 42.8681L29.4192 38.7088Z" fill="#9EA1D9"/>
<path d="M11.0947 34.6278C10.5846 32.7051 9.99606 30.8609 9.48595 31.371C8.97584 31.8811 8.70117 33.4507 8.50498 35.5696C8.30878 37.6885 6.54303 42.7503 6.54303 42.7503L10.8985 45.6147C10.7808 42.7503 10.1138 39.5719 11.0947 34.6278Z" fill="#9EA1D9"/>
<path d="M10.7415 36.9036C10.408 35.8359 10.0156 34.7878 9.56435 33.7645C9.25044 33.2151 9.09351 34.1176 9.09351 35.0986C9.09351 36.0796 10.7415 36.9036 10.7415 36.9036Z" fill="#8286D1"/>
<path d="M35.8937 32.038C34.6773 30.6647 33.4216 30.5077 31.9305 30.1545C30.4395 29.8014 23.1803 28.4673 21.2576 28.1534L21.4145 28.3888C22.0423 29.2128 22.0031 29.8014 22.0031 30.5469C22.0031 31.2925 22.1208 31.2532 22.7094 31.3709C23.298 31.4887 23.7689 30.9786 24.2397 30.7824C24.7106 30.5862 25.2599 30.7039 26.0055 30.9393C26.751 31.1747 27.1434 32.1165 27.6535 33.1367C28.1636 34.1569 29.3015 36.0404 30.3218 36.1973C31.342 36.3543 31.8521 36.5112 32.4407 35.4518C33.0293 34.3923 33.814 32.9405 34.5988 32.6658C35.3836 32.3912 35.6975 32.3519 35.8937 32.038Z" fill="#9EA1D9"/>
<path d="M19.2958 27.8786C19.2958 27.604 19.2958 27.3293 18.2756 27.1723C17.2554 27.0154 16.9414 26.9369 16.1174 27.1723C15.2934 27.4078 14.3909 28.3103 13.5277 29.2913C12.4525 30.6289 11.5461 32.0913 10.8202 33.6468C10.4042 34.5336 10.1649 35.4934 10.1139 36.472C10.1924 36.9429 10.2708 37.4922 10.7417 37.4137C11.7698 34.6501 13.3158 32.107 15.2934 29.9191C16.2744 28.7811 17.4123 27.6432 18.7465 27.8002L19.2958 27.8786Z" fill="#1A0D2B"/>
<path d="M29.38 29.3304C29.1446 31.9987 28.8307 34.8631 28.9484 37.9238C29.0661 40.9844 29.2231 42.6717 30.3218 44.8298C30.9104 44.3982 30.9496 44.0843 31.0673 43.4564C30.671 41.3489 30.5258 39.2022 30.6357 37.0605C30.7534 34.8631 31.2635 30.8607 31.2635 29.762C31.2243 29.3696 31.0673 29.3304 30.4002 29.1342C29.7332 28.938 29.4193 28.8988 29.38 29.3304Z" fill="#1A0D2B"/>
<path d="M20.0411 21.1688C20.0018 23.7586 20.0803 26.5445 20.2373 28.1533H19.7272C19.4957 28.1482 19.2641 28.2075 19.064 28.3256C18.8639 28.4433 18.6991 28.6148 18.5892 28.8204C17.3728 30.9393 17.2159 32.7443 17.726 33.8037C18.2361 34.8632 20.198 34.8239 21.9245 33.8037C23.6511 32.7835 26.9079 29.9975 28.3597 29.4482C28.2813 28.1925 28.2812 25.2496 28.2812 25.2496L20.0411 21.1688Z" fill="#955746"/>
<path d="M20.0412 24.5826C20.1824 25.9442 20.6533 27.2504 21.4145 28.3887C22.0424 29.2128 22.0031 29.8013 22.0031 30.5469C22.0031 31.2924 22.1209 31.2532 22.7094 31.3709C23.298 31.4886 23.7689 30.9785 24.2398 30.7823C24.7106 30.5861 25.26 30.7038 26.0055 30.9393C26.7236 30.3456 27.5162 29.8445 28.3599 29.4482C28.2814 28.1925 28.2814 25.2496 28.2814 25.2496L20.0412 21.1688C20.0019 22.3067 20.0412 23.4839 20.0412 24.5826Z" fill="#7D3236"/>
<path d="M25.7306 9.63249C26.2015 8.18065 24.9459 6.92501 22.8662 7.00349C20.7866 7.08197 19.1385 8.49457 19.1777 9.90717C19.217 11.3198 20.5511 11.9476 22.1599 11.8691C23.7687 11.7906 25.3382 10.8489 25.7306 9.63249Z" fill="#1A0D2B"/>
<path d="M27.34 11.32C30.6361 11.477 31.46 14.773 31.617 15.9894C31.7347 17.0395 31.668 18.1017 31.4208 19.1286C31.2168 19.909 31.1619 20.7217 31.2639 21.5221C31.3698 22.6848 31.1108 23.8514 30.5183 24.8574C29.4981 26.7017 28.9488 27.5649 26.6729 27.7219C24.397 27.8789 23.3768 26.9371 21.6111 25.3283C19.8453 23.7195 20.2769 23.7588 20.2377 21.4437C20.1985 19.1286 20.12 18.1476 20.0415 16.9312C19.8846 14.8123 20.5909 10.9276 27.34 11.32Z" fill="#955746"/>
<path d="M24.828 23.0522C25.1027 24.1116 25.3773 25.0926 26.3191 25.1711C26.6251 25.215 26.939 25.1679 27.2176 25.0353C27.4962 24.9027 27.7277 24.6904 27.8886 24.4255C27.9592 24.2654 27.9867 24.0892 27.9671 23.9154L24.828 23.0522Z" fill="#7D2328"/>
<path d="M24.9067 22.856C24.8989 22.8462 24.8949 22.8348 24.8949 22.8226C24.891 22.8109 24.8949 22.7987 24.8989 22.7877C24.9028 22.7764 24.9067 22.7658 24.9146 22.7571C24.9263 22.7489 24.9342 22.7422 24.9459 22.7383C25.4678 22.6174 26.0093 22.6449 26.5155 22.8168C26.798 22.9824 27.1041 23.1142 27.418 23.2092C27.5828 23.2688 27.728 23.3681 27.8457 23.4984C27.9634 23.6282 28.0458 23.7852 28.0851 23.9547H26.5155L24.9067 22.856Z" fill="#7D2328"/>
<path d="M31.3813 19.2853C31.3499 19.1955 31.3225 19.1037 31.3028 19.0107C31.2087 18.8066 31.0596 18.6324 30.8712 18.508C30.6868 18.3832 30.467 18.3126 30.2434 18.3044C29.9687 18.3044 29.1839 18.5006 28.5169 18.3044C27.8498 18.1082 26.9865 17.4803 26.4372 17.3234C25.982 17.2092 25.5072 17.2257 25.0638 17.3717C24.6165 17.5176 24.2241 17.7864 23.9259 18.1474C23.4158 18.6575 24.2398 19.0107 24.7892 19.4815C25.3385 19.9524 26.2802 20.4233 27.1042 19.5993C27.9283 18.7752 28.3599 18.8929 28.5169 19.0891C28.6738 19.2853 28.7915 19.9524 28.9485 20.5802C29.1055 21.208 29.8902 22.1105 30.5573 21.9143C30.6985 21.8869 30.8359 21.8264 30.9497 21.7378C31.0674 21.6495 31.1615 21.5353 31.2243 21.4042C31.1812 20.694 31.2322 19.9814 31.3813 19.2853Z" fill="#7D3236"/>
<path d="M25.8877 17.441L21.2183 18.108" stroke="#D1BA92" stroke-width="0.5" stroke-miterlimit="10" stroke-linecap="round"/>
<path d="M29.6157 19.0892C29.8354 19.0237 30.0709 19.0378 30.2827 19.1285C30.4397 19.2069 30.4004 18.9323 30.165 18.8538C30.0551 18.8067 29.9374 18.789 29.8197 18.8028C29.702 18.8165 29.5921 18.8612 29.498 18.9323C29.341 19.0892 29.2625 19.2069 29.6157 19.0892Z" fill="#955746"/>
<path d="M20.5118 18.3827C19.0207 17.6371 18.6676 17.5979 18.3144 18.0688C17.9613 18.5396 18.1182 19.5206 18.3144 20.2662C18.5106 21.0117 18.4321 21.6788 18.9815 21.8357C19.523 21.9699 20.0958 21.9001 20.5903 21.6395L20.5118 18.3827Z" fill="#955746"/>
<path d="M30.8712 12.9285L29.3801 11.5159L28.2422 11.1628L26.7903 10.8881L24.3183 11.1628L22.1209 11.9083L20.5906 13.1247L19.7666 14.7728L19.5311 17.441L20.1197 18.1866C21.4931 18.8929 22.1601 18.6574 24.2006 17.0094C26.241 15.3613 28.0067 14.1842 27.889 12.5361H28.0852C28.713 13.3994 29.2231 13.7918 29.9687 14.6943C30.7142 15.5968 31.656 16.6955 31.5382 18.265L31.8522 18.422V15.5968L30.8712 12.9285Z" fill="#1A0D2B"/>
<path d="M26.4762 18.2259C26.1623 18.0689 25.6915 18.1081 24.9852 18.3828C24.9459 18.3828 24.9067 18.4613 24.9067 18.5005L25.0244 18.579C26.0839 18.5398 26.3585 18.7752 26.5155 18.8929H26.7117V18.8144C26.7195 18.7054 26.6999 18.5959 26.6606 18.4938C26.6175 18.3922 26.5547 18.3008 26.4762 18.2259Z" fill="#1A0D2B"/>
<path d="M30.4394 19.3245C30.1647 19.1283 29.7331 19.1676 29.1053 19.4423C29.0661 19.4423 29.066 19.5207 29.066 19.56C29.066 19.5808 29.0739 19.6008 29.0896 19.6153C29.1053 19.6302 29.1249 19.6384 29.1445 19.6384C30.0863 19.5992 30.3217 19.7954 30.4394 19.9131L30.5571 19.9916H30.6356C30.6748 19.9524 30.6749 19.9524 30.6749 19.9131C30.6749 19.8739 30.5964 19.403 30.4394 19.3245Z" fill="#1A0D2B"/>
<path d="M30.5967 18.1474C30.2593 18.0489 29.8944 18.0767 29.5765 18.2258C29.4588 18.3043 29.3411 18.4613 29.4196 18.4613C29.6942 18.4413 29.9689 18.4413 30.2436 18.4613C30.5183 18.4636 30.7812 18.5609 30.9891 18.7359C31.1068 18.8929 31.1853 18.7359 31.0284 18.4613C30.9891 18.3765 30.9303 18.3035 30.8518 18.2486C30.7773 18.1937 30.6909 18.1587 30.5967 18.1474Z" fill="#1A0D2B"/>
<path d="M25.7701 17.3233C25.1423 17.2841 24.9854 17.3233 25.1816 17.2056C25.3778 17.0879 25.8094 16.9309 26.5549 17.0879C26.963 17.1212 27.3475 17.2868 27.6536 17.5587C27.8105 17.7157 27.6928 17.7942 27.6144 17.8726C27.5359 17.9511 27.4574 17.8726 27.065 17.7157C26.6608 17.5038 26.2214 17.3704 25.7701 17.3233Z" fill="#1A0D2B"/>
<path d="M26.2013 21.5219C26.6251 21.434 27.0685 21.4894 27.457 21.6789C27.7983 21.8511 28.1751 21.9324 28.5557 21.9143C28.8303 21.8358 28.9088 22.1105 28.3202 22.5029C27.7317 22.8953 27.6139 22.9738 26.9469 22.4637C26.2798 21.9536 25.8089 21.5612 26.2013 21.5219Z" fill="#7D3236"/>
<path d="M25.2599 22.8169C25.8877 23.0915 27.1042 23.5624 27.732 23.7586C28.3598 23.9548 28.1243 24.1117 27.3003 24.4256C26.4763 24.7396 26.2017 24.5433 25.6131 24.0725C25.0245 23.6016 24.3574 22.4637 25.2599 22.8169Z" fill="#420F27"/>
<path d="M27.7322 23.7585C27.1043 23.5623 25.8879 23.0914 25.2601 22.8168C24.6323 22.5421 24.8285 23.2091 25.2601 23.7585L27.6929 24.2686C28.1637 24.0724 28.203 23.9154 27.7322 23.7585Z" fill="#CAD6E3"/>
<path d="M24.2402 22.1498C23.887 22.5422 24.1224 22.8169 24.3578 22.6207C24.5737 22.4574 24.7699 22.2734 24.9464 22.0713C25.1426 21.8751 24.711 21.7182 24.2402 22.1498Z" fill="#7D3236"/>
<path d="M28.3596 21.4043C28.3596 21.0108 28.3321 20.6176 28.2811 20.2272C28.2575 20.0015 28.285 19.774 28.3596 19.5601C28.3988 19.4424 28.438 19.5994 28.4773 19.9917C28.5165 20.3841 28.752 20.9335 28.752 21.2866C28.752 21.6398 28.3988 21.7967 28.3596 21.4043Z" fill="#B86B56"/>
<path d="M25.927 18.0297C26.1428 17.9912 26.3665 18.0328 26.5549 18.1474C26.6726 18.3043 26.7118 17.9904 26.4764 17.8727C26.3822 17.7993 26.2684 17.7562 26.1507 17.7491C26.0291 17.7424 25.9114 17.7719 25.8093 17.8335C25.6524 17.9119 25.5346 18.0689 25.927 18.0297Z" fill="#955746"/>
<path d="M27.9594 19.1441C28.3479 18.1565 28.1399 17.1492 27.4964 16.8954C26.8489 16.6411 26.0132 17.236 25.6208 18.224C25.2323 19.212 25.4403 20.2189 26.0877 20.4732C26.7312 20.727 27.571 20.1322 27.9594 19.1441Z" stroke="#D1BA92" stroke-width="0.5" stroke-miterlimit="10" stroke-linecap="round"/>
<path d="M31.903 20.0111C32.2914 19.0231 32.0835 18.0158 31.4399 17.7619C30.7925 17.5076 29.9528 18.1025 29.5643 19.0905C29.1758 20.0786 29.3838 21.0854 30.0273 21.3397C30.6748 21.5936 31.5145 20.9987 31.903 20.0111Z" stroke="#D1BA92" stroke-width="0.5" stroke-miterlimit="10" stroke-linecap="round"/>
<path d="M27.9674 18.7359L29.38 19.0498" stroke="#D1BA92" stroke-width="0.5" stroke-miterlimit="10" stroke-linecap="round"/>
<path d="M20.3549 19.2067C19.6878 18.5004 18.8246 18.2257 18.5499 18.5396C18.4322 18.7017 18.3576 18.8904 18.3302 19.089C18.3027 19.2875 18.3223 19.4896 18.393 19.6775C18.5107 20.1484 18.5107 20.6193 18.6284 20.6978C18.7461 20.7762 18.7069 20.6193 18.7069 20.2269C18.7069 19.8345 18.8638 19.7168 19.0993 19.5206C19.3347 19.3244 19.5701 19.4814 19.5309 19.5991C19.4917 19.7168 19.1777 19.7953 19.1777 20.1484C19.1777 20.5016 19.3347 20.5408 19.6879 20.737C20.041 20.9332 20.198 21.2079 20.2764 21.1294C20.3549 21.0509 19.9233 20.5016 19.8841 20.3054C19.8448 20.1092 19.8448 19.913 20.041 19.7953C20.2372 19.6775 20.5511 19.4029 20.3549 19.2067Z" fill="#7D3236"/>
<path d="M28.9093 23.8369C28.9486 24.2293 28.8308 24.6609 29.0663 24.504C29.3017 24.347 29.0663 23.6407 28.9878 23.523C28.9093 23.4053 28.8309 23.5622 28.9093 23.8369Z" fill="#7D3236"/>
<path d="M23.5337 19.5209L23.1413 19.1285C23.1217 19.1041 23.0982 19.0841 23.0707 19.0708C23.0432 19.0571 23.0157 19.05 22.9843 19.05L22.8667 19.1285C22.8274 19.1677 22.7881 19.207 22.7881 19.2462C22.7881 19.2854 22.8274 19.3639 22.8667 19.4032C22.9883 19.5436 23.1178 19.6747 23.259 19.7955C23.2787 19.8199 23.3022 19.8395 23.3296 19.8532C23.3571 19.8669 23.3846 19.874 23.416 19.874L23.5337 19.7955C23.5729 19.7955 23.6122 19.7171 23.6122 19.6778C23.6004 19.619 23.5729 19.5644 23.5337 19.5209Z" fill="#B86B56"/>
<path d="M25.4562 22.8952L25.26 22.8168C24.5537 22.5421 24.7892 23.1307 25.1815 23.6408L25.4562 22.8952Z" fill="#9DB4CC"/>
<path d="M25.9272 15.1652C25.9272 15.1652 23.8868 17.3626 22.8666 18.1866C21.8464 19.0107 21.297 20.3448 20.1983 17.4803L20.2768 17.8727C21.0223 19.7954 21.5717 19.7954 22.8273 18.6967C24.083 17.5981 26.2019 15.2045 26.2019 15.2045L25.9272 15.1652Z" fill="#1A0D2B"/>
<path d="M18.1578 29.6837L19.7666 30.1545C20.0412 30.2723 19.8451 30.5469 19.2957 30.6254C18.8209 30.5936 18.354 30.474 17.9224 30.2723L18.1578 29.6837Z" fill="#7D3236"/>
</g>
<defs>
<clipPath id="clip0_85_2469">
<rect width="45" height="45" rx="22.5" fill="white"/>
</clipPath>
</defs>
</svg>
