<svg width="45" height="45" viewBox="0 0 45 45" fill="none" xmlns="http://www.w3.org/2000/svg">
<g clip-path="url(#clip0_85_3061)">
<rect width="45" height="45" rx="22.5" fill="#808AFF"/>
<path d="M43.6435 15.0103C43.6054 15.0863 43.5449 15.1488 43.4703 15.1895C43.3956 15.2302 43.3103 15.2472 43.2258 15.2382C39.7316 14.2507 38.5162 14.8583 38.0225 15.8838C37.5288 16.9093 38.0985 18.1246 39.01 19.7958C39.0894 19.9571 39.1021 20.1433 39.0452 20.3139C38.9883 20.4845 38.8665 20.6259 38.7061 20.7073C38.6152 20.7646 38.5098 20.7951 38.4023 20.7951C38.2948 20.7951 38.1894 20.7646 38.0984 20.7073C35.9336 19.7198 34.7942 19.264 33.4649 19.302C32.6341 19.3164 31.8343 19.6202 31.2034 20.161C30.5725 20.7017 30.15 21.4456 30.0087 22.2645L24.0078 19.34C25.9068 16.1497 25.7549 12.8834 24.9573 9.76901C24.1597 6.65463 25.0713 6.35079 29.8947 7.94596C34.7301 9.49574 39.3114 11.748 43.4917 14.6305C43.5506 14.6727 43.5962 14.7309 43.6231 14.7982C43.65 14.8655 43.6571 14.9391 43.6435 15.0103V15.0103Z" fill="#3442D9"/>
<path d="M28.6794 16.4535C29.2871 18.7703 29.8568 23.0241 29.8568 23.0241" stroke="black" stroke-linecap="round" stroke-linejoin="round"/>
<path d="M0.156294 28.949C0.231311 28.9826 0.314595 28.9933 0.395663 28.9797C0.476731 28.9662 0.552009 28.9291 0.612084 28.873C2.20725 26.5942 3.42262 26.3663 4.4101 26.7841C5.39758 27.2019 5.89131 28.2274 6.38505 29.7466C6.4358 29.8931 6.53487 30.0181 6.66601 30.1009C6.79714 30.1837 6.95254 30.2195 7.10668 30.2023C7.21433 30.1858 7.31605 30.1423 7.40238 30.0759C7.48871 30.0095 7.55686 29.9223 7.60044 29.8225C8.36005 28.1514 8.81581 27.3538 9.68935 26.7461C10.5629 26.1384 12.3479 25.8726 13.9431 26.936L15.9561 22.1505C12.5758 21.0491 10.4869 18.8842 8.92975 16.4915C7.37256 14.0987 6.61292 14.4026 4.52401 17.7448C2.37091 21.0614 0.83945 24.7422 0.00441021 28.6072C-0.00622229 28.6727 0.00246527 28.74 0.029446 28.8007C0.0564267 28.8614 0.100494 28.9129 0.156294 28.949V28.949Z" fill="#3442D9"/>
<path d="M9.53741 21.201C10.4037 22.9765 11.5445 24.6043 12.9177 26.0245" stroke="black" stroke-linecap="round" stroke-linejoin="round"/>
<path d="M13.6013 25.2649C15.8041 24.4293 18.5007 25.9865 19.6021 28.7211C20.7036 31.4557 19.83 34.3801 17.6271 35.2537L24.0078 34.8359C29.401 32.747 31.9837 29.8225 29.8948 24.4673C28.3376 20.5174 24.7674 19.2261 19.906 21.1251C15.0445 23.0241 13.6013 25.2649 13.6013 25.2649V25.2649Z" fill="black"/>
<path d="M17.8551 23.8976C19.8301 26.4423 21.0074 27.9235 21.5392 28.3033C22.0709 28.6831 22.0709 28.3793 21.767 27.012C21.4632 25.6447 20.5137 20.8212 20.5137 20.8212L17.8551 23.8976Z" fill="white"/>
<path d="M14.6268 26.8981C16.07 28.7591 16.9436 29.8605 17.3234 30.1264C17.7032 30.3922 17.7032 30.1644 17.5133 29.1389C17.3234 28.1134 16.5637 24.6192 16.5637 24.6192L14.6268 26.8981Z" fill="#808AFF"/>
<path d="M24.2357 34.0003C24.0458 31.6455 23.9319 30.2782 24.0458 29.8225C24.1598 29.3667 24.3117 29.5186 24.8054 30.3922L27.1982 34.3421L24.2357 34.0003Z" fill="white"/>
<path d="M15.1205 34.3421C15.2609 33.9231 15.4945 33.5414 15.8037 33.2257C16.1129 32.9099 16.4896 32.6683 16.9056 32.5191C18.045 32.1393 19.4122 31.9114 22.2987 32.5571C23.2809 32.8148 24.32 32.7482 25.2612 32.3672C28.0717 31.3037 29.8568 27.9994 29.2491 24.999C28.6414 21.9986 25.8689 20.4794 23.0583 21.5808C21.6938 22.1268 20.5645 23.1351 19.868 24.4293C17.969 27.9615 17.2474 28.911 15.5763 29.6706C15.2053 29.8486 14.8024 29.9504 14.3914 29.97C13.9804 29.9896 13.5697 29.9265 13.1835 29.7845C11.3604 29.1009 10.4869 26.7841 11.6263 23.9356C12.2735 22.3387 13.3072 20.9276 14.6344 19.8288C15.9616 18.73 17.5408 17.978 19.2304 17.6401C20.9199 17.3023 22.667 17.3893 24.3146 17.8933C25.9623 18.3972 27.459 19.3024 28.6705 20.5276C29.882 21.7528 30.7703 23.2596 31.2558 24.9129C31.7412 26.5661 31.8085 28.314 31.4518 29.9996C31.095 31.6853 30.3252 33.256 29.2116 34.5708C28.0979 35.8855 26.6753 36.9032 25.0713 37.5325C22.5056 38.5124 19.6597 38.458 17.1334 37.3805C15.0445 36.469 14.8166 35.2916 15.1205 34.3421V34.3421Z" fill="url(#paint0_linear_85_3061)"/>
<path d="M27.3881 20.5174C26.6515 20.1234 25.8364 19.8985 25.002 19.8591C24.1677 19.8197 23.335 19.9667 22.5646 20.2895C20.9314 20.8972 19.6401 22.1125 18.6526 23.8216C17.6652 25.5307 15.5762 28.911 13.7152 28.9869C13.275 29.0156 12.8343 28.9373 12.4309 28.7587C12.0275 28.5801 11.6732 28.3066 11.3984 27.9615C11.3984 27.9995 11.4364 28.0374 11.4364 28.0754C11.6198 28.5053 11.9196 28.8753 12.3022 29.1438C12.6847 29.4122 13.1347 29.5684 13.6013 29.5946H13.7532C15.4243 29.5187 17.0954 27.8475 19.1464 24.1635C19.9292 22.6628 21.2222 21.491 22.7925 20.8592C23.4831 20.5676 24.2299 20.4334 24.9788 20.4662C25.7276 20.499 26.4598 20.6982 27.1222 21.0491C27.8216 21.4425 28.4236 21.9881 28.8838 22.6455C29.344 23.3029 29.6505 24.0553 29.7808 24.8471C30.5024 28.3033 28.4895 32.1393 25.2992 33.3926C24.2153 33.7856 23.04 33.8516 21.9189 33.5825C18.8046 32.9749 16.7536 33.1268 15.6142 34.1143L15.4623 34.2662C15.2518 34.4765 15.1156 34.7498 15.0745 35.0445C15.0333 35.3393 15.0895 35.6394 15.2344 35.8993C15.2595 35.6366 15.3402 35.3821 15.4712 35.1529C15.6022 34.9238 15.7804 34.7251 15.994 34.57C16.9435 33.6965 18.9185 33.5825 21.805 34.1522C23.0391 34.4657 24.3403 34.386 25.527 33.9244C28.9453 32.5951 31.1101 28.4552 30.3505 24.7332C30.2087 23.8518 29.8682 23.0143 29.355 22.2839C28.8418 21.5536 28.1692 20.9495 27.3881 20.5174V20.5174Z" fill="#EB459F"/>
<path d="M0.308228 28.7211C1.4528 25.9688 2.86483 23.3355 4.52402 20.8592M33.313 11.3262C39.3139 13.3012 43.2258 14.8963 43.2258 14.8963L33.313 11.3262ZM38.5543 20.3275C36.5793 18.2766 33.8827 15.6559 31.6798 13.4911L38.5543 20.3275ZM6.87881 29.6706C6.38507 26.3284 6.61293 21.1631 6.61293 21.1631L6.87881 29.6706Z" stroke="black" stroke-linecap="round" stroke-linejoin="round"/>
</g>
<defs>
<linearGradient id="paint0_linear_85_3061" x1="25.2404" y1="36.051" x2="19.5673" y2="21.5003" gradientUnits="userSpaceOnUse">
<stop stop-color="#66BCFF"/>
<stop offset="1" stop-color="#8CD9FF"/>
</linearGradient>
<clipPath id="clip0_85_3061">
<rect width="45" height="45" rx="22.5" fill="white"/>
</clipPath>
</defs>
</svg>
