<svg width="45" height="45" viewBox="0 0 45 45" fill="none" xmlns="http://www.w3.org/2000/svg">
<g clip-path="url(#clip0_85_534)">
<rect width="45" height="45" rx="22.5" fill="#5865F2"/>
<path d="M37.617 13.5818C35.7227 11.1636 34.9166 11.5667 33.506 11.5667C33.506 9.18874 32.3775 8.98722 31.8535 10.9621C31.3296 12.937 31.0072 13.864 32.2969 15.7582C33.5866 17.6525 35.3197 20.4335 36.0854 23.7384C34.2557 24.2356 32.4531 24.8275 30.6847 25.5117L33.8284 32.8067C39.0679 30.4691 42.131 28.4539 42.4534 24.2623C42.7759 20.0707 39.5516 16.0404 37.617 13.5818V13.5818Z" fill="#FFC619"/>
<path d="M37.3348 44.4948C31.4505 45.4218 20.77 46.3488 7.06672 46.51C6.70399 43.1245 7.75188 40.1823 11.9032 36.958C13.7168 35.5474 13.5556 34.4995 13.3944 33.5725C12.8705 30.2273 11.5807 26.8821 9.64616 22.5696C6.70398 15.9195 6.34125 10.4382 11.218 7.45569C16.0948 4.47321 21.697 6.16597 25.4452 11.6876C29.1935 17.2092 37.4557 29.3406 37.3348 44.4948Z" fill="#FFC619"/>
<path d="M20.8909 14.6702C24.5182 18.096 25.8885 17.6929 26.6946 17.4914C27.5007 17.2899 26.8155 15.2344 26.3722 14.3074L20.8909 14.6702Z" fill="#FFAE00"/>
<path d="M14.9662 19.4661C15.2483 21.1186 14.6841 22.4889 13.8377 22.6904C12.9913 22.892 12.1853 22.0456 11.7016 20.7559C11.218 19.4661 11.3792 17.3704 12.2659 16.8061C13.1525 16.2419 14.6035 17.451 14.9662 19.4661Z" fill="white"/>
<path d="M20.8909 14.6701C19.8833 13.4207 20.4475 11.1233 21.697 9.02755C22.9464 6.93175 24.6794 6.20628 26.1304 6.20628C27.5813 6.20628 28.0246 7.65723 26.3319 11.6876C28.468 11.3249 29.4353 11.3652 29.6368 12.534C29.8383 13.7028 28.4277 14.5492 25.2437 15.0731C22.0597 15.5971 21.4551 15.3552 20.8909 14.6701Z" fill="#ED5F00"/>
<path d="M33.4253 11.3249C33.9895 9.79339 34.6344 9.63218 34.9568 9.79339C35.2793 9.95461 35.1987 10.6801 34.8762 12.131C34.5538 13.5819 32.9013 12.7356 33.4253 11.3249Z" fill="#FFC619"/>
<path d="M34.5942 11.5667C35.8436 10.5188 36.4885 10.6397 36.69 10.9621C36.8915 11.2846 36.4885 11.8488 35.5212 12.9773C34.5539 14.1058 33.4657 12.534 34.5942 11.5667Z" fill="#FFC619"/>
<path d="M13.658 19.3823C14.0397 19.2002 14.1239 18.5803 13.846 17.9977C13.5681 17.415 13.0333 17.0903 12.6516 17.2724C12.2699 17.4545 12.1857 18.0744 12.4636 18.657C12.7415 19.2396 13.2762 19.5644 13.658 19.3823Z" fill="black"/>
<path d="M22.1806 13.2998C22.1378 13.2998 22.0968 13.2828 22.0666 13.2526C22.0363 13.2223 22.0194 13.1813 22.0194 13.1386C22.1451 12.0733 22.5177 11.052 23.1076 10.1561C24.1152 8.62456 24.8809 8.10061 25.5661 7.93939C26.2513 7.77818 26.8155 7.93939 26.8155 8.54395C26.6813 9.72168 26.3829 10.8748 25.9288 11.9698C26.6833 11.8076 27.455 11.74 28.2261 11.7683C28.6695 11.8086 28.6695 12.0101 28.347 12.1713C28.0246 12.3325 26.3319 12.9774 22.1806 13.2998V13.2998Z" fill="black"/>
<path d="M18.7548 37.5627C19.1982 41.4721 15.9336 46.3086 15.9336 46.3086" stroke="black" stroke-miterlimit="10" stroke-linecap="round"/>
<path d="M36.0854 23.7383L37.9394 24.3832" stroke="black" stroke-miterlimit="10" stroke-linecap="round"/>
</g>
<defs>
<clipPath id="clip0_85_534">
<rect width="45" height="45" rx="22.5" fill="white"/>
</clipPath>
</defs>
</svg>
