<svg width="45" height="45" viewBox="0 0 45 45" fill="none" xmlns="http://www.w3.org/2000/svg">
<g clip-path="url(#clip0_85_2392)">
<rect width="45" height="45" rx="22.5" fill="#29CC7A"/>
<path d="M33.9903 39.818C37.8384 41.451 39.8604 43.3442 41.7518 47.0673C43.6432 50.7903 46.1212 55.8842 41.1651 57.9089C36.2082 59.9327 35.2951 52.814 33.6648 50.1365C31.3818 46.3491 30.7951 43.2136 33.9903 39.818Z" fill="#F79C13"/>
<path d="M42.6647 57.0591C45.7956 54.3163 45.9262 51.5735 46.3169 50.5942C46.7086 49.6141 48.6 45.5655 48.9264 44.1937C49.2519 42.8218 49.9691 41.9731 47.7522 39.8178C45.5344 37.6625 44.295 38.1195 43.0564 40.34L40.3825 45.5002C40.3825 45.5002 36.86 49.157 36.4039 52.8801C35.9469 56.6021 39.2084 60.064 42.6647 57.0591Z" fill="#F79C13"/>
<path d="M32.6867 25.7111C33.3386 23.6873 34.2517 21.7932 34.3822 23.1641C34.4632 24.8422 34.7252 26.5065 35.1647 28.1276C35.8166 30.0217 35.4911 30.6092 33.9253 29.1077C32.3603 27.6053 32.295 27.1483 32.6867 25.7111Z" fill="#C44FA3"/>
<path d="M9.40327 69.1413C7.51188 68.619 6.79376 67.3787 7.4466 65.3539C7.77945 64.3673 8.06265 63.3642 8.29436 62.349C6.98961 61.2392 6.5979 59.7367 7.77209 56.2758C8.94628 52.8139 7.25074 50.7248 7.05489 45.5646C6.85904 40.4054 5.94599 34.9197 14.294 35.3114C22.6421 35.7031 31.1216 37.7931 34.7086 40.2748C38.2955 42.7565 37.513 50.529 37.513 52.2263C37.513 53.9246 38.9474 59.8673 38.8168 64.1779C38.6872 68.4884 23.2949 72.6684 9.40327 69.1413Z" fill="#F79C13"/>
<path d="M18.1339 12.0172L17.3229 12.2636C17.116 12.327 16.9993 12.5459 17.0618 12.7528L17.0811 12.8153C17.1436 13.0222 17.3625 13.139 17.5693 13.0764L18.3803 12.8291C18.5872 12.7666 18.704 12.5477 18.6405 12.3408L18.6222 12.2783C18.5587 12.0714 18.3408 11.9538 18.1339 12.0172Z" fill="#4070EF"/>
<path d="M27.3379 43.2799L30.4035 42.5609C32.6866 39.9486 35.2299 36.0306 30.9258 36.0959L22.7726 37.9891L27.3379 43.2799Z" fill="#F79C13"/>
<path d="M28.3163 41.0585C29.2321 39.7859 29.815 38.3046 30.0127 36.7488L22.0555 37.0753L28.3163 41.0585Z" fill="#C44FA3"/>
<path d="M25.7078 37.9889C34.1212 37.6625 34.8384 32.8297 34.7078 29.6951C34.5772 26.5606 33.0775 25.0582 31.7728 23.6219C30.5342 19.4419 29.0336 13.3025 19.5114 15.5231C11.6856 17.4172 11.3592 21.6625 11.1633 27.4093C10.9675 31.981 12.7936 38.5774 25.7078 37.9889Z" fill="#D65A9F"/>
<path d="M29.9466 18.7882C28.3816 16.1107 25.5771 14.0859 19.5113 15.5231C18.5789 15.7392 17.664 16.0224 16.7721 16.3718C16.6213 16.53 16.5367 16.7405 16.5367 16.9603C16.5367 17.1791 16.6213 17.3897 16.7721 17.5478C18.9899 19.6378 23.5552 20.4212 25.8383 20.6171C28.1205 20.8129 29.5558 21.0088 29.9466 18.7882Z" fill="#C44FA3"/>
<path d="M31.7735 23.6211C31.4388 22.3559 31.025 21.1127 30.534 19.899C31.1206 22.1849 25.4465 22.1196 22.3165 21.2047C19.1856 20.2907 17.1637 20.813 17.2943 23.2294C17.5793 25.6035 18.1714 27.9308 19.0551 30.1523C19.9681 32.2423 22.5114 37.3362 28.8385 36.7487C29.803 36.6815 30.7436 36.4213 31.6061 35.9837C32.4686 35.546 33.2355 34.94 33.8598 34.2017C34.5347 32.8004 34.8271 31.2455 34.7076 29.6953C34.5126 26.5607 33.4037 25.1888 31.7735 23.6211Z" fill="#E66EA6"/>
<path d="M23.3189 23.4677C23.7437 23.3914 23.9708 22.6677 23.8255 21.8512C23.6802 21.0347 23.2177 20.4343 22.792 20.5097C22.3672 20.586 22.1392 21.3097 22.2844 22.1262C22.4306 22.9427 22.8931 23.544 23.3189 23.4677Z" fill="#3C2439"/>
<path d="M29.3239 23.7058C29.7146 23.6359 29.9234 22.9748 29.79 22.2291C29.6576 21.4834 29.2337 20.9353 28.8439 21.0052C28.454 21.0742 28.2453 21.7353 28.3777 22.481C28.5101 23.2267 28.934 23.7747 29.3239 23.7058Z" fill="#3C2439"/>
<path d="M21.9902 25.9721L31.3819 27.0175C31.186 28.7158 31.3819 28.3885 31.643 29.6951C31.9033 31.0007 29.5558 31.9157 26.6208 30.8702C23.6858 29.8257 22.7074 27.6704 21.9902 25.9721Z" fill="#4D1616"/>
<path d="M27.5339 28.1928H29.9466L30.3383 27.9316L30.6647 28.6507C30.6647 28.6507 28.7081 28.7812 27.9256 28.716C27.1422 28.6507 27.5339 28.1928 27.5339 28.1928Z" fill="#A1C4FF"/>
<path d="M26.6209 30.8703C27.6223 31.2409 28.6843 31.4184 29.7518 31.3935C29.0999 29.8258 27.4034 28.5192 25.2518 27.9316H23.034C23.8303 29.3182 25.1065 30.3637 26.6209 30.8703Z" fill="#C12254"/>
<path d="M31.3819 27.0177L31.1208 28.3234C31.1051 28.4328 31.05 28.533 30.9663 28.6056C30.8817 28.6774 30.775 28.7169 30.6647 28.7151L30.3383 27.997L29.9466 28.2581H27.5338C26.3596 28.1275 23.0339 28.0622 23.0339 28.0622C22.61 27.4296 22.2596 26.7501 21.9902 26.0375L31.3819 27.0177Z" fill="white"/>
<path d="M23.0339 28.0791H23.8816L23.3594 26.1206L21.9902 25.99C22.255 26.7247 22.6054 27.4263 23.0339 28.0791Z" fill="#E6EAF0"/>
<path d="M14.2939 30.9365C12.2756 31.3429 10.2215 31.5397 8.16368 31.5241C7.96783 31.4588 7.77198 31.3282 7.77198 31.1324C7.83726 29.8911 7.64141 28.0622 6.14172 27.2135C6.04242 27.1261 5.97529 27.0075 5.95139 26.877C5.92748 26.7464 5.94863 26.6122 6.01116 26.4954C6.72836 25.5152 6.85893 24.6665 6.46722 22.5112C6.40194 22.3154 6.59779 22.1195 6.85892 22.1195C9.36453 22.4441 11.8334 23.0123 14.2286 23.8178C14.2691 23.8482 14.3022 23.8877 14.3252 23.9328C14.3473 23.9778 14.3592 24.0284 14.3592 24.079C14.03 26.2067 14.2323 28.3831 14.9458 30.4133C15.0764 30.6745 15.0111 30.7407 14.2939 30.9365Z" fill="#D65A9F"/>
<path d="M12.6641 19.6378C18.5985 16.1106 21.7946 15.9148 27.5341 16.1759C25.9038 13.2372 23.8166 11.2125 18.4035 12.5844C12.9896 13.9554 12.6641 19.6378 12.6641 19.6378Z" fill="#4070EF"/>
<path d="M18.403 12.5847H18.0766C19.3252 13.5014 20.1859 14.8522 20.4893 16.373H20.5546C22.8625 16.0116 25.2054 15.9234 27.5335 16.1109C25.9033 13.2375 23.816 11.2128 18.403 12.5847Z" fill="white"/>
<path d="M29.4253 18.0047C28.9296 17.2691 28.2851 16.6466 27.5339 16.1767C25.2057 15.9882 22.8638 16.0765 20.5558 16.4379L24.86 15.1965C30.8606 13.8909 32.0991 15.0007 31.9042 15.9147C31.7083 16.8296 30.9911 17.2866 29.4253 18.0047Z" fill="#0F809C"/>
<path d="M29.425 14.6091C27.0775 14.4785 25.9686 15.2619 24.2078 16.3065C22.446 17.3519 21.0769 18.0048 16.7719 17.5478C21.8594 15.5231 27.1419 14.4133 29.425 14.6091Z" fill="#13B7BF"/>
<path d="M9.59827 36.0305C6.01134 37.9238 4.83716 40.7981 4.11995 42.6913C3.40275 44.5855 1.70629 45.7615 0.0760335 48.0474C-1.55422 50.3332 -0.967588 52.357 -0.510602 53.2066C-0.0545346 54.0553 -0.249465 56.4064 1.83686 57.0593C3.9241 57.713 7.12025 57.9089 8.81579 57.9742C10.2355 58.0248 11.6506 58.1553 13.0546 58.3659C14.3594 58.4964 15.1419 57.5825 15.5336 56.1453C15.9244 54.7082 16.8374 50.986 14.49 50.986H11.0336C10.5637 50.6449 10.0323 50.4003 9.46771 50.267C9.91918 50.0859 10.3109 49.7825 10.5996 49.3898C10.8874 48.9981 11.0603 48.5329 11.098 48.0474C12.1278 47.3127 12.9756 46.3518 13.5769 45.2383C13.9677 44.3896 15.1419 42.3649 14.6205 39.9485C14.0983 37.5321 11.9467 34.7892 9.59827 36.0305Z" fill="#F79C13"/>
<path d="M11.8816 35.3769C11.4899 34.0712 12.2724 33.0258 14.2291 32.4382C16.1857 31.8507 18.5985 33.0258 23.0341 36.8794C27.4688 40.732 28.3166 41.0584 28.3166 41.0584L27.3382 43.279L11.8816 35.3769Z" fill="#F79C13"/>
<path d="M8.55447 36.6833C11.1631 36.4875 13.1197 39.2303 12.9239 42.626C12.729 46.0226 12.0761 47.1324 11.0978 47.982C11.6918 47.8892 12.2573 47.6648 12.7538 47.3264C13.2503 46.9871 13.665 46.5421 13.9675 46.0226C15.0608 44.1735 15.3881 41.9704 14.8806 39.8831C14.3592 37.1403 12.9892 35.7694 10.5764 35.5073C10.2445 35.4531 9.90428 35.499 9.59809 35.6388C8.75032 36.0305 8.48918 36.2916 8.55447 36.6833Z" fill="#3C2439"/>
<path d="M48.7254 42.7133C49.016 42.443 48.456 41.3672 47.4749 40.3107C46.4947 39.2533 45.464 38.6152 45.1734 38.8855C44.8838 39.1558 45.4437 40.2316 46.4239 41.2881C47.405 42.3455 48.4348 42.9827 48.7254 42.7133Z" fill="#D65A9F"/>
<path d="M45.0787 39.1651C45.144 38.1206 45.2093 37.5321 45.2093 37.5321C44.5133 36.7974 43.9009 35.9865 43.3823 35.1157C43.1506 34.6643 42.8894 34.2275 42.5998 33.81C42.5189 33.6795 42.4821 33.5278 42.4931 33.3751C42.5051 33.2216 42.5658 33.0772 42.6651 32.9604C42.8416 32.8271 43.054 32.7499 43.2747 32.7379C43.4954 32.7269 43.7151 32.7811 43.9045 32.8952C44.4572 33.2915 44.961 33.7521 45.4042 34.267L45.9918 34.8546C48.0138 35.9 48.1434 36.814 48.2087 38.0553C48.274 39.2957 48.1434 41.1246 48.1434 41.1246L45.0787 39.1651Z" fill="#D65A9F"/>
<path d="M45.2735 35.9654C45.0776 34.5935 44.5563 33.4837 44.2951 31.7854C44.034 30.0871 44.034 30.2176 43.9687 29.7607C43.9605 29.6834 43.9669 29.6053 43.988 29.5308C44.0092 29.4554 44.0451 29.3855 44.0938 29.3248C44.1425 29.2641 44.2023 29.2135 44.2703 29.1768C44.3384 29.1391 44.4138 29.1161 44.491 29.1078C44.7043 29.0839 44.9204 29.1363 45.0988 29.2558C45.2781 29.3754 45.4096 29.5538 45.4693 29.7607L46.3171 33.0267L48.8604 34.9852C49.7735 35.7042 50.2305 36.9446 49.904 39.0346C49.6218 40.2998 49.2512 41.5439 48.7951 42.7577L45.0776 39.1652L45.2735 35.9654Z" fill="#D65A9F"/>
<path d="M21.9902 22.8377L30.2077 23.2294L30.9902 24.7971L21.9902 23.8179V22.8377Z" fill="#E66EA6"/>
<path d="M27.4685 32.5036C28.5149 32.6433 29.5787 32.5771 30.5994 32.3077C31.186 32.1119 30.8596 32.83 30.2077 33.1564C29.8638 33.3817 29.4684 33.5178 29.0583 33.5518C28.6482 33.5858 28.2363 33.5178 27.8602 33.3532C27.1421 32.8953 26.9471 32.4383 27.4685 32.5036Z" fill="#C44FA3"/>
<path d="M22.1861 26.4953L31.3166 27.2134L31.3819 27.0175L21.9902 25.9721L22.1861 26.4953Z" fill="#5E1B1B"/>
<path d="M21.1424 27.0177C22.6421 26.6913 22.3809 25.6458 22.2513 25.1235C22.1207 24.6013 22.0555 24.9277 21.8596 25.4499C21.6656 25.9023 21.4008 26.3207 21.0771 26.6913C20.8813 26.8871 20.8813 27.083 21.1424 27.0177Z" fill="#C44FA3"/>
<path d="M14.294 30.9358C12.2767 31.3432 10.2216 31.54 8.16379 31.5243H7.57715C7.51187 31.3938 7.51187 31.3285 7.77208 31.2632C9.07684 31.0011 10.9682 30.4789 12.6638 30.0219C12.8385 29.9584 12.9883 29.8398 13.0886 29.6835C13.1897 29.5263 13.2357 29.3414 13.221 29.1557C13.2063 28.97 13.1309 28.7944 13.0067 28.6564C12.8826 28.5176 12.7162 28.4238 12.5332 28.3889L6.14182 27.279C5.55519 27.2138 5.55519 26.7568 6.01126 26.6262L12.0119 26.0377C12.1672 26.0552 12.3236 26.0101 12.4458 25.9118C12.5681 25.8143 12.6463 25.6718 12.6638 25.5155C12.6812 25.3601 12.6362 25.2038 12.5378 25.0806C12.4403 24.9583 12.2978 24.8801 12.1424 24.8626L8.03321 23.6213C6.92431 23.3602 6.59881 23.099 6.46825 22.7073C6.40296 22.5115 6.59881 22.3156 6.85902 22.3156C9.36555 22.6402 11.8335 23.2085 14.2287 24.0139C14.2701 24.0443 14.3023 24.0838 14.3253 24.1289C14.3474 24.1739 14.3593 24.2245 14.3593 24.2751C14.0311 26.4028 14.2324 28.5792 14.9469 30.6094C15.0774 30.6747 15.0121 30.74 14.294 30.9358Z" fill="#C44FA3"/>
<path d="M49.5786 36.5527C49.7736 37.7278 49.2522 37.7931 48.8605 37.075C48.4697 36.3569 47.8822 35.704 46.2519 35.3114C45.9089 34.8351 45.5154 34.3974 45.0777 34.0057C44.8782 33.2352 44.7476 32.4481 44.6869 31.6546C44.6216 31.2629 44.2299 29.6299 44.8175 29.4993C44.8993 29.4653 44.9885 29.4533 45.0768 29.4643C45.1651 29.4754 45.2497 29.5085 45.3214 29.5609C45.3931 29.6124 45.4501 29.6823 45.4878 29.7632C45.5255 29.8441 45.5411 29.9333 45.5347 30.0216C45.6 30.4133 46.4478 33.4182 46.4478 33.4182C46.571 32.4196 46.7898 31.4358 47.0997 30.4786C47.2955 30.1521 48.1433 30.2174 48.078 31.067C48.0127 31.9157 47.7525 33.9404 47.7525 33.9404L49.2522 32.6991C49.4481 32.5685 49.9041 32.2421 50.0347 32.5033C50.1653 32.7644 50.1653 33.0255 49.9694 33.2214C49.7736 33.4181 48.6656 34.5933 48.6656 34.5933C49.0775 35.19 49.3855 35.8529 49.5786 36.5527Z" fill="#E66EA6"/>
<path d="M32.7508 39.165C36.0122 42.626 37.3814 48.0473 37.5119 52.2264C38.1648 50.5943 38.6861 44.5854 35.49 40.5369C34.838 39.6873 32.8814 38.9039 32.8814 38.9039L32.7508 39.165Z" fill="#3C2439"/>
<path d="M11.8813 35.3768C14.294 35.3116 15.7937 35.5074 16.9026 36.7487C18.0115 37.9891 19.8376 40.5361 24.9251 42.1038C26.229 42.4955 25.7729 42.6261 23.8815 42.365C21.7032 42.1121 19.6086 41.3756 17.7504 40.2097C16.4263 39.1238 15.2236 37.898 14.1634 36.5528C13.7138 36.0122 13.0922 35.6435 12.4026 35.5074L11.8813 35.3768Z" fill="#F08024"/>
<path d="M32.7511 39.1652C31.7727 40.7983 30.5995 42.1692 31.0555 42.1692C31.5125 42.1692 33.0775 40.6024 33.4692 40.014L32.7511 39.1652Z" fill="#F08024"/>
<path d="M31.5127 47.0672C31.0566 45.173 29.1652 42.888 29.1652 42.888C29.1652 42.888 32.2952 44.3243 32.4257 42.4954C32.5563 40.6675 30.4038 41.4509 29.0346 42.626C25.3824 40.4064 23.8818 40.7981 24.6643 43.2798C25.4468 45.7615 28.8388 42.9534 28.8388 42.9534C27.8715 44.8162 27.2113 46.8225 26.8821 48.896" stroke="#E6EAF0" stroke-linecap="round" stroke-linejoin="round"/>
</g>
<defs>
<clipPath id="clip0_85_2392">
<rect width="45" height="45" rx="22.5" fill="white"/>
</clipPath>
</defs>
</svg>
