<svg width="45" height="45" viewBox="0 0 45 45" fill="none" xmlns="http://www.w3.org/2000/svg">
<g clip-path="url(#clip0_85_2347)">
<rect width="45" height="45" rx="22.5" fill="#2E91F2"/>
<path d="M40.1667 37.437C39.9353 38.1648 39.8219 38.9244 39.8309 39.6874C39.8332 40.3676 39.9233 41.0451 40.0994 41.7022C39.495 42.2397 38.8907 42.7768 38.2523 43.2471C34.8945 42.0717 30.6633 40.493 26.4655 38.7134L28.8836 31.8625L40.1667 37.437Z" fill="#0EC2BC"/>
<path d="M38.924 37.3027L39.3271 37.0342L28.8836 31.8625L26.4655 38.7134C29.9244 40.1573 33.3832 41.5008 36.372 42.5754C35.4319 42.0379 36.0362 39.0828 38.924 37.3027V37.3027Z" fill="#FFE75C"/>
<path d="M35.8683 42.374L36.372 42.5754C35.4319 42.0379 36.0362 39.0828 38.924 37.3027L39.3272 37.0342L38.6555 36.6981L38.4876 36.7653C34.2228 39.0156 34.7602 42.0045 35.8683 42.374V42.374Z" fill="white"/>
<path d="M30.4281 34.1796L28.4135 33.2393L26.4655 38.7133C28.682 39.6536 30.9319 40.5268 33.0474 41.3328C31.7378 39.0828 30.7976 37.0004 30.4281 34.1796V34.1796Z" fill="black"/>
<path d="M4.36945 34.549C6.15005 38.443 9.01517 41.7518 12.6278 44.0861C16.2268 46.4105 20.4248 47.658 24.7198 47.6796C27.9435 43.8176 30.0927 38.1421 30.8317 33.8432C30.8317 33.8432 22.7726 30.7204 4.37022 34.5487L4.36945 34.549Z" fill="#0EC2BC"/>
<path d="M29.32 35.2541C27.7752 39.5527 27.0702 39.9559 23.3425 39.7879C18.6076 39.5527 16.761 38.2768 18.5744 33.2393L21.0931 32.6347C16.9625 32.6347 11.4214 33.0713 4.36981 34.549C6.15012 38.4431 9.01498 41.752 12.6274 44.0865C16.2264 46.4108 20.4244 47.6584 24.7194 47.68C27.9431 43.818 30.0923 38.1425 30.8313 33.8435L29.4206 33.4407L29.32 35.2541Z" fill="#FFE75C"/>
<path d="M37.9502 20.7463C38.2191 23.1644 36.7415 25.1458 34.6929 25.1792C32.6447 25.213 30.7976 23.2649 30.6634 20.8472C30.5291 18.4292 31.973 16.6492 33.9543 16.6158C35.9352 16.582 37.7153 18.4292 37.9502 20.7463V20.7463Z" fill="#FF78B9"/>
<path d="M36.6069 20.9815C36.8084 23.6681 35.0287 25.9181 32.611 25.9181C30.1929 25.9181 28.1783 23.6681 28.0777 20.9815C27.9771 18.2945 29.7901 16.2797 32.1073 16.2797C34.4244 16.2797 36.4057 18.362 36.6069 20.9815Z" fill="black"/>
<path d="M32.4767 12.082C32.4052 11.5886 32.2067 11.1218 31.9002 10.7267C31.595 10.333 31.1918 10.0247 30.7303 9.83203L28.4468 10.7052C29.5553 10.7723 29.7901 11.3094 29.958 12.4177C30.2939 14.6006 30.7976 17.7575 31.0324 18.9329L33.6854 18.6644L32.4767 12.082V12.082Z" fill="black"/>
<path d="M33.9543 19.1681C33.7953 19.1783 33.6383 19.1289 33.5144 19.0296C33.3897 18.9298 33.307 18.7876 33.2823 18.6306C33.1484 17.8917 32.9132 16.8172 32.6447 15.6417C32.3758 14.4663 32.2415 13.6603 32.0399 12.7871C31.7041 11.1751 31.6372 11.0408 28.8163 10.7385C25.9958 10.4362 19.7161 10.2348 17.2647 10.2348C16.4921 10.2348 16.022 10.3691 15.7868 10.6043C15.5519 10.8394 15.5183 11.2756 15.5856 12.0149C15.6525 12.7534 16.0557 16.2463 16.3246 18.2278C16.3431 18.4058 16.2899 18.5839 16.1764 18.7231C16.1203 18.7915 16.0511 18.8483 15.9727 18.89C15.8943 18.9318 15.8084 18.9577 15.7199 18.9663C15.6333 18.9806 15.5448 18.9768 15.4598 18.9554C15.3748 18.9339 15.2953 18.8952 15.2262 18.8416C15.1567 18.7879 15.099 18.7205 15.0569 18.6438C15.0148 18.567 14.989 18.4825 14.9813 18.3954C14.7124 16.414 14.3765 13.3584 14.276 12.1492C14.1754 10.94 14.1754 10.3691 14.8134 9.69775C15.4513 9.02563 16.0893 8.89136 17.2647 8.89136C19.4809 8.89136 25.9285 9.09315 28.9506 9.42883C31.973 9.7645 32.8462 9.93253 33.3496 12.5186C33.5512 13.3917 33.7527 14.3992 33.988 15.3728C34.2228 16.3472 34.4581 17.6232 34.626 18.3621C34.6564 18.5395 34.6176 18.7217 34.5176 18.8719C34.4174 19.0215 34.2642 19.1274 34.0882 19.1681H33.9543V19.1681Z" fill="#FF78B9"/>
<path d="M32.2752 14.5334C30.4618 14.3654 28.4136 15.0371 26.8014 19.47L34.7598 21.6195C35.3309 16.6491 34.0886 14.7015 32.2752 14.5338V14.5334Z" fill="#2AE5C4"/>
<path d="M41.4427 28.9403C41.0732 33.7093 33.4842 36.9333 24.5179 36.1948C15.5519 35.4555 8.29878 31.0898 8.1978 26.2875C8.09721 21.4852 15.6525 17.8584 25.0216 18.5969C34.3907 19.3357 41.8122 24.0038 41.4427 28.9407V28.9403Z" fill="#2AE5C4"/>
<path d="M35.4988 24.2727L32.8795 26.3884L22.6039 23.332C23.9135 27.5635 23.6783 36.4296 19.2456 35.3213C20.9752 35.7587 22.7388 36.0508 24.5179 36.1944C28.5478 36.5305 32.2752 36.0601 35.2303 35.019C40.133 33.2727 39.1592 27.4963 35.4988 24.2727V24.2727Z" fill="#ADFDDC"/>
<path d="M21.6974 13.2574C20.0852 12.9889 17.2984 13.6603 14.8803 20.7797L24.35 18.9996C24.2157 15.2385 23.3092 13.526 21.6974 13.2574V13.2574Z" fill="#2AE5C4"/>
<path d="M35.4988 24.2727C31.2677 24.4069 27.8088 24.1384 22.6039 23.332C26.5665 25.8509 29.6895 28.1681 33.5512 28.0338C36.8758 27.9329 36.0362 25.4144 35.4988 24.2727Z" fill="#9E0960"/>
<path d="M40.2275 35.6604C42.0927 33.522 42.0641 30.4442 40.1636 28.7861C38.2628 27.1281 35.2098 27.5171 33.3446 29.6558C31.4793 31.7942 31.508 34.872 33.4084 36.5301C35.3092 38.1882 38.3622 37.7992 40.2275 35.6604Z" fill="#0C1AAD"/>
<path d="M38.5882 29.2764C39.12 29.2814 39.6444 29.4011 40.1249 29.627C40.6066 29.8536 41.0332 30.1807 41.3754 30.5861C41.1741 30.0257 40.8121 29.5358 40.3338 29.1767C39.8575 28.819 39.2854 28.6084 38.6891 28.5713H38.6218C37.2039 28.5594 35.8311 29.0647 34.7644 29.9911C33.6928 30.9223 32.9991 32.208 32.8126 33.6087C32.4767 36.3962 34.2901 37.3027 35.3645 37.5041C34.7019 37.1289 34.1708 36.5619 33.8421 35.8791C33.5118 35.1941 33.3987 34.4259 33.5175 33.6759C33.6867 32.4557 34.294 31.3371 35.228 30.5251C36.1574 29.7173 37.3522 29.2733 38.5882 29.2764V29.2764Z" fill="black"/>
<path d="M22.6004 26.1467C23.5321 25.6472 23.7263 24.1952 23.0337 22.9039C22.3412 21.6126 21.025 20.9708 20.0933 21.4703C19.1617 21.9701 18.9675 23.4218 19.66 24.7131C20.3525 26.0044 21.6688 26.6466 22.6004 26.1467V26.1467ZM38.1537 25.8068C38.6129 25.2966 38.2253 24.1994 37.2882 23.3554C36.3507 22.5114 35.2191 22.2406 34.7598 22.7508C34.3006 23.2607 34.6882 24.3582 35.6253 25.2022C36.5624 26.0462 37.6944 26.3167 38.1537 25.8068V25.8068Z" fill="#5865F2"/>
<path d="M18.6413 19.638C18.8429 22.3246 17.0295 24.5746 14.6454 24.5746C12.261 24.5746 10.1791 22.3246 10.1118 19.638C10.0448 16.9515 11.8245 14.97 14.108 14.97C16.3915 14.97 18.4401 17.0186 18.6413 19.638V19.638Z" fill="black"/>
<path d="M13 18.4963C12.7037 16.425 12.5131 14.3401 12.4289 12.2497C12.4289 10.6039 13.4364 9.89876 15.6866 9.12689L15.0482 11.6117L15.6866 18.2612L13 18.4963Z" fill="#FF78B9"/>
<path d="M16.7273 19.7389C16.9622 21.9889 15.5519 23.8695 13.638 23.9032C11.724 23.9366 9.97791 22.0898 9.84327 19.8061C9.70902 17.5223 11.0856 15.8431 12.9326 15.8431C14.7797 15.8431 16.4921 17.5223 16.7273 19.7389Z" fill="#FF78B9"/>
<path d="M17.2647 8.89233C16.0893 8.89233 15.3171 9.16088 14.8134 9.69796C14.3096 10.2354 14.175 11.3437 14.2756 12.1494C14.3765 12.9558 14.7128 16.4146 14.9813 18.396C14.9894 18.483 15.0153 18.5674 15.0574 18.6441C15.0995 18.7208 15.1569 18.7882 15.2262 18.8422C15.2953 18.8956 15.3749 18.9343 15.4599 18.9558C15.5448 18.9772 15.6333 18.981 15.7199 18.9669C16.0893 18.9335 16.2909 20.6127 16.7273 19.7395C16.2236 16.3474 15.7199 13.2243 15.5856 12.0155C15.4513 10.8063 15.5856 10.84 15.7868 10.6049C15.9887 10.3697 16.4921 10.2354 17.2647 10.2354C19.7161 10.2354 26.0291 10.4706 28.8163 10.7391L28.9506 9.42942C25.9285 9.09374 19.4809 8.89233 17.2647 8.89233V8.89233Z" fill="#FF78B9"/>
<path d="M14.6118 19.638C14.7797 21.1495 13.9065 22.4589 12.6305 22.4589C11.3545 22.4589 10.2464 21.2163 10.1791 19.7051C10.1118 18.1936 11.0187 17.0857 12.194 17.0523C13.3694 17.0186 14.4439 18.1603 14.6118 19.638V19.638Z" fill="white"/>
<path d="M13.3358 19.7052C13.4364 20.4778 12.9663 21.1829 12.2946 21.1829C11.623 21.1829 11.0187 20.5116 10.985 19.7389C10.9513 18.9663 11.4551 18.3617 12.0598 18.3283C12.6641 18.2949 13.2685 18.9329 13.3358 19.7055V19.7052Z" fill="#2AE5C4"/>
<path d="M12.7647 18.5968L12.1604 19.7723L13.2348 19.2352V18.5968H12.7647Z" fill="white"/>
<path d="M34.1528 18.4618C34.2263 17.5004 33.7771 16.6818 33.1484 16.633C32.5197 16.5847 31.9498 17.3251 31.8759 18.2865C31.802 19.2483 32.2516 20.0669 32.8803 20.1153C33.509 20.164 34.0785 19.4236 34.1528 18.4618ZM23.3943 17.4122C23.4261 16.3369 22.8809 15.4484 22.1768 15.4273C21.4722 15.4066 20.8753 16.2613 20.8431 17.3366C20.8114 18.4119 21.3566 19.3008 22.0611 19.3215C22.7652 19.3422 23.3626 18.4875 23.3943 17.4122V17.4122Z" fill="black"/>
<path d="M26.5665 25.8176C28.8836 27.1944 31.0661 28.1347 33.5512 28.0338C34.2115 28.0765 34.8657 27.8863 35.3982 27.4967C33.3832 26.1866 30.9319 25.3806 26.5665 25.8176Z" fill="#FF78B9"/>
<path d="M3.09395 30.9222C10.8176 28.4032 14.4444 27.1607 16.4257 29.5787C18.4066 31.9967 16.4593 36.2953 14.5117 40.4259C11.9593 40.7619 10.4818 41.1314 8.4668 40.5939C3.22821 39.2171 -0.196992 38.4782 -0.532432 35.6911C-0.801326 33.4745 0.138834 31.8624 3.09395 30.9222V30.9222Z" fill="#FFE75C"/>
<path d="M13.6043 36.2953C13.6043 36.2953 9.47376 38.7467 9.44049 41.299V41.6013C10.9033 42.9614 12.5404 44.1245 14.3096 45.0605C17.6005 44.9596 17.936 43.7842 17.5669 42.1722C16.6937 38.2096 16.8616 37.5041 13.6043 36.2949V36.2953Z" fill="#2AE5C4"/>
<path d="M15.2161 37.0004C17.9697 38.5119 18.3392 39.2171 18.0707 40.8624C18.0051 41.3317 17.8005 41.7711 17.483 42.125C17.167 42.4774 16.7518 42.7278 16.2909 42.8439L15.2161 37.0004Z" fill="#2AE5C4"/>
<path d="M0.809998 32.0638L2.92555 38.9819C3.63086 39.2504 4.4035 39.4856 5.27634 39.7545C6.28382 39.217 7.45921 38.1425 8.02988 36.0601C9.0037 32.4667 7.12338 30.4518 4.90685 30.3172L3.09346 30.9222C2.26967 31.1645 1.49631 31.5512 0.809998 32.0638V32.0638Z" fill="white"/>
<path d="M-0.533276 35.6907C-0.298043 37.4036 1.07892 38.3439 3.36239 39.1499C5.31003 38.411 7.02244 37.2694 7.19035 35.5564C7.5935 31.325 4.33621 30.5194 3.0935 30.9222C0.138377 31.8621 -0.801783 33.4745 -0.533276 35.6907Z" fill="#0EC2BC"/>
<path d="M9.00369 35.5902C8.92928 35.5938 8.8558 35.5726 8.79495 35.5299C8.73409 35.4873 8.68936 35.4258 8.66787 35.355C8.65329 35.2886 8.65923 35.2194 8.6849 35.1564C8.71057 35.0934 8.75479 35.0395 8.81179 35.0017C8.8496 34.9768 8.89212 34.9599 8.93676 34.9518C10.6398 34.5572 12.3211 34.0752 13.9738 33.5078C14.0627 33.4859 14.1567 33.4978 14.2373 33.5412C14.3181 33.5849 14.3798 33.6568 14.4102 33.743C14.4337 33.8025 14.4378 33.8679 14.4218 33.9299C14.4059 33.9918 14.3707 34.0472 14.3212 34.0883C14.2883 34.1151 14.2501 34.1347 14.209 34.1458C12.5222 34.7134 10.8073 35.1955 9.07101 35.5902H9.00369V35.5902ZM39.8723 35.3639C40.7625 34.3434 40.8268 32.9431 40.0162 32.2357C39.2057 31.5287 37.8271 31.7827 36.9369 32.8027C36.047 33.8232 35.9828 35.2234 36.7933 35.9309C37.6039 36.6379 38.9824 36.3839 39.8723 35.3639Z" fill="black"/>
<path d="M42.0807 34.3139C41.0197 35.3624 40.2853 36.6915 39.9651 38.1425L36.8084 35.9259L40.0325 32.1648L42.0807 34.3139V34.3139Z" fill="black"/>
<path d="M15.6525 40.7953C15.9347 40.1968 16.0259 39.5272 15.914 38.8759C15.802 38.2247 15.4923 37.6228 15.0261 37.1508C14.7176 36.8393 14.348 36.5939 13.9401 36.4296C12.261 35.7245 9.33988 34.6162 3.8324 32.7018L3.26134 32.5338C2.81922 32.3892 2.34849 32.3524 1.88899 32.4265C1.42948 32.5006 0.994736 32.6833 0.621545 32.9592C0.246442 33.2358 -0.0567555 33.5971 -0.262902 34.0131C-0.469627 34.4303 -0.573708 34.8902 -0.566616 35.355C-0.432363 38.2096 2.89224 39.217 7.96253 41.0642C11.7909 42.4411 14.746 42.8777 15.6529 40.7953H15.6525Z" fill="url(#paint0_linear_85_2347)"/>
<path d="M19.2364 14.8403C19.5273 14.6101 19.6879 14.3289 19.5962 14.2127C19.5037 14.0964 19.1934 14.1889 18.9029 14.4191C18.6119 14.6496 18.451 14.9308 18.543 15.0471C18.6355 15.1633 18.9454 15.0709 19.2364 14.8403V14.8403ZM30.0234 15.9172C30.314 15.687 30.475 15.4058 30.3833 15.2895C30.2904 15.1733 29.9805 15.2658 29.6896 15.4963C29.399 15.7265 29.238 16.0077 29.3301 16.1239C29.4222 16.2402 29.7325 16.1477 30.0234 15.9172Z" fill="#2FFFDA"/>
<path d="M41.0732 23.6347C40.9726 23.6347 40.9053 23.5672 40.8384 23.4667C40.815 23.4041 40.8158 23.3352 40.8406 23.2731C40.8653 23.2111 40.9124 23.1603 40.9726 23.1306C42.0202 22.6528 43.0208 22.0795 43.9614 21.4181C44.0214 21.3859 44.0907 21.375 44.1579 21.3872C44.225 21.3994 44.2859 21.434 44.3305 21.4852C44.3623 21.5454 44.373 21.6144 44.3609 21.6813C44.3488 21.7482 44.3145 21.8092 44.2636 21.8546C43.2813 22.5158 42.2484 23.0997 41.1742 23.6009L41.0732 23.6343V23.6347ZM45.4722 26.6569H45.4053C44.2934 26.3765 43.1581 26.1968 42.0134 26.1199C41.945 26.1042 41.8842 26.0655 41.8414 26.0104C41.7986 25.9552 41.7764 25.8871 41.7785 25.8176C41.7868 25.7527 41.8186 25.693 41.868 25.6498C41.9175 25.6065 41.9811 25.5825 42.047 25.5824C43.2248 25.66 44.3934 25.8397 45.5395 26.1195C45.6076 26.1425 45.6649 26.1889 45.702 26.2507C45.7388 26.3121 45.7527 26.3849 45.7411 26.4555C45.7211 26.5115 45.6849 26.5604 45.6371 26.5962C45.5893 26.632 45.532 26.6531 45.4722 26.6569V26.6569Z" fill="#3072FF"/>
<path d="M18.0033 41.1985C17.8021 40.6277 17.6338 40.0564 17.4327 39.4856C17.3961 39.4065 17.3299 39.3447 17.2481 39.3133C17.1667 39.2819 17.076 39.2835 16.9958 39.3179C16.9336 39.3347 16.8784 39.3708 16.8384 39.4209C16.7984 39.471 16.7756 39.5326 16.7734 39.5965C16.7717 39.6389 16.7789 39.6812 16.7947 39.7208C17.0632 40.4596 17.3317 41.2656 17.5332 42.0379C17.7617 41.804 17.9239 41.5145 18.0033 41.1985V41.1985Z" fill="#0EC2BC"/>
<path d="M26.2643 45.5642C25.1559 46.2693 22.8391 46.9411 18.0033 46.6388C18.9926 46.9448 20.0026 47.1805 21.0257 47.3443C23.5444 47.2771 25.4248 46.874 26.6334 46.1351C26.6711 46.1109 26.7036 46.0795 26.729 46.0428C26.7544 46.006 26.7721 45.9646 26.7812 45.921C26.7951 45.8554 26.7893 45.7872 26.7645 45.7248C26.7398 45.6625 26.6972 45.6086 26.6419 45.57C26.5867 45.5318 26.5213 45.5108 26.454 45.5098C26.3867 45.5088 26.3207 45.5277 26.2643 45.5642V45.5642ZM23.1026 41.5856C23.4094 41.289 23.4493 40.8325 23.1916 40.5659C22.9339 40.2989 22.4758 40.3231 22.1694 40.6192C21.8626 40.9154 21.8227 41.3719 22.0804 41.6389C22.3381 41.9059 22.7954 41.8818 23.1026 41.5856ZM22.3648 45.0329C22.6716 44.7367 22.7114 44.2802 22.4538 44.0132C22.1961 43.7466 21.7384 43.7704 21.4316 44.0665C21.1248 44.3631 21.0849 44.8196 21.3426 45.0862C21.6003 45.3532 22.058 45.3295 22.3648 45.0329Z" fill="white"/>
</g>
<defs>
<linearGradient id="paint0_linear_85_2347" x1="14.847" y1="39.8159" x2="0.573889" y2="35.156" gradientUnits="userSpaceOnUse">
<stop offset="0.12" stop-color="#2AE5C4"/>
<stop offset="0.23" stop-color="#25DFC3"/>
<stop offset="0.69" stop-color="#14CABE"/>
<stop offset="1" stop-color="#0EC2BC"/>
</linearGradient>
<clipPath id="clip0_85_2347">
<rect width="45" height="45" rx="22.5" fill="white"/>
</clipPath>
</defs>
</svg>
