<svg width="45" height="45" viewBox="0 0 45 45" fill="none" xmlns="http://www.w3.org/2000/svg">
<g clip-path="url(#clip0_85_2294)">
<rect width="45" height="45" rx="22.5" fill="#EB459F"/>
<path d="M22.5059 8.16585C23.6161 5.08611 26.5884 4.79963 27.412 5.08611C28.2357 5.3726 28.558 6.66179 26.66 6.84085C24.762 7.0199 23.9742 7.12733 22.5059 8.16585Z" fill="#FF78B9"/>
<path d="M13.1947 32.5171C7.7156 27.7543 5.49533 22.2394 5.02979 19.1597C4.56424 16.08 9.64939 18.3002 13.7318 29.6523L13.1947 32.5171Z" fill="#3DDB7F"/>
<path d="M6.46274 20.664C8.11004 24.066 12.085 29.3302 12.085 29.3302" stroke="black" stroke-linecap="round" stroke-linejoin="round"/>
<path d="M13.7323 42.2936C17.6679 42.2936 20.8586 39.1029 20.8586 35.1673C20.8586 31.2315 17.6679 28.0409 13.7323 28.0409C9.79628 28.0409 6.6059 31.2315 6.6059 35.1673C6.6059 39.1029 9.79628 42.2936 13.7323 42.2936Z" fill="#3DDB7F"/>
<path d="M28.4147 27.7184C33.4282 22.6333 35.9708 16.8319 37.5106 13.788C39.0505 10.7441 40.3397 11.6393 40.2681 16.3664C40.1965 21.0934 37.9046 27.6468 30.4917 30.2252L28.4147 27.7184Z" fill="#3DDB7F"/>
<path d="M39.0148 15.3638C36.902 21.7381 32.4256 28.0766 32.4256 28.0766" stroke="black" stroke-linecap="round" stroke-linejoin="round"/>
<path d="M33.5 41.5775C37.6533 41.5775 41.0202 38.2105 41.0202 34.0572C41.0202 29.9039 37.6533 26.5369 33.5 26.5369C29.3466 26.5369 25.9797 29.9039 25.9797 34.0572C25.9797 38.2105 29.3466 41.5775 33.5 41.5775Z" fill="#3DDB7F"/>
<path d="M45.4964 37.1369C45.4878 40.3556 44.6069 43.5116 42.9467 46.2691C41.2869 49.0265 38.9101 51.2822 36.0699 52.796C33.2294 54.31 30.0319 55.0252 26.8171 54.8658C23.6024 54.7065 20.4911 53.6783 17.8146 51.891H17.7788C16.7027 51.1078 15.7283 50.1936 14.8781 49.1694C12.443 44.2275 12.1565 38.6768 14.0187 34.8092C13.6247 33.162 13.2666 31.5505 12.9802 30.0822C12.8369 29.3302 12.6937 28.5782 12.5862 27.862C11.6193 22.0248 11.87 17.6917 14.8423 14.5403C18.9606 10.1356 27.4119 11.0667 30.6349 16.0802C31.3665 17.2441 31.8428 18.5502 32.0315 19.9119C32.1547 20.5749 32.2385 21.2445 32.2822 21.9174C32.4115 24.1864 32.3517 26.4623 32.1032 28.7214L39.2295 37.1728C40.6978 35.2032 42.4883 34.3437 44.243 34.2005L45.2457 34.1289C45.4173 35.1222 45.5011 36.1289 45.4964 37.1369Z" fill="#3DDB7F"/>
<path d="M45.2457 34.093C40.1605 33.8065 37.224 36.8146 31.2794 44.299C25.3348 51.7835 16.3821 52.3565 13.7321 46.9849H12.9442C14.8573 49.8601 17.5671 52.1151 20.7421 53.4741C23.9167 54.8332 27.419 55.2375 30.82 54.6369C34.2209 54.0367 37.373 52.4578 39.8905 50.094C42.408 47.7297 44.1821 44.6833 44.995 41.3267C45.395 39.9659 45.5998 38.5553 45.6038 37.1369C45.5769 36.1134 45.4569 35.0946 45.2457 34.093Z" fill="white"/>
<path d="M14.8424 15.2206C15.2005 18.1213 23.7235 14.1463 28.6295 13.8957L16.812 12.9646C16.2669 13.2569 15.7613 13.618 15.3079 14.0389C15.1399 14.1832 15.01 14.3662 14.929 14.5721C14.8477 14.7781 14.818 15.0007 14.8424 15.2206Z" fill="black"/>
<path d="M28.343 34.9164C30.2768 36.7786 29.0234 39.6435 25.2991 40.0016C21.5748 40.3597 16.8119 38.1394 14.8781 36.313C12.9444 34.4867 14.3768 32.6604 18.1011 32.3023C21.8255 31.9441 26.4092 33.0901 28.343 34.9164Z" fill="#990F61"/>
<path d="M27.7701 34.4509C25.5856 32.911 21.5032 31.9441 18.1012 32.3022C17.1185 32.3688 16.1581 32.6241 15.2721 33.0542C15.3079 34.809 16.8478 36.3488 20.1782 36.134C21.0018 36.0982 21.4316 35.0596 21.4316 35.0596C26.3377 36.1698 27.7701 36.5279 27.7701 34.4509Z" fill="white"/>
<path d="M21.4315 35.0599C17.4923 34.0214 15.2004 34.5943 18.2086 35.8835C21.2167 37.1727 21.4315 35.0599 21.4315 35.0599Z" fill="#8CD9FF"/>
<path d="M18.2087 40.6105C19.7514 40.6105 21.0019 39.36 21.0019 37.8173C21.0019 36.2745 19.7514 35.024 18.2087 35.024C16.666 35.024 15.4154 36.2745 15.4154 37.8173C15.4154 39.36 16.666 40.6105 18.2087 40.6105Z" fill="#FFE75C"/>
<path d="M14.9856 41.3625C16.1723 41.3625 17.1342 40.4006 17.1342 39.2138C17.1342 38.0271 16.1723 37.0652 14.9856 37.0652C13.7988 37.0652 12.8369 38.0271 12.8369 39.2138C12.8369 40.4006 13.7988 41.3625 14.9856 41.3625Z" fill="#FFE75C"/>
<path d="M14.9857 38.4976C15.8362 38.4976 16.5256 37.8082 16.5256 36.9577C16.5256 36.1072 15.8362 35.4179 14.9857 35.4179C14.1352 35.4179 13.4459 36.1072 13.4459 36.9577C13.4459 37.8082 14.1352 38.4976 14.9857 38.4976Z" fill="#FFE75C"/>
<path d="M22.9714 47.8443C23.8219 47.8443 24.5113 47.155 24.5113 46.3045C24.5113 45.4539 23.8219 44.7646 22.9714 44.7646C22.1209 44.7646 21.4315 45.4539 21.4315 46.3045C21.4315 47.155 22.1209 47.8443 22.9714 47.8443Z" fill="#FFE75C"/>
<path d="M26.1945 42.6517C26.7481 42.6517 27.1972 42.2026 27.1972 41.649C27.1972 41.0954 26.7481 40.6463 26.1945 40.6463C25.6409 40.6463 25.1918 41.0954 25.1918 41.649C25.1918 42.2026 25.6409 42.6517 26.1945 42.6517Z" fill="#FFE75C"/>
<path d="M23.6517 42.6874C25.1153 42.6874 26.3017 41.501 26.3017 40.0374C26.3017 38.5739 25.1153 37.3874 23.6517 37.3874C22.1881 37.3874 21.0017 38.5739 21.0017 40.0374C21.0017 41.501 22.1881 42.6874 23.6517 42.6874Z" fill="#FFE75C"/>
<path d="M16.0959 44.5139C17.5595 44.5139 18.7459 43.3275 18.7459 41.8639C18.7459 40.4003 17.5595 39.2139 16.0959 39.2139C14.6323 39.2139 13.4459 40.4003 13.4459 41.8639C13.4459 43.3275 14.6323 44.5139 16.0959 44.5139Z" fill="#FFE75C"/>
<path d="M21.8966 41.4342C23.3602 41.4342 24.5467 40.2478 24.5467 38.7842C24.5467 37.3206 23.3602 36.1342 21.8966 36.1342C20.4334 36.1342 19.2466 37.3206 19.2466 38.7842C19.2466 40.2478 20.4334 41.4342 21.8966 41.4342Z" fill="#FFE75C"/>
<path d="M16.31 21.4517L15.4864 20.5206" stroke="black" stroke-linecap="round" stroke-linejoin="round"/>
<path d="M16.3105 22.526L15.093 22.1679" stroke="black" stroke-linecap="round" stroke-linejoin="round"/>
<path d="M17.9472 25.5075C18.826 25.3683 19.3481 24.0519 19.1128 22.5673C18.8779 21.0827 17.9748 19.992 17.0956 20.1312C16.2165 20.2705 15.6947 21.5868 15.9296 23.0715C16.1649 24.5561 17.068 25.6467 17.9472 25.5075Z" fill="white"/>
<path d="M17.4365 23.8614C17.8297 23.8194 18.0872 23.2114 18.0116 22.5034C17.9357 21.7954 17.5558 21.2556 17.1626 21.2976C16.769 21.3397 16.5115 21.9477 16.5871 22.6556C16.663 23.3636 17.0429 23.9034 17.4365 23.8614Z" fill="black"/>
<path d="M23.9383 21.1295L24.941 20.1268" stroke="black" stroke-linecap="round" stroke-linejoin="round"/>
<path d="M24.3322 22.2397L25.7288 22.0248" stroke="black" stroke-linecap="round" stroke-linejoin="round"/>
<path d="M23.5308 25.4577C24.5661 25.2937 25.2146 23.9572 24.9793 22.4727C24.7444 20.9881 23.7145 19.9175 22.6792 20.0814C21.6439 20.2454 20.995 21.5819 21.2303 23.0665C21.4656 24.5511 22.4955 25.6217 23.5308 25.4577Z" fill="white"/>
<path d="M27.5194 9.20432C25.0485 7.66445 20.1066 5.58742 16.5971 6.98405C13.0876 8.38067 14.3768 11.1739 15.9525 13.5016L28.6296 13.8955C29.8829 12.105 29.8471 10.6726 27.5194 9.20432Z" fill="#3442D9"/>
<path d="M28.6293 13.8955C23.75 14.3617 18.8289 14.1205 14.0184 13.1793C10.0076 12.3557 8.71841 11.3888 13.5529 11.6394C18.3873 11.8901 22.0401 12.678 28.6293 13.8955Z" fill="#5865F2"/>
<path d="M42.0945 60.1275C42.5243 61.2377 42.3094 61.9181 41.5932 62.3836C40.877 62.8492 40.2324 62.0971 39.552 60.987C38.8787 59.9112 38.0726 58.9243 37.1526 58.0505C36.7687 59.0156 36.2105 59.9019 35.5053 60.6647C36.0783 61.5241 36.6155 62.1329 36.8303 62.7775C37.0452 63.4221 36.8661 64.0309 36.0067 64.1025C35.1472 64.1742 34.8249 64.1025 33.7506 62.885C32.6763 61.6674 32.1749 61.2018 32.4614 60.4856C31.6378 61.2377 31.1006 61.6316 31.1006 61.6316L31.2438 63.0282C31.4229 64.4606 31.1364 64.962 30.3844 64.9978C29.6324 65.0336 29.3817 64.6397 29.0952 63.5296C28.8087 62.4194 28.6655 61.8823 28.8087 61.4167C28.9519 60.9512 29.704 59.9843 31.3513 57.9072C31.2797 57.9789 30.5634 58.4086 29.131 58.6951C27.6986 58.9816 27.0898 58.7667 27.0182 58.2295C26.9465 57.6924 27.0898 57.3701 28.7013 56.6539C29.5607 56.2958 30.0263 55.9018 30.7067 54.8991L30.8499 54.6485L31.4945 53.6099C31.1364 48.8113 30.7067 47.5221 31.5303 45.3376C32.6763 42.4369 36.0067 42.1505 44.9952 41.3268C44.3241 44.2142 42.9175 46.8786 40.9128 49.062H40.877C40.4745 49.5182 40.044 49.9486 39.5878 50.3512C39.8384 53.9322 38.9074 55.7228 38.9074 55.7228C41.056 58.1579 41.6648 59.0174 42.0945 60.1275Z" fill="#3DDB7F"/>
<path d="M25.729 43.6543C25.4425 45.0151 25.1202 46.0178 24.5831 46.4834C24.0459 46.9489 23.5088 46.8773 21.2527 46.9847C21.0378 48.3097 20.429 49.0618 19.104 49.4199C18.656 50.2288 18.1532 51.0066 17.6 51.7476C18.6861 52.5146 19.8654 53.1403 21.1094 53.6097C17.2777 56.4388 14.4486 57.7638 12.1567 57.7638C9.86481 57.7638 8.53981 56.3314 8.43237 54.6483C8.28913 52.1057 10.2587 49.3841 12.5506 46.3759L14.1979 44.1557C14.5192 43.7234 14.7186 43.2131 14.7752 42.6778C14.8321 42.1424 14.744 41.6016 14.5202 41.1117C14.238 40.5327 13.9021 39.9812 13.5175 39.4644C13.052 38.7482 13.2668 38.032 14.0189 37.1725C14.7709 36.3131 15.2723 35.8834 15.9527 36.3847C16.6331 36.8861 16.0243 37.853 15.702 38.4617L16.2033 39.178C16.454 39.5003 16.7763 39.4644 18.3162 38.7482C20.6439 37.6381 22.5419 36.9935 23.9385 36.8861C25.3351 36.7786 25.6574 37.459 25.729 37.8888C25.8007 38.3185 25.55 38.5334 23.9385 39.2496C22.327 39.9658 20.7155 40.8611 20.7155 40.8611C22.5777 40.8253 24.7263 41.0401 25.4425 41.3624C26.1588 41.6847 25.9797 42.3293 25.729 43.6543Z" fill="#3DDB7F"/>
<path d="M16.6687 40.6105C17.4566 41.0044 17.3849 41.5774 17.2059 42.2936C17.0268 43.0098 17.2059 43.3321 17.6714 44.2274C18.137 45.1227 17.8505 45.5882 17.5282 46.4835" stroke="#19B375" stroke-width="2" stroke-linecap="round" stroke-linejoin="round"/>
<path d="M22.9548 23.9969C23.3871 23.9484 23.666 23.2718 23.5779 22.4856C23.4899 21.6994 23.068 21.1014 22.6354 21.1499C22.2032 21.1984 21.9238 21.8751 22.0123 22.6612C22.1004 23.4474 22.5222 24.0454 22.9548 23.9969Z" fill="black"/>
<path d="M13.1588 33.0903C13.6784 32.4293 14.294 31.8498 14.9851 31.3713" stroke="#19B375" stroke-width="2" stroke-linecap="round" stroke-linejoin="round"/>
<path d="M28.3075 31.1922C28.5224 32.374 29.6325 35.4895 32.2109 37.2442" stroke="#19B375" stroke-width="2" stroke-linecap="round" stroke-linejoin="round"/>
<path d="M25.6573 43.9409H20.8586C20.773 43.9409 20.691 43.975 20.6309 44.0355C20.5703 44.0956 20.5363 44.1776 20.5363 44.2632C20.536 44.3524 20.5685 44.4383 20.6284 44.5046C20.6878 44.5708 20.7698 44.6124 20.8586 44.6213H25.514C25.5498 44.4065 25.6215 44.1558 25.6573 43.9409Z" fill="black"/>
<path d="M21.0017 40.7896L20.4288 40.9329" stroke="black" stroke-linecap="round" stroke-linejoin="round"/>
</g>
<defs>
<clipPath id="clip0_85_2294">
<rect width="45" height="45" rx="22.5" fill="white"/>
</clipPath>
</defs>
</svg>
