<svg width="45" height="45" viewBox="0 0 45 45" fill="none" xmlns="http://www.w3.org/2000/svg">
<g clip-path="url(#clip0_85_2261)">
<rect width="45" height="45" rx="22.5" fill="#6F93DE"/>
<path opacity="0.91" d="M37.3339 41.5539C35.218 41.5539 33.5015 39.8394 33.5015 37.7215C33.5015 35.6056 35.218 33.889 37.3339 33.889C39.4498 33.889 41.1664 35.6056 41.1664 37.7215C41.1664 39.8394 39.4498 41.5539 37.3339 41.5539Z" fill="#EDBA7E"/>
<path d="M29.9918 14.4846C29.9918 14.4846 30.3952 9.76474 24.8684 9.9261H24.1625C22.2382 9.40167 20.2151 9.36133 18.2726 9.80508C9.70013 11.4994 8.48989 17.127 8.48989 17.127C8.56653 20.3281 8.8913 23.5171 9.4581 26.6677C10.4465 32.2751 13.6132 35.9462 24.3642 36.753C35.1151 37.5598 37.6768 29.5319 37.818 21.3427C37.8986 16.6026 29.9918 14.4846 29.9918 14.4846Z" fill="#86D7C6"/>
<path d="M29.2858 26.3249C31.2322 26.4661 33.1787 26.0244 34.873 25.0542C35.6395 24.4692 36.1438 25.0542 35.3773 26.7687C34.6108 28.4832 33.925 29.8548 32.8156 30.0565C31.7264 30.242 30.609 30.004 29.6892 29.3908C28.6403 28.7857 26.4619 26.224 29.2858 26.3249V26.3249Z" fill="#64C3C1"/>
<path d="M16.4172 13.0325C18.7872 11.5439 21.4134 10.5031 24.1627 9.9666C22.2384 9.44216 20.2153 9.4018 18.2729 9.84555C9.70037 11.5399 8.49012 17.1675 8.49012 17.1675C8.56677 20.3686 8.89154 23.5575 9.45833 26.7082C9.68021 28.0798 10.1159 29.407 10.7493 30.6415C16.1751 32.2148 22.4885 33.7477 22.4079 32.3358C22.4785 29.7499 21.7765 27.2003 20.3908 25.0139C18.8578 23.1985 16.6996 20.3544 15.1263 18.176C13.553 15.9976 14.4808 14.3839 16.4172 13.0325V13.0325Z" fill="#64C3C1"/>
<path d="M10.4462 15.6951L9.31668 15.3119C8.94352 15.8827 8.66314 16.51 8.48967 17.1676C8.55624 20.0419 8.82453 22.9061 9.29652 25.7401L10.6883 23.5213L10.4462 15.6951Z" fill="#4895A3"/>
<path d="M8.6309 23.642L3.76978 24.3278C3.92308 23.287 3.77986 22.222 3.36031 21.2558C2.93875 20.2896 2.257 19.4606 1.38967 18.8615C1.96049 18.5953 2.4708 18.2141 2.88833 17.7421C3.30788 17.2721 3.62657 16.7214 3.82626 16.1224C4.02595 15.5253 4.1026 14.894 4.05217 14.2647C3.99973 13.6374 3.82224 13.0262 3.52774 12.4675L9.09482 14.3837C9.60715 14.5551 10.061 14.8698 10.3958 15.2934C10.7327 15.7149 10.9404 16.2273 10.9909 16.7638C11.0675 17.5848 10.9142 18.4077 10.5471 19.1439C10.6419 19.2871 10.7287 19.4364 10.8093 19.5877C11.009 19.9931 11.1099 20.4389 11.1018 20.8887C11.0937 21.3385 10.9788 21.7802 10.765 22.1776C10.5532 22.5749 10.2486 22.9138 9.87544 23.17C9.5043 23.4241 9.07869 23.5875 8.6309 23.642V23.642Z" fill="#86D7C6"/>
<path d="M2.96334 24.2472C2.97141 24.3057 2.98956 24.3622 3.01982 24.4147C3.04806 24.4651 3.08838 24.5095 3.13477 24.5458C3.18117 24.5821 3.23563 24.6063 3.29211 24.6224C3.3506 24.6365 3.40911 24.6406 3.46761 24.6305L9.33726 23.7632C9.99482 23.6785 10.5918 23.3396 11.0033 22.8192C11.4128 22.2988 11.6044 21.6392 11.5358 20.9796C11.4229 20.3342 11.1828 19.717 10.8299 19.1643C11.2655 18.2848 11.4128 17.2904 11.2535 16.3202C11.1728 15.8623 10.9711 15.4347 10.6685 15.0797C10.368 14.7247 9.97866 14.4585 9.53894 14.3032L3.62897 12.2861C3.57653 12.2679 3.52005 12.2619 3.46357 12.2659C3.40911 12.27 3.35463 12.2861 3.30421 12.3123C3.2558 12.3385 3.21144 12.3748 3.17715 12.4192C3.14286 12.4636 3.11864 12.514 3.10452 12.5685C3.08233 12.6673 3.09849 12.7702 3.1469 12.8589C3.19329 12.9477 3.27194 13.0163 3.36675 13.0526C4.55681 13.4762 8.55058 14.9284 9.31707 15.3318C9.51676 15.465 9.68418 15.6405 9.80924 15.8462C9.93228 16.0519 10.0109 16.2819 10.0351 16.5219C10.0614 16.7599 10.0331 17.002 9.95448 17.2279C9.87581 17.4558 9.74671 17.6616 9.57929 17.833C8.75633 18.4059 7.7498 18.6499 6.75539 18.5188L1.18832 18.66C1.11974 18.66 1.05116 18.6741 0.988631 18.7024C0.924085 18.7306 0.867606 18.7709 0.82323 18.8234C0.776838 18.8738 0.742542 18.9363 0.722371 19.0009C0.702201 19.0674 0.696144 19.136 0.704212 19.2046C0.714298 19.3256 0.768781 19.4406 0.859548 19.5213C0.948299 19.604 1.06729 19.6504 1.18832 19.6484H6.93695C8.0665 19.6484 9.41792 20.0114 9.82133 20.8183C9.91613 21.0321 9.9585 21.264 9.94438 21.496C9.93026 21.7279 9.85967 21.9538 9.73663 22.1515C9.61561 22.3512 9.44818 22.5166 9.24849 22.6356C9.0488 22.7546 8.82289 22.8232 8.59092 22.8353C7.60256 23.037 4.5568 23.5413 3.3264 23.743C3.26992 23.751 3.21749 23.7692 3.16706 23.7975C3.11865 23.8257 3.07628 23.864 3.04401 23.9104C3.00972 23.9548 2.98552 24.0052 2.9714 24.0597C2.95728 24.1162 2.95527 24.1726 2.96334 24.2271V24.2472Z" fill="#64C3C1"/>
<path d="M46.955 42.1588C46.0877 46.1929 42.4569 46.0719 40.2987 46.0719H-0.607296C-0.607296 46.0719 -1.75703 40.0207 7.70298 29.0882L7.33993 26.5266C7.29555 26.1897 7.37825 25.8488 7.5739 25.5684C7.76754 25.2901 8.05801 25.0924 8.38881 25.0138L9.19562 24.8322L9.51836 26.7081C15.1117 27.7771 20.7877 28.358 26.4818 28.4428C26.6614 28.4609 26.8288 28.5477 26.9458 28.6848C27.4702 29.411 29.1645 31.6902 30.4151 33.6468C31.8291 32.0291 32.9667 30.1895 33.7836 28.2007C33.8159 28.1221 33.8663 28.0514 33.9349 27.999C34.0014 27.9445 34.0821 27.9103 34.1668 27.8982C35.2157 27.7025 36.2525 27.4463 37.2731 27.1317V26.7283L37.7774 26.9098C37.8762 26.9481 37.967 27.0066 38.0376 27.0853C38.1102 27.164 38.1626 27.2587 38.1889 27.3616C38.2171 27.4645 38.2191 27.5734 38.1969 27.6763C38.1747 27.7812 38.1283 27.878 38.0597 27.9587L36.3049 30.0766C36.3049 30.0766 36.6478 30.3186 37.2529 30.6615C40.1373 32.3357 40.7424 33.3644 40.9845 34.6957C43.0015 34.8974 43.768 34.6956 44.474 35.5025C44.7564 35.805 44.7967 36.1076 44.7362 37.1565C45.7851 38.5886 47.2777 40.6056 46.955 42.1588V42.1588Z" fill="#3C5293"/>
<path d="M37.9594 38.246L37.6771 38.6292C37.9373 37.8224 38.0724 36.9772 38.0805 36.128C37.8747 34.0202 37.2797 31.9689 36.3256 30.0769L38.0805 27.959L34.9137 29.149L30.4358 36.7735L25.4133 29.855L19.3621 29.2902C14.8439 28.8666 8.65155 28.5842 7.25978 26.5268L7.62287 29.0885C-1.83715 39.9605 -0.687412 46.0722 -0.687412 46.0722H40.2992C42.4171 46.0722 45.9672 46.2335 46.9152 42.3204L37.9594 38.246Z" fill="#334489"/>
<path d="M34.4252 44.2204C32.8963 43.7727 32.3315 41.098 33.1646 38.2419C33.9976 35.3857 35.9118 33.4332 37.4428 33.879C38.9717 34.3247 39.5365 37.0014 38.7034 39.8575C37.8704 42.7117 35.9562 44.6662 34.4252 44.2204Z" fill="#262537"/>
<path d="M40.4604 39.5564C40.5451 38.322 40.2889 37.0875 39.7201 35.9882C39.1513 34.8889 38.29 33.9671 37.2331 33.3237C36.1761 32.8295 34.9962 32.6601 33.8444 32.8396C32.3518 32.8396 32.2509 33.2632 31.6862 34.6146C31.5591 34.9434 31.4562 35.2803 31.3836 35.6232C31.3836 35.6232 26.1594 35.7845 25.4938 37.7613C24.3037 41.2508 25.7762 41.5533 27.3293 41.1903L29.6086 40.7062C29.421 41.4888 29.294 42.2855 29.2254 43.0863C29.0842 44.236 29.7296 44.9218 31.8274 44.9016H33.8444C36.7692 44.942 40.178 44.4579 40.4604 39.5564V39.5564Z" fill="#86D7C6"/>
<path d="M-1.45449 34.0504C-1.45449 34.0504 -6.81988 31.4888 -7.98978 36.1683C-8.00995 36.2672 -7.99984 36.368 -7.96555 36.4608C-7.92925 36.5536 -7.86874 36.6343 -7.78806 36.6928L-7.02156 37.2576C-6.11792 37.903 -5.3918 38.7623 -4.90368 39.7587C-4.27839 41.0496 -1.29312 44.4988 -0.224081 41.3925C0.211604 40.1661 0.32656 38.847 0.112752 37.5621C-0.103073 36.2773 -0.641614 35.069 -1.45449 34.0504V34.0504Z" fill="#60BAB3"/>
<path d="M8.48995 48.2096C4.79873 51.1949 2.25724 46.1926 2.25724 46.1926C2.25724 46.1926 -0.970046 48.6534 -3.24932 46.1926C-6.07321 43.167 -3.24933 41.1499 -1.11125 39.8792C1.02684 38.6084 1.81349 38.2252 2.92287 38.6084C4.01814 39.0603 4.93188 39.863 5.5249 40.8877C5.74476 41.2548 5.93436 41.6401 6.08967 42.0374C7.00744 41.5614 8.05428 41.392 9.07491 41.5533C9.67196 41.7006 10.2085 42.0253 10.6119 42.4872C11.0173 42.9491 11.2695 43.526 11.334 44.1352C11.4954 45.8497 10.6885 46.4346 8.48995 48.2096Z" fill="#67C8C1"/>
<path d="M18.8371 18.559C18.8371 18.559 27.0062 15.3922 32.3514 16.2797C32.3514 16.2797 38.2009 22.9158 33.0171 23.6016C30.4272 23.8719 27.809 23.5593 25.3563 22.6859C22.9035 21.8145 20.6747 20.4046 18.8371 18.559Z" fill="#471D33"/>
<path d="M32.8355 23.6222H33.0171C38.2009 22.9364 32.3514 16.3003 32.3514 16.3003C29.9572 16.0199 27.5327 16.1692 25.1909 16.744C27.0668 16.8227 28.8559 17.5529 30.2517 18.8075C31.6455 20.0641 32.5592 21.7665 32.8355 23.6222V23.6222Z" fill="#52223B"/>
<path d="M16.9414 17.4094C18.4824 16.6248 19.9367 15.6768 21.2781 14.5855C21.6411 14.2628 22.0849 14.0813 21.8832 14.5855C21.4192 15.4811 20.7355 16.2436 19.8964 16.8023C19.0553 17.359 18.0871 17.6938 17.0826 17.7725C16.8607 17.833 16.5581 17.6313 16.9414 17.4094V17.4094Z" fill="#482E41"/>
<path d="M27.8736 13.9604L29.8907 14.4848C29.3763 14.8115 28.7591 14.9386 28.158 14.8418C27.5569 14.745 27.0103 14.4323 26.623 13.9604C26.502 13.7385 26.744 13.6981 27.8736 13.9604V13.9604Z" fill="#482E41"/>
<path d="M24.5457 20.173C23.2951 20.4151 21.6613 19.1242 20.8948 18.4585C22.1051 18.156 23.7792 17.7526 25.5542 17.4097C25.6147 18.4182 25.6147 19.9713 24.5457 20.173Z" fill="#F3E4C0"/>
<path d="M30.8188 20.0923C29.7901 20.0923 28.3983 18.2568 27.9747 17.0466C29.2313 16.863 30.4981 16.7622 31.7668 16.744C32.0088 18.0551 31.3432 20.0923 30.8188 20.0923Z" fill="#F3E4C0"/>
<path d="M33.8447 23.4202C33.5744 23.507 33.298 23.5675 33.0177 23.6018C30.6436 23.9245 28.2292 23.6966 25.958 22.9361C27.0996 22.0002 28.5156 21.4617 29.9921 21.4032C30.7606 21.3366 31.5311 21.4919 32.2129 21.8489C32.8966 22.206 33.4614 22.7526 33.8447 23.4202Z" fill="#D47299"/>
<path d="M5.44415 40.9482L5.30297 41.1298L4.59699 41.8357C4.43563 41.9991 4.24401 42.1282 4.03222 42.2149C3.82244 42.3037 3.59451 42.3481 3.36658 42.3481C3.13866 42.3481 2.91072 42.3037 2.70095 42.2149C2.48916 42.1282 2.29754 41.9991 2.13618 41.8357C1.81546 41.511 1.63394 41.0733 1.63394 40.6154C1.63394 40.1596 1.81546 39.7199 2.13618 39.3951L2.84216 38.669C3.93742 39.1208 4.85315 39.9236 5.44415 40.9482V40.9482Z" fill="#E2D4B2"/>
<path d="M11.2935 44.1961L10.5674 44.9222C10.4081 45.0957 10.2164 45.2329 10.0026 45.3297C9.78882 45.4265 9.55688 45.477 9.3229 45.481C9.08892 45.485 8.85695 45.4427 8.63911 45.3539C8.42328 45.2672 8.22561 45.1341 8.06021 44.9687C7.89481 44.8033 7.76573 44.6036 7.67899 44.3857C7.59226 44.1679 7.55192 43.9359 7.55797 43.7019C7.56403 43.468 7.61849 43.236 7.71531 43.0242C7.81415 42.8104 7.95331 42.6188 8.12678 42.4614L8.83276 41.7555C8.91143 41.6647 9.00825 41.5901 9.11515 41.5336C9.70817 41.699 10.2366 42.0439 10.6259 42.5199C11.0172 42.996 11.2492 43.5829 11.2935 44.1961V44.1961Z" fill="#E2D4B2"/>
<path d="M35.7002 35.2404L31.6661 34.3529L31.5451 34.6151C31.418 34.9439 31.3152 35.2807 31.2425 35.6236L35.7002 35.2404Z" fill="#60BAB3"/>
<path d="M27.632 38.5889C27.5755 38.3831 27.4767 38.1915 27.3415 38.0261C27.2084 37.8587 27.041 37.7215 26.8534 37.6207C26.6638 37.5219 26.458 37.4613 26.2442 37.4432C26.0324 37.4271 25.8166 37.4533 25.6149 37.5198L25.4998 37.5501L25.3527 37.6408C24.7879 39.315 24.8283 40.2429 25.1914 40.727C25.3366 40.7673 25.4898 40.7673 25.6351 40.727L26.5024 40.4849C26.9018 40.38 27.2447 40.1239 27.4545 39.7689C27.6663 39.4139 27.7308 38.9903 27.632 38.5889Z" fill="#F3E4C0"/>
<path d="M9.47815 26.708C9.13727 26.6395 8.81051 26.5185 8.50997 26.345C8.42727 26.2986 8.3607 26.226 8.31835 26.1392C8.27599 26.0525 8.25986 25.9557 8.27196 25.8609C8.28608 25.7661 8.32641 25.6773 8.39095 25.6047C8.45348 25.5341 8.5382 25.4817 8.63099 25.4575L9.23611 25.2961L9.47815 26.708Z" fill="#273C7D"/>
<path d="M29.6486 40.7069C30.9759 40.3922 32.3253 40.1703 33.6827 40.0412C34.8123 39.9404 34.8728 39.9202 34.5299 40.7069C34.3685 41.0498 33.8643 41.0498 32.1901 41.0296C31.3248 41.0256 30.4595 41.1002 29.6083 41.2515L29.6486 40.7069Z" fill="#5DB4AD"/>
<path d="M37.2734 33.3644C37.4751 33.7275 37.697 34.1309 37.8382 34.3528C37.9794 34.5747 36.1641 34.9176 37.0717 35.2201C38.6047 36.1076 39.0888 36.5917 38.6854 37.8625C38.2819 39.1332 37.7979 39.3753 38.4232 39.9804C38.7923 40.3576 39 40.8659 39 41.3923C39 41.9208 38.7923 42.4271 38.4232 42.8043C37.818 43.4094 37.5356 44.2566 37.8785 44.2566C38.1508 44.1416 38.409 43.9923 38.645 43.8128C38.9415 43.5385 39.2239 43.25 39.4922 42.9455C40.1699 41.945 40.5411 40.7671 40.5612 39.5568C40.6339 38.3224 40.3656 37.092 39.7867 36.0007C39.2058 34.9075 38.3364 33.9958 37.2734 33.3644Z" fill="#9CE7D6"/>
</g>
<defs>
<clipPath id="clip0_85_2261">
<rect width="45" height="45" rx="22.5" fill="white"/>
</clipPath>
</defs>
</svg>
