<svg width="45" height="45" viewBox="0 0 45 45" fill="none" xmlns="http://www.w3.org/2000/svg">
<g clip-path="url(#clip0_85_2111)">
<path d="M22.4999 44.9998C34.9262 44.9998 44.9998 34.9262 44.9998 22.4999C44.9998 10.0735 34.9262 0 22.4999 0C10.0735 0 0 10.0735 0 22.4999C0 34.9262 10.0735 44.9998 22.4999 44.9998Z" fill="#C4C4C4"/>
<path d="M44.9983 0H0V44.9983H44.9983V0Z" fill="#427EFC"/>
<path d="M42.3214 5.6506C41.9691 6.78666 41.2257 7.79737 40.3569 8.59162C40.209 8.727 40.0569 8.85693 39.9003 8.98171C40.6095 9.1634 41.3258 9.31443 42.0507 9.42515C42.9984 9.57008 44.0081 9.65821 44.9981 9.59427V6.1112C44.3282 5.95923 43.6568 5.82779 42.9823 5.73423C42.7644 5.70451 42.5439 5.67582 42.3214 5.6506Z" fill="#9AFFD8"/>
<path d="M39.5291 9.92193C39.287 9.85846 39.0459 9.79049 38.8058 9.72102C38.3755 9.96168 37.9229 10.1589 37.4513 10.3034C38.0523 11.2854 38.7807 12.2095 39.444 13.1201C40.8232 15.0132 42.2401 16.879 43.5991 18.7872C44.0833 19.4671 44.5801 20.1759 44.9989 20.9213V10.6079C43.1632 10.7232 41.2616 10.3759 39.5291 9.92193Z" fill="#9AFFD8"/>
<path d="M37.3717 31.5575C37.0637 31.6069 36.7692 31.6763 36.4808 31.7518C36.722 32.6523 36.9349 33.5553 37.12 34.4557C37.5962 36.7721 37.8841 39.1272 37.9777 41.4899C38.0064 42.2172 38.1992 43.6934 38.1297 44.9981H44.9983V27.5957C44.8442 27.8273 44.6772 28.0482 44.4994 28.2566C42.7509 30.3062 39.9382 31.1467 37.3717 31.5575Z" fill="#9AFFD8"/>
<path d="M41.5297 1.38065C42.3799 2.48549 42.7297 3.85658 42.4337 5.22616C42.4025 5.36913 42.3648 5.51051 42.3215 5.65047C42.544 5.6756 42.7644 5.70429 42.9823 5.73447C43.6573 5.82813 44.3288 5.95947 44.9982 6.11153V0H40.1979C40.6891 0.417279 41.1417 0.876277 41.5297 1.38065ZM43.0352 1.15771C43.0357 1.01221 43.0724 0.87684 43.1449 0.750935C43.1867 0.696654 43.229 0.642278 43.2708 0.587904C43.3714 0.488248 43.4897 0.419249 43.6261 0.380999C43.6976 0.371436 43.7691 0.361873 43.84 0.35231C43.9508 0.348279 44.0545 0.371435 44.1501 0.421779C44.2497 0.454498 44.3364 0.509904 44.4093 0.588372C44.4879 0.661403 44.5432 0.747934 44.5759 0.84759C44.6262 0.943777 44.6494 1.0469 44.6454 1.15771V1.25831C44.6449 1.40381 44.6081 1.53918 44.5357 1.66499C44.4939 1.71937 44.4516 1.77374 44.4099 1.82812C44.3092 1.92777 44.1909 1.99677 44.0545 2.03502C43.983 2.04458 43.9115 2.05415 43.8405 2.06371C43.7298 2.06774 43.6261 2.04458 43.5305 1.99424C43.4308 1.96152 43.3443 1.90612 43.2713 1.82765C43.1927 1.75462 43.1374 1.66809 43.1047 1.56843C43.0543 1.47224 43.0312 1.36912 43.0352 1.25831V1.15771Z" fill="#FAFFA0"/>
<path d="M39.4435 13.1196C38.7807 12.2096 38.0518 11.2855 37.4508 10.3029C37.1311 10.4006 36.803 10.4746 36.4673 10.5209C36.1733 10.5617 35.8789 10.5818 35.5849 10.5868C35.5849 10.5979 35.586 10.6084 35.586 10.6195V10.7202C35.5854 10.8657 35.5487 11.0011 35.4762 11.1269C35.4345 11.1812 35.3922 11.2356 35.3504 11.29C35.2497 11.3896 35.1315 11.4586 34.9951 11.4974C34.9235 11.5069 34.8521 11.5165 34.7811 11.5261C34.6704 11.5301 34.5667 11.5069 34.4711 11.4566C34.3714 11.4239 34.2848 11.3685 34.2119 11.29C34.1333 11.217 34.0779 11.1304 34.0452 11.0308C33.9949 10.9346 33.9718 10.8315 33.9758 10.7207V10.6201C33.9758 10.5727 33.9803 10.5259 33.9884 10.4807C33.5973 10.4263 33.2077 10.3558 32.8206 10.2767C32.1603 11.5301 31.1742 12.5689 30.4448 13.852C30.387 13.9542 30.3331 14.0609 30.2884 14.1705C30.4831 14.1122 30.6976 14.1263 30.8712 14.2415C31.1742 14.4424 31.3529 14.768 31.2603 15.1395C31.1802 15.4611 30.8978 15.6468 30.5923 15.6982C30.7232 15.8567 30.8657 16.0097 30.9925 16.1668C31.1274 16.3339 31.2477 16.5121 31.3519 16.6998C31.5658 17.0844 31.7113 17.5475 31.5638 17.9617C31.3363 18.601 30.7227 18.4721 30.1866 18.4167C30.8531 19.296 31.4742 20.2151 32.0515 21.1664C32.7486 21.5117 33.485 21.7126 34.2773 21.6678C34.8285 21.6366 34.8249 22.4922 34.2773 22.5234C33.7487 22.5536 33.2339 22.4857 32.7365 22.3463C32.8453 22.5421 32.952 22.7393 33.0572 22.9372C33.1221 22.8995 33.1956 22.8768 33.2706 22.8758C33.5132 22.8728 33.7593 22.9105 33.9884 22.9915C34.2143 23.0721 34.3417 23.2779 34.2873 23.518C34.2385 23.732 33.9723 23.892 33.7608 23.817C33.6693 23.7843 33.5781 23.7657 33.4845 23.7415C33.4789 23.7405 33.4749 23.74 33.4719 23.7395C33.4714 23.7395 33.4704 23.7395 33.4699 23.7395C33.9742 24.7477 34.4348 25.7805 34.8526 26.83C34.8717 26.8058 34.8923 26.7827 34.9155 26.7616C34.9885 26.683 35.075 26.6276 35.1747 26.5949C35.2709 26.5446 35.374 26.5215 35.4848 26.5254H35.5854C35.7309 26.526 35.8663 26.5627 35.9922 26.6352C36.0465 26.677 36.1008 26.7193 36.1552 26.761C36.2549 26.8617 36.3239 26.98 36.3621 27.1164C36.3717 27.1879 36.3812 27.2593 36.3908 27.3303C36.3948 27.4411 36.3717 27.5448 36.3213 27.6404C36.2886 27.74 36.2332 27.8266 36.1547 27.8996C36.0817 27.9781 35.9952 28.0335 35.8955 28.0662C35.7993 28.1165 35.6962 28.1397 35.5854 28.1357H35.4848C35.4364 28.1357 35.3892 28.1311 35.3429 28.1225C35.7747 29.3195 36.1537 30.5326 36.4803 31.7507C36.7688 31.6746 37.0633 31.6056 37.3712 31.5563C39.9383 31.1456 42.751 30.305 44.499 28.2549C44.6767 28.0465 44.8438 27.8255 44.9979 27.5941V20.9199C44.5791 20.1739 44.0823 19.4657 43.5981 18.7856C42.24 16.8785 40.8232 15.0132 39.4435 13.1196ZM33.8656 15.7581C33.8237 15.8125 33.7815 15.8668 33.7397 15.9212C33.6667 15.9997 33.5802 16.0551 33.4804 16.0878C33.3843 16.1382 33.2811 16.1613 33.1704 16.1573C33.0597 16.1613 32.956 16.1382 32.8604 16.0878C32.7607 16.0551 32.6741 15.9997 32.6012 15.9212C32.5674 15.8875 32.5342 15.8542 32.5005 15.8205C32.4008 15.7199 32.3319 15.6015 32.2937 15.4651C32.2841 15.3937 32.2745 15.3222 32.265 15.2512C32.2654 15.1058 32.3022 14.9704 32.3747 14.8445C32.4165 14.7901 32.4588 14.7359 32.5005 14.6815C32.5735 14.6029 32.66 14.5476 32.7597 14.5149C32.8559 14.4645 32.959 14.4414 33.0697 14.4454C33.1805 14.4414 33.2842 14.4645 33.3798 14.5149C33.4795 14.5476 33.566 14.6029 33.6391 14.6815C33.6727 14.7152 33.706 14.7484 33.7397 14.7822C33.8394 14.8828 33.9083 15.0011 33.9466 15.1375C33.9561 15.2089 33.9657 15.2804 33.9753 15.3514C33.9748 15.4968 33.938 15.6323 33.8656 15.7581ZM35.6866 20.7875C35.2352 20.7875 34.9009 20.4185 34.8812 19.9821C34.8617 19.5472 35.2653 19.1768 35.6866 19.1768C36.1381 19.1768 36.4724 19.5457 36.492 19.9821C36.5116 20.417 36.1079 20.7875 35.6866 20.7875ZM38.8073 16.7608C39.2588 16.7608 39.593 17.1297 39.6126 17.5661C39.6323 18.001 39.2286 18.3715 38.8073 18.3715C38.3558 18.3715 38.0216 18.0025 38.002 17.5661C37.9823 17.1312 38.386 16.7608 38.8073 16.7608ZM39.3232 24.3828C39.2518 24.3923 39.1802 24.4019 39.1093 24.4115C38.9985 24.4155 38.8949 24.3923 38.7992 24.342C38.6996 24.3093 38.613 24.2539 38.54 24.1754C38.5149 24.1518 38.4927 24.1266 38.472 24.0999C38.461 24.0913 38.4504 24.0832 38.4393 24.0747C38.3397 23.974 38.2708 23.8558 38.2325 23.7194C38.2229 23.6479 38.2134 23.5764 38.2038 23.5055C38.1998 23.3948 38.2229 23.2911 38.2733 23.1954C38.306 23.0957 38.3613 23.0092 38.4399 22.9362C38.5128 22.8577 38.5994 22.8023 38.6991 22.7695C38.7952 22.7193 38.8984 22.6961 39.0091 22.7001C39.0197 22.6991 39.0303 22.6986 39.0414 22.6996C39.0791 22.7036 39.1169 22.7087 39.1541 22.7147C39.1908 22.7193 39.2276 22.7238 39.2638 22.7293C39.2683 22.7304 39.2724 22.7308 39.2769 22.7323C39.4113 22.7695 39.5643 22.8521 39.6604 22.9553C39.6852 22.9815 39.7173 23.0283 39.7294 23.0434C39.7481 23.0676 39.7787 23.1008 39.7974 23.1324C39.7978 23.134 39.7989 23.1355 39.7993 23.1365C39.8265 23.2004 39.8537 23.2648 39.8804 23.3288C39.8819 23.3328 39.8834 23.3363 39.8845 23.3404C39.8854 23.3449 39.8864 23.3489 39.8869 23.3534C39.8965 23.4249 39.906 23.4964 39.9157 23.5673L39.9162 23.5729C39.9166 23.5835 39.9166 23.5941 39.9157 23.6051C39.9151 23.7506 39.8784 23.886 39.8059 24.0118C39.7641 24.0662 39.7218 24.1206 39.6801 24.1749C39.5784 24.2755 39.4596 24.3445 39.3232 24.3828ZM40.5186 29.1428C40.0672 29.1428 39.733 28.7739 39.7133 28.3375C39.6937 27.9026 40.0974 27.5321 40.5186 27.5321C40.9701 27.5321 41.3043 27.9011 41.324 28.3375C41.3436 28.7723 40.9399 29.1428 40.5186 29.1428Z" fill="#FAFFA0"/>
<path d="M2.6803 43.5098C2.60877 43.5194 2.53733 43.529 2.46636 43.5385C2.35564 43.5426 2.25196 43.5194 2.15624 43.4691C2.05658 43.4363 1.97005 43.381 1.89702 43.3025C1.81855 43.2294 1.76315 43.1429 1.73043 43.0432C1.68318 42.9531 1.66049 42.8555 1.66152 42.7523C1.10128 42.6527 0.546654 42.5243 0 42.3667V44.9982H2.79955C2.86245 44.4415 2.93089 43.8859 3.00589 43.3307C2.91177 43.4152 2.80358 43.4751 2.6803 43.5098Z" fill="#FAFFA0"/>
<path d="M18.1343 7.37461C17.1588 7.67405 16.1913 8.03695 15.2929 8.52473C15.9392 8.93395 16.5749 9.36023 17.2479 9.72519C17.9304 10.0951 18.6823 10.4278 19.4706 10.4535C20.3353 10.4822 21.0425 10.0694 21.7085 9.5571C21.7673 9.51173 21.8242 9.46494 21.8821 9.41863C21.7119 9.26966 21.6048 9.04917 21.5936 8.80757C21.574 8.37267 21.9777 8.00226 22.399 8.00226C22.6778 8.00226 22.9114 8.14317 23.0543 8.35307C23.3025 8.10642 23.5471 7.85526 23.7912 7.60411C23.4555 7.49386 23.1178 7.39167 22.776 7.30214C21.2222 6.89592 19.6724 6.90249 18.1343 7.37461ZM18.8752 9.51276C18.4237 9.51276 18.0895 9.14385 18.0698 8.70745C18.0502 8.27254 18.4539 7.90205 18.8752 7.90205C19.3267 7.90205 19.6609 8.27104 19.6805 8.70745C19.7001 9.14235 19.2965 9.51276 18.8752 9.51276Z" fill="#FAFFA0"/>
<path d="M2.46672 41.8276C2.57743 41.8236 2.68112 41.8467 2.77675 41.8971C2.78884 41.9011 2.7999 41.9061 2.812 41.9111C2.9424 41.9262 3.07271 41.9393 3.20312 41.9513C3.69483 38.7245 4.38699 35.5283 5.2718 32.386C5.66245 31.0003 6.07261 29.5909 6.53113 28.1917C6.21857 28.0804 6.0052 27.7779 5.98955 27.4322C5.96995 26.9973 6.37364 26.6269 6.79495 26.6269C6.88607 26.6269 6.97213 26.6424 7.0521 26.6701C7.22376 26.192 7.40198 25.7167 7.58872 25.2456C6.35301 25.0438 4.95117 24.9316 3.88459 25.6368C2.96753 26.2428 2.47628 27.5016 2.62075 28.5787C2.64794 28.5435 2.67512 28.5083 2.70231 28.4735C2.803 28.3739 2.92122 28.305 3.05762 28.2662C3.12915 28.2566 3.20059 28.247 3.27156 28.2375C3.38228 28.2334 3.48596 28.2566 3.58159 28.3069C3.68124 28.3397 3.76787 28.3951 3.84081 28.4735C3.91937 28.5466 3.97477 28.6331 4.00749 28.7328C4.05774 28.8289 4.0809 28.9321 4.07687 29.0428V29.1435C4.0764 29.289 4.03965 29.4243 3.96718 29.5502C3.92537 29.6045 3.88309 29.6589 3.84137 29.7133C3.74068 29.8129 3.62237 29.8818 3.48596 29.9207C3.41452 29.9302 3.34299 29.9398 3.27203 29.9493C3.16637 29.9534 3.06774 29.9317 2.97615 29.8864C3.28262 30.7406 3.64609 31.5811 3.56152 32.5093C3.46337 33.5839 2.82156 34.4457 1.88688 34.956C1.303 35.2746 0.658756 35.4669 0.000915527 35.5786V41.3141C0.758881 41.5502 1.53503 41.7289 2.32581 41.8467C2.37212 41.8402 2.41937 41.8342 2.46672 41.8276ZM1.45197 38.6374C1.35232 38.6047 1.26579 38.5494 1.19275 38.4708C1.11429 38.3979 1.05888 38.3112 1.02616 38.2116C0.975818 38.1155 0.952662 38.0123 0.956693 37.9016V37.8009C0.957256 37.6555 0.994005 37.52 1.06647 37.3942C1.10819 37.3398 1.15047 37.2854 1.19229 37.2311C1.29297 37.1314 1.41119 37.0625 1.5476 37.0237C1.61913 37.0141 1.69057 37.0046 1.76153 36.995C1.87225 36.991 1.97594 37.0141 2.07166 37.0645C2.17131 37.0972 2.25784 37.1526 2.33088 37.2311C2.40934 37.3041 2.46475 37.3906 2.49747 37.4904C2.54781 37.5865 2.57097 37.6897 2.56694 37.8004V37.9011C2.56637 38.0465 2.52962 38.1819 2.45715 38.3078C2.41543 38.3621 2.37316 38.4164 2.33134 38.4708C2.23066 38.5705 2.11234 38.6395 1.97594 38.6782C1.9045 38.6877 1.83306 38.6973 1.7621 38.7069C1.65128 38.7109 1.5476 38.6877 1.45197 38.6374Z" fill="#FAFFA0"/>
<path d="M2.46599 41.827C2.41865 41.8336 2.3713 41.8396 2.32452 41.8462C2.33812 41.8482 2.35115 41.8507 2.36474 41.8527C2.51324 41.8744 2.66221 41.8935 2.81127 41.9106C2.79965 41.9061 2.78812 41.9005 2.77602 41.8965C2.6804 41.8462 2.57671 41.823 2.46599 41.827Z" fill="#9AFFD8"/>
<path d="M1.73025 43.0432C1.76296 43.1428 1.81828 43.2294 1.89684 43.3024C1.96978 43.3809 2.0564 43.4363 2.15606 43.469C2.25215 43.5193 2.35537 43.5425 2.46609 43.5385C2.53762 43.5289 2.60905 43.5193 2.68002 43.5098C2.8033 43.475 2.91159 43.4151 3.00515 43.3305C3.02277 43.2007 3.0404 43.0708 3.05802 42.941C2.58993 42.8982 2.12334 42.8348 1.66078 42.7522C1.66021 42.8559 1.6829 42.9531 1.73025 43.0432Z" fill="#9AFFD8"/>
<path d="M2.33091 38.4707C2.37263 38.4163 2.41491 38.362 2.45672 38.3076C2.52966 38.1818 2.56641 38.0464 2.56641 37.9009V37.8002C2.57044 37.6895 2.54728 37.5858 2.49694 37.4902C2.46422 37.3905 2.40891 37.304 2.33034 37.231C2.25741 37.1525 2.17079 37.0971 2.07113 37.0644C1.97504 37.014 1.87182 36.9909 1.7611 36.9949C1.68966 37.0045 1.61813 37.014 1.54716 37.0236C1.41076 37.0618 1.29245 37.1308 1.19185 37.231C1.15004 37.2853 1.10776 37.3397 1.06595 37.3941C0.993009 37.5199 0.956259 37.6553 0.956259 37.8008V37.9015C0.952228 38.0122 0.975384 38.1159 1.02573 38.2115C1.05845 38.3112 1.11376 38.3977 1.19232 38.4707C1.26535 38.5492 1.35188 38.6046 1.45154 38.6373C1.54773 38.6877 1.65085 38.7108 1.76157 38.7068C1.8331 38.6972 1.90454 38.6877 1.9755 38.6781C2.11191 38.6398 2.23069 38.5708 2.33091 38.4707Z" fill="#9AFFD8"/>
<path d="M2.97564 29.886C3.06771 29.9313 3.16633 29.9529 3.27161 29.9489C3.34305 29.9393 3.41449 29.9298 3.48545 29.9202C3.62186 29.8819 3.74017 29.8129 3.84086 29.7128C3.88258 29.6584 3.92486 29.6041 3.96667 29.5497C4.0397 29.4239 4.07645 29.2885 4.07645 29.143V29.0423C4.08039 28.9316 4.05723 28.8279 4.00698 28.7323C3.97427 28.6326 3.91886 28.5461 3.8403 28.4731C3.76736 28.3946 3.68083 28.3392 3.58108 28.3065C3.48499 28.2561 3.38177 28.233 3.27105 28.237C3.19961 28.2466 3.12808 28.2561 3.05711 28.2657C2.92071 28.3039 2.80249 28.3729 2.7018 28.4731C2.67462 28.5083 2.64743 28.5436 2.62024 28.5783C2.62174 28.5893 2.62277 28.5999 2.62427 28.611C2.68868 29.0469 2.82565 29.4682 2.97564 29.886Z" fill="#9AFFD8"/>
<path d="M5.99 27.4315C6.00557 27.7772 6.21904 28.0797 6.5316 28.191C6.69866 27.6816 6.87181 27.1742 7.05303 26.6694C6.97306 26.6417 6.88691 26.6262 6.79588 26.6262C6.374 26.6262 5.97041 26.9966 5.99 27.4315Z" fill="#9AFFD8"/>
<path d="M33.7387 14.7823C33.705 14.7486 33.6718 14.7154 33.6381 14.6816C33.5651 14.6031 33.4785 14.5478 33.3789 14.515C33.2827 14.4647 33.1795 14.4415 33.0688 14.4456C32.958 14.4415 32.8544 14.4647 32.7587 14.515C32.6591 14.5478 32.5724 14.6031 32.4995 14.6816C32.4577 14.736 32.4154 14.7904 32.3737 14.8447C32.3007 14.9706 32.2639 15.1059 32.2639 15.2514C32.2735 15.3229 32.283 15.3943 32.2926 15.4653C32.3309 15.6017 32.3999 15.72 32.4995 15.8207C32.5333 15.8544 32.5664 15.8876 32.6002 15.9214C32.6731 15.9999 32.7598 16.0553 32.8594 16.088C32.9555 16.1383 33.0587 16.1615 33.1694 16.1574C33.2802 16.1615 33.3839 16.1383 33.4795 16.088C33.5791 16.0553 33.6658 15.9999 33.7387 15.9214C33.7805 15.867 33.8228 15.8126 33.8646 15.7583C33.9375 15.6324 33.9743 15.4971 33.9743 15.3516C33.9647 15.2801 33.9552 15.2086 33.9456 15.1376C33.9078 15.0012 33.8389 14.8825 33.7387 14.7823Z" fill="#9AFFD8"/>
<path d="M22.3986 8.00351C21.9773 8.00351 21.5736 8.37401 21.5933 8.80882C21.6038 9.0505 21.7115 9.27091 21.8817 9.41988C22.2934 9.08819 22.6789 8.72735 23.0539 8.35432C22.9109 8.14442 22.6774 8.00351 22.3986 8.00351Z" fill="#9AFFD8"/>
<path d="M18.8748 7.9028C18.4535 7.9028 18.0498 8.27321 18.0695 8.70811C18.0891 9.14451 18.4233 9.51351 18.8748 9.51351C19.2961 9.51351 19.6998 9.14301 19.6801 8.70811C19.6605 8.27171 19.3263 7.9028 18.8748 7.9028Z" fill="#9AFFD8"/>
<path d="M38.8075 18.3721C39.2288 18.3721 39.6325 18.0016 39.6128 17.5667C39.5932 17.1304 39.259 16.7614 38.8075 16.7614C38.3862 16.7614 37.9825 17.1319 38.0022 17.5667C38.0218 18.0031 38.356 18.3721 38.8075 18.3721Z" fill="#9AFFD8"/>
<path d="M35.6865 19.1775C35.2652 19.1775 34.8615 19.5479 34.8812 19.9828C34.9008 20.4192 35.235 20.7881 35.6865 20.7881C36.1078 20.7881 36.5115 20.4177 36.4918 19.9828C36.4722 19.5464 36.138 19.1775 35.6865 19.1775Z" fill="#9AFFD8"/>
<path d="M33.988 10.4809C33.98 10.5262 33.976 10.5725 33.9755 10.6203V10.721C33.9715 10.8317 33.9946 10.9354 34.045 11.031C34.0777 11.1307 34.1331 11.2173 34.2115 11.2902C34.2846 11.3688 34.3711 11.4241 34.4708 11.4568C34.5669 11.5072 34.6701 11.5303 34.7808 11.5263C34.8523 11.5167 34.9238 11.5072 34.9947 11.4976C35.1311 11.4594 35.2494 11.3905 35.3501 11.2902C35.3919 11.2359 35.4341 11.1815 35.4759 11.1272C35.5489 11.0013 35.5856 10.8659 35.5856 10.7204V10.6198C35.5862 10.6088 35.5852 10.5982 35.5847 10.5871C35.0511 10.5972 34.5181 10.5544 33.988 10.4809Z" fill="#9AFFD8"/>
<path d="M39.9143 23.6062C39.9153 23.5956 39.9158 23.585 39.9148 23.574L39.9143 23.5684C39.9048 23.497 39.8952 23.4255 39.8857 23.3545C39.8846 23.35 39.8842 23.346 39.8831 23.3415C39.8821 23.3374 39.8806 23.3339 39.8791 23.3298C39.8519 23.266 39.8247 23.2015 39.798 23.1376C39.7975 23.1361 39.7965 23.1346 39.796 23.1335C39.7774 23.1018 39.7467 23.0682 39.7281 23.0445C39.7165 23.0294 39.6838 22.9826 39.6592 22.9564C39.5635 22.8532 39.41 22.7702 39.2756 22.7334C39.271 22.7324 39.267 22.7314 39.2625 22.7304C39.2258 22.7249 39.1895 22.7198 39.1528 22.7158C39.1155 22.7098 39.0778 22.7047 39.04 22.7007C39.0294 22.7002 39.0188 22.7002 39.0078 22.7013C38.8971 22.6972 38.7934 22.7204 38.6978 22.7706C38.5981 22.8034 38.5115 22.8588 38.4385 22.9373C38.36 23.0103 38.3047 23.0969 38.2719 23.1965C38.2216 23.2926 38.1984 23.3958 38.2025 23.5066C38.212 23.578 38.2216 23.6495 38.2312 23.7205C38.2694 23.8569 38.3384 23.9751 38.4381 24.0758C38.4491 24.0843 38.4596 24.0924 38.4708 24.101C38.4914 24.1272 38.5135 24.1529 38.5387 24.1765C38.6117 24.255 38.6982 24.3104 38.7979 24.3431C38.8941 24.3934 38.9972 24.4166 39.108 24.4126C39.1794 24.403 39.2509 24.3934 39.3218 24.3839C39.4582 24.3456 39.5766 24.2766 39.6773 24.1765C39.7191 24.1221 39.7613 24.0678 39.8031 24.0134C39.877 23.8871 39.9138 23.7517 39.9143 23.6062Z" fill="#9AFFD8"/>
<path d="M35.4852 28.1361H35.5859C35.6966 28.1401 35.8003 28.1169 35.8959 28.0667C35.9955 28.034 36.0821 27.9786 36.1551 27.9C36.2337 27.8271 36.289 27.7404 36.3217 27.6408C36.372 27.5447 36.3952 27.4415 36.3912 27.3307C36.3816 27.2593 36.372 27.1878 36.3625 27.1168C36.3242 26.9804 36.2552 26.8622 36.1556 26.7615C36.1012 26.7197 36.0469 26.6774 35.9926 26.6357C35.8667 26.5626 35.7313 26.5259 35.5859 26.5259H35.4852C35.3745 26.5219 35.2708 26.545 35.1751 26.5954C35.0755 26.6281 34.9889 26.6835 34.9159 26.762C34.8928 26.7836 34.8722 26.8068 34.853 26.8304C35.0237 27.2587 35.1871 27.6902 35.3437 28.1235C35.3896 28.1316 35.4368 28.1361 35.4852 28.1361Z" fill="#9AFFD8"/>
<path d="M40.5186 27.5325C40.0973 27.5325 39.6937 27.9029 39.7133 28.3378C39.7329 28.7742 40.0672 29.1432 40.5186 29.1432C40.94 29.1432 41.3436 28.7727 41.324 28.3378C41.3044 27.9014 40.9701 27.5325 40.5186 27.5325Z" fill="#9AFFD8"/>
<path d="M43.2716 1.82725C43.3445 1.90582 43.4312 1.96113 43.5308 1.99385C43.6269 2.04419 43.7301 2.06735 43.8409 2.06331C43.9123 2.05375 43.9838 2.04419 44.0548 2.03463C44.1912 1.99638 44.3094 1.92747 44.4101 1.82782C44.4519 1.77344 44.4942 1.71907 44.5359 1.66469C44.6089 1.53888 44.6457 1.40351 44.6457 1.25801V1.15732C44.6497 1.0466 44.6266 0.942914 44.5762 0.847289C44.5435 0.747633 44.4881 0.66101 44.4096 0.588073C44.3366 0.509511 44.2501 0.454198 44.1504 0.42148C44.0542 0.371136 43.9511 0.34798 43.8404 0.352011C43.7689 0.361573 43.6974 0.371135 43.6264 0.380698C43.49 0.418948 43.3717 0.487854 43.271 0.587509C43.2293 0.641884 43.187 0.696259 43.1452 0.750633C43.0723 0.876445 43.0355 1.01182 43.0355 1.15732V1.25801C43.0315 1.36872 43.0547 1.47241 43.105 1.56804C43.1372 1.66825 43.193 1.75432 43.2716 1.82725Z" fill="#9AFFD8"/>
<path d="M10.0335 18.609C9.83822 18.1178 9.95494 17.546 10.2162 17.0864C10.478 16.6269 10.8696 16.2574 11.2571 15.8975C11.3271 15.8326 11.3985 15.7651 11.4514 15.6867C11.1127 15.6172 10.8736 15.286 10.8584 14.9447C10.8443 14.6341 11.0477 14.381 11.3135 14.2622C10.859 13.3064 9.82509 12.9726 9.00413 12.0626C8.49029 11.4929 8.16507 10.7837 8.23107 10.0029C8.28695 9.33757 8.61507 8.7386 9.11335 8.2992C10.1256 7.4052 11.695 7.04136 13.0022 7.37558C13.7295 7.56177 14.4024 7.96995 15.0341 8.36257C15.1207 8.41648 15.2068 8.47076 15.2929 8.52514C16.1918 8.03745 17.1587 7.67398 18.1342 7.37502C19.6724 6.90289 21.2221 6.89633 22.7759 7.30358C23.1172 7.39311 23.4554 7.4953 23.7911 7.60555C24.3947 6.98596 25.0022 6.3704 25.6877 5.8409C26.0386 5.56959 26.412 5.3159 26.8057 5.10299C26.2087 4.89206 25.6082 4.68975 25.0022 4.49944C22.7568 3.79331 20.453 3.19632 18.1055 2.96326C15.8465 2.73929 13.5332 2.84701 11.3794 3.61566C9.2025 4.39275 7.44883 5.89574 5.94489 7.61464C4.51793 9.24494 3.05572 11.3725 3.101 13.6345C3.14384 15.7636 4.80884 17.3325 6.36771 18.5581C7.18914 19.204 8.05285 19.7938 8.88282 20.4285C9.13003 20.6173 9.36854 20.8131 9.60263 21.013C9.68166 20.8755 9.76172 20.7386 9.84375 20.6027C10.1865 20.0335 10.5484 19.4249 10.9365 18.8169C10.4774 18.8118 10.0928 18.758 10.0335 18.609Z" fill="#427EFC"/>
<path d="M3.56061 32.5079C3.64517 31.5803 3.28227 30.7393 2.97524 29.8851C2.82524 29.4674 2.68883 29.0465 2.62489 28.6107C2.62339 28.5996 2.62236 28.589 2.62086 28.578C2.4764 27.5008 2.96764 26.2419 3.8847 25.6359C4.95129 24.9313 6.35313 25.043 7.58884 25.2449C7.66028 25.0641 7.73378 24.8839 7.80774 24.7042C7.26015 24.9035 6.67169 25.039 6.09035 25.0405C5.53872 25.042 5.53975 24.1864 6.09035 24.1849C6.63044 24.1833 7.168 24.0358 7.67031 23.846C7.88471 23.765 8.10071 23.6704 8.30508 23.5556C8.45902 23.2159 8.61859 22.8792 8.78368 22.5465C8.25774 22.6808 7.71615 22.7407 7.19819 22.7256C6.64806 22.7095 6.64759 21.8539 7.19819 21.87C7.73228 21.8856 8.28896 21.8126 8.8149 21.647C8.31812 21.2413 7.79771 20.8638 7.28021 20.4863C5.61522 19.2717 3.78814 18.0073 2.78089 16.1516C1.67259 14.1105 2.08377 11.847 3.13227 9.87295C4.18929 7.88274 5.78135 6.08228 7.52584 4.66395C9.33333 3.19414 11.4997 2.3174 13.8014 2.00483C16.1305 1.68815 18.493 1.90359 20.7898 2.35658C23.017 2.79608 25.1914 3.46948 27.3342 4.21245C27.6527 4.3227 27.9694 4.43745 28.285 4.5552C29.0501 4.4007 29.8524 4.41429 30.612 4.58895C31.4379 4.7787 32.2538 5.18688 32.8211 5.8286C33.0325 6.06822 33.192 6.334 33.3057 6.61684C33.7195 6.79103 34.1337 6.96362 34.5495 7.13228C36.2935 7.84093 38.0734 8.51293 39.902 8.98149C40.0581 8.85671 40.2105 8.72687 40.3585 8.59149C41.2273 7.79715 41.9707 6.78597 42.323 5.65047C42.3664 5.51107 42.4041 5.3696 42.4353 5.22616C42.7317 3.85658 42.3815 2.48493 41.5312 1.38065C41.1417 0.876277 40.6892 0.417279 40.1979 0H0V35.5773C0.657841 35.4656 1.30209 35.2733 1.88596 34.9547C2.82074 34.4443 3.46292 33.5826 3.56061 32.5079Z" fill="#427EFC"/>
<path d="M32.8197 10.2772C33.2068 10.3562 33.5963 10.4266 33.9875 10.481C34.5175 10.5545 35.051 10.5972 35.585 10.5877C35.879 10.5827 36.1729 10.5626 36.4674 10.5218C36.8036 10.4755 37.1318 10.4015 37.4509 10.3038C37.9231 10.1593 38.3755 9.96209 38.8054 9.72143C37.002 9.19897 35.2503 8.51244 33.5164 7.79019C33.5153 7.92753 33.5068 8.06553 33.4896 8.20391C33.3935 8.98456 33.1463 9.65703 32.8197 10.2772Z" fill="#427EFC"/>
<path d="M42.0504 9.42466C41.3256 9.31385 40.6094 9.16291 39.9002 8.98113C38.0716 8.51257 36.2913 7.84114 34.5477 7.13192C34.1319 6.9628 33.7177 6.79067 33.304 6.61649C33.452 6.98595 33.5194 7.38354 33.5164 7.78929C35.2504 8.51107 37.002 9.1976 38.8055 9.72054C39.0456 9.79 39.2866 9.85797 39.5287 9.92144C41.2612 10.3754 43.1628 10.7222 44.998 10.6069V9.59369C44.0084 9.65763 42.9987 9.5696 42.0504 9.42466Z" fill="white"/>
<path d="M3.05877 42.9408C3.10508 42.6106 3.15242 42.2799 3.20277 41.9502C3.07189 41.9386 2.94149 41.925 2.81164 41.9099C2.66267 41.8928 2.51361 41.8737 2.36521 41.852C2.35161 41.8501 2.33849 41.8475 2.3249 41.8455C1.53468 41.7277 0.758059 41.549 0 41.313V42.366C0.546654 42.5235 1.10128 42.6518 1.66152 42.7515C2.12455 42.8345 2.59067 42.8974 3.05877 42.9408Z" fill="white"/>
<path d="M6.36729 18.5588C4.80842 17.3327 3.14342 15.7638 3.10067 13.6352C3.0553 11.3727 4.51751 9.24561 5.94494 7.61427C7.44897 5.89537 9.20255 4.39238 11.3795 3.61529C13.5327 2.84664 15.8461 2.73892 18.1056 2.96298C20.4532 3.19595 22.757 3.79295 25.0024 4.49916C25.6078 4.68985 26.2088 4.89169 26.8058 5.10263C27.1903 4.89479 27.5945 4.7251 28.0173 4.61644C28.1058 4.59376 28.195 4.5736 28.2841 4.5555C27.9685 4.43776 27.6513 4.32291 27.3333 4.21276C25.1906 3.46979 23.0162 2.79629 20.7889 2.35689C18.4927 1.90389 16.1295 1.68846 13.8006 2.00505C11.4988 2.31817 9.33249 3.19445 7.525 4.66426C5.78088 6.08259 4.18836 7.88305 3.13133 9.87326C2.08293 11.8473 1.67165 14.1108 2.78005 16.1519C3.7872 18.0072 5.61429 19.2716 7.27938 20.4866C7.79678 20.8641 8.31774 21.2416 8.81396 21.6473C9.00277 21.5879 9.18746 21.5164 9.36568 21.4329C9.44321 21.292 9.52224 21.152 9.60221 21.0131C9.36821 20.8133 9.12905 20.6174 8.88249 20.4287C8.05243 19.7945 7.18872 19.2046 6.36729 18.5588Z" fill="white"/>
<path d="M22.9314 34.8262C22.9873 34.7905 23.0426 34.7543 23.0984 34.7186C23.0396 34.717 22.9812 34.715 22.9229 34.713C22.9309 34.7497 22.9344 34.788 22.9314 34.8262Z" fill="#FFCD2E"/>
<path d="M21.9259 34.6569C21.9163 34.6564 21.9062 34.6554 21.8967 34.6544C21.8871 34.6917 21.8765 34.7289 21.8645 34.7661C21.9073 34.7319 21.9495 34.6972 21.9913 34.6615C21.9697 34.66 21.9475 34.6584 21.9259 34.6569Z" fill="#FFCD2E"/>
<path d="M37.978 41.4902C37.8849 39.1271 37.5964 36.7724 37.1203 34.4561C36.935 33.5556 36.7221 32.6526 36.4811 31.7521C36.1544 30.5342 35.7759 29.3206 35.3435 28.1241C35.187 27.6907 35.0234 27.2594 34.8528 26.831C34.435 25.7816 33.9744 24.7482 33.4702 23.7406C33.4479 23.7385 33.4253 23.7361 33.4027 23.7351C33.3584 23.7325 33.3146 23.7325 33.2703 23.733C33.0308 23.7361 32.8525 23.5342 32.8425 23.3052C32.8354 23.1502 32.9286 23.0138 33.0569 22.9388C32.9517 22.7405 32.8449 22.5436 32.7363 22.3478C32.2536 22.2125 31.7874 22.0096 31.343 21.762C30.8613 21.4937 31.2932 20.7553 31.7749 21.0231C31.8665 21.0739 31.9586 21.1223 32.0513 21.168C31.4739 20.2167 30.8528 19.2976 30.1864 18.4183C30.0927 18.4088 30.0011 18.4012 29.9151 18.4007C29.0166 18.3941 28.1206 18.3559 27.2232 18.3196C25.3805 18.2446 23.5358 18.2376 21.6916 18.2582C19.573 18.2819 17.4549 18.3428 15.3365 18.3801C14.3585 18.3971 13.5717 18.4732 12.6536 18.6861C12.4603 18.7309 11.6163 18.827 10.9358 18.818C10.5476 19.4265 10.1858 20.035 9.84301 20.6038C9.76145 20.7397 9.68139 20.8761 9.60189 21.014C9.52183 21.1529 9.44289 21.2929 9.36536 21.4338C9.84705 21.2083 10.2814 20.8942 10.6192 20.486C10.7671 20.3073 11.0726 20.3345 11.2241 20.486C11.3983 20.6602 11.3716 20.9133 11.2241 21.091C10.6177 21.8229 9.72573 22.306 8.78243 22.5472C8.61733 22.8799 8.45833 23.2166 8.30383 23.5564C8.56755 23.4083 8.81168 23.2282 9.00846 23.0027C9.37089 22.5864 9.97389 23.1939 9.61351 23.6077C9.18264 24.102 8.56502 24.411 7.96408 24.6461C7.91224 24.6662 7.85984 24.6859 7.80696 24.705C7.73299 24.8846 7.65949 25.0649 7.58805 25.2456C7.40131 25.7166 7.22309 26.1919 7.05153 26.67C6.87031 27.1748 6.69715 27.6822 6.53 28.1915C6.07147 29.5904 5.66132 31.0002 5.27066 32.3859C4.38529 35.5277 3.6937 38.7244 3.20198 41.9513C3.15164 42.281 3.10383 42.6112 3.05798 42.9418C3.03989 43.0718 3.02227 43.2016 3.0052 43.3314C2.93067 43.8866 2.86177 44.4423 2.79877 44.999H5.21282C5.22791 44.9798 5.24347 44.9607 5.2581 44.9421C6.45959 43.4402 7.60212 41.8537 8.95914 40.4856C10.2618 39.1719 11.6082 37.8843 12.9914 36.6562C14.2361 35.5514 15.5543 34.4687 16.9864 33.5985C16.5202 33.4172 16.0612 33.2088 15.6334 32.9551C15.5579 32.9103 15.4824 32.8635 15.4074 32.8147C14.9549 32.5208 14.5205 32.1493 14.2669 31.6752C13.9799 31.1396 13.9981 30.5125 14.3509 30.0101C14.6785 29.5441 15.1804 29.2411 15.6953 29.0195C16.1347 28.8308 16.5782 28.6823 17.0256 28.565C19.654 27.876 22.4038 28.2937 25.1132 28.2816C26.0892 28.2771 27.5262 28.0904 28.7342 28.3079C29.7001 28.4815 30.5196 28.9139 30.8377 29.9059C30.9303 30.1943 30.9766 30.5009 30.9721 30.8059C31.1598 30.7692 31.3486 30.7384 31.5383 30.7158C32.2953 30.6252 33.1073 30.7354 33.6508 31.3218C33.8144 31.498 33.9226 31.6913 33.984 31.8936C34.0882 31.9465 34.1707 32.0356 34.1869 32.1513C34.3907 33.6019 33.081 34.7671 32.1549 35.6969C31.9324 35.9203 31.709 36.1423 31.4834 36.3623C31.3979 36.8172 31.4109 37.3035 31.4689 37.7957C31.6153 37.8345 31.7492 37.9402 31.7708 38.0912C31.8217 38.4435 31.7859 38.7918 31.6948 39.1281C31.7749 39.5388 31.8514 39.937 31.8917 40.3079C31.9228 40.5978 31.9465 40.9069 31.9616 41.2285C32.1811 41.2748 32.3648 41.467 32.2747 41.7414C32.2017 41.9639 32.098 42.1607 31.9742 42.3409C31.9531 43.2248 31.8559 44.1469 31.6491 45H38.1305C38.199 43.6939 38.0067 42.2176 37.978 41.4902ZM20.5228 23.6671C20.5097 23.728 20.4941 23.7874 20.478 23.8462C20.473 23.8644 20.4675 23.8825 20.4619 23.9006C20.4498 23.9414 20.4377 23.9812 20.4241 24.0204C20.4176 24.04 20.411 24.0592 20.404 24.0783C20.3899 24.1176 20.3753 24.1558 20.3597 24.1941C20.3532 24.2102 20.3471 24.2263 20.3406 24.2419C20.3184 24.2947 20.2948 24.3461 20.2701 24.3965C20.2681 24.401 20.2656 24.4055 20.2631 24.4101C20.2404 24.4558 20.2162 24.5002 20.1916 24.5439C20.183 24.559 20.1739 24.5741 20.1649 24.5892C20.1452 24.6219 20.1252 24.6546 20.1046 24.6863C20.0944 24.702 20.0844 24.7171 20.0738 24.7326C20.0517 24.7654 20.0285 24.7971 20.0054 24.8287C19.9968 24.8404 19.9882 24.8529 19.9792 24.8646C19.9465 24.9068 19.9132 24.9481 19.8785 24.9883C19.874 24.9939 19.869 24.9989 19.8645 25.004C19.8342 25.0382 19.8031 25.0719 19.7713 25.1046C19.7598 25.1162 19.7481 25.1278 19.7366 25.1389C19.7099 25.165 19.6832 25.1907 19.6561 25.2158C19.6435 25.2269 19.6314 25.2385 19.6188 25.2496C19.5886 25.2763 19.5574 25.3025 19.5262 25.3276C19.5171 25.3352 19.508 25.3427 19.499 25.3503C19.4577 25.383 19.4155 25.4147 19.3727 25.4449C19.3667 25.4489 19.3611 25.4529 19.355 25.457C19.3178 25.4826 19.28 25.5073 19.2418 25.5315C19.2292 25.5395 19.2167 25.5471 19.2041 25.5546C19.1708 25.5747 19.1371 25.5944 19.1028 25.6135C19.0903 25.6206 19.0773 25.6276 19.0646 25.6346C19.0254 25.6558 18.9851 25.6759 18.9449 25.6956C18.9383 25.6986 18.9318 25.7021 18.9247 25.7056C18.8759 25.7287 18.826 25.7509 18.7758 25.7716C18.7707 25.7735 18.7656 25.7755 18.7601 25.7776C18.7159 25.7957 18.6715 25.8128 18.6267 25.829C18.6152 25.833 18.6031 25.8375 18.591 25.8415C18.5508 25.8556 18.51 25.8687 18.4692 25.8813C18.4581 25.8848 18.4471 25.8883 18.4354 25.8913C18.3851 25.9064 18.3343 25.92 18.2829 25.9331C18.2824 25.9331 18.282 25.9336 18.2814 25.9336C18.2261 25.9472 18.1702 25.9598 18.1138 25.9709C18.1108 25.9714 18.1078 25.9718 18.1048 25.9724C18.0539 25.9824 18.0031 25.991 17.9518 25.999C17.9422 26.0005 17.9327 26.0021 17.9225 26.0036C17.8753 26.0106 17.8274 26.0166 17.7796 26.0222C17.7721 26.0232 17.764 26.0242 17.7564 26.0247C17.6427 26.0368 17.5279 26.0438 17.4122 26.0464C17.4117 26.0464 17.4111 26.0464 17.4107 26.0464C17.3548 26.0474 17.2989 26.0474 17.243 26.0464C17.236 26.0464 17.229 26.0459 17.222 26.0459C17.1691 26.0449 17.1157 26.0423 17.0624 26.0393C17.0584 26.0393 17.0543 26.0388 17.0508 26.0388C16.8756 26.0277 16.701 26.006 16.5273 25.9739C16.5223 25.9729 16.5172 25.9718 16.5127 25.9714C16.4569 25.9608 16.401 25.9492 16.3456 25.9367C16.3446 25.9367 16.3436 25.9361 16.343 25.9361C16.2263 25.9095 16.1101 25.8783 15.9958 25.842C14.9126 25.5018 13.9638 24.7473 13.5898 23.6475C12.9813 21.8556 14.3443 20.3506 15.9882 19.8417C16.091 19.81 16.1951 19.7818 16.2998 19.7582C16.3511 19.7466 16.4025 19.736 16.4543 19.726C16.4558 19.7255 16.4573 19.7255 16.4594 19.7249C16.5625 19.7058 16.6668 19.6902 16.7704 19.6792C16.7739 19.6786 16.7775 19.6786 16.781 19.6781C16.8283 19.6731 16.8756 19.669 16.9234 19.666C16.929 19.6656 16.934 19.665 16.9396 19.665C17.0402 19.6585 17.1409 19.6565 17.2411 19.658C17.2491 19.658 17.2566 19.6585 17.2647 19.6585C17.3065 19.6595 17.3482 19.6615 17.3895 19.6641C17.399 19.6645 17.4081 19.665 17.4177 19.6656C17.5144 19.6721 17.61 19.6826 17.7051 19.6977C17.7162 19.6993 17.7273 19.7013 17.7389 19.7034C17.7755 19.7094 17.8118 19.7164 17.8481 19.7234C17.8601 19.726 17.8722 19.728 17.8838 19.731C17.9754 19.7506 18.066 19.7743 18.1551 19.8025C18.1677 19.8065 18.1803 19.8105 18.1928 19.815C18.2255 19.8262 18.2583 19.8372 18.291 19.8493C18.3035 19.8538 18.3167 19.8589 18.3292 19.8634C18.3725 19.88 18.4153 19.8976 18.4576 19.9163C19.2046 20.2489 19.8423 20.871 20.2198 21.612C20.544 22.2442 20.6763 22.9655 20.5228 23.6671ZM29.5949 24.2973C29.5768 24.3446 29.5571 24.3904 29.5365 24.4357C29.5335 24.4422 29.5305 24.4488 29.5275 24.4553C29.5074 24.4981 29.4862 24.5399 29.464 24.5812C29.46 24.5887 29.4555 24.5962 29.4515 24.6038C29.4288 24.6445 29.4052 24.6844 29.3805 24.7231C29.3765 24.7291 29.3729 24.7352 29.3689 24.7407C29.3427 24.7809 29.3155 24.8208 29.2874 24.8595L29.2869 24.86C29.2582 24.8988 29.2286 24.936 29.1978 24.9727C29.1933 24.9783 29.1893 24.9833 29.1847 24.9889C29.1551 25.0236 29.1248 25.0573 29.0931 25.0905C29.0871 25.0966 29.0816 25.1031 29.0755 25.1091C29.0438 25.1419 29.0115 25.1741 28.9783 25.2048C28.9733 25.2098 28.9677 25.2143 28.9628 25.2188C28.9275 25.2511 28.8918 25.2828 28.8545 25.313C28.854 25.313 28.854 25.3135 28.8535 25.314C28.8168 25.3442 28.7786 25.3739 28.7397 25.4026C28.7342 25.4066 28.7287 25.4106 28.7231 25.4147C28.6859 25.4419 28.6477 25.468 28.6089 25.4937C28.6018 25.4982 28.5948 25.5033 28.5872 25.5078C28.5485 25.533 28.5087 25.5576 28.469 25.5813C28.4629 25.5848 28.4563 25.5883 28.4499 25.5923C28.4076 25.617 28.3647 25.6407 28.3215 25.6633C28.321 25.6633 28.3205 25.6639 28.32 25.6639C28.2761 25.6865 28.2319 25.7081 28.1871 25.7293C28.1811 25.7323 28.1745 25.7353 28.1684 25.7383C28.1252 25.7585 28.0814 25.7776 28.0371 25.7962C28.029 25.7997 28.021 25.8027 28.0129 25.8063C27.9686 25.8244 27.9238 25.842 27.8786 25.8586C27.8715 25.8611 27.8645 25.8636 27.8574 25.8662C27.8101 25.8832 27.7623 25.8999 27.7139 25.9155C27.7135 25.9155 27.713 25.916 27.7124 25.916C27.6641 25.9316 27.6148 25.9462 27.5654 25.9603C27.559 25.9623 27.5524 25.9638 27.5463 25.9658C27.4991 25.979 27.4512 25.9915 27.4029 26.0036C27.3943 26.0056 27.3858 26.0076 27.3772 26.0096C27.3294 26.0212 27.2811 26.0323 27.2328 26.0423C27.2257 26.0438 27.2187 26.0453 27.2112 26.0468C27.1602 26.0574 27.1094 26.067 27.0582 26.0761C27.0576 26.0761 27.0571 26.0761 27.0566 26.0761C27.0053 26.0851 26.9534 26.0931 26.9021 26.1002C26.8955 26.1012 26.889 26.1022 26.8829 26.1033C26.8332 26.1103 26.7833 26.1163 26.7335 26.1218C26.7249 26.1229 26.7163 26.1239 26.7083 26.1249C26.6585 26.1305 26.6086 26.135 26.5588 26.139C26.5517 26.1395 26.5447 26.14 26.5377 26.1405C26.4853 26.1445 26.4335 26.148 26.3811 26.1505H26.3806C26.3277 26.153 26.2754 26.1551 26.223 26.156C26.217 26.156 26.211 26.1566 26.2049 26.1566C26.1546 26.1576 26.1043 26.1576 26.0545 26.1576C26.0464 26.1576 26.0383 26.1576 26.0303 26.1576C25.9805 26.1571 25.9306 26.156 25.8813 26.1541C25.8748 26.1541 25.8682 26.1536 25.8617 26.1531C25.7575 26.149 25.6543 26.142 25.5526 26.1329C25.5471 26.1324 25.5416 26.132 25.536 26.1314C25.4872 26.1269 25.4389 26.1214 25.3905 26.1158C25.383 26.1148 25.3754 26.1138 25.3679 26.1128C25.3201 26.1067 25.2728 26.1002 25.2254 26.0931C25.2189 26.0922 25.2129 26.0912 25.2063 26.0901C25.1575 26.0826 25.1087 26.0746 25.0609 26.0655C24.8248 26.0222 24.5999 25.9638 24.3934 25.8923C23.7985 25.6865 23.2252 25.2742 22.8749 24.7427C22.8079 24.6954 22.7501 24.6279 22.7123 24.5374C22.3549 23.6762 22.4631 22.6313 22.8075 21.7841C23.1638 20.9063 23.7824 20.2298 24.702 19.9474C24.8183 19.9117 24.9365 19.8825 25.0563 19.8583C25.5365 19.7612 26.0368 19.7572 26.5245 19.8372C26.5291 19.8382 26.5336 19.8387 26.5381 19.8392C26.5769 19.8458 26.6157 19.8528 26.6545 19.8604C26.662 19.8619 26.669 19.8634 26.6766 19.8649C26.7133 19.8724 26.7501 19.88 26.7863 19.8885C26.7954 19.8906 26.8045 19.8925 26.8135 19.8951C26.8487 19.9036 26.884 19.9122 26.9192 19.9212C26.9292 19.9238 26.9393 19.9268 26.9494 19.9293C26.9836 19.9384 27.0178 19.948 27.0521 19.958C27.0627 19.961 27.0727 19.9645 27.0833 19.9675C27.117 19.9777 27.1507 19.9882 27.1844 19.9992C27.1946 20.0028 27.2046 20.0064 27.2146 20.0098C27.2484 20.0215 27.2826 20.033 27.3158 20.0455C27.3238 20.0486 27.3319 20.0516 27.3395 20.0546C27.4885 20.1105 27.6344 20.1745 27.7759 20.2464C27.7904 20.2539 27.8046 20.261 27.8191 20.268C27.8428 20.2807 27.8665 20.2937 27.8901 20.3064C27.9083 20.3159 27.9259 20.326 27.9435 20.336C27.9651 20.3485 27.9867 20.3612 28.0084 20.3738C28.0275 20.3853 28.0466 20.3965 28.0658 20.408C28.0859 20.4205 28.1061 20.4331 28.1261 20.4462C28.1458 20.4588 28.1654 20.4715 28.1851 20.4845C28.2042 20.497 28.2234 20.5102 28.2425 20.5233C28.2626 20.5368 28.2822 20.551 28.3018 20.5645C28.32 20.5776 28.3386 20.5907 28.3567 20.6043C28.3768 20.6189 28.3965 20.634 28.4161 20.6491C28.4337 20.6627 28.4508 20.6757 28.468 20.6899C28.4881 20.7059 28.5077 20.722 28.5274 20.7382C28.544 20.7518 28.5601 20.7654 28.5761 20.7794C28.5963 20.7966 28.6159 20.8142 28.6356 20.8318C28.6507 20.8454 28.6658 20.859 28.6809 20.8726C28.7015 20.8917 28.7212 20.9109 28.7412 20.9304C28.7548 20.9436 28.7684 20.9566 28.782 20.9697C28.8041 20.9919 28.8253 21.014 28.847 21.0367C28.8581 21.0482 28.8691 21.0593 28.8797 21.0709C28.9114 21.1051 28.9426 21.1404 28.9733 21.1756C29.2492 21.4977 29.4625 21.8757 29.5994 22.2784C29.8219 22.9347 29.841 23.6535 29.5949 24.2973Z" fill="#FFCD2E"/>
<path d="M26.4339 24.282C26.4626 24.2784 26.4913 24.2749 26.52 24.2699C26.5401 24.1758 26.5618 24.0816 26.5848 23.9885C26.5642 24.0032 26.5416 24.0157 26.5185 24.0247C26.4887 24.1099 26.4605 24.1959 26.4339 24.282Z" fill="#FFCD2E"/>
<path d="M18.4002 23.7577C18.4017 23.7411 18.4037 23.725 18.4047 23.7084C18.377 23.7964 18.3478 23.882 18.3151 23.9625C18.3508 23.9007 18.3785 23.8317 18.4002 23.7577Z" fill="#FFCD2E"/>
<path d="M27.6841 21.9711C27.6705 21.9666 27.6569 21.9615 27.6433 21.957C27.6982 22.0229 27.75 22.0919 27.7969 22.1624C27.816 22.1573 27.8351 22.1553 27.8543 22.1543C27.8522 22.1457 27.8507 22.1367 27.8492 22.1281C27.7973 22.0728 27.7425 22.0194 27.6841 21.9711Z" fill="#FFCD2E"/>
<path d="M15.633 24.0306C15.5872 23.9008 15.55 23.7634 15.5237 23.6214C15.5097 23.6335 15.4946 23.645 15.4799 23.6567C15.4739 23.7447 15.475 23.8323 15.482 23.9189C15.5298 23.9591 15.5806 23.9958 15.633 24.0306Z" fill="#FFCD2E"/>
<path d="M16.0011 23.3335C16.0041 23.3672 16.0081 23.4005 16.0127 23.4336C16.0298 23.2596 16.054 23.0854 16.0877 22.9137C16.057 22.9681 16.0253 23.021 15.9921 23.0728C15.99 23.1598 15.993 23.2469 16.0011 23.3335Z" fill="#FFCD2E"/>
<path d="M17.5849 22.9603C17.5985 22.8673 17.6085 22.7726 17.6176 22.6775C17.5788 22.841 17.5411 23.0046 17.5013 23.1667C17.4615 23.3288 17.4192 23.4894 17.372 23.6458C17.3624 23.6776 17.3529 23.7098 17.3427 23.7425C17.3327 23.7752 17.3226 23.8079 17.3121 23.8417C17.2915 23.9086 17.2698 23.9771 17.2466 24.0461C17.4192 23.7637 17.5089 23.4229 17.5637 23.0983C17.5713 23.0519 17.5783 23.0056 17.5849 22.9603Z" fill="#FFCD2E"/>
<path d="M25.207 26.0905C25.1582 26.083 25.1093 26.075 25.0615 26.0659C25.1093 26.075 25.1582 26.083 25.207 26.0905Z" fill="white"/>
<path d="M29.5278 24.4555C29.5076 24.4983 29.4864 24.54 29.4643 24.5814C29.4864 24.5406 29.5076 24.4988 29.5278 24.4555Z" fill="white"/>
<path d="M29.5949 24.2971C29.5768 24.3444 29.5572 24.3902 29.5366 24.4354C29.5572 24.3902 29.5768 24.3444 29.5949 24.2971Z" fill="white"/>
<path d="M26.8129 19.8961C26.8482 19.9047 26.8833 19.9132 26.9186 19.9223C26.8833 19.9132 26.8486 19.9041 26.8129 19.8961Z" fill="white"/>
<path d="M26.5383 19.8403C26.5771 19.8469 26.6158 19.8539 26.6545 19.8614C26.6158 19.8539 26.5771 19.8469 26.5383 19.8403Z" fill="white"/>
<path d="M26.6765 19.8659C26.7133 19.8735 26.75 19.881 26.7862 19.8897C26.75 19.8816 26.7133 19.8735 26.6765 19.8659Z" fill="white"/>
<path d="M28.5268 20.7393C28.5434 20.7529 28.5595 20.7665 28.5756 20.7806C28.5595 20.7665 28.5434 20.7529 28.5268 20.7393Z" fill="white"/>
<path d="M26.2053 26.1574C26.155 26.1583 26.1047 26.1583 26.0549 26.1583C26.1052 26.1589 26.155 26.1583 26.2053 26.1574Z" fill="white"/>
<path d="M26.0308 26.1582C25.981 26.1578 25.9311 26.1567 25.8818 26.1547C25.9311 26.1567 25.9805 26.1578 26.0308 26.1582Z" fill="white"/>
<path d="M25.8623 26.1538C25.758 26.1497 25.6549 26.1426 25.5532 26.1336C25.6549 26.1432 25.758 26.1497 25.8623 26.1538Z" fill="white"/>
<path d="M25.5365 26.1319C25.4878 26.1273 25.4394 26.1217 25.3911 26.1162C25.4394 26.1217 25.4878 26.1273 25.5365 26.1319Z" fill="white"/>
<path d="M25.3679 26.1138C25.3201 26.1078 25.2727 26.1013 25.2254 26.0942C25.2722 26.1013 25.3201 26.1078 25.3679 26.1138Z" fill="white"/>
<path d="M28.1862 20.4857C28.2053 20.4983 28.2245 20.5113 28.2436 20.5245C28.2245 20.5113 28.2053 20.4988 28.1862 20.4857Z" fill="white"/>
<path d="M28.0663 20.4088C28.0864 20.4215 28.1065 20.4341 28.1267 20.4471C28.1071 20.4341 28.0869 20.4209 28.0663 20.4088Z" fill="white"/>
<path d="M28.451 25.5925C28.4087 25.6172 28.3659 25.6409 28.3226 25.6635C28.3659 25.6409 28.4087 25.6167 28.451 25.5925Z" fill="white"/>
<path d="M26.9493 19.93C26.9836 19.9391 27.0178 19.9487 27.052 19.9587C27.0182 19.9487 26.984 19.9391 26.9493 19.93Z" fill="white"/>
<path d="M28.3025 20.5654C28.3207 20.5785 28.3392 20.5916 28.3574 20.6052C28.3388 20.5916 28.3207 20.5785 28.3025 20.5654Z" fill="white"/>
<path d="M26.3818 26.151C26.329 26.1535 26.2766 26.1556 26.2242 26.1565C26.2766 26.1556 26.3295 26.1535 26.3818 26.151Z" fill="white"/>
<path d="M27.8191 20.2688C27.8428 20.2813 27.8664 20.2945 27.8901 20.307C27.8664 20.2945 27.8433 20.2813 27.8191 20.2688Z" fill="white"/>
<path d="M27.083 19.9685C27.1167 19.9785 27.1504 19.9891 27.1842 20.0002C27.1509 19.9897 27.1172 19.9791 27.083 19.9685Z" fill="white"/>
<path d="M27.2148 20.0106C27.2486 20.0222 27.2828 20.0337 27.316 20.0463C27.2828 20.0337 27.2486 20.0222 27.2148 20.0106Z" fill="white"/>
<path d="M27.3394 20.0555C27.4883 20.1113 27.6343 20.1753 27.7758 20.2472C27.6343 20.1753 27.4883 20.1113 27.3394 20.0555Z" fill="white"/>
<path d="M28.416 20.6505C28.4336 20.6641 28.4508 20.6773 28.4679 20.6913C28.4508 20.6773 28.4332 20.6641 28.416 20.6505Z" fill="white"/>
<path d="M27.8591 25.8663C27.8117 25.8834 27.7639 25.9 27.7156 25.9156C27.7639 25.9005 27.8117 25.8839 27.8591 25.8663Z" fill="white"/>
<path d="M29.0754 25.1091C29.0436 25.1419 29.0114 25.1741 28.9781 25.2048C29.0109 25.1736 29.0436 25.1419 29.0754 25.1091Z" fill="white"/>
<path d="M28.0139 25.8068C27.9696 25.8249 27.9248 25.8426 27.8795 25.8592C27.9248 25.8426 27.9696 25.8249 28.0139 25.8068Z" fill="white"/>
<path d="M28.9627 25.219C28.9276 25.2512 28.8918 25.2829 28.8546 25.3131C28.8918 25.2829 28.9276 25.2512 28.9627 25.219Z" fill="white"/>
<path d="M27.7134 25.9166C27.665 25.9323 27.6157 25.9468 27.5664 25.961C27.6162 25.9468 27.665 25.9323 27.7134 25.9166Z" fill="white"/>
<path d="M28.8529 25.3142C28.8162 25.3444 28.7779 25.374 28.7392 25.4027C28.7779 25.374 28.8162 25.3449 28.8529 25.3142Z" fill="white"/>
<path d="M28.7235 25.4149C28.6862 25.4421 28.6479 25.4683 28.6092 25.4939C28.6479 25.4683 28.6862 25.4421 28.7235 25.4149Z" fill="white"/>
<path d="M28.5874 25.5083C28.5486 25.5334 28.5089 25.5581 28.4691 25.5818C28.5093 25.5581 28.5486 25.5334 28.5874 25.5083Z" fill="white"/>
<path d="M28.32 25.6649C28.2762 25.6874 28.2319 25.7091 28.1871 25.7303C28.2324 25.7091 28.2768 25.6874 28.32 25.6649Z" fill="white"/>
<path d="M28.1693 25.739C28.126 25.7592 28.0822 25.7783 28.0379 25.7969C28.0822 25.7783 28.126 25.7592 28.1693 25.739Z" fill="white"/>
<path d="M26.5392 26.1409C26.4868 26.145 26.4349 26.1484 26.3826 26.151C26.4345 26.1484 26.4868 26.145 26.5392 26.1409Z" fill="white"/>
<path d="M27.0591 26.0768C27.0077 26.0859 26.9559 26.094 26.9045 26.101C26.9559 26.094 27.0077 26.0859 27.0591 26.0768Z" fill="white"/>
<path d="M26.8845 26.1043C26.8348 26.1113 26.7849 26.1174 26.7351 26.123C26.7849 26.1174 26.8348 26.1113 26.8845 26.1043Z" fill="white"/>
<path d="M27.5479 25.967C27.5005 25.9801 27.4527 25.9927 27.4044 26.0048C27.4527 25.9927 27.5005 25.9801 27.5479 25.967Z" fill="white"/>
<path d="M29.452 24.6038C29.4294 24.6446 29.4056 24.6843 29.381 24.7231C29.4056 24.6843 29.4294 24.6441 29.452 24.6038Z" fill="white"/>
<path d="M26.7098 26.1254C26.66 26.1309 26.6101 26.1354 26.5602 26.1394C26.6101 26.1354 26.66 26.1309 26.7098 26.1254Z" fill="white"/>
<path d="M29.3692 24.7411C29.343 24.7814 29.3158 24.8212 29.2876 24.8599C29.3158 24.8216 29.343 24.7819 29.3692 24.7411Z" fill="white"/>
<path d="M27.2132 26.0475C27.1623 26.0581 27.1115 26.0677 27.0601 26.0767C27.1115 26.0677 27.1623 26.0581 27.2132 26.0475Z" fill="white"/>
<path d="M29.1842 24.9892C29.1546 25.0239 29.1243 25.0576 29.0926 25.0908C29.1243 25.0576 29.155 25.0239 29.1842 24.9892Z" fill="white"/>
<path d="M27.3795 26.01C27.3316 26.0216 27.2833 26.0327 27.235 26.0427C27.2833 26.0327 27.3316 26.0216 27.3795 26.01Z" fill="white"/>
<path d="M29.287 24.861C29.2583 24.8997 29.2286 24.937 29.1979 24.9737C29.2286 24.9365 29.2588 24.8993 29.287 24.861Z" fill="white"/>
<path d="M27.9445 20.3365C27.9662 20.3491 27.9878 20.3616 28.0095 20.3742C27.9878 20.3616 27.9662 20.3491 27.9445 20.3365Z" fill="white"/>
<path d="M28.6357 20.8327C28.6508 20.8463 28.6659 20.8599 28.681 20.8735C28.6665 20.8599 28.6508 20.8463 28.6357 20.8327Z" fill="white"/>
<path d="M26.5242 19.8379C26.0365 19.7579 25.5362 19.7619 25.056 19.859C25.5362 19.7619 26.036 19.7579 26.5242 19.8379Z" fill="white"/>
<path d="M25.0554 19.8595C24.9361 19.8837 24.8179 19.9129 24.701 19.9486C23.7814 20.231 23.1629 20.9075 22.8065 21.7853C22.4627 22.6324 22.3545 23.6779 22.7114 24.5386C22.7491 24.6291 22.807 24.6966 22.874 24.7439C23.2243 25.2749 23.797 25.6872 24.3925 25.8935C24.5994 25.965 24.8238 26.0234 25.0599 26.0667C25.0574 25.3067 25.0524 24.5471 25.0518 23.7875C25.0514 22.4789 25.0629 21.1687 25.0554 19.8595Z" fill="white"/>
<path d="M28.7419 20.9316C28.7564 20.9456 28.7709 20.9596 28.7854 20.9735C28.7709 20.9596 28.7564 20.9461 28.7419 20.9316Z" fill="white"/>
<path d="M28.8463 21.0378C28.8581 21.0502 28.8699 21.062 28.8812 21.0743C28.8699 21.062 28.8581 21.0496 28.8463 21.0378Z" fill="white"/>
<path d="M17.4134 26.0439C17.3575 26.0448 17.3016 26.0448 17.2457 26.0439C17.3016 26.0448 17.3575 26.0448 17.4134 26.0439Z" fill="white"/>
<path d="M17.9243 26.0018C17.8769 26.0088 17.8291 26.0148 17.7813 26.0203C17.8291 26.0148 17.8769 26.0088 17.9243 26.0018Z" fill="white"/>
<path d="M18.1064 25.9706C18.0556 25.9808 18.0047 25.9893 17.9534 25.9974C18.0047 25.9893 18.0556 25.9808 18.1064 25.9706Z" fill="white"/>
<path d="M17.7584 26.0228C17.6447 26.0349 17.53 26.042 17.4142 26.0445C17.53 26.042 17.6447 26.0349 17.7584 26.0228Z" fill="white"/>
<path d="M18.2831 25.9322C18.2278 25.9458 18.1719 25.9584 18.1155 25.9695C18.1719 25.9579 18.2278 25.9458 18.2831 25.9322Z" fill="white"/>
<path d="M18.7616 25.7756C18.7172 25.7938 18.673 25.8109 18.6282 25.827C18.673 25.8109 18.7172 25.7938 18.7616 25.7756Z" fill="white"/>
<path d="M18.5926 25.8397C18.5523 25.8538 18.5115 25.8669 18.4707 25.8795C18.5115 25.8669 18.5523 25.8533 18.5926 25.8397Z" fill="white"/>
<path d="M18.4365 25.8892C18.3861 25.9043 18.3353 25.9178 18.2839 25.931C18.3353 25.9184 18.3861 25.9043 18.4365 25.8892Z" fill="white"/>
<path d="M18.9255 25.7042C18.8767 25.7274 18.8268 25.7495 18.7765 25.7701C18.8268 25.7495 18.8767 25.7274 18.9255 25.7042Z" fill="white"/>
<path d="M18.157 19.8001C18.0679 19.7719 17.9773 19.7483 17.8857 19.7286C17.9773 19.7483 18.0679 19.7719 18.157 19.8001Z" fill="white"/>
<path d="M18.3306 19.8614C18.3739 19.878 18.4167 19.8957 18.459 19.9142C18.4167 19.8957 18.3739 19.878 18.3306 19.8614Z" fill="white"/>
<path d="M17.2466 24.0454C17.2698 23.9765 17.2915 23.9081 17.3121 23.8411C17.2909 23.9081 17.2692 23.9765 17.2466 24.0454Z" fill="white"/>
<path d="M17.5013 23.1664C17.4616 23.3285 17.4193 23.4891 17.372 23.6456C17.3625 23.6773 17.3529 23.7095 17.3428 23.7422C17.3529 23.7095 17.3625 23.6773 17.372 23.6456C17.4198 23.4891 17.4616 23.3285 17.5013 23.1664Z" fill="white"/>
<path d="M17.0533 26.0365C16.8786 26.0255 16.7035 26.0038 16.5298 25.9716C16.7035 26.0038 16.8786 26.0255 17.0533 26.0365Z" fill="white"/>
<path d="M16.3452 25.9338C16.2284 25.9071 16.1121 25.876 15.9979 25.8397C16.1121 25.8754 16.2284 25.9071 16.3452 25.9338Z" fill="white"/>
<path d="M18.1942 19.8119C18.2269 19.823 18.2596 19.834 18.2924 19.8461C18.2602 19.8346 18.2275 19.823 18.1942 19.8119Z" fill="white"/>
<path d="M16.5147 25.9687C16.4588 25.9582 16.403 25.9466 16.3476 25.934C16.403 25.9471 16.4588 25.9587 16.5147 25.9687Z" fill="white"/>
<path d="M20.0745 24.731C20.0523 24.7637 20.0291 24.7954 20.006 24.8271C20.0297 24.7959 20.0523 24.7637 20.0745 24.731Z" fill="white"/>
<path d="M19.0657 25.6328C19.0264 25.6539 18.9861 25.6741 18.9459 25.6938C18.9861 25.6746 19.0258 25.6539 19.0657 25.6328Z" fill="white"/>
<path d="M20.1652 24.5882C20.1456 24.6209 20.1255 24.6536 20.1049 24.6854C20.1255 24.6536 20.1456 24.6209 20.1652 24.5882Z" fill="white"/>
<path d="M20.2633 24.4097C20.2407 24.4555 20.2165 24.4998 20.1918 24.5436C20.2165 24.4998 20.2407 24.4555 20.2633 24.4097Z" fill="white"/>
<path d="M20.4045 24.0773C20.3905 24.1166 20.3759 24.1549 20.3603 24.1931C20.3754 24.1553 20.3905 24.1166 20.4045 24.0773Z" fill="white"/>
<path d="M20.5223 23.6672C20.5092 23.7281 20.4935 23.7875 20.4775 23.8464C20.4941 23.788 20.5092 23.7286 20.5223 23.6672Z" fill="white"/>
<path d="M20.4622 23.8997C20.4501 23.94 20.438 23.9803 20.4244 24.0195C20.438 23.9807 20.4505 23.9405 20.4622 23.8997Z" fill="white"/>
<path d="M20.341 24.2421C20.3188 24.295 20.2952 24.3463 20.2706 24.3966C20.2952 24.3463 20.3188 24.2945 20.341 24.2421Z" fill="white"/>
<path d="M19.4988 25.349C19.4575 25.3817 19.4152 25.4134 19.3725 25.4436C19.4152 25.4134 19.4575 25.3817 19.4988 25.349Z" fill="white"/>
<path d="M19.9794 24.8629C19.9467 24.9051 19.9134 24.9464 19.8787 24.9867C19.9134 24.9464 19.9472 24.9051 19.9794 24.8629Z" fill="white"/>
<path d="M19.2046 25.5532C19.1713 25.5733 19.1376 25.593 19.1033 25.6121C19.1376 25.593 19.1713 25.5733 19.2046 25.5532Z" fill="white"/>
<path d="M19.3557 25.4561C19.3185 25.4818 19.2807 25.5065 19.2424 25.5306C19.2807 25.5065 19.3185 25.4818 19.3557 25.4561Z" fill="white"/>
<path d="M19.6189 25.2483C19.5887 25.275 19.5575 25.3012 19.5263 25.3264C19.558 25.3012 19.5887 25.2755 19.6189 25.2483Z" fill="white"/>
<path d="M19.8648 25.0029C19.8345 25.0372 19.8034 25.0709 19.7716 25.1036C19.8034 25.0709 19.8345 25.0372 19.8648 25.0029Z" fill="white"/>
<path d="M19.7378 25.1375C19.711 25.1637 19.6844 25.1894 19.6572 25.2145C19.6844 25.1898 19.711 25.1641 19.7378 25.1375Z" fill="white"/>
<path d="M17.224 26.044C17.1712 26.043 17.1179 26.0406 17.0645 26.0375C17.1179 26.0406 17.1712 26.043 17.224 26.044Z" fill="white"/>
<path d="M16.9418 19.6631C17.0425 19.6566 17.1431 19.6545 17.2433 19.656C17.1436 19.654 17.0429 19.6566 16.9418 19.6631Z" fill="white"/>
<path d="M16.3018 19.7562C16.3531 19.7447 16.4045 19.7341 16.4563 19.724C16.4049 19.7336 16.3531 19.7441 16.3018 19.7562Z" fill="white"/>
<path d="M16.7834 19.6757C16.8307 19.6706 16.8781 19.6666 16.9259 19.6636C16.8781 19.6666 16.8307 19.6706 16.7834 19.6757Z" fill="white"/>
<path d="M16.462 19.7231C16.5652 19.704 16.6694 19.6884 16.7731 19.6773C16.6694 19.6884 16.5657 19.704 16.462 19.7231Z" fill="white"/>
<path d="M17.4197 19.6636C17.5163 19.6702 17.612 19.6808 17.7071 19.6959C17.612 19.6812 17.5163 19.6702 17.4197 19.6636Z" fill="white"/>
<path d="M15.9905 19.8397C16.0933 19.8079 16.1974 19.7798 16.3022 19.7561C16.1974 19.7798 16.0938 19.8079 15.9905 19.8397Z" fill="white"/>
<path d="M17.741 19.7011C17.7778 19.7072 17.8141 19.7143 17.8502 19.7213C17.8141 19.7143 17.7773 19.7072 17.741 19.7011Z" fill="white"/>
<path d="M17.2668 19.6563C17.3085 19.6573 17.3503 19.6593 17.3916 19.6618C17.3503 19.6593 17.3085 19.6573 17.2668 19.6563Z" fill="white"/>
<path d="M16.0011 23.3331C15.9932 23.2465 15.9901 23.1594 15.9922 23.0723C16.0253 23.0205 16.0576 22.9672 16.0878 22.9132C16.0601 22.9626 16.0309 23.0104 16.0011 23.0577C16.0007 21.9851 15.9977 20.912 15.9906 19.8394C14.3468 20.3483 12.9837 21.8532 13.5923 23.6451C13.9657 24.7449 14.9145 25.4994 15.9981 25.8396C16.0002 25.0041 16.0017 24.1686 16.0011 23.3331ZM15.4803 23.6572C15.4948 23.6451 15.5099 23.6341 15.5241 23.622C15.5502 23.7639 15.587 23.9013 15.6333 24.0312C15.5809 23.9964 15.5301 23.9597 15.4827 23.9199C15.4752 23.8328 15.4742 23.7448 15.4803 23.6572Z" fill="white"/>
<path d="M28.9734 21.1772C28.9427 21.1415 28.9115 21.1068 28.8797 21.0725C28.8692 21.061 28.8582 21.0499 28.847 21.0383C28.8254 21.0157 28.8042 20.993 28.7821 20.9713C28.769 20.9583 28.7549 20.9452 28.7413 20.9321C28.7212 20.9125 28.701 20.8933 28.681 20.8742C28.6659 20.8606 28.6508 20.847 28.6357 20.8334C28.616 20.8158 28.5964 20.7982 28.5762 20.7811C28.5601 20.767 28.5435 20.7539 28.5274 20.7399C28.5078 20.7237 28.4881 20.7076 28.4681 20.6915C28.4509 20.6779 28.4338 20.6643 28.4162 20.6507C28.3965 20.6356 28.3769 20.6205 28.3568 20.6059C28.3387 20.5923 28.3206 20.5793 28.3019 20.5662C28.2823 20.5521 28.2627 20.5385 28.2425 20.5249C28.2234 20.5118 28.2042 20.4988 28.1851 20.4862C28.1655 20.4731 28.1459 20.4605 28.1263 20.4479C28.1061 20.4348 28.086 20.4223 28.0659 20.4097C28.0468 20.3981 28.0276 20.3865 28.0085 20.3754C27.9868 20.3628 27.9652 20.3498 27.9435 20.3377C27.9259 20.3276 27.9078 20.318 27.8902 20.308C27.8666 20.2948 27.8428 20.2818 27.8192 20.2697C27.8052 20.2621 27.7905 20.2551 27.7759 20.2481C27.6345 20.1761 27.4886 20.1121 27.3395 20.0563C27.3315 20.0533 27.3235 20.0503 27.3159 20.0473C27.2821 20.0347 27.2485 20.0231 27.2147 20.0115C27.2047 20.008 27.1946 20.0045 27.1845 20.0009C27.1508 19.9899 27.117 19.9793 27.0834 19.9693C27.0728 19.9663 27.0628 19.9627 27.0522 19.9597C27.0179 19.9496 26.9837 19.94 26.9495 19.931C26.9394 19.9285 26.9293 19.9255 26.9192 19.9229C26.8841 19.9138 26.8488 19.9053 26.8136 19.8968C26.8045 19.8947 26.7955 19.8928 26.7864 19.8902C26.7496 19.8817 26.7134 19.8741 26.6767 19.8665C26.6691 19.865 26.6621 19.8635 26.6545 19.862C26.6158 19.8545 26.577 19.8474 26.5382 19.8409C26.5337 19.8399 26.5291 19.8394 26.5246 19.8388C26.0369 19.7588 25.5366 19.7628 25.0564 19.86C25.0634 21.1692 25.0519 22.4794 25.0534 23.788C25.0544 24.5476 25.0589 25.3076 25.0615 26.0672C25.1093 26.0762 25.158 26.0843 25.2069 26.0919C25.2134 26.0928 25.2194 26.0938 25.226 26.0948C25.2734 26.1019 25.3207 26.1084 25.3685 26.1144C25.376 26.1155 25.3836 26.1165 25.3911 26.1174C25.4395 26.1235 25.4878 26.1286 25.5366 26.1331C25.5421 26.1336 25.5477 26.1341 25.5532 26.1346C25.6549 26.1442 25.758 26.1507 25.8623 26.1548C25.8688 26.1548 25.8753 26.1552 25.8819 26.1557C25.9312 26.1578 25.9811 26.1588 26.0309 26.1593C26.0389 26.1593 26.047 26.1593 26.055 26.1593C26.1054 26.1597 26.1552 26.1593 26.2055 26.1582C26.2116 26.1582 26.2176 26.1578 26.2237 26.1578C26.276 26.1567 26.3289 26.1548 26.3812 26.1522H26.3817C26.4341 26.1497 26.4859 26.1461 26.5382 26.1421C26.5453 26.1416 26.5523 26.1412 26.5594 26.1406C26.6092 26.1366 26.6591 26.1321 26.7088 26.1265C26.7174 26.1255 26.726 26.1246 26.7341 26.1235C26.7839 26.118 26.8337 26.1119 26.8835 26.1049C26.8901 26.1038 26.8966 26.1029 26.9026 26.1019C26.9545 26.0943 27.0058 26.0863 27.0571 26.0777C27.0577 26.0777 27.0582 26.0777 27.0587 26.0777C27.11 26.0687 27.1609 26.0591 27.2117 26.0485C27.2188 26.047 27.2258 26.0455 27.2334 26.044C27.2817 26.0339 27.3299 26.0228 27.3778 26.0113C27.3864 26.0093 27.3949 26.0073 27.4034 26.0052C27.4513 25.9931 27.4991 25.981 27.547 25.9674C27.5534 25.9655 27.56 25.964 27.566 25.9619C27.6154 25.9478 27.6642 25.9332 27.713 25.9177C27.7136 25.9177 27.714 25.9172 27.7145 25.9172C27.7629 25.9015 27.8107 25.8849 27.858 25.8678C27.8651 25.8654 27.8721 25.8628 27.8791 25.8603C27.9244 25.8437 27.9692 25.8261 28.0135 25.8079C28.0215 25.8044 28.0296 25.8014 28.0377 25.7979C28.082 25.7792 28.1258 25.7601 28.1691 25.74C28.1751 25.7369 28.1817 25.7339 28.1877 25.7309C28.2325 25.7098 28.2767 25.6882 28.3206 25.6655C28.3211 25.6655 28.3215 25.665 28.3221 25.665C28.3659 25.6423 28.4082 25.6181 28.4504 25.594C28.4564 25.5905 28.463 25.587 28.4696 25.583C28.5098 25.5593 28.5491 25.5346 28.5878 25.5095C28.5949 25.5049 28.6024 25.4999 28.6094 25.4953C28.6482 25.4697 28.6865 25.4435 28.7237 25.4163C28.7292 25.4124 28.7348 25.4083 28.7403 25.4043C28.7791 25.3756 28.8168 25.3464 28.8541 25.3157C28.8546 25.3151 28.8546 25.3151 28.8551 25.3147C28.8918 25.2845 28.9281 25.2528 28.9633 25.2205C28.9683 25.2155 28.9738 25.211 28.9789 25.2065C29.0121 25.1753 29.0448 25.1435 29.076 25.1109C29.0821 25.1048 29.0881 25.0988 29.0937 25.0922C29.1249 25.059 29.1556 25.0253 29.1852 24.9905C29.1898 24.9855 29.1939 24.98 29.1984 24.9744C29.2291 24.9377 29.2587 24.9004 29.2874 24.8617L29.288 24.8612C29.3167 24.8224 29.3433 24.7826 29.3695 24.7423C29.3735 24.7363 29.3775 24.7303 29.3811 24.7248C29.4057 24.686 29.4294 24.6458 29.4521 24.6054C29.4561 24.598 29.4606 24.5904 29.4646 24.5828C29.4867 24.5415 29.5079 24.4998 29.5281 24.457C29.5311 24.4504 29.5341 24.4439 29.5371 24.4374C29.5577 24.3921 29.5774 24.3462 29.5955 24.2989C29.8411 23.6552 29.822 22.9364 29.6 22.2816C29.4626 21.8773 29.2492 21.4989 28.9734 21.1772ZM26.5206 24.2702C26.4919 24.2753 26.4632 24.2793 26.4345 24.2823C26.4607 24.1958 26.4894 24.1102 26.5191 24.0251C26.5423 24.0156 26.5649 24.0035 26.5856 23.9889C26.5624 24.082 26.5408 24.1761 26.5206 24.2702ZM27.7976 22.1628C27.7503 22.0918 27.6989 22.0233 27.6441 21.9574C27.6577 21.9619 27.6713 21.967 27.6849 21.9715C27.7438 22.0198 27.7981 22.0732 27.85 22.1291C27.8519 22.1376 27.8534 22.1467 27.8549 22.1552C27.8358 22.1557 27.8162 22.1577 27.7976 22.1628Z" fill="#24193A"/>
<path d="M18.459 19.9143C18.4167 19.8956 18.3739 19.878 18.3306 19.8614C18.318 19.8564 18.305 19.8519 18.2923 19.8474C18.2597 19.8353 18.2274 19.8236 18.1942 19.8131C18.1816 19.8091 18.169 19.8045 18.1565 19.8005C18.0674 19.7724 17.9767 19.7486 17.8851 19.729C17.873 19.7265 17.8615 19.724 17.8494 19.7215C17.8131 19.714 17.777 19.7074 17.7402 19.7014C17.7291 19.6993 17.7181 19.6974 17.7065 19.6959C17.6119 19.6812 17.5157 19.6702 17.419 19.6636C17.4095 19.6631 17.4005 19.6626 17.3909 19.6621C17.3491 19.6596 17.3078 19.6576 17.266 19.6566C17.258 19.6566 17.2505 19.656 17.2424 19.656C17.1422 19.654 17.0416 19.6566 16.9409 19.6631C16.9354 19.6636 16.9303 19.6636 16.9248 19.6641C16.8774 19.6672 16.8302 19.6711 16.7824 19.6762C16.7788 19.6767 16.7752 19.6767 16.7718 19.6772C16.6681 19.6883 16.5639 19.7038 16.4607 19.723C16.4592 19.7235 16.4577 19.7235 16.4557 19.724C16.4038 19.7335 16.3525 19.7446 16.3012 19.7562C16.1964 19.7799 16.0923 19.8081 15.9896 19.8398C15.9961 20.9124 15.9997 21.985 16.0001 23.0581C16.0298 23.0108 16.059 22.9629 16.0867 22.9136C16.0535 23.0853 16.0288 23.2595 16.0117 23.4336C16.0072 23.4004 16.0032 23.3666 16.0001 23.3334C16.0001 24.1689 15.9992 25.0045 15.9971 25.84C16.1114 25.8757 16.2276 25.9075 16.3445 25.9341C16.3454 25.9341 16.3464 25.9347 16.347 25.9347C16.4023 25.9473 16.4582 25.9588 16.5141 25.9694C16.5191 25.9704 16.5241 25.9715 16.5287 25.9719C16.7023 26.0036 16.877 26.0257 17.0521 26.0369C17.0561 26.0369 17.0601 26.0374 17.0637 26.0374C17.1171 26.0404 17.1699 26.0429 17.2233 26.0439C17.2303 26.0439 17.2373 26.0444 17.2444 26.0444C17.3002 26.0454 17.3561 26.0454 17.412 26.0444C17.4126 26.0444 17.413 26.0444 17.4135 26.0444C17.5288 26.0419 17.644 26.0348 17.7578 26.0227C17.7653 26.0217 17.7734 26.0208 17.781 26.0202C17.8288 26.0152 17.8766 26.0087 17.9239 26.0016C17.9334 26.0001 17.943 25.9986 17.9531 25.9971C18.0044 25.9891 18.0553 25.9805 18.1061 25.9704C18.1091 25.97 18.1121 25.9694 18.1152 25.9689C18.1715 25.9579 18.2274 25.9452 18.2827 25.9316C18.2833 25.9316 18.2838 25.9311 18.2843 25.9311C18.3356 25.9186 18.3864 25.9045 18.4368 25.8893C18.4478 25.8859 18.459 25.8823 18.4705 25.8793C18.5113 25.8667 18.5521 25.8536 18.5923 25.8396C18.6044 25.8355 18.616 25.8315 18.6281 25.827C18.6728 25.8109 18.7176 25.7937 18.7614 25.7756C18.7665 25.7736 18.7715 25.7716 18.7771 25.7696C18.8274 25.749 18.8767 25.7268 18.926 25.7036C18.9326 25.7006 18.9392 25.6971 18.9462 25.6936C18.9864 25.674 19.0262 25.6538 19.066 25.6326C19.079 25.6256 19.0916 25.6186 19.1043 25.6116C19.1385 25.5924 19.1721 25.5727 19.2054 25.5527C19.218 25.5451 19.2305 25.5376 19.2431 25.5295C19.2814 25.5053 19.3191 25.4807 19.3564 25.455C19.3625 25.451 19.368 25.4469 19.374 25.4429C19.4168 25.4127 19.4591 25.381 19.5004 25.3483C19.5094 25.3407 19.5184 25.3332 19.5275 25.3256C19.5588 25.3005 19.59 25.2743 19.6202 25.2476C19.6327 25.2366 19.6448 25.2255 19.6574 25.2139C19.6846 25.1887 19.7118 25.1631 19.7379 25.1369C19.7495 25.1253 19.7611 25.1142 19.7727 25.1027C19.8044 25.07 19.8356 25.0362 19.8658 25.002C19.8703 24.9965 19.8754 24.9914 19.8799 24.9864C19.9146 24.9466 19.9478 24.9049 19.9805 24.8626C19.9896 24.851 19.9982 24.8389 20.0067 24.8269C20.0299 24.7957 20.053 24.7634 20.0751 24.7307C20.0857 24.7156 20.0958 24.7 20.1059 24.6844C20.1265 24.6527 20.1467 24.62 20.1663 24.5872C20.1754 24.5722 20.1844 24.5575 20.193 24.542C20.2176 24.4982 20.2417 24.4538 20.2644 24.4081C20.2669 24.4035 20.2695 24.399 20.2714 24.3945C20.2961 24.3442 20.3198 24.2928 20.3419 24.2399C20.3485 24.2243 20.355 24.2077 20.3611 24.1921C20.3766 24.1538 20.3913 24.1156 20.4053 24.0764C20.4124 24.0572 20.4189 24.0381 20.4255 24.0185C20.4386 23.9792 20.4512 23.939 20.4633 23.8987C20.4688 23.8806 20.4743 23.8629 20.4794 23.8443C20.4954 23.786 20.5105 23.7265 20.5241 23.6651C20.6772 22.9635 20.5453 22.2422 20.2226 21.608C19.8441 20.8691 19.2059 20.247 18.459 19.9143ZM17.2469 24.0461C17.2701 23.9772 17.2917 23.9088 17.3123 23.8418C17.3229 23.8086 17.333 23.7754 17.3431 23.7427C17.3531 23.7099 17.3627 23.6777 17.3722 23.646C17.4196 23.489 17.4619 23.3289 17.5016 23.1668C17.5414 23.0048 17.5791 22.8412 17.6179 22.6776C17.6093 22.7727 17.5987 22.8673 17.5851 22.9605C17.5786 23.0058 17.5715 23.0521 17.5635 23.0984C17.5086 23.4225 17.4196 23.7637 17.2469 24.0461ZM18.4 23.7578C18.3785 23.8317 18.3507 23.9007 18.3155 23.9626C18.3477 23.8821 18.3774 23.7965 18.4051 23.7084C18.4036 23.725 18.4016 23.7412 18.4 23.7578Z" fill="#24193A"/>
<path d="M18.7144 31.28C19.7049 31.5432 20.9955 31.3032 21.389 30.2844C21.4882 30.3996 21.6095 30.5018 21.758 30.5853C22.2427 30.8581 22.8472 30.8566 23.3883 30.8436C23.8846 30.8315 24.3245 30.683 24.6048 30.2502C24.782 29.9768 24.853 29.6627 24.8958 29.3457C24.8984 29.3618 24.9008 29.3784 24.9039 29.3944C24.9677 29.7704 25.0875 30.1021 25.2884 30.4263C25.6206 30.9624 26.0812 31.3056 26.734 31.1587C27.3868 31.0117 27.9984 30.5647 28.3411 29.9929C28.6447 29.4866 28.7443 28.8912 28.7337 28.3067C27.5262 28.0893 26.0887 28.2761 25.1128 28.2806C22.4033 28.2927 19.6535 27.8749 17.0251 28.564C17.0508 29.7176 17.4846 30.9528 18.7144 31.28Z" fill="white"/>
<path d="M22.019 32.7838C22.1449 32.82 22.2712 32.8597 22.3976 32.902C22.4308 32.8512 22.4811 32.8084 22.5511 32.7823C23.8311 32.3076 25.2686 31.9497 26.5753 32.5291C26.5878 32.5346 26.5999 32.5407 26.6125 32.5462C26.6165 32.5442 26.6205 32.5422 26.6246 32.5401C27.9957 31.8425 29.4448 31.1051 30.9715 30.8051C30.976 30.5001 30.9296 30.1931 30.837 29.9052C30.5189 28.9136 29.6995 28.4812 28.7336 28.3071C28.7442 28.8915 28.6445 29.4864 28.3409 29.9932C27.9982 30.5656 27.3871 31.0125 26.7338 31.159C26.081 31.306 25.6204 30.9627 25.2883 30.4266C25.0875 30.1025 24.9676 29.7708 24.9037 29.3948C24.9012 29.3787 24.8982 29.3621 24.8957 29.346C24.8529 29.6636 24.7819 29.9772 24.6047 30.2505C24.3243 30.6833 23.8845 30.8314 23.3882 30.8439C22.847 30.8569 22.2425 30.8585 21.7579 30.5857C21.6094 30.5021 21.488 30.3999 21.3889 30.2847C20.9953 31.3035 19.7047 31.5436 18.7142 31.2803C17.4846 30.9531 17.0507 29.7185 17.025 28.5648C16.578 28.682 16.1341 28.8305 15.6947 29.0193C15.1803 29.2408 14.6779 29.5438 14.3502 30.0099C13.9974 30.5117 13.9798 31.1393 14.2662 31.6749C14.5199 32.1491 14.9547 32.52 15.4068 32.8144C15.9428 32.5935 16.5136 32.4561 17.0884 32.3776C18.7177 32.1551 20.4431 32.3278 22.019 32.7838Z" fill="#24193A"/>
<path d="M17.7926 33.1364C18.9618 32.5143 20.726 32.0004 21.6466 33.2965C21.9451 33.7172 22.0125 34.198 21.8973 34.654C21.9069 34.655 21.9169 34.6554 21.9265 34.6565C21.9481 34.658 21.9703 34.6595 21.9919 34.661C22.0619 34.6016 22.1304 34.5407 22.1968 34.4778C22.4761 34.2125 22.8567 34.429 22.9226 34.7128C22.981 34.7149 23.0399 34.7169 23.0983 34.7184C23.1728 34.6701 23.2472 34.6212 23.3218 34.5729C24.4014 33.8663 25.4614 33.1333 26.6131 32.546C26.6005 32.5405 26.5884 32.5344 26.5758 32.5288C25.2691 31.9496 23.8311 32.3074 22.5516 32.7821C22.4817 32.8077 22.4313 32.8505 22.3981 32.9019C22.2718 32.8596 22.1455 32.8198 22.0197 32.7836C20.4436 32.3276 18.7183 32.1544 17.0899 32.3773C16.5152 32.4559 15.9443 32.5928 15.4083 32.8142C15.4833 32.8631 15.5588 32.9099 15.6343 32.9546C16.0622 33.2083 16.5207 33.4167 16.9873 33.598C17.2515 33.4363 17.5198 33.2818 17.7926 33.1364Z" fill="#FF7761"/>
<path d="M30.6106 4.58856C29.8511 4.41391 29.0488 4.40031 28.2837 4.55481C28.1941 4.57291 28.105 4.59259 28.017 4.61575C27.5942 4.72441 27.1899 4.89409 26.8054 5.10194C26.4118 5.31484 26.0383 5.56853 25.6875 5.83984C25.0014 6.3699 24.3944 6.98546 23.7909 7.60458C23.5463 7.85517 23.3022 8.10689 23.0541 8.35355C22.6791 8.72601 22.2935 9.08685 21.8817 9.4191C21.8243 9.46542 21.767 9.5122 21.7081 9.55748C21.0422 10.0699 20.335 10.4826 19.4703 10.4539C18.682 10.4278 17.9301 10.0955 17.2476 9.72557C16.5746 9.3607 15.9384 8.93432 15.2926 8.52511C15.2066 8.47073 15.1204 8.41645 15.0339 8.36254C14.4022 7.96992 13.7293 7.56174 13.0019 7.37555C11.6947 7.04077 10.1253 7.40518 9.11312 8.29917C8.61531 8.73904 8.28662 9.33801 8.23075 10.003C8.16484 10.7836 8.48996 11.4928 9.0039 12.0626C9.82486 12.9726 10.8587 13.3063 11.3132 14.2622C11.4078 14.2199 11.5095 14.1942 11.6132 14.1896C12.6204 14.1434 13.6245 14.0447 14.6337 14.0387C15.057 14.0362 15.3706 14.3865 15.3887 14.7937C15.4068 15.2029 15.0283 15.5462 14.6337 15.5487C13.625 15.5547 12.6204 15.6534 11.6132 15.6997C11.5574 15.7022 11.503 15.6971 11.4511 15.6866C11.3978 15.7651 11.3268 15.832 11.2568 15.8975C10.8692 16.2574 10.4776 16.6269 10.2159 17.0864C9.95424 17.546 9.8379 18.1178 10.0332 18.609C10.0926 18.758 10.4772 18.8113 10.9362 18.8174C11.6167 18.8259 12.4608 18.7303 12.6541 18.6855C13.5722 18.472 14.3589 18.3966 15.3369 18.3795C17.4554 18.3422 19.5729 18.2818 21.692 18.2576C23.5357 18.237 25.3809 18.244 27.2237 18.319C28.1211 18.3553 29.0171 18.3936 29.9155 18.4001C30.0021 18.4006 30.0932 18.4082 30.1868 18.4177C30.7233 18.4731 31.3365 18.602 31.564 17.9627C31.7115 17.5484 31.5655 17.0854 31.352 16.7008C31.2479 16.5136 31.1276 16.3349 30.9927 16.1678C30.8658 16.0103 30.7233 15.8577 30.5925 15.6992C30.5567 15.7052 30.521 15.7098 30.4853 15.7123C30.1848 15.7319 29.8611 15.6554 29.5667 15.6131C29.3936 15.5885 29.2209 15.5623 29.0477 15.5381C29.0382 15.5366 28.9315 15.5235 28.9456 15.525C28.8766 15.517 28.8077 15.5089 28.7382 15.5039C28.167 15.4601 27.5886 15.4974 27.0163 15.4989C26.593 15.5004 26.2794 15.1521 26.2613 14.7439C26.2431 14.3351 26.6212 13.9899 27.0163 13.9888C27.809 13.9863 28.5837 13.9622 29.3699 14.0714C29.5058 14.09 29.6412 14.1101 29.7766 14.1298C29.8315 14.1378 29.8858 14.1459 29.9407 14.1535C29.9639 14.1569 30.0363 14.1665 30.0751 14.1715C30.1269 14.1781 30.1787 14.1847 30.2306 14.1902C30.2492 14.1832 30.2684 14.1776 30.2875 14.1715C30.3323 14.0619 30.3856 13.9552 30.4441 13.853C31.1733 12.5699 32.1594 11.5311 32.8198 10.2778C33.1465 9.6576 33.3936 8.98523 33.4897 8.20448C33.5069 8.06611 33.5149 7.9282 33.5164 7.79077C33.5194 7.38511 33.4519 6.98696 33.304 6.61796C33.1907 6.33559 33.0312 6.06934 32.8193 5.82981C32.2525 5.1865 31.4366 4.77878 30.6106 4.58856Z" fill="#24193A"/>
<path d="M30.3518 43.9417C29.9758 44.3458 29.3723 43.7398 29.7468 43.3366C30.2868 42.7553 31.1894 42.3023 31.4486 41.512C31.5302 41.2634 31.7607 41.1844 31.9605 41.2267C31.9458 40.905 31.9217 40.5959 31.8905 40.3061C31.8502 39.9351 31.7737 39.5369 31.6937 39.1262C31.5795 39.5465 31.3787 39.9481 31.1496 40.3156C30.7474 40.9603 30.2209 41.6011 29.5601 41.9948C29.0854 42.2776 28.6556 41.5377 29.1282 41.2558C29.6432 40.9493 30.0539 40.4414 30.373 39.9426C30.6599 39.4946 31.0192 38.8338 30.9448 38.3163C30.9115 38.0868 30.9976 37.8578 31.2437 37.7898C31.3126 37.7707 31.3922 37.7732 31.4677 37.7934C31.4099 37.3011 31.3967 36.8149 31.4823 36.3599C30.386 37.429 29.245 38.4442 27.9489 39.2767C27.4838 39.5757 27.0549 38.8347 27.517 38.5378C28.9661 37.6066 30.2285 36.4339 31.431 35.2082C31.8629 34.7684 32.3098 34.343 32.6979 33.8624C33.0069 33.4793 33.4342 32.902 33.3602 32.3764C33.3281 32.1469 33.4126 31.9179 33.6592 31.85C33.7589 31.8223 33.8807 31.8394 33.9824 31.8907C33.921 31.6884 33.8128 31.4957 33.6492 31.3189C33.1056 30.7325 32.2936 30.6218 31.5367 30.7129C31.3469 30.7356 31.1582 30.7663 30.9704 30.803C29.4438 31.103 27.9947 31.8399 26.6236 32.5381C26.6195 32.54 26.6155 32.5421 26.6115 32.5441C25.4599 33.1315 24.3998 33.8643 23.3202 34.571C23.2463 34.6193 23.1717 34.6681 23.0967 34.7165C23.0413 34.7527 22.9854 34.7884 22.9297 34.8242C22.9231 34.9123 22.8838 35.0013 22.7997 35.0809C22.3025 35.5525 21.7085 35.9189 21.1534 36.3161C20.7285 36.6201 20.0752 37.0525 19.8899 37.5095C19.8029 37.7244 19.6081 37.8754 19.3635 37.8085C19.1591 37.7521 18.9779 37.4964 19.0645 37.282C19.3348 36.6146 19.9247 36.1631 20.4879 35.7468C20.9384 35.4136 21.4246 35.1162 21.8631 34.7638C21.8752 34.7265 21.8857 34.6898 21.8952 34.652C22.0105 34.196 21.9436 33.7154 21.6446 33.2945C20.724 31.9984 18.9598 32.5124 17.7906 33.1345C17.5178 33.2794 17.2495 33.434 16.9847 33.5951C15.5533 34.4654 14.2345 35.548 12.9898 36.6528C11.6066 37.8809 10.2602 39.169 8.95751 40.4822C7.60048 41.8503 6.45842 43.4368 5.25646 44.9388C5.24137 44.9573 5.22628 44.9765 5.21118 44.9956H31.6459C31.8527 44.1425 31.9499 43.2204 31.9711 42.3365C31.5457 42.9607 30.8723 43.3819 30.3518 43.9417Z" fill="#9FA9FF"/>
<path d="M22.9221 34.713C22.8556 34.4291 22.4756 34.2128 22.1963 34.478C22.1298 34.5409 22.0614 34.6018 21.9913 34.6612C21.9496 34.6964 21.9073 34.7312 21.8645 34.7659C21.4261 35.1182 20.9399 35.4157 20.4894 35.749C19.9262 36.1652 19.3363 36.6167 19.066 37.2841C18.9794 37.4985 19.1606 37.7543 19.3649 37.8106C19.6096 37.8775 19.8043 37.7271 19.8914 37.5116C20.0767 37.0546 20.73 36.6222 21.1548 36.3182C21.7106 35.9211 22.3045 35.5546 22.8012 35.083C22.8848 35.0035 22.9241 34.9144 22.9311 34.8263C22.9341 34.788 22.9306 34.7498 22.9221 34.713Z" fill="#24193A"/>
<path d="M33.6598 31.8512C33.4132 31.9191 33.3286 32.1477 33.3609 32.3777C33.4348 32.9031 33.0075 33.4805 32.6984 33.8635C32.3104 34.3437 31.8634 34.769 31.4315 35.2095C30.2291 36.435 28.9667 37.6078 27.5177 38.539C27.0556 38.8355 27.4844 39.5769 27.9495 39.2779C29.2455 38.4454 30.3867 37.4307 31.4829 36.3611C31.7083 36.1411 31.9318 35.9191 32.1543 35.6956C33.0805 34.766 34.3901 33.6013 34.1863 32.1501C34.1702 32.0343 34.0871 31.9453 33.9835 31.8924C33.8813 31.8406 33.7595 31.824 33.6598 31.8512Z" fill="#24193A"/>
<path d="M31.2436 37.7907C30.998 37.8582 30.912 38.0872 30.9447 38.3172C31.0192 38.8347 30.6598 39.496 30.3729 39.9435C30.0538 40.4419 29.6431 40.9497 29.1282 41.2567C28.6555 41.5381 29.0853 42.2785 29.56 41.9957C30.2204 41.602 30.7473 40.9612 31.1495 40.3165C31.379 39.9485 31.5799 39.5469 31.6936 39.1271C31.7848 38.7908 31.8205 38.4425 31.7697 38.0902C31.748 37.9392 31.6141 37.834 31.4676 37.7947C31.3921 37.7747 31.3126 37.7721 31.2436 37.7907Z" fill="#24193A"/>
<path d="M31.4489 41.5121C31.1897 42.3023 30.2872 42.7553 29.7471 43.3368C29.3726 43.7399 29.9761 44.3465 30.3521 43.9417C30.8725 43.3821 31.546 42.9607 31.9739 42.3391C32.0976 42.1589 32.2013 41.9617 32.2744 41.7397C32.3645 41.4653 32.1813 41.2731 31.9612 41.2268C31.761 41.1845 31.5305 41.2635 31.4489 41.5121Z" fill="#24193A"/>
<path d="M7.19768 21.8699C6.64709 21.8539 6.64756 22.7095 7.19768 22.7257C7.71565 22.7407 8.25724 22.6808 8.78317 22.5464C9.72648 22.3054 10.6184 21.8221 11.2249 21.0903C11.3723 20.9126 11.3991 20.6594 11.2249 20.4852C11.0734 20.3337 10.7678 20.3066 10.6199 20.4852C10.2817 20.8929 9.84723 21.2076 9.36611 21.433C9.18789 21.5166 9.0032 21.5881 8.81439 21.6474C8.28845 21.8125 7.73177 21.8856 7.19768 21.8699Z" fill="#24193A"/>
<path d="M6.09059 24.1849C5.5399 24.1864 5.53887 25.0421 6.09059 25.0406C6.67193 25.0386 7.26086 24.9037 7.80798 24.7044C7.86076 24.6853 7.91317 24.6656 7.96501 24.6454C8.56548 24.4104 9.18357 24.1014 9.61444 23.6071C9.97482 23.1933 9.37182 22.5858 9.00938 23.0021C8.81307 23.2276 8.56848 23.4083 8.30476 23.5558C8.10039 23.6705 7.88448 23.7651 7.67008 23.8462C7.16824 24.036 6.63068 24.1834 6.09059 24.1849Z" fill="#24193A"/>
<path d="M31.3436 21.7611C31.7881 22.0082 32.2542 22.2115 32.7369 22.3469C33.2337 22.4863 33.749 22.5543 34.2776 22.5241C34.8252 22.4929 34.8288 21.6372 34.2776 21.6684C33.4853 21.7132 32.7489 21.5123 32.0518 21.1671C31.9593 21.1213 31.8671 21.0729 31.7755 21.0221C31.2938 20.7544 30.8619 21.4927 31.3436 21.7611Z" fill="#24193A"/>
<path d="M32.8429 23.3047C32.853 23.5338 33.0311 23.7356 33.2708 23.7326C33.315 23.7321 33.3588 23.7321 33.4032 23.7346C33.4257 23.7356 33.448 23.7381 33.4706 23.7401C33.4711 23.7401 33.4721 23.7401 33.4726 23.7401C33.4761 23.7407 33.4801 23.7416 33.4852 23.7422C33.5788 23.7663 33.6699 23.7854 33.7616 23.8177C33.9729 23.8927 34.2392 23.7331 34.288 23.5187C34.3429 23.2786 34.2155 23.0727 33.989 22.9922C33.76 22.9106 33.5143 22.8728 33.2712 22.8764C33.1962 22.8774 33.1227 22.9 33.0579 22.9378C32.929 23.0133 32.8359 23.1497 32.8429 23.3047Z" fill="#24193A"/>
<path d="M30.0752 14.1713C30.0365 14.1663 29.964 14.1567 29.9409 14.1532C29.886 14.1451 29.8317 14.1371 29.7768 14.1296C29.6414 14.1099 29.5055 14.0898 29.37 14.0712C28.5839 13.9619 27.8087 13.9861 27.0165 13.9886C26.6214 13.9896 26.2434 14.3349 26.2615 14.7436C26.2796 15.1518 26.5932 15.5001 27.0165 15.4986C27.5888 15.4971 28.1671 15.4599 28.7384 15.5036C28.8078 15.5087 28.8768 15.5172 28.9457 15.5248C28.9317 15.5232 29.0384 15.5368 29.0479 15.5379C29.2211 15.5621 29.3938 15.5882 29.5669 15.6129C29.8613 15.6551 30.185 15.7316 30.4855 15.7121C30.5212 15.7095 30.5569 15.705 30.5927 15.6989C30.8983 15.6471 31.1801 15.4614 31.2606 15.1403C31.3532 14.7693 31.1745 14.4432 30.8715 14.2422C30.6973 14.127 30.4829 14.113 30.2887 14.1713C30.2696 14.1768 30.2504 14.1824 30.2318 14.1899C30.1789 14.1839 30.1271 14.1774 30.0752 14.1713Z" fill="#9FA9FF"/>
<path d="M10.8579 14.9446C10.873 15.2859 11.112 15.6171 11.4507 15.6866C11.5026 15.6972 11.5565 15.7022 11.6128 15.6997C12.6201 15.6534 13.6242 15.5548 14.6333 15.5487C15.028 15.5461 15.4065 15.2029 15.3884 14.7937C15.3702 14.3865 15.0567 14.0361 14.6333 14.0386C13.6247 14.0447 12.6201 14.1434 11.6128 14.1897C11.5097 14.1942 11.4075 14.2199 11.3128 14.2621C11.0471 14.3809 10.8438 14.6341 10.8579 14.9446Z" fill="#9FA9FF"/>
</g>
<defs>
<clipPath id="clip0_85_2111">
<rect width="44.9998" height="45" rx="22.4999" fill="white"/>
</clipPath>
</defs>
</svg>
