<svg width="45" height="45" viewBox="0 0 45 45" fill="none" xmlns="http://www.w3.org/2000/svg">
<g clip-path="url(#clip0_85_2094)">
<path d="M22.4998 45C34.9262 45 44.9998 34.9264 44.9998 22.5C44.9998 10.0736 34.9262 -3.05176e-05 22.4998 -3.05176e-05C10.0733 -3.05176e-05 -0.000244141 10.0736 -0.000244141 22.5C-0.000244141 34.9264 10.0733 45 22.4998 45Z" fill="#FFB869"/>
<path d="M10.954 29.8479C13.5801 38.9797 24.1438 45.3054 32.6199 39.338C41.0943 33.3691 32.6794 21.1339 32.6794 21.1339C32.6794 21.1339 37.2742 9.55611 25.7558 6.81111C14.2374 4.0645 11.3718 9.07876 10.954 29.8479Z" fill="#4D7AE8"/>
<path d="M28.0235 23.1637C26.7378 23.1637 25.6948 21.7735 25.6948 20.0603C25.6948 18.3455 26.7378 16.9569 28.0235 16.9569C29.3076 16.9569 30.3507 18.3455 30.3507 20.0603C30.3507 21.7735 29.3076 23.1637 28.0235 23.1637Z" fill="#DBE7FF"/>
<path d="M29.0215 22.4164C28.692 22.3939 28.4606 21.87 28.5039 21.2448C28.5457 20.6196 28.8463 20.1311 29.1757 20.1536C29.5052 20.1761 29.7367 20.7016 29.6933 21.3267C29.6515 21.9503 29.3493 22.4389 29.0215 22.4164Z" fill="#201E2F"/>
<path d="M30.7074 14.2715C30.5531 13.807 30.2573 13.4036 29.8604 13.1192C29.465 12.8331 28.9893 12.6788 28.4992 12.6788C28.0106 12.6788 27.5348 12.8331 27.1379 13.1192C26.7425 13.4036 26.4452 13.807 26.291 14.2715H30.7074Z" fill="#201E2F"/>
<path d="M30.4695 27.4613C28.2019 28.0575 25.7541 27.5207 23.7243 25.3125C23.4591 25.0104 23.0879 24.8224 22.6877 24.7886C22.286 24.7549 21.8874 24.8786 21.5772 25.1325C21.2365 25.3639 21.0018 25.7191 20.9247 26.1209C20.846 26.5243 20.9295 26.9406 21.1593 27.2813C24.2627 32.355 29.097 33.1313 32.0799 30.2657C32.2856 30.0825 32.4383 29.8462 32.5218 29.5843C32.6054 29.3223 32.6183 29.0427 32.5588 28.7743C32.517 28.5461 32.4286 28.3275 32.2984 28.1362C32.1682 27.9434 31.9995 27.7811 31.8034 27.6574C31.6074 27.5336 31.3872 27.4516 31.1574 27.4179C30.9275 27.3841 30.6929 27.3986 30.4695 27.4613Z" fill="#590942"/>
<path d="M28.7386 27.6991C29.3252 27.7039 29.907 27.6236 30.4695 27.4613H31.0079V28.9527C31.0079 28.9527 30.1111 29.61 26.7699 29.2516V28.4159L20.9214 26.4455C20.9231 26.1996 20.9841 25.9586 21.0982 25.74C21.2123 25.523 21.3763 25.335 21.5771 25.1936C21.5771 25.1775 21.5836 25.1614 21.5948 25.1502C21.6061 25.1389 21.6205 25.1325 21.6366 25.1325C21.8825 24.9654 22.175 24.8818 22.4723 24.8947C22.5318 24.8352 22.6523 24.8947 22.7118 24.8947H23.2486C23.3081 24.9541 23.3675 24.9541 23.3675 25.0136C23.3675 25.0731 23.4864 25.0136 23.4864 25.0731L23.7259 25.2531C24.0795 25.6581 24.4797 26.0181 24.92 26.3267L25.7557 26.8634C26.1447 27.1029 26.5657 27.2845 27.0077 27.4018C27.5654 27.593 28.1503 27.6943 28.7386 27.6991Z" fill="#DBE7FF"/>
<path d="M21.5771 25.1324C21.5771 25.118 21.5836 25.1019 21.5948 25.0907C21.6061 25.0794 21.6205 25.073 21.6366 25.073C21.8825 24.9059 22.175 24.8223 22.4723 24.8351C22.5318 24.7757 22.6523 24.8351 22.7118 24.8351H23.2486C23.3081 24.8946 23.3675 24.8946 23.3675 24.9541C23.3675 25.0135 23.4864 24.954 23.4864 25.0135L23.7259 25.1935C23.9139 25.441 24.1341 25.6612 24.3816 25.8493L22.7118 26.8633L20.9214 26.2671C20.9407 26.0421 21.0098 25.8235 21.1239 25.6275C21.2364 25.4314 21.3923 25.2626 21.5771 25.1324Z" fill="#B5CDFF"/>
<path d="M13.4 10.988C15.5488 6.21316 19.3079 5.25852 25.7541 6.81102C27.0527 7.1003 28.2998 7.58404 29.4538 8.24297C29.8122 10.1523 26.8888 10.7501 21.4566 9.01922C23.247 12.2415 19.5473 17.971 13.4 10.988Z" fill="#201E2F"/>
<path d="M20.9199 6.63109L21.2189 2.69196C21.2462 2.33356 21.1947 1.97197 21.0694 1.63447C20.944 1.29537 20.7464 0.988405 20.4924 0.734477C20.2369 0.478941 19.9299 0.282855 19.5924 0.157498C19.2533 0.0305338 18.8933 -0.0192782 18.5333 0.0064361C18.1283 0.0305432 17.7346 0.151081 17.3874 0.36001C17.0387 0.567331 16.7462 0.858214 16.5356 1.20375C16.3235 1.55089 16.1997 1.94304 16.174 2.34804C16.1483 2.75304 16.2206 3.15806 16.3846 3.5277L18.1749 7.58735L20.9199 6.63109Z" fill="#201E2F"/>
<path d="M5.40292 27.6991L7.19328 28.3565L10.954 25.9088V28.9527L14.0574 31.4004C14.7099 31.9356 15.2467 32.5977 15.6356 33.3466C16.0261 34.0956 16.2608 34.9152 16.3251 35.7573L16.444 38.2034C20.981 41.9641 27.1877 43.1566 32.6183 39.338C33.5022 38.7482 34.2865 38.0234 34.9454 37.1893L36.7968 37.845C36.7968 37.845 33.0362 53.6609 26.7699 56.5265C20.5037 59.3904 16.1467 56.5265 16.1467 56.5265C9.58149 34.2048 11.4908 30.0279 -4.74297 36.4725L-5.51923 31.9372L5.40292 27.6991Z" fill="#EF6767"/>
<path d="M18.4128 20.5971L6.59548 9.55608L5.52191 10.9285L14.6521 27.9386L18.4128 20.5971Z" fill="#4D7AE8"/>
<path d="M14.1153 18.0901L9.461 14.8082L13.0417 21.2545L12.3844 18.7474L14.1153 18.0901Z" fill="#3366E0"/>
</g>
<defs>
<clipPath id="clip0_85_2094">
<rect x="-0.000183105" width="45" height="45" rx="22.5" fill="white"/>
</clipPath>
</defs>
</svg>
