<svg width="45" height="45" viewBox="0 0 45 45" fill="none" xmlns="http://www.w3.org/2000/svg">
<g clip-path="url(#clip0_85_2073)">
<rect x="-0.000183105" width="45" height="45" rx="22.5" fill="#5127F3"/>
<path d="M8.608 35.1062C8.608 35.1062 9.68208 36.5709 10.9189 38.3935C13.5553 29.0524 15.085 28.6618 18.8605 27.6528C17.9817 31.4934 15.8987 37.2544 15.085 39.4676C14.2713 41.6809 12.9694 43.8941 10.8213 43.8941C8.67311 43.8941 6.68769 40.6719 4.89757 37.7426C2.55414 37.7426 1.83808 37.8077 0.861653 36.8312C-0.114778 35.8548 -0.342607 34.6831 0.601275 33.0232C1.54516 31.3632 1.83809 31.1029 3.8235 31.0378C5.80891 30.9727 7.17591 31.2005 7.9896 31.9816C8.80329 32.7628 8.86838 34.0321 8.608 35.1062V35.1062Z" fill="#66BCFF"/>
<path d="M32.1074 24.0074C31.3588 21.3418 30.2311 18.7984 28.755 16.4564L27.4857 24.6259C32.0749 25.9278 32.6282 26.0579 32.1074 24.0074V24.0074Z" fill="#B0E5FF"/>
<path d="M36.0457 46.4003C32.9211 47.7347 27.6158 49.1668 21.7247 50.2409C18.6327 50.7942 15.7685 51.1522 13.3274 51.3475C12.5264 50.4629 11.9956 49.3673 11.7977 48.1904C11.7313 47.8802 11.6987 47.5638 11.7 47.2465C11.5373 44.9031 12.3835 42.2667 14.076 39.7605C13.4901 32.3722 14.6618 28.7269 18.8605 27.6203C25.5002 25.8627 29.4385 25.2117 32.1074 27.132C34.7763 29.0523 34.4183 32.9581 34.0928 38.8817C34.6136 39.728 35.6877 41.2252 36.0782 43.2757C36.267 44.3097 36.254 45.3701 36.0457 46.4003V46.4003Z" fill="#EB459F"/>
<path d="M30.3173 33.2835H30.2196L28.755 32.7953C28.6857 32.7602 28.6313 32.7016 28.6014 32.63C28.5718 32.5584 28.5685 32.4786 28.5923 32.4047C28.603 32.3689 28.6209 32.3361 28.6456 32.3078C28.6701 32.2798 28.7003 32.2573 28.7342 32.2417C28.768 32.2264 28.8051 32.2182 28.8422 32.2182C28.8797 32.2186 28.9164 32.2264 28.9503 32.242L30.4149 32.7628C30.4875 32.7852 30.5487 32.8354 30.5852 32.9021C30.6216 32.9691 30.6307 33.0476 30.6102 33.1208C30.5806 33.1719 30.538 33.2142 30.4862 33.2428C30.4348 33.2715 30.3762 33.2855 30.3173 33.2835V33.2835Z" fill="black"/>
<path d="M25.5979 49.4923C25.0771 46.5305 25.5003 42.462 27.5182 38.5888C25.7932 32.4373 25.2073 25.7325 29.1456 26.058C26.672 25.765 23.4172 26.4485 18.8605 27.6528H18.828C16.1916 28.4339 15.8661 33.5765 17.7539 40.086C16.3869 43.5361 15.7034 47.9951 16.9728 50.9895C18.47 50.7942 20.0648 50.5664 21.7247 50.2734C23.3847 49.9805 24.3285 49.7852 25.5979 49.4923V49.4923Z" fill="white"/>
<path d="M25.305 9.94683C26.0861 8.77512 26.9975 8.25436 27.8762 8.44964C28.755 8.64493 29.4385 9.84919 29.2758 12.9738C29.1131 16.0983 30.1546 21.1432 29.406 26.0905C28.8201 25.9928 27.7461 26.0254 27.0951 26.8716C24.3937 30.4519 22.8314 32.2094 20.8785 32.3071C18.9256 32.4047 17.3633 31.0377 16.81 25.0815C16.3625 19.8596 17.2006 14.6074 19.2511 9.7841C20.1624 7.79869 21.4969 6.33404 22.6686 6.04111C23.8403 5.74818 25.1423 7.01754 25.305 9.94683V9.94683Z" fill="#66BCFF"/>
<path d="M26.2163 29.8009C24.4262 32.1769 22.571 33.3161 20.553 33.3161H20.5205C20.1507 33.3207 19.7842 33.2445 19.4467 33.0928C19.1095 32.9408 18.8094 32.7172 18.5676 32.4373C18.0794 31.8189 17.5912 30.6146 17.7539 28.3363C17.5147 28.6279 17.3073 28.9444 17.1355 29.2802C17.168 30.8099 17.4935 32.0142 18.1445 32.7953C18.429 33.1498 18.7915 33.4339 19.2033 33.6256C19.6153 33.8177 20.0661 33.912 20.5205 33.902H20.553C22.6035 33.902 24.4262 32.893 26.1837 30.7774C26.1837 30.4519 26.1838 30.1264 26.2163 29.8009V29.8009Z" fill="#91FFAD"/>
<path d="M25.3049 9.94688C25.5328 12.8762 25.5002 16.2286 25.5002 16.2286C26.9649 13.755 27.7785 11.9323 28.104 10.5653C28.4295 9.19828 27.5182 7.99402 26.4766 8.74261C26.0158 9.06907 25.6187 9.47725 25.3049 9.94688Z" fill="black"/>
<path d="M25.7932 19.5484C26.049 19.0784 26.2668 18.5886 26.4442 18.0838C26.672 17.563 26.9324 17.1725 27.4531 17.1725C27.9739 17.1725 28.5598 18.0512 28.1692 19.1579C27.7786 20.2645 26.8022 21.1433 26.021 21.1433C25.2399 21.1433 25.3701 20.4598 25.7932 19.5484V19.5484Z" fill="white"/>
<path d="M26.0949 19.3424C26.2892 18.9786 26.3058 18.6083 26.1317 18.5154C25.9575 18.4224 25.6591 18.642 25.4648 19.0059C25.2705 19.3697 25.2539 19.74 25.428 19.8329C25.6021 19.9258 25.9006 19.7062 26.0949 19.3424V19.3424Z" fill="black"/>
<path d="M21.9525 14.6662C22.6035 11.086 21.4968 10.5001 20.26 10.728C19.0232 10.9558 18.3723 12.095 17.9491 13.4945C16.8731 17.2565 16.4874 21.1821 16.81 25.0815C17.3633 31.0377 19.2836 32.3722 20.8784 32.3071C21.5437 32.2592 22.1842 32.0347 22.7337 31.6561C20.4228 26.3183 21.0412 19.646 21.9525 14.6662Z" fill="#459FF7"/>
<path d="M23.0592 41.4856C25.4026 41.4856 28.5272 41.4205 32.6607 41.2903C36.7943 41.1601 38.8448 40.2813 37.6731 36.4081C36.5014 32.5349 34.7763 29.1825 32.1074 27.1646C29.4385 25.1466 27.3229 28.6618 29.2758 31.6236L32.7909 36.994L23.0592 37.1893C21.8224 35.985 20.9436 35.1713 19.8695 35.1713C19.1177 35.1876 18.3808 35.3819 17.7187 35.7383C17.0567 36.0947 16.4888 36.6031 16.0614 37.2218C14.9874 38.8166 14.6619 39.8256 16.6798 42.0063C18.6978 44.187 19.9671 44.5125 23.0592 41.4856Z" fill="#66BCFF"/>
<path d="M32.4003 36.3756L32.7909 36.994C33.8975 37.0864 34.9488 37.5313 35.7853 38.2633L35.9806 38.3284C36.0261 38.3258 36.0717 38.3128 36.1108 38.2904C36.1498 38.2676 36.1824 38.2363 36.2084 38.1982C36.2312 38.1693 36.2507 38.1358 36.2605 38.0993C36.2702 38.0632 36.2735 38.0251 36.267 37.988C36.2605 37.9509 36.2442 37.9154 36.2247 37.8845C36.2019 37.8532 36.1759 37.8272 36.1433 37.8077C35.0985 36.91 33.7771 36.4036 32.4003 36.3756Z" fill="black"/>
<path d="M24.654 25.5698C24.6156 25.5698 24.5775 25.5622 24.542 25.5475C24.5062 25.5328 24.474 25.5112 24.447 25.484C24.4196 25.4568 24.3982 25.4245 24.3832 25.3889C24.3685 25.3534 24.3611 25.3153 24.3611 25.2768C24.3565 25.24 24.3598 25.2026 24.3708 25.1672C24.3816 25.1317 24.4001 25.099 24.4248 25.0713C24.4496 25.0436 24.4799 25.0214 24.5137 25.0063C24.5476 24.9913 24.5843 24.9836 24.6214 24.9839C26.1837 24.8863 26.9323 24.398 27.9413 22.8032C27.9579 22.7684 27.9817 22.7377 28.0116 22.7133C28.0412 22.6889 28.0761 22.6714 28.1135 22.662C28.1509 22.6527 28.19 22.6517 28.2277 22.6593C28.2655 22.6668 28.301 22.6826 28.3319 22.7056C28.395 22.7459 28.4403 22.8088 28.4585 22.8814C28.4767 22.9541 28.4663 23.0309 28.4295 23.0961C27.4531 24.6259 26.6394 25.4396 24.654 25.5698Z" fill="#459FF7"/>
<path d="M25.4025 11.379C25.4676 12.6483 25.4676 13.8526 25.5002 14.7314C27.5507 11.2162 27.6158 9.94687 27.4856 9.58884C27.3554 9.23082 26.8672 9.26336 26.1511 10.2723L25.4025 11.379Z" fill="#EB459F"/>
</g>
<defs>
<clipPath id="clip0_85_2073">
<rect x="-0.000183105" width="45" height="45" rx="22.5" fill="white"/>
</clipPath>
</defs>
</svg>
