<svg width="45" height="45" viewBox="0 0 45 45" fill="none" xmlns="http://www.w3.org/2000/svg">
<path d="M22.5 45C34.9264 45 45 34.9264 45 22.5C45 10.0736 34.9264 0 22.5 0C10.0736 0 0 10.0736 0 22.5C0 34.9264 10.0736 45 22.5 45Z" fill="#EDF6F3"/>
<path d="M22.4998 37.0592C20.7789 37.0592 19.1615 36.422 17.9449 35.2656C17.9226 35.2445 17.9226 35.2103 17.9449 35.189C17.9671 35.1679 18.003 35.1679 18.0254 35.189C19.2204 36.3249 20.8093 36.9506 22.4991 36.9506C24.1891 36.9506 25.778 36.3249 26.9729 35.189C26.9952 35.1679 27.0311 35.1679 27.0535 35.189C27.0757 35.2103 27.0757 35.2445 27.0535 35.2656C25.8379 36.4226 24.2199 37.0592 22.4998 37.0592Z" fill="#333333"/>
<path d="M20.7002 17.0777L19.741 25.3319C18.5968 25.5424 17.7325 26.4992 17.7325 27.6485C17.7325 28.952 18.8446 30.0091 20.2161 30.0091C20.2799 30.0091 20.3428 30.0059 20.4055 30.0016C20.8463 30.6588 21.6193 31.0946 22.4997 31.0946C23.3801 31.0946 24.1532 30.6588 24.5945 30.0016C24.6567 30.0059 24.7201 30.0091 24.7834 30.0091C26.1548 30.0091 27.267 28.952 27.267 27.6485C27.267 26.4992 26.4026 25.5424 25.2585 25.3319L24.2998 17.0777" fill="#333333"/>
<path d="M22.4997 31.1483C21.6393 31.1483 20.8481 30.7413 20.3759 30.0575C20.3171 30.0614 20.2657 30.063 20.216 30.063C18.815 30.063 17.6754 28.9799 17.6754 27.6481C17.6754 26.5074 18.5198 25.5203 19.6891 25.2858L20.6437 17.0713C20.6471 17.0415 20.6756 17.0204 20.7064 17.0236C20.7379 17.0268 20.7601 17.0539 20.7566 17.0834L19.7976 25.3369C19.7947 25.3608 19.7764 25.3797 19.7518 25.3841C18.6145 25.5936 17.7896 26.5454 17.7896 27.6476C17.7896 28.9191 18.8777 29.954 20.216 29.954C20.2714 29.954 20.3302 29.9518 20.401 29.9463C20.4221 29.9448 20.4421 29.9545 20.4535 29.9713C20.9022 30.6398 21.6672 31.0393 22.4997 31.0393C23.3321 31.0393 24.0972 30.6398 24.5459 29.9713C24.5574 29.9545 24.5773 29.9448 24.5985 29.9463C24.6693 29.9513 24.7281 29.954 24.7834 29.954C26.1212 29.954 27.2099 28.9196 27.2099 27.6476C27.2099 26.5454 26.3842 25.593 25.247 25.3841C25.2225 25.3797 25.2036 25.3602 25.2013 25.3369L24.2421 17.0834C24.2387 17.0534 24.261 17.0268 24.2925 17.0236C24.3243 17.0204 24.3518 17.042 24.3552 17.0713L25.3093 25.2858C26.4784 25.5203 27.3229 26.5074 27.3229 27.6481C27.3229 28.9799 26.1834 30.063 24.7823 30.063C24.7332 30.063 24.6818 30.0614 24.6224 30.0575C24.1514 30.7413 23.3601 31.1483 22.4997 31.1483Z" fill="#333333"/>
<path d="M20.7002 15.9929L19.741 24.2471C18.5968 24.4576 17.7325 25.4148 17.7325 26.5637C17.7325 27.8672 18.8446 28.9243 20.2161 28.9243C20.2799 28.9243 20.3428 28.921 20.4055 28.9168C20.8463 29.574 21.6193 30.0096 22.4997 30.0096C23.3801 30.0096 24.1532 29.574 24.5945 28.9168C24.6567 28.921 24.7201 28.9243 24.7834 28.9243C26.1548 28.9243 27.267 27.8672 27.267 26.5637C27.267 25.4143 26.4026 24.4576 25.2585 24.2471L24.2998 15.9929" fill="#7FD6C7"/>
<path d="M22.4997 30.0635C21.6393 30.0635 20.8481 29.6565 20.3759 28.9727C20.3171 28.9766 20.2657 28.9782 20.216 28.9782C18.815 28.9782 17.6754 27.895 17.6754 26.5633C17.6754 25.4226 18.5198 24.4355 19.6891 24.201L20.6437 15.9865C20.6471 15.9566 20.6756 15.9355 20.7064 15.9388C20.7379 15.942 20.7601 15.9691 20.7566 15.9984L19.7976 24.2519C19.7947 24.2759 19.7764 24.2948 19.7518 24.2992C18.6145 24.5087 17.7896 25.4605 17.7896 26.5627C17.7896 27.8342 18.8777 28.8691 20.216 28.8691C20.2714 28.8691 20.3302 28.8669 20.401 28.8615C20.4221 28.8598 20.4421 28.8697 20.4535 28.8865C20.9022 29.555 21.6672 29.9545 22.4997 29.9545C23.3321 29.9545 24.0972 29.555 24.5459 28.8865C24.5574 28.8697 24.5773 28.8598 24.5985 28.8615C24.6693 28.8664 24.7281 28.8691 24.7834 28.8691C26.1212 28.8691 27.2099 27.8347 27.2099 26.5627C27.2099 25.4605 26.3842 24.5082 25.247 24.2992C25.2225 24.2948 25.2036 24.2754 25.2013 24.2519L24.5351 18.5154C24.5316 18.4855 24.5539 18.4589 24.5853 18.4557C24.6172 18.4524 24.6447 18.4741 24.6481 18.5034L25.3098 24.201C26.4791 24.4355 27.3235 25.4226 27.3235 26.5633C27.3235 27.895 26.1839 28.9782 24.7829 28.9782C24.7338 28.9782 24.6824 28.9766 24.623 28.9727C24.1514 29.6565 23.3601 30.0635 22.4997 30.0635ZM24.466 17.4854C24.4374 17.4854 24.4123 17.4647 24.4094 17.4371L24.2421 15.999C24.2387 15.9691 24.261 15.9425 24.2925 15.9393C24.3243 15.936 24.3518 15.9577 24.3552 15.9871L24.5225 17.4252C24.5259 17.455 24.5031 17.4815 24.4723 17.4848C24.4699 17.4854 24.4682 17.4854 24.466 17.4854Z" fill="#333333"/>
<path d="M21.8481 24.8274C21.8464 24.8274 21.8452 24.8274 21.8435 24.8274C21.8121 24.8252 21.7888 24.7992 21.791 24.7694L21.8709 23.7925C21.8732 23.7626 21.9007 23.7404 21.932 23.7426C21.9634 23.7447 21.9868 23.7707 21.9845 23.8007L21.9046 24.7774C21.9029 24.8057 21.8778 24.8274 21.8481 24.8274Z" fill="#333333"/>
<path d="M22.4998 24.8265C22.4683 24.8265 22.4426 24.8022 22.4426 24.7722V23.7954C22.4426 23.7655 22.4683 23.7412 22.4998 23.7412C22.5311 23.7412 22.5568 23.7655 22.5568 23.7954V24.7722C22.5568 24.8022 22.5311 24.8265 22.4998 24.8265Z" fill="#333333"/>
<path d="M23.1497 24.8275C23.12 24.8275 23.0949 24.8059 23.0927 24.7776L23.088 24.7206C23.0858 24.6908 23.1092 24.6647 23.1406 24.6625C23.1726 24.6604 23.1994 24.6826 23.2017 24.7124L23.2063 24.7694C23.2085 24.7992 23.1851 24.8253 23.1537 24.8275C23.1525 24.827 23.1514 24.8275 23.1497 24.8275ZM23.1011 24.2294C23.0715 24.2294 23.0464 24.2078 23.0441 24.1795L23.0133 23.8008C23.011 23.7709 23.0344 23.7449 23.0657 23.7427C23.0978 23.74 23.1246 23.7628 23.1269 23.7926L23.1577 24.1713C23.1599 24.2013 23.1365 24.2273 23.1052 24.2294C23.104 24.2294 23.1023 24.2294 23.1011 24.2294Z" fill="#333333"/>
<path d="M13.9784 24.1078C13.9784 24.8474 12.8092 24.9038 11.3664 24.9038C9.92427 24.9038 8.75445 24.8469 8.75445 24.1078C8.75445 23.3681 9.92362 22.769 11.3664 22.769C12.8092 22.7684 13.9784 23.3681 13.9784 24.1078Z" fill="#7FD6C7"/>
<path d="M36.2445 24.1078C36.2445 24.8474 35.0752 24.9038 33.6326 24.9038C32.1898 24.9038 31.0205 24.8469 31.0205 24.1078C31.0205 23.3681 32.1898 22.769 33.6326 22.769C35.0752 22.769 36.2445 23.3681 36.2445 24.1078Z" fill="#7FD6C7"/>
<path d="M16.814 17.5227C16.814 17.5227 14.5439 20.2361 11.7436 20.2361C8.9431 20.2361 6.6732 17.5227 6.6732 17.5227C6.6732 17.5227 8.9431 14.8093 11.7436 14.8093C14.5439 14.8093 16.814 17.5227 16.814 17.5227Z" fill="white"/>
<path d="M11.7447 20.2906C8.94942 20.2906 6.65259 17.5843 6.62969 17.5567C6.61317 17.5371 6.61317 17.5088 6.62969 17.4888C6.65259 17.4617 8.94942 14.7549 11.7447 14.7549C14.54 14.7549 16.8368 17.4611 16.8596 17.4888C16.8762 17.5083 16.8762 17.5366 16.8596 17.5567C16.8361 17.5843 14.54 20.2906 11.7447 20.2906ZM6.74796 17.523C7.02197 17.8345 9.17321 20.1821 11.744 20.1821C14.315 20.1821 16.4662 17.8345 16.7403 17.523C16.4662 17.2115 14.315 14.8639 11.744 14.8639C9.17204 14.8639 7.02197 17.2115 6.74796 17.523Z" fill="#333333"/>
<path d="M14.5996 17.5227C14.5996 19.021 13.3213 20.2361 11.745 20.2361C10.1686 20.2361 8.8904 19.021 8.8904 17.5227C8.8904 16.0244 10.1686 14.8093 11.745 14.8093C13.3213 14.8093 14.5996 16.0244 14.5996 17.5227Z" fill="#333333"/>
<path d="M11.745 20.2915C10.1395 20.2915 8.83323 19.0498 8.83323 17.5239C8.83323 15.9978 10.1395 14.7561 11.745 14.7561C13.3504 14.7561 14.6567 15.9978 14.6567 17.5239C14.6567 19.0498 13.3504 20.2915 11.745 20.2915ZM11.745 14.8647C10.2024 14.8647 8.94746 16.0575 8.94746 17.5239C8.94746 18.9902 10.2024 20.183 11.745 20.183C13.2877 20.183 14.5426 18.9902 14.5426 17.5239C14.5426 16.0575 13.287 14.8647 11.745 14.8647Z" fill="#333333"/>
<path d="M13.4569 17.5235C13.4569 18.4227 12.6902 19.1515 11.7442 19.1515C10.7981 19.1515 10.0314 18.4227 10.0314 17.5235C10.0314 16.6243 10.7981 15.8954 11.7442 15.8954C12.6897 15.8954 13.4569 16.6248 13.4569 17.5235Z" fill="white"/>
<path d="M11.7441 19.2056C10.7683 19.2056 9.97423 18.4508 9.97423 17.5233C9.97423 16.5959 10.7683 15.841 11.7441 15.841C12.7198 15.841 13.514 16.5959 13.514 17.5233C13.514 18.4508 12.7198 19.2056 11.7441 19.2056ZM11.7441 15.9496C10.8311 15.9496 10.0883 16.6555 10.0883 17.5233C10.0883 18.391 10.8311 19.0971 11.7441 19.0971C12.657 19.0971 13.3998 18.391 13.3998 17.5233C13.3998 16.6555 12.657 15.9496 11.7441 15.9496Z" fill="#333333"/>
<path d="M11.7441 21.4298C11.7126 21.4298 11.687 21.4054 11.687 21.3755C11.687 21.3456 11.7126 21.3213 11.7441 21.3213C14.4851 21.3213 16.7471 18.655 16.7693 18.6285C16.7887 18.6051 16.8248 18.6014 16.8499 18.6198C16.8745 18.6382 16.8784 18.6724 16.859 18.6963C16.8356 18.7235 14.5393 21.4298 11.7441 21.4298Z" fill="#333333"/>
<path d="M28.1845 17.5227C28.1845 17.5227 30.4544 20.2361 33.2549 20.2361C36.0552 20.2361 38.3253 17.5227 38.3253 17.5227C38.3253 17.5227 36.0552 14.8093 33.2549 14.8093C30.4544 14.8093 28.1845 17.5227 28.1845 17.5227Z" fill="white"/>
<path d="M33.2547 20.2906C30.4594 20.2906 28.1626 17.5843 28.1398 17.5567C28.1232 17.5371 28.1232 17.5088 28.1398 17.4888C28.1626 17.4617 30.4594 14.7549 33.2547 14.7549C36.05 14.7549 38.3469 17.4611 38.3697 17.4888C38.3862 17.5083 38.3862 17.5366 38.3697 17.5567C38.3469 17.5843 36.05 20.2906 33.2547 20.2906ZM28.2585 17.523C28.5326 17.8345 30.6839 20.1821 33.2547 20.1821C35.8257 20.1821 37.9769 17.8345 38.2509 17.523C37.9769 17.2115 35.8257 14.8639 33.2547 14.8639C30.6839 14.8639 28.5326 17.2115 28.2585 17.523Z" fill="#333333"/>
<path d="M30.4004 17.5227C30.4004 19.021 31.6788 20.2361 33.255 20.2361C34.8315 20.2361 36.1096 19.021 36.1096 17.5227C36.1096 16.0244 34.8315 14.8093 33.255 14.8093C31.6788 14.8093 30.4004 16.0244 30.4004 17.5227Z" fill="#333333"/>
<path d="M33.2551 20.2915C31.6496 20.2915 30.3433 19.0498 30.3433 17.5239C30.3433 15.9978 31.6496 14.7561 33.2551 14.7561C34.8605 14.7561 36.1668 15.9978 36.1668 17.5239C36.1668 19.0498 34.8605 20.2915 33.2551 20.2915ZM33.2551 14.8647C31.7124 14.8647 30.4575 16.0575 30.4575 17.5239C30.4575 18.9902 31.7124 20.183 33.2551 20.183C34.7977 20.183 36.0526 18.9902 36.0526 17.5239C36.0526 16.0575 34.7977 14.8647 33.2551 14.8647Z" fill="#333333"/>
<path d="M31.5427 17.5235C31.5427 18.4227 32.3094 19.1515 33.2555 19.1515C34.2015 19.1515 34.9682 18.4227 34.9682 17.5235C34.9682 16.6243 34.2015 15.8954 33.2555 15.8954C32.3094 15.8954 31.5427 16.6248 31.5427 17.5235Z" fill="white"/>
<path d="M33.2554 19.2056C32.2796 19.2056 31.4855 18.4508 31.4855 17.5233C31.4855 16.5959 32.2796 15.841 33.2554 15.841C34.2311 15.841 35.0253 16.5959 35.0253 17.5233C35.0253 18.4508 34.2311 19.2056 33.2554 19.2056ZM33.2554 15.9496C32.3424 15.9496 31.5996 16.6555 31.5996 17.5233C31.5996 18.391 32.3424 19.0971 33.2554 19.0971C34.1683 19.0971 34.9111 18.391 34.9111 17.5233C34.9111 16.6555 34.1683 15.9496 33.2554 15.9496Z" fill="#333333"/>
<path d="M33.2558 21.4303C32.9761 21.4303 32.6888 21.4032 32.4023 21.3495C32.3715 21.3436 32.3509 21.3153 32.3572 21.286C32.3634 21.2567 32.3931 21.2371 32.4239 21.2431C32.7038 21.2952 32.9835 21.3218 33.2558 21.3218C33.2872 21.3218 33.313 21.3462 33.313 21.3761C33.313 21.4059 33.2872 21.4303 33.2558 21.4303ZM31.8604 21.2154C31.8548 21.2154 31.8491 21.2143 31.8434 21.2128C29.7297 20.5735 28.1568 18.7153 28.1408 18.6963C28.1215 18.6729 28.1255 18.6388 28.1501 18.6198C28.1745 18.6014 28.2106 18.6051 28.23 18.6285C28.2453 18.6469 29.7977 20.4795 31.8776 21.1091C31.9079 21.1183 31.9244 21.1487 31.9147 21.1774C31.9073 21.2007 31.8845 21.2154 31.8604 21.2154Z" fill="#333333"/>
<path d="M16.6958 13.9777C16.681 13.9777 16.6667 13.9722 16.6553 13.962C16.2055 13.5344 15.6989 13.168 15.1504 12.8733C15.123 12.8586 15.1132 12.8256 15.1287 12.7995C15.144 12.7735 15.1789 12.7643 15.2064 12.7789C15.7641 13.0785 16.2785 13.4502 16.7358 13.8849C16.758 13.906 16.758 13.9402 16.7358 13.9613C16.725 13.9727 16.7107 13.9777 16.6958 13.9777ZM6.75196 13.9777C6.73712 13.9777 6.72294 13.9722 6.71149 13.962C6.68924 13.9407 6.68924 13.9066 6.71149 13.8854C8.05032 12.6129 9.83048 11.9117 11.7242 11.9117C12.7451 11.9117 13.7727 12.1255 14.6948 12.5298C14.7233 12.5423 14.7359 12.5749 14.7227 12.602C14.7096 12.6292 14.6754 12.6411 14.6468 12.6285C13.739 12.2309 12.7284 12.0202 11.7242 12.0202C9.86132 12.0202 8.10965 12.71 6.79255 13.962C6.7811 13.9727 6.76692 13.9777 6.75196 13.9777Z" fill="#333333"/>
<path d="M38.2473 13.9777C38.2325 13.9777 38.2181 13.9722 38.2067 13.962C36.8896 12.71 35.1386 12.0202 33.2757 12.0202C31.4128 12.0202 29.6611 12.71 28.344 13.962C28.3217 13.9831 28.2858 13.9831 28.2635 13.962C28.2412 13.9407 28.2412 13.9066 28.2635 13.8854C29.6018 12.6129 31.3819 11.9117 33.2757 11.9117C35.1689 11.9117 36.9491 12.6129 38.2879 13.8854C38.3101 13.9066 38.3101 13.9407 38.2879 13.962C38.277 13.9727 38.2621 13.9777 38.2473 13.9777Z" fill="#333333"/>
</svg>
