<svg width="45" height="45" viewBox="0 0 45 45" fill="none" xmlns="http://www.w3.org/2000/svg">
<g clip-path="url(#clip0_85_1947)">
<rect width="45" height="45" rx="22.5" fill="#FFE75C"/>
<path d="M20.2499 37.2223C19.3367 39.8795 17.7386 44.9647 17.7386 44.9647H24.9529C26.5511 39.2382 27.0077 36.7187 27.0077 36.7187L20.2499 37.2223Z" fill="#FF78B9"/>
<path d="M37.5097 44.8279C37.9855 44.3512 38.5421 43.9631 39.1534 43.6823L36.9161 43.27C35.7289 43.0867 35.4549 42.8577 34.9526 42.3997C31.3912 39.4216 28.9255 40.3382 22.259 41.7578C16.1862 40.2006 11.7115 38.826 9.56548 39.7883C7.41944 40.7505 8.33266 45.0568 9.56548 49.9588C10.7983 54.8608 12.0311 59.3961 12.0311 59.3961H34.0394C34.3134 56.7389 33.8111 52.0203 33.3089 48.7219L35.7745 49.3175C35.7745 47.6683 36.0941 46.1561 37.5097 44.8279V44.8279Z" fill="#3442D9"/>
<path d="M13.7661 39.6962C16.0491 40.1548 17.008 42.6743 17.7386 44.9648C18.4692 47.2559 20.8435 49.1341 24.405 48.2175C27.9665 47.3016 31.391 45.1481 28.2405 40.5671C26.6423 40.7504 24.7702 41.2084 22.2589 41.7584C18.8801 40.8874 16.0034 40.0628 13.7661 39.6962Z" fill="white"/>
<path d="M18.469 44.0945C20.1585 47.5305 23.446 48.0805 26.5053 46.248C29.5646 44.4155 27.9664 41.1627 27.6925 40.6127C26.2314 40.8874 24.4962 41.025 22.2589 41.483C19.4279 40.7504 16.9166 40.3374 14.8619 39.9251C15.8664 40.1548 16.9623 41.025 18.469 44.0945V44.0945Z" fill="#FF78B9"/>
<path d="M9.79344 39.6962C7.41911 40.4751 6.14056 42.8576 7.83003 46.706C8.10397 47.2559 8.19529 47.4849 8.2866 49.0421C8.37792 50.6 8.69759 55.4106 11.0263 63.153C11.5741 65.1225 12.4874 64.7566 15.4097 64.4813C18.3319 64.2066 31.6648 62.0075 31.6648 62.0075V57.7011L16.4142 57.4721C15.4553 51.5159 14.6334 46.4306 14.0855 43.8655C13.5376 41.2997 12.4417 38.8716 9.79344 39.6962V39.6962Z" fill="#FF78B9"/>
<path d="M14.5881 43.8656C14.0402 41.3454 12.4421 38.8716 9.7938 39.6962C7.14546 40.5208 6.14093 42.8577 7.83039 46.706C8.10434 47.2553 8.19565 47.485 8.28697 49.0422C8.4036 51.1196 8.66302 53.1859 9.06321 55.2274C9.10776 54.2679 9.4062 53.3375 9.92787 52.5329C10.4495 51.7277 11.1755 51.076 12.0312 50.6457L15.0448 49.1799C15.7753 48.8132 14.8621 45.1025 14.5881 43.8656V43.8656Z" fill="#3442D9"/>
<path d="M27.0076 36.7187L21.8023 37.0854L22.1219 37.589L25.5465 42.6743C26.688 38.5512 27.0076 36.7187 27.0076 36.7187Z" fill="black"/>
<path d="M14.9698 21.9838C16.9264 21.4913 18.1689 19.7189 17.745 18.0254C17.3211 16.3321 15.3913 15.3593 13.4347 15.8524C11.4781 16.3455 10.2356 18.1179 10.6594 19.811C11.0833 21.5044 13.0131 22.4771 14.9698 21.9838V21.9838Z" fill="black"/>
<path d="M10.7526 33.8783C11.2548 29.801 13.2182 23.5245 14.6793 20.134C17.8756 12.8041 19.4281 10.3301 21.4828 10.3301C23.5375 10.3301 25.5008 13.1248 28.4231 17.0189C31.3454 20.913 34.7699 26.6396 36.4138 31.3125C37.4183 34.1073 36.4138 35.1152 34.6786 35.6652C32.9435 36.2145 28.2862 37.2224 23.3548 37.818C19.5527 38.276 15.7191 38.4143 11.8941 38.2303C10.3873 38.139 10.3416 36.6724 10.7526 33.8783V33.8783Z" fill="#FF78B9"/>
<path d="M23.7201 23.7533L24.8616 22.8831" stroke="black" stroke-width="0.938578" stroke-miterlimit="10" stroke-linecap="round"/>
<path d="M23.3549 23.662L23.6745 22.2875" stroke="black" stroke-width="0.938578" stroke-miterlimit="10" stroke-linecap="round"/>
<path d="M16.7795 18.8971C16.8252 18.6681 16.6426 18.4848 16.3686 18.4391C16.3147 18.4391 16.2612 18.4495 16.2114 18.4702C16.1615 18.491 16.1162 18.5214 16.0781 18.5595C16.0399 18.5982 16.0096 18.6439 15.989 18.6937C15.9683 18.7435 15.9577 18.7975 15.9577 18.8514C15.8207 21.5085 14.9988 23.1121 13.1267 24.257C12.9898 24.6236 12.8985 25.0359 12.7615 25.4026C15.4554 24.12 16.6426 22.1955 16.7795 18.8971V18.8971Z" fill="black"/>
<path d="M18.7432 18.6225C18.7437 18.5083 18.7019 18.3983 18.626 18.3132C18.55 18.2289 18.4452 18.1756 18.3323 18.1642C18.2214 18.1725 18.1164 18.2175 18.0338 18.2918C17.9512 18.3665 17.8955 18.4668 17.8756 18.5768C17.693 22.3332 16.1862 24.4403 12.579 25.9526C12.4934 26.3095 12.3867 26.6617 12.2594 27.0062C16.6428 25.357 18.5149 22.9288 18.7432 18.6225V18.6225Z" fill="black"/>
<path d="M30.5236 23.3868C32.213 23.7991 32.8066 22.9288 32.8066 22.9288" stroke="black" stroke-width="0.938578" stroke-miterlimit="10" stroke-linecap="round"/>
<path d="M27.7839 16.8813C29.9779 16.8813 31.7564 15.0969 31.7564 12.8956C31.7564 10.6943 29.9779 8.90985 27.7839 8.90985C25.59 8.90985 23.8115 10.6943 23.8115 12.8956C23.8115 15.0969 25.59 16.8813 27.7839 16.8813Z" fill="black"/>
<path d="M22.8983 12.804C25.5966 12.804 27.784 10.6093 27.784 7.90202C27.784 5.19474 25.5966 3 22.8983 3C20.2 3 18.0126 5.19474 18.0126 7.90202C18.0126 10.6093 20.2 12.804 22.8983 12.804Z" fill="black"/>
<path d="M16.5058 16.5608C18.9771 16.5608 20.9805 14.5507 20.9805 12.0711C20.9805 9.59151 18.9771 7.58141 16.5058 7.58141C14.0345 7.58141 12.0311 9.59151 12.0311 12.0711C12.0311 14.5507 14.0345 16.5608 16.5058 16.5608Z" fill="black"/>
<path d="M15.0902 19.9971L19.7932 17.1563L27.7839 16.1484V11.2006L20.4782 9.18481L16.1861 12.6208L14.2227 19.3094L15.0902 19.9971Z" fill="black"/>
<path d="M28.9255 12.8956C28.5145 13.9951 27.9209 15.3237 26.3228 15.9193" stroke="#0E156E" stroke-width="0.938578" stroke-miterlimit="10" stroke-linecap="round"/>
<path d="M23.8569 8.26852C25.0898 10.3301 24.9528 13.8119 22.3958 16.5607" stroke="#0E156E" stroke-width="0.938578" stroke-miterlimit="10" stroke-linecap="round"/>
<path d="M31.665 28.6553C30.3866 28.8843 29.8843 27.6474 29.6103 26.3192C29.3364 24.9903 29.0168 22.6078 29.4277 22.2418C29.8386 21.8752 30.3866 22.3331 31.1171 23.7534C31.8477 25.1736 33.5371 28.3807 31.665 28.6553Z" fill="white"/>
<path d="M23.1265 29.9379C24.816 30.1676 25.8204 28.701 25.7748 27.3728C25.6173 26.0134 25.0791 24.7267 24.2224 23.6621C23.5831 22.9744 22.2133 22.9288 21.4828 24.7156C20.7522 26.5025 19.9303 29.5256 23.1265 29.9379Z" fill="white"/>
<path d="M26.9619 33.0074C26.8448 32.7632 26.7879 32.4941 26.7958 32.2236C26.8037 31.9524 26.8764 31.6868 27.0076 31.4502C27.5555 30.4422 28.3317 29.8923 29.2449 29.9379C30.1582 29.9843 30.7518 30.6712 30.1582 32.0458C31.2997 33.145 30.7518 34.0616 29.6103 34.3363C28.4688 34.6109 27.6012 34.4276 26.9619 33.0074Z" fill="#EB459F"/>
<path d="M13.4009 23.4787C14.2684 21.1419 16.6427 19.7216 18.9258 18.6224C21.2088 17.5228 27.6012 15.6902 29.3364 18.2558C29.5646 18.1183 29.4733 17.9351 29.3364 17.5685C29.079 17.1055 28.7892 16.6616 28.4688 16.24C26.9163 14.3158 21.3457 15.1405 18.3778 16.8355C15.4099 18.5304 14.4967 19.9506 13.9487 21.2795C13.4009 22.6078 13.0355 23.2034 13.4009 23.4787V23.4787Z" fill="#312CC7"/>
<path d="M29.4276 31.2211C29.3059 31.4895 29.1146 31.7206 28.8737 31.8901C28.6328 32.0589 28.351 32.1606 28.0578 32.1827" stroke="black" stroke-width="0.938578" stroke-miterlimit="10" stroke-linecap="round"/>
<path d="M29.3822 32.4581L28.9257 31.8625" stroke="black" stroke-width="0.938578" stroke-miterlimit="10" stroke-linecap="round"/>
<path d="M25.2495 28.0521C25.4035 27.2572 25.147 26.5384 24.6767 26.4464C24.2063 26.3551 23.7002 26.9251 23.5462 27.72C23.3923 28.5142 23.6488 29.2329 24.1191 29.3249C24.5894 29.4169 25.0955 28.8469 25.2495 28.0521V28.0521Z" fill="black"/>
<path d="M31.9135 28.1483C32.2762 28.0404 32.4134 27.4219 32.2201 26.7668C32.0267 26.1124 31.5759 25.6682 31.2132 25.7762C30.8506 25.8841 30.7133 26.5025 30.9067 27.1576C31.1 27.8128 31.5509 28.2562 31.9135 28.1483Z" fill="black"/>
<path d="M29.4275 22.2418C29.2448 22.4245 29.1992 23.0201 29.2448 23.7534C29.7171 23.4518 30.2451 23.2491 30.7973 23.1578C30.2494 22.2418 29.7927 21.9665 29.4275 22.2418V22.2418Z" fill="#D11583"/>
<path d="M32.5779 21.8295C32.543 22.2501 32.3483 22.6424 32.0339 22.9233C31.7195 23.2048 31.3095 23.3542 30.8885 23.3411H30.7972C30.2359 23.3964 29.6997 23.6026 29.2447 23.9367V23.5244C29.6831 23.2304 30.1831 23.0422 30.7059 22.9744H30.7515C31.4364 22.9288 32.0756 22.7455 32.2126 21.7832C32.2035 21.7541 32.2045 21.7223 32.2154 21.6933C32.2263 21.6649 32.2466 21.6407 32.2729 21.6248C32.2993 21.6089 32.3302 21.602 32.3606 21.6061C32.3911 21.6103 32.4194 21.6241 32.441 21.6462C32.5323 21.6462 32.5779 21.7375 32.5779 21.8295V21.8295Z" fill="black"/>
<path d="M30.6605 23.1577C31.2084 22.6541 31.1628 22.2418 31.0714 21.6461" stroke="black" stroke-width="0.938578" stroke-miterlimit="10" stroke-linecap="round"/>
<path d="M24.4964 23.9367L24.2224 23.6621C23.6745 23.0201 22.4873 22.9288 21.7111 24.257L24.4964 23.9367Z" fill="#D11583"/>
<path opacity="0.3" d="M20.2433 33.3774C20.6683 33.0197 20.5398 32.164 19.9562 31.466C19.3727 30.768 18.5551 30.4927 18.1301 30.8503C17.7051 31.208 17.8336 32.0637 18.4172 32.7617C19.0007 33.4597 19.8184 33.735 20.2433 33.3774Z" fill="#FF0077"/>
<path opacity="0.3" d="M34.6332 27.1437C34.3136 27.3271 34.0853 27.9683 34.1309 28.7009C34.1766 29.4342 34.5419 30.3501 34.9528 30.3501C35.3638 30.3501 35.5464 29.9378 35.6377 29.3422C35.729 28.7473 34.9985 27.8763 34.6332 27.1437V27.1437Z" fill="#FF0077"/>
</g>
<defs>
<clipPath id="clip0_85_1947">
<rect width="45" height="45" rx="22.5" fill="white"/>
</clipPath>
</defs>
</svg>
