<svg width="45" height="45" viewBox="0 0 45 45" fill="none" xmlns="http://www.w3.org/2000/svg">
<g clip-path="url(#clip0_85_1912)">
<rect width="45" height="45" rx="22.5" fill="#4C5AF2"/>
<path d="M31.6773 64.8283L28.5733 63.1003C31.0098 59.0878 33.6923 55.2295 36.6053 51.5483C30.8773 53.6283 24.8613 56.2203 18.2053 56.2203H7.06931C6.39731 54.8443 6.20531 53.4363 6.20531 51.3243L19.8053 46.3643L24.9573 47.4203L25.1173 48.8923C30.0453 47.6443 35.1333 46.2043 38.8133 45.3403C43.4533 44.2523 45.0213 46.5883 42.3333 50.4923C37.1493 58.0443 31.6773 64.8283 31.6773 64.8283Z" fill="#29CC7A"/>
<path d="M11.7093 32.3162C9.41515 28.7847 7.5259 25.0065 6.07733 21.0522C5.87246 20.3946 5.82654 19.698 5.94337 19.0193C6.0602 18.3405 6.3364 17.6993 6.74933 17.1482C9.08533 14.3322 12.1573 12.8282 16.2533 12.1242C16.6992 12.0749 17.1468 12.2014 17.5013 12.4762C22.3653 16.7322 23.8053 21.5322 24.6373 26.2042C24.6583 26.474 24.6106 26.7444 24.4987 26.9908C24.3868 27.2369 24.2143 27.4506 23.9973 27.6122C21.5973 29.0842 20.3173 29.5322 20.3173 29.5322L20.7973 33.0842L11.7093 32.3162Z" fill="#FFE75C"/>
<path d="M16.3494 20.3802C18.7473 20.6029 21.13 20.9661 23.4854 21.4682L24.7974 21.8202C24.8458 21.8336 24.8898 21.8595 24.9251 21.8951C24.9605 21.9306 24.9858 21.9751 24.9988 22.0234C25.0117 22.072 25.0118 22.1232 24.9989 22.1716C24.986 22.2202 24.9607 22.2643 24.9254 22.3002L24.6374 22.5562L25.1494 24.5402C25.3149 25.1469 25.2726 25.792 25.029 26.3719C24.7854 26.9517 24.3546 27.4336 23.8054 27.7402L22.6214 28.4122L16.3494 20.3802Z" fill="#FFE75C"/>
<path d="M17.375 22.7379C17.9838 22.3132 17.8625 21.0876 17.1042 20.0006C16.3458 18.9132 15.2375 18.3763 14.6287 18.8009C14.02 19.2259 14.1413 20.4512 14.8996 21.5385C15.658 22.6256 16.7663 23.1625 17.375 22.7379Z" fill="#FF78B9"/>
<path d="M21.1494 18.3002C20.7654 17.9482 20.3494 17.8522 20.1894 18.0122C20.0294 18.1722 20.1254 18.4282 20.4774 18.6842L20.8933 19.1002C21.1813 19.4202 21.4053 19.3562 21.5333 19.1962C21.6613 19.0362 21.5334 18.6202 21.1494 18.3002Z" fill="black"/>
<path d="M8.44535 15.4522C7.93335 10.3002 8.44532 8.57219 9.53332 7.06819C10.6213 5.56419 11.2613 6.0122 11.0693 7.9962C10.9529 9.55172 10.9636 11.1143 11.1013 12.6682C12.0478 10.2439 13.4246 8.01092 15.1654 6.0762C15.681 5.45092 16.3719 4.99395 17.1493 4.76419C17.9173 4.57219 18.3333 5.0202 18.1093 5.7562C17.7253 7.0042 16.7973 8.9882 14.3013 12.5402L14.5573 13.9482L8.44535 15.4522Z" fill="#FFE75C"/>
<path d="M23.3894 35.3563C26.1094 36.2843 24.1894 44.7962 24.1894 44.7962L24.5733 45.0843C24.8875 45.3246 25.1097 45.6654 25.2029 46.0497C25.2961 46.434 25.2546 46.8388 25.0854 47.1962L24.9574 47.4203C23.0694 47.4203 21.8213 47.5803 19.2613 49.4043C16.7013 51.2283 15.0694 51.3243 12.4454 51.3243H6.20537V49.2123C3.86937 48.2843 3.67734 47.1643 4.57334 45.7243C5.05334 44.8923 5.82137 43.7402 6.39737 42.8762C6.61846 42.546 6.77187 42.1751 6.84876 41.7851C6.92566 41.395 6.92451 40.9937 6.84537 40.6043C6.33337 37.8523 6.74937 36.2203 6.74937 36.2203L13.5333 34.3963L22.1413 34.0443L23.3894 35.3563Z" fill="#2331B5"/>
<path d="M23.1887 43.1943C24.0089 42.9773 24.2968 41.3751 23.8318 39.6151C23.3668 37.8551 22.325 36.6042 21.5048 36.8208C20.6847 37.0375 20.3967 38.64 20.8617 40.3997C21.3267 42.1597 22.3686 43.4109 23.1887 43.1943Z" fill="black"/>
<path d="M23.3894 35.3563L28.4454 37.0843C28.9574 30.0123 31.1014 27.9963 33.5974 22.3643C35.3894 18.3643 36.2214 16.5403 36.5734 15.8363C36.6246 15.7188 36.71 15.6193 36.8185 15.5508C36.9267 15.4823 37.0534 15.4481 37.1814 15.4523H37.3734C37.4716 15.4519 37.5686 15.4721 37.6585 15.5111C37.7484 15.5505 37.829 15.6081 37.8953 15.6804C37.9615 15.7527 38.0121 15.8382 38.0435 15.9313C38.0748 16.0241 38.0863 16.1227 38.0774 16.2203C37.759 18.1105 37.2553 19.9649 36.5734 21.7563C38.0774 20.7323 38.7494 20.7323 39.4534 21.7883C41.1814 20.8923 41.8214 20.8603 42.4294 22.2043C43.0374 23.5483 42.9414 23.8043 42.6214 24.8923C42.3014 25.9803 41.8214 26.0763 41.0854 26.0763C41.0854 33.5003 40.6054 36.2843 37.1174 41.2763C34.0134 45.7243 33.8534 45.1803 29.6294 43.8363C27.1974 43.0683 24.7974 42.2043 23.2294 41.5963C22.3208 41.2654 21.5573 40.626 21.0719 39.7899C20.5865 38.9534 20.41 37.9732 20.5734 37.0203C20.8614 35.6763 21.7574 34.8123 23.3894 35.3563Z" fill="#FFE75C"/>
<path d="M23.3893 35.3561C23.5618 35.1523 23.722 34.9388 23.8693 34.7161C23.9549 34.5974 24.0141 34.4617 24.0427 34.318C24.0714 34.1747 24.069 34.0265 24.0357 33.8841C24.0023 33.7414 23.9388 33.6076 23.8494 33.4918C23.7599 33.376 23.6467 33.2806 23.5173 33.2121C14.7813 28.4121 11.7093 27.8361 6.90933 27.8361C3.80533 27.8361 3.9653 28.6361 4.2533 30.1081C2.0453 32.1561 2.0773 32.8601 3.6133 34.8761C5.1493 36.8921 5.62933 37.6921 7.06933 37.6921C8.50933 37.6921 11.8693 37.7241 14.8133 36.2201C17.7573 34.7161 19.1653 33.9481 23.3893 35.3561Z" fill="white"/>
<path d="M23.2613 20.8602C19.7093 20.2522 16.0933 19.8682 16.0613 19.8682C16.0251 19.8638 15.9883 19.867 15.9535 19.8778C15.9186 19.8884 15.8865 19.9066 15.8592 19.931C15.8319 19.9553 15.8102 19.9851 15.7954 20.0183C15.7806 20.0516 15.773 20.0878 15.7733 20.1242C15.7636 20.1959 15.7813 20.2689 15.8228 20.3281C15.8643 20.3873 15.9266 20.4289 15.9973 20.4442C16.0613 20.4442 19.8373 20.8282 23.4853 21.4682C23.4213 21.2762 23.3573 21.0842 23.2613 20.8602Z" fill="black"/>
<path d="M16.1253 19.7082C15.9352 19.9843 15.7641 20.273 15.6133 20.5722" stroke="black" stroke-linecap="round" stroke-linejoin="round"/>
<path d="M28.4453 37.0843L30.5573 37.6923" stroke="black" stroke-linecap="round" stroke-linejoin="round"/>
<path d="M10.2373 15.0042C10.2045 15.1248 10.1617 15.2426 10.1093 15.3562C10.0872 15.4077 10.052 15.4528 10.007 15.4864C9.96208 15.52 9.90903 15.5415 9.85328 15.5482H9.75728C9.72215 15.5376 9.68964 15.52 9.66199 15.4957C9.63434 15.4717 9.61216 15.442 9.59696 15.4087C9.58179 15.3754 9.57399 15.3389 9.57405 15.3024C9.57408 15.2656 9.58202 15.2295 9.59728 15.1962C9.62928 15.1002 10.3013 13.1162 10.9093 11.7082C10.9349 11.6512 10.9805 11.6058 11.0373 11.5802C11.0373 11.9642 11.0693 12.3162 11.1013 12.7002C11.1333 13.0842 10.4293 14.4282 10.2373 15.0042Z" fill="#FFC619"/>
<path d="M40.1253 35.5802C40.2402 35.2401 40.2741 34.8778 40.2239 34.522C40.174 34.1665 40.0415 33.8276 39.8373 33.5322C39.6952 33.3649 39.5343 33.2145 39.3573 33.0842C38.9592 32.8577 38.5055 32.7466 38.0476 32.7636C37.59 32.7806 37.1458 32.9249 36.7653 33.1802C36.9573 32.0922 37.2133 30.1082 37.0213 28.6042C36.8293 27.1002 36.2533 27.2922 35.9013 27.2282C34.8773 27.0362 33.4693 28.1242 32.2213 30.0762C31.9973 29.0202 31.6773 28.5082 31.1653 28.3802C31.0255 28.3521 30.8802 28.3716 30.7528 28.4353C30.6252 28.499 30.5228 28.6036 30.4613 28.7322L29.9813 29.8842C30.6213 28.9242 30.9733 28.9242 31.0693 28.9242C31.1653 28.9242 31.5813 29.1802 31.8053 30.9082C31.812 30.9652 31.838 31.0183 31.8786 31.059C31.9192 31.0996 31.9724 31.1255 32.0293 31.1322C32.0892 31.1438 32.1512 31.1377 32.2079 31.115C32.2648 31.0922 32.3138 31.0538 32.3493 31.0042C33.6613 28.6042 35.0693 27.6442 35.8053 27.7722C36.5413 27.9002 36.4133 28.3162 36.4453 28.7002C36.7333 30.6522 36.0933 33.7562 36.0933 33.7882C36.0844 33.8436 36.0917 33.9002 36.1144 33.9514C36.1372 34.0023 36.1743 34.0458 36.2213 34.0762C36.2776 34.1025 36.3397 34.1134 36.4015 34.1076C36.4636 34.1022 36.5228 34.0801 36.5733 34.0442C37.2773 33.3082 38.3653 33.1162 39.0373 33.5642C39.7093 34.0122 40.0293 35.6442 39.2933 37.6602C39.6306 36.9924 39.9093 36.2964 40.1253 35.5802Z" fill="#FFF4B3"/>
<path d="M34.8134 22.4921C35.9014 21.8841 36.2854 21.5321 37.2454 22.4921C38.5254 21.8201 38.7814 21.8201 39.4854 22.8441" stroke="#FFC619" stroke-width="2" stroke-linecap="round" stroke-linejoin="round"/>
<path d="M41.6613 25.9483C41.6293 25.0523 41.5333 23.6763 41.5013 23.6443C41.5017 23.6078 41.494 23.5716 41.4793 23.5383C41.4645 23.5051 41.4428 23.4753 41.4153 23.451C41.3881 23.4267 41.3561 23.4084 41.3212 23.3979C41.2863 23.387 41.2495 23.3838 41.2133 23.3883C41.1769 23.3879 41.1407 23.3956 41.1074 23.4103C41.0741 23.4251 41.0444 23.4468 41.0201 23.4743C40.9957 23.5015 40.9775 23.5335 40.9669 23.5684C40.9561 23.6033 40.9529 23.6401 40.9573 23.6763C40.9573 23.7083 41.0853 25.0843 41.0853 25.9803C41.0837 25.9975 41.086 26.0151 41.0914 26.0315C41.0969 26.0481 41.1058 26.0631 41.1173 26.0763H41.6293L41.6613 25.9483Z" fill="black"/>
<path d="M42.0133 24.8601H41.3093C41.2716 24.8601 41.2341 24.8528 41.1992 24.8384C41.164 24.8237 41.1324 24.8025 41.1058 24.7757C41.0789 24.7491 41.0578 24.7174 41.0431 24.6822C41.0287 24.6473 41.0213 24.6099 41.0213 24.5721C41.0293 24.5014 41.0629 24.4361 41.116 24.3888C41.1695 24.3417 41.2383 24.3158 41.3093 24.3161H42.0133C42.0844 24.3158 42.1532 24.3417 42.2063 24.3888C42.2597 24.4361 42.2933 24.5014 42.3013 24.5721C42.3013 24.6099 42.294 24.6473 42.2792 24.6822C42.2648 24.7174 42.2437 24.7491 42.2168 24.7757C42.1903 24.8025 42.1586 24.8237 42.1234 24.8384C42.0885 24.8528 42.0511 24.8601 42.0133 24.8601Z" fill="black"/>
<path d="M32.0294 43.3881C32.7049 43.3715 33.3788 43.3075 34.0454 43.1961" stroke="#FFC619" stroke-width="2" stroke-linecap="round" stroke-linejoin="round"/>
<path d="M4.54132 29.9482C9.85332 29.4362 13.6293 30.6522 18.8453 32.9882C13.6293 32.6362 7.48532 32.4442 7.48532 32.4442" stroke="#BAE8FF" stroke-width="2" stroke-linecap="round" stroke-linejoin="round"/>
</g>
<defs>
<clipPath id="clip0_85_1912">
<rect width="45" height="45" rx="22.5" fill="white"/>
</clipPath>
</defs>
</svg>
