<svg width="45" height="45" viewBox="0 0 45 45" fill="none" xmlns="http://www.w3.org/2000/svg">
<g clip-path="url(#clip0_104_536)">
<rect width="45" height="45" rx="22.5" fill="#3442D9"/>
<path d="M24.5873 17.0874C25.8612 13.0549 23.4929 8.71125 19.2977 7.38621C15.1025 6.06101 10.6689 8.25602 9.39508 12.2892C8.12116 16.3217 10.4894 20.6654 14.6847 21.9904C18.8799 23.3155 23.3134 21.1207 24.5873 17.0874Z" fill="#EB459F"/>
<path d="M22.5889 45.6154C24.6794 45.614 26.7595 45.3222 28.7696 44.7478C28.619 38.8181 24.403 33.211 17.9498 31.1675C15.4118 30.3214 12.6965 30.1544 10.0738 30.6821C7.45117 31.2105 5.01238 32.4166 3 34.179C4.95853 37.6501 7.80459 40.5389 11.2467 42.548C14.6887 44.5578 18.6032 45.6161 22.5889 45.6154Z" fill="#8CD9FF"/>
<path d="M19.7926 39.8793H19.7066C19.5926 39.8406 19.4955 39.7638 19.4315 39.662C19.3676 39.5602 19.3406 39.439 19.3552 39.32C19.3641 39.2533 19.3859 39.1895 19.4195 39.1314C19.4531 39.0734 19.4979 39.0225 19.5512 38.9823C19.6045 38.9414 19.6653 38.912 19.7301 38.8948C19.7949 38.8776 19.8624 38.8733 19.9289 38.8826C22.207 39.1702 24.5184 38.7471 26.5469 37.6709C26.7333 37.9577 26.9054 38.2588 27.0703 38.56C24.8415 39.7481 22.2967 40.2098 19.7926 39.8793Z" fill="#3F99F2"/>
<path d="M33.8043 29.6267C36.0574 22.4938 31.6791 14.7515 24.025 12.3337C16.3709 9.91589 8.33945 13.7383 6.08637 20.8712C3.83321 28.0041 8.21153 35.7464 15.8657 38.1642C23.5198 40.582 31.5512 36.7596 33.8043 29.6267Z" fill="#8CD9FF"/>
<path d="M23.9798 12.2956C26.8777 13.1977 29.4397 14.9457 31.3364 17.3148C30.985 17.6016 29.7159 19.5877 30.6911 22.8501L26.9697 23.7177C26.9697 23.7177 23.6285 11.7794 12.5362 13.1991C16.0818 11.3987 20.1956 11.0738 23.9798 12.2956Z" fill="#3F99F2"/>
<path d="M39.4171 17.1356L34.778 27.2957L38.6785 33.67L22.3377 28.0773L39.4171 17.1356Z" fill="black"/>
<path d="M24.7901 24.7073C26.0704 22.9463 27.8336 21.594 29.8665 20.8139L39.4172 17.1356L23.6787 27.6901L38.6787 33.6413L31.7379 33.1322C29.6503 32.9874 27.6532 32.2238 26.0018 30.9382L22.302 28.0701L24.7901 24.7073Z" fill="#FFE75C"/>
<path d="M16.659 18.3688C16.236 18.3688 15.856 18.3688 15.5548 18.3688C15.3314 18.376 15.1087 18.3975 14.888 18.4334C14.7006 18.457 14.5186 18.5122 14.3502 18.5983C14.2085 18.6592 14.0718 18.7309 13.9415 18.8134C13.7769 18.9302 13.6044 19.0356 13.4253 19.1289L13.3034 19.1934C13.2356 19.2264 13.162 19.2457 13.0867 19.25C13.0115 19.2551 12.9361 19.2443 12.8648 19.2199C12.7936 19.1955 12.7278 19.1568 12.6715 19.1066C12.615 19.0564 12.5691 18.9962 12.5362 18.9281C12.5086 18.8671 12.4917 18.8012 12.486 18.7345C12.4611 18.4735 12.4756 18.2096 12.529 17.953C12.5989 17.6826 12.7128 17.4259 12.866 17.1929C13.0454 16.9269 13.2761 16.6989 13.5444 16.5232C13.8127 16.3468 14.1135 16.2264 14.4291 16.1676C15.0292 16.045 15.6532 16.1367 16.193 16.4257C16.6796 16.6695 17.0689 17.0717 17.2972 17.5658C17.3499 17.6977 17.3512 17.8447 17.3008 17.9773C17.2503 18.11 17.1518 18.219 17.0247 18.2828C16.9678 18.3072 16.9073 18.3215 16.8454 18.3258L16.659 18.3688Z" fill="black"/>
<path d="M28.0189 23.8189C28.4174 23.332 28.5689 22.7964 28.3573 22.6236C28.1457 22.4508 27.6512 22.7054 27.2527 23.1929C26.8543 23.6805 26.7028 24.2161 26.9144 24.3889C27.1259 24.5617 27.6204 24.3065 28.0189 23.8189Z" fill="#FFAB18"/>
<mask id="mask0_104_536" style="mask-type:alpha" maskUnits="userSpaceOnUse" x="7" y="9" width="20" height="9">
<path d="M26.8938 13.5476C26.8938 13.5476 14.8981 9.64706 7.6634 17.6633C7.49677 16.757 7.59328 15.8227 7.94146 14.9702C8.28964 14.1169 8.87495 13.382 9.62803 12.8521C11.6226 11.3837 13.9332 10.4028 16.3749 9.98836C18.8165 9.57393 21.3214 9.73669 23.6887 10.4645C24.3296 10.6495 24.9244 10.9671 25.4345 11.3973C25.9447 11.8268 26.3588 12.3595 26.65 12.9597L26.8938 13.5476Z" fill="#FF78B9"/>
</mask>
<g mask="url(#mask0_104_536)">
<path d="M26.8938 13.5477C26.8938 13.5477 14.8981 9.64712 7.66342 17.6634C7.49678 16.7571 7.59329 15.8228 7.94148 14.9703C8.28966 14.117 8.87496 13.3821 9.62804 12.8522C11.6226 11.3837 13.9332 10.4029 16.3749 9.98842C18.8165 9.57399 21.3214 9.73675 23.6888 10.4645C24.3296 10.6495 24.9244 10.9672 25.4345 11.3974C25.9447 11.8269 26.3588 12.3596 26.65 12.9597L26.8938 13.5477Z" fill="#FF78B9"/>
<path d="M24.1398 14.2675C24.1398 14.2675 23.5805 10.367 20.5547 9.14804" stroke="#EB459F" stroke-width="1.42" stroke-miterlimit="10" stroke-linecap="round"/>
<path d="M19.5005 14.2532L18.1383 9.24126" stroke="#EB459F" stroke-width="1.42" stroke-miterlimit="10" stroke-linecap="round"/>
<path d="M14.8399 15.0778C14.7826 14.8555 13.7716 11.7652 14.7682 9.61412" stroke="#EB459F" stroke-width="1.42" stroke-miterlimit="10" stroke-linecap="round"/>
<path d="M11.4198 11.1198C10.6944 13.0414 10.4363 15.1086 10.6669 17.15" stroke="#EB459F" stroke-width="1.42" stroke-miterlimit="10" stroke-linecap="round"/>
</g>
</g>
<defs>
<clipPath id="clip0_104_536">
<rect width="45" height="45" rx="22.5" fill="white"/>
</clipPath>
</defs>
</svg>
