<svg width="45" height="45" viewBox="0 0 45 45" fill="none" xmlns="http://www.w3.org/2000/svg">
<g clip-path="url(#clip0_85_3044)">
<rect width="45" height="45" rx="22.5" fill="#6874F6"/>
<path d="M29.2346 18.7312C31.7009 18.7312 33.7001 16.8095 33.7001 14.4391C33.7001 12.0688 31.7009 10.1471 29.2346 10.1471C26.7684 10.1471 24.7691 12.0688 24.7691 14.4391C24.7691 16.8095 26.7684 18.7312 29.2346 18.7312Z" fill="#EB459F"/>
<path d="M48 41.1866C46.5916 41.158 45.1945 41.1637 43.95 41.2285C43.262 41.2628 42.7245 41.3142 42.208 41.381C41.7525 41.4419 41.3446 41.6973 41.0988 42.088C40.9749 42.2844 40.8548 42.4902 40.7405 42.7036C40.1935 43.7252 39.8752 44.7353 39.8047 45.5206H42.3509H47.9981V41.1866H48Z" fill="#8CD9FF"/>
<path d="M-0.133293 45.5205L-2.02013 40.4432C-2.22978 39.8809 -1.86195 39.2692 -1.2654 39.1929C1.18557 38.8803 6.91089 38.36 9.80212 39.8314L37.4318 39.8828C37.4318 39.8828 41.5562 38.8594 45.4099 39.3759C45.8635 39.4369 46.1437 39.9038 45.9798 40.3307L43.9786 45.5186H-0.133293V45.5205Z" fill="#29CC7A"/>
<path d="M25.9393 38.606C30.6202 38.606 34.4148 35.1323 34.4148 30.8471C34.4148 26.5619 30.6202 23.0882 25.9393 23.0882C21.2584 23.0882 17.4638 26.5619 17.4638 30.8471C17.4638 35.1323 21.2584 38.606 25.9393 38.606Z" fill="#8CD9FF"/>
<path d="M4.23882 21.5158C3.40976 22.4097 3.17534 23.7076 3.65181 24.8283C4.73436 27.3726 7.13197 31.7676 11.344 33.683C17.4562 36.4599 21.4395 24.1307 12.4342 26.3492C12.4342 26.3492 12.7181 23.3474 10.0423 23.5056L13.3985 14.91C13.6825 14.18 13.3147 13.3586 12.5809 13.0861L4.42178 10.0538C3.7814 9.81554 3.0648 10.0099 2.62835 10.5341C1.40286 11.9959 0.221192 14.9424 9.66489 15.6743L4.23882 21.5158Z" fill="url(#paint0_linear_85_3044)"/>
<path d="M45.448 21.7788C46.1437 22.6098 46.2943 23.7667 45.8368 24.7482C44.6056 27.3917 41.7373 32.4251 37.0831 34.2529C30.6507 36.7782 31.3406 22.4611 37.6644 25.562C37.6644 25.562 37.5291 23.0443 40.4241 23.1434L36.0139 14.1114C35.7089 13.4405 35.8195 12.6534 36.2998 12.0931L40.8377 6.7947C41.5886 5.91799 42.938 5.8894 43.7175 6.73752C45.0554 8.19172 45.7377 10.8638 39.4102 14.5784L45.448 21.7788Z" fill="url(#paint1_linear_85_3044)"/>
<path d="M18.4911 27.1344C18.1347 27.2373 17.765 27.3135 17.4009 27.4012C17.1151 27.4698 16.8482 27.5975 16.6176 27.7786C15.8476 28.3808 14.3553 30.0732 13.1927 34.5864C13.1927 34.5864 10.4749 36.4885 9.80215 39.8333C9.80215 39.8333 21.996 47.8647 37.4319 39.8848L36.1416 34.5064C35.8462 34.3558 35.5717 34.148 35.3182 33.9346C34.453 33.2103 33.7916 32.2498 33.4695 31.1634C32.9225 29.3204 33.4485 27.5479 34.1347 25.8288C33.5591 25.9965 32.9206 25.9108 32.4194 26.2538C31.7485 26.7113 31.2339 27.3878 30.7288 28.0111C30.058 28.8363 29.3737 29.6501 28.6743 30.4506C27.1648 32.1812 25.5143 33.9022 23.3797 34.7541C22.5564 35.0819 21.6606 35.2725 20.782 35.1563C19.9034 35.04 19.0476 34.5883 18.5654 33.845C18.3577 33.5248 18.2262 33.1627 18.1271 32.7949C17.8698 31.8305 17.8488 30.8204 17.9651 29.8331C18.0242 29.3471 18.1252 28.1864 18.4911 27.1344Z" fill="#3442D9"/>
<path d="M-0.133263 45.5205H2.64361C2.57309 44.7334 2.2548 43.7252 1.70781 42.7036C0.672913 40.7672 -0.777473 39.5246 -1.53411 39.9286C-1.61797 39.9744 -1.68847 40.0373 -1.74946 40.1173C-1.92289 40.3517 -1.94197 40.6662 -1.84096 40.9388L-0.133263 45.5205Z" fill="black"/>
<path d="M0.859681 42.8333C0.829187 42.7761 0.798694 42.7209 0.766294 42.6637C0.411798 42.0329 -0.219064 41.6021 -0.937585 41.524C-1.31495 41.482 -1.719 41.4497 -2.20119 41.4268C-6.053 41.2305 -11.4314 41.6117 -13.7509 41.8022C-14.4008 41.8556 -15.0031 41.4592 -15.2051 40.8398C-16.1371 37.9924 -18.0715 33.9862 -18.0715 33.9862L-16.9699 45.5244H-0.676479H1.75353C1.68492 44.7716 1.37999 43.8091 0.859681 42.8333Z" fill="#FFE75C"/>
<path d="M-4.79701 45.5206H-0.680262H1.74975C1.68304 44.7697 1.37809 43.8072 0.857783 42.8333C0.825382 42.7742 0.79298 42.7151 0.76058 42.656C0.40799 42.0309 -0.217141 41.6021 -0.929945 41.5239C-1.30922 41.482 -1.71707 41.4496 -2.20307 41.4248C-3.42284 41.3619 -4.79509 41.3581 -6.17495 41.3886C-5.57269 42.3206 -4.87705 43.7405 -4.79701 45.5206Z" fill="#8CD9FF"/>
<path d="M39.4121 14.5821C45.7396 10.8656 45.0573 8.19354 43.7194 6.74125C42.9379 5.89313 41.5886 5.92362 40.8396 6.79843L36.3016 12.0968C35.8213 12.6571 35.7108 13.4443 36.0157 14.1151L38.2304 18.6512L41.2779 16.8063L39.4121 14.5821Z" fill="#FFE75C"/>
<path d="M11.8662 18.8342L13.3985 14.91C13.6825 14.18 13.3147 13.3586 12.5809 13.0861L4.42178 10.0538C3.7814 9.81554 3.0648 10.0099 2.62835 10.5341C1.40286 11.9959 0.221192 14.9424 9.66489 15.6743L7.70374 17.786L11.8662 18.8342Z" fill="#FFE75C"/>
<path d="M6.1009 10.677C5.91031 11.1668 5.79595 11.8034 6.09136 12.4037C6.60977 13.4596 8.19549 14.0161 10.8027 14.0542C10.8047 14.0542 10.8046 14.0542 10.8065 14.0542C10.9628 14.0542 11.0905 13.9285 11.0924 13.7722C11.0943 13.614 10.9685 13.4844 10.8104 13.4825C7.85241 13.4405 6.89185 12.7354 6.60406 12.1522C6.39441 11.7252 6.484 11.2507 6.63265 10.8752L6.1009 10.677Z" fill="#FFAB18"/>
<path d="M38.5639 12.543C38.6268 12.543 38.6897 12.522 38.7431 12.4801C40.102 11.3899 40.7443 10.3474 40.6547 9.38113C40.5899 8.68357 40.1573 8.21091 39.8447 7.95743L39.473 8.39197C39.7036 8.57684 40.0372 8.92562 40.0848 9.43449C40.1553 10.1854 39.5683 11.085 38.3848 12.0341C38.2609 12.1332 38.2418 12.3124 38.3409 12.4363C38.3981 12.5068 38.4801 12.543 38.5639 12.543Z" fill="#FFAB18"/>
<path d="M33.3247 28.5429C32.3851 28.3104 31.4703 28.1769 30.6507 28.1045C30.2028 28.6553 29.7454 29.1985 29.2861 29.7379C30.8127 29.7798 32.1525 30.0199 33.298 30.3535C33.2122 29.7417 33.2332 29.1394 33.3247 28.5429Z" fill="#FF78B9"/>
<path d="M15.1443 29.5605C14.8241 30.0941 14.4868 30.7631 14.1533 31.5941C15.5331 30.967 16.8158 30.643 17.9117 30.4944C17.9231 30.2733 17.9403 30.0541 17.967 29.8349C17.9917 29.6291 18.0241 29.3032 18.0794 28.9163C17.0388 29.0059 16.042 29.2517 15.1443 29.5605Z" fill="#FF78B9"/>
<path d="M23.4864 27.4202C23.5036 27.424 23.5207 27.424 23.536 27.424C23.6713 27.424 23.7932 27.3268 23.818 27.1877C23.8447 27.0314 23.7418 26.8847 23.5855 26.8561C21.9274 26.5645 20.8086 25.6554 20.254 25.0912C20.1054 25.2151 19.9624 25.3428 19.8252 25.4762C20.4294 26.1013 21.6453 27.0962 23.4864 27.4202Z" fill="#3F99F2"/>
<path d="M36.1396 34.5063C35.8442 34.3558 35.5698 34.1461 35.3163 33.9346C34.6187 33.3514 34.0565 32.6119 33.6963 31.779C33.7668 32.5757 34.2738 36.9306 37.0487 38.2914C36.6695 36.7133 36.1396 34.5063 36.1396 34.5063Z" fill="black"/>
<path d="M15.1883 37.2661C15.1883 37.2661 19.3145 34.3691 25.097 38.6155" stroke="#2130D9" stroke-miterlimit="10" stroke-linecap="round"/>
<path d="M33.0274 26.0138C32.812 26.0576 32.6042 26.1262 32.4175 26.2539C31.7466 26.7113 31.232 27.3879 30.7269 28.0111C30.0561 28.8364 29.3719 29.6502 28.6724 30.4507C27.1629 32.1812 25.5124 33.9023 23.3778 34.7542C22.5545 35.082 21.6587 35.2726 20.7801 35.1563C19.9015 35.0401 19.0457 34.5884 18.5635 33.8451C18.3558 33.5249 18.2243 33.1628 18.1252 32.7949C17.8679 31.8305 17.8469 30.8204 17.9632 29.8332C18.0204 29.3472 18.1214 28.1865 18.4873 27.1344C18.2853 27.1935 18.0775 27.2431 17.8698 27.2907C17.2675 29.2671 15.8667 35.1716 20.4161 35.7148C26.1947 36.4066 31.7828 28.0607 33.0274 26.0138Z" fill="#1E2ED9"/>
<path d="M25.8707 27.1762C30.3686 27.1762 34.0165 23.7776 34.0165 19.585C34.0165 15.3924 30.3686 11.9938 25.8707 11.9938C21.3728 11.9938 17.7249 15.3924 17.7249 19.585C17.7249 23.7776 21.3728 27.1762 25.8707 27.1762Z" fill="#8CD9FF"/>
<path d="M25.9013 11.9844C24.1154 11.9844 22.4668 12.5218 21.1232 13.4309C21.2604 13.6425 21.6054 14.9194 20.5324 16.4956L22.3754 17.5858C22.3754 17.5858 26.1776 11.7728 31.8629 14.403C30.3744 12.9145 28.255 11.9844 25.9013 11.9844Z" fill="#3F99F2"/>
<path d="M16.8348 11.9635L17.1436 19.2154L14.4391 20.9269L24.1173 20.6963L16.8348 11.9635Z" fill="black"/>
<path d="M23.374 18.4815C22.9871 17.3247 22.2724 16.3031 21.3194 15.5427L16.8348 11.9653L23.4578 20.2769L14.4372 20.9287L18.2338 21.8283C19.3678 22.097 20.557 22.0227 21.6491 21.6167L24.1154 20.6981L23.374 18.4815Z" fill="#FFE75C"/>
<path d="M28.5904 15.9315C28.8096 15.6914 29.0612 15.5656 29.368 15.5046C29.6673 15.4475 30.0275 15.4818 30.3553 15.6666C30.6793 15.8458 30.9366 16.1755 31.0109 16.4919C31.0224 16.5319 31.0338 16.5719 31.0433 16.612C31.049 16.6501 31.0529 16.6901 31.0548 16.7282C31.0605 16.8064 31.0643 16.8826 31.0624 16.9569C31.0433 17.1056 31.0128 17.2466 30.9538 17.3819C30.8832 17.5439 30.6945 17.6183 30.5325 17.5477C30.4982 17.5325 30.4658 17.5115 30.4411 17.4868L30.3839 17.4334C30.2867 17.3419 30.2276 17.2523 30.1609 17.1761C30.1247 17.1418 30.0923 17.1075 30.0637 17.0751C30.0485 17.0579 30.0351 17.0427 30.0237 17.0255L29.9779 16.9912C29.8731 16.8826 29.7931 16.8578 29.7168 16.814C29.6387 16.774 29.532 16.7206 29.3719 16.6672C29.2156 16.6119 29.0078 16.5605 28.7887 16.469L28.6991 16.4309C28.5409 16.3642 28.4647 16.1793 28.5333 16.0211C28.5485 15.9868 28.5676 15.9563 28.5904 15.9315Z" fill="black"/>
<path d="M29.3128 19.6462C28.9106 20.8927 28.6152 22.263 28.0225 22.0705C27.4297 21.8799 26.7627 20.1989 27.1629 18.9525C27.565 17.706 28.8839 17.3649 29.4767 17.5574C30.0713 17.7499 29.7149 18.3998 29.3128 19.6462Z" fill="white"/>
<path d="M22.2895 17.9493C22.4325 17.8923 22.442 17.5807 22.3124 17.2533C22.1809 16.9256 21.9598 16.7063 21.8169 16.7631C21.6739 16.8201 21.6644 17.1317 21.7959 17.4593C21.9255 17.7867 22.1466 18.0063 22.2895 17.9493Z" fill="#FFAB18"/>
<path d="M28.5028 18.716C28.6077 18.2967 28.6858 17.8926 28.7087 17.5572C28.1102 17.6925 27.4317 18.1194 27.163 18.9523C27.0791 19.2115 27.0448 19.4879 27.0429 19.768C27.1706 20.0425 27.3536 20.2273 27.5403 20.2731C27.973 20.3817 28.2589 19.6975 28.5028 18.716Z" fill="black"/>
<path d="M24.1516 12.1597C24.1516 12.1597 31.2206 12.1006 33.7401 17.5877L33.7421 17.5839C34.2376 16.6519 34.1423 15.5198 33.5038 14.6812C32.3488 13.1641 30.0904 11.0715 26.3948 11.0314C25.6401 11.0238 24.9159 11.3402 24.4013 11.8929L24.1516 12.1597Z" fill="#FF78B9"/>
<path d="M24.1516 12.1597C24.1516 12.1597 31.2206 12.1006 33.7401 17.5877L33.7421 17.5839C34.2376 16.6519 34.1423 15.5198 33.5038 14.6812C32.3488 13.1641 30.0904 11.0715 26.3948 11.0314C25.6401 11.0238 24.9159 11.3402 24.4013 11.8929L24.1516 12.1597Z" fill="#FF78B9"/>
<path d="M25.6573 13.0651C25.6573 13.0651 26.6159 11.0773 28.4284 10.9324" stroke="#EB459F" stroke-miterlimit="10" stroke-linecap="round"/>
<path d="M28.1387 13.8407L29.713 11.3936" stroke="#EB459F" stroke-miterlimit="10" stroke-linecap="round"/>
<path d="M30.4906 15.0682C30.5592 14.9595 31.6189 13.4806 31.4512 12.1617" stroke="#EB459F" stroke-miterlimit="10" stroke-linecap="round"/>
<path d="M32.9854 13.5283C32.9854 13.5283 33.1341 15.3198 32.3698 16.8788" stroke="#EB459F" stroke-miterlimit="10" stroke-linecap="round"/>
</g>
<defs>
<linearGradient id="paint0_linear_85_3044" x1="7.91148" y1="34.7848" x2="9.79069" y2="20.576" gradientUnits="userSpaceOnUse">
<stop stop-color="#66BCFF"/>
<stop offset="1" stop-color="#8CD9FF"/>
</linearGradient>
<linearGradient id="paint1_linear_85_3044" x1="38.0246" y1="36.6194" x2="40.426" y2="18.4528" gradientUnits="userSpaceOnUse">
<stop stop-color="#66BCFF"/>
<stop offset="1" stop-color="#8CD9FF"/>
</linearGradient>
<clipPath id="clip0_85_3044">
<rect width="45" height="45" rx="22.5" fill="white"/>
</clipPath>
</defs>
</svg>
