<svg width="45" height="45" viewBox="0 0 45 45" fill="none" xmlns="http://www.w3.org/2000/svg">
<path d="M22.5 45C34.9264 45 45 34.9264 45 22.5C45 10.0736 34.9264 0 22.5 0C10.0736 0 0 10.0736 0 22.5C0 34.9264 10.0736 45 22.5 45Z" fill="#69C49A"/>
<path d="M8.48116 12.1367L8.57107 12.3899C8.87747 13.2542 9.39036 14.0351 10.0544 14.649L10.0875 14.6794C10.5266 15.0858 10.9012 15.5575 11.2005 16.0814C11.6678 16.8992 12.3332 17.5864 13.1252 18.0697C13.1258 18.0697 13.1258 18.0705 13.1266 18.0705C13.6339 18.3795 14.0906 18.7663 14.4842 19.2199L14.5143 19.2547C15.1088 19.9398 15.8655 20.4695 16.7018 20.7859L16.9477 20.8788C17.3622 21.0355 17.7599 21.2431 18.1296 21.4941L19.0937 22.1494L18.4584 21.1537C18.2153 20.7728 18.0151 20.3613 17.8626 19.9332L17.7726 19.6799C17.4663 18.8157 16.9533 18.0349 16.2893 17.421L16.2563 17.3905C15.817 16.9841 15.4425 16.5124 15.1432 15.9885C14.6759 15.1715 14.0104 14.4842 13.2192 14.001C13.2186 14.0002 13.2179 14.0002 13.2172 13.9994C12.7099 13.6904 12.2532 13.3036 11.8596 12.85L11.8294 12.8159C11.2349 12.1301 10.4782 11.6005 9.642 11.284L9.39609 11.1911C8.98078 11.0336 8.58303 10.8269 8.21417 10.5758L7.25006 9.92053L7.88526 10.916C8.12843 11.2964 8.32867 11.7071 8.48116 12.1367ZM13.1715 14.892C13.7814 14.892 14.2775 15.4044 14.2775 16.0342C14.2775 16.6641 13.7814 17.1764 13.1715 17.1764C12.5615 17.1764 12.0656 16.6641 12.0656 16.0342C12.0656 15.4044 12.5615 14.892 13.1715 14.892Z" fill="#FFF9C6"/>
<path d="M9.86627 14.8648L9.89932 14.8953C10.3167 15.2813 10.673 15.7298 10.9575 16.2283C11.4493 17.0882 12.1492 17.8118 12.9827 18.3197C12.9833 18.3197 12.9833 18.3204 12.984 18.3204C13.466 18.6143 13.9003 18.9823 14.2733 19.4125L14.3037 19.4474C14.929 20.168 15.7245 20.7246 16.6041 21.0577L16.8502 21.1505C17.2451 21.3001 17.623 21.4968 17.9744 21.7354L19.5083 22.779C19.5323 22.7949 19.5589 22.803 19.5856 22.803C19.6222 22.803 19.6579 22.7885 19.6847 22.7601C19.7318 22.7115 19.7395 22.6352 19.703 22.5779L18.6925 20.993C18.4613 20.6302 18.2702 20.2398 18.1262 19.832L18.0363 19.5787C17.7137 18.6702 17.1748 17.8487 16.477 17.203L16.444 17.1725C16.0266 16.7863 15.6703 16.338 15.3858 15.8393C14.8938 14.9795 14.194 14.256 13.3606 13.748C13.36 13.7473 13.3592 13.7473 13.3585 13.7465C12.8765 13.4527 12.443 13.0855 12.0698 12.6545L12.0396 12.6204C11.4142 11.8996 10.6188 11.3424 9.73903 11.01L9.49312 10.9171C9.09824 10.7676 8.72014 10.571 8.36884 10.3322L6.83485 9.28877C6.77942 9.25105 6.70565 9.2583 6.65855 9.30756C6.61145 9.35617 6.60377 9.43239 6.6402 9.48981L7.65077 11.0739C7.88184 11.4368 8.07232 11.8272 8.217 12.235L8.30704 12.4883C8.6288 13.3975 9.16849 14.219 9.86627 14.8648ZM8.21349 10.5746C8.58248 10.8257 8.98023 11.0325 9.39541 11.19L9.64144 11.2829C10.4783 11.5993 11.2344 12.129 11.8288 12.8148L11.859 12.8489C12.2525 13.3024 12.7085 13.6885 13.2166 13.9984C13.2172 13.999 13.218 13.999 13.2187 13.9998C14.0099 14.4824 14.6754 15.1703 15.1426 15.9875C15.442 16.5113 15.8165 16.983 16.2557 17.3894L16.2886 17.4199C16.9527 18.0338 17.4649 18.8153 17.772 19.6789L17.8619 19.9322C18.0137 20.361 18.2148 20.7718 18.4578 21.1527L19.093 22.1484L18.129 21.4931C17.7594 21.242 17.3616 21.0352 16.9471 20.8777L16.7012 20.7849C15.8642 20.4684 15.1081 19.9387 14.5137 19.2536L14.4835 19.2189C14.09 18.7653 13.634 18.3792 13.1259 18.0694C13.1253 18.0694 13.1253 18.0686 13.1245 18.0686C12.3326 17.5853 11.6673 16.8981 11.1999 16.0803C10.8999 15.5563 10.5261 15.0846 10.0869 14.6783L10.0539 14.6478C9.39059 14.0339 8.87757 13.2524 8.57051 12.3888L8.48061 12.1356C8.32812 11.7066 8.12788 11.296 7.8847 10.9142L7.24951 9.91861L8.21349 10.5746Z" fill="#69C49A"/>
<path d="M13.1704 17.1772C13.7803 17.1772 14.2764 16.6649 14.2764 16.0351C14.2764 15.4051 13.7803 14.8928 13.1704 14.8928C12.5605 14.8928 12.0644 15.4051 12.0644 16.0351C12.0644 16.6649 12.5605 17.1772 13.1704 17.1772Z" fill="#69C49A"/>
<path d="M37.7485 9.91927L36.7845 10.5745C36.4156 10.8256 36.0179 11.0325 35.6026 11.1898L35.3567 11.2828C34.5199 11.5992 33.7638 12.129 33.1693 12.8147L33.139 12.8495C32.7455 13.303 32.2895 13.6891 31.7814 13.9989C31.7808 13.9989 31.7808 13.9997 31.7801 13.9997C30.9882 14.4829 30.3228 15.1702 29.8554 15.988C29.5562 16.5119 29.1816 16.9836 28.7425 17.39L28.7094 17.4205C28.0453 18.0344 27.5331 18.8159 27.226 19.6794L27.1361 19.9327C26.9836 20.3616 26.7834 20.7723 26.5402 21.1533L25.905 22.1489L26.8691 21.4936C27.2387 21.2426 27.6364 21.0357 28.0511 20.8783L28.297 20.7854C29.1338 20.469 29.8899 19.9392 30.4844 19.2535L30.5146 19.2186C30.908 18.7651 31.3648 18.3784 31.8721 18.0692C32.6648 17.5859 33.3301 16.8987 33.7981 16.0802C34.0975 15.5562 34.472 15.0845 34.9112 14.6781L34.9443 14.6477C35.6082 14.0338 36.1205 13.2523 36.4275 12.3887L36.5176 12.1354C36.6699 11.7065 36.8703 11.2959 37.1133 10.9141L37.7485 9.91927ZM31.8271 17.1767C31.2173 17.1767 30.7212 16.6644 30.7212 16.0344C30.7212 15.4046 31.2173 14.8923 31.8271 14.8923C32.4371 14.8923 32.9332 15.4046 32.9332 16.0344C32.9332 16.6644 32.4371 17.1767 31.8271 17.1767Z" fill="#FFF9C6"/>
<path d="M38.3407 9.30744C38.2936 9.25883 38.2198 9.25079 38.1643 9.28851L36.6304 10.332C36.279 10.5708 35.901 10.7674 35.5061 10.917L35.2602 11.0098C34.3804 11.3429 33.5849 11.8995 32.9596 12.6201L32.9294 12.6548C32.5555 13.0852 32.122 13.4531 31.6399 13.7471C31.6393 13.7471 31.6393 13.7477 31.6386 13.7477C30.8059 14.2557 30.1053 14.9785 29.6134 15.8391C29.3281 16.3376 28.9727 16.7861 28.5553 17.1721L28.5222 17.2027C27.8244 17.8485 27.2847 18.6699 26.9622 19.5785L26.8723 19.8317C26.7276 20.2395 26.5371 20.63 26.3059 20.9928L25.2955 22.5769C25.2589 22.6342 25.266 22.7104 25.3137 22.759C25.3412 22.7874 25.3771 22.8019 25.4135 22.8019C25.4403 22.8019 25.467 22.7939 25.4908 22.778L27.0248 21.7345C27.3761 21.4957 27.7542 21.2991 28.1491 21.1495L28.395 21.0567C29.2748 20.7236 30.0701 20.167 30.6956 19.4464L30.7258 19.4116C31.0996 18.9805 31.5339 18.6126 32.0166 18.3188C32.8499 17.8108 33.5498 17.088 34.0417 16.2274C34.3263 15.7289 34.6825 15.2804 35.0999 14.8944L35.133 14.8638C35.8307 14.218 36.3704 13.3966 36.6922 12.488L36.7821 12.2347C36.9269 11.8269 37.1173 11.4365 37.3485 11.0737L38.3589 9.48956C38.3948 9.43227 38.3878 9.35605 38.3407 9.30744ZM36.4273 12.3892C36.1209 13.2536 35.608 14.0344 34.9439 14.6483L34.9109 14.6788C34.4717 15.0852 34.0979 15.5569 33.7979 16.0808C33.3299 16.8986 32.6645 17.5865 31.8719 18.0698C31.3645 18.3789 30.9078 18.7657 30.5143 19.2193L30.484 19.2541C29.8895 19.9392 29.1328 20.4688 28.2966 20.786L28.0507 20.8788C27.6354 21.0356 27.2376 21.2432 26.8688 21.4943L25.9047 22.1495L26.54 21.1539C26.783 20.7729 26.9833 20.3622 27.1358 19.9334L27.2258 19.6801C27.5321 18.8157 28.0451 18.035 28.7091 17.4211L28.7421 17.3907C29.1814 16.9849 29.5558 16.5132 29.8552 15.9886C30.3224 15.1707 30.9879 14.4836 31.7798 14.0003C31.7806 14.0003 31.7806 13.9996 31.7812 13.9996C32.2885 13.6904 32.7453 13.3036 33.1388 12.8501L33.169 12.8153C33.7634 12.1295 34.5203 11.6005 35.3564 11.2834L35.6024 11.1905C36.0176 11.033 36.4153 10.8262 36.7843 10.5752L37.7483 9.91991L37.1131 10.9154C36.8699 11.2972 36.669 11.7079 36.5172 12.1367L36.4273 12.3892Z" fill="#69C49A"/>
<path d="M31.8267 14.8916C31.2168 14.8916 30.7206 15.404 30.7206 16.0338C30.7206 16.6637 31.2168 17.1759 31.8267 17.1759C32.4367 17.1759 32.9328 16.6637 32.9328 16.0338C32.9328 15.404 32.4367 14.8916 31.8267 14.8916Z" fill="#69C49A"/>
<path d="M17.6645 34.0012C17.9877 34.6963 18.4733 35.5795 19.3656 36.2472C20.2123 36.8945 21.3816 37.2733 22.4981 37.2666C23.6168 37.2739 24.7861 36.8944 25.632 36.2478C26.5344 35.5722 27.0136 34.6891 27.3304 33.9953C27.3845 33.8612 27.4407 33.7218 27.4969 33.5817C27.6938 33.0926 27.8926 32.5985 28.1322 32.0752L27.5581 30.7908L25.9996 34.2791C25.9763 34.3307 25.9265 34.3633 25.8717 34.3633C25.8168 34.3633 25.767 34.3307 25.7438 34.2791L24.1846 30.7908L22.6253 34.2791C22.6022 34.3307 22.5522 34.3633 22.4974 34.3633C22.4427 34.3633 22.3927 34.3307 22.3695 34.2791L20.8111 30.7915L19.2525 34.2791C19.2293 34.3307 19.1794 34.3633 19.1246 34.3633C19.0698 34.3633 19.0199 34.3307 18.9967 34.2791L17.4383 30.7915L16.8634 32.0774C17.1058 32.608 17.3054 33.1079 17.5036 33.6035C17.5577 33.737 17.611 33.8691 17.6645 34.0012Z" fill="#FFF9C6"/>
<path d="M30.7063 27.9552C25.5256 30.0306 19.4713 30.0306 14.2905 27.9552C15.4899 29.4778 16.1948 30.6765 16.7063 31.7396L17.312 30.3848C17.3352 30.3333 17.3851 30.3006 17.4399 30.3006C17.4947 30.3006 17.5446 30.3333 17.5678 30.3848L19.1263 33.8724L20.6848 30.3848C20.708 30.3333 20.758 30.3006 20.8127 30.3006C20.8675 30.3006 20.9175 30.3333 20.9406 30.3848L22.4991 33.8724L24.0577 30.3848C24.0808 30.3333 24.1307 30.3006 24.1856 30.3006C24.2403 30.3006 24.2902 30.3333 24.3135 30.3848L25.8727 33.8731L27.4312 30.3848C27.4543 30.3333 27.5043 30.3006 27.5591 30.3006C27.6138 30.3006 27.6638 30.3333 27.6869 30.3848L28.292 31.739C28.8021 30.6758 29.5068 29.4778 30.7063 27.9552Z" fill="#FFF9C6"/>
<path d="M31.2765 27.7001C31.3186 27.6485 31.3207 27.5744 31.2821 27.5208C31.2434 27.4671 31.1746 27.4468 31.1149 27.4728C25.7198 29.8059 19.277 29.8066 13.8812 27.4728C13.8215 27.4468 13.7519 27.4671 13.714 27.5208C13.676 27.5744 13.6781 27.6492 13.7196 27.7001C15.9133 30.3828 16.59 32.0764 17.2442 33.715C17.2976 33.8493 17.351 33.9828 17.4051 34.1171C17.4058 34.1192 17.4072 34.1214 17.408 34.1244C17.7452 34.8506 18.2539 35.7759 19.1976 36.4827C20.0936 37.1677 21.2789 37.5589 22.4552 37.5589C22.4826 37.5589 22.51 37.5589 22.5374 37.5589C23.7158 37.5589 24.9012 37.1677 25.7964 36.4834C26.7492 35.7701 27.2515 34.8464 27.5846 34.1155C27.6416 33.9755 27.6978 33.8354 27.7547 33.6954C28.4117 32.0613 29.0912 30.3726 31.2765 27.7001ZM27.5565 30.3008C27.5017 30.3008 27.4519 30.3334 27.4286 30.385L25.8702 33.8733L24.3109 30.385C24.2878 30.3334 24.2378 30.3008 24.183 30.3008C24.1283 30.3008 24.0783 30.3334 24.0551 30.385L22.4967 33.8725L20.9381 30.385C20.9149 30.3334 20.865 30.3008 20.8102 30.3008C20.7554 30.3008 20.7056 30.3334 20.6823 30.385L19.1238 33.8725L17.5653 30.385C17.5421 30.3334 17.4923 30.3008 17.4374 30.3008C17.3826 30.3008 17.3328 30.3334 17.3095 30.385L16.7038 31.7398C16.1923 30.6766 15.4875 29.4779 14.2881 27.9554C19.4689 30.0308 25.523 30.0308 30.7039 27.9554C29.5044 29.4779 28.7996 30.676 28.2867 31.739L27.6817 30.385C27.6613 30.3341 27.6114 30.3008 27.5565 30.3008ZM17.4388 30.7928L18.9974 34.2803C19.0205 34.3319 19.0704 34.3645 19.1253 34.3645C19.1801 34.3645 19.2299 34.3319 19.2532 34.2803L20.8116 30.7928L22.3702 34.2803C22.3934 34.3319 22.4432 34.3645 22.498 34.3645C22.5529 34.3645 22.6027 34.3319 22.6259 34.2803L24.1851 30.7921L25.7443 34.2803C25.7675 34.3319 25.8175 34.3645 25.8722 34.3645C25.927 34.3645 25.977 34.3319 26.0001 34.2803L27.5587 30.7921L28.1328 32.0764C27.8931 32.5997 27.6943 33.0938 27.4976 33.5829C27.4414 33.723 27.3852 33.8624 27.331 33.9965C27.0141 34.6903 26.5355 35.5728 25.6327 36.249C24.7874 36.8956 23.6174 37.2751 22.4988 37.2679C21.3822 37.2743 20.213 36.8956 19.3662 36.2482C18.4738 35.58 17.9883 34.6975 17.6651 34.0024C17.6117 33.8696 17.559 33.7375 17.5055 33.6055C17.3074 33.1106 17.1079 32.6098 16.8654 32.0794L17.4388 30.7928Z" fill="#69C49A"/>
</svg>
