<svg width="45" height="45" viewBox="0 0 45 45" fill="none" xmlns="http://www.w3.org/2000/svg">
<g clip-path="url(#clip0_85_1867)">
<rect width="45" height="45" rx="22.5" fill="#628BF7"/>
<path d="M17.5451 -15.9028L34.2288 15.3799C34.6145 16.082 34.764 16.8904 34.6531 17.6842C34.5406 18.478 34.1758 19.2142 33.6101 19.7827L33.3787 20.0144C30.6224 22.8968 27.1719 25.0219 23.3565 26.1852C19.5428 27.3486 15.4928 27.5111 11.597 26.6572C11.0313 26.5344 10.5235 26.2228 10.1586 25.7736C9.79382 25.3244 9.59294 24.7643 9.58812 24.1854L8.81667 -13.5855C8.73953 -27.8753 9.43384 -31.0421 17.5451 -15.9028Z" fill="#33BEB5"/>
<path d="M33.3772 20.0145C33.9831 19.3755 34.3752 18.564 34.5006 17.6921C34.6244 16.8204 34.4749 15.9315 34.0731 15.1483L17.542 -15.9028C13.6029 -23.2407 11.4413 -26.3302 10.2054 -25.7896C13.3715 -3.85306 19.8595 24.7263 19.8595 24.7263L24.3402 25.8076C27.7666 24.6159 30.8636 22.6309 33.3772 20.0145Z" fill="#33A2BE"/>
<path d="M29.3625 6.26542C28.358 4.41158 27.8952 3.79364 27.4323 4.72064C20.557 -6.24763 17.2366 -4.08491 17.2366 6.57431C17.2366 6.57431 12.4473 4.02539 12.9873 13.4489C12.3059 13.2645 11.5811 13.3082 10.9253 13.5731C10.2712 13.8381 9.72 14.3097 9.35678 14.9165L9.58821 24.1854C9.59463 24.6799 9.74249 25.1622 10.0173 25.5736C10.2905 25.9851 10.6794 26.3079 11.1343 26.5026C15.2228 27.153 19.4062 26.85 23.3582 25.6173C27.3118 24.3848 30.9262 22.2557 33.9203 19.3964C34.3446 18.824 34.5986 18.1432 34.6532 17.4327C34.7079 16.7221 34.56 16.0105 34.2289 15.3799L29.3625 6.26542Z" fill="#F7E5BC"/>
<path d="M34.2273 15.3799L29.3609 6.26542C28.3564 4.41158 27.8935 3.79364 27.4291 4.72064C20.5553 -6.24763 17.2334 -4.08491 17.2334 6.57431C16.8268 6.36811 16.3768 6.2622 15.9203 6.26542C17.2334 6.57431 17.3105 7.8875 18.0836 10.7453C18.8566 13.6033 19.3966 16.1522 19.3966 16.1522L31.6012 21.3274C32.4257 20.7495 33.2004 20.1036 33.9187 19.3964C34.343 18.824 34.597 18.1432 34.6516 17.4327C34.7062 16.7221 34.5584 16.0105 34.2273 15.3799Z" fill="#F7D197"/>
<path d="M33.6873 15.7662C27.8165 9.43233 22.5643 7.19229 10.6699 24.5716C10.5525 24.7582 10.4834 24.9695 10.4641 25.1886C10.4449 25.4075 10.4786 25.6278 10.5622 25.8313C10.6441 26.0348 10.7743 26.2157 10.9415 26.3592C11.107 26.5029 11.3047 26.605 11.5184 26.6572C15.427 27.5026 19.485 27.3361 23.3116 26.1736C27.1366 25.011 30.6017 22.891 33.3788 20.0144L33.6102 19.7827L34.1502 19.0876C34.4459 18.559 34.56 17.9486 34.4765 17.3491C34.3929 16.7496 34.1148 16.1939 33.6873 15.7662Z" fill="#242236"/>
<path d="M32.6829 21.173L31.1384 13.2944C26.8136 9.74128 22.2557 9.66414 14.6089 19.2421L17.775 26.7344C23.1493 26.2317 28.2938 24.3128 32.6829 21.173Z" fill="#9E4B34"/>
<path d="M33.0685 20.8639L27.4291 20.4006L26.656 22.5633L25.2659 19.5509C23.9528 16.4611 23.8757 16.5384 22.7169 19.1647C21.5582 21.7909 16.3832 20.8639 16.3832 20.8639L15.3016 18.4694C22.0226 10.3592 26.2703 9.89565 30.2094 12.5992L33.0685 20.8639Z" fill="#7A2F28"/>
<path d="M7.50213 31.6007L8.50659 28.9744C8.72356 28.4561 9.06106 27.9968 9.49016 27.6342C9.92088 27.2717 10.4303 27.0163 10.9784 26.889L14.9175 26.1164L30.5196 25.8076L39.0166 30.133C39.3621 30.3019 39.6611 30.5517 39.8893 30.8609C40.1191 31.1701 40.2686 31.5298 40.3296 31.9096L40.6382 33.9178L44.7316 36.6214C44.9598 36.7679 45.1382 36.9775 45.2475 37.2245C45.3584 37.4714 45.3937 37.7449 45.3503 38.0117C44.2687 47.4347 34.613 61.8026 21.1741 55.3917C11.1327 50.6024 1.86266 43.6499 -2.61645 40.0965L-4.31681 42.414C-4.77966 40.1736 -4.39395 39.3251 -2.92502 38.1662C-2.45574 37.8472 -2.01538 37.4851 -1.61199 37.0847C-1.47699 36.7125 -1.39982 36.3218 -1.38054 35.9261C-0.994824 34.1496 -1.38054 33.6863 0.703922 33.2228L7.50213 31.6007Z" fill="#33BEB5"/>
<path d="M14.9946 27.0433C11.3641 27.6613 9.35676 27.5841 14.9946 30.9055C20.6341 34.2269 14.9946 27.0433 14.9946 27.0433Z" fill="#1E6470"/>
<path d="M24.9573 15.8434L25.5761 18.6241C25.6532 18.7014 25.7304 18.8559 25.8847 18.8559L27.0434 19.0103L26.039 16.6931V16.5387L26.2704 14.9166L25.1888 15.5345L24.9573 15.8434Z" fill="#66251F"/>
<path d="M19.3949 18.6241L21.481 18.933C20.7079 20.0916 19.7822 19.9372 19.3949 18.6241Z" fill="#5E221D"/>
<path d="M27.0449 17.8516L29.131 17.2337C28.8996 18.624 27.9722 18.8558 27.0449 17.8516Z" fill="#5E221D"/>
<path d="M20.7852 19.0103C21.1275 19.0103 21.4039 18.5262 21.4039 17.929C21.4039 17.3318 21.1275 16.8475 20.7852 16.8475C20.4445 16.8475 20.1681 17.3318 20.1681 17.929C20.1681 18.5262 20.4445 19.0103 20.7852 19.0103Z" fill="black"/>
<path d="M28.2038 17.6198C28.5445 17.6198 28.8209 17.1358 28.8209 16.5386C28.8209 15.9413 28.5445 15.4571 28.2038 15.4571C27.8615 15.4571 27.585 15.9413 27.585 16.5386C27.585 17.1358 27.8615 17.6198 28.2038 17.6198Z" fill="black"/>
<path d="M30.2111 12.5993L31.9099 13.9123C32.5286 15.6117 32.76 18.0062 33.3772 20.0145C33.9959 22.0227 34.8445 25.0352 34.4588 26.7344C34.0731 28.4338 34.3817 28.5882 35.4633 30.751C36.5449 32.9137 38.5522 35.2311 37.8579 37.8571C39.0166 39.6337 38.6293 40.7153 38.3207 42.3369C38.0122 43.9585 36.6991 48.2849 33.7645 48.2078C32.7729 49.5899 31.3859 50.6394 29.7868 51.2196C28.1877 51.7981 26.4504 51.8801 24.8031 51.451C20.0926 50.2938 15.3804 47.049 15.9204 42.8013C14.3759 41.5654 14.6845 38.3206 14.9175 36.5441C15.0831 34.9652 14.8436 33.3703 14.2216 31.9096C13.6816 30.3648 13.6816 28.82 14.1445 25.5758C13.6029 24.2332 13.214 22.8342 12.9857 21.4048L15.3033 18.3924L16.3849 20.8642C16.9024 21.8948 17.3668 22.9518 17.775 24.031C18.164 23.8603 18.5866 23.7811 19.0109 23.7993C19.2986 23.2048 19.7325 22.6937 20.2741 22.3151C20.8141 21.9364 21.4441 21.7028 22.0999 21.6365L26.6577 22.5634L27.4307 20.4007C29.5923 20.0916 30.6739 20.0916 31.447 20.6324C31.8552 19.4108 31.9098 18.0983 31.6013 16.8476C31.2156 15.3799 30.2111 12.5993 30.2111 12.5993Z" fill="white"/>
<path d="M27.045 24.3399L25.2691 23.9537C24.4189 23.722 24.496 23.6448 22.1014 21.6365L26.6593 22.5634L27.4307 20.4007C29.5939 20.0916 30.6755 20.0916 31.4485 20.6324C31.8567 19.4108 31.9098 18.0983 31.6028 16.8476C31.2155 15.3799 30.2127 12.5993 30.2127 12.5993L31.8343 13.9123C32.5286 15.6117 32.7616 18.0062 33.3787 20.0145C33.9975 22.0227 34.846 25.0352 34.4603 26.7344C34.0746 28.4338 34.3832 28.5882 35.4648 30.751C36.5464 32.9137 38.5537 35.2311 37.8594 37.8571C39.0182 39.6337 38.6309 40.7153 38.3223 42.3369C38.0137 43.9585 36.7007 48.2849 33.7644 48.2078C32.7744 49.5899 31.3875 50.6394 29.7884 51.2196C28.1893 51.7981 26.4519 51.8801 24.8046 51.451C20.0941 50.2938 15.3819 47.049 15.9219 42.8013C17.3893 46.8176 20.4798 46.0445 20.4798 46.0445C22.3569 45.6395 24.2759 45.4579 26.1948 45.5046C27.2764 43.5728 28.5894 41.7197 29.6711 40.9467C31.9886 36.5441 30.2127 31.8324 29.1311 29.2062L27.045 24.3399Z" fill="#D6DFFF"/>
<path d="M27.045 24.34C28.2037 24.5716 28.1266 23.5676 28.0494 22.5634C28.006 21.8055 27.7955 21.0665 27.4307 20.4005L26.6593 22.5634L22.1014 21.6364C24.496 23.6447 24.4189 23.722 25.2674 23.9538L27.045 24.34Z" fill="#CAD5FC"/>
<path d="M18.315 17.311L22.5643 16.0751C22.2059 15.872 21.8089 15.7428 21.3991 15.6952C20.9909 15.6474 20.5746 15.6822 20.1793 15.7974C19.7839 15.9125 19.4143 16.1058 19.0944 16.3657C18.7746 16.6257 18.5094 16.947 18.315 17.311Z" fill="#CFDEFF"/>
<path d="M25.6548 15.6116L30.0567 14.7621C29.356 14.3097 28.5058 14.1454 27.6861 14.3038C26.8649 14.4621 26.1385 14.9305 25.6548 15.6116Z" fill="#CFDEFF"/>
<path d="M28.8981 25.962C28.882 26.2513 28.7647 26.5258 28.567 26.7376C28.3693 26.9493 28.1042 27.0849 27.8165 27.1207C23.1815 27.7387 21.1741 26.6572 20.4011 26.0393C20.3079 25.9517 20.2388 25.8423 20.1986 25.7209C20.1568 25.5996 20.1472 25.47 20.1697 25.344V25.1896C22.6415 26.0393 26.3492 25.6531 27.1993 25.4986C28.0479 25.344 27.7393 25.1125 27.6622 24.7263C27.8245 24.7263 27.9852 24.7581 28.1347 24.8203C28.2858 24.8823 28.4208 24.9734 28.5365 25.0882C28.6506 25.2029 28.7422 25.3392 28.8032 25.4892C28.8659 25.6391 28.8981 25.7998 28.8981 25.962Z" fill="#DE5D70"/>
<path d="M23.22 5.64206C23.9898 5.27338 24.075 3.85172 23.4112 2.46684C22.7475 1.0818 21.5871 0.257977 20.8173 0.626655C20.0475 0.995173 19.9623 2.41685 20.6261 3.80189C21.2882 5.18676 22.4502 6.01074 23.22 5.64206Z" fill="#FF9CCD"/>
<path d="M23.4127 2.40324C22.794 1.0129 21.5581 0.163213 20.7867 0.549409C20.6935 0.59682 20.6115 0.662225 20.5456 0.741939C20.4797 0.821493 20.4299 0.913746 20.3994 1.01291C21.7124 0.935603 21.0181 2.48054 23.4127 2.40324Z" fill="#FFEBF5"/>
<path d="M20.1681 1.93994C20.1841 2.57589 20.3159 3.20381 20.5538 3.79363L20.8624 4.25712C21.0954 4.17982 21.6354 4.02537 21.8668 4.41157C22.0982 4.79777 22.4084 5.49301 23.257 5.64746C23.4659 5.48385 23.6315 5.27155 23.7391 5.0292C23.8468 4.78684 23.8934 4.52166 23.8758 4.25712H23.6443C22.0211 4.25712 21.0954 2.55773 20.1681 1.93994Z" fill="#FF70B7"/>
<path d="M15.3032 10.6682C15.7291 10.6682 16.0746 10.2187 16.0746 9.66409C16.0746 9.10962 15.7291 8.65994 15.3032 8.65994C14.8757 8.65994 14.5302 9.10962 14.5302 9.66409C14.5302 10.2187 14.8757 10.6682 15.3032 10.6682Z" fill="#F7D197"/>
<path d="M11.2097 17.311C11.6356 17.311 11.9812 16.8615 11.9812 16.3068C11.9812 15.7524 11.6356 15.3029 11.2097 15.3029C10.7822 15.3029 10.4367 15.7524 10.4367 16.3068C10.4367 16.8615 10.7822 17.311 11.2097 17.311Z" fill="#F7D197"/>
<path d="M12.9857 21.4047C13.214 22.6087 13.5241 23.7957 13.9131 24.9578C13.9131 24.031 14.2988 22.9495 14.9175 22.7178C15.5347 22.4862 15.6118 20.9412 16.3849 20.8641L15.3033 18.3923L12.9857 21.4047Z" fill="#A8C3FF"/>
<path d="M29.4364 29.9785C31.3682 31.9097 32.0624 33.3 32.2183 34.3813C31.4324 34.0943 30.7012 33.6764 30.0551 33.1456L29.4364 29.9785Z" fill="white"/>
<path d="M22.0226 14.6849C23.7229 14.1735 25.4506 13.7608 27.1976 13.449C24.4172 13.1401 22.8728 13.6035 22.0226 14.6849Z" fill="#66251F"/>
<path d="M23.8001 18.0061C23.8162 18.3627 23.9062 18.7121 24.0669 19.0315C24.226 19.3508 24.451 19.633 24.7274 19.86C25.1131 20.1688 24.8045 19.6282 24.3401 18.6241C23.8772 17.6199 23.6458 17.3882 23.8001 18.0061Z" fill="#C27059"/>
</g>
<defs>
<clipPath id="clip0_85_1867">
<rect width="45" height="45" rx="22.5" fill="white"/>
</clipPath>
</defs>
</svg>
