<svg width="45" height="45" viewBox="0 0 45 45" fill="none" xmlns="http://www.w3.org/2000/svg">
<g clip-path="url(#clip0_85_1777)">
<rect width="45" height="45" rx="22.5" fill="#FFB685"/>
<path d="M28.0851 19.8863C29.485 19.7069 29.9875 19.8863 30.6695 20.353C31.233 20.708 31.7499 21.1297 32.213 21.6093C32.4283 21.8605 33.577 22.2554 34.1513 22.5066C34.5246 22.6017 34.8691 22.7852 35.1563 23.0414C35.4434 23.2974 35.666 23.6186 35.8024 23.9783C36.1972 24.9474 35.3716 25.6294 34.8332 25.8089C34.2948 25.9884 33.3616 26.096 32.0335 25.3423C31.2977 24.9675 30.6659 24.4119 30.2029 23.727C29.7722 23.1527 29.162 21.9682 28.3005 21.6452C27.439 21.3221 26.6852 20.9991 26.5417 20.5324C26.3981 20.0658 27.2596 19.9581 28.0851 19.8863Z" fill="#5C113B"/>
<path d="M33.5408 18.4869C32.6075 17.446 32.105 17.2665 31.2795 17.1229C30.6262 17.0153 29.9622 16.9912 29.3053 17.0512C28.9463 17.0871 27.8336 16.6563 27.2593 16.441C26.685 16.2256 26.003 15.9384 25.0339 16.4051C24.0647 16.8717 24.2801 17.9485 24.5313 18.451C24.7826 18.9536 25.4646 19.6355 26.9362 19.9586C27.7474 20.1682 28.5981 20.1804 29.4129 19.9945C30.0949 19.815 31.3154 19.3484 32.2127 19.6714C33.1101 19.9945 33.792 20.2816 34.2587 20.0304C34.7253 19.7791 34.0792 19.133 33.5408 18.4869Z" fill="#5C113B"/>
<path d="M21.7315 16.6561C21.3833 15.9906 20.8629 15.4324 20.2239 15.0408C19.7214 14.7178 19.4702 14.5024 19.0754 14.2153C18.6805 13.9281 17.6755 13.1743 16.814 13.9999C15.9525 14.8255 17.3165 15.7228 17.8549 16.1177C18.3934 16.5125 18.6087 16.5484 18.7164 16.7637C18.9928 17.1482 19.2333 17.5566 19.4343 17.9841C19.6174 18.2566 19.8973 18.449 20.2168 18.5222C20.5362 18.5958 20.8736 18.5445 21.1572 18.379C21.7315 17.9124 22.3058 17.7688 21.7315 16.6561Z" fill="#821B44"/>
<path d="M23.4546 15.9743C24.1151 15.2467 24.876 14.6182 25.716 14.1078C26.398 13.6771 26.9005 13.6412 27.3312 13.8924C27.7619 14.1437 27.7619 14.6462 27.726 15.041C27.6901 15.4359 27.3312 15.723 26.8646 15.9743C26.301 16.2891 25.7841 16.6749 25.3211 17.1229C25.1488 17.3257 24.9155 17.4668 24.6571 17.5253C24.3986 17.5834 24.1258 17.5554 23.8853 17.446C23.3469 17.2665 22.7367 16.6922 23.4546 15.9743Z" fill="#821B44"/>
<path d="M23.8859 17.446C24.1263 17.5558 24.3991 17.5835 24.6576 17.5253C24.916 17.4668 25.1493 17.3258 25.3216 17.123C25.7847 16.675 26.3016 16.2891 26.8651 15.9743C27.3317 15.7231 27.6907 15.4718 27.7266 15.0411C27.7625 14.8272 27.7625 14.6089 27.7266 14.395C27.2815 14.3821 26.8399 14.4061 26.3984 14.4668C25.537 14.6104 24.6396 15.1847 23.4551 15.9743L23.168 16.764C23.2254 16.9255 23.3223 17.0709 23.448 17.1894C23.57 17.3075 23.7207 17.3954 23.8859 17.446Z" fill="#5C113B"/>
<path d="M26.7925 15.651C28.0847 15.2561 29.2692 15.0049 30.2024 16.2612C30.4537 16.6201 30.9921 17.4098 31.2433 17.6969C31.4946 17.9841 32.2484 18.5584 32.4996 19.2045C32.7509 19.8506 33.1816 20.3172 34.0431 20.8915C34.201 20.9834 34.3303 21.1144 34.42 21.272C34.5097 21.4292 34.5564 21.6076 34.5564 21.7889C34.5564 21.9702 34.5097 22.1482 34.42 22.3058C34.3303 22.463 34.201 22.5944 34.0431 22.6862C33.5047 23.0452 32.7509 23.117 31.4946 22.1837C30.2383 21.2505 29.9871 20.2813 29.5204 19.4199C29.0538 18.5584 28.3 17.6611 27.7616 17.338C27.2232 17.0878 26.6345 16.9651 26.0387 16.9791C25.7156 16.9791 24.9977 16.9791 25.1413 16.6919C25.2849 16.4048 26.3976 15.7587 26.7925 15.651Z" fill="#821B44"/>
<path d="M14.5524 31.9111C13.9781 34.4237 14.373 36.3261 16.1318 36.2185C17.8906 36.1108 18.2496 34.4597 18.2855 32.5573C18.3214 30.6549 14.5524 30.1523 14.5524 30.1523V31.9111Z" fill="#5C113B"/>
<path d="M21.624 17.2663C21.3584 16.5657 20.8953 15.9558 20.2959 15.5075L19.255 14.5743C18.896 14.2512 17.9628 13.3539 17.0295 14.1077C16.0963 14.8614 17.3167 15.9024 17.8551 16.3331C18.3935 16.7638 18.5371 16.8356 18.6447 17.051C18.8601 17.4706 19.0503 17.902 19.219 18.3432C19.3734 18.6282 19.6282 18.8457 19.9333 18.9519C20.2384 19.0582 20.5723 19.046 20.8702 18.9175C21.5163 18.5226 22.0906 18.4509 21.624 17.2663Z" fill="#5C113B"/>
<path d="M20.8706 17.3381C20.9065 16.5071 21.1039 15.6909 21.4449 14.9332C21.75 14.3334 22.0013 13.7088 22.1987 13.0667C22.4894 12.3391 22.9883 11.7145 23.6344 11.272C24.46 10.7694 24.8907 11.0207 25.142 11.5591C25.3932 12.0975 25.2497 12.6718 24.5677 13.5692C23.8857 14.4665 23.8498 14.8255 23.8498 15.328C23.8606 15.8915 23.7637 16.4518 23.5627 16.9791C23.3473 17.4817 22.0551 18.6662 20.8706 17.3381Z" fill="#821B44"/>
<path d="M23.8495 15.3282C23.8495 14.8257 23.9213 14.4308 24.5674 13.5694C24.8007 13.2736 24.9945 12.9477 25.1417 12.6002C25.2135 12.0977 24.8905 12.3849 24.6751 12.7079C24.4597 13.031 23.8854 13.3899 23.5265 13.7488C23.1675 14.1078 23.0958 14.3231 22.8445 15.0051C22.5933 15.6871 22.4496 16.2973 22.7727 16.5845L23.6342 16.7639C23.7742 16.298 23.8459 15.8145 23.8495 15.3282Z" fill="#5C113B"/>
<path d="M18.8599 17.8766C17.1369 17.769 16.0601 17.9484 15.0551 18.774C14.6567 19.092 14.3336 19.4894 14.0967 19.9406C13.8634 20.3918 13.7234 20.8867 13.6911 21.3943C13.5834 22.3993 13.5475 23.5838 13.404 24.0505C13.2604 24.5171 12.9014 24.8401 12.6502 25.4144C12.3128 26.1944 12.18 27.0455 12.2554 27.8911C12.3056 28.7196 12.2589 29.5509 12.1118 30.3678C11.9682 31.1934 11.681 32.1267 12.1118 32.8086C12.5425 33.4906 13.2604 33.5983 14.1218 33.2753C14.9833 32.9522 15.1628 32.4856 15.3781 31.8036C15.5935 31.1216 16.2396 23.8351 16.2396 23.8351L17.2087 20.9277L19.9726 19.3124L18.8599 17.8766Z" fill="#821B44"/>
<path d="M18.5375 19.6715C18.5375 19.6715 17.4606 18.487 15.63 20.6765C14.8404 21.6815 14.4096 22.7943 14.302 24.4813C14.1943 26.1683 13.3687 29.3988 13.4764 30.6192C13.5482 31.2653 13.1533 32.4498 13.0815 33.419C13.4333 33.4534 13.7923 33.4043 14.1225 33.2754C15.0198 32.9165 15.1634 32.4857 15.3788 31.8037C15.5941 31.1217 16.2403 23.8352 16.2403 23.8352L17.2094 20.9278L18.6093 20.1022L18.5375 19.6715Z" fill="#5C113B"/>
<path d="M24.5674 16.943C25.7519 16.5123 26.1467 16.4046 26.9364 16.4405C27.3348 16.4322 27.7297 16.531 28.0743 16.7269C28.4224 16.9226 28.7132 17.2079 28.9106 17.5532C29.2516 18.1064 29.6751 18.6031 30.1669 19.0249C30.7448 19.5421 31.136 20.2363 31.2796 20.9991C31.5309 22.0041 31.7462 23.045 31.8898 23.3681L32.9666 25.5217C33.5194 26.5996 33.8173 27.7917 33.8281 29.0035C33.8496 29.7709 33.8137 30.5387 33.7204 31.3007L31.5668 32.4852L29.6285 32.1622L29.5208 27.137L25.716 19.0967L24.4956 18.307L24.5674 16.943Z" fill="#821B44"/>
<path d="M25.7163 19.097L29.5211 27.1373L29.6288 32.1625L31.5671 32.4855L33.7207 31.301C33.814 30.539 33.8499 29.7712 33.8284 29.0038C33.8176 27.792 33.5197 26.5999 32.9669 25.522L31.8901 23.3684C31.8183 23.1889 31.7106 22.7582 31.5671 22.2198C32.0121 22.5884 32.5434 22.8357 33.1105 22.9376C31.8183 22.5787 30.921 20.2815 30.0954 19.6354C29.2698 18.9893 28.4084 18.5944 27.7623 17.3381C27.1162 16.0818 26.4342 16.2613 26.0034 16.369C25.5727 16.4767 25.3933 16.7638 24.8548 16.5844C24.3164 16.4049 23.7062 16.2254 24.2446 16.5844C24.783 16.9433 24.819 17.2664 24.9984 18.0201V18.6303L25.7163 19.097Z" fill="#5C113B"/>
<path d="M20.547 33.8137C16.3833 34.1009 14.086 33.9932 11.8606 36.0391C10.4212 37.3769 9.06446 38.8034 7.80457 40.3106C7.51742 40.5977 5.54322 41.4592 4.10745 41.8899C3.72697 41.9818 3.37522 42.1731 3.09166 42.4441C2.80809 42.7151 2.59989 43.0565 2.49221 43.4334C1.20001 43.6128 -0.163958 44.8691 -0.415218 46.5203C-0.519311 47.4402 -0.278818 48.3659 0.259596 49.1208C0.79442 49.8753 1.59126 50.4062 2.49221 50.6122C4.35871 51.0788 5.86628 49.7149 7.08669 48.3509C10.9274 47.1305 14.5886 45.4434 16.6345 44.1871C18.6805 42.9308 22.5212 40.5259 20.547 33.8137Z" fill="#2C55C7"/>
<path d="M17.1375 38.4082C18.2143 38.9107 19.4706 39.4491 20.6551 39.8798C21.1935 38.4082 21.3371 36.434 20.5474 33.8137C18.7886 33.9214 17.3528 33.9932 16.0965 34.1727C14.23 34.6034 13.8711 36.9006 17.1375 38.4082Z" fill="#1E3AA8"/>
<path d="M12.3991 39.7718C11.5735 41.1358 9.27634 42.8946 8.48666 42.8946H5.79459C4.89724 42.8946 3.64094 43.0023 4.5383 43.2177C5.43565 43.433 5.75867 43.5048 5.18437 43.6125C4.24753 43.7503 3.33581 44.0411 2.4923 44.474L1.77441 50.3606L2.4923 50.6119C4.3588 51.0785 5.86637 49.7145 7.08678 48.3506C9.58502 47.5627 12.0186 46.5906 14.3733 45.4431L17.6397 40.0949L12.6504 39.1257L12.3991 39.7718Z" fill="#1F48B8"/>
<path d="M5.14845 44.1869C3.96394 43.7562 2.16923 43.7562 1.02061 45.0124C-0.128006 46.2687 0.266839 48.207 0.984724 49.1403C1.29341 49.566 1.70619 49.9031 2.18358 50.1173C2.66456 50.3316 3.19221 50.4156 3.71268 50.3607C4.8254 50.3248 6.72781 49.2121 7.23033 47.7763C7.73285 46.3405 7.19442 44.9407 5.14845 44.1869Z" fill="#67A7D6"/>
<path d="M14.0864 44.2589C13.4403 41.8181 13.0454 40.0592 12.9377 38.7312C12.8301 37.4031 12.507 37.762 12.0045 39.1619C11.502 40.5618 11.9327 41.3873 12.9377 43.3256C13.9428 45.2639 14.5171 45.91 14.0864 44.2589Z" fill="#1E3AA8"/>
<path d="M7.76917 44.9406C8.63781 44.5834 9.449 44.0996 10.1741 43.5048C10.7484 43.0382 11.2509 43.0741 11.4304 43.6484C11.6098 44.2227 10.9997 44.8688 10.2818 45.4072C9.56388 45.9456 7.62559 47.166 7.08717 46.7353C6.54876 46.3046 6.65645 45.6944 7.76917 44.9406Z" fill="#4683CC"/>
<path d="M32.6798 32.0187C33.4444 32.097 34.1731 32.3866 34.7797 32.8561C35.3899 33.3253 35.8565 33.9552 36.1257 34.6749C36.8185 36.6814 37.2528 38.7683 37.4179 40.8846C37.705 44.5817 36.9871 49.4992 36.4487 51.6529C35.9103 53.8065 35.336 55.673 35.336 55.673C35.9103 58.0779 36.1616 58.8317 35.2642 59.8368C35.2606 60.2122 35.214 60.5855 35.1206 60.9495C34.1874 61.3443 25.1062 61.7033 19.5067 60.9495C13.9072 60.1957 12.938 58.2215 12.938 58.2215L13.1534 57.2165C12.7586 56.6422 13.0816 56.0679 13.5482 55.3859C13.7995 54.0937 14.0507 52.3708 14.1943 51.5811C14.4455 49.9659 14.2661 48.6378 14.2302 47.0943C14.1584 44.9766 13.5841 42.6075 15.4506 39.4847C16.7428 37.2952 19.2913 33.9929 21.6603 33.3109C24.0293 32.6289 28.1213 31.588 32.6798 32.0187Z" fill="#C9CEE8"/>
<path d="M36.1252 34.6749C35.856 33.9552 35.3893 33.3253 34.7791 32.8561C34.1725 32.3866 33.4438 32.097 32.6793 32.0187C28.1207 31.588 24.0288 32.6289 21.6598 33.3109C19.2908 33.9929 17.7832 36.0389 16.3833 38.0131C16.6238 38.166 16.8751 38.2981 17.1371 38.4079C20.4035 39.9514 25.2133 41.5666 25.2133 41.5666L13.0093 58.3651C13.3323 58.7958 14.7681 60.2675 19.5061 60.9495C25.1056 61.7033 34.1869 61.3443 35.1201 60.9495C35.2134 60.5855 35.2601 60.2122 35.2637 59.8368C36.1611 58.8317 35.9098 58.0779 35.3355 55.673C35.3355 55.673 35.9098 53.7706 36.4482 51.6529C36.9866 49.5351 37.7045 44.5817 37.4174 40.8846C37.2522 38.7683 36.8179 36.6814 36.1252 34.6749Z" fill="#AFB5E0"/>
<path d="M23.4549 45.6229C25.0343 45.1922 26.4701 44.8333 27.3674 44.6897C28.2648 44.5461 27.2956 45.3717 26.506 45.7306C24.7687 46.456 22.8986 46.8107 21.0141 46.7715C18.3221 46.7715 21.6243 46.0896 23.4549 45.6229Z" fill="#C9CEE8"/>
<path d="M33.5409 42.823C32.622 44.0786 31.6277 45.2775 30.5617 46.4125C29.772 47.3098 31.7103 46.8073 33.146 45.6228C34.5818 44.4383 35.2997 40.5976 33.5409 42.823Z" fill="#94A1D4"/>
<path d="M17.0299 20.0304C19.4348 18.5229 23.3832 17.9127 25.5368 18.0203C27.6905 18.128 27.9058 18.6305 28.875 20.4612C29.119 20.9073 29.4098 21.328 29.7364 21.7175C30.7774 22.9738 31.1004 23.225 30.921 25.6299C31.7106 26.3478 32.3208 27.1734 32.3208 28.4656C32.3208 29.7578 31.8901 30.8705 30.7415 32.4857C28.3725 35.8598 25.2497 37.5827 19.2912 34.9624C14.0507 32.6652 14.5532 30.2244 14.5891 29.1476C14.625 28.0707 14.6968 26.4914 14.9839 24.0865C15.2711 21.6816 15.5582 20.9637 17.0299 20.0304Z" fill="#5D9FCE"/>
<path d="M19.0395 28.1065C18.6769 26.8767 17.9806 25.7712 17.0294 24.9119C16.2038 24.2658 15.9526 24.9119 15.9167 25.7733C15.8808 26.6348 16.0603 27.8193 17.2807 28.3577C18.5011 28.8961 19.2189 28.7167 19.0395 28.1065Z" fill="#CAD6E3"/>
<path d="M29.1618 23.0095C29.2336 23.7633 29.2694 24.3376 29.3412 25.0196C29.413 25.7016 29.5207 26.1682 29.8078 26.0246C30.095 25.8811 30.2745 25.5221 30.4181 24.8401C30.5114 24.5074 30.5293 24.1581 30.4755 23.8171C30.4181 23.4761 30.2888 23.1517 30.095 22.8659C29.7361 22.3275 29.09 21.9686 29.1618 23.0095Z" fill="#CAD6E3"/>
<path d="M28.5516 30.6192C28.5516 30.6192 28.5875 27.4605 28.5516 25.4146C28.5157 23.3686 28.6952 20.1381 27.7261 18.7741C27.1876 18.2716 26.5416 18.0921 25.5365 18.0203C23.3829 17.9127 19.4345 18.5229 17.0296 20.0304C16.1681 20.6047 15.7373 20.9637 15.4502 21.7175C15.9886 20.4253 17.4962 22.0764 18.4294 23.7634C19.3627 25.4504 20.1882 26.9939 22.0906 32.4857L26.2185 32.8088L28.5516 30.6192Z" fill="#65C6DB"/>
<path d="M25.2491 20.9632C27.5105 21.0709 28.336 22.0759 28.5155 22.3631C28.4437 20.9273 28.2643 19.5633 27.7258 18.7737C27.1874 17.984 26.5413 18.0917 25.5363 18.0199C24.6354 17.9843 23.7344 18.0324 22.8442 18.1635L25.2491 20.9632Z" fill="#59B7CF"/>
<path d="M22.7007 26.168C23.0955 26.9936 23.1673 27.3525 23.7775 27.2448C24.0359 27.2093 24.2692 27.0794 24.4344 26.8801C24.5995 26.6809 24.6856 26.4268 24.6749 26.168C24.6749 25.5578 24.6031 24.6604 24.6031 24.6604C25.2491 25.163 25.7517 25.1989 26.0748 24.9835C26.3978 24.7681 26.8285 24.3374 26.6132 23.117C26.3978 21.8966 22.9519 21.2505 22.9519 21.2505L22.7007 26.168Z" fill="#3FA9C7"/>
<path d="M26.2188 32.8086L28.5519 30.619C28.5519 30.619 28.5878 27.4603 28.5519 25.4144V24.9836C28.3006 26.8501 26.6136 27.568 24.8189 27.7116C23.0242 27.8552 21.8397 27.5321 19.6143 26.0605C20.5511 28.1574 21.3766 30.3021 22.0909 32.4855L26.2188 32.8086Z" fill="#59B7CF"/>
<path d="M18.6451 31.4804C23.8498 32.1265 28.0135 31.6957 29.8082 29.0754C29.5713 29.9276 29.259 30.7567 28.875 31.5521C28.5806 32.1918 28.1319 32.7471 27.5684 33.167C27.0013 33.5873 26.3408 33.8591 25.6445 33.957C23.778 34.2442 22.3422 33.7058 20.7629 32.9161C19.1835 32.1265 18.1785 31.4086 18.6451 31.4804Z" fill="#5C1838"/>
<path d="M21.9468 32.988C23.1026 33.5131 24.3983 33.6639 25.6439 33.4188C26.8643 33.2034 27.7616 32.306 27.9052 31.9471C28.0488 31.5882 27.0079 31.5522 27.0079 31.5522L22.0185 32.1625L21.9468 32.988Z" fill="#420F27"/>
<path d="M20.4395 31.8752C20.784 32.4409 21.265 32.9104 21.8393 33.2391C22.0906 33.3109 22.3059 32.7007 22.4495 32.27C22.4854 32.6289 22.5213 32.7366 22.952 32.7725C23.9212 32.8802 26.0749 32.4136 26.6133 32.1982C27.1517 31.9829 27.1517 31.8752 27.1876 31.6598C27.5824 32.0905 27.9055 32.1982 28.0491 32.0546C28.1926 31.9111 28.2644 31.588 28.3003 30.7983H28.2644C26.4338 31.8393 23.7058 32.1264 20.4395 31.8752Z" fill="#E3D4AA"/>
<path d="M24.4598 30.0448C24.2265 29.5732 23.8962 29.1572 23.4906 28.8244C23.2034 28.6091 23.2034 28.8962 23.2752 29.2552C23.347 29.6141 24.029 30.0448 24.3521 30.2602C24.6751 30.4756 24.6033 30.2961 24.4598 30.0448Z" fill="#2C2745"/>
<path d="M26.5059 29.6857C26.47 29.1114 26.4341 28.573 26.4341 28.2859C26.4341 27.9987 26.5776 28.2141 26.6853 28.4294C26.793 28.6448 26.793 28.7525 26.7571 29.0396C26.7212 29.3268 26.5059 30.0088 26.5059 29.6857Z" fill="#2C2745"/>
<path d="M11.2862 46.0178C10.7191 45.4249 10.0515 44.9388 9.31206 44.5821C8.67673 44.3649 8.03063 44.1851 7.37376 44.0436C6.94303 43.936 6.54823 44.3308 6.33286 44.5461C6.1175 44.7615 5.93803 44.7974 5.25604 44.8333C4.9976 44.8218 4.74271 44.9076 4.54529 45.0734C4.34429 45.2396 4.2151 45.4737 4.17921 45.7307C4.10742 46.1614 4.10739 46.3409 3.24592 46.7716C2.38446 47.2023 2.27682 47.5254 2.20503 48.0638C2.13324 48.6022 2.06142 49.7867 2.8511 49.9303L7.33788 45.9101C8.26754 46.1976 9.17924 46.5455 10.0658 46.9511C10.7478 47.2382 10.9273 47.31 11.1068 47.1664C11.2862 47.0228 11.8606 46.6639 11.2862 46.0178Z" fill="#599DCE"/>
<path d="M19.255 18.9891C19.4704 19.8505 20.0806 20.712 20.2959 21.3581C20.461 21.992 20.558 22.6417 20.5831 23.2964C20.619 23.9066 20.8344 25.3782 21.4805 26.132C22.1265 26.8858 22.9162 26.7422 23.67 26.0602C24.4238 25.3782 23.8136 23.4759 23.67 22.5785C23.5264 21.6811 23.347 20.2813 23.2393 19.348C23.1316 18.4148 22.9162 17.5533 21.9112 17.0508C20.9061 16.5483 20.4036 16.5124 19.6499 16.7636C18.8961 17.0149 18.3936 17.7328 18.3936 19.348C18.6735 19.2077 18.9607 19.0878 19.255 18.9891Z" fill="#821B44"/>
<path d="M19.5417 16.8355C19.3048 15.8735 19.2079 14.8821 19.2546 13.8922C19.2904 13.1025 19.5417 12.6359 19.9724 12.4205C20.1806 12.3609 20.3995 12.3595 20.6113 12.4166C20.8195 12.4736 21.0062 12.5867 21.1569 12.7436C21.48 12.9948 21.48 13.4614 21.48 13.9999C21.4046 14.6445 21.4154 15.2967 21.5159 15.9381C21.5912 16.1894 21.5805 16.4575 21.4908 16.703C21.401 16.9486 21.2323 17.1589 21.0133 17.3021C20.5467 17.6252 19.757 17.8046 19.5417 16.8355Z" fill="#821B44"/>
<path d="M21.4448 16.8716C22.737 15.7589 23.0959 15.9025 23.6702 16.046C23.9251 16.073 24.1656 16.1821 24.3522 16.3569C24.5389 16.5317 24.6645 16.7629 24.7112 17.0152C24.9266 17.6613 25.0701 18.3433 25.2137 18.7381C25.447 19.3142 25.709 19.8774 26.0034 20.4252C26.2546 20.8918 26.7572 21.6097 26.7931 22.3275C26.829 23.0454 26.7571 23.7633 25.8598 23.9787C24.9624 24.194 24.4958 24.0505 23.9574 23.1172L23.096 21.5738L21.4448 16.8716Z" fill="#821B44"/>
<path d="M14.8397 18.4148C13.5116 18.8096 13.1168 19.2044 12.6502 19.8505C12.2697 20.4101 11.9574 21.0124 11.717 21.6452C11.6093 21.9683 10.7119 22.758 10.2812 23.2246C9.85045 23.6912 9.312 24.1219 9.3479 25.1988C9.38379 26.2756 10.3888 26.5628 10.9273 26.5269C11.4657 26.491 12.4348 26.2038 13.3322 25.0193C13.8778 24.384 14.2511 23.6169 14.409 22.7939C14.5885 22.1119 14.6603 20.7838 15.3423 20.1377C16.0243 19.4916 16.5626 18.9532 16.5267 18.4148C16.4908 17.8764 15.6294 18.1994 14.8397 18.4148Z" fill="#821B44"/>
<path d="M16.7421 26.8859C16.4549 27.173 16.5985 27.7473 17.0651 28.2498L17.2805 28.3575C17.9266 28.6806 18.465 28.7524 18.7522 28.6447C19.0393 28.537 18.6804 27.7473 18.2137 27.3166C17.7471 26.8858 17.0292 26.5987 16.7421 26.8859Z" fill="#292440"/>
<path d="M30.382 24.9836C30.382 24.4452 30.2384 24.0862 30.0589 24.0503C29.8795 24.0144 29.5564 24.6246 29.5205 25.3784V25.8809C29.5923 26.0245 29.7 26.0963 29.8076 26.0245C29.9153 25.9527 30.2384 25.5938 30.382 24.9836Z" fill="#292440"/>
<path d="M18.9316 29.1473C18.8598 29.3268 18.429 29.8652 17.5676 29.4703C17.223 29.3149 16.9179 29.0866 16.6702 28.8016C16.4226 28.5166 16.2395 28.1818 16.1318 27.8192C16.0959 27.7115 16.1318 27.7474 16.4549 28.0705C16.7313 28.4194 17.101 28.6825 17.5173 28.8286C17.9373 28.975 18.3932 28.9983 18.8239 28.896C18.9675 28.8602 18.9675 28.9319 18.9316 29.1473Z" fill="#4284C2"/>
<path d="M29.5928 26.8142C29.6287 26.4912 29.6287 26.4194 29.7005 26.4194C29.8513 26.3928 29.9913 26.325 30.1061 26.2234C30.2174 26.1222 30.3035 25.9912 30.3466 25.8451C30.4902 25.4143 30.5261 25.4502 30.562 25.6656C30.5584 26.0274 30.4722 26.3835 30.3107 26.7065C30.1779 26.9869 29.9805 27.2327 29.7364 27.4244C29.6287 27.4603 29.5569 27.2808 29.5928 26.8142Z" fill="#4284C2"/>
<path d="M16.943 27.3101C17.0399 27.2947 17.083 27.0442 17.0363 26.7505C16.9897 26.4566 16.8712 26.2312 16.7743 26.2466C16.6774 26.262 16.6343 26.5129 16.681 26.8065C16.7277 27.1002 16.8461 27.3259 16.943 27.3101Z" fill="#E3F0FF"/>
<path d="M16.5268 23.7992C17.1442 24.1053 17.6933 24.5325 18.142 25.0555C18.2856 25.2708 18.2856 25.0555 18.0703 24.5888C17.8549 24.1222 17.46 23.5838 17.0652 23.4761C16.6704 23.3684 16.1678 23.6197 16.5268 23.7992Z" fill="#71BAED"/>
<path d="M18.4291 31.0499C18.3573 31.4207 18.3824 31.8041 18.5009 32.1626C18.6085 32.4139 18.3932 32.4498 17.9624 32.0908C17.5317 31.7319 17.4241 31.5524 17.6394 31.1576C17.8548 30.7628 18.6086 30.2603 18.4291 31.0499Z" fill="#4683CC"/>
<path d="M29.9158 29.0394C29.9517 28.8137 29.9517 28.5836 29.9158 28.3575C29.9158 28.2139 30.1312 28.2498 30.3825 28.7164C30.6337 29.183 30.3465 29.4702 30.0953 29.7932C29.844 30.1163 29.844 29.7573 29.9158 29.0394Z" fill="#4683CC"/>
<path d="M19.2547 23.4041C19.5777 23.6913 19.6854 23.8349 19.9008 23.7272C20.1161 23.6195 20.4392 23.5477 20.1521 22.9375C19.8649 22.3273 19.5777 22.3991 19.3265 22.5786C19.2547 22.6188 19.1937 22.6755 19.1506 22.7444C19.1075 22.813 19.0788 22.8912 19.0716 22.9727C19.0645 23.0538 19.0788 23.1357 19.1111 23.2107C19.1434 23.2861 19.1901 23.3525 19.2547 23.4041Z" fill="#81D7EB"/>
<path d="M17.4962 20.2096C17.6865 20.2933 17.848 20.4304 17.9628 20.6045C18.0346 20.6763 18.1423 20.7122 18.6089 20.6045C19.0756 20.4968 19.2191 20.3532 19.0038 19.9943C18.7884 19.6353 18.6807 19.5635 18.2141 19.743C17.7475 19.9225 17.3168 20.0661 17.4962 20.2096Z" fill="#44BDD6"/>
<path d="M25.0697 26.6349C25.1415 26.9939 25.3568 26.9221 25.5722 26.8503C25.7876 26.7785 25.7158 26.3837 25.644 26.0606C25.5722 25.7376 25.3568 25.8094 25.2133 25.9171C25.0697 26.0247 24.9979 26.0965 25.0697 26.6349Z" fill="#81D7EB"/>
<path d="M18.1067 21.861C18.2503 22.0764 18.3221 22.0764 18.7528 21.9328C19.1836 21.7892 19.3271 21.6815 19.1835 21.4662C19.04 21.2508 19.1118 20.9277 18.3939 21.1072C17.676 21.2867 17.7119 21.3585 18.1067 21.861Z" fill="#5D9FCE"/>
<path d="M16.0675 31.8609C16.5664 31.736 16.8213 31.027 16.6346 30.2769C16.448 29.5267 15.8916 29.0195 15.3891 29.1444C14.8902 29.2689 14.6353 29.9782 14.8219 30.7284C15.0086 31.4786 15.5686 31.9854 16.0675 31.8609Z" fill="#5D94CE"/>
<path d="M31.6742 29.3266C31.9326 29.3266 32.1408 28.6999 32.1408 27.9267C32.1408 27.1536 31.9326 26.5269 31.6742 26.5269C31.4157 26.5269 31.2075 27.1536 31.2075 27.9267C31.2075 28.6999 31.4157 29.3266 31.6742 29.3266Z" fill="#5D94CE"/>
<path d="M22.4851 34.5313C24.0645 35.1415 26.0386 34.962 27.0437 34.3518C28.0487 33.7416 28.1205 33.9211 27.259 34.9261C26.3976 35.9312 25.1772 35.9312 24.1003 35.7517C23.2999 35.6756 22.5605 35.3045 22.0185 34.7108C21.5877 34.2801 21.6954 34.1724 22.4851 34.5313Z" fill="#5296C7"/>
<path d="M23.6698 22.5788C23.4544 21.0713 23.4544 20.497 23.1314 19.9945C22.8083 19.4919 22.8801 18.4151 22.8083 17.8408C22.7365 17.2665 22.3776 16.9793 21.8033 16.764C21.229 16.5486 21.4803 16.6204 21.8033 16.5845C22.0187 16.5644 22.234 16.6172 22.4171 16.7345C22.6002 16.8516 22.7365 17.0264 22.8083 17.2306C23.0345 17.6875 23.1457 18.1929 23.1314 18.7023C23.1314 19.2766 23.0596 19.456 23.2391 19.7432C23.4652 20.1298 23.6088 20.5566 23.6698 20.9995C23.7057 21.5379 23.7057 22.6865 23.7057 22.6865L23.6698 22.5788Z" fill="#5C113B"/>
<path d="M19.9008 17.697C19.7931 17.9842 20.0444 18.5226 20.3674 18.9174C20.6187 19.2031 20.7946 19.5495 20.87 19.9225C20.9417 20.2455 21.1571 20.1378 21.3007 20.1019C21.4442 20.066 21.6596 19.7789 21.4443 19.3123C21.2791 18.9849 21.0889 18.6726 20.87 18.379C20.7264 18.1277 20.7264 17.8047 20.5828 17.5534C20.4392 17.3022 20.0444 17.1586 19.9008 17.697Z" fill="#AD244D"/>
<path d="M14.9477 19.6353C14.1939 20.0302 14.1221 20.6763 13.9426 21.43C13.7632 22.1838 13.5837 23.4042 13.3683 23.7632C12.9699 24.4405 12.6576 25.1638 12.4351 25.9168L12.3633 26.2758C13.0094 26.204 13.0453 25.3784 13.4401 24.6605C13.7847 24.0083 13.957 23.2797 13.9426 22.5428C13.9929 21.7675 14.2011 21.0101 14.5528 20.3173C14.9477 19.5276 15.7015 19.2764 14.9477 19.6353Z" fill="#5C113B"/>
<path d="M18.6087 16.1537C17.4601 15.6512 16.0961 15.4717 15.1629 15.9025C14.2296 16.3332 14.0143 16.405 13.5118 16.4409C13.0092 16.4768 11.7888 16.1896 11.1786 17.2306C10.5684 18.2715 11.3581 18.7381 11.8965 18.8817C12.6647 19.1416 13.4974 19.1416 14.2655 18.8817C15.3065 18.5945 15.9884 18.451 16.814 18.5945C17.5068 18.666 18.1995 18.7019 18.8959 18.7022L19.6855 17.1588L18.6087 16.1537Z" fill="#821B44"/>
<path d="M17.4959 18.2357C17.8548 18.3434 18.6086 18.7024 17.9984 18.2357C17.3882 17.7691 16.5985 17.8768 16.1319 17.9486C15.5181 17.9974 14.9043 17.9611 14.3013 17.8409C13.7593 17.8251 13.2316 17.9891 12.7937 18.3075C12.4348 18.5229 11.681 18.81 11.2861 18.5588C11.462 18.7146 11.6702 18.8255 11.8964 18.8818C12.6645 19.1417 13.4972 19.1417 14.2654 18.8818L15.0191 18.6665H15.0909C15.0909 18.6665 17.1728 18.1639 17.4959 18.2357Z" fill="#5C113B"/>
<path d="M19.2554 18.9893C19.1836 18.5945 18.9324 18.2355 18.8965 18.7021V19.1688L19.2554 18.9893Z" fill="#5C113B"/>
<path d="M13.8709 18.7739L13.7274 18.8457H13.6915L13.5838 18.9175L13.4402 18.9893C13.1423 19.2283 12.8767 19.5058 12.6505 19.8148C12.27 20.3744 11.9578 20.9767 11.7173 21.6096C11.6096 21.9326 10.7122 22.7223 10.2815 23.1889L10.0661 23.4043C9.77896 23.7273 9.77896 24.158 10.2456 23.7273C10.5866 23.3838 10.9455 23.0601 11.3224 22.7582C11.7173 22.471 12.3993 22.2557 12.6146 21.8249C12.83 21.3942 13.0095 20.1738 13.3684 19.8148C13.7274 19.4559 13.7632 18.9534 14.876 18.6662C15.9887 18.3791 14.8042 18.3432 13.8709 18.7739Z" fill="#AD244D"/>
<path d="M15.3424 16.1535C15.9526 15.9381 16.2397 15.9022 16.491 15.974C16.7423 16.0458 17.1012 15.974 17.3166 16.1535C17.532 16.333 17.4602 16.5842 17.173 16.4407C16.893 16.2734 16.5592 16.2217 16.2398 16.2971C16.0244 16.3689 15.5936 16.5842 15.2706 16.4765C14.9475 16.3689 14.9476 16.2971 15.3424 16.1535Z" fill="#AD244D"/>
<path d="M18.6092 16.1538C19.0435 16.3548 19.4599 16.5827 19.8655 16.8358L19.2553 17.3383L18.5015 16.9435L18.6092 16.1538Z" fill="#821B44"/>
<path d="M19.9731 12.7436C19.8654 12.8161 19.7864 12.9231 19.7469 13.0469C19.7075 13.1707 19.711 13.3043 19.7577 13.4256C19.7936 13.5692 19.6859 13.7486 19.7218 13.8204C19.7577 13.8922 19.6859 14.0717 19.8295 14.0717C19.9731 14.0717 19.9731 13.8204 19.9731 13.6768C19.9982 13.5153 20.0484 13.3585 20.1166 13.2102C20.1884 13.1025 20.2961 12.5641 19.9731 12.7436Z" fill="#AD244D"/>
<path d="M19.7578 16.7277C19.7937 16.0457 19.7937 15.615 20.1886 15.5432C20.4829 15.4857 20.7557 15.349 20.9782 15.1483C21.1936 14.9689 21.2295 15.0765 21.1936 15.4714C21.1577 15.8662 21.3013 16.297 20.9065 16.1893C20.5116 16.0816 20.4398 16.0098 20.1886 16.297C19.9373 16.5841 19.7578 16.9789 19.7578 16.7277Z" fill="#5C113B"/>
</g>
<defs>
<clipPath id="clip0_85_1777">
<rect width="45" height="45" rx="22.5" fill="white"/>
</clipPath>
</defs>
</svg>
