<svg width="45" height="45" viewBox="0 0 45 45" fill="none" xmlns="http://www.w3.org/2000/svg">
<g clip-path="url(#clip0_85_1762)">
<rect width="45" height="45" rx="22.5" fill="#3442D9"/>
<path d="M40.0641 25.9376C40.0641 21.1379 39.6527 14.2812 27.7905 13.8012C15.9284 13.3212 14.8999 19.698 15.517 23.812C14.5495 24.2594 13.7315 24.9756 13.1604 25.8754C12.5885 26.775 12.2882 27.8201 12.2944 28.886C12.2944 31.8343 15.1742 33.6171 18.054 33.8914C19.4253 37.3197 21.1395 41.6394 24.9793 45.4106C29.3971 44.9169 33.5858 43.1886 37.067 40.4235C40.5474 37.6586 43.1784 33.9688 44.658 29.7773C43.4403 28.1633 41.8687 26.8497 40.0641 25.9376Z" fill="#FF78B9"/>
<path d="M32.3845 43.2851L27.242 35.1256C26.0078 33.0686 25.6649 32.5201 22.8537 32.5201H19.0139L16.2027 30.2573C15.2427 29.7088 14.2142 29.5717 12.4315 32.0401C10.6487 34.5085 10.3059 35.1942 12.7057 38.554C12.8045 38.6712 12.9258 38.7678 13.0623 38.8383C13.1981 38.9087 13.3468 38.9515 13.4997 38.9642C13.6527 38.9769 13.8069 38.9593 13.953 38.9125C14.099 38.8656 14.2341 38.7904 14.3514 38.6911C14.5283 38.5147 14.6434 38.2862 14.6805 38.0393C14.7175 37.7925 14.6743 37.5402 14.5571 37.3198L13.7343 36.017L15.517 33.6857L17.094 34.9885C15.8598 36.6341 15.517 37.594 16.8883 39.1711H12.8429C12.6934 39.1617 12.5432 39.1831 12.402 39.234C12.2607 39.285 12.1318 39.3643 12.0221 39.4671C11.9131 39.5699 11.826 39.694 11.7671 39.8319C11.7074 39.9696 11.6772 40.1181 11.6772 40.2681C11.667 40.4238 11.6903 40.5799 11.7451 40.7258C11.8007 40.8719 11.8857 41.0044 11.9961 41.1147C12.1065 41.2251 12.2388 41.3106 12.3849 41.3656C12.5309 41.4206 12.6872 41.4439 12.8429 41.4338C15.037 41.4338 16.4084 41.5709 17.2312 42.2566C18.054 42.9423 19.0139 43.6965 21.4138 43.3537L22.8537 45.5478C26.1552 45.4812 29.4053 44.7098 32.3845 43.2851Z" fill="#EB459F"/>
<path d="M22.2364 41.5708H23.402C23.6146 41.5658 23.8223 41.514 24.0123 41.4192C24.2015 41.3244 24.3681 41.1888 24.4991 41.0223L25.5276 39.5138C25.6935 39.2766 25.7703 38.9886 25.7456 38.7004C25.7203 38.4121 25.5948 38.1418 25.3905 37.9367L24.9791 37.5253C25.1299 37.2581 25.2677 36.9835 25.3905 36.7025C25.4385 36.5746 25.4371 36.4335 25.3863 36.3066C25.3356 36.1799 25.2396 36.0765 25.1162 36.0169C24.988 35.9825 24.8515 35.9907 24.7281 36.0401C24.6047 36.0896 24.5005 36.1776 24.4305 36.2911C24.3057 36.6568 24.098 36.9889 23.8251 37.2623C23.5515 37.5356 23.2196 37.7428 22.8535 37.8682C22.7513 37.9193 22.6677 38.001 22.6142 38.102C22.5607 38.2029 22.5401 38.3181 22.5552 38.4314C22.5703 38.5447 22.6204 38.6504 22.6985 38.7338C22.7767 38.8172 22.8789 38.8742 22.9906 38.8967H23.1278C23.5282 38.7591 23.8998 38.5499 24.2248 38.2796L24.6362 38.691C24.7048 38.7596 24.7734 38.8967 24.7048 38.9653L23.6763 40.4052L23.402 40.5423H22.2364C22.1678 40.5423 22.0992 40.5423 22.0992 40.4737L21.7564 40.1995C19.3566 38.0053 19.2194 37.7996 19.9737 36.3597C20.7279 34.9198 21.825 33.4799 22.5106 32.52C22.2076 32.4899 21.9018 32.5298 21.6165 32.6369C21.3306 32.7438 21.0742 32.915 20.865 33.1371C20.2301 34.0098 19.6569 34.9262 19.1509 35.8797C17.9166 37.8682 18.6023 38.691 20.5908 40.5423H19.0137C18.7971 40.5468 18.5817 40.5064 18.3808 40.4239C18.1806 40.3413 17.9989 40.2182 17.8481 40.0623L16.8196 39.1024C16.8381 39.1024 16.8552 39.1096 16.8683 39.1225C16.8813 39.1354 16.8881 39.1528 16.8881 39.171H15.6539C15.6539 39.3081 15.6539 39.4452 15.7911 39.5138L17.1624 40.8166C17.663 41.2919 18.3239 41.5613 19.0137 41.5708H22.2364Z" fill="black"/>
<path d="M29.6131 13.8142L22.0035 11.7468L21.202 14.6979L28.8109 16.7653L29.6131 13.8142Z" fill="black"/>
<path d="M26.0073 13.801C22.8532 13.801 20.042 12.7725 20.2477 9.96128C20.4534 7.15003 24.0874 5.71012 27.9957 8.52137C29.3801 9.52828 30.9743 10.2082 32.6583 10.5098C38.7608 11.5383 39.5836 16.1323 39.7893 18.6693C39.995 21.2063 37.3894 23.949 33.344 23.3319C29.2985 22.7148 27.5158 17.9836 26.0073 13.801Z" fill="black"/>
<path d="M17.0938 23.0578H23.4705" stroke="black" stroke-width="1.5" stroke-linecap="round" stroke-linejoin="round"/>
<path d="M16.957 20.3148H17.437" stroke="black" stroke-width="1.5" stroke-linecap="round" stroke-linejoin="round"/>
<path d="M22.3739 20.3148H22.8538" stroke="black" stroke-width="1.5" stroke-linecap="round" stroke-linejoin="round"/>
<path d="M18.8082 39.1021V39.8563H17.574C17.3635 39.6109 17.1338 39.3817 16.8883 39.1707C16.4447 38.6883 16.1375 38.0967 15.9969 37.4565H17.1626C17.3793 37.4565 17.5932 37.4991 17.7927 37.5818C17.9923 37.6644 18.174 37.7857 18.3262 37.9385C18.4791 38.0913 18.6004 38.2727 18.6834 38.4724C18.7657 38.672 18.8082 38.886 18.8082 39.1021Z" fill="#EB459F"/>
</g>
<defs>
<clipPath id="clip0_85_1762">
<rect width="45" height="45" rx="22.5" fill="white"/>
</clipPath>
</defs>
</svg>
