<svg width="45" height="45" viewBox="0 0 45 45" fill="none" xmlns="http://www.w3.org/2000/svg">
<g clip-path="url(#clip0_85_1687)">
<rect width="45" height="45" rx="22.5" fill="#19B375"/>
<path d="M12.303 17.254C12.8451 17.254 13.2848 16.8144 13.2848 16.2722C13.2848 15.73 12.8451 15.2904 12.303 15.2904C11.7607 15.2904 11.3213 15.73 11.3213 16.2722C11.3213 16.8144 11.7607 17.254 12.303 17.254Z" fill="#FFD736"/>
<path d="M24.4559 17.7847C23.3701 16.4211 21.9089 15.4057 20.2521 14.8639C18.5956 14.3221 16.8165 14.2778 15.135 14.7364C13.4536 15.195 11.9433 16.1364 10.7912 17.4442C9.63906 18.7521 8.89558 20.3689 8.65253 22.0948C8.40948 23.8207 8.67774 25.5799 9.42414 27.155C10.1703 28.7301 11.3619 30.0519 12.8515 30.9569C14.3409 31.862 16.0632 32.3105 17.8049 32.2473C19.5466 32.1839 21.2318 31.6114 22.6516 30.6006C23.632 29.8934 24.4593 28.9952 25.0837 27.9601C25.7083 26.925 26.1172 25.7744 26.2857 24.5773C26.4542 23.3802 26.3791 22.1614 26.0647 20.9941C25.75 19.8268 25.2028 18.7351 24.4559 17.7847Z" fill="#1D2CC2"/>
<path d="M28.9667 20.0666C33.2652 14.6802 33.7959 11.5226 29.3647 10.4878C26.5805 9.8558 23.692 9.83771 20.9003 10.4347C19.7872 10.7005 18.7402 11.1906 17.8232 11.8749C16.9062 12.5593 16.1383 13.4236 15.567 14.4148C12.2237 20.1993 11.7992 22.1893 11.7992 22.1893L28.9667 20.0666Z" fill="#FF78B9"/>
<path d="M25.5433 17.0682C27.9845 17.0682 27.9314 17.8907 27.7987 18.8725C27.6661 19.8542 25.5433 17.0682 25.5433 17.0682Z" fill="black"/>
<path d="M29.3647 10.4878C26.5805 9.8558 23.692 9.83771 20.9003 10.4347C19.7872 10.7005 18.7402 11.1906 17.8232 11.8749C16.9062 12.5593 16.1383 13.4236 15.567 14.4148C12.2237 20.1993 11.7992 22.1893 11.7992 22.1893L28.9667 20.0666C33.2652 14.6802 33.7959 11.5226 29.3647 10.4878ZM28.4095 19.6686L12.7279 21.6321C12.7279 21.6321 13.2586 19.8543 16.6549 14.6802C17.7916 12.9622 19.5519 11.7538 21.5637 11.3104C24.0404 10.7789 26.6036 10.797 29.0728 11.3634C33.0264 12.2125 32.0446 14.4414 28.4095 19.6686Z" fill="#EB459F"/>
<path d="M29.4709 36.6769C35.441 36.0401 40.111 36.8096 38.2005 48.6703C37.6964 51.7748 37.2719 54.5608 36.8738 56.9754C40.6151 60.2922 40.1641 66.05 37.2719 69.1545C34.3796 72.259 30.771 69.8709 28.7544 65.8908C26.7379 61.9107 25.0662 57.7449 25.0662 57.7449L29.4709 36.6769Z" fill="#459FF7"/>
<path d="M7.8719 35.6155C9.2782 32.6437 9.33128 29.8842 9.27821 27.4165C9.24 25.9271 9.50216 24.4451 10.0493 23.0593C10.5962 21.6734 11.4168 20.4119 12.4623 19.3502C15.1422 16.7233 18.0875 16.3253 20.794 16.1661C25.6497 15.8477 35.5734 19.987 32.177 36.5707C30.0808 46.8128 27.0294 58.7531 27.0294 58.7531C27.0294 58.7531 37.245 77.4596 17.0527 77.4596C1.90176 77.4596 -1.83953 75.6022 -3.77651 70.2954C-5.12099 66.5411 -5.13956 62.44 -3.82957 58.6735C1.07921 44.2656 4.52862 42.7001 7.8719 35.6155Z" fill="#459FF7"/>
<path d="M20.7943 16.1662C18.3531 16.3254 15.6997 16.6438 13.2586 18.6604H13.2851C25.1458 21.1811 25.2254 23.9937 29.8689 20.4116C27.1889 17.0418 23.315 16.007 20.7943 16.1662Z" fill="#2A88E6"/>
<path d="M1.50372 48.2722L5.8553 43.6818C5.89829 43.6311 5.95719 43.5969 6.0222 43.5842C6.08747 43.5717 6.15486 43.5815 6.2135 43.6126C6.27241 43.6433 6.31885 43.6935 6.34538 43.7543C6.37165 43.815 6.37669 43.8832 6.35945 43.9472C5.03275 51.2705 4.84701 54.4015 4.84701 54.4015L1.50372 48.2722Z" fill="black"/>
<path d="M20.2101 19.7482C20.3412 19.3188 20.3951 18.8696 20.3693 18.4215" stroke="black" stroke-linecap="round" stroke-linejoin="round"/>
<path d="M20.5817 19.8809C20.8422 19.5091 21.0396 19.0967 21.1654 18.6604" stroke="black" stroke-linecap="round" stroke-linejoin="round"/>
<path d="M20.6348 19.8543C21.0689 19.7482 21.4817 19.5687 21.8553 19.3236" stroke="black" stroke-linecap="round" stroke-linejoin="round"/>
<path d="M26.7908 20.3318C26.8866 19.9776 26.9137 19.6083 26.8704 19.2439" stroke="black" stroke-linecap="round" stroke-linejoin="round"/>
<path d="M27.1888 20.4116C27.3794 20.0983 27.5224 19.7585 27.6134 19.4033" stroke="black" stroke-linecap="round" stroke-linejoin="round"/>
<path d="M27.2152 20.4115C27.5671 20.2964 27.8985 20.1263 28.197 19.9074" stroke="black" stroke-linecap="round" stroke-linejoin="round"/>
<path d="M22.8904 80.962C22.4091 80.8195 21.9866 80.5258 21.6857 80.1243C21.3846 79.7229 21.2209 79.2349 21.2188 78.7331C21.2188 74.3285 21.2453 62.1229 22.0944 54.1892C23.5007 43.496 29.5769 44.0798 32.0446 44.7166C36.1308 45.7779 37.033 49.4662 35.8124 55.967C34.5919 62.4678 34.0612 69.4728 34.5653 77.7779C34.6091 78.4513 34.4268 79.12 34.0469 79.6777C33.6672 80.2355 33.1118 80.6502 32.4692 80.8559C29.1524 81.9437 26.2602 81.9703 22.8904 80.962Z" fill="#3442D9"/>
<path d="M23.4211 80.3253C23.7377 80.1066 23.9889 79.8057 24.1479 79.4552C24.3068 79.1047 24.3673 78.7176 24.3233 78.3352C23.4476 69.6851 23.2619 58.7001 23.1823 51.8543C23.1027 45.0085 19.8656 44.7167 17.3183 44.7167C14.771 44.7167 12.5156 44.6636 10.2337 48.0069C7.9518 51.3502 3.14916 56.71 -2.52911 72.8162L11.3482 70.9588C11.3482 74.4347 11.0828 77.1412 11.2951 80.6171C11.3184 80.9501 11.4429 81.268 11.6514 81.5288C11.86 81.7894 12.1429 81.9805 12.4626 82.0765C16.5488 83.4032 20.8208 82.1561 23.4211 80.3253Z" fill="#3442D9"/>
<path d="M21.8615 25.2884C22.8364 25.0198 23.2606 23.4736 22.8093 21.8347C22.3579 20.1959 21.2016 19.085 20.2267 19.3535C19.2519 19.622 18.8276 21.1682 19.2789 22.8071C19.7306 24.446 20.8866 25.5569 21.8615 25.2884Z" fill="white"/>
<path d="M15.8586 23.0915C18.3793 22.322 21.2981 23.1446 23.633 25.1081L21.8553 26.249L15.8586 23.0915Z" fill="#459FF7"/>
<path d="M21.8856 23.3244C22.3234 23.2037 22.5144 22.5104 22.3122 21.7757C22.1098 21.0411 21.5908 20.5433 21.1527 20.6639C20.7146 20.7846 20.5238 21.4779 20.726 22.2126C20.9285 22.9473 21.4475 23.445 21.8856 23.3244Z" fill="black"/>
<path d="M28.9288 25.1884C29.6649 24.8956 29.7604 23.3988 29.1422 21.8451C28.5242 20.2915 27.4265 19.2694 26.6904 19.5622C25.9546 19.8549 25.8591 21.3518 26.4771 22.9054C27.0953 24.4591 28.1931 25.4812 28.9288 25.1884Z" fill="white"/>
<path d="M25.7027 29.5391C25.7868 29.5937 25.8858 29.6204 25.9858 29.6157C26.0856 29.6109 26.1816 29.5748 26.2599 29.5126C29.4175 27.2041 31.0626 27.0449 31.0626 29.7249C31.0626 32.4048 28.9664 36.5176 25.4374 36.5176C21.9083 36.5176 18.5916 34.554 17.4241 31.1046C16.2566 27.6552 18.4855 26.355 20.7143 26.9388C22.9432 27.5225 24.9332 28.9819 25.7027 29.5391Z" fill="black"/>
<path d="M22.386 31.6619C23.3147 30.9455 24.8537 31.1578 25.8354 31.8742C26.8172 32.5906 28.1173 33.9703 26.9764 35.2174C25.8354 36.4645 23.2882 35.8277 21.9084 34.6867C20.5286 33.5458 19.4142 32.6171 19.5734 31.768C19.7326 30.919 20.5552 30.7597 22.386 31.6619Z" fill="#FF78B9"/>
<path d="M28.2635 23.2999C28.5633 23.1813 28.6007 22.5659 28.3473 21.9255C28.0937 21.2851 27.6452 20.8622 27.3454 20.9809C27.0456 21.0996 27.0081 21.7149 27.2618 22.3553C27.5152 22.9957 27.9639 23.4186 28.2635 23.2999Z" fill="black"/>
<path d="M14.1339 25.002C12.7541 25.9041 11.0029 27.788 11.0294 31.4497" stroke="#2A88E6" stroke-width="2" stroke-linecap="round" stroke-linejoin="round"/>
<path d="M27.0294 17.0681C27.0294 15.1046 23.7923 15.6088 22.1206 15.7149C19.706 15.8476 16.0443 16.0333 13.3113 18.6071V18.6602C15.2749 16.8293 22.6513 17.0681 27.0294 17.0681Z" fill="#FF78B9"/>
<path d="M13.2848 18.6603C13.6839 18.3278 14.1434 18.0756 14.638 17.9174L14.9564 17.3867C14.9564 16.8825 14.6911 16.7764 14.4788 16.9356C14.2665 17.0948 13.7624 17.8908 13.3113 18.6072L13.2848 18.6603Z" fill="#EB459F"/>
<path d="M32.2036 36.5177C31.9019 38.0906 31.467 39.6351 30.9034 41.1346C30.8856 41.1709 30.8803 41.2118 30.888 41.2513C30.8957 41.2909 30.9161 41.3269 30.9461 41.3537C30.9761 41.3808 31.014 41.3973 31.0541 41.4007C31.0942 41.4044 31.1345 41.3946 31.1687 41.3734C32.4689 40.8692 34.0344 38.2424 34.7774 36.8626C33.9413 36.6203 33.0739 36.5041 32.2036 36.5177Z" fill="black"/>
<path d="M11.2417 38.0035C6.57168 34.7133 2.48545 29.6718 -2.52947 35.2705C-7.54439 40.8692 -10.5162 45.5922 -12.4001 48.9886C-14.284 52.3849 -11.4714 54.6138 -7.57093 57.4264C-4.57259 59.5756 1.39756 64.8559 5.40419 61.6453C6.65128 60.637 8.19026 57.8244 8.77401 55.0383C9.35775 52.2523 7.31463 50.3683 1.50369 48.2722L11.2417 38.0035Z" fill="#459FF7"/>
<path d="M8.2168 35.6154L12.4357 38.8526" stroke="black" stroke-linecap="round" stroke-linejoin="round"/>
<path d="M22.3859 31.3701C23.7652 31.9847 24.9892 32.9004 25.968 34.0501" stroke="black" stroke-linecap="round" stroke-linejoin="round"/>
</g>
<defs>
<clipPath id="clip0_85_1687">
<rect width="45" height="45" rx="22.5" fill="white"/>
</clipPath>
</defs>
</svg>
