<svg width="45" height="45" viewBox="0 0 45 45" fill="none" xmlns="http://www.w3.org/2000/svg">
<g clip-path="url(#clip0_85_2978)">
<rect width="45" height="45" rx="22.5" fill="#0C1AAD"/>
<path d="M16.7648 8.74956C18.359 8.42323 19.5653 8.2282 21.363 8.40227C21.9713 8.45698 22.546 8.70587 23.0021 9.1122C23.4582 9.51853 23.7715 10.0608 23.8959 10.6588L25.2098 16.7777L24.5979 16.9091L24.1683 16.4733L23.1335 11.6546C23.0169 11.0986 22.7168 10.5979 22.2815 10.2329C21.8462 9.86786 21.3008 9.65967 20.733 9.64172C19.6812 9.61704 18.6291 9.67706 17.587 9.8212L16.5692 8.80756L16.7648 8.74956Z" fill="#BDE9FF"/>
<path d="M26.7319 21.7798C26.5772 21.813 26.4175 21.8154 26.2619 21.7869C26.1063 21.7584 25.9578 21.6995 25.825 21.6136C25.6921 21.5278 25.5774 21.4165 25.4876 21.2863C25.3977 21.1561 25.3343 21.0095 25.3011 20.8548L23.9773 14.6901C23.9102 14.3777 23.97 14.0514 24.1434 13.7831C24.3169 13.5148 24.5899 13.3263 24.9023 13.2592C25.2958 13.1747 25.7068 13.25 26.0448 13.4685C26.3828 13.687 26.6202 14.0309 26.7047 14.4244L27.8971 19.9773C27.939 20.1722 27.942 20.3734 27.9061 20.5694C27.8702 20.7655 27.796 20.9525 27.6878 21.1199C27.5796 21.2872 27.4395 21.4317 27.2755 21.5449C27.1115 21.6581 26.9268 21.7379 26.7319 21.7798V21.7798Z" fill="black"/>
<path d="M-9.64365 24.6779C-10.025 28.6334 -9.06027 32.6017 -6.9057 35.9406C-4.75113 39.2796 -1.53278 41.7937 2.22838 43.076C3.23641 41.1012 3.70801 38.8962 3.596 36.6819C3.48398 34.4675 2.79226 32.3214 1.59009 30.4584C0.387925 28.5954 -1.28252 27.0809 -3.25403 26.0664C-5.22553 25.0519 -7.42893 24.5731 -9.64365 24.6779V24.6779Z" fill="#039C78"/>
<path d="M-8.38886 33.13C-6.87044 36.785 -4.1665 39.8229 -0.712134 41.7549C2.74223 43.6868 6.74611 44.4004 10.6552 43.7808C14.5643 43.1612 18.1513 41.2445 20.8389 38.339C23.5266 35.4336 25.1586 31.7085 25.4724 27.763L5.73772 24.0955C1.39499 23.8438 -5.82221 24.9616 -8.38886 33.13V33.13Z" fill="url(#paint0_linear_85_2978)"/>
<path d="M-6.68455 29.5155C-5.00827 26.9632 0.700203 24.1851 6.37927 26.7102L7.8458 24.299C6.9833 21.0276 6.20633 20.9864 5.42337 22.2587C4.64041 23.531 4.22258 22.6286 2.84393 21.0523C1.46528 19.4761 0.138648 19.4089 -0.369702 21.4384C-0.878052 23.4679 -0.666048 23.4864 -1.47145 23.3873C-2.27686 23.2882 -3.81344 22.914 -5.01217 22.9954C-6.21089 23.0768 -6.40682 24.8471 -6.03038 26.0785C-5.65394 27.3099 -5.98504 27.333 -6.63419 27.2163C-7.28333 27.0997 -7.27206 27.8974 -6.68455 29.5155V29.5155Z" fill="#FA80BA"/>
<path d="M-5.3299 23.7518C-4.04847 25.3969 -3.69841 26.2819 -3.69841 26.2819M1.77696 25.2501C1.69033 23.6806 1.39493 22.1295 0.898582 20.638L1.77696 25.2501Z" stroke="#FF5CB4" stroke-miterlimit="10" stroke-linecap="round"/>
<path d="M42.6795 18.9153C42.8383 17.1209 42.9847 17.0575 39.557 17.9375C36.4015 18.7432 32.4046 19.7295 28.7771 20.7965C28.114 18.6025 27.2045 17.8697 26.1441 16.8812C25.6584 13.1288 24.2166 9.69382 20.3733 9.60697C16.5301 9.52011 11.106 10.4928 7.81227 12.5923C4.51851 14.6919 6.62855 19.5996 7.75665 22.99C7.75665 22.99 4.81022 24.6949 4.29044 28.087C3.8644 30.9469 5.0153 33.9963 8.42999 36.1115C13.9127 39.5109 18.5884 39.003 22.8091 37.5685C26.0858 36.4328 27.232 33.4983 27.1708 30.903C33.8315 31.8891 37.002 27.5757 38.0054 25.6159C39.1977 23.3436 41.3423 22.2269 42.5909 21.3347C43.8396 20.4425 44.3059 19.7823 42.6795 18.9153V18.9153Z" fill="#2AD17D"/>
<path d="M8.53408 6.34029C7.21739 6.54302 6.0246 7.6953 7.47129 9.96106C6.03439 10.1256 4.79457 11.208 6.28491 13.3043L12.2826 9.71202C11.1056 6.98828 9.85405 6.15286 8.53408 6.34029V6.34029Z" fill="#FA80BA"/>
<path d="M10.8155 18.3804C10.4763 16.8005 8.92053 15.7948 7.34068 16.1341C5.76082 16.4733 4.75512 18.0291 5.09437 19.6089L6.06309 24.1201C6.40234 25.6999 7.95808 26.7056 9.53793 26.3664C11.1178 26.0271 12.1235 24.4714 11.7842 22.8916L10.8155 18.3804Z" fill="black"/>
<path d="M17.6335 8.77116L17.8306 9.68899C15.0627 9.9153 11.7214 10.6008 9.1277 11.8619C8.62093 12.1156 8.21242 12.53 7.96594 13.0403C7.71945 13.5506 7.64885 14.1282 7.76516 14.6829L8.90829 20.0063L5.5735 20.7224L4.38438 15.1848C4.21323 14.3901 4.32884 13.5606 4.71074 12.843C5.09265 12.1254 5.7162 11.5661 6.47095 11.2642C11.24 9.32795 14.7541 8.92539 17.6335 8.77116V8.77116Z" fill="white"/>
<path d="M12.3831 9.43442C10.7922 9.77605 9.61542 10.1088 8.04441 10.9902C7.51559 11.2935 7.0967 11.7569 6.84813 12.3136C6.59955 12.8702 6.5341 13.4914 6.66122 14.0877L7.97517 20.2066L8.58706 20.0752L8.80318 19.5167L7.76516 14.6828C7.64885 14.1281 7.71945 13.5505 7.96594 13.0402C8.21243 12.5298 8.62094 12.1155 9.1277 11.8618C10.0782 11.4126 11.0632 11.0405 12.0733 10.7491L12.5819 9.39172L12.3831 9.43442Z" fill="#BDE9FF"/>
<path d="M30.0887 21.315C26.3956 22.3001 22.3179 23.4318 20.8319 23.8149C19.3459 24.198 18.4685 24.4344 18.3628 25.2092C18.2572 25.984 20.33 25.6509 22.9514 25.2641C25.5727 24.8772 31.3944 23.5951 34.7302 22.7347C37.1992 22.1162 39.6355 21.3741 42.03 20.5111C43.5563 19.9433 41.8338 19.225 41.8338 19.225C41.8338 19.225 42.2268 18.1484 41.3471 18.2253C40.4675 18.3022 30.0887 21.315 30.0887 21.315V21.315Z" fill="#039C78"/>
<path d="M26.4934 23.5752C26.1668 21.309 26.9972 21.0026 27.4924 21.5204C27.8078 21.8367 28.0699 22.2019 28.2687 22.6019C28.3436 22.5382 28.4331 22.494 28.5292 22.4734C28.6253 22.4528 28.725 22.4563 28.8194 22.4836C28.9334 22.5186 29.0366 22.582 29.1194 22.6677C29.2022 22.7535 29.2619 22.8589 29.2928 22.9741L26.4934 23.5752ZM21.3567 24.4702C21.5604 22.8102 22.7242 22.8643 23.5646 23.0519C23.7954 23.0931 24.0097 23.1991 24.1826 23.3575C24.3555 23.5159 24.4797 23.7201 24.5408 23.9465L21.3567 24.4702ZM19.6456 24.7736C19.717 23.094 20.1683 23.1091 20.4374 23.6915C20.7065 24.2738 20.8213 24.5852 20.8213 24.5852L19.6456 24.7736Z" fill="white"/>
<path d="M38.2021 20.6448C38.7433 18.7683 39.1157 18.1922 39.7058 18.2575C40.2959 18.3228 40.5752 19.8471 40.5752 19.8471L38.2021 20.6448ZM35.146 21.5411C35.3416 18.8746 36.3131 19.0021 36.7077 19.3494C37.1024 19.6967 37.6612 20.8089 37.6612 20.8089L35.146 21.5411Z" fill="white"/>
<path d="M17.8281 19.0669C18.7951 18.8753 19.1261 18.6282 19.1477 18.2074C19.1694 17.7867 18.3463 17.0833 17.011 17.2741C15.6757 17.4648 14.9199 18.2672 14.8918 19.1053C14.8638 19.9435 15.256 19.6833 16.1486 19.4436C16.6994 19.2806 17.2605 19.1548 17.8281 19.0669V19.0669ZM23.228 17.9074C22.4358 18.0935 22.109 17.9876 21.9318 17.6096C21.7546 17.2316 22.0941 16.2785 23.1452 15.9568C24.1963 15.6351 25.0619 16.0893 25.3857 16.8519C25.7095 17.6145 25.3215 17.5218 24.5927 17.6303C24.1309 17.6847 23.6744 17.7774 23.228 17.9074V17.9074Z" fill="white"/>
<path d="M5.49002 17.4276L6.17839 17.2798C6.72204 17.163 7.28979 17.267 7.75676 17.5689C8.22372 17.8708 8.55165 18.3458 8.66839 18.8894L9.61772 23.3103C9.73446 23.854 9.63046 24.4217 9.32859 24.8887C9.02672 25.3557 8.55172 25.6836 8.00807 25.8003L7.31969 25.9481C6.9802 26.0211 6.62966 26.0264 6.28811 25.9638C5.94656 25.9012 5.62067 25.772 5.32906 25.5835C5.03745 25.395 4.78582 25.1509 4.58855 24.8651C4.39128 24.5794 4.25222 24.2576 4.17932 23.9181L3.45993 20.568C3.38703 20.2285 3.38171 19.8779 3.44428 19.5364C3.50684 19.1948 3.63607 18.8689 3.82458 18.5773C4.01309 18.2857 4.25719 18.0341 4.54295 17.8368C4.82871 17.6396 5.15052 17.5005 5.49002 17.4276V17.4276Z" fill="#BDE9FF"/>
<path d="M5.32175 17.4637L7.29509 17.04L8.70101 23.5872C8.8134 24.1106 8.71328 24.6571 8.42267 25.1067C8.13207 25.5562 7.67479 25.8719 7.15142 25.9843C6.51041 26.1219 5.84096 25.9993 5.29036 25.6434C4.73976 25.2874 4.3531 24.7274 4.21545 24.0863L3.4238 20.3997C3.28615 19.7587 3.40878 19.0892 3.76471 18.5386C4.12065 17.988 4.68073 17.6014 5.32175 17.4637Z" fill="white"/>
<path d="M19.6482 13.2352C18.5315 13.475 18.0834 13.2512 17.0613 12.3665C16.0392 11.4818 14.7273 10.0672 12.1005 10.7273C9.88683 8.69023 9.99153 5.67526 11.3873 3.9033C12.7831 2.13133 16.1944 1.3988 17.8912 3.33881C18.7986 4.36015 19.3313 5.57397 19.3738 7.93322C20.7231 7.21142 21.484 8.07219 21.5327 9.34195C21.5813 10.6117 21.025 12.9395 19.6482 13.2352V13.2352Z" fill="#FA80BA"/>
<path d="M5.58093 20.1606L5.56563 20.1639C5.25304 20.231 5.05405 20.5389 5.12117 20.8515L5.58204 22.9977C5.64917 23.3102 5.95699 23.5092 6.26958 23.4421L6.28488 23.4388C6.59747 23.3717 6.79646 23.0639 6.72933 22.7513L6.26847 20.6051C6.20134 20.2925 5.89352 20.0935 5.58093 20.1606Z" fill="#FF78B9"/>
<path d="M23.5432 16.5434C23.8068 16.4405 24.0972 16.4289 24.3682 16.5102M16.8616 17.9941C17.2345 17.8708 17.6296 17.8297 18.0199 17.8734" stroke="black" stroke-miterlimit="10" stroke-linecap="round"/>
<path d="M18.422 15.2749C16.6836 15.6002 15.7537 15.8158 14.2514 16.3465M24.6667 14.1739C23.5739 14.1526 22.9249 14.2599 21.7623 14.5096" stroke="black" stroke-miterlimit="10" stroke-linecap="round"/>
<path d="M41.4789 19.5092C38.2197 20.8011 29.9136 23.2569 19.3178 24.8121" stroke="black" stroke-miterlimit="10" stroke-linecap="round"/>
<path d="M26.7687 30.8933C26.0995 32.3972 25.0281 33.8915 22.6584 34.9284C19.1142 36.4576 16.4377 33.3838 15.5416 30.5517C15.1684 29.3356 14.84 28.0299 15.6863 29.2884C17.3156 31.659 19.8147 31.5224 21.6099 31.0889C23.4051 30.6554 24.2553 30.6649 26.7687 30.8933V30.8933Z" fill="#039C78"/>
<path d="M7.66997 37.2668C8.89291 37.5963 10.2642 37.3499 10.2642 37.3499M4.70498 26.3657C4.26164 27.4037 4.06536 28.5305 4.13161 29.6573" stroke="black" stroke-miterlimit="10" stroke-linecap="round"/>
<path d="M19.2501 29.1556C19.508 28.736 19.1144 28.0253 18.3709 27.5683C17.6274 27.1112 16.8156 27.0809 16.5577 27.5005C16.2997 27.9201 16.6934 28.6307 17.4368 29.0878C18.1803 29.5448 18.9922 29.5752 19.2501 29.1556Z" fill="#03AB83"/>
<path d="M16.9858 12.0146C17.0978 8.21396 16.2733 4.37436 13.5367 3.55379M19.1838 13.1589C19.9777 11.7882 20.1277 10.0277 20.0529 8.8596L19.1838 13.1589Z" stroke="#EB459F" stroke-miterlimit="10" stroke-linecap="round"/>
<path d="M6.84275 31.6417C7.18084 31.5098 7.28173 30.959 7.0681 30.4117C6.85447 29.8643 6.40722 29.5275 6.06913 29.6595C5.73104 29.7914 5.63015 30.3421 5.84378 30.8895C6.05741 31.4369 6.50466 31.7737 6.84275 31.6417Z" fill="#57F287"/>
<path d="M17.5739 25.1865L18.1307 23.9787" stroke="black" stroke-miterlimit="10" stroke-linecap="round"/>
<path d="M13.3627 38.5887L13.2207 38.5232L13.3266 38.4204C13.4446 38.2991 13.5593 38.1624 13.5144 38.028C13.4695 37.8936 13.3121 37.8314 13.1613 37.7998L13.0072 37.7529C13.0328 37.7067 13.0678 37.6665 13.1099 37.6348C13.2093 37.5015 13.3087 37.3681 13.2638 37.2337C13.2189 37.0993 13.0495 37.0557 12.8834 37.0273L12.7479 36.9924L12.8167 36.8656C12.9161 36.7323 13.0155 36.5989 12.952 36.4525C12.8886 36.3061 12.7258 36.2931 12.5749 36.2615C12.5252 36.2659 12.475 36.2603 12.4274 36.2451L12.4962 36.1183C12.5956 35.985 12.6764 35.8396 12.6162 35.7085C12.5561 35.5774 12.39 35.5491 12.2271 35.536C12.1805 35.5312 12.1348 35.5194 12.0916 35.5011L12.1604 35.3743C12.2445 35.2442 12.3406 35.0956 12.2804 34.9645C12.2203 34.8334 12.0421 34.8236 11.8913 34.792L11.7438 34.7757L11.8126 34.6489C11.912 34.5155 11.9928 34.3701 11.9326 34.239C11.8725 34.1079 11.7064 34.0796 11.5435 34.0665L11.408 34.0316C11.432 33.9945 11.4528 33.942 11.4801 33.9201C11.5332 33.8665 11.5731 33.8013 11.5966 33.7296C11.6201 33.6579 11.6265 33.5817 11.6154 33.507C11.5552 33.3759 11.3891 33.3476 11.2383 33.3159L11.1028 33.281L11.1902 33.1663C11.2776 33.0515 11.3922 32.9148 11.3474 32.7804C11.3025 32.6461 11.1331 32.6024 10.979 32.5555L10.8555 32.502L10.9462 32.4025C11.0521 32.2998 11.1701 32.1784 11.1405 32.0407C11.111 31.9031 10.9689 31.8376 10.8268 31.7721L10.7 31.7033L10.8125 31.6311L10.9611 31.5032C10.9924 31.48 11.0157 31.4477 11.0278 31.4107C11.04 31.3737 11.0403 31.3338 11.0287 31.2966C11.0186 31.2582 10.9982 31.2232 10.9697 31.1955C10.9411 31.1678 10.9056 31.1484 10.8669 31.1393C10.6145 31.0815 10.5619 30.8368 10.4009 29.8632L10.391 29.8173C10.2223 28.7334 9.37638 25.9865 8.87231 25.2786C8.86189 25.2627 8.84835 25.2491 8.83253 25.2386C8.8167 25.2281 8.79891 25.2209 8.78023 25.2174C8.76154 25.2139 8.74235 25.2143 8.7238 25.2184C8.70526 25.2226 8.68774 25.2305 8.67232 25.2416C8.64332 25.265 8.62365 25.298 8.61686 25.3347C8.61006 25.3714 8.61658 25.4093 8.63525 25.4415C9.07043 26.0522 9.93049 28.716 10.1124 29.8611L10.1222 29.907C10.2734 30.8347 10.3403 31.2204 10.6616 31.3754L10.6463 31.3787C10.5065 31.4728 10.3666 31.5668 10.3842 31.7231C10.4017 31.8793 10.5438 31.9448 10.7012 32.007L10.8433 32.0726L10.7406 32.1906C10.6227 32.312 10.5047 32.4333 10.5343 32.571C10.5638 32.7087 10.7365 32.7676 10.9059 32.8112L11.0447 32.8614L10.9573 32.9762C10.858 33.1096 10.7433 33.2462 10.8034 33.3773C10.8636 33.5084 11.0177 33.5554 11.1838 33.5837C11.2305 33.5885 11.2761 33.6003 11.3193 33.6186C11.3051 33.6613 11.2803 33.6996 11.2472 33.7301C11.1511 33.8788 11.0518 34.0121 11.1119 34.1432C11.1721 34.2743 11.3382 34.3027 11.5043 34.331L11.6518 34.3473C11.6286 34.3936 11.6004 34.4372 11.5677 34.4774C11.4869 34.6228 11.3876 34.7561 11.463 34.884C11.5385 35.0118 11.6893 35.0434 11.8368 35.0597L11.9876 35.0914L11.9188 35.2181C11.8348 35.3482 11.7387 35.4969 11.7988 35.628C11.859 35.7591 12.0218 35.7721 12.1879 35.8005L12.3354 35.8168L12.2514 35.9469C12.1673 36.0769 12.0865 36.2223 12.1466 36.3534C12.2068 36.4845 12.3576 36.5162 12.5237 36.5445L12.6559 36.5641L12.5872 36.6909C12.4878 36.8243 12.4037 36.9543 12.4485 37.0887C12.4934 37.2231 12.6595 37.2515 12.8256 37.2798L12.9611 37.3147L12.8738 37.4295C12.7744 37.5628 12.675 37.6962 12.7199 37.8306C12.7647 37.965 12.9188 38.0119 13.0729 38.0588L13.2084 38.0937L13.1178 38.1932C12.9998 38.3146 12.8819 38.4359 12.9267 38.5703C12.9716 38.7047 13.0984 38.7735 13.2558 38.8357L13.3793 38.8892L13.2733 38.992C13.1488 39.0827 13.0275 39.1888 13.0418 39.3297C13.0561 39.4707 13.2014 39.5515 13.3468 39.6323L13.4583 39.7044L13.3458 39.7765C13.2212 39.8673 13.0781 39.946 13.0618 40.0935C13.0455 40.2411 13.1941 40.3372 13.3089 40.4245L13.4237 40.5119L13.3079 40.5688C13.1615 40.6322 12.9998 40.699 12.9801 40.8312C12.975 40.9053 12.9902 40.9794 13.0241 41.0454C13.058 41.1115 13.1094 41.167 13.1726 41.2059L13.2601 41.3152L13.1377 41.3414C12.9727 41.3929 12.8198 41.4257 12.7696 41.5645C12.7194 41.7033 12.8101 41.8279 12.9009 41.9524L12.9763 42.0802L12.8386 42.1098C12.6824 42.1273 12.5261 42.1449 12.454 42.2564C12.382 42.3679 12.4487 42.5296 12.5274 42.6727C12.542 42.7187 12.5622 42.7628 12.5876 42.8038L12.4434 42.8028C12.2838 42.805 12.121 42.792 12.0336 42.9068C11.9462 43.0215 12.0097 43.1679 12.0578 43.3176C12.106 43.4673 12.0961 43.4214 12.106 43.4673L11.9738 43.4477C11.8076 43.4194 11.6415 43.391 11.5389 43.5091C11.5113 43.5453 11.493 43.5877 11.4854 43.6326L12.3879 43.4388C12.3761 43.3716 12.3567 43.306 12.3299 43.2432C12.3201 43.1973 12.2916 43.1394 12.285 43.1088L12.4446 43.1065C12.6041 43.1043 12.7669 43.1173 12.851 42.9873C12.9351 42.8572 12.8564 42.7141 12.7744 42.5557C12.7598 42.5096 12.7396 42.4656 12.7142 42.4246L12.8672 42.3917C13.0387 42.3709 13.1983 42.3686 13.2638 42.2265C13.3293 42.0844 13.2352 41.9446 13.1412 41.8048L13.0504 41.6802L13.2034 41.6474C13.3684 41.596 13.5214 41.5631 13.5716 41.4243C13.6218 41.2855 13.4972 41.1522 13.3758 41.0343L13.2851 40.9097L13.4162 40.8496C13.5626 40.7861 13.7243 40.7194 13.7406 40.5719C13.7569 40.4244 13.6203 40.3097 13.4869 40.2103L13.3721 40.1229L13.4967 40.0322C13.6398 39.9534 13.7796 39.8594 13.7807 39.7151C13.7817 39.5709 13.633 39.4748 13.4877 39.394L13.3609 39.3252L13.4668 39.2224C13.5881 39.1164 13.7246 39.0071 13.6918 38.8541C13.6589 38.7011 13.5201 38.6509 13.3627 38.5887V38.5887Z" fill="white"/>
<path d="M-0.236393 39.1246C-0.978453 38.9479 -1.79896 39.3001 -2.89238 40.319C-2.31555 40.7557 -1.71568 41.1611 -1.09536 41.5334C-0.982155 43.0293 -1.28227 43.9419 -1.53096 45.0195C-1.77964 46.097 -1.16089 46.6683 -0.32386 46.6166C0.513172 46.5648 0.87908 46.1822 1.28731 45.1024C1.5514 44.3759 1.65254 43.6003 1.58356 42.8304C1.55447 42.3706 1.48849 41.9138 1.38627 41.4646C1.08735 40.0725 0.558128 39.322 -0.236393 39.1246V39.1246Z" fill="#2AD17D"/>
<path d="M1.07675 40.843C2.04479 40.5071 2.69816 40.2708 3.29175 40.7994C3.88535 41.3281 4.03645 42.0317 4.05233 43.3725C4.06821 44.7133 3.72352 46.1636 2.72479 46.282C1.72606 46.4005 1.23739 45.9133 1.28373 44.4151C1.28717 43.2213 1.21805 42.0284 1.07675 40.843V40.843Z" fill="#2AD17D"/>
<path d="M3.52169 41.8702C4.25267 41.6972 5.13006 41.4608 5.54562 42.2037C5.96119 42.9466 5.9704 44.0328 5.65828 44.964C5.34615 45.8951 4.72779 46.2199 4.17586 46.0344C3.62394 45.8489 3.55608 45.6074 3.70857 44.4545C3.86106 43.3015 3.87288 42.8349 3.52169 41.8702Z" fill="#2AD17D"/>
<path d="M8.65368 42.8166C7.94016 42.9218 6.60601 43.1923 5.66303 43.3468L5.51353 43.843C6.97564 44.0473 8.45796 44.0624 9.92393 43.8881C10.1487 43.0717 9.59995 42.6774 8.65368 42.8166Z" fill="#2AD17D"/>
<path d="M1.33416 44.9484C1.70296 43.5826 1.67085 42.1395 1.24167 40.7915M3.91176 41.8984C4.18224 43.2326 4.18273 44.3527 3.73077 45.3779" stroke="black" stroke-miterlimit="10" stroke-linecap="round"/>
<path d="M14.3109 25.1191C14.3739 24.1454 15.0727 23.0031 15.4266 22.6391" stroke="#039C78" stroke-miterlimit="10" stroke-linecap="round"/>
<path d="M14.1282 19.5734L13.3544 19.3235" stroke="#039C78" stroke-miterlimit="10" stroke-linecap="round"/>
</g>
<defs>
<linearGradient id="paint0_linear_85_2978" x1="7.49047" y1="25.5434" x2="11.1988" y2="42.8124" gradientUnits="userSpaceOnUse">
<stop stop-color="#29CC7A"/>
<stop offset="1" stop-color="#038567"/>
</linearGradient>
<clipPath id="clip0_85_2978">
<rect width="45" height="45" rx="22.5" fill="white"/>
</clipPath>
</defs>
</svg>
