<svg width="45" height="45" viewBox="0 0 45 45" fill="none" xmlns="http://www.w3.org/2000/svg">
<g clip-path="url(#clip0_85_1580)">
<rect width="45" height="45" rx="22.5" fill="#CCBDFF"/>
<path d="M33.724 42.5291C29.1536 46.7125 11.5631 56.6413 11.5631 56.6413L10.6239 65.6337C7.37162 65.5989 4.12674 65.306 0.920444 64.7589C0.983458 64.5091 0.983463 64.26 1.04574 63.9472C1.67217 57.2032 2.23559 52.3956 3.92585 49.6475C5.6161 46.9 13.6915 43.1533 13.6915 43.1533L33.724 42.5291Z" fill="#2F3A52"/>
<path d="M32.6595 42.5291L13.6916 43.1533L11.6255 44.0904C14.5048 45.4018 17.3849 46.6502 17.6355 53.1444C23.0814 49.8973 30.5934 45.2765 33.5988 42.6537L32.6595 42.5291Z" fill="#242F47"/>
<path d="M33.9116 48.0869C33.7241 50.9589 31.0323 53.2697 24.8347 55.9548C24.8347 55.9548 24.7094 59.9513 24.4588 66.0081C22.7063 67.3195 19.7009 68.069 14.8184 67.6939H14.7555C14.8073 67.533 14.8281 67.3633 14.8184 67.1942C14.8184 66.8821 14.7555 66.57 14.7555 66.2579C14.6302 62.6987 14.4426 57.8904 14.5049 55.4551C14.6302 51.271 14.255 49.7105 23.0191 46.588L33.7241 42.5291C33.9509 44.3721 34.014 46.2321 33.9116 48.0869V48.0869Z" fill="#2F3A52"/>
<path d="M33.9117 48.0869C34.014 46.2321 33.951 44.3721 33.7234 42.5291L22.9561 46.588L21.3289 47.2122C27.0254 46.6502 28.2145 49.3976 27.5265 54.7056C31.8456 52.5201 33.7241 50.4592 33.9117 48.0869Z" fill="#242F47"/>
<path d="M34.2875 26.2308C31.7832 25.2944 28.2774 24.8571 23.2697 25.1692C18.2612 25.482 16.0705 25.9809 13.7539 26.918C10.6862 33.7865 11.3126 38.9699 13.6916 43.1533C17.1247 44.6152 20.8648 45.2157 24.5841 44.9022C28.0899 44.7146 31.4704 44.2772 33.7863 43.2786C35.977 37.0343 36.4781 29.9152 34.2875 26.2308V26.2308Z" fill="#FFDB9E"/>
<path d="M17.8231 34.0994L14.0045 33.7242C13.8169 33.662 13.6916 33.5367 13.6916 33.4121C13.7102 32.5055 13.8362 31.604 14.0667 30.727C14.1297 30.6025 14.3173 30.4772 14.4426 30.5394C14.5679 30.6025 14.7554 30.727 14.6931 30.9146C14.4982 31.627 14.3929 32.3609 14.3803 33.1L17.5103 33.4121C17.5599 32.6063 17.7075 31.8101 17.9484 31.0391C17.9484 30.9146 18.1359 30.7893 18.3235 30.8516C18.365 30.8597 18.405 30.8753 18.4399 30.8983C18.4755 30.9212 18.5059 30.9509 18.5288 30.9857C18.5526 31.0213 18.5681 31.0606 18.5763 31.1014C18.5837 31.1429 18.5837 31.1852 18.5741 31.2267C18.3294 32.0599 18.1827 32.9192 18.1359 33.7865C18.1359 33.9118 18.1359 33.9741 18.0107 34.0364L17.8231 34.0994Z" fill="#F0B576"/>
<path d="M20.0766 44.527C19.9936 44.527 19.9143 44.4944 19.855 44.4358C19.7964 44.3773 19.7638 44.2979 19.7638 44.2149C18.6992 34.7235 19.8261 31.2889 21.6416 27.2301C21.675 27.1471 21.7395 27.0811 21.8218 27.0462C21.904 27.0106 21.9967 27.0099 22.0798 27.0425C22.1628 27.0759 22.2295 27.1404 22.2643 27.2227C22.2999 27.3042 22.3006 27.3969 22.268 27.4799C20.4525 31.4765 19.3879 34.7858 20.3895 44.1526C20.391 44.2423 20.3598 44.3291 20.3027 44.398C20.2449 44.4662 20.1649 44.5122 20.0766 44.527V44.527Z" fill="#F0B576"/>
<path d="M7.80688 10.4328C7.93216 13.5546 15.757 14.0542 15.757 14.0542L16.5088 11.2446L7.80688 10.4328Z" fill="#0E2369"/>
<path d="M27.4086 6.18344L27.4219 6.12191C27.4938 5.7846 27.2781 5.45322 26.9393 5.38131L25.2068 5.01361C24.8687 4.94244 24.5358 5.15743 24.4639 5.49474L24.4514 5.55626C24.3794 5.89357 24.5952 6.22496 24.9332 6.29687L26.6665 6.66383C27.0045 6.73574 27.3367 6.52075 27.4086 6.18344Z" fill="#1839AD"/>
<path d="M13.8167 21.4224C15.7183 21.4224 17.2595 19.8849 17.2595 17.9885C17.2595 16.0914 15.7183 14.5539 13.8167 14.5539C11.9152 14.5539 10.3732 16.0914 10.3732 17.9885C10.3732 19.8849 11.9152 21.4224 13.8167 21.4224Z" fill="#63A6FF"/>
<path d="M23.3318 27.9173C29.4516 27.9173 34.4119 22.9688 34.4119 16.8646C34.4119 10.7605 29.4516 5.81201 23.3318 5.81201C17.2121 5.81201 12.2518 10.7605 12.2518 16.8646C12.2518 22.9688 17.2121 27.9173 23.3318 27.9173Z" fill="#365DEC"/>
<path d="M17.1966 7.68463C15.8466 8.57943 14.7094 9.75964 13.8658 11.14C13.0214 12.5211 12.4921 14.0705 12.3141 15.6778C21.2658 15.9899 27.714 12.9304 28.9661 11.7442C30.2183 10.5573 22.3304 8.93379 17.1966 7.68463Z" fill="#1839AD"/>
<path d="M19.6387 21.2356H19.5134C19.1041 21.1963 18.715 21.0399 18.3925 20.7856C18.07 20.5306 17.8291 20.1881 17.6978 19.7989C17.6556 19.6662 17.6637 19.5224 17.7216 19.3956C17.7794 19.2688 17.8824 19.168 18.0107 19.1124C18.1441 19.082 18.2835 19.0969 18.408 19.1532C18.5319 19.2095 18.6342 19.3044 18.6994 19.4245C18.7543 19.6284 18.8654 19.8122 19.0211 19.9561C19.1761 20.0999 19.368 20.197 19.5756 20.2363C19.8418 20.2096 20.0968 20.1155 20.3162 19.962C20.5349 19.8093 20.7114 19.6024 20.8278 19.3623C20.8611 19.3044 20.9049 19.254 20.9568 19.214C21.0094 19.1732 21.0694 19.1436 21.1332 19.1265C21.1969 19.1087 21.2637 19.1043 21.3297 19.1124C21.3956 19.1206 21.4587 19.1421 21.5165 19.1747C21.5743 19.2073 21.6247 19.2511 21.6648 19.3037C21.7055 19.3556 21.7359 19.4156 21.7529 19.4794C21.7707 19.5431 21.7752 19.6099 21.767 19.6751C21.7581 19.7411 21.7374 19.8041 21.704 19.8619C21.5143 20.2541 21.2229 20.5884 20.8596 20.8301C20.4964 21.0718 20.0746 21.2119 19.6387 21.2356V21.2356Z" fill="#1839AD"/>
<path d="M33.2229 21.4224C35.2972 21.4224 36.9793 19.7455 36.9793 17.6765C36.9793 15.6066 35.2972 13.9297 33.2229 13.9297C31.1487 13.9297 29.4666 15.6066 29.4666 17.6765C29.4666 19.7455 31.1487 21.4224 33.2229 21.4224Z" fill="#4293FF"/>
<path d="M36.4603 17.8795C36.5789 16.574 35.9777 15.4531 35.117 15.3745C34.2564 15.2967 33.4624 16.2916 33.343 17.5963C33.2237 18.9018 33.8249 20.0227 34.6863 20.1013C35.547 20.1792 36.341 19.1843 36.4603 17.8795Z" fill="#66A8FF"/>
<path d="M23.3943 5.62442C21.5736 5.59922 19.7759 6.03217 18.1679 6.88323C16.5592 7.73503 15.1922 8.97677 14.1921 10.495C18.3866 10.8694 31.1569 12.4307 33.5989 12.7428C31.9709 8.74621 28.027 5.62442 23.3943 5.62442Z" fill="url(#paint0_linear_85_1580)"/>
<path d="M28.0269 13.118H27.9016C27.8394 13.118 20.0768 11.9933 8.30804 11.057C8.23391 11.0496 8.16199 11.0266 8.09601 10.9911C8.03077 10.9555 7.97294 10.9073 7.92624 10.8495C7.88028 10.7909 7.84546 10.7242 7.8247 10.653C7.80469 10.5811 7.79798 10.5062 7.80688 10.4328C7.80465 10.355 7.82023 10.2779 7.85285 10.2075C7.88547 10.137 7.93368 10.0748 7.99447 10.0266C8.05526 9.97838 8.12639 9.94429 8.20275 9.92798C8.27911 9.91167 8.35769 9.91389 8.43256 9.93317C20.2021 10.8695 28.027 11.9933 28.09 11.9933C28.2382 12.0356 28.3687 12.126 28.4591 12.2506C28.5503 12.3751 28.5963 12.5264 28.5904 12.6806C28.5526 12.8021 28.4784 12.9089 28.3776 12.9867C28.2768 13.0653 28.1544 13.1105 28.0269 13.118V13.118Z" fill="#0E2369"/>
<path d="M17.0091 17.4266H16.8215C16.6117 17.3058 16.3745 17.242 16.1328 17.242C15.8912 17.242 15.6532 17.3058 15.4441 17.4266C15.3826 17.4577 15.3159 17.4755 15.2469 17.48C15.1787 17.4844 15.1098 17.4741 15.0453 17.4511C14.9808 17.4273 14.9215 17.391 14.8718 17.3436C14.8222 17.2969 14.7821 17.2398 14.7554 17.1768C14.7221 17.119 14.7006 17.0559 14.6917 16.99C14.6835 16.9247 14.688 16.858 14.705 16.7942C14.7228 16.7297 14.7525 16.6704 14.794 16.6178C14.8348 16.5659 14.8852 16.5222 14.943 16.4896C15.3011 16.3035 15.6984 16.2064 16.1017 16.2064C16.505 16.2064 16.9024 16.3035 17.2597 16.4896C17.3227 16.5162 17.3798 16.5563 17.4272 16.6059C17.4747 16.6556 17.511 16.7142 17.5347 16.7787C17.5577 16.8432 17.5681 16.9121 17.5636 16.9803C17.5592 17.0485 17.5414 17.1152 17.5103 17.1768C17.4517 17.2539 17.3761 17.3169 17.2893 17.3606C17.2018 17.4036 17.1062 17.4266 17.0091 17.4266V17.4266Z" fill="#13212B"/>
<path d="M24.2712 17.4266H24.0206C23.8227 17.305 23.5951 17.2405 23.363 17.2405C23.131 17.2405 22.9034 17.305 22.7062 17.4266C22.6484 17.46 22.5846 17.4815 22.5194 17.4896C22.4534 17.4985 22.3867 17.4941 22.3222 17.4763C22.2585 17.4592 22.1984 17.4289 22.1458 17.3881C22.0932 17.3473 22.0501 17.2969 22.0175 17.2391C21.9708 17.1835 21.9367 17.119 21.9174 17.0493C21.8989 16.9796 21.8945 16.9069 21.9071 16.8358C21.9189 16.7646 21.9456 16.6964 21.9864 16.6371C22.0272 16.5771 22.0805 16.5266 22.1428 16.4896C22.5016 16.2753 22.9131 16.1619 23.3319 16.1619C23.7508 16.1619 24.1622 16.2753 24.521 16.4896C24.6322 16.5756 24.7115 16.6964 24.7456 16.8321C24.7797 16.9677 24.7664 17.1116 24.7093 17.2391C24.6575 17.3043 24.59 17.3555 24.5136 17.3881C24.4372 17.4207 24.3535 17.434 24.2712 17.4266V17.4266Z" fill="#13212B"/>
<path d="M21.3445 9.11693C21.9487 8.60096 22.1281 7.82106 21.7456 7.37626C21.363 6.93071 20.5631 6.98854 19.9597 7.50451C19.3555 8.02123 19.1761 8.80038 19.5587 9.24592C19.9412 9.69072 20.7411 9.63364 21.3445 9.11693V9.11693Z" fill="#CCBDFF"/>
<path d="M34.3498 26.2307C31.0946 26.1684 29.2168 30.6024 29.0285 36.7214C29.0285 36.7214 23.8954 37.4086 20.7025 38.1581C17.5103 38.9069 16.571 40.7803 16.7585 42.3415C16.9468 43.9028 18.3242 45.464 22.6433 45.464H24.083L26.7748 45.2142C36.04 44.0903 40.2968 39.5318 39.984 34.4114C39.7964 30.8522 38.4813 27.8543 34.3498 26.2307V26.2307Z" fill="#365DEC"/>
<path d="M20.0136 34.3484C19.0121 33.4121 16.4456 33.2876 12.7522 34.4737C12.6899 31.8583 13.1148 29.2539 14.0044 26.7927C7.68148 28.6661 4.48925 34.8481 6.42934 38.97C8.37017 43.0911 12.9398 42.0295 16.3203 40.6558C22.5179 38.0329 21.5793 35.7229 20.0136 34.3484Z" fill="#365DEC"/>
<path d="M29.0284 36.7215L31.0945 36.4716C32.0338 36.4093 31.7202 35.473 31.0945 35.6599L29.0284 36.1595V36.7215Z" fill="#1A3EBD"/>
<path d="M9.62232 34.5983C8.43247 34.7235 8.43247 35.972 9.49703 35.5353C10.5527 35.0972 11.641 34.7421 12.7522 34.4737V34.2239L9.62232 34.5983Z" fill="#1A3EBD"/>
<path d="M27.4634 35.3477H27.4011L22.956 34.8481C22.8849 34.834 22.8204 34.7947 22.7744 34.7376C22.7284 34.6805 22.7047 34.6094 22.7062 34.536C22.6832 33.6515 22.7885 32.7679 23.0191 31.9131C23.0569 31.8316 23.1199 31.7641 23.1985 31.7196C23.277 31.6744 23.3675 31.6551 23.4572 31.664C23.5343 31.7033 23.5951 31.7693 23.6292 31.8486C23.664 31.9287 23.6692 32.0176 23.6447 32.1007C23.452 32.7923 23.3467 33.5062 23.3319 34.2239L27.1505 34.6613C27.198 33.8599 27.324 33.0652 27.5264 32.2882C27.5398 32.2452 27.562 32.2052 27.5924 32.1718C27.6228 32.1377 27.6606 32.111 27.7021 32.0933C27.7436 32.0755 27.7888 32.0673 27.8341 32.0681C27.8793 32.0695 27.9238 32.0806 27.9646 32.1007C28.0898 32.1007 28.2151 32.2882 28.1521 32.4758C27.9401 33.3135 27.8141 34.172 27.777 35.0356C27.7599 35.129 27.7162 35.2158 27.6517 35.2855L27.4634 35.3477Z" fill="#F0B576"/>
</g>
<defs>
<linearGradient id="paint0_linear_85_1580" x1="14.2047" y1="9.17099" x2="33.6115" y2="9.17099" gradientUnits="userSpaceOnUse">
<stop stop-color="#9E2FAD"/>
<stop offset="1" stop-color="#B84DCF"/>
</linearGradient>
<clipPath id="clip0_85_1580">
<rect width="45" height="45" rx="22.5" fill="white"/>
</clipPath>
</defs>
</svg>
