<svg width="45" height="45" viewBox="0 0 45 45" fill="none" xmlns="http://www.w3.org/2000/svg">
<g clip-path="url(#clip0_85_1544)">
<rect width="45" height="45" rx="22.5" fill="#FFE75C"/>
<path d="M18.2609 14.6176C18.6529 13.4677 18.0139 12.2094 16.8336 11.8072C15.6534 11.4049 14.379 12.0111 13.9871 13.161C13.5951 14.311 14.2342 15.5694 15.4144 15.9715C16.5946 16.3737 17.8691 15.7676 18.2609 14.6176Z" fill="#2A39D4"/>
<path d="M30.7369 36.7916C32.7074 37.1221 34.9815 38.2478 37.5717 41.9162C39.4493 40.4476 40.2321 40.9888 42.2398 43.2009C44.2475 45.4131 48.6429 49.6557 49.6756 51.0334C50.7084 52.4111 51.3136 55.1644 47.8167 56.7487C44.3197 58.3329 38.9535 53.9685 36.1754 51.4837C33.3973 48.9988 29.6071 46.0183 29.6071 46.0183L30.7369 36.7916Z" fill="#2331B5"/>
<path d="M41.4344 42.342C41.9549 43.5276 42.6366 45.2482 42.9175 46.6796C43.3182 48.712 42.3804 49.7655 40.6289 50.8974C39.0302 51.9301 38.237 51.6554 37.4748 50.8788C37.4292 50.8393 37.3705 50.8187 37.3104 50.8205C37.2503 50.8224 37.1931 50.8468 37.1501 50.8891C37.1072 50.9312 37.0818 50.988 37.0787 51.0481C37.0758 51.108 37.0954 51.1671 37.134 51.2134C37.5176 51.6478 38.0406 51.9349 38.6129 52.0251C39.2739 52.1057 40.0113 51.864 40.885 51.2981C42.4218 50.3046 43.8821 49.1231 43.3843 46.5866C43.1858 45.6642 42.9152 44.7586 42.5746 43.8787C42.4436 43.527 42.2441 43.2047 41.988 42.9307C41.7897 42.7117 41.5604 42.47 41.4344 42.342Z" fill="#3442D9"/>
<path d="M23.514 35.1155C30.7885 33.9661 35.8465 27.7253 34.8117 21.1764C33.7769 14.6277 27.0408 10.2506 19.7663 11.4003C12.4919 12.5497 7.43369 18.7905 8.46872 25.3394C9.50354 31.8882 16.2396 36.265 23.514 35.1155Z" fill="#FF78B9"/>
<path d="M12.5207 21.2324C12.2005 23.8474 13.1713 26.3177 14.6874 26.7536C16.0259 27.1377 16.7529 25.853 17.1144 23.3351C17.2073 22.6824 17.321 22.0297 17.4449 21.3811C17.8869 19.0409 17.197 17.6797 15.8441 17.2914C14.328 16.8556 12.8388 18.6195 12.5207 21.2324Z" fill="white"/>
<path d="M24.0261 22.8144C23.801 22.4281 23.6948 21.9838 23.7209 21.5375C23.7469 21.0911 23.9043 20.6623 24.1728 20.3048C26.7795 16.8822 28.7768 17 30.2 17.2437C31.7718 17.5205 32.5237 18.9622 30.9477 22.1885C32.3936 24.188 31.4909 25.7495 29.0887 25.6999C27.0191 25.6421 25.4596 25.2847 24.0261 22.8144Z" fill="#D11583"/>
<path d="M35.1279 60.9442C36.5593 52.0521 33.8472 50.5629 33.8989 47.8839C33.9505 45.2049 34.1199 41.5717 31.664 37.3498C31.664 37.3498 32.4344 33.7805 32.9301 31.3721C32.9496 31.2782 32.9475 31.1811 32.9237 31.0879C32.9002 30.995 32.8558 30.9084 32.794 30.8351C32.7323 30.7616 32.6544 30.7033 32.5668 30.6643C32.479 30.6253 32.3836 30.6067 32.2878 30.61C30.346 30.6746 28.4023 30.5536 26.4837 30.2485C23.1788 29.7466 18.7338 28.8625 13.3759 32.9337L14.671 35.2966L14.5408 35.4701C14.4495 35.5918 14.3859 35.7318 14.3543 35.8806C14.3229 36.0295 14.3244 36.1834 14.3584 36.3315C14.3927 36.4796 14.459 36.6186 14.5526 36.7384C14.6462 36.8584 14.7647 36.9563 14.9002 37.0255L15.177 37.168C15.177 37.168 10.4945 39.2686 11.0708 45.3743C11.647 51.48 9.56293 57.0713 11.5417 59.11C11.9449 59.5186 12.4454 59.8178 12.9958 59.98C13.5465 60.1423 14.1292 60.162 14.6895 60.0374L24.1083 66.6305C27.2871 71.1334 31.9284 76.3013 31.9284 76.3013L26.7439 85.4144L33.8989 79.3273C38.5979 70.9 40.1822 80.0606 41.5206 76.1609C42.8591 72.2612 40.4445 69.5429 35.1279 60.9442Z" fill="#2331B5"/>
<path d="M32.8354 31.8198C30.8195 32.2329 28.2624 31.9045 25.2323 31.446C21.9791 30.9523 19.1472 30.5247 13.6654 33.4619L14.3532 34.7177C19.4013 32.0098 21.8985 32.3858 25.0154 32.8588C27.9071 33.2967 30.4002 33.6127 32.5173 33.3214C32.6289 32.8175 32.7363 32.3052 32.8354 31.8198Z" fill="#3442D9"/>
<path d="M27.9506 59.6134C28.0132 59.6211 28.0764 59.6035 28.1262 59.5649C28.1761 59.5263 28.2088 59.4695 28.217 59.4069C28.8119 55.0548 27.6862 50.395 27.1843 48.5939C26.6677 46.7407 26.4496 44.8169 26.5378 42.8951C26.641 40.3835 26.3519 38.3902 26.1247 37.6053L27.9217 30.4277L27.4321 30.374L25.6165 37.6198L25.6372 37.6838C25.8438 38.3634 26.1536 40.369 26.0503 42.8786C25.96 44.8508 26.1846 46.8246 26.7154 48.7261C27.2173 50.4983 28.3244 55.0817 27.7482 59.3449C27.7436 59.3759 27.7455 59.4073 27.7533 59.4377C27.7612 59.4678 27.7748 59.4961 27.7936 59.5211C27.8124 59.5461 27.8359 59.5672 27.8628 59.5829C27.8899 59.5988 27.9196 59.6091 27.9506 59.6134Z" fill="black"/>
<path d="M21.6133 59.2915C21.7497 58.4818 21.0391 55.3897 20.0064 53.0846C18.9736 50.7795 18.4924 49.1807 17.1849 49.7343C15.8774 50.2879 12.7998 51.7998 12.7998 51.7998C12.7998 51.7998 15.3693 49.063 16.7945 47.4044C19.9217 43.7608 19.6862 38.1798 15.1772 37.1863C11.2093 38.7871 10.4141 40.4911 6.13642 46.2746C1.85873 52.058 -1.05572 58.4611 2.3937 61.6503C5.84311 64.8394 9.76347 63.4101 16.999 61.2475C20.0973 60.3222 21.477 60.1156 21.6133 59.3059" fill="#2331B5"/>
<path d="M35.9539 39.7288C35.8107 39.7288 35.6734 39.6728 35.5711 39.5728C35.4689 39.4728 35.4098 39.3367 35.4065 39.1938C35.257 33.4085 35.6358 27.6217 36.5384 21.9054C36.5539 21.8108 36.5467 21.7137 36.5176 21.6224C36.4882 21.5311 36.4378 21.4481 36.3705 21.3799C36.303 21.3118 36.2203 21.2608 36.1292 21.2306C36.0382 21.2007 35.9413 21.1926 35.8465 21.2073L28.8568 22.2793C28.7838 22.2948 28.7084 22.2954 28.6353 22.2807C28.5622 22.2663 28.4928 22.2369 28.4313 22.1944C28.3699 22.152 28.3179 22.0975 28.2784 22.0343C28.2388 21.9711 28.2125 21.9005 28.2012 21.8267C28.19 21.753 28.1939 21.6778 28.2127 21.6057C28.2315 21.5334 28.265 21.4659 28.3108 21.407C28.3569 21.3483 28.4143 21.2996 28.4798 21.2637C28.5451 21.2279 28.6172 21.206 28.6915 21.199L35.6812 20.1249C35.9469 20.0842 36.2183 20.107 36.4734 20.1912C36.7285 20.2757 36.96 20.4191 37.149 20.6101C37.338 20.8012 37.4791 21.0342 37.5606 21.2903C37.6424 21.5462 37.6623 21.8178 37.6187 22.083C36.727 27.7324 36.3531 33.4514 36.5012 39.169C36.5039 39.314 36.4494 39.4543 36.349 39.5592C36.2488 39.6639 36.1113 39.7251 35.9663 39.7288H35.9539Z" fill="#66BCFF"/>
<path d="M31.5343 39.1175C32.0486 40.4394 32.9513 42.8168 33.1124 43.5728C33.0484 44.7192 32.7592 46.6711 32.6642 47.2908C32.6567 47.3434 32.6687 47.3971 32.698 47.4415C32.7274 47.4862 32.7718 47.5184 32.8232 47.5324C34.6388 48.0447 35.4444 48.181 36.1983 48.1645C37.0804 48.1046 37.9583 47.9937 38.8277 47.8319C38.869 47.8247 38.9086 47.8094 38.9442 47.7867C38.9797 47.764 39.0103 47.7346 39.0344 47.6999C39.0584 47.6654 39.0753 47.6264 39.0842 47.5853C39.0929 47.544 39.0935 47.5014 39.0859 47.4601C38.6624 45.1509 38.4125 43.4716 38.4125 43.4716C38.5984 40.6956 38.8525 38.5144 38.9413 37.7666C38.9502 37.6941 38.9312 37.6208 38.8876 37.562C38.8442 37.5031 38.7798 37.4632 38.7079 37.4506C36.2024 36.9921 35.3246 36.8661 34.3909 36.8206C33.4573 36.7752 33.0979 37.273 31.6459 38.6342C31.5812 38.6945 31.5362 38.7728 31.5161 38.8589C31.4963 38.9448 31.5027 39.0349 31.5343 39.1175Z" fill="white"/>
<path d="M38.7774 47.6049C38.7774 47.6049 39.0604 47.7515 38.827 47.83C38.8685 47.8228 38.9082 47.8075 38.9435 47.7848C38.979 47.7621 39.0098 47.7327 39.0337 47.698C39.0577 47.6636 39.0746 47.6245 39.0835 47.5834C39.0922 47.5421 39.0928 47.4995 39.0852 47.4582C38.6617 45.149 38.4118 43.4697 38.4118 43.4697C38.5977 40.6937 38.8518 38.5125 38.9406 37.7648C38.9497 37.6923 38.9305 37.6189 38.8869 37.5601C38.8435 37.5012 38.7791 37.4613 38.7072 37.4487C36.2038 36.9902 35.3239 36.8642 34.3902 36.8188C34.1938 36.8062 33.9968 36.8278 33.8078 36.8828L35.5821 42.2201L34.8529 46.8675L38.7774 47.6049Z" fill="#FFC619"/>
<path d="M35.1348 47.0364C35.3992 48.7364 35.6574 49.9633 36.6551 50.3061C37.6527 50.649 39.0201 49.7464 40.7964 48.3563C42.5728 46.9662 42.1762 45.5658 41.6454 44.2418C41.1145 42.9178 41.2137 41.3253 40.4556 40.5714C39.498 39.6852 38.457 38.8937 37.347 38.2084C36.4382 37.6569 35.8805 37.5887 34.2219 39.0553C32.5633 40.5218 31.6441 41.3521 31.8114 42.0337C31.9405 42.5212 32.0985 43.0006 32.2844 43.4693C31.5636 44.0559 31.4789 44.5909 31.6834 45.3076C31.8878 46.0243 31.9002 46.6626 33.28 46.8319C34.6598 47.0013 35.1348 47.0364 35.1348 47.0364Z" fill="#FF78B9"/>
<path d="M32.3722 43.4467C32.3146 43.4463 32.2586 43.4277 32.2122 43.3936C32.1655 43.3595 32.131 43.3118 32.113 43.2569C32.0953 43.2022 32.0953 43.1431 32.1128 43.0881C32.1304 43.0332 32.1649 42.9853 32.2111 42.951C34.4605 41.3172 36.4269 39.8527 36.4454 39.8362C36.4739 39.8108 36.5072 39.7916 36.5434 39.7798C36.5797 39.7678 36.6179 39.7637 36.6557 39.7674C36.6937 39.7713 36.7305 39.7829 36.7635 39.8015C36.7968 39.8203 36.8257 39.8455 36.8486 39.8761C36.8714 39.9064 36.8877 39.9413 36.8964 39.9785C36.905 40.0155 36.9059 40.0541 36.8988 40.0915C36.8918 40.1289 36.8771 40.1644 36.8555 40.196C36.834 40.2274 36.8063 40.254 36.7739 40.2741C36.7532 40.2885 34.7848 41.7571 32.5334 43.3951C32.4865 43.4289 32.4301 43.4471 32.3722 43.4467Z" fill="black"/>
<path d="M14.1038 21.5919C13.8766 22.7135 14.1369 23.7132 14.6822 23.8247C15.1407 23.9156 15.558 23.5356 15.7025 22.4801C15.7707 22.0341 15.8806 21.5958 16.031 21.1705C16.3449 20.2596 15.9587 19.8486 15.5022 19.7577C14.9569 19.6462 14.329 20.46 14.1038 21.5919Z" fill="black"/>
<path d="M24.3006 9.07425C25.2487 8.98543 26.583 9.61748 26.835 10.9477C27.087 12.2779 27.2047 14.2525 24.976 14.3372C24.0341 14.3682 23.1315 13.8477 21.8034 12.5175C20.8491 11.5611 19.7379 11.1274 17.1167 12.0775C15.8939 11.0055 16.8565 8.73344 20.3162 10.3487C18.9777 8.13444 19.6325 6.76707 20.8057 6.51301C21.9789 6.25895 23.6706 6.66379 24.3006 9.07425Z" fill="#2A39D4"/>
<path d="M23.8175 12.9863C23.1379 11.9102 22.667 10.5449 22.2518 9.34066C21.8015 8.03112 21.4256 6.94672 20.8844 6.4985L20.7997 6.51296C20.5839 6.55778 20.38 6.64722 20.2007 6.77528C20.2588 6.75711 20.3203 6.75277 20.3804 6.76289C20.8948 6.86823 21.3347 8.14472 21.8015 9.49557C22.225 10.7349 22.7062 12.1188 23.4147 13.2424C23.6442 13.6006 23.9108 13.9335 24.2099 14.2359C24.4561 14.3109 24.7129 14.3452 24.97 14.3371H25.0155C24.5501 13.9501 24.1463 13.4946 23.8175 12.9863Z" fill="black"/>
<path d="M26.5047 13.7156C26.3698 13.8734 26.2048 14.0027 26.0193 14.0956C26.1067 12.2691 25.5052 10.4764 24.3338 9.0723C24.5493 9.05805 24.766 9.07623 24.9762 9.12601C25.9635 10.4529 26.4991 12.0615 26.5047 13.7156Z" fill="black"/>
<path d="M17.8415 37.7709H17.8084L15.1419 37.4446C15.0745 37.4303 15.015 37.3913 14.975 37.3351C14.9351 37.2789 14.9177 37.21 14.9262 37.1416C14.9349 37.0732 14.9688 37.0106 15.0214 36.9662C15.0739 36.9216 15.1412 36.8985 15.21 36.9014L17.8745 37.2277C17.9468 37.2321 18.0146 37.2651 18.0625 37.3192C18.1106 37.3735 18.135 37.4446 18.1307 37.5169C18.1263 37.5892 18.0935 37.6567 18.0392 37.7048C17.9848 37.7528 17.9138 37.7773 17.8415 37.773V37.7709Z" fill="black"/>
<path d="M16.5408 20.6414L14.8636 21.2156L16.956 22.4735L16.5408 20.6414Z" fill="white"/>
<path d="M29.5929 23.25C29.545 23.2496 29.4979 23.237 29.4564 23.2131C29.4146 23.1891 29.3799 23.155 29.3553 23.1137C29.3326 23.0724 28.713 22.081 26.9965 22.081C26.9242 22.0837 26.8538 22.0576 26.8007 22.0085C26.7476 21.9593 26.7162 21.8909 26.7136 21.8186C26.7109 21.7464 26.7369 21.6759 26.786 21.6228C26.8354 21.5697 26.9036 21.5384 26.9759 21.5357C28.368 21.4262 28.9877 20.8437 29.3326 20.4141C29.3799 20.3631 29.4446 20.3319 29.514 20.3267C29.5832 20.3216 29.652 20.3428 29.7063 20.3864C29.7604 20.4298 29.7961 20.4922 29.8063 20.5609C29.8162 20.6297 29.7999 20.6998 29.7602 20.757C29.4018 21.2062 28.9338 21.5555 28.4011 21.7711C28.9827 21.9643 29.4849 22.3431 29.8304 22.8493C29.8666 22.9121 29.8765 22.9867 29.8579 23.0567C29.8393 23.1267 29.7939 23.1866 29.7313 23.2232C29.6883 23.2439 29.6406 23.2531 29.5929 23.25Z" fill="black"/>
</g>
<defs>
<clipPath id="clip0_85_1544">
<rect width="45" height="45" rx="22.5" fill="white"/>
</clipPath>
</defs>
</svg>
