<svg width="45" height="45" viewBox="0 0 45 45" fill="none" xmlns="http://www.w3.org/2000/svg">
<g clip-path="url(#clip0_85_2992)">
<rect width="45" height="45" rx="22.5" fill="#808AFF"/>
<path d="M78.3286 41.6783C76.0205 44.7624 75.3303 45.1633 73.9243 45.779C72.8017 46.2716 71.7365 46.1026 70.6483 45.5385C67.6443 43.9835 59.6204 39.837 55.3106 37.7007C53.9819 37.0421 53.14 36.5781 52.4642 35.2609C51.6767 33.7288 48.836 31.226 40.792 31.7873C40.792 31.7873 38.713 31.9305 36.4708 31.5983C36.2617 31.5668 36.2531 31.2718 36.4564 31.226L37.4759 31.0026C39.4862 30.553 41.4478 29.8858 43.3063 29.0153C45.1619 28.139 46.9145 27.068 48.5353 25.8424C48.9477 25.5445 49.3342 25.2181 49.7265 24.8974C50.1246 24.5824 50.4912 24.2359 50.8692 23.898L51.9144 22.9501C52.2523 22.6523 52.5931 22.3602 52.9424 22.0881C54.3313 20.9885 55.8404 20.0779 57.3667 19.6712C58.1285 19.4708 58.8816 19.4078 59.5975 19.5051C60.3134 19.6054 61.0007 19.8659 61.6364 20.284C62.2722 20.6964 62.8564 21.2605 63.3632 21.9106C63.6181 22.2342 63.8529 22.5835 64.0648 22.9444C64.1708 23.1248 64.2738 23.308 64.3683 23.4942C64.417 23.5858 64.46 23.6803 64.5029 23.7691L64.6089 24.0096L64.6576 24.1213C64.9869 24.8601 65.8803 25.1923 66.6306 24.8029C67.2835 24.4621 67.5413 23.6574 67.2778 22.9701L67.2119 22.7955L67.1317 22.6007C67.0773 22.4719 67.0201 22.3487 66.9628 22.2256C66.8454 21.9793 66.7222 21.7416 66.5934 21.504C66.3328 21.0315 66.0436 20.5761 65.72 20.1351C65.0757 19.256 64.2939 18.437 63.3403 17.7755C62.3953 17.1111 61.2642 16.6272 60.0872 16.4296C58.9074 16.2291 57.7132 16.3093 56.6136 16.5642C55.5111 16.8219 54.4917 17.2371 53.5495 17.7325C52.6017 18.2251 51.7311 18.8007 50.9064 19.4135C50.4912 19.7199 50.0931 20.0378 49.7036 20.3642L48.5897 21.315C48.2432 21.6042 47.9024 21.9077 47.5387 22.174C47.1808 22.449 46.8286 22.7325 46.4534 22.9816C44.9815 24.0211 43.4151 24.906 41.7799 25.6133C40.1419 26.3177 38.4352 26.8332 36.6941 27.1654C34.9531 27.4861 33.1776 27.6264 31.4107 27.5577H31.3878C30.0648 27.509 28.7905 27.0451 27.7481 26.2261L24.4435 23.6345L19.7757 25.1723C19.7757 25.1723 22.081 26.1688 22.9916 27.8784C22.9286 27.8927 21.0071 28.1991 20.9441 28.2135C19.8445 28.4884 18.7735 28.8635 17.7683 29.3646C17.2529 29.5909 16.7804 29.8915 16.2935 30.1665C16.0473 30.3011 15.8297 30.4757 15.5948 30.6275C15.3657 30.7879 15.1338 30.9396 14.9104 31.1057C14.4866 31.4608 14.0399 31.7959 13.639 32.171L13.0462 32.7466C12.8515 32.9413 12.6453 33.1246 12.4735 33.3365C12.1212 33.7517 11.749 34.1555 11.4168 34.5822L10.466 35.8937C9.93914 36.6669 9.41511 37.4258 8.83092 38.1388C7.68547 39.5735 6.3911 40.8736 4.97646 41.9045C4.26914 42.4142 3.5246 42.8495 2.78005 43.1531L2.49942 43.2647L2.22164 43.3535C2.0355 43.4222 1.8551 43.4537 1.67469 43.5024C1.32246 43.5654 0.96737 43.6198 0.669552 43.5883C0.368869 43.5654 0.111144 43.5053 -0.0979017 43.4051C-0.306947 43.3077 -0.464459 43.1645 -0.610504 42.9669C-0.905459 42.5803 -1.09159 41.8931 -1.08873 41.1113L-1.07155 39.6365L-1.06581 39.2385C-1.06868 39.1039 -1.08013 38.9693 -1.08586 38.8376L-1.13454 38.0357C-1.14313 37.7694 -1.18895 37.4974 -1.22618 37.2311C-1.26627 36.9619 -1.29778 36.6927 -1.3436 36.4235C-1.47246 35.8851 -1.55836 35.3468 -1.74736 34.8141C-2.07095 33.7489 -2.54345 32.6979 -3.21641 31.7443C-3.39395 31.5124 -3.56578 31.2747 -3.76051 31.0513C-3.96096 30.8308 -4.15282 30.6075 -4.37905 30.407C-4.59382 30.198 -4.83437 30.0061 -5.08351 29.82C-5.21524 29.7283 -5.33549 29.6367 -5.48154 29.5508C-5.55599 29.5078 -5.619 29.4649 -5.69918 29.4219L-5.82231 29.356L-5.89106 29.3217L-5.99128 29.2759C-6.71578 28.958 -7.56054 29.2845 -7.8784 30.009C-8.19627 30.7335 -7.86981 31.5782 -7.14531 31.8961L-7.1625 31.8904C-7.16822 31.8875 -7.15391 31.8961 -7.15105 31.899L-7.11382 31.9219L-7.01646 31.9849C-6.9506 32.0221 -6.879 32.088 -6.80741 32.1366C-6.66709 32.2512 -6.52392 32.3686 -6.39219 32.5089C-6.25187 32.6349 -6.13159 32.7953 -6.00272 32.9385C-5.87959 33.0902 -5.76791 33.2592 -5.6505 33.4167C-5.2095 34.0868 -4.88304 34.86 -4.66254 35.6847C-4.52795 36.0856 -4.47928 36.5266 -4.38478 36.9476L-4.31319 37.6033C-4.29028 37.8238 -4.25591 38.0386 -4.25878 38.2648L-4.23873 38.9349C-4.23587 39.0466 -4.23013 39.1583 -4.23013 39.27L-4.24446 39.6107L-4.30459 41.0884C-4.32463 41.3805 -4.29313 41.6926 -4.28167 41.9962C-4.27022 42.1508 -4.2416 42.3083 -4.22155 42.4658C-4.2015 42.6233 -4.1786 42.7779 -4.13564 42.9412C-4.00678 43.5769 -3.7376 44.2441 -3.3281 44.8541C-2.91859 45.464 -2.34013 46.0167 -1.67004 46.3689C-1.00567 46.7269 -0.292631 46.9102 0.383188 46.976C1.74342 47.0963 2.95187 46.8042 4.03719 46.4062C5.12538 45.9995 6.10475 45.4554 7.01252 44.8426C8.81948 43.6112 10.3601 42.1307 11.7203 40.5357C12.4105 39.7453 13.029 38.9006 13.6361 38.0672L14.4494 37.0134C14.73 36.6726 15.0393 36.3634 15.3314 36.0369C15.4717 35.868 15.6435 35.7334 15.801 35.5845L16.2793 35.1435C16.6028 34.8571 16.9579 34.6137 17.293 34.3445C17.4677 34.2214 17.6509 34.1126 17.8285 33.9951C18.0118 33.8835 18.1807 33.7517 18.3697 33.6572C18.7477 33.4654 19.1085 33.2391 19.5037 33.0845C20.2683 32.7266 21.0787 32.4774 21.8891 32.2999C21.9378 32.2884 22.0638 32.2712 22.2299 32.2483C23.1319 32.1281 24.0483 32.3743 24.7585 32.9471C26.4337 34.293 29.8386 36.6984 32.6192 36.561C39.2943 36.2316 41.8888 36.372 42.8968 37.1595C43.4208 37.569 43.4495 38.3536 42.9827 38.8232L33.6558 48.1873C32.3643 49.4846 30.5287 50.0859 28.7246 49.791C26.8518 49.4874 24.5179 48.7286 22.794 46.8987C21.0472 45.0488 19.5495 44.8569 18.8393 45.5786C18.1291 46.3002 18.7477 48.0613 20.2196 49.5132C20.9613 50.2463 21.7803 50.756 22.5019 50.9937C22.5735 51.0338 22.6451 51.071 22.7253 51.1054L32.6879 55.3264L47.6361 43.1015C49.3743 41.6812 51.774 41.3833 53.8072 42.3398L73.3315 51.5206L79.5084 45.4497C80.0754 44.8942 80.5765 44.2756 81.0004 43.6027C81.6619 42.5488 81.9826 41.9074 81.9969 40.8822C82.017 39.5535 80.734 38.4653 78.3286 41.6783Z" fill="white"/>
<path d="M81.0004 43.6141C81.6619 42.5602 81.9826 41.9188 81.9969 40.8907C82.0169 39.5534 80.7312 38.4624 78.3257 41.6782C76.0176 44.7624 75.3275 45.1633 73.9214 45.779C72.7989 46.2715 71.7336 46.1026 70.6454 45.5384C67.6415 43.9835 59.6176 39.8369 55.3078 37.7006C53.9791 37.042 53.1371 36.5781 52.4613 35.2608C52.3325 35.0088 52.1435 34.7282 51.8886 34.439C49.0794 32.778 44.5262 33.3594 42.6562 37.0105C42.7507 37.0649 42.8366 37.1193 42.914 37.1795C43.4237 37.589 43.4638 38.3507 43.0027 38.8117L33.6558 48.1959C32.3643 49.4931 30.5287 50.0945 28.7246 49.7995C26.8518 49.496 24.5179 48.7371 22.794 46.9072C21.0472 45.0573 19.5495 44.8655 18.8393 45.5871C18.1291 46.3087 18.7477 48.0699 20.2196 49.5217C20.9613 50.2548 21.7803 50.7646 22.5019 51.0022C22.5735 51.0423 22.6451 51.0796 22.7253 51.1139L32.6879 55.3349L47.6361 43.1101C49.3743 41.6897 51.774 41.3919 53.8072 42.3483L73.3315 51.5292L79.5084 45.4582C80.0725 44.9056 80.5765 44.287 81.0004 43.6141Z" fill="black"/>
<path d="M39.7267 49.579C39.5034 48.8545 36.5366 48.969 36.5366 48.969C36.5366 48.969 36.591 46.3116 35.7491 46.0968L33.6558 48.1958C32.3643 49.4931 30.5287 50.0944 28.7246 49.7995C26.8518 49.4959 24.5179 48.7371 22.794 46.9072C21.0472 45.0573 19.5495 44.8654 18.8393 45.5871C18.1291 46.3087 18.7477 48.0698 20.2196 49.5217C20.9613 50.2548 21.7803 50.7645 22.5019 51.0022C22.5735 51.0423 22.6451 51.0795 22.7253 51.1139L32.6879 55.3349L39.7267 49.579Z" fill="#EB459F"/>
<path d="M25.692 24.6281C29.6181 22.0079 32.287 17.6179 32.5103 12.5435C32.5103 12.5378 32.5103 12.5321 32.5103 12.5264C32.5332 12.008 31.8546 11.8019 31.5682 12.2343C27.8398 17.8756 21.3278 21.4724 14.08 21.1545C10.4317 20.9941 7.05833 19.8573 4.19469 18.0131C3.75082 17.7267 3.21819 18.2021 3.45015 18.6717C4.05151 19.8831 4.80464 21.0027 5.69237 22.0079C6.09614 22.4661 6.52855 22.9013 6.98674 23.3108C7.3046 23.5943 7.63392 23.8664 7.9747 24.1241C10.363 25.9253 13.3039 27.0479 16.5169 27.1882C18.1635 27.2598 19.7586 27.0679 21.2649 26.6527C21.8462 27.2168 22.4876 27.7581 22.9859 27.8898C28.1805 27.1796 30.7893 27.5147 30.7893 27.5147C29.6582 27.3629 28.5872 26.899 27.6851 26.1917L25.692 24.6281Z" fill="url(#paint0_linear_85_2992)"/>
<path d="M10.2857 25.2724C11.6717 24.7942 12.5909 23.7948 12.3274 23.0073C12.064 22.2226 10.7238 21.962 9.33495 22.4259C8.80231 22.6035 8.221 22.4804 7.80004 22.1109C7.12709 21.5182 6.18208 20.7822 5.84131 21.017C5.64372 21.1516 5.55781 21.4008 5.56068 21.7215C5.58931 21.7931 5.63226 21.899 5.6609 21.9706C6.07613 22.4431 6.51713 22.8899 6.98676 23.3108C7.30463 23.5943 7.63395 23.8664 7.97472 24.1241C8.58754 24.5851 9.23473 25.0004 9.91341 25.3669C10.0595 25.3411 10.1854 25.3068 10.2857 25.2724Z" fill="black"/>
<path d="M10.2856 25.2725C10.5576 25.178 10.8125 25.0634 11.0445 24.9346C10.509 24.2788 9.27761 23.8521 8.1207 24.2273C8.69056 24.6454 9.28907 25.0291 9.9162 25.367C10.0565 25.3412 10.1854 25.3069 10.2856 25.2725Z" fill="#FF78B9"/>
<path d="M22.3444 23.1734C22.3444 23.1734 21.6915 24.568 20.4029 25.0834C19.1143 25.5989 17.6796 25.0433 17.6796 25.0433C17.6796 25.0433 18.3325 23.6487 19.6211 23.1333C20.9069 22.6178 22.3444 23.1734 22.3444 23.1734Z" fill="white"/>
<path d="M17.6767 25.0462C17.6767 25.0462 18.2637 25.2725 19.0197 25.3011C19.183 25.1608 19.3433 24.989 19.4865 24.7885C19.9533 24.1385 20.0965 23.4168 19.8588 23.0503C19.7786 23.0732 19.6984 23.1018 19.6183 23.1333C18.3296 23.6517 17.6767 25.0462 17.6767 25.0462Z" fill="black"/>
<path d="M27.5133 19.2759C27.5133 19.2759 27.3271 20.8051 26.2647 21.6985C25.2023 22.592 23.6646 22.5118 23.6646 22.5118C23.6646 22.5118 23.8507 20.9826 24.9131 20.0892C25.9755 19.1957 27.5133 19.2759 27.5133 19.2759Z" fill="white"/>
<path d="M23.6646 22.5118C23.6646 22.5118 24.2917 22.5433 25.0219 22.3343C25.1336 22.1481 25.231 21.9362 25.3054 21.7043C25.546 20.9397 25.4543 20.2123 25.1164 19.9374C25.0477 19.9861 24.979 20.0376 24.9131 20.092C23.8507 20.9826 23.6646 22.5118 23.6646 22.5118Z" fill="black"/>
<path d="M22.7596 32.2368C23.4841 32.254 24.1886 32.5003 24.7584 32.9584C26.4337 34.3043 29.8385 36.7098 32.6191 36.5723C35.8493 36.412 38.123 36.3633 39.7238 36.4435C37.8825 33.2305 35.4026 34.7912 35.4026 34.7912C35.4026 34.7912 32.2125 36.8874 30.1707 33.4367C28.653 30.868 24.1914 31.5896 22.7596 32.2368Z" fill="#8CD9FF"/>
</g>
<defs>
<linearGradient id="paint0_linear_85_2992" x1="28.7275" y1="26.6459" x2="16.5198" y2="14.6693" gradientUnits="userSpaceOnUse">
<stop stop-color="#57F287"/>
<stop offset="1" stop-color="#91FFAD"/>
</linearGradient>
<clipPath id="clip0_85_2992">
<rect width="45" height="45" rx="22.5" fill="white"/>
</clipPath>
</defs>
</svg>
