<svg width="45" height="45" viewBox="0 0 45 45" fill="none" xmlns="http://www.w3.org/2000/svg">
<rect width="45" height="45" rx="22.5" fill="#5865F2"/>
<path d="M44.1001 28.7438L36.0564 26.8688C37.5676 24.2943 38.4488 21.3989 38.628 18.419C38.8073 15.4392 38.2795 12.459 37.0876 9.7219C37.0291 9.59712 36.9317 9.49456 36.81 9.42968C36.6883 9.3649 36.5489 9.34127 36.4127 9.36237C36.2764 9.38356 36.1507 9.44824 36.0543 9.54687C35.958 9.64549 35.8962 9.77271 35.8782 9.9094C35.0376 16.3344 31.7006 22.1697 26.5895 26.1526C21.4784 30.1355 15.0044 31.9454 8.56888 31.1906C8.42778 31.1654 8.28228 31.1892 8.15656 31.2581C8.03084 31.3269 7.93241 31.4366 7.87766 31.5691C7.82291 31.7016 7.81512 31.8488 7.85562 31.9863C7.89612 32.1238 7.98238 32.2434 8.10013 32.325C9.41741 33.3437 10.8645 34.1823 12.4033 34.8188C13.1005 35.1105 13.8142 35.361 14.5407 35.5688C15.0564 35.7094 15.5626 35.8313 16.0876 35.9344C19.8555 36.6738 23.7596 36.2386 27.272 34.6875C29.0928 33.904 30.7766 32.8342 32.2595 31.5188C32.8782 31.725 37.4439 33.9844 40.8095 35.55C42.3002 33.4937 43.4143 31.1892 44.1001 28.7438Z" fill="#91FFAD"/>
<path d="M19.2937 35.9812C20.5781 34.6968 21.0562 33.0843 20.3437 32.353C19.6312 31.6218 17.9906 32.0624 16.6969 33.2905C16.4541 33.5281 16.1528 33.6974 15.8236 33.7814C15.4944 33.8653 15.1489 33.8609 14.8219 33.7687C13.7531 33.478 12.3094 33.178 12.0094 33.6187C11.9369 33.7669 11.9047 33.9316 11.9163 34.0962C11.9278 34.2608 11.9826 34.4195 12.075 34.5562L12.3281 34.7812C13.0441 35.0792 13.7766 35.3359 14.5219 35.5499C15.0375 35.6905 15.5437 35.8124 16.0687 35.9155C16.9972 36.0934 17.9371 36.2062 18.8812 36.253C19.0237 36.1702 19.1615 36.0793 19.2937 35.9812Z" fill="black"/>
<path d="M19.2939 35.9814C19.5391 35.7395 19.7618 35.4759 19.9595 35.1939C19.3396 34.9706 18.6694 34.9269 18.0258 35.0678C17.3823 35.2088 16.7916 35.5288 16.322 35.9908C17.1857 36.1519 18.0598 36.2522 18.9376 36.2908C19.0618 36.1939 19.1806 36.0907 19.2939 35.9814Z" fill="#EB459F"/>
<path d="M33.6281 24.2157C33.624 26.0079 33.02 27.7472 31.9125 29.1563C30.6251 30.4079 28.9544 31.1904 27.1687 31.3782C27.182 29.5841 27.7996 27.8468 28.9219 26.4469C30.1993 25.2012 31.8551 24.4162 33.6281 24.2157Z" fill="white"/>
<path d="M28.8937 26.4469C28.1661 27.2846 27.6573 28.2895 27.4125 29.3719C27.5081 29.5099 27.6329 29.6251 27.7781 29.7094C28.7156 30.1875 30.0656 29.3344 30.8812 27.8344C31.1503 27.3903 31.3243 26.8952 31.3921 26.3804C31.4599 25.8656 31.4199 25.3423 31.275 24.8438C30.3726 25.1959 29.5594 25.7433 28.8937 26.4469Z" fill="black"/>
</svg>
