<svg width="45" height="45" viewBox="0 0 45 45" fill="none" xmlns="http://www.w3.org/2000/svg">
<g clip-path="url(#clip0_85_1518)">
<rect width="45" height="45" rx="22.5" fill="#7269FF"/>
<path d="M19.4545 45.1443C30.7512 45.1443 39.9091 43.9354 39.9091 42.4443C39.9091 40.9531 30.7512 39.7443 19.4545 39.7443C8.15791 39.7443 -1 40.9531 -1 42.4443C-1 43.9354 8.15791 45.1443 19.4545 45.1443Z" fill="#1D2CC2"/>
<path d="M36.5954 46.2897C40.6847 46.2897 43.9999 45.6855 43.9999 44.9397C43.9999 44.194 40.6847 43.5898 36.5954 43.5898C32.5061 43.5898 29.1909 44.194 29.1909 44.9397C29.1909 45.6855 32.5061 46.2897 36.5954 46.2897Z" fill="#1D2CC2"/>
<path d="M26.9818 15.4033H16.7546L7.59091 22.2351L9.43182 24.3215C9.48214 24.382 9.54473 24.4311 9.61509 24.4663C9.68546 24.5015 9.76237 24.522 9.84091 24.526H26.9818V15.4033Z" fill="#FFF2A6"/>
<path d="M17.7773 16.017C16.6727 19.2489 14.0545 22.2761 10.6591 24.0352C10.3707 24.1813 10.0422 24.2283 9.72433 24.1694C9.40606 24.1101 9.11642 23.9481 8.90001 23.708L7.59091 22.2352L17.9 13.2352L17.7773 16.017Z" fill="#FFF2A6"/>
<path d="M24.4045 43.5898C32.0185 43.5898 38.1909 37.4174 38.1909 29.8034C38.1909 22.1894 32.0185 16.0171 24.4045 16.0171C16.7905 16.0171 10.6182 22.1894 10.6182 29.8034C10.6182 37.4174 16.7905 43.5898 24.4045 43.5898Z" fill="#1D2CC2"/>
<path d="M39.9091 42.4443H-1C0.145454 38.5579 6.11817 33.8943 12.7454 32.2579L35.7773 32.1352L36.1045 22.6034C40.2773 29.3943 39.9091 38.6806 39.9091 42.4443V42.4443Z" fill="#1D2CC2"/>
<path d="M17.7773 16.017C18.4727 20.8034 22.8091 24.4443 26.9409 25.8761H27.2273L39.8682 25.9988C39.948 26.0005 40.0269 25.9829 40.0981 25.9473C40.1693 25.9113 40.2306 25.8589 40.2773 25.7943L41.9545 23.7079L32.3409 15.4034L31.5227 13.4807H17.7773V16.017Z" fill="#FFF2A6"/>
<path d="M18.4759 14.4793C18.6371 14.6404 18.7275 14.8589 18.7275 15.0868C18.7275 15.3146 18.6371 15.5331 18.4759 15.6943L17.8684 16.3018L17.2609 15.6943C17.1812 15.6145 17.1181 15.52 17.0748 15.4157C17.0314 15.3113 17.0093 15.1997 17.0093 15.0868C17.0093 14.9738 17.0314 14.8622 17.0748 14.7583C17.1177 14.6539 17.1812 14.559 17.2609 14.4793C17.3407 14.3995 17.4356 14.3365 17.5395 14.2931C17.6438 14.2502 17.7555 14.2277 17.8684 14.2277C17.9813 14.2277 18.093 14.2502 18.1973 14.2931C18.3017 14.3365 18.3961 14.3995 18.4759 14.4793V14.4793Z" fill="black"/>
<path d="M42.4455 22.9716L33.4864 15.4034C34.8364 13.4397 34.7546 12.2125 32.8319 11.8443C28.741 11.067 20.8864 10.9852 17.9001 11.067L18.0228 14.3397L28.4546 23.6261C28.5847 23.7566 28.7614 23.8302 28.9455 23.8306L42.0364 24.0761C42.1125 24.0798 42.1882 24.0667 42.2585 24.0385C42.3293 24.0102 42.3931 23.9673 42.4455 23.9125C42.5142 23.8548 42.5695 23.7828 42.6075 23.7018C42.6455 23.6204 42.6652 23.5316 42.6652 23.442C42.6652 23.3524 42.6455 23.2637 42.6075 23.1822C42.5695 23.1012 42.5142 23.0292 42.4455 22.9716V22.9716Z" fill="#FF78B9"/>
<path d="M29.15 23.5852C29.1934 23.5369 29.2265 23.4805 29.2478 23.4195C29.2691 23.3586 29.2781 23.2935 29.2744 23.2289C29.2703 23.1642 29.2539 23.1012 29.2257 23.0427C29.1971 22.9847 29.1578 22.9327 29.1091 22.8897L19.7 14.4216C20.7636 12.3761 21.0091 11.067 17.9 11.067C14.7909 11.067 15.1182 11.8852 15.8136 14.4216L6.93639 21.7034C6.89343 21.7382 6.85783 21.7815 6.83124 21.8302C6.80506 21.8789 6.7887 21.9321 6.78298 21.9873C6.77725 22.0425 6.78215 22.0982 6.79811 22.1509C6.81406 22.2041 6.84024 22.2536 6.87501 22.2966C6.90978 22.3395 6.95315 22.3751 7.00183 22.4017C7.05051 22.4279 7.10368 22.4442 7.15891 22.45C7.21414 22.4557 7.26978 22.4508 7.32255 22.4348C7.37574 22.4189 7.42524 22.3927 7.4682 22.3579L17.5318 14.3397C17.5993 14.2792 17.6869 14.2461 17.7773 14.2461C17.8677 14.2461 17.9552 14.2792 18.0227 14.3397L28.4546 23.6261C28.5028 23.6695 28.5593 23.7026 28.6202 23.7239C28.6812 23.7452 28.7462 23.7542 28.8109 23.7505C28.8755 23.7468 28.9385 23.73 28.997 23.7018C29.0551 23.6731 29.1071 23.6339 29.15 23.5852V23.5852Z" fill="#D11583"/>
<path d="M39.1318 32.8306L27.5955 37.3306C27.5955 37.3306 29.0682 44.5306 29.1909 44.9806L43.9591 44.8579C42.8763 40.6574 41.2534 36.6143 39.1318 32.8306Z" fill="#1D2CC2"/>
<path d="M14.9955 28.167H14.9137L12.95 27.9624C12.7287 27.9223 12.5319 27.7972 12.4019 27.6135C12.2718 27.4302 12.219 27.2027 12.2546 26.9806C12.2644 26.8689 12.2971 26.7605 12.3507 26.6623C12.4039 26.5637 12.4771 26.4774 12.5655 26.4083C12.6534 26.3392 12.7549 26.2892 12.8633 26.261C12.9717 26.2328 13.0846 26.2271 13.1955 26.2442L15.0364 26.4897C15.1477 26.4946 15.2565 26.5224 15.3567 26.5711C15.4569 26.6194 15.5461 26.6881 15.619 26.7724C15.6918 26.8567 15.7466 26.9548 15.7801 27.0608C15.8133 27.1672 15.8247 27.2788 15.8137 27.3897C15.794 27.5963 15.7003 27.7886 15.5502 27.9313C15.3997 28.0745 15.2029 28.158 14.9955 28.167V28.167Z" fill="white"/>
<path d="M24.0773 28.5352H21.5C21.3102 28.4885 21.1416 28.3781 21.023 28.2226C20.9044 28.0672 20.8422 27.8757 20.8467 27.6802C20.8516 27.4846 20.9228 27.2965 21.0492 27.1467C21.1756 26.9974 21.349 26.8955 21.5409 26.8579H24.0773C24.1902 26.8579 24.3019 26.88 24.4062 26.9234C24.5101 26.9663 24.605 27.0297 24.6848 27.1095C24.7645 27.1893 24.828 27.2842 24.8709 27.3881C24.9143 27.4924 24.9364 27.6041 24.9364 27.717C24.9257 27.9375 24.8308 28.1457 24.6709 28.2983C24.5109 28.4505 24.2982 28.5356 24.0773 28.5352V28.5352Z" fill="white"/>
<path d="M19.4545 32.9943H19.3727L15.5272 32.667C15.3493 32.647 15.1775 32.5913 15.0212 32.5042C14.8649 32.4167 14.7279 32.2992 14.6174 32.1585C14.507 32.0178 14.4255 31.8562 14.3781 31.6836C14.3306 31.5113 14.318 31.3309 14.3409 31.1534C14.3556 30.9734 14.4071 30.7983 14.4926 30.6392C14.5785 30.48 14.696 30.3405 14.8379 30.2288C14.9803 30.1176 15.1439 30.037 15.319 29.9916C15.4937 29.9466 15.6761 29.9384 15.8545 29.967L19.5363 30.2534C19.7171 30.2587 19.8951 30.3 20.0599 30.3753C20.2244 30.4506 20.3721 30.5582 20.4944 30.6919C20.6163 30.8253 20.7104 30.9824 20.7705 31.153C20.8311 31.3236 20.8565 31.5044 20.8454 31.6852C20.8245 32.0399 20.6687 32.3729 20.4101 32.6163C20.1516 32.8597 19.8096 32.9947 19.4545 32.9943V32.9943Z" fill="#FFC619"/>
<path d="M19.4546 31.9715L15.6501 31.6443C15.5597 31.634 15.4762 31.5911 15.4157 31.5232C15.3555 31.4548 15.3224 31.3669 15.3228 31.2761C15.342 31.1824 15.3932 31.0981 15.468 31.0384C15.5429 30.9787 15.6362 30.9467 15.7319 30.9488C16.8365 31.1124 18.1046 31.1943 19.4955 31.2761C19.5859 31.2863 19.6694 31.3293 19.7299 31.3976C19.7901 31.4655 19.8232 31.5534 19.8228 31.6443C19.8052 31.7314 19.7598 31.8103 19.6935 31.8697C19.6273 31.9286 19.5434 31.9646 19.4546 31.9715V31.9715Z" fill="black"/>
<path d="M13.0727 28.0852C13.6152 28.0852 14.0545 27.6454 14.0545 27.1034C14.0545 26.5613 13.6152 26.1216 13.0727 26.1216C12.5307 26.1216 12.0909 26.5613 12.0909 27.1034C12.0909 27.6454 12.5307 28.0852 13.0727 28.0852Z" fill="black"/>
<path d="M21.5408 28.6579C22.0829 28.6579 22.5227 28.2185 22.5227 27.6761C22.5227 27.134 22.0829 26.6942 21.5408 26.6942C20.9984 26.6942 20.559 27.134 20.559 27.6761C20.559 28.2185 20.9984 28.6579 21.5408 28.6579Z" fill="black"/>
<path d="M29.15 44.817L28.1273 40.0306L27.7182 37.9442L26.9818 38.067C27.4727 40.5215 27.2273 43.2215 25.2636 45.0215L29.15 44.817Z" fill="black"/>
<path d="M14.2181 36.8806C10.0454 36.8806 4.84993 39.9488 2.14993 43.8761C5.46357 44.5716 11.0681 45.0625 17.5727 45.1443L17.8181 44.7761C20.3136 40.4397 18.7181 36.8806 14.2181 36.8806V36.8806Z" fill="#66BCFF"/>
<path d="M28.4955 44.1216C28.4153 44.1224 28.3376 44.0933 28.2774 44.0406C28.2169 43.9878 28.178 43.9145 28.1682 43.8352C28.0864 43.3852 27.9227 42.6897 27.7591 41.9125C27.3909 40.0306 26.9 37.6579 26.6546 36.5943C26.6423 36.5513 26.639 36.5063 26.6452 36.4617C26.6509 36.4176 26.6656 36.375 26.6889 36.3366C26.7119 36.2985 26.7425 36.265 26.7789 36.2392C26.8149 36.213 26.8563 36.1946 26.9 36.1852C26.9921 36.1594 27.0907 36.1709 27.1749 36.2167C27.2588 36.2625 27.3218 36.3394 27.35 36.4307C27.5955 37.4943 28.0455 39.867 28.4546 41.7897C28.6182 42.5261 28.7409 43.2216 28.8228 43.7125C28.835 43.7554 28.8383 43.8004 28.8322 43.845C28.8264 43.8892 28.8117 43.9317 28.7884 43.9702C28.7655 44.0082 28.7348 44.0418 28.6988 44.0676C28.6624 44.0937 28.6211 44.1121 28.5773 44.1216H28.4955Z" fill="black"/>
</g>
<defs>
<clipPath id="clip0_85_1518">
<rect width="45" height="45" rx="22.5" fill="white"/>
</clipPath>
</defs>
</svg>
