<svg width="45" height="45" viewBox="0 0 45 45" fill="none" xmlns="http://www.w3.org/2000/svg">
<g clip-path="url(#clip0_85_1480)">
<rect width="45" height="45" rx="22.5" fill="#FBECCE"/>
<path d="M29.7286 17.1757C30.3328 19.8513 26.9667 22.7858 21.7881 24.6846C16.6096 26.5834 11.7762 26.4108 10.9995 24.1667C10.2227 21.9227 11.6036 17.3483 15.2286 13.5507C18.8536 9.75309 21.7882 9.32153 24.8953 11.3066C28.0024 13.2918 29.1244 14.6727 29.7286 17.1757Z" fill="#201D40"/>
<path d="M13.1571 51.6993C12.0351 51.0088 12.8119 50.3183 13.1571 48.9374C12.3803 43.241 11.2583 39.7023 10.9131 36.4225C10.5679 33.1428 10.5678 31.1576 13.1571 29.9493C15.7464 28.741 17.9042 27.1874 18.5083 25.8928L24.2047 26.9285C29.8148 26.1517 31.4547 26.6696 34.1303 28.3094L38.2732 30.985C38.2732 30.985 40.7762 26.7559 41.294 26.238C41.8119 25.7201 42.7613 25.6338 44.2285 27.1011C45.6958 28.5683 45.9547 28.8273 45.0053 30.8124C44.0559 32.7975 41.8982 36.9404 40.7761 38.1487C39.6541 39.357 37.7553 39.5297 31.8863 37.113C32.2505 40.4955 32.3662 43.8995 32.2315 47.2975C32.4905 48.6785 32.6631 49.1963 32.1452 50.0594C28.3623 50.2588 24.6061 50.8077 20.925 51.6993C18.3711 52.3052 15.711 52.3052 13.1571 51.6993Z" fill="#2FA1C0"/>
<path d="M31.8867 37.113C31.8867 34.5237 31.6277 32.0207 31.6277 31.1576C31.6277 30.2945 31.973 30.7261 32.5771 31.9344C33.1813 33.1427 32.5771 37.3719 32.5771 37.3719L31.8867 37.113Z" fill="#207F9E"/>
<path d="M30.3328 41.7738C29.3834 41.6875 15.315 43.1547 12.2078 43.4137C12.5531 45.0535 12.812 46.866 13.1572 48.9375C13.5024 51.0089 12.0352 51.0089 13.1572 51.6994C15.7111 52.3052 18.3712 52.3052 20.9251 51.6994C23.5428 51.0866 26.1943 50.6257 28.8655 50.3184C28.8655 48.6785 28.6066 47.9881 29.4697 46.1756C30.3328 44.3631 31.3685 41.8601 30.3328 41.7738Z" fill="#2592B5"/>
<path d="M14.4519 40.5655L15.5739 40.3929C16.8686 40.2203 17.4728 41.0834 17.9043 43.0685C18.3358 45.0536 17.5591 46.003 15.6603 46.6072C13.7615 47.2113 12.8984 47.4703 11.0859 47.2114C9.27339 46.9524 9.18705 45.6578 8.41026 44.6221C7.63348 43.5864 8.15133 41.8602 8.41026 41.0834C8.66919 40.3066 8.66921 39.875 8.75552 36.5953C8.84183 33.3155 10.0501 31.503 12.7257 30.1221C15.2287 31.9346 15.0561 36.1637 14.7972 37.631L14.4519 40.5655Z" fill="#2FA1C0"/>
<path d="M24.2049 26.9285L18.5085 25.8928C17.9043 27.1874 15.6602 28.741 13.1573 29.9493L12.7257 30.1219H12.4668L12.8121 30.6398C15.8329 33.0564 16.0055 35.732 21.0977 34.5237C26.19 33.3154 27.8299 27.8779 30.3329 26.4969C28.2804 26.4037 26.2236 26.5487 24.2049 26.9285Z" fill="#2592B5"/>
<path d="M25.7585 37.1131C21.9609 35.3869 18.5085 32.4524 17.3002 27.3601C17.7317 26.756 17.3002 23.4762 16.3508 19.7649C15.4014 16.0536 16.696 13.4643 20.4936 12.6875C24.2912 11.9108 26.2764 14.4137 26.6216 17.6072C26.9669 20.8006 26.7942 24.5982 27.0532 26.6696C27.3121 28.7411 29.1246 35.128 25.7585 37.1131Z" fill="#9944B1"/>
<path d="M25.7585 37.1132C24.2809 36.4158 22.8904 35.5467 21.6156 34.5239C24.2049 33.6608 26.0174 31.4168 27.571 29.4316C27.9162 32.1935 28.0889 35.7322 25.7585 37.1132Z" fill="#A948BA"/>
<path d="M16.4373 20.1103C17.3116 19.6158 18.0418 18.902 18.5571 18.0397C19.0715 17.1766 19.352 16.1953 19.3718 15.1907C21.4795 16.7097 24.0256 17.4977 26.6218 17.4347C26.81 16.834 26.8548 16.197 26.7538 15.5756C26.6529 14.9533 26.4086 14.3638 26.0401 13.8529C25.6716 13.3419 25.1891 12.9242 24.6307 12.6316C24.0731 12.3399 23.4543 12.1819 22.8242 12.1698C18.9403 11.9972 16.1783 13.4645 15.5742 15.6222C14.97 17.7799 15.4016 19.3335 16.4373 20.1103Z" fill="#201D40"/>
<path d="M13.4159 15.6221C17.1272 12.1698 20.7522 10.8751 24.032 10.8751C23.4278 7.25013 20.7522 5.86919 17.4724 8.02692C14.1927 10.1847 10.3087 13.9823 13.4159 15.6221Z" fill="#812643"/>
<path d="M24.0321 10.7023C23.8854 10.1759 23.7127 9.65802 23.5142 9.14879C22.2196 6.64582 19.4577 8.372 17.3863 9.58034C15.3148 10.7887 12.2077 13.119 12.3803 14.5863C12.5806 15.0506 12.9517 15.4218 13.416 15.622C16.9547 12.2559 20.4934 10.9613 23.6869 10.875L24.0321 10.7023Z" fill="#66163A"/>
<path d="M17.3867 12.6876L24.5504 11.5656C25.3272 11.393 26.7944 11.134 26.7944 10.8751C26.7944 10.6162 26.2766 10.4436 24.0326 10.7025C21.6832 10.7802 19.3943 11.4646 17.3867 12.6876Z" fill="#812643"/>
<path d="M16.6345 44.6247C17.2974 44.547 17.7177 43.4854 17.5727 42.2546C17.4286 41.0239 16.7735 40.0891 16.1106 40.1668C15.4486 40.2445 15.0283 41.3061 15.1725 42.5369C15.3175 43.7676 15.9717 44.7024 16.6345 44.6247Z" fill="#9944B1"/>
<path d="M16.3507 45.3989C18.2719 45.247 20.1319 44.6566 21.7881 43.6727C22.8661 43.0953 23.6947 42.1433 24.1185 40.9971L24.8953 40.7382C24.9877 40.7209 25.0748 40.6829 25.149 40.6268C25.2241 40.5707 25.2846 40.4982 25.3269 40.4145C25.3683 40.3308 25.3898 40.2384 25.3907 40.1452C25.3907 40.0512 25.3692 39.9588 25.3269 39.8751C25.2777 39.7534 25.1948 39.6481 25.0878 39.5713C24.9807 39.4944 24.8547 39.4504 24.7227 39.4435L20.6661 39.8751L15.8328 40.9108L16.3507 45.3989Z" fill="#9944B1"/>
<path d="M45.3397 29.75C45.5641 29.5031 45.0583 28.6798 44.2108 27.9116C43.3632 27.1426 42.4949 26.7205 42.2705 26.9674C42.047 27.2142 42.5519 28.0376 43.3994 28.8066C44.247 29.5748 45.1153 29.9977 45.3397 29.75Z" fill="#9944B1"/>
<path d="M41.9848 26.4108C41.8122 26.6697 42.2437 27.4465 43.1068 28.2233L43.9699 27.3602C43.1068 26.5834 42.2437 26.1519 41.9848 26.4108Z" fill="#A948BA"/>
<path d="M45.0919 29.1727L47.2496 26.4971C47.487 26.0457 47.6061 25.5408 47.5949 25.0298H48.1991C48.3458 25.0315 48.4873 24.9798 48.5986 24.8848C48.71 24.789 48.7825 24.657 48.8032 24.512V23.8215C48.8161 23.6998 48.786 23.5781 48.7169 23.4763L47.5949 21.9227L44.1425 22.5268L41.8984 26.4971L45.0919 29.1727Z" fill="#9944B1"/>
<path d="M41.9848 26.4108C42.4949 25.4597 42.8729 24.4438 43.1068 23.39C43.3657 22.3542 43.3657 21.9227 44.2288 21.4911C45.0919 21.0596 46.3003 20.5417 46.9044 20.8007C47.5086 21.0596 48.5443 21.4911 48.3716 22.009C48.199 22.5269 46.9907 22.1816 46.5592 22.1816L43.5383 27.7917L41.9848 26.4108Z" fill="#A948BA"/>
<path d="M48.2854 22.5269C48.3718 23.0448 48.0265 23.1311 47.4223 23.39L46.3866 23.9079C46.4729 25.4614 46.3866 26.4108 44.5741 28.0507L43.7973 28.7412L43.1069 28.2233L42.4164 27.5328L42.848 26.5835L44.4878 22.5269C45.3932 22.2818 46.3167 22.1092 47.2497 22.009C47.7676 21.9227 48.1991 22.0091 48.2854 22.5269Z" fill="#A948BA"/>
<path d="M22.7375 20.1965C23.9458 20.1965 25.1541 20.1965 25.4993 20.5417C25.8446 20.887 25.3267 21.5774 24.4637 22.2679C23.6006 22.9584 23.9458 22.6132 22.91 21.7501C21.8743 20.887 21.7881 20.1965 22.7375 20.1965Z" fill="#471239"/>
<path d="M23.2557 20.2828L22.2199 20.4554C22.1336 20.7144 22.4789 21.3185 22.9104 21.7501C23.342 22.1816 24.1188 22.5269 24.464 22.2679L24.8956 21.9227C24.7437 21.555 24.521 21.221 24.2396 20.9396C23.9582 20.6583 23.6234 20.4347 23.2557 20.2828Z" fill="#802147"/>
<path d="M25.068 20.369C24.3024 20.2084 23.5188 20.1497 22.7377 20.1964C22.2198 20.1964 22.1335 20.4553 22.2198 20.8005H25.068C25.2406 20.8868 25.1543 20.6279 25.068 20.369Z" fill="white"/>
<path d="M22.7375 25.0298C23.1742 25.2145 23.6455 25.3034 24.1185 25.2887C24.4775 25.2076 24.8055 25.0281 25.0678 24.7709C25.1541 24.5983 25.2405 24.6846 25.2405 25.0298C25.1826 25.3353 25.0238 25.6124 24.7882 25.8161C24.5535 26.0198 24.2565 26.138 23.9458 26.1518C23.6541 26.1726 23.3632 26.1009 23.1147 25.9455C22.8669 25.7902 22.6745 25.5606 22.5649 25.2887C22.4786 25.0298 22.4786 24.8572 22.7375 25.0298Z" fill="#8C2DA6"/>
<path d="M14.4516 40.5655C14.7968 37.8899 14.7968 35.9912 15.401 36.509C16.0052 37.0269 16.0915 37.5447 15.6599 38.8393C15.2284 40.134 15.2284 40.4792 15.2284 40.4792L14.4516 40.5655Z" fill="#207F9E"/>
<path d="M14.4519 40.5655L10.4817 41.4286C9.70492 41.6875 9.79122 41.1696 10.3091 40.7381C10.8269 40.3065 12.0353 40.3066 13.2436 40.3929C14.452 40.4792 13.4162 39.9613 12.7257 39.4435C12.0353 38.9256 12.4668 38.8393 12.9847 38.6667C13.5025 38.4941 14.0204 39.1845 14.5383 40.0476L14.8835 40.4792L14.4519 40.5655Z" fill="#207F9E"/>
<path d="M38.2731 30.9851C37.5437 32.013 37.2062 33.2688 37.3236 34.5238C37.4099 35.7321 36.2879 34.9553 36.029 34.2649C35.7701 33.5744 37.9278 30.7262 37.9278 30.7262L38.2731 30.9851Z" fill="#207F9E"/>
</g>
<defs>
<clipPath id="clip0_85_1480">
<rect width="45" height="45" rx="22.5" fill="white"/>
</clipPath>
</defs>
</svg>
