<svg width="45" height="45" viewBox="0 0 45 45" fill="none" xmlns="http://www.w3.org/2000/svg">
<g clip-path="url(#clip0_85_1452)">
<rect width="45" height="45" rx="22.5" fill="#15AD75"/>
<path d="M29.8188 42.5924C29.3455 42.641 28.8696 42.5289 28.4676 42.2744C28.0656 42.0196 27.7608 41.6371 27.6021 41.1879C27.5863 41.143 26.043 36.7913 23.7575 32.0843C23.6356 31.8335 23.5644 31.5611 23.5476 31.2826C23.531 31.0042 23.5692 30.725 23.6603 30.4614C23.8439 29.9291 24.2314 29.4913 24.7374 29.2449C25.2434 28.9985 25.8263 28.9634 26.3579 29.1473C26.8899 29.3313 27.327 29.7195 27.5731 30.2258C29.0758 33.3369 30.4203 36.5227 31.6003 39.7702C31.7073 40.0729 31.7441 40.3963 31.708 40.7153C31.6719 41.0346 31.5642 41.3414 31.3927 41.6128C31.2213 41.8842 30.9904 42.1131 30.7177 42.2822C30.4453 42.4516 30.1378 42.5566 29.8188 42.5897V42.5924Z" fill="#2331B5"/>
<path d="M24.7487 21.9028C29.9617 21.9028 34.1878 17.6713 34.1878 12.4512C34.1878 7.23145 29.9617 3 24.7487 3C19.5356 3 15.3099 7.23145 15.3099 12.4512C15.3099 17.6713 19.5356 21.9028 24.7487 21.9028Z" fill="#8CD9FF"/>
<path d="M23.1819 18.4569C19.7349 17.5567 16.6433 17.5223 15.4555 18.2709C15.2969 18.3783 15.171 18.5278 15.0923 18.7027C15.0137 18.8775 14.9853 19.0709 15.0103 19.2613L15.6013 24.7143L26.7373 27.6347L29.9189 23.1667C30.0337 23.0131 30.1032 22.8308 30.1201 22.6398C30.137 22.4491 30.1005 22.2573 30.0145 22.0862C29.3411 20.841 26.6232 19.3568 23.1819 18.4569Z" fill="#B5E4FF"/>
<path d="M29.883 27.0694C30.2749 25.567 26.8397 23.3682 22.2109 22.1585C17.5822 20.9484 13.5121 21.1857 13.1205 22.6881C12.7287 24.1905 16.1638 26.3893 20.7926 27.599C25.4213 28.8091 29.4914 28.5718 29.883 27.0694Z" fill="#7AC5FF"/>
<path d="M13.2054 22.378C13.2844 22.0766 13.4329 21.7978 13.6391 21.5645C13.8457 21.3313 14.1039 21.1497 14.3932 21.0346C16.485 20.209 19.696 20.2673 22.5169 21.0079C25.3381 21.7488 28.167 23.262 29.5908 25.0088C29.7873 25.2505 29.9236 25.5354 29.9894 25.8395C30.0556 26.144 30.0488 26.4599 29.9702 26.761L29.8878 27.077L13.123 22.694L13.2054 22.378Z" fill="#7AC5FF"/>
<path d="M27.7072 26.9738C27.955 26.0249 25.3252 24.5158 21.8343 23.603C18.3431 22.6907 15.3122 22.7204 15.0648 23.6695C14.8174 24.6184 17.4469 26.1275 20.9381 27.0403C24.4293 27.9526 27.4598 27.9229 27.7072 26.9738Z" fill="#B5E4FF"/>
<path d="M27.6392 51.6003C23.6464 39.7994 27.7108 26.9923 27.7108 26.9923L21.3899 25.3171L15.3793 48.372L27.6392 51.6003Z" fill="#B5E4FF"/>
<path d="M3.11633 45.178C12.3617 36.839 15.0688 23.6734 15.0688 23.6734L21.3896 25.3169L15.379 48.3719L3.11633 45.178Z" fill="#B5E4FF"/>
<path d="M28.8856 51.4354C29.4034 49.4226 23.8188 46.2416 16.4113 44.3301C9.00395 42.4182 2.57913 42.5003 2.061 44.5127C1.54287 46.5251 7.12787 49.7062 14.5353 51.618C21.9427 53.5295 28.3675 53.4478 28.8856 51.4354Z" fill="#3F99F2"/>
<path d="M2.10869 44.472C2.214 44.0646 2.41754 43.6896 2.70142 43.3794C2.98495 43.0692 3.34073 42.8336 3.73666 42.6932C6.27128 41.801 11.3726 42.0984 16.6568 43.4898C21.9411 44.8808 26.5361 47.1082 28.323 49.1284C28.5995 49.4451 28.7942 49.8241 28.8904 50.2332C28.9866 50.6423 28.9812 51.069 28.8746 51.4754L28.7659 51.8868L2 44.8862L2.10869 44.472Z" fill="#3F99F2"/>
<path d="M14.6713 51.0933C9.00766 49.6119 4.19024 47.4931 3.88274 46.2455C3.54047 44.8515 8.84598 45.0641 15.7714 46.8747C22.6971 48.6853 27.4376 51.0984 26.4486 52.1471C25.5736 53.0845 20.3346 52.5745 14.6713 51.0933Z" fill="#2331B5"/>
<path d="M14.9918 28.8903L14.8831 28.649C14.0875 30.0852 13.5015 31.4816 14.6735 31.7976C15.9781 32.1479 18.5842 30.8815 22.3998 28.7178L22.3387 28.1231C17.6351 29.8304 14.4932 30.3134 14.9918 28.8903Z" fill="#5865F2"/>
<path d="M14.9918 28.8901L14.8831 28.6488C14.1142 30.053 13.5336 31.4177 14.605 31.7734C14.605 31.1257 14.8355 30.4246 15.22 29.5804C15.1582 29.5517 15.1032 29.5109 15.058 29.4599C15.0127 29.409 14.9783 29.3495 14.957 29.2847C14.9358 29.2199 14.9277 29.1517 14.9338 29.0839C14.9398 29.0161 14.9594 28.9502 14.9918 28.8901Z" fill="black"/>
<path d="M14.9816 29.3524L15.1777 29.8594C15.232 30.0052 15.3208 30.1355 15.4362 30.2395C15.5517 30.3434 15.6904 30.418 15.8406 30.4568C16.7395 30.6746 18.4495 30.3613 22.4001 28.7178L22.3394 28.1231C18.2507 29.6154 15.3448 30.1649 14.9816 29.3524Z" fill="black"/>
<path d="M22.5805 29.8992C22.5137 29.8992 22.4475 29.8837 22.3875 29.8543C22.3274 29.8249 22.2744 29.7821 22.2332 29.7294C21.8113 29.1303 21.6374 28.391 21.7482 27.6663C21.7529 27.6052 21.7704 27.5458 21.7995 27.4918C21.8285 27.4375 21.8683 27.3902 21.9166 27.3521C21.9645 27.3143 22.0202 27.2866 22.0793 27.2711C22.1387 27.2555 22.2005 27.2525 22.2612 27.262C22.3216 27.2714 22.3797 27.2933 22.4313 27.3264C22.483 27.3595 22.5272 27.4027 22.5616 27.4537C22.5957 27.5047 22.619 27.562 22.6302 27.6225C22.6413 27.6829 22.6396 27.7447 22.6258 27.8044C22.5498 28.2867 22.6609 28.7796 22.936 29.1826C23.0065 29.2764 23.0376 29.3946 23.0224 29.5113C23.0069 29.6278 22.9464 29.7338 22.8536 29.8064C22.775 29.8658 22.6791 29.8985 22.5805 29.8992Z" fill="black"/>
<path d="M14.6203 29.2673C14.5248 29.267 14.432 29.2356 14.3557 29.1782C14.279 29.1212 14.223 29.0405 14.1957 28.949C14.1683 28.8575 14.1714 28.7593 14.2038 28.6695C14.2362 28.5797 14.2969 28.5024 14.3763 28.4498C14.5663 28.3273 14.7648 28.2189 14.9703 28.1257C15.0767 28.0866 15.1941 28.0893 15.2984 28.1338C15.4027 28.1781 15.4864 28.2608 15.532 28.3647C15.5776 28.4687 15.582 28.5862 15.5442 28.6932C15.5064 28.8002 15.4291 28.8889 15.3281 28.9409C15.1671 29.0172 15.0119 29.106 14.8643 29.2062C14.7901 29.2487 14.7057 29.27 14.6203 29.2673Z" fill="black"/>
<path d="M16.9887 11.3578C17.1756 10.6388 17.5402 9.97858 18.0492 9.43817C18.5633 8.87447 19.1975 8.43432 19.9054 8.15078C20.2824 8.00091 20.6804 7.91146 21.0851 7.88514C21.534 7.85746 21.9809 7.96175 22.3711 8.18521C22.5703 8.30706 22.7431 8.46774 22.8798 8.65744C23.0165 8.8468 23.1137 9.06181 23.1664 9.28965C23.2589 9.69335 23.2042 10.117 23.0128 10.4842C22.9902 10.5278 22.9514 10.5608 22.9048 10.576C22.8582 10.5916 22.8076 10.5882 22.7634 10.5666C22.7394 10.5544 22.7181 10.5369 22.7016 10.5153C22.685 10.4937 22.6736 10.4684 22.6682 10.4417C22.6155 10.1477 22.5065 9.86618 22.3472 9.61336C22.2162 9.42872 22.0309 9.28965 21.8169 9.21539C21.315 9.06923 20.7789 9.09354 20.2925 9.28425C19.7167 9.4834 19.179 9.77875 18.7017 10.1578C18.1869 10.5446 17.7329 11.0064 17.3545 11.5276C17.3262 11.5684 17.2843 11.5981 17.2361 11.6109C17.1881 11.6241 17.1372 11.6197 17.0919 11.5988C17.0467 11.5782 17.0103 11.5417 16.989 11.4969C16.9677 11.452 16.963 11.4006 16.9755 11.3524L16.9887 11.3578Z" fill="black"/>
<path d="M20.6183 37.2878C23.3338 38.6684 25.9127 40.3031 28.3207 42.1701C28.5411 42.3513 28.7963 42.4863 29.0701 42.5667C29.3438 42.647 29.6311 42.671 29.9146 42.6376C30.1981 42.6041 30.4719 42.5137 30.7196 42.3716C30.9674 42.2298 31.1838 42.0391 31.3563 41.8116C31.5287 41.5837 31.6536 41.3235 31.7232 41.0464C31.7927 40.7692 31.8059 40.481 31.7616 40.1988C31.7171 39.9163 31.6165 39.6459 31.4653 39.4035C31.3141 39.1612 31.1156 38.9516 30.882 38.7879C26.8622 35.7348 23.877 34.1179 22.4424 33.4543C20.8357 32.7107 20.1623 32.6577 18.1208 32.8596C17.3067 32.9446 17.1025 33.2552 16.6252 34.7738C16.1479 36.2924 16.8638 36.7302 18.4601 36.5631C19.1281 36.4939 19.7036 36.8284 20.6183 37.2878Z" fill="#2331B5"/>
<path d="M12.7145 32.9205C12.0411 32.9205 11.7548 32.9549 10.9542 33.4514C10.6791 33.6222 10.4469 33.8538 10.2754 34.1286C10.193 34.2612 10.1134 34.3939 10.0367 34.5079C9.34985 35.6259 9.02108 36.146 9.07677 36.4833C9.15171 36.8137 9.26647 37.1337 9.4187 37.4365C9.54089 37.2434 9.65735 37.0497 9.76874 36.8549C10.4874 35.6921 11.7599 35.9523 12.2612 35.8993C12.7624 35.846 13.0061 34.7496 13.3457 33.9027C13.6849 33.0558 13.5101 32.9178 12.7145 32.9205Z" fill="#2331B5"/>
<path d="M21.9251 33.2259C21.2463 32.9765 20.8646 32.1323 20.6499 31.6118C20.4349 31.0916 20.0585 31.2455 19.6822 31.3995C19.3055 31.5534 19.2076 31.9145 19.7325 33.0959C20.2573 34.2774 21.9251 33.2259 21.9251 33.2259Z" fill="#2331B5"/>
</g>
<defs>
<clipPath id="clip0_85_1452">
<rect width="45" height="45" rx="22.5" fill="white"/>
</clipPath>
</defs>
</svg>
