<svg width="45" height="45" viewBox="0 0 45 45" fill="none" xmlns="http://www.w3.org/2000/svg">
<g clip-path="url(#clip0_85_1366)">
<rect width="45" height="45" rx="22.5" fill="#FFE75C"/>
<path d="M33.772 44.8893C33.3646 44.8838 32.9715 44.739 32.6581 44.4787C32.345 44.2184 32.1302 43.8586 32.0502 43.4594C31.4374 40.3368 30.2117 38.4983 28.2857 36.4263C27.9743 36.0829 27.8094 35.6314 27.8258 35.1683C27.8421 34.7052 28.0385 34.2665 28.3732 33.9458C28.5434 33.79 28.7427 33.6695 28.9598 33.591C29.1769 33.5125 29.4072 33.4774 29.6377 33.4882C29.8682 33.4993 30.0944 33.5557 30.3031 33.654C30.5117 33.7526 30.6988 33.8915 30.8537 34.0626C33.1008 36.4555 34.735 38.8777 35.4938 42.7882C35.5361 43.0143 35.5332 43.2466 35.4856 43.4716C35.438 43.6966 35.3467 43.9099 35.2165 44.0996C35.0864 44.2896 34.9203 44.4516 34.7274 44.5771C34.5348 44.7025 34.3192 44.7889 34.093 44.8309L33.772 44.8893Z" fill="#19B375"/>
<path d="M33.772 44.8895C33.367 44.8813 32.9765 44.7374 32.6631 44.4809C31.9248 43.9034 31.1217 43.4137 30.2701 43.0218C30.0594 42.9278 29.8691 42.7933 29.7104 42.6261C29.5513 42.4585 29.4273 42.2616 29.3444 42.0462C29.2619 41.8308 29.2225 41.6012 29.2286 41.3703C29.2347 41.1398 29.2861 40.9125 29.38 40.7018C29.474 40.4911 29.6085 40.3008 29.7758 40.142C29.9433 39.9833 30.1403 39.859 30.3556 39.7764C30.571 39.6935 30.8007 39.6541 31.0315 39.6602C31.262 39.6664 31.4894 39.7177 31.7001 39.8117C32.8359 40.3317 33.9042 40.9883 34.881 41.7669C35.167 41.994 35.375 42.3048 35.4757 42.6558C35.5764 43.0066 35.565 43.3804 35.4427 43.7245C35.3205 44.0688 35.0937 44.3662 34.794 44.5749C34.4946 44.7838 34.1371 44.8938 33.772 44.8895Z" fill="#19B375"/>
<path d="M30.7369 39.6656C31.6124 39.2571 32.8381 39.8116 34.2389 41.1248" stroke="black" stroke-linecap="round" stroke-linejoin="round"/>
<path d="M31.5835 22.3313C31.617 22.5902 31.5946 22.8534 31.517 23.1026C31.4393 23.3521 31.3089 23.5815 31.1341 23.7755C30.9593 23.9696 30.7448 24.1237 30.5049 24.227C30.2653 24.3303 30.0059 24.3805 29.745 24.3741H28.6944C28.1359 24.3636 27.6001 24.1505 27.1868 23.775C26.7736 23.3991 26.5107 22.8864 26.4473 22.3313L26.0388 18.771C26.0049 18.5122 26.0274 18.2489 26.105 17.9997C26.1827 17.7502 26.3131 17.5208 26.4879 17.3268C26.6627 17.1324 26.8772 16.9786 27.1171 16.8753C27.3567 16.772 27.6161 16.7218 27.8773 16.7282H28.9279C29.4844 16.7449 30.0167 16.9597 30.4287 17.3344C30.8408 17.7091 31.1055 18.2186 31.1749 18.771L31.5835 22.3313Z" fill="#808AFF"/>
<path d="M29.1904 19.6464H27.3519L26.9726 16.1153C26.8684 15.3151 26.482 14.5782 25.8826 14.0378C25.2832 13.4976 24.5107 13.1888 23.7041 13.1678H18.3637C17.9951 13.1608 17.6295 13.2329 17.2912 13.3797C16.9533 13.5268 16.6507 13.7445 16.4044 14.0185C16.1581 14.2925 15.9736 14.6164 15.8633 14.9681C15.7533 15.32 15.7203 15.6912 15.7664 16.0569L16.175 19.6464H13.6653L13.2275 15.7943C13.1645 15.3157 13.2054 14.8295 13.3475 14.3681C13.4896 13.907 13.7292 13.4818 14.0508 13.1217C14.3721 12.7616 14.7672 12.475 15.2093 12.2815C15.6515 12.0881 16.1301 11.9921 16.6127 12.0005H24.5796C25.6176 12.0271 26.6119 12.424 27.3826 13.1197C28.1533 13.8157 28.6497 14.7644 28.7819 15.7943L29.1904 19.6464Z" fill="#808AFF"/>
<path d="M30.7367 22.331C30.7703 22.5875 30.7484 22.8481 30.6725 23.0953C30.5966 23.3425 30.4685 23.5707 30.2972 23.7642C30.1256 23.9576 29.9146 24.1123 29.6786 24.2174C29.4422 24.3227 29.1862 24.3758 28.9277 24.3738H27.8768C27.3153 24.3641 26.7758 24.1523 26.3579 23.777C25.9397 23.4017 25.6709 22.8884 25.6006 22.331L25.2212 18.7707C25.1879 18.5142 25.2098 18.2536 25.2857 18.0064C25.3616 17.7592 25.4897 17.531 25.661 17.3376C25.8326 17.1441 26.0436 16.9894 26.2797 16.8843C26.516 16.779 26.772 16.7259 27.0308 16.7279H28.0811C28.6411 16.7434 29.1775 16.9576 29.5942 17.3317C30.0112 17.7058 30.2818 18.2157 30.3573 18.7707L30.7367 22.331Z" fill="black"/>
<path d="M37.0696 32.7493H29.0443C28.5412 32.7493 28.0588 32.5494 27.7031 32.1937C27.3474 31.8379 27.1475 31.3555 27.1475 30.8524C27.1475 30.3493 27.3474 29.8669 27.7031 29.5112C28.0588 29.1555 28.5412 28.9556 29.0443 28.9556H37.0696C37.5727 28.9556 38.055 29.1555 38.4108 29.5112C38.7665 29.8669 38.9664 30.3493 38.9664 30.8524C38.9664 31.3555 38.7665 31.8379 38.4108 32.1937C38.055 32.5494 37.5727 32.7493 37.0696 32.7493Z" fill="#19B375"/>
<path d="M24.5858 29.8224C28.6211 28.6347 30.8889 24.2628 29.6513 20.0573C28.4137 15.8518 24.1387 13.4054 20.1033 14.5929C16.0679 15.7806 13.8002 20.1528 15.0378 24.3583C16.2754 28.5638 20.5504 31.0102 24.5858 29.8224Z" fill="#3DDB7F"/>
<path d="M31.7292 33.8874C31.7849 35.0363 31.6052 36.1844 31.201 37.2612C30.7965 38.3381 30.1764 39.3206 29.3782 40.1488C28.5801 40.977 27.6208 41.6334 26.5598 42.0772C25.4987 42.5208 24.3579 42.7432 23.2079 42.7297C20.8301 42.7108 18.5488 41.7854 16.8297 40.1421C15.1106 38.4991 14.0833 36.262 13.957 33.8874C13.7819 29.0139 15.0659 25.0451 22.3907 25.0451C29.7156 25.0451 31.5541 29.0139 31.7292 33.8874Z" fill="#3DDB7F"/>
<path d="M18.5096 29.5976C18.0135 31.0859 17.1964 32.8661 16.5544 32.4575C15.9124 32.049 16.1166 30.6482 16.7587 29.5976C17.4007 28.5471 18.5096 29.5976 18.5096 29.5976Z" fill="black"/>
<path d="M30.3285 38.9651C29.6763 38.1036 28.8878 37.3545 27.9939 36.7472C27.9615 36.7262 27.925 36.7116 27.8868 36.7046C27.8486 36.6976 27.8095 36.6982 27.7715 36.7064C27.7336 36.7145 27.6977 36.73 27.6656 36.7522C27.6338 36.7741 27.6066 36.8021 27.5853 36.8348C27.5643 36.8675 27.55 36.9036 27.543 36.9419C27.536 36.9801 27.5366 37.0192 27.5445 37.0571C27.5527 37.0951 27.5681 37.131 27.5903 37.1631C27.6122 37.1949 27.6405 37.2223 27.6729 37.2433C28.5694 37.8387 29.3424 38.6015 29.9491 39.4904L30.3285 38.9651Z" fill="black"/>
<path d="M19.385 36.3388C19.3476 36.2679 19.2849 36.2133 19.209 36.1864C19.1334 36.1593 19.0505 36.1616 18.9764 36.1929C17.6988 36.8174 16.5732 37.7138 15.6788 38.8193L16.029 39.2862C16.8866 38.2012 17.9859 37.3319 19.2391 36.7473C19.3103 36.7097 19.3645 36.6469 19.3914 36.5714C19.4185 36.4958 19.4162 36.4129 19.385 36.3388Z" fill="black"/>
<path d="M31.5539 44.2181C31.6096 45.3822 31.4266 46.5457 31.0166 47.6366C30.6063 48.7274 29.9774 49.7231 29.1685 50.5621C28.3595 51.4011 27.3875 52.0659 26.3124 52.5156C25.237 52.9653 24.0811 53.1903 22.9158 53.1772C20.6492 53.1859 18.4687 52.309 16.8388 50.7337C15.209 49.1584 14.2585 47.0091 14.1902 44.7434C14.0735 40.1034 17.838 36.1345 22.5948 35.8719C27.3516 35.6092 31.3496 39.3154 31.5539 44.2181Z" fill="#3DDB7F"/>
<path d="M26.3305 51.1052C26.9433 56.3872 23.0912 60.5895 17.8967 60.4436C12.7022 60.2977 8.49991 56.183 8.03299 51.2511C7.56607 46.3192 11.2139 42.1753 16.2333 42.0294C21.2527 41.8835 25.7468 45.9107 26.3305 51.1052Z" fill="#3DDB7F"/>
<path d="M13.811 48.0993C13.8335 48.1507 13.8703 48.1945 13.9167 48.2254C13.9634 48.2566 14.0176 48.2735 14.0737 48.2744L14.2196 48.216C14.2835 48.1793 14.3308 48.1197 14.3524 48.0494C14.374 47.9788 14.3684 47.9029 14.3363 47.8367C13.5142 46.3095 12.3198 45.0147 10.8636 44.0721L10.4258 44.4807C11.8438 45.3792 13.0091 46.6247 13.811 48.0993Z" fill="black"/>
<path d="M14.9199 51.6306C15.5035 56.5916 11.8557 60.5604 6.95299 60.4437C2.05031 60.327 -1.91852 56.4165 -2.38544 51.7473C-2.49896 50.6567 -2.38428 49.5545 -2.04926 48.5106C-1.71395 47.4668 -1.16532 46.504 -0.438088 45.6834C0.289143 44.8631 1.17921 44.2027 2.17522 43.7445C3.17122 43.2861 4.25156 43.0401 5.34795 43.0217C10.0755 42.8758 14.3362 46.6987 14.9199 51.6306Z" fill="#3DDB7F"/>
<path d="M4.38505 52.3308C4.53096 56.9125 0.270302 60.5603 -4.95339 60.4436C-10.1771 60.3269 -14 56.7374 -14 52.4476C-14 48.1577 -9.9728 44.5391 -4.95339 44.4224C0.0660239 44.3056 4.26832 47.7784 4.38505 52.3308Z" fill="#3DDB7F"/>
<path d="M12.9937 43.1677C12.6616 43.1738 12.3325 43.1064 12.0298 42.9701C11.7269 42.8338 11.4582 42.6322 11.2428 42.3797C10.9337 42.036 10.735 41.6076 10.6726 41.1497C10.6101 40.6915 10.6869 40.2255 10.8926 39.8117C11.998 37.6343 13.4134 35.6292 15.0949 33.8584C15.2455 33.6681 15.434 33.5111 15.6485 33.3976C15.8627 33.2841 16.0985 33.2164 16.3407 33.1989C16.5826 33.1811 16.8257 33.2141 17.0542 33.2952C17.283 33.3766 17.4922 33.5044 17.6688 33.6708C17.8454 33.8374 17.9854 34.0388 18.08 34.262C18.1748 34.4855 18.2218 34.7263 18.2186 34.9688C18.2154 35.2116 18.1617 35.4509 18.061 35.6715C17.9603 35.8924 17.8147 36.0897 17.6338 36.2514C16.8458 37.0892 16.1236 37.9869 15.4743 38.9362C17.3892 38.4839 19.3442 38.22 21.3108 38.1483H21.34C21.5685 38.1445 21.7955 38.1862 22.0077 38.2708C22.2201 38.3557 22.4133 38.4818 22.5764 38.642C22.7393 38.8025 22.8689 38.9934 22.957 39.2044C23.0454 39.4151 23.0909 39.6415 23.0909 39.87C23.0947 40.1 23.0533 40.3285 22.9689 40.5424C22.8843 40.7563 22.7585 40.9515 22.5986 41.1167C22.439 41.2822 22.2478 41.4144 22.0369 41.5057C21.8259 41.5973 21.5991 41.6464 21.3692 41.6502C19.2388 41.6793 16.0871 42.263 13.7233 43.0509C13.4887 43.1321 13.2418 43.1715 12.9937 43.1677Z" fill="#19B375"/>
<path d="M8.76246 32.7493H6.07766C5.57455 32.7493 5.09216 32.5494 4.73642 32.1936C4.38068 31.8379 4.18079 31.3555 4.18079 30.8524C4.18079 30.3493 4.38068 29.8669 4.73642 29.5112C5.09216 29.1554 5.57455 28.9555 6.07766 28.9555H8.52899C10.0173 28.9555 12.7313 28.9555 15.7955 27.3213C16.0158 27.204 16.2568 27.1313 16.5055 27.1077C16.7538 27.0838 17.0045 27.1092 17.2429 27.1824C17.4816 27.2557 17.7031 27.375 17.8955 27.5341C18.0878 27.6931 18.2468 27.8886 18.3635 28.1092C18.5947 28.5522 18.6449 29.0676 18.5033 29.5468C18.3618 30.026 18.0396 30.4313 17.6048 30.6773C14.8806 32.1061 11.8377 32.819 8.76246 32.7493Z" fill="#19B375"/>
<path d="M9.81303 35.9594C9.40652 35.9632 9.00963 35.8339 8.68308 35.5917C8.35653 35.3495 8.1181 35.0072 8.00371 34.617C7.42005 32.7493 7.21578 32.7493 6.07766 32.7493C5.57455 32.7493 5.09216 32.5494 4.73642 32.1937C4.38068 31.8379 4.18079 31.3555 4.18079 30.8524C4.18079 30.3493 4.38068 29.8669 4.73642 29.5112C5.09216 29.1555 5.57455 28.9556 6.07766 28.9556C8.09126 28.9556 10.3675 29.3058 11.6224 33.5372C11.7589 34.0208 11.7011 34.5388 11.4613 34.9803C11.2214 35.4221 10.8184 35.7525 10.3383 35.901C10.1676 35.9495 9.99017 35.969 9.81303 35.9594Z" fill="#19B375"/>
<path d="M23.062 22.9733C22.9315 22.8035 22.8559 22.598 22.8454 22.3841C22.8349 22.1705 22.8901 21.9584 23.0036 21.7769C24.0542 19.9675 25.0172 19.9092 25.7176 19.9383C26.418 19.9675 26.9433 20.6387 26.3596 22.273C27.1767 23.1484 26.8265 23.9656 25.6884 24.0531C24.5503 24.1406 23.9083 24.0823 23.062 22.9733Z" fill="#91FFAD"/>
<path d="M25.3091 22.127H29.0445C31.5542 22.127 33.2468 21.9227 34.1222 20.9013C34.9977 19.8799 34.1514 18.7418 33.0717 19.413C31.9919 20.0842 31.1164 21.8935 32.5172 22.769C33.2176 23.2359 34.8226 23.4402 36.3401 22.5939C37.8576 21.7476 36.6028 20.4344 35.4646 21.3974C34.3265 22.3604 34.5016 24.3448 36.165 24.6367C37.0697 24.8118 38.2078 24.4907 38.7915 23.8195C39.3751 23.1483 39.0249 22.6522 38.4121 22.5647C37.7992 22.4771 36.0775 23.2067 36.0775 27.3215" stroke="#FF78B9" stroke-miterlimit="10" stroke-linecap="round"/>
<path d="M25.6008 21.5723C25.4742 21.7743 25.3032 21.945 25.1012 22.0713C24.899 22.1977 24.6708 22.2765 24.4335 22.3019C25.3674 22.2143 25.7468 22.7396 25.7468 22.7396" stroke="black" stroke-linecap="round" stroke-linejoin="round"/>
<path d="M19.7354 17.9828C19.7645 16.8739 20.4066 15.9984 21.2237 15.9984C22.0408 15.9984 22.7703 16.9322 22.8287 18.0704C22.8871 19.2085 22.2159 20.1423 21.3112 20.1423C20.4066 20.1423 19.7354 19.1209 19.7354 17.9828Z" fill="white"/>
<path d="M20.7858 18.0121C20.815 17.516 21.1068 17.1075 21.4862 17.1075C21.8656 17.1075 22.1866 17.5452 22.2158 18.0705C22.245 18.5958 21.9239 19.0335 21.5154 19.0044C21.1068 18.9752 20.7858 18.5666 20.7858 18.0121Z" fill="black"/>
<path d="M25.1924 17.983C24.8422 16.9324 25.1049 16.1445 25.7177 16.1445C26.3306 16.1445 27.1768 17.02 27.5562 18.0705C27.9356 19.1211 27.7313 19.9674 27.0601 19.9674C26.3889 19.9674 25.5426 19.0627 25.1924 17.983Z" fill="white"/>
<path d="M26.0969 18.0122C25.951 17.5745 26.0677 17.2243 26.3304 17.2243C26.593 17.2243 26.9724 17.6037 27.1475 18.0706C27.3226 18.5375 27.235 18.9169 26.9432 18.8877C26.6514 18.8585 26.272 18.5083 26.0969 18.0122Z" fill="black"/>
<path d="M21.2233 15.9984C20.5521 15.9984 19.9684 16.6112 19.7933 17.4867C20.9023 17.37 21.8361 17.3408 22.6824 17.3116C22.4198 16.5529 21.8653 15.9984 21.2233 15.9984Z" fill="#3442D9"/>
<path d="M25.7176 16.1445C25.2215 16.1445 24.9588 16.6698 25.0464 17.3993C25.8775 17.4694 26.699 17.6261 27.4977 17.8662C27.06 16.9032 26.3012 16.1445 25.7176 16.1445Z" fill="#3442D9"/>
<path d="M19.9394 15.9984C20.7524 15.8014 21.5984 15.7816 22.4199 15.94" stroke="black" stroke-linecap="round" stroke-linejoin="round"/>
<path d="M25.0463 15.9984C25.6215 15.9056 26.2104 15.9456 26.768 16.1152" stroke="black" stroke-linecap="round" stroke-linejoin="round"/>
<path d="M17.4006 22.331C17.4342 22.5875 17.412 22.8481 17.3361 23.0953C17.2602 23.3425 17.1324 23.5707 16.9608 23.7642C16.7895 23.9576 16.5785 24.1123 16.3421 24.2174C16.1061 24.3227 15.8498 24.3758 15.5913 24.3738H14.5407C13.9789 24.3641 13.4396 24.1523 13.0214 23.777C12.6036 23.4017 12.3348 22.8884 12.2645 22.331L11.8851 18.7707C11.8518 18.5142 11.8737 18.2536 11.9496 18.0064C12.0254 17.7592 12.1536 17.531 12.3249 17.3376C12.4965 17.1441 12.7074 16.9894 12.9435 16.8843C13.1799 16.779 13.4358 16.7259 13.6944 16.7279H14.745C15.305 16.7434 15.8411 16.9576 16.2581 17.3317C16.6751 17.7058 16.9453 18.2157 17.0212 18.7707L17.4006 22.331Z" fill="black"/>
<path d="M16.2333 22.331C16.2665 22.5875 16.2446 22.8481 16.1688 23.0953C16.0929 23.3425 15.9651 23.5707 15.7935 23.7642C15.6219 23.9576 15.4112 24.1123 15.1748 24.2174C14.9384 24.3227 14.6825 24.3758 14.4239 24.3738C13.8622 24.3641 13.3229 24.1523 12.9047 23.777C12.4865 23.4017 12.2177 22.8884 12.1477 22.331L11.7683 18.7707C11.735 18.5142 11.7569 18.2536 11.8328 18.0064C11.9087 17.7592 12.0365 17.531 12.2081 17.3376C12.3794 17.1441 12.5904 16.9894 12.8268 16.8843C13.0629 16.779 13.3191 16.7259 13.5776 16.7279C14.1377 16.7434 14.6737 16.9576 15.0908 17.3317C15.5075 17.7058 15.778 18.2157 15.8539 18.7707L16.2333 22.331Z" fill="#5865F2"/>
<path d="M9.05432 29.5976C9.36891 29.721 9.65373 29.9096 9.89011 30.1512C10.1265 30.3925 10.3092 30.6811 10.4259 30.9984" stroke="black" stroke-linecap="round" stroke-linejoin="round"/>
<path d="M12.8478 33.4791L11.5638 31.7865C10.4257 30.2106 9.81282 30.3274 8.44124 30.3274C5.84399 30.3274 5.72726 32.1659 6.36928 33.3332C6.67453 33.8115 6.82715 34.3712 6.80702 34.9382C6.36928 35.3468 5.90236 35.7261 5.93154 36.0471C5.96072 36.3682 6.31091 36.66 6.80702 36.3973C7.30312 36.1347 7.85759 35.9596 7.97432 35.23C8.05603 35.5936 8.08551 35.9672 8.06187 36.339C8.06187 37.2144 8.96653 37.302 10.0171 37.302C11.0677 37.302 11.9432 37.2436 11.9432 35.6678C11.9359 35.2181 11.897 34.7695 11.8264 34.3254C12.0231 34.4602 12.2604 34.5221 12.4976 34.5005C12.5966 34.5075 12.6949 34.4832 12.7787 34.4307C12.8627 34.3782 12.9278 34.3006 12.9645 34.2086C13.0188 34.089 13.0363 33.9559 13.0156 33.8263C12.9949 33.6968 12.9365 33.576 12.8478 33.4791Z" fill="#91FFAD"/>
<path d="M40.2797 27.3214H33.0424L34.4724 36.0179H38.8498L40.2797 27.3214Z" fill="white"/>
<path d="M38.9665 27.3214H35.0269L35.8148 36.0179H38.1786L38.9665 27.3214Z" fill="#FFF2A6"/>
<path d="M40.4257 26.621H32.8965L32.4588 27.3214H40.8342L40.4257 26.621Z" fill="#8CD9FF"/>
<path d="M40.0465 28.8097C40.7469 28.8681 40.7466 29.3642 40.8342 29.9478C40.9217 30.5315 40.8636 30.7941 40.28 31.2319C39.6963 31.6696 39.054 31.7863 38.2077 31.8155C38.1146 31.8158 38.0221 31.7969 37.9369 31.7595C37.8514 31.7221 37.7747 31.6673 37.7113 31.5987C37.6483 31.5301 37.6001 31.449 37.5701 31.3609C37.54 31.2724 37.5286 31.1788 37.5368 31.086C37.5368 30.7941 37.566 30.3856 38.9668 30.0938C39.2811 30.0418 39.586 29.9435 39.8714 29.8019L40.0465 28.8097Z" fill="#3DDB7F"/>
<path d="M40.3087 31.0859C40.6297 31.7279 40.6589 32.0781 40.5713 32.4283C40.4838 32.7785 40.2503 32.9536 39.8418 33.1578C39.4332 33.3621 38.8204 33.508 38.5286 33.2746C38.4428 33.2107 38.3753 33.1254 38.333 33.0274C38.2904 32.9293 38.2744 32.822 38.286 32.716C38.298 32.6098 38.3371 32.5085 38.4001 32.4222C38.4632 32.3358 38.5475 32.2675 38.6453 32.224L39.5499 31.8154L39.6375 31.1442L40.3087 31.0859Z" fill="#3DDB7F"/>
<path d="M39.9294 32.9245C40.1921 33.3914 40.3963 33.8583 40.017 34.3252C39.6376 34.7922 39.3458 34.5587 39.1123 34.3544L39.3458 32.9245H39.9294Z" fill="#3DDB7F"/>
<path d="M25.9513 38.2356C25.8337 37.9561 25.642 37.7139 25.3969 37.5353C24.8293 37.1419 24.161 36.9192 23.4708 36.8932C23.737 36.452 23.9523 35.9822 24.1128 35.4925C24.1476 35.3568 24.1344 35.2129 24.0761 35.0857C24.0177 34.9581 23.9173 34.8545 23.7918 34.7921C23.659 34.739 23.5114 34.7364 23.3771 34.7848C23.2426 34.8332 23.1305 34.9293 23.0623 35.0547C22.8624 35.4478 22.6382 35.8278 22.3911 36.1929C21.9174 36.9621 21.1975 37.5484 20.3483 37.8563C20.2123 37.9027 20.0967 37.9952 20.0223 38.1177C19.9476 38.2406 19.9184 38.3854 19.9397 38.5275L20.4358 41.5333C20.4638 41.6722 20.5415 41.7962 20.6541 41.8823C20.767 41.9681 20.9071 42.0101 21.0487 42.0002C21.9533 41.8835 22.7121 41.5041 23.0623 40.9496C23.8508 40.9175 24.6346 41.0882 25.3385 41.4457C25.8054 41.65 26.2723 41.7084 26.3599 40.8329C26.4539 39.9463 26.3132 39.0504 25.9513 38.2356Z" fill="#91FFAD"/>
<path d="M31.3205 42.438C30.6834 42.1229 30.0058 41.897 29.3069 41.7668C29.1782 41.7505 29.058 41.6936 28.9634 41.6043C28.8691 41.5153 28.8055 41.3986 28.7816 41.2707C28.5989 40.3144 28.2321 39.4028 27.7018 38.5859C27.6569 38.5159 27.6408 38.431 27.6572 38.3493C27.6735 38.2676 27.7211 38.1955 27.7894 38.1482C28.2563 37.8564 29.1026 37.8855 30.6201 39.1112C30.8979 39.3975 31.1337 39.7217 31.3205 40.0742C31.741 40.2558 32.0938 40.5648 32.3293 40.9573C32.5648 41.3501 32.6713 41.8065 32.6337 42.2629C32.6217 42.5697 32.5003 42.8618 32.2917 43.0865C32.083 43.3115 31.8005 43.4539 31.4956 43.4886C31.4632 43.1346 31.4048 42.7836 31.3205 42.438Z" fill="#91FFAD"/>
<path d="M21.3697 39.724C21.2821 38.761 20.9028 38.1482 20.144 38.2065L18.86 38.3233L19.5312 41.7668L20.7277 41.6793H20.7569C21.3113 41.6209 21.4572 40.7162 21.3697 39.724Z" fill="#19B375"/>
<path d="M14.2492 21.981L13.3154 20.6386H14.6578L14.2492 21.981Z" fill="#FF78B9"/>
<path d="M16.7584 23.3525C18.7428 25.337 21.2525 25.3078 22.4198 25.3078" stroke="black" stroke-linecap="round" stroke-linejoin="round"/>
<path d="M22.7992 24.8992H22.0113C21.7697 24.8992 21.5735 25.0944 21.5735 25.3355C21.5735 25.5765 21.7697 25.7718 22.0113 25.7718H22.7992C23.0411 25.7718 23.237 25.5765 23.237 25.3355C23.237 25.0944 23.0411 24.8992 22.7992 24.8992Z" fill="white"/>
<path d="M12.79 39.724C12.7331 39.7272 12.6768 39.712 12.6292 39.6802C12.582 39.6487 12.5461 39.6026 12.5274 39.5489C12.4973 39.4791 12.4962 39.4003 12.5233 39.3297C12.5504 39.2588 12.6044 39.2013 12.6733 39.1695C13.805 38.7542 14.9656 38.4227 16.146 38.1773C16.1843 38.1688 16.2239 38.1682 16.2625 38.1755C16.3013 38.1825 16.338 38.1977 16.3707 38.2193C16.4034 38.2412 16.4314 38.2695 16.453 38.3022C16.4743 38.3352 16.4892 38.3719 16.4962 38.4107C16.5076 38.4837 16.4933 38.5584 16.4562 38.6223C16.4189 38.6859 16.3608 38.735 16.2919 38.7609C15.1427 38.9918 14.0116 39.3037 12.9068 39.6948L12.79 39.724Z" fill="black"/>
<path d="M23.2078 38.3816C23.2078 38.4589 23.2387 38.5333 23.2933 38.5879C23.3482 38.6428 23.4223 38.6734 23.4996 38.6734C25.3673 38.6734 26.1844 39.1987 26.3595 39.724C26.335 39.5174 26.2959 39.3125 26.2428 39.1112C26.1996 38.9436 26.1159 38.7896 25.9988 38.6623C25.8818 38.5351 25.735 38.4385 25.5716 38.3816C24.9022 38.1691 24.2018 38.0705 23.4996 38.0898C23.4602 38.0851 23.4203 38.0895 23.3829 38.1023C23.3453 38.1154 23.3111 38.1367 23.2831 38.1648C23.2548 38.1931 23.2335 38.2269 23.2206 38.2646C23.2075 38.3022 23.2031 38.3422 23.2078 38.3816Z" fill="black"/>
<path d="M30.7077 40.1617L30.5618 39.9574C30.4629 39.8217 30.3327 39.7114 30.1824 39.6364C28.6649 38.8776 28.4899 39.257 28.3148 39.7239C28.3731 39.8406 28.4023 39.9866 28.4607 40.1033C28.9568 39.6072 29.3945 39.6364 30.6202 40.2784C30.8536 40.4243 30.7077 40.1617 30.7077 40.1617Z" fill="black"/>
<path d="M10.0173 37.302H10.3383C10.6038 35.9567 10.5539 34.5682 10.1924 33.2456C10.1719 33.1712 10.1252 33.1064 10.061 33.0635C9.99655 33.0206 9.91892 33.0025 9.84217 33.0121C9.80306 33.0221 9.7663 33.0402 9.73419 33.065C9.70209 33.0898 9.67583 33.121 9.65657 33.1569C9.63731 33.1925 9.62564 33.2319 9.62243 33.2722C9.61951 33.3127 9.62476 33.3533 9.63789 33.3915C9.97758 34.6685 10.0176 36.0069 9.75462 37.302H10.0173Z" fill="black"/>
</g>
<defs>
<clipPath id="clip0_85_1366">
<rect width="45" height="45" rx="22.5" fill="white"/>
</clipPath>
</defs>
</svg>
