<svg width="45" height="45" viewBox="0 0 45 45" fill="none" xmlns="http://www.w3.org/2000/svg">
<g clip-path="url(#clip0_105_37)">
<rect width="45" height="45" rx="22.5" fill="#5B40FF"/>
<path d="M4.00664 22.8841C6.23219 22.8841 8.03635 21.08 8.03635 18.8544C8.03635 16.6289 6.23219 14.8247 4.00664 14.8247C1.78109 14.8247 -0.0230713 16.6289 -0.0230713 18.8544C-0.0230713 21.08 1.78109 22.8841 4.00664 22.8841Z" fill="#B32FB3"/>
<path d="M10.6496 15.191C10.5061 15.1896 10.3678 15.1377 10.2588 15.0445L10.1123 14.8979C9.57474 14.3567 8.93556 13.927 8.23141 13.6336C7.52728 13.3402 6.77209 13.1889 6.00928 13.1884C5.86677 13.1884 5.73011 13.1318 5.62936 13.031C5.5286 12.9302 5.47198 12.7936 5.47198 12.6511C5.47826 12.5128 5.53763 12.3824 5.63774 12.2868C5.73782 12.1913 5.8709 12.1381 6.00928 12.1382C6.91142 12.1349 7.80531 12.3102 8.63943 12.6539C9.47354 12.9976 10.2314 13.503 10.8694 14.1408L11.0159 14.2874C11.1103 14.3909 11.1626 14.5259 11.1626 14.6659C11.1626 14.806 11.1103 14.941 11.0159 15.0445C10.9168 15.138 10.7858 15.1904 10.6496 15.191Z" fill="#270813"/>
<path d="M20.443 11.3567C17.9917 11.3552 15.5722 11.9119 13.3681 12.9847C11.164 14.0575 9.2332 15.6181 7.72206 17.5482C6.21094 19.4783 5.15919 21.7272 4.64661 24.1243C4.13403 26.5214 4.17408 29.0038 4.76374 31.3831H36.0978C38.6133 21.199 30.9202 11.3567 20.443 11.3567Z" fill="#B32FB3"/>
<path d="M20.443 11.3567C16.9041 11.3457 13.4611 12.5048 10.6495 14.6537C15.4584 19.5157 19.3986 25.1658 22.2991 31.3587H36.0978C38.6133 21.1989 30.9202 11.3567 20.443 11.3567Z" fill="url(#paint0_linear_105_37)"/>
<path d="M34.7057 28.9164L34.8522 28.7943C35.144 28.5896 35.4899 28.4757 35.8462 28.467C36.2025 28.4583 36.5535 28.5552 36.8548 28.7455C38.9308 30.0399 39.4681 32.5554 39.4681 33.8986C39.4681 34.3131 39.3034 34.7107 39.0101 35.0037C38.7171 35.297 38.3195 35.4617 37.905 35.4617C37.4881 35.4617 37.0881 35.2978 36.7911 35.0054C36.4941 34.7129 36.3239 34.3155 36.3175 33.8986C36.3175 33.8742 36.2687 32.0425 35.1208 31.3831H33.5334V31.261C33.537 30.8067 33.6448 30.3592 33.8479 29.9529C34.0511 29.5465 34.3445 29.192 34.7057 28.9164Z" fill="#EB3EEB"/>
<path d="M40.8846 35.4617H40.909C41.3234 35.4617 41.721 35.2971 42.0144 35.0038C42.3074 34.7107 42.472 34.3131 42.472 33.8987C42.472 32.531 41.8859 29.8934 39.6634 28.6234C39.2971 28.4215 38.8658 28.3723 38.4633 28.4866C38.0608 28.601 37.7197 28.8695 37.5143 29.234C37.41 29.4132 37.3423 29.6113 37.3155 29.8169C37.2886 30.0224 37.3028 30.2313 37.3572 30.4313C37.4119 30.6313 37.5057 30.8185 37.6332 30.9819C37.7607 31.1453 37.9197 31.2817 38.1004 31.3832C39.2483 32.0426 39.3215 33.8743 39.3215 33.8987C39.3215 34.3131 39.4861 34.7107 39.7794 35.0038C40.0725 35.2971 40.4701 35.4617 40.8846 35.4617Z" fill="#EB3EEB"/>
<path d="M43.8885 35.4617C44.3054 35.4617 44.7054 35.2978 45.0024 35.0055C45.2994 34.7129 45.4696 34.3155 45.476 33.8986C45.476 32.531 44.8654 29.8934 42.643 28.6234C42.2815 28.4661 41.8746 28.4489 41.5012 28.575C41.1278 28.7011 40.8147 28.9617 40.623 29.3059C40.431 29.6502 40.3739 30.0535 40.463 30.4374C40.5519 30.8213 40.7805 31.1584 41.1043 31.3831C42.2522 32.0425 42.301 33.8742 42.301 33.8986C42.3135 34.3133 42.4857 34.7075 42.7812 34.9986C43.0769 35.2897 43.4736 35.4556 43.8885 35.4617Z" fill="#EB3EEB"/>
<path d="M39.4681 34.8999C39.3321 34.8999 39.2016 34.846 39.1054 34.7497C39.0092 34.6535 38.9552 34.5231 38.9552 34.3871V33.8986C38.9325 32.6642 38.5598 31.4616 37.8806 30.4306C37.8389 30.3751 37.8088 30.3117 37.7925 30.2442C37.7758 30.1768 37.7732 30.1066 37.7846 30.0381C37.7961 29.9696 37.8213 29.9041 37.8589 29.8457C37.8963 29.7872 37.9453 29.7369 38.0027 29.698C38.117 29.62 38.257 29.5893 38.3935 29.612C38.53 29.6348 38.6526 29.7093 38.7354 29.8201C39.5414 31.0295 39.9824 32.4454 40.0054 33.8986V34.3871C40.0054 34.4564 39.9915 34.5253 39.9641 34.589C39.9367 34.653 39.8969 34.7107 39.8466 34.7585C39.7963 34.8067 39.737 34.8438 39.6718 34.8682C39.6068 34.8924 39.5374 34.9034 39.4681 34.8999Z" fill="#270813"/>
<path d="M42.472 34.9C42.4027 34.9034 42.3333 34.8924 42.2684 34.8682C42.2032 34.8438 42.1438 34.8067 42.0935 34.7586C42.0432 34.7107 42.0034 34.6531 41.976 34.5891C41.9487 34.5253 41.9347 34.4565 41.9347 34.3871V33.8987C41.923 32.6625 41.5496 31.4568 40.8602 30.4307C40.8008 30.3767 40.7544 30.3102 40.7241 30.2359C40.6938 30.1617 40.6807 30.0816 40.6853 30.0016C40.6902 29.9215 40.7126 29.8436 40.7515 29.7734C40.7903 29.7032 40.8443 29.6426 40.9095 29.596C40.9747 29.5494 41.0494 29.518 41.1286 29.5041C41.2074 29.4902 41.2885 29.4941 41.3657 29.5156C41.4429 29.5371 41.5144 29.5756 41.5748 29.6283C41.6353 29.681 41.6832 29.7465 41.7149 29.8201C42.5373 31.0231 42.9876 32.4416 43.0093 33.8987V34.3871C43.0093 34.4565 42.9954 34.5253 42.9681 34.5891C42.9407 34.6531 42.9009 34.7107 42.8506 34.7586C42.8003 34.8067 42.7409 34.8438 42.6757 34.8682C42.6108 34.8924 42.5414 34.9034 42.472 34.9Z" fill="#270813"/>
<path d="M0.147864 28.9164L0.318821 28.7943C0.610597 28.5896 0.95642 28.4757 1.31274 28.467C1.66909 28.4583 2.02004 28.5552 2.32147 28.7455C4.37295 30.0399 4.93467 32.5554 4.93467 33.8986C4.93467 34.3131 4.76999 34.7107 4.47687 35.0037C4.18373 35.297 3.78618 35.4617 3.37163 35.4617H3.34721C2.93266 35.4617 2.53509 35.297 2.24197 35.0037C1.94885 34.7107 1.78417 34.3131 1.78417 33.8986C1.78417 33.8742 1.7109 32.0425 0.563046 31.3831H-0.999993V31.261C-1.00099 30.8084 -0.898004 30.3616 -0.698986 29.9551C-0.499967 29.5486 -0.210243 29.1932 0.147864 28.9164Z" fill="#EB3EEB"/>
<path d="M6.35114 35.4617C6.76796 35.4617 7.1681 35.2978 7.4651 35.0055C7.76213 34.7129 7.93221 34.3155 7.9386 33.8986C7.9386 32.531 7.32804 29.8934 5.1056 28.6234C4.74424 28.4661 4.33729 28.4489 3.96389 28.575C3.59052 28.7011 3.27743 28.9617 3.08552 29.3059C2.8936 29.6502 2.8366 30.0535 2.92557 30.4374C3.01457 30.8213 3.24319 31.1584 3.56698 31.3831C4.71484 32.0425 4.76368 33.8742 4.76368 33.8986C4.77621 34.3133 4.94824 34.7075 5.24393 34.9986C5.53963 35.2897 5.93623 35.4556 6.35114 35.4617Z" fill="#EB3EEB"/>
<path d="M9.35512 35.4617C9.76967 35.4617 10.1672 35.2971 10.4604 35.0038C10.7535 34.7107 10.9182 34.3131 10.9182 33.8987C10.9182 32.531 10.332 29.8934 8.10957 28.6234C7.74316 28.4215 7.31184 28.3723 6.90938 28.4866C6.50692 28.601 6.16589 28.8695 5.9604 29.234C5.85614 29.4132 5.78856 29.6113 5.76162 29.8169C5.73466 30.0224 5.74887 30.2313 5.80343 30.4313C5.85797 30.6313 5.95178 30.8185 6.07936 30.9819C6.20692 31.1453 6.36574 31.2817 6.54654 31.3832C7.69439 32.0426 7.76766 33.8743 7.76766 33.8987C7.77408 34.3156 7.94414 34.7129 8.24116 35.0055C8.53817 35.2978 8.9383 35.4617 9.35512 35.4617Z" fill="#EB3EEB"/>
<path d="M4.93465 34.8999C4.79865 34.8999 4.66818 34.846 4.57201 34.7497C4.47583 34.6535 4.42178 34.5231 4.42178 34.3871V33.8986C4.4001 32.6604 4.01823 31.4553 3.32277 30.4306C3.28218 30.3736 3.25368 30.3089 3.23905 30.2404C3.22442 30.172 3.22396 30.1013 3.23768 30.0326C3.25141 29.964 3.27903 29.8989 3.31889 29.8413C3.35872 29.7838 3.40991 29.735 3.46931 29.698C3.58365 29.62 3.72367 29.5893 3.86014 29.612C3.99664 29.6348 4.11907 29.7093 4.20198 29.8201C5.00802 31.0295 5.4489 32.4454 5.47195 33.8986V34.3871C5.47202 34.4564 5.458 34.5253 5.4307 34.589C5.40342 34.653 5.36344 34.7107 5.3132 34.7585C5.26297 34.8067 5.2035 34.8438 5.13844 34.8682C5.07335 34.8924 5.00404 34.9034 4.93465 34.8999Z" fill="#270813"/>
<path d="M7.93863 34.8999C7.86924 34.9034 7.79993 34.8924 7.73484 34.8682C7.66978 34.8438 7.61031 34.8067 7.56008 34.7585C7.50984 34.7107 7.46986 34.653 7.44258 34.589C7.41528 34.5253 7.40126 34.4564 7.40133 34.3871V33.8986C7.37867 32.6642 7.00603 31.4616 6.32674 30.4306C6.285 30.3751 6.25499 30.3117 6.23848 30.2442C6.22199 30.1768 6.21938 30.1066 6.23079 30.0381C6.24221 29.9696 6.26744 29.9041 6.30491 29.8457C6.3424 29.7872 6.39136 29.7369 6.44885 29.698C6.5632 29.62 6.70321 29.5893 6.83969 29.612C6.97618 29.6348 7.09861 29.7093 7.18153 29.8201C7.9979 31.0246 8.43975 32.4436 8.4515 33.8986V34.3871C8.4515 34.5231 8.39748 34.6535 8.30128 34.7497C8.2051 34.846 8.07466 34.8999 7.93863 34.8999Z" fill="#270813"/>
<path d="M28.2337 27.964H30.6271C31.4575 27.964 32.1413 28.4525 32.1413 29.063C32.1413 29.6736 31.4575 30.1376 30.6271 30.1376H28.2337C27.4034 30.1376 26.7195 29.6492 26.7195 29.063C26.7195 28.4769 27.4034 27.964 28.2337 27.964Z" fill="white"/>
<path d="M30.9202 27.9884C31.0785 28.3247 31.1617 28.6913 31.1644 29.063C31.1649 29.4272 31.0812 29.7866 30.9202 30.1132H28.7466C28.5883 29.7769 28.5051 29.4102 28.5024 29.0386C28.5021 28.6588 28.5857 28.2836 28.7466 27.9396H30.9202V27.9884Z" fill="#270813"/>
<path d="M16.5354 27.964H18.9044C19.7591 27.964 20.443 28.4525 20.443 29.063C20.443 29.6736 19.7591 30.1376 18.9044 30.1376H16.5354C15.6806 30.1376 14.9968 29.6492 14.9968 29.063C14.9968 28.4769 15.6806 27.964 16.5354 27.964Z" fill="white"/>
<path d="M19.2218 27.9884C19.3801 28.3247 19.4634 28.6913 19.466 29.063C19.4665 29.4272 19.3828 29.7866 19.2218 30.1132H17.0482C16.8714 29.7826 16.7791 29.4135 16.7796 29.0386C16.7762 28.6556 16.8685 28.2778 17.0482 27.9396H19.2218V27.9884Z" fill="#270813"/>
<path d="M10.6495 14.6782C13.1162 12.6511 16.7063 11.3079 20.443 11.3079C27.1591 11.3079 32.9961 15.4841 35.1941 20.9792C25.8892 20.9792 16.7307 20.7594 10.6495 14.6782Z" fill="#FFE75C"/>
<path d="M23.4264 11.6365L25.6479 12.2152C26.0916 12.3308 26.5451 12.0647 26.6609 11.6209L26.6614 11.6186C26.7769 11.1748 26.5109 10.7213 26.0672 10.6057L23.8455 10.027C23.4017 9.91142 22.9482 10.1775 22.8327 10.6213L22.8322 10.6236C22.7164 11.0674 22.9826 11.5209 23.4264 11.6365Z" fill="#270813"/>
<path d="M5.59405 19.3184C5.51273 19.3156 5.43308 19.2943 5.36116 19.2563C5.28924 19.2182 5.22691 19.1643 5.17887 19.0986L3.05411 16.4121C3.00981 16.3596 2.97652 16.2988 2.95618 16.2332C2.93584 16.1676 2.92888 16.0986 2.93571 16.0303C2.94255 15.9619 2.96302 15.8957 2.99596 15.8354C3.02889 15.7752 3.07358 15.7221 3.12738 15.6794C3.18187 15.6345 3.24471 15.6007 3.31226 15.58C3.37984 15.5594 3.45081 15.5522 3.52112 15.559C3.59146 15.5659 3.65974 15.5865 3.72209 15.6197C3.78444 15.6529 3.83962 15.6981 3.88448 15.7527L6.00923 18.4636C6.09261 18.5721 6.13145 18.7083 6.11784 18.8445C6.10421 18.9806 6.03918 19.1065 5.93597 19.1963C5.83779 19.2721 5.71807 19.3149 5.59405 19.3184Z" fill="#270813"/>
<path d="M28.4047 18.8056C29.133 18.8056 29.7235 18.2151 29.7235 17.4868C29.7235 16.7584 29.133 16.1679 28.4047 16.1679C27.6764 16.1679 27.0859 16.7584 27.0859 17.4868C27.0859 18.2151 27.6764 18.8056 28.4047 18.8056Z" fill="#00CD9D"/>
<path d="M31.7994 26.6207H31.6773C30.4051 26.3518 29.0907 26.3518 27.8185 26.6207C27.7496 26.639 27.6776 26.6434 27.607 26.6336C27.5362 26.6238 27.4683 26.6 27.407 26.5636C27.3455 26.5273 27.292 26.479 27.2495 26.4217C27.207 26.3645 27.1762 26.2993 27.1591 26.23C27.1293 26.0942 27.1535 25.9521 27.2265 25.8337C27.2993 25.7153 27.4153 25.6297 27.5499 25.595C28.9898 25.2778 30.4815 25.2778 31.9215 25.595C32.0419 25.6317 32.1455 25.7094 32.2146 25.8147C32.2834 25.9199 32.3132 26.0461 32.2986 26.171C32.2842 26.296 32.2263 26.4119 32.135 26.4986C32.0436 26.5852 31.9249 26.6371 31.7994 26.6452V26.6207Z" fill="#270813"/>
<path d="M16.3399 26.6208C16.2193 26.623 16.1016 26.5825 16.0078 26.5066C15.9141 26.4307 15.8501 26.3241 15.8271 26.2056C15.7964 26.073 15.8171 25.9338 15.8851 25.8159C15.9531 25.6981 16.0632 25.6104 16.1934 25.5706C17.6414 25.2529 19.1414 25.2529 20.5895 25.5706C20.7196 25.6104 20.8298 25.6981 20.8977 25.8159C20.9658 25.9338 20.9866 26.073 20.9558 26.2056C20.9416 26.2739 20.9135 26.3386 20.8735 26.3957C20.8332 26.4529 20.7819 26.5012 20.7226 26.5378C20.663 26.5744 20.5968 26.5984 20.5277 26.6085C20.4586 26.6186 20.3882 26.6144 20.3208 26.5963C19.0486 26.3274 17.7342 26.3274 16.4621 26.5963L16.3399 26.6208Z" fill="#270813"/>
<path d="M4.20197 21.8095C4.4987 21.8095 4.73926 21.569 4.73926 21.2722C4.73926 20.9755 4.4987 20.7349 4.20197 20.7349C3.90523 20.7349 3.66467 20.9755 3.66467 21.2722C3.66467 21.569 3.90523 21.8095 4.20197 21.8095Z" fill="white"/>
<path d="M2.39473 20.0511H2.29704C2.22912 20.0394 2.16425 20.0142 2.1063 19.9769C2.04834 19.9396 1.9985 19.891 1.95974 19.834C1.92098 19.777 1.89411 19.7128 1.88073 19.6452C1.86735 19.5776 1.86774 19.508 1.88185 19.4405C2.10166 18.0973 2.95644 17.1937 4.34852 16.8517C4.48109 16.821 4.62035 16.8418 4.73821 16.9098C4.85605 16.9778 4.94373 17.088 4.98351 17.2181C5.0018 17.287 5.00617 17.359 4.99635 17.4296C4.98656 17.5003 4.96277 17.5683 4.92641 17.6297C4.89002 17.6911 4.84179 17.7446 4.78449 17.7872C4.72722 17.8297 4.66204 17.8604 4.59275 17.8775C3.61585 18.1217 3.07856 18.659 2.9076 19.6115C2.88987 19.7344 2.82808 19.8468 2.73376 19.9276C2.63944 20.0085 2.51896 20.0524 2.39473 20.0511Z" fill="#270813"/>
<path d="M32.6786 21.0036H44.4014C44.8869 21.0036 45.2806 20.61 45.2806 20.1244V20.1024C45.2806 19.6168 44.8869 19.2232 44.4014 19.2232H32.6786C32.1931 19.2232 31.7994 19.6168 31.7994 20.1024V20.1244C31.7994 20.61 32.1931 21.0036 32.6786 21.0036Z" fill="#66BCFF"/>
</g>
<defs>
<linearGradient id="paint0_linear_105_37" x1="28.5292" y1="36.4459" x2="23.6887" y2="20.1634" gradientUnits="userSpaceOnUse">
<stop offset="0.06" stop-color="#B32FB3"/>
<stop offset="1" stop-color="#3D0A27"/>
</linearGradient>
<clipPath id="clip0_105_37">
<rect width="45" height="45" rx="22.5" fill="white"/>
</clipPath>
</defs>
</svg>
