<svg width="45" height="45" viewBox="0 0 45 45" fill="none" xmlns="http://www.w3.org/2000/svg">
<g clip-path="url(#clip0_85_1346)">
<rect width="45" height="45" rx="22.5" fill="#4A4285"/>
<path d="M48.3754 36.5835L45.3178 43.6368C45.0783 44.193 44.7298 44.6968 44.293 45.1163C43.8562 45.5357 43.3387 45.8643 42.7725 46.0804C42.2063 46.2965 41.603 46.3975 40.9971 46.3771C40.3912 46.3553 39.7968 46.2134 39.2473 45.9576L27.8198 40.7572L33.5112 31.7859L40.4745 35.6693L41.5005 32.6337C45.0949 34.062 47.0138 35.3125 48.3754 36.5835Z" fill="#F7E5BC"/>
<path d="M35.0958 33.1695C39.6931 33.9277 40.1171 34.888 41.3443 37.2984L36.4126 36.7409L35.0958 33.1695Z" fill="#F7E5BC"/>
<path d="M13.4461 -5.06206C12.5315 -4.77819 11.7604 -4.15545 11.2877 -3.32175C10.815 -2.48932 10.6779 -1.50728 10.9021 -0.57639L15.4777 18.104L23.6682 16.4085L18.1562 -2.51874C18.0179 -2.99697 17.786 -3.44322 17.4735 -3.83195C17.1609 -4.21939 16.774 -4.54163 16.3347 -4.77819C15.8966 -5.01602 15.4149 -5.16306 14.9192 -5.21165C14.4235 -5.26024 13.9226 -5.20911 13.4461 -5.06206Z" fill="#D6569B"/>
<path d="M18.0001 13.7295L21.2358 13.5952L17.7989 2.34657C17.7515 2.18546 17.6708 2.03585 17.5632 1.90542C17.4544 1.77627 17.3211 1.67141 17.17 1.59597C17.0188 1.52053 16.8549 1.47706 16.6858 1.46811C16.518 1.45916 16.3502 1.48472 16.1913 1.54354C15.9146 1.64968 15.6866 1.85427 15.5508 2.11768C15.4151 2.38109 15.3805 2.68542 15.4548 2.97185L18.0001 13.7295Z" fill="#E374B0"/>
<path d="M32.3954 -5.15168C33.3126 -4.87676 34.0914 -4.26171 34.5718 -3.43183C35.0534 -2.60324 35.2008 -1.62249 34.9843 -0.687765L30.6098 18.0144L22.3962 16.4301L27.7084 -2.5636C27.8416 -3.04311 28.0696 -3.49193 28.3783 -3.88321C28.6871 -4.27449 29.0713 -4.60055 29.5082 -4.84223C29.945 -5.08262 30.424 -5.2348 30.9198 -5.28722C31.4155 -5.34093 31.9176 -5.29489 32.3954 -5.15168Z" fill="#D6569B"/>
<path d="M29.293 13.6847L26.079 13.5735L29.3826 2.28007C29.4288 2.11895 29.5095 1.96807 29.6183 1.8402C29.7259 1.71105 29.8604 1.6062 30.0129 1.53331C30.164 1.45915 30.3293 1.41823 30.4971 1.41312C30.6649 1.40673 30.8327 1.43614 30.989 1.49879C31.2657 1.59981 31.4949 1.79928 31.6346 2.05758C31.7742 2.31715 31.8152 2.61892 31.7473 2.90534L29.293 13.6847Z" fill="#E374B0"/>
<path d="M38.466 40.9145L37.1261 45.1546L36.9481 45.6904L35.2969 50.8678H4.58578C4.29628 49.7298 4.65239 49.5073 5.43378 48.235C6.21517 46.9627 5.81295 47.2977 5.92567 44.2173C6.01406 42.0525 6.79544 40.0437 9.58538 37.5438C10.4334 36.8073 10.6345 36.517 11.5043 35.714L11.772 35.4685L11.9065 35.3343L12.0845 35.2L33.0642 31.8971L37.2824 38.9274L38.466 40.9145Z" fill="#F7E5BC"/>
<path d="M37.1261 45.1546C36.9928 47.1852 36.8135 49.1045 36.5906 50.8678H14.0264C14.0495 49.9535 14.0713 48.8142 14.1161 47.4307C14.1123 47.2823 14.1199 47.1327 14.1379 46.9844V45.2659C13.9816 41.1817 12.821 38.3916 9.58533 37.5438C10.1874 36.9416 10.8125 36.338 11.5042 35.714L11.7719 35.4685L12.0845 35.2L33.0641 31.8971C34.7166 32.4994 35.8092 32.9239 37.0594 34.1962C37.1939 35.8035 37.2606 37.3878 37.2823 38.9274C37.3054 41.0922 37.2388 43.1675 37.1261 45.1546Z" fill="#1F3A70"/>
<path d="M35.1137 23.0639L10.7638 24.037C7.55883 24.1662 5.0648 26.8681 5.19289 30.0725V30.0814C5.32099 33.2858 8.02383 35.7805 11.2288 35.6527L35.5787 34.6783C38.7823 34.5504 41.2764 31.8486 41.1483 28.6429V28.6339C41.0202 25.4295 38.3186 22.9348 35.1137 23.0639Z" fill="#F06EA8"/>
<path d="M33.8416 12.2679L10.1822 13.2602C6.79532 13.4021 4.1655 16.2626 4.30769 19.6486L4.31537 19.8519C4.45756 23.2391 7.31796 25.8694 10.7048 25.7275L34.3642 24.7352C37.7511 24.5933 40.3822 21.7328 40.24 18.3468L40.231 18.1435C40.0888 14.7563 37.2285 12.126 33.8416 12.2679Z" fill="#F06EA8"/>
<path d="M35.4967 34.4865C38.6222 34.3523 41.188 31.8307 41.188 28.7056C41.1995 27.5688 40.8742 26.455 40.2554 25.5024C39.6355 24.5498 38.749 23.8005 37.7063 23.3491C38.4916 22.7507 39.1205 21.9707 39.5407 21.0782C39.9595 20.1843 40.1581 19.2023 40.1171 18.2152V18.0144C40.0825 17.2088 39.8904 16.4173 39.5496 15.6859C39.2089 14.9545 38.7272 14.2973 38.1316 13.7513C37.5372 13.2065 36.8404 12.7833 36.0821 12.5084C35.3237 12.2322 34.518 12.1094 33.7123 12.1452L12.5982 13.0377C10.701 16.6756 10.9688 20.582 12.3753 23.3939C12.5802 23.8197 12.6955 24.2826 12.7147 24.7544C12.7339 25.2275 12.6571 25.6981 12.4867 26.1392C10.4551 31.5404 13.1336 35.4455 13.1336 35.4455L35.4967 34.4865Z" fill="#E05FA3"/>
<path d="M18.4483 23.5448C18.985 23.1944 19.0145 22.2904 18.5149 21.527C18.0153 20.7649 17.1763 20.4298 16.6396 20.7815C16.1028 21.1318 16.0734 22.0359 16.5729 22.798C17.0725 23.5614 17.9116 23.8964 18.4483 23.5448Z" fill="#1B1926"/>
<path d="M29.0239 21.8786C29.2558 21.0474 28.9816 20.2444 28.4116 20.0859C27.8416 19.926 27.1921 20.4707 26.9603 21.3019C26.7271 22.133 27.0013 22.9361 27.5713 23.0946C28.1413 23.2545 28.7908 22.7097 29.0239 21.8786Z" fill="#1B1926"/>
<path d="M20.7899 26.2287C22.2618 28.7286 24.4279 29.3078 25.8779 26.0715C25.8946 26.0433 25.9035 26.0101 25.9023 25.9768C25.9023 25.9423 25.892 25.9104 25.8728 25.8822C25.8549 25.8541 25.828 25.8323 25.7972 25.8183C25.7665 25.8042 25.7332 25.7991 25.6999 25.8042L20.9449 25.9385C20.9129 25.9423 20.8822 25.9538 20.8553 25.9717C20.8296 25.9896 20.8066 26.0139 20.7912 26.0421C20.7758 26.0715 20.7681 26.1022 20.7681 26.1354C20.7669 26.1674 20.7746 26.1993 20.7899 26.2287Z" fill="#751B40"/>
<path d="M23.7579 25.8707L20.9449 25.9385C20.9129 25.9423 20.8822 25.9538 20.8553 25.9717C20.8296 25.9896 20.8066 26.0139 20.7912 26.042C20.7758 26.0715 20.7681 26.1021 20.7681 26.1354C20.7669 26.1674 20.7746 26.1993 20.7899 26.2287C22.0619 28.3705 23.8245 29.1071 25.231 27.2325C24.8813 26.6456 24.3702 26.1725 23.7579 25.8707Z" fill="#9C2455"/>
</g>
<defs>
<clipPath id="clip0_85_1346">
<rect width="45" height="45" rx="22.5" fill="white"/>
</clipPath>
</defs>
</svg>
