<svg width="45" height="45" viewBox="0 0 45 45" fill="none" xmlns="http://www.w3.org/2000/svg">
<g clip-path="url(#clip0_85_1318)">
<rect width="45" height="45" rx="22.5" fill="#CFDEFF"/>
<path d="M47.647 52.6951C47.2211 51.6408 46.5139 50.7215 45.6043 50.0368C44.6947 49.3538 43.6163 48.9295 42.4848 48.8106L40.1223 48.5615C36.7313 36.3456 38.4461 33.5717 28.4352 30.8315L20.3336 30.5454C20.3336 30.5454 12.1002 30.6836 9.07234 34.7368L13.3072 48.6193C13.3072 48.6193 11.573 57.8331 12.3622 62.5035L22.9146 61.1422L27.4886 75.9408C44.7316 73.3822 52.7641 65.3899 52.7641 65.3899L47.647 52.6951Z" fill="#CFDEFF"/>
<path d="M11.0025 31.6398C22.4919 42.4012 32.8757 49.7555 31.1271 32.7777L11.0025 31.6398Z" fill="#B8C5FF"/>
<path d="M16.6419 32.9095C26.6464 37.6104 29.2436 39.3847 28.5878 33.7339L16.6419 32.9095Z" fill="#5697B0"/>
<path d="M38.2339 40.8133C37.0157 35.6801 36.1012 33.4671 30.9776 31.614C32.3565 34.8396 32.9576 41.4948 32.9576 41.4948L38.2339 40.8133Z" fill="white"/>
<path d="M21.158 16.0103L20.7915 13.1721C20.6678 12.2464 20.2548 11.3834 19.6087 10.71C18.9626 10.035 18.1189 9.58175 17.1996 9.41943C16.1887 9.24264 15.1488 9.42746 14.2617 9.94174C13.3746 10.4544 12.6964 11.2644 12.346 12.2287C11.0587 15.7242 9.04655 21.3476 7.65959 26.0775C5.45137 33.615 15.4429 35.3587 25.261 34.6082C35.079 33.8592 36.0048 29.5585 34.6451 23.3341C33.774 19.4512 32.6699 15.4864 31.9821 13.0226C31.7715 12.3348 31.3649 11.7241 30.8137 11.2628C30.2608 10.8016 29.5874 10.5123 28.8722 10.4271C28.0719 10.3339 27.2635 10.5107 26.574 10.9269C25.8846 11.3448 25.3526 11.9796 25.0633 12.7317L23.9608 15.6487L21.158 16.0103Z" fill="#7CE4CC"/>
<path d="M33.3273 26.3154L32.6298 26.0727L29.0539 27.3118L25.4153 27.7811L19.1105 26.5227C19.1105 26.5227 15.6439 21.1629 15.8962 27.1238C16.0939 31.2413 17.8425 33.6054 18.908 34.6886C21.0246 34.785 23.1444 34.7465 25.2562 34.5713C26.8489 34.4829 28.4288 34.2177 29.9636 33.779C31.0259 32.2731 32.7407 29.4991 33.3273 26.3154Z" fill="#AAFAE7"/>
<path opacity="0.74" d="M15.7917 26.619C14.9817 24.3546 13.516 19.5862 14.1251 15.9942C14.7342 12.4006 15.5362 9.44831 17.198 9.41777C16.1871 9.24259 15.1472 9.42741 14.2601 9.9417C13.373 10.4544 12.6947 11.2644 12.3444 12.2287C11.0555 15.7242 9.04492 21.3476 7.65796 26.0774C5.67796 32.8081 13.4598 34.9103 22.1689 34.748C20.2789 34.4378 17.8778 32.453 15.7917 26.619Z" fill="url(#paint0_linear_85_1318)"/>
<path d="M22.1689 34.748L21.4682 34.7641L20.8029 34.7769L19.7614 34.7255L19.4336 34.7689L18.9096 34.7255C17.8489 33.6776 16.102 31.3135 15.9027 27.196C15.8882 27.1221 15.8914 27.045 15.9107 26.9727C17.9582 32.5173 20.3191 34.4684 22.1689 34.748Z" fill="#AAFAE7"/>
<path d="M32.4691 25.6869L32.4643 26.5178C28.6393 29.0201 28.0173 29.7112 18.1607 26.6174L18.0611 25.8444L18.4886 25.9633C26.8345 28.0735 28.4288 28.2615 32.4691 25.6869Z" fill="#2C4661"/>
<path d="M17.3844 28.9174C18.6733 28.559 19.3917 27.0965 18.9883 25.6517C18.5865 24.2068 17.2156 23.3261 15.9283 23.6861C14.6394 24.0445 13.921 25.5054 14.3228 26.9502C14.7246 28.3951 16.0955 29.2758 17.3844 28.9174Z" fill="#738EFF"/>
<path d="M34.3076 25.9199C34.5696 24.6712 34.2032 23.5365 33.4896 23.3871C32.7761 23.2376 31.9853 24.1296 31.7234 25.3783C31.4614 26.6271 31.8278 27.7617 32.5414 27.9112C33.2549 28.0623 34.0457 27.1703 34.3076 25.9199Z" fill="#738EFF"/>
<path opacity="0.41" d="M24.5315 23.5286C24.3482 23.257 24.6568 23.0689 24.9011 22.9629C25.0007 22.9259 25.11 22.9195 25.2129 22.9468C25.3157 22.9725 25.4073 23.0304 25.4764 23.1107L26.4086 24.3225C26.6786 24.6954 26.2736 24.7098 25.8734 24.4655C25.4716 24.2213 24.8095 23.9738 24.5315 23.5286Z" fill="#284E7A"/>
<path opacity="0.41" d="M28.7132 24.0992L28.9977 23.4338C29.0475 23.3197 29.062 23.1927 29.0395 23.0706C29.017 22.9484 28.9591 22.8359 28.8723 22.7475L28.7438 22.6158C28.7325 22.6013 28.718 22.5917 28.7004 22.5852C28.6827 22.5788 28.665 22.5756 28.6473 22.5788C28.6297 22.5804 28.612 22.5868 28.5975 22.5981C28.583 22.6093 28.5702 22.6222 28.5622 22.6383C28.3886 23.114 28.2536 23.6009 28.1587 24.0976C28.1154 24.6199 28.4432 24.5781 28.7132 24.0992Z" fill="#284E7A"/>
<path d="M24.6665 16.2611L21.1565 16.0104L23.9593 15.6488L25.0618 12.7318C25.3511 11.9797 25.8831 11.3448 26.5725 10.927C27.262 10.5107 28.0704 10.3339 28.8707 10.4272L29.5538 10.5606C27.8872 10.2584 27.3215 12.1805 26.9936 14.5173C26.8265 15.7966 26.8747 16.4572 24.6665 16.2611Z" fill="#61C7C7"/>
<path d="M31.2156 15.7276C31.222 14.8356 30.6338 14.1092 29.9041 14.106C29.1745 14.1011 28.5798 14.8195 28.5734 15.7115C28.5686 16.6035 29.1552 17.3299 29.8849 17.3347C30.6145 17.3379 31.2108 16.6195 31.2156 15.7276Z" fill="#21354A"/>
<path d="M18.8631 15.194C18.9499 14.3068 18.4324 13.529 17.7059 13.4567C16.9811 13.386 16.3206 14.0465 16.2338 14.9336C16.1454 15.8208 16.6629 16.5986 17.3894 16.671C18.1158 16.7417 18.7747 16.0811 18.8631 15.194Z" fill="#21354A"/>
<path d="M13.3056 48.6192C14.8259 48.6449 16.7641 48.4682 18.4934 48.3942C18.4613 47.7032 18.5207 47.0105 18.6718 46.3355C18.937 45.2024 19.342 44.1064 19.8772 43.073C18.4934 42.9557 16.8139 42.8384 15.4398 42.795C15.1522 35.9871 11.5698 32.3067 9.59305 34.1887C8.65609 35.0791 8.08557 36.2876 7.99557 37.5766C7.94415 38.6196 8.0518 40.3071 7.98912 40.6848C7.81716 41.9287 6.93967 42.3016 8.01485 44.6046C8.56931 45.7537 7.5295 48.5887 13.3056 48.6192Z" fill="white"/>
<path d="M18.0466 9.67978C19.4561 10.5701 19.8096 12.7446 19.9238 13.6173C20.0363 14.49 20.2388 16.0553 20.2902 16.4555C20.3416 16.8557 20.4686 16.9875 21.8057 17.5917C23.1412 18.196 22.5836 17.603 21.9761 16.9039L21.1564 16.0103L20.79 13.1721C20.6872 12.3975 20.3786 11.6646 19.8964 11.0507C19.4127 10.4367 18.7747 9.96264 18.0466 9.67978Z" fill="#D4FFDC"/>
<path d="M30.4537 14.662C30.96 14.8565 31.0741 16.0249 30.5711 15.5716C30.0696 15.1184 29.7562 14.4193 30.4537 14.662Z" fill="#335A70"/>
<path d="M18.2315 13.9838C18.7008 14.1814 18.8197 15.3884 18.3488 14.8934C17.8779 14.4 17.4986 13.7459 18.2315 13.9838Z" fill="#335A70"/>
<path d="M18.1285 27.4002C18.6123 27.1447 18.6525 26.2688 18.2169 25.4459C17.7814 24.6215 17.0356 24.1602 16.5519 24.4157C16.0681 24.6713 16.0296 25.5472 16.4651 26.3716C16.9006 27.1945 17.6448 27.6557 18.1285 27.4002Z" fill="#B2A6FF"/>
<path d="M34.2787 24.9267C34.2787 24.3401 34.0505 23.8628 33.766 23.8628C33.4832 23.8628 33.2518 24.3385 33.2518 24.9267C33.2518 25.5149 33.4816 25.9906 33.7644 25.9906C34.0489 25.9906 34.2787 25.5149 34.2787 24.9267Z" fill="#B2A6FF"/>
<path d="M30.5791 11.6132C31.3634 12.2512 31.5868 13.4068 30.7061 12.5952C29.8237 11.7835 29.6293 10.8482 30.5791 11.6132Z" fill="#D4FFDC"/>
</g>
<defs>
<linearGradient id="paint0_linear_85_1318" x1="6.72099" y1="26.6801" x2="14.1026" y2="23.8804" gradientUnits="userSpaceOnUse">
<stop stop-color="#61C7C7"/>
<stop offset="1" stop-color="#54B9C7"/>
</linearGradient>
<clipPath id="clip0_85_1318">
<rect width="45" height="45" rx="22.5" fill="white"/>
</clipPath>
</defs>
</svg>
