<svg width="45" height="45" viewBox="0 0 45 45" fill="none" xmlns="http://www.w3.org/2000/svg">
<g clip-path="url(#clip0_85_1295)">
<rect width="45" height="45" rx="22.5" fill="#5764EF"/>
<path d="M-14.6068 45.6862H-14.8089C-14.8943 45.6253 -14.9565 45.5366 -14.9838 45.4353C-15.0116 45.334 -15.0035 45.2262 -14.9606 45.1303C-11.8781 38.6117 -7.53236 35.6808 0.502215 34.7207C6.21232 34.0638 8.48626 31.2846 10.9118 28.3032C12.0942 26.7712 13.4318 25.3656 14.9038 24.109C14.9912 24.05 15.0984 24.0275 15.2025 24.0463C15.306 24.0652 15.3985 24.124 15.4597 24.2101C15.49 24.2463 15.5132 24.2883 15.5274 24.3335C15.541 24.3787 15.5461 24.4263 15.5415 24.4735C15.5365 24.5206 15.5223 24.5663 15.4996 24.6078C15.4768 24.6494 15.446 24.686 15.4091 24.7154C13.972 25.9391 12.6678 27.3111 11.5182 28.8085C8.99157 31.891 6.61658 34.8218 0.603285 35.5292C-7.1281 36.3883 -11.2717 39.2181 -14.2531 45.484C-14.289 45.546 -14.3405 45.5974 -14.4027 45.6329C-14.4648 45.6684 -14.5351 45.6868 -14.6068 45.6862V45.6862Z" fill="#8CD9FF"/>
<path d="M3.58463 43.6144H3.38251C3.33753 43.5932 3.29711 43.5628 3.26477 43.5251C3.23192 43.4874 3.20816 43.4433 3.1935 43.3956C3.17936 43.3479 3.17532 43.2977 3.18189 43.2484C3.18796 43.1989 3.20462 43.1515 3.2309 43.109C5.85856 37.9548 8.23356 35.8325 10.0527 34.6197C10.9623 33.9628 11.8213 33.508 12.6298 33.0027C15.1059 31.6383 17.4304 30.3245 19.7043 25.8777C19.7564 25.7961 19.8362 25.7359 19.9287 25.7081C20.0216 25.6802 20.1212 25.6866 20.2096 25.7261C20.2546 25.7471 20.295 25.7776 20.3274 25.8153C20.3602 25.853 20.384 25.8971 20.3986 25.9448C20.4128 25.9925 20.4168 26.0427 20.4102 26.0921C20.4042 26.1414 20.3875 26.1889 20.3612 26.2314C17.9862 30.8803 15.6112 32.2447 13.0341 33.7101C12.166 34.1705 11.3226 34.6765 10.5075 35.2261C8.78941 36.4388 6.46495 38.4601 3.88783 43.4628C3.85144 43.5085 3.80546 43.5457 3.75291 43.5719C3.70035 43.598 3.64325 43.6125 3.58463 43.6144V43.6144Z" fill="#66BCFF"/>
<path d="M10.2548 35.2766C10.1537 35.2766 10.0527 35.1755 9.95162 35.0745C9.92382 35.0351 9.90411 34.9905 9.894 34.9433C9.8839 34.8961 9.8834 34.8473 9.893 34.8C9.9026 34.7526 9.92129 34.7077 9.94909 34.668C9.97637 34.6283 10.0117 34.5947 10.0527 34.5691C10.9622 33.9122 11.8213 33.4574 12.6298 32.9521C15.1059 31.5878 17.4303 30.2739 19.7043 25.8271C19.7563 25.7455 19.8362 25.6853 19.9286 25.6575C20.0216 25.6297 20.1212 25.6361 20.2096 25.6755C20.2546 25.6966 20.295 25.727 20.3273 25.7647C20.3602 25.8024 20.3839 25.8466 20.3986 25.8943C20.4127 25.942 20.4168 25.9922 20.4102 26.0415C20.4041 26.0909 20.3875 26.1384 20.3612 26.1808C17.9862 30.8298 15.6112 32.1941 13.0341 33.6596C12.1659 34.1199 11.3225 34.6259 10.5075 35.1755L10.2548 35.2766Z" fill="black"/>
<path d="M0.0473844 47C-0.0562061 46.9891 -0.15273 46.9429 -0.226001 46.8693C-0.299778 46.7958 -0.345763 46.6992 -0.35688 46.5958C-0.306348 41.8963 2.9277 40.8351 7.87983 39.2686H8.03142C14.3479 37.2474 17.2788 36.3378 19.5527 33.1037C20.6139 31.5373 21.574 29.3644 22.7867 25.8777L23.6458 23.4016L23.5447 26.0293C23.3931 30.375 22.6857 33.7101 21.4224 36.1862C20.1591 38.6623 17.4304 41.1383 13.0846 42.7048C8.73887 44.2713 7.07131 45.1303 5.70695 46.1915C5.66652 46.2286 5.61852 46.2559 5.56597 46.2712C5.51291 46.2865 5.45784 46.2893 5.40377 46.2795C5.3497 46.2697 5.29917 46.2475 5.2552 46.2148C5.21124 46.1819 5.17587 46.1394 5.15111 46.0904C5.10664 46.0076 5.09198 45.9118 5.11068 45.8196C5.12937 45.7273 5.1794 45.6444 5.25217 45.5851C6.66706 44.4734 9.09259 43.3112 12.832 41.9468C16.5713 40.5825 19.2495 38.6622 20.7149 35.8325C21.675 34.0133 22.2814 31.6383 22.5846 28.7075C21.9838 30.4202 21.1687 32.0502 20.1591 33.5585C17.7335 36.9947 14.6006 38.0053 8.23354 40.0266H8.13249C2.9277 41.6436 0.451633 42.6037 0.451633 46.5958C0.440516 46.6992 0.394531 46.7958 0.320754 46.8693C0.247483 46.9429 0.150975 46.9891 0.0473844 47V47Z" fill="#8CD9FF"/>
<path d="M19.8559 33.6596H19.6033C19.5249 33.5912 19.4759 33.4953 19.4668 33.3918C19.4572 33.2883 19.4881 33.1851 19.5527 33.1037C20.6139 31.5372 21.574 29.3644 22.7868 25.8777C22.8302 25.7847 22.9035 25.7092 22.9955 25.6634C23.0869 25.6175 23.1915 25.6039 23.2921 25.625C23.3916 25.6595 23.474 25.7318 23.5215 25.8262C23.5685 25.9206 23.5771 26.0298 23.5448 26.1303C22.332 29.6676 21.3213 31.891 20.1591 33.5585C20.1202 33.5979 20.0722 33.6276 20.0196 33.6452C19.9671 33.6628 19.911 33.6677 19.8559 33.6596V33.6596Z" fill="black"/>
<path d="M-6.01637 42.8564H-6.52169C-6.72382 42.8059 -6.92596 42.6543 -6.92596 42.4521C-6.92596 42.25 -6.72382 42.0479 -6.52169 42.0479C-1.6201 42.25 1.56341 39.3697 2.82671 33.4069C3.58469 29.9708 4.3932 27.899 5.55543 26.1809C6.71766 24.4628 9.54745 22.1383 14.1459 20.3697C12.4096 20.5543 10.6981 20.927 9.04213 21.4814C5.80809 22.6436 3.53416 24.766 1.31075 28.5053C-0.912651 32.2447 -3.48978 33.4069 -6.31957 32.75C-6.41912 32.7155 -6.50149 32.6432 -6.54899 32.5488C-6.59598 32.4544 -6.60457 32.3452 -6.57223 32.2447C-6.5606 32.1971 -6.53939 32.1525 -6.51008 32.1137C-6.48027 32.0748 -6.44287 32.0424 -6.40042 32.0187C-6.35747 31.9949 -6.31048 31.9803 -6.26146 31.9757C-6.21295 31.9711 -6.16393 31.9767 -6.11744 31.992C-3.18659 32.649 -0.710532 30.4255 0.653829 28.1516C2.92776 24.2101 5.3533 21.9867 8.73893 20.774C10.8613 19.9654 13.4889 19.5612 16.9756 19.3591L19.7044 19.258L17.1272 20.117C10.8613 22.2899 7.98097 23.9575 6.16182 26.6357C5.10065 28.2527 4.34267 30.274 3.58469 33.6091C2.27086 39.6729 -1.06425 42.8564 -6.01637 42.8564V42.8564Z" fill="#66BCFF"/>
<path d="M5.85857 26.7873H5.65645C5.60743 26.7626 5.56499 26.727 5.53214 26.6832C5.49929 26.6393 5.47705 26.5884 5.46745 26.5345C5.45734 26.4806 5.46039 26.4252 5.47554 26.3726C5.49121 26.32 5.51849 26.2717 5.55538 26.2314C7.1724 23.8564 9.5474 22.1889 14.1458 20.4202C12.4095 20.6048 10.698 20.9776 9.04208 21.5319C8.99306 21.5563 8.939 21.569 8.88443 21.5689C8.82935 21.5688 8.77527 21.556 8.72625 21.5316C8.67724 21.5071 8.63479 21.4716 8.60194 21.4277C8.5691 21.384 8.54687 21.3331 8.53676 21.2793C8.51149 21.2375 8.49684 21.1901 8.4933 21.1414C8.49027 21.0926 8.49936 21.0437 8.51907 20.9991C8.53878 20.9544 8.56911 20.9152 8.60751 20.8848C8.64592 20.8544 8.69088 20.8337 8.73888 20.8245C10.8612 20.016 13.4889 19.6117 16.9756 19.4096L19.7043 19.3085L17.1272 20.1676C10.8612 22.2899 7.98092 23.9575 6.16177 26.6357C6.12791 26.6843 6.08242 26.7236 6.02936 26.7502C5.9763 26.7766 5.9177 26.7894 5.85857 26.7873Z" fill="black"/>
<path d="M24.2577 33.014C25.856 31.4156 24.0485 27.0162 20.2202 23.1879C16.3914 19.3595 11.9921 17.5517 10.3938 19.1502C8.79547 20.7486 10.603 25.148 14.4313 28.9764C18.2601 32.8048 22.6594 34.6125 24.2577 33.014Z" fill="white"/>
<path d="M27.2335 23.25C31.1684 23.25 34.3585 20.06 34.3585 16.125C34.3585 12.19 31.1684 9 27.2335 9C23.2986 9 20.1085 12.19 20.1085 16.125C20.1085 20.06 23.2986 23.25 27.2335 23.25Z" fill="#FFC926"/>
<path d="M15.1564 27.9495L24.7069 32.1941L26.9809 24.2606L21.7256 19.0053L15.1564 27.9495Z" fill="white"/>
<path d="M15.1564 27.9495L11.2655 18.6517L19.1485 16.3777L24.4038 21.6836L15.1564 27.9495Z" fill="white"/>
<path d="M19.1485 16.3776C18.9463 17.0346 20.3107 19.0053 22.332 21.0266C24.3533 23.0479 26.324 24.4122 26.9809 24.2606L28.0421 23.1994L20.1591 15.3165L19.1485 16.3776Z" fill="black"/>
<path d="M28.042 23.1994C27.4862 23.25 25.566 21.8351 23.5447 19.8138C21.5234 17.7925 20.1085 15.9229 20.1591 15.3165L27.2335 16.125L28.042 23.1994Z" fill="#FFC926"/>
<path d="M28.699 17.2367C28.4969 15.7207 30.0634 14.1037 32.1857 12.9415C34.3081 11.7793 36.0262 12.0825 37.2389 12.7899C38.4517 13.4973 38.098 14.9628 34.7123 17.4388C36.6831 18.1968 37.4916 18.7021 37.0368 19.8138C36.582 20.9255 35.0661 20.875 32.1352 19.7633C29.2044 18.6516 28.8506 18.0957 28.699 17.2367Z" fill="#ED5F00"/>
<path d="M30.4677 16.7313C30.4171 16.7313 30.3666 16.6303 30.4171 16.5292C31.0599 15.7111 31.8694 15.0393 32.7921 14.5585C34.3586 13.851 35.2682 13.7499 35.9251 13.9521C36.582 14.1542 36.9358 14.5585 36.6326 15.0638C35.9559 15.9775 35.157 16.7937 34.2576 17.4893C34.9625 17.7396 35.6396 18.0613 36.2788 18.4494C36.582 18.7021 36.5315 18.8537 36.1272 18.8537C35.723 18.8537 34.106 18.5505 30.4677 16.7313V16.7313Z" fill="black"/>
<path d="M25.0207 14.2707C25.5589 13.4552 25.4846 12.4579 24.8555 12.0431C24.2264 11.6283 23.2804 11.9531 22.7427 12.7686C22.2051 13.584 22.2794 14.5814 22.9085 14.9962C23.5376 15.411 24.4831 15.0861 25.0207 14.2707Z" fill="white"/>
<path d="M24.1764 13.5352C24.4028 13.1829 24.3957 12.7751 24.1607 12.6243C23.9263 12.4736 23.5523 12.6369 23.3259 12.9892C23.1001 13.3415 23.1071 13.7493 23.3421 13.9001C23.5766 14.0508 23.9505 13.8875 24.1764 13.5352V13.5352Z" fill="black"/>
</g>
<defs>
<clipPath id="clip0_85_1295">
<rect width="45" height="45" rx="22.5" fill="white"/>
</clipPath>
</defs>
</svg>
