<svg width="45" height="45" viewBox="0 0 45 45" fill="none" xmlns="http://www.w3.org/2000/svg">
<g clip-path="url(#clip0_85_1270)">
<rect width="45" height="45" rx="22.5" fill="#5865F2"/>
<path d="M24.6996 29.5198C28.4984 34.4084 33.2719 38.6488 36.8208 41.2926C37.4206 41.7436 38.1432 42.0018 38.8929 42.033C39.6427 42.0642 40.3843 41.8669 41.0195 41.4674C41.4383 41.2042 41.8004 40.86 42.0845 40.455C42.3685 40.05 42.5688 39.5924 42.6736 39.1089C42.7782 38.6258 42.7853 38.1266 42.6943 37.6407C42.6034 37.1548 42.4163 36.6919 42.1441 36.2793C37.3705 29.0956 32.5472 22.012 32.5472 22.012L24.6996 29.5198Z" fill="url(#paint0_linear_85_1270)"/>
<path d="M36.2211 39.2723C36.1819 39.2747 36.1428 39.2667 36.1078 39.2492C36.0727 39.2317 36.0428 39.2052 36.0212 39.1725L29.7729 29.6445C29.7548 29.6167 29.7424 29.5855 29.7364 29.5529C29.7304 29.5202 29.731 29.4867 29.7381 29.4542C29.7487 29.4054 29.7736 29.3608 29.8095 29.3261C29.8455 29.2914 29.8909 29.268 29.94 29.259C29.9892 29.2501 30.0399 29.2558 30.0858 29.2756C30.1317 29.2954 30.1707 29.3283 30.198 29.3702L36.421 38.8982C36.4484 38.9401 36.4626 38.9892 36.462 39.0392C36.4615 39.0892 36.446 39.1379 36.4177 39.1791C36.3986 39.2066 36.3742 39.2298 36.3458 39.2474L36.2211 39.2723V39.2723Z" fill="#0EC2BC"/>
<path d="M10.7041 27.4744C5.73067 28.2976 3.63162 31.0163 2.10689 35.1068C0.357628 39.7214 -0.0922714 43.9367 6.7054 48.0272L12.6036 47.204C21.0509 46.9798 29.6731 44.7098 32.5472 29.2452L10.7041 27.4744Z" fill="#0EC2BC"/>
<path d="M10.7041 12.6333C11.2041 6.94641 12.0787 4.80145 14.6031 4.22768C17.1271 3.65418 18.3518 5.84891 19.4264 9.24125L10.7041 12.6333V12.6333ZM26.0742 4.00314C23.875 4.10297 22.8254 5.89896 21.8255 8.64258L28.9234 10.0644C29.2732 6.17327 28.2985 3.9036 26.0742 4.00314V4.00314Z" fill="#2AE5C4"/>
<path d="M19.4513 32.812C32.8221 33.735 34.5465 28.0481 35.6711 24.2568C37.2207 18.9938 38.5953 16.6492 36.5457 14.4044C35.3213 13.0575 33.4968 12.9079 31.6225 13.4316C30.048 10.1142 27.5986 7.76961 20.851 8.24357C15.7774 8.6177 7.85518 11.2867 4.98104 20.1162C2.1069 28.946 13.0535 32.3881 19.4513 32.812V32.812Z" fill="url(#paint1_linear_85_1270)"/>
<path d="M33.272 16.1255L32.8721 14.9779L30.8978 20.5653L28.5485 22.411L25.1744 22.012L15.8526 16.2499L15.4276 16.9982C16.4676 17.4988 17.4144 18.1737 18.2268 18.9935C21.3758 22.0117 22.6503 27.549 19.3263 32.8117H19.4513C28.2985 33.4356 32.0473 31.1407 33.8966 28.422C32.1722 21.1634 32.9471 18.0957 33.272 16.1252V16.1255Z" fill="#ADFDDC"/>
<path d="M14.7778 16.9985C14.7387 17.0008 14.6997 16.9928 14.6646 16.9753C14.6295 16.9578 14.5996 16.9315 14.5779 16.8989C13.8283 15.8758 12.9285 15.4519 11.529 15.4771C11.4626 15.4838 11.3963 15.4639 11.3446 15.4217C11.3191 15.4009 11.298 15.3752 11.2825 15.3461C11.267 15.3171 11.2573 15.2853 11.2541 15.2525C11.2535 15.1837 11.2789 15.1173 11.3252 15.0664C11.3715 15.0156 11.4353 14.9841 11.5038 14.9782C13.0783 14.9533 14.1532 15.4522 14.9778 16.6243C15.012 16.6791 15.0258 16.7442 15.0167 16.8081C15.0075 16.872 14.976 16.9307 14.9277 16.9736L14.7778 16.9985V16.9985Z" fill="#0EC2BC"/>
<path d="M27.7985 22.7603C25.3494 22.7603 21.8006 20.3407 18.0518 17.7719L16.9521 16.9985C16.9041 16.9792 16.861 16.9496 16.8258 16.9117C16.7906 16.8739 16.7643 16.8287 16.7486 16.7795C16.7332 16.7302 16.7289 16.6781 16.7359 16.627C16.7429 16.5759 16.7611 16.5269 16.7892 16.4836C16.8174 16.4402 16.8549 16.4036 16.899 16.3765C16.9431 16.3493 16.9927 16.3323 17.0442 16.3267C17.0956 16.3211 17.1477 16.3269 17.1966 16.3439C17.2455 16.3608 17.2901 16.3884 17.327 16.4247L18.4516 17.1729C22.1755 19.7172 25.9992 22.3361 28.1486 22.0369C30.2977 21.7377 31.0225 19.1185 31.8722 16.35C31.9723 16.0008 32.0973 15.6515 32.1971 15.3023C32.2131 15.2315 32.2524 15.1682 32.3086 15.1224C32.3649 15.0766 32.4349 15.0509 32.5074 15.0496C32.5555 15.0484 32.6031 15.0581 32.647 15.0778C32.7316 15.1063 32.802 15.1662 32.8438 15.245C32.8857 15.3238 32.8958 15.4156 32.8721 15.5017C32.772 15.8512 32.647 16.2002 32.5472 16.5497C31.6723 19.418 30.7728 22.361 28.2484 22.7354L27.7985 22.7603V22.7603Z" fill="black"/>
<path d="M32.2721 14.0054C33.197 13.8807 34.9463 14.5789 35.1462 15.8512C35.3461 17.1232 33.2968 16.9487 32.1971 16.0257C31.6723 15.5766 31.4475 15.0529 31.4724 14.7039C31.5019 14.5119 31.5983 14.3364 31.7447 14.2086C31.891 14.0808 32.0778 14.0088 32.2721 14.0054V14.0054Z" fill="#5865F2"/>
<path d="M18.1019 8.69263C17.7705 8.03319 17.3772 7.40673 16.9272 6.8217C16.7849 6.59898 16.573 6.4294 16.3245 6.33922C16.076 6.24904 15.8047 6.2433 15.5527 6.32286C15.1279 6.44757 14.1031 7.07112 13.9782 9.96462C13.9745 9.99416 13.9768 10.0241 13.985 10.0528C13.9932 10.0814 14.0072 10.108 14.026 10.1311C14.0445 10.1544 14.0675 10.1738 14.0936 10.188C14.1197 10.2023 14.1485 10.2111 14.1781 10.214H14.2281C14.28 10.2154 14.3308 10.1988 14.3718 10.1669C14.4128 10.135 14.4415 10.0899 14.4529 10.0393C14.878 8.51787 15.6027 7.34571 16.2274 7.24588H16.4773C16.9272 7.44525 17.5021 8.24357 17.9269 9.01671C18.0018 9.16631 18.1019 9.16631 18.1519 9.14142C18.2017 9.11654 18.2518 9.04188 18.1019 8.69263ZM28.3486 9.39084C28.3281 8.6438 28.2361 7.90043 28.0737 7.17095C27.9736 6.57228 27.5987 6.17327 27.1239 6.09861C26.6491 6.02367 25.5994 6.14838 24.3747 8.79218C24.3524 8.84962 24.3502 8.9129 24.3684 8.97177C24.3865 9.03064 24.424 9.08165 24.4748 9.11654H24.4997C24.5444 9.14036 24.5959 9.1484 24.6458 9.13937C24.6957 9.13034 24.741 9.10476 24.7746 9.06676C25.6993 7.84455 26.7741 7.07112 27.3238 7.24588L27.5237 7.37032C27.8237 7.74473 27.9985 8.74241 28.0737 9.64054C28.0737 9.81475 28.1735 9.8648 28.2236 9.8648C28.2736 9.8648 28.3486 9.79014 28.3486 9.39084V9.39084Z" fill="black"/>
<path d="M8.27993 18.5699C8.60702 17.9183 9.09121 17.3584 9.68879 16.9406C10.2867 16.5225 10.9791 16.2595 11.7038 16.1752C12.0526 16.1421 12.4034 16.1338 12.7535 16.1504L13.2783 16.2001L13.8031 16.3C14.4909 16.4509 15.155 16.6942 15.7775 17.0233C16.9989 17.6938 18.0759 18.5987 18.9469 19.6862C19.8173 20.7731 20.4644 22.0213 20.851 23.3589C20.8546 23.3753 20.8548 23.3923 20.8516 23.4088C20.8485 23.4252 20.8421 23.4409 20.8328 23.4549C20.8137 23.4829 20.7843 23.5022 20.7509 23.5085C20.7009 23.5334 20.626 23.4836 20.6011 23.4336C20.2113 22.143 19.5688 20.9428 18.7111 19.9027C17.8526 18.8619 16.7961 18.0019 15.6027 17.3726C15.0114 17.0639 14.3807 16.8374 13.7282 16.6992L13.2285 16.5994H12.7535C12.4194 16.578 12.0841 16.5947 11.7538 16.6492C11.1061 16.7318 10.4884 16.9716 9.95453 17.3477C9.43019 17.7287 9.00923 18.2345 8.72982 18.8193C8.69046 18.8719 8.63492 18.9101 8.57173 18.9281C8.50854 18.9461 8.44119 18.9429 8.38003 18.9189C8.35064 18.9058 8.32436 18.8867 8.30295 18.8627C8.28154 18.8387 8.26549 18.8104 8.25587 18.7798C8.24646 18.749 8.24374 18.7166 8.24789 18.6847C8.25203 18.6528 8.26296 18.6221 8.27993 18.5948V18.5699V18.5699Z" fill="#0EC2BC"/>
<path d="M13.7782 19.6173C16.2525 19.468 17.702 20.7649 18.2518 23.0097C18.8015 25.2545 19.0266 26.4767 19.9264 27.5991C20.8259 28.7215 21.7757 30.6173 20.376 33.9095C19.1264 36.803 15.8776 42.6896 12.8287 47.204C12.4409 47.759 11.9248 48.2121 11.3243 48.5248C10.7238 48.8375 10.0567 49.0005 9.37964 49C8.6134 49 7.8621 48.7882 7.20896 48.3883C6.55623 47.9884 6.02696 47.4156 5.67981 46.7334C5.33296 46.0516 5.18211 45.2869 5.24406 44.5245C5.30602 43.7621 5.57834 43.0318 6.03071 42.415C11.0042 35.5808 13.1785 32.3632 13.2534 30.5175C13.3283 28.1728 11.4541 26.0027 10.6292 24.9802C9.80464 23.9576 10.1793 23.2091 10.7542 23.0097C11.3291 22.81 12.0287 23.1095 12.4537 23.7828C11.8039 21.6379 11.529 19.7421 13.7782 19.6173V19.6173Z" fill="#2AE5C4"/>
<path d="M16.902 14.8535C18.1018 15.6017 18.6015 16.9735 18.0017 17.8963C17.402 18.8193 16.9521 18.3951 16.4024 17.971C15.7594 17.4927 15.0528 17.1067 14.303 16.824C13.4782 16.5494 13.2783 15.8512 13.6781 15.1776C14.0782 14.5042 15.7025 14.1049 16.902 14.8535V14.8535Z" fill="#5865F2"/>
<path d="M42.1441 36.2793C40.2947 33.4607 38.4202 30.6919 36.8208 28.3225C37.2567 25.5383 37.9169 22.7939 38.7951 20.1162C39.245 18.8193 38.9201 17.7467 37.3705 17.6469C35.8209 17.5473 34.9463 18.7447 33.9715 21.1639C32.9968 23.5835 32.4222 24.3566 31.4223 25.6286C30.4227 26.9006 29.8979 28.4223 31.7223 31.5151C32.772 33.336 35.971 38.1997 38.4702 41.9911C39.3551 42.1172 40.2563 41.9322 41.0195 41.4673C41.4383 41.2042 41.8004 40.86 42.0845 40.455C42.3685 40.05 42.5688 39.5924 42.6736 39.1089C42.7782 38.6258 42.7853 38.1266 42.6943 37.6407C42.6034 37.1548 42.4163 36.6919 42.1441 36.2793V36.2793Z" fill="#2AE5C4"/>
<path d="M13.6532 19.6173L13.2285 19.692C13.0768 19.7354 12.9435 19.8272 12.8488 19.9533C12.7541 20.0794 12.7031 20.233 12.7036 20.3908C12.7039 20.6763 12.7374 20.9608 12.8035 21.2386C13.1049 22.6049 13.4801 23.9537 13.9281 25.2793C13.9503 25.3282 13.9852 25.3701 14.0292 25.4009C14.0732 25.4316 14.1246 25.45 14.178 25.4541H14.253C14.2845 25.4431 14.3134 25.4258 14.3381 25.4033C14.3627 25.3808 14.3826 25.3536 14.3965 25.3233C14.4106 25.2932 14.4185 25.2605 14.4196 25.2272C14.4207 25.1939 14.415 25.1608 14.4029 25.1298C14.0531 24.0571 13.6283 22.6355 13.3034 21.139C13.1533 20.4654 13.1784 20.0164 13.3283 19.7921C13.4215 19.7093 13.5328 19.6495 13.6532 19.6173V19.6173Z" fill="black"/>
<path d="M13.0783 27.2249C13.09 27.2755 13.1188 27.3205 13.1598 27.3523C13.2008 27.384 13.2516 27.4007 13.3034 27.3994H13.4033C13.4348 27.3886 13.4638 27.3714 13.4885 27.349C13.5131 27.3265 13.533 27.2993 13.5468 27.2689C13.5609 27.2388 13.5688 27.2061 13.5699 27.1728C13.5711 27.1395 13.5655 27.1064 13.5534 27.0754C13.2783 26.277 12.9036 25.2794 12.4285 23.758C12.2517 23.4725 12.0014 23.2398 11.7038 23.0844C12.3038 25.08 12.7534 26.3022 13.0783 27.2249V27.2249Z" fill="#0EBABA"/>
<path d="M16.1275 25.1795C16.1388 25.2302 16.1674 25.2754 16.2085 25.3073C16.2495 25.3392 16.3004 25.3558 16.3523 25.3543H16.4524C16.4996 25.3374 16.5406 25.3067 16.5702 25.2663C16.5999 25.2259 16.6167 25.1776 16.6186 25.1275C16.6197 25.0942 16.6142 25.061 16.6023 25.0299C16.5774 25.005 15.5278 21.9868 15.2526 20.7898C15.1528 20.3158 15.1528 19.9666 15.3027 19.8667C15.3923 19.8114 15.5 19.7935 15.6027 19.817L14.9277 19.6674C14.8895 19.6781 14.8541 19.697 14.8239 19.7228C14.7937 19.7486 14.7695 19.7806 14.7529 19.8167C14.65 20.1754 14.65 20.5558 14.7529 20.9145C15.0527 22.1367 16.0775 25.0548 16.1275 25.1795V25.1795ZM36.5957 24.1818H36.6707C36.7241 24.1777 36.7755 24.1593 36.8194 24.1286C36.8634 24.0979 36.8983 24.0561 36.9207 24.0073C37.3457 22.6856 38.0953 20.3158 38.3453 19.4428C38.4457 19.1105 38.5046 18.767 38.5203 18.4203C38.5304 18.2838 38.4972 18.1476 38.4254 18.0311C38.3535 17.9146 38.2467 17.8238 38.1202 17.7716C37.936 17.7013 37.7423 17.6593 37.5456 17.6471C37.8204 17.6969 37.8954 17.7716 37.9454 17.8462C37.9955 17.9214 38.0704 18.4949 37.8453 19.2932C37.6205 20.0913 36.7957 22.7851 36.4459 23.8577C36.4211 23.9037 36.4133 23.957 36.4238 24.0081C36.4343 24.0593 36.4625 24.1051 36.5034 24.1376C36.5304 24.1592 36.562 24.1743 36.5957 24.1818V24.1818Z" fill="black"/>
<path d="M36.8208 28.3224C35.9711 28.3473 34.9963 28.4472 34.9463 28.4472C34.9132 28.4532 34.8817 28.4657 34.8535 28.4842C34.8254 28.5026 34.8013 28.5265 34.7826 28.5544C34.7639 28.5823 34.7511 28.6137 34.7448 28.6467C34.7386 28.6797 34.7391 28.7136 34.7464 28.7463C34.7495 28.7759 34.7585 28.8046 34.7728 28.8307C34.7871 28.8568 34.8064 28.8798 34.8296 28.8984C34.8528 28.9171 34.8795 28.9309 34.9082 28.939C34.9368 28.9472 34.9668 28.9496 34.9963 28.946H35.0212C35.7263 28.8624 36.4357 28.8208 37.1457 28.8213H37.1706L36.8208 28.3224ZM31.6225 13.4316L31.3974 12.9825C30.927 13.3113 30.5415 13.7473 30.2728 14.2545C30.2556 14.2818 30.2445 14.3124 30.2404 14.3444C30.2362 14.3763 30.2391 14.4088 30.2488 14.4395C30.2583 14.4703 30.2743 14.4987 30.2957 14.5227C30.3171 14.5468 30.3435 14.5659 30.3729 14.5789H30.4976C30.542 14.5761 30.5852 14.5634 30.6241 14.5419C30.6631 14.5204 30.6967 14.4905 30.7227 14.4545C30.9555 14.0452 31.2703 13.6884 31.6474 13.4064L31.6225 13.4316V13.4316Z" fill="#0EC2BC"/>
<path opacity="0.58" d="M30.5228 24.6558C30.4065 25.1255 30.1773 25.5596 29.855 25.9204C29.5327 26.2812 29.1271 26.5578 28.6734 26.7261C27.024 27.3248 25.5745 26.2024 25.1246 25.4541C24.6747 24.7059 24.7248 24.3566 25.3743 24.5812C27.6736 25.4292 28.6983 25.1547 29.6479 24.3066C29.998 23.9825 30.2479 23.7082 30.4479 23.7331C30.6478 23.758 30.7227 23.9825 30.5228 24.6558V24.6558Z" fill="#2AE5C4"/>
<path d="M12.8035 6.09833C12.8035 6.34775 12.9785 6.47246 13.2783 6.3978C13.4714 6.34632 13.6494 6.24923 13.7973 6.11469C13.9452 5.98016 14.0586 5.81211 14.128 5.62465C14.2281 5.22536 13.9032 5.07576 13.4782 5.27541C13.311 5.35287 13.1635 5.46712 13.0466 5.60962C12.9298 5.75212 12.8467 5.91919 12.8035 6.09833V6.09833ZM24 5.47478C23.9749 5.72448 24.1748 5.84919 24.4497 5.79914C24.6402 5.74224 24.8155 5.64321 24.9626 5.50937C25.1097 5.37554 25.2248 5.21033 25.2994 5.02599C25.4244 4.60181 25.0995 4.45221 24.6496 4.67674C24.4877 4.75153 24.345 4.8623 24.2325 5.0006C24.1199 5.1389 24.0404 5.30109 24 5.47478V5.47478Z" fill="#2FFFDA"/>
</g>
<defs>
<linearGradient id="paint0_linear_85_1270" x1="41.3692" y1="38.1375" x2="30.9467" y2="28.3894" gradientUnits="userSpaceOnUse">
<stop offset="0.04" stop-color="#2AE5C4"/>
<stop offset="0.27" stop-color="#25DFC3"/>
<stop offset="0.56" stop-color="#19CFBF"/>
<stop offset="0.73" stop-color="#0EC2BC"/>
</linearGradient>
<linearGradient id="paint1_linear_85_1270" x1="18.7592" y1="10.1565" x2="22.9819" y2="28.578" gradientUnits="userSpaceOnUse">
<stop stop-color="#2AE5C4"/>
<stop offset="0.9" stop-color="#0EC2BC"/>
</linearGradient>
<clipPath id="clip0_85_1270">
<rect width="45" height="45" rx="22.5" fill="white"/>
</clipPath>
</defs>
</svg>
