<svg width="45" height="45" viewBox="0 0 45 45" fill="none" xmlns="http://www.w3.org/2000/svg">
<g clip-path="url(#clip0_85_1238)">
<rect width="45" height="45" rx="22.5" fill="#5865F2"/>
<path d="M36.2266 22.2765C36.2266 22.2765 39.4988 11.172 40.8043 16.3933C42.1098 21.6153 40.8043 26.8542 36.8878 25.5487L36.2266 22.2765Z" fill="#7567EF"/>
<path d="M18.2549 29.6856C24.2957 28.765 29.8093 25.7166 33.8021 21.0897C34.0106 20.8608 34.2836 20.6981 34.5854 20.6218C34.8872 20.5472 35.2042 20.5624 35.4975 20.6658H35.8366C35.9146 20.6472 35.996 20.6421 36.0757 20.6557C36.1554 20.6675 36.2317 20.6964 36.2995 20.7388C36.3673 20.7811 36.4266 20.8371 36.4724 20.9049C36.5182 20.971 36.5504 21.0456 36.5657 21.1236L38.0068 27.0238C38.0424 27.1797 38.017 27.3425 37.9339 27.4781C37.8525 27.6155 37.7203 27.7138 37.566 27.7528L37.176 27.8545V28.3801C37.176 34.4667 31.7845 34.7719 28.6988 36.4165C26.6473 37.5016 23.0869 41.2994 20.2216 42.2997C17.3563 43.3 16.2034 42.6049 13.0329 42.9609L18.2549 29.6856Z" fill="#CF5B67"/>
<path d="M12.4225 45.9785L6.48846 41.8247C6.48846 41.8247 -2.5991 43.3336 -4.95577 37.1792C-6.4308 33.3136 -7.97366 34.1952 -8.90615 35.4837C-9.57416 36.3586 -9.95394 37.4199 -9.99123 38.5186C-10.1269 42.1468 -8.85529 51.3531 7.30228 52.6077L12.4225 45.9785Z" fill="#6250F0"/>
<path d="M29.3601 25.8876C26.6796 28.5562 23.27 30.3721 19.5604 31.1096L13.9315 41.2822L14.3045 42.8081C16.295 42.9743 18.2973 42.7861 20.2216 42.2486C22.0798 41.3857 23.7956 40.2429 25.308 38.8577C25.6894 37.4031 25.6894 35.8721 25.308 34.4157L29.3601 25.8876Z" fill="#CF5B67"/>
<path d="M18.2548 38.8921C19.6959 37.9528 20.9133 36.705 21.8152 35.2401C22.7189 33.7736 23.2852 32.1256 23.4768 30.4149C23.4768 30.4149 36.5486 26.4984 28.7157 19.971C28.7157 19.971 27.4102 14.0878 22.8325 13.4265L13.0328 16.6988L9.76064 23.2262C9.76064 23.2262 11.7104 29.1094 7.79393 32.3816" fill="#7567EF"/>
<path d="M27.4102 25.8879C27.0457 25.8879 26.749 25.4488 26.749 24.9045C26.749 24.362 27.0457 23.9212 27.4102 23.9212C27.7747 23.9212 28.0714 24.362 28.0714 24.9045C28.0714 25.4488 27.7747 25.8879 27.4102 25.8879Z" fill="#FFFEBD"/>
<path d="M9.13345 24.1413C9.13345 24.1413 6.31901 9.12035 23.5108 12.4936C23.5108 12.4936 18.2888 24.1922 9.13345 24.1413Z" fill="#FC9E17"/>
<path d="M22.8107 22.7512C22.5326 22.2087 22.6005 21.6204 22.9582 21.4373C23.3176 21.2542 23.8313 21.5458 24.1094 22.0883C24.3858 22.6309 24.3179 23.2175 23.9602 23.4006C23.6008 23.5837 23.087 23.2921 22.8107 22.7512V22.7512Z" fill="black"/>
<path d="M24.7821 24.5652C26.8489 25.3027 29.1072 25.3027 31.174 24.5652C31.174 24.5652 31.3265 28.4986 23.4766 30.4484C23.3461 31.4775 23.107 32.4897 22.7645 33.4663C22.4271 34.6412 21.8541 35.7348 21.0776 36.6808C20.3028 37.6252 19.3414 38.4017 18.2547 38.9595L15.6437 35.0261C15.9879 35.0329 16.3303 34.9701 16.6508 34.8413C16.9712 34.7141 17.2611 34.5208 17.5053 34.2767C17.7494 34.0342 17.941 33.7426 18.0699 33.4239C18.1987 33.1034 18.2614 32.761 18.2547 32.4151C18.2547 32.4151 21.5269 31.1096 21.5269 29.1429C22.5221 28.8869 23.3953 28.2867 23.9904 27.4491C24.5855 26.6116 24.8669 25.5909 24.7821 24.5652V24.5652Z" fill="#6250F0"/>
<path d="M28.6769 22.0612C28.4938 21.7441 28.4718 21.4152 28.6261 21.3253C28.7804 21.2372 29.055 21.422 29.2364 21.739C29.4195 22.0578 29.4416 22.3867 29.2873 22.4765C29.133 22.5647 28.8584 22.3799 28.6769 22.0612Z" fill="#6250F0"/>
<path d="M16.2677 28.4039C16.1609 28.2174 16.3762 27.8902 16.7492 27.6748C17.1222 27.4595 17.5122 27.4375 17.619 27.624C17.7275 27.8105 17.5122 28.136 17.1392 28.3513C16.7662 28.5667 16.3762 28.5904 16.2677 28.4039V28.4039Z" fill="#6250F0"/>
<path d="M14.5672 30.8487C14.3942 30.5486 14.7367 30.0265 15.3301 29.684C15.9252 29.3432 16.5475 29.311 16.7221 29.6111C16.895 29.9129 16.5525 30.4351 15.9574 30.7758C15.364 31.1183 14.7418 31.1505 14.5672 30.8487V30.8487Z" fill="#6250F0"/>
<path d="M9.09921 23.9208L14.1855 22.8866C14.5348 22.7204 14.8756 22.5339 15.2028 22.3271C12.4223 20.0552 12.0662 16.2404 12.1341 13.9855C8.35322 17.0542 8.92967 22.734 9.09921 23.9208V23.9208Z" fill="#FC8717"/>
<path d="M8.57395 24.8875C12.0852 24.7722 15.4591 23.4922 18.1634 21.2474C20.8676 19.0043 22.7495 15.9254 23.5108 12.4938" stroke="#FBBB3A" stroke-width="1.75" stroke-miterlimit="10" stroke-linecap="round"/>
<path d="M22.5781 34.2466C22.5781 34.2466 21.5947 42.1135 8.77715 31.2796L4.58941 32.4494L6.97998 41.4183L1.89365 46.0638H7.81075V52.9643C9.72151 54.0697 11.7103 55.0327 13.7618 55.8466C17.5426 56.9486 23.5784 52.5744 23.5784 51.9131C23.5784 50.9128 24.5617 37.1289 24.5617 37.1289L22.5781 34.2466Z" fill="#CF5B67"/>
<path d="M22.7648 33.4667C22.7648 33.4667 20.4251 40.7062 8.77741 31.2796L8.11619 31.483C8.11619 31.483 22.9005 44.5379 22.7648 33.4667Z" fill="#AD434E"/>
<path d="M-7.87224 53.9981L-7.38057 52.8283C-7.63998 52.4196 -7.80274 51.9551 -7.85529 51.4719C-8.31306 47.5554 -4.82044 44.5036 -3.04023 42.113C-1.64996 40.265 0.0793832 36.1281 2.26651 33.9919C2.60729 33.6528 2.97011 33.3357 3.35159 33.0424C3.7195 32.7627 4.13997 32.5609 4.58927 32.449H4.84357C5.70316 32.31 6.5848 32.4609 7.34945 32.878C8.11409 33.295 8.71767 33.9563 9.06524 34.7548C9.21783 35.1278 11.744 41.1975 7.47152 43.0625C5.22166 43.7797 3.26003 45.2004 1.87655 47.1146C1.16955 48.5405 0.749085 50.0901 0.638881 51.6753C0.638881 52.0144 0.554109 52.3705 0.5202 52.7435C0.5202 53.5064 0.367602 54.2863 0.299785 55.1171C0.231967 55.9479 -0.378381 56.0665 -1.15828 55.897L-1.51434 56.7447C-1.54147 56.8108 -1.58216 56.8702 -1.63302 56.921C-1.68388 56.9702 -1.74491 57.0109 -1.81103 57.038C-1.87716 57.0635 -1.94667 57.077 -2.01958 57.077C-2.09078 57.077 -2.1603 57.0618 -2.22642 57.0329L-7.58402 54.778C-7.65862 54.7526 -7.72644 54.7085 -7.78239 54.6542C-7.83834 54.5983 -7.88242 54.5305 -7.90955 54.4559C-7.93837 54.3813 -7.94854 54.3016 -7.94175 54.2236C-7.93497 54.1439 -7.91124 54.0676 -7.87224 53.9981V53.9981Z" fill="#DE6B73"/>
<path d="M26.0538 35.1788C26.2675 34.7346 26.5608 34.3327 26.9185 33.992C27.0982 33.8258 27.3136 33.6986 27.5475 33.6223C27.7815 33.5461 28.0307 33.5223 28.2749 33.5511C28.5648 33.663 28.8666 33.741 29.1735 33.7885C29.4023 33.797 29.6278 33.7326 29.8177 33.602C30.3365 33.2019 30.7689 32.7 31.0893 32.127C31.2436 31.8387 31.4589 31.5861 31.7183 31.3878C31.9794 31.1877 32.2795 31.047 32.5982 30.9741C32.8916 30.9418 33.1866 30.9418 33.4799 30.9741C34.5802 31.0978 35.689 30.835 36.6165 30.2281C36.7657 30.1247 36.9064 30.011 37.0403 29.889C36.1248 34.3649 31.5132 34.7888 28.7157 36.2638C27.2661 37.215 25.8843 38.2628 24.5788 39.4004C24.5144 39.2224 24.4872 39.0308 24.5025 38.8409C24.5161 38.651 24.572 38.4662 24.6636 38.2984C25.0518 37.2269 25.5164 36.1842 26.0538 35.1788V35.1788Z" fill="#BC4D58"/>
<path d="M40.4653 20.1401C39.8888 21.666 39.7702 23.0393 40.211 23.2089C40.6518 23.3784 40.94 22.8867 41.3808 22.1407C41.647 21.6931 41.8742 21.2218 42.059 20.7335C42.6355 19.2076 42.754 17.8343 42.3133 17.6648C41.8725 17.4952 41.0587 18.5464 40.4653 20.1401Z" fill="#7567EF"/>
</g>
<defs>
<clipPath id="clip0_85_1238">
<rect width="45" height="45" rx="22.5" fill="white"/>
</clipPath>
</defs>
</svg>
