<svg width="45" height="45" viewBox="0 0 45 45" fill="none" xmlns="http://www.w3.org/2000/svg">
<g clip-path="url(#clip0_85_1202)">
<rect width="45" height="45" rx="22.5" fill="#5960FA"/>
<path d="M14.6728 39.541C14.7009 39.3698 14.6903 39.1946 14.6419 39.028C14.5941 38.8614 14.5091 38.7076 14.3946 38.5777C14.2795 38.4477 14.1376 38.3449 13.9781 38.2767C13.8187 38.2084 13.6459 38.1765 13.4732 38.183L7.89503 38.2474C5.63976 38.2633 3.47017 39.1117 1.80207 40.6295C1.55625 40.8577 1.41577 41.0102 1.41577 41.0102C0.150126 42.5202 -0.814911 44.2586 -1.42877 46.1317C-1.48145 46.2856 -1.50533 46.4485 -1.49901 46.6115C-1.48355 46.7751 -1.41332 46.9289 -1.29954 47.0476C-1.18576 47.167 -1.03545 47.2436 -0.872504 47.2668C-0.303594 47.3012 0.267422 47.3012 0.836332 47.2668C1.4214 47.3019 1.73184 47.9108 2.41102 47.7352C2.53042 47.7064 2.64139 47.6488 2.7334 47.5674C2.82541 47.4859 2.89495 47.3826 2.93779 47.2668L3.61064 44.8612L3.96182 45.8972C3.99273 45.9997 4.05525 46.0903 4.14023 46.1556C4.22522 46.2209 4.32846 46.2575 4.43592 46.2603C4.64943 46.254 4.85874 46.1992 5.04767 46.1001C5.23661 46.0004 5.40096 45.8599 5.52738 45.6879C5.65381 45.5158 5.73879 45.317 5.77671 45.107C5.81534 44.8963 5.80481 44.6807 5.74722 44.4749L5.37849 43.6321C5.2921 43.3111 5.27524 42.9747 5.32932 42.6466C5.3834 42.3179 5.50631 42.0054 5.69103 41.728C5.87505 41.4512 6.11666 41.2166 6.39901 41.0404C6.68135 40.8641 6.99742 40.7503 7.32753 40.706L13.5139 40.5768C13.8005 40.5761 14.0765 40.47 14.29 40.279C14.5035 40.088 14.6398 39.8253 14.6728 39.541V39.541Z" fill="#FF85C6"/>
<path d="M13.4556 38.183L10.4291 38.2182C9.97329 39.1756 9.30955 40.0198 8.48639 40.6884L13.4963 40.5831C13.6536 40.5803 13.8096 40.5465 13.9536 40.4833C14.0982 40.4208 14.2289 40.3302 14.3384 40.2171C14.448 40.1034 14.5344 39.9699 14.592 39.8231C14.6496 39.6765 14.6784 39.52 14.6756 39.3624C14.6728 39.2048 14.639 39.0493 14.5765 38.9048C14.5133 38.7602 14.4227 38.6295 14.3096 38.52C14.1966 38.4105 14.0624 38.3244 13.9163 38.2665C13.7695 38.2087 13.6129 38.1803 13.4556 38.183V38.183Z" fill="black"/>
<path d="M0.87149 45.8508C0.87149 45.8508 1.41581 43.6559 2.51009 42.5609" stroke="#FF6CBA" stroke-width="1.87" stroke-miterlimit="10" stroke-linecap="round"/>
<path d="M19.484 12.9977C19.484 12.9977 32.0794 9.16399 27.5906 22.1634L19.484 12.9977Z" fill="#F6C649" stroke="#FFC42B" stroke-width="0.94" stroke-miterlimit="10"/>
<path d="M24.576 15.4209C27.9881 20.4778 32.5534 26.9513 26.7533 27.6536C23.5695 28.034 19.1447 26.7991 15.7614 21.7421C12.3782 16.6851 11.2312 13.0621 14.4038 9.33373C17.5756 5.60541 21.1815 10.358 24.576 15.4209V15.4209Z" fill="#FFE734"/>
<path d="M38.7517 51.0307C38.3064 51.1536 37.8337 51.1381 37.3968 50.9864C36.96 50.8347 36.5793 50.5545 36.3054 50.1815C35.0994 48.5724 32.6061 49.7545 32.3314 49.7369C32.4249 49.6491 34.5263 48.7361 35.4218 46.6466C36.6446 43.7901 35.8959 42.3095 35.3628 41.6949C35.3291 41.6563 35.2862 41.6268 35.2378 41.6092C35.1893 41.5924 35.1374 41.5882 35.0868 41.5966C35.0362 41.6057 34.9885 41.6275 34.9484 41.6598C34.9091 41.6921 34.8782 41.735 34.8599 41.7827C34.1864 43.5386 31.8861 44.4397 31.8861 44.4397C29.7088 45.3121 29.9666 47.2492 30.1717 48.6483C30.282 49.4188 30.1253 50.204 29.7264 50.8726C29.3752 51.4577 25.343 55.3909 23.8736 56.8251C23.7121 56.9846 23.5077 57.0941 23.2858 57.1398C23.0631 57.1854 22.832 57.1658 22.6213 57.0822L20.2038 56.1754C20.043 56.1193 19.8962 56.0294 19.774 55.9114C19.6511 55.7927 19.5562 55.6494 19.4944 55.4906C19.4333 55.3319 19.4073 55.1612 19.4186 54.9913C19.4298 54.822 19.4783 54.6562 19.5598 54.5073C20.2565 53.1665 21.6907 50.7785 21.6907 50.7785C21.6907 50.7785 26.0685 43.1116 26.0685 34.8995C26.6185 21.2094 21.1401 12.4475 15.668 13.542C12.7413 14.1272 12.074 16.925 12.0972 19.3949V19.8339V20.5187C12.0972 20.9285 12.0565 21.3381 12.0157 21.7478C11.8781 23.3854 11.5093 24.9954 10.9208 26.5298C10.4783 27.6222 10.2612 28.7928 10.283 29.9713C10.3034 30.7943 10.4635 31.6077 10.7571 32.3769C11.4391 34.0508 11.7179 35.8615 11.5711 37.663C11.425 39.4646 10.8575 41.2068 9.91428 42.7485C9.01315 44.156 7.8655 45.3893 6.5254 46.3888C-0.0943223 51.3292 -0.199679 53.5121 5.27309 62.274H25.5298C25.5298 62.274 30.3585 54.0269 31.5469 53.0612C31.9451 52.7395 32.3019 52.6222 32.5478 52.868C35.176 55.5082 37.991 52.9973 39.1324 51.6333C39.1879 51.5736 39.2216 51.497 39.2293 51.4163C39.237 51.3355 39.2173 51.254 39.1738 51.1852C39.131 51.1164 39.0656 51.0644 38.9891 51.0363C38.9132 51.0082 38.8296 51.0061 38.7517 51.0307V51.0307Z" fill="#FF85C6"/>
<path d="M6.50223 46.3888C4.52369 47.8638 3.13091 49.0929 2.2937 50.322C5.47749 52.1306 15.1061 55.7014 23.3174 51.8735C23.7388 51.1536 25.9337 43.3223 26.051 35.239C26.051 35.239 11.0261 40.9926 9.89111 42.7485C8.98998 44.156 7.84163 45.39 6.50223 46.3888V46.3888Z" fill="#FFC42B"/>
<path d="M18.448 28.0749C18.5168 28.0754 18.5835 28.0539 18.639 28.0137C18.6945 27.9734 18.7359 27.9165 18.757 27.8512C18.7774 27.7858 18.7774 27.7155 18.7556 27.6504C18.7331 27.5855 18.6917 27.5291 18.6355 27.4897C17.5293 26.8692 17.0784 25.6635 16.6745 24.727C16.31 23.6919 16.0305 22.6291 15.8373 21.5488C15.5802 20.4836 15.0472 17.8088 13.3559 18.16C12.5011 18.3414 12.367 19.4944 12.039 21.0865C12.039 21.3147 12.039 21.5488 11.9919 21.7771C11.8634 23.1818 15.2115 27.5775 18.448 28.0749V28.0749Z" fill="black"/>
<path d="M21.6282 23.1942C21.7469 22.0073 21.4154 21.0024 20.8879 20.9497C20.3604 20.8969 19.8365 21.8163 19.7178 23.0032C19.5991 24.1901 19.9306 25.195 20.4581 25.2477C20.9855 25.3004 21.5095 24.381 21.6282 23.1942Z" fill="white"/>
<path d="M20.6836 23.0297C20.7601 22.2161 20.555 21.5313 20.2095 21.4201C19.9285 21.9031 19.7607 22.4433 19.7178 23.0004C19.6448 23.4905 19.6314 23.9877 19.6771 24.4812C19.7291 24.4963 19.7817 24.5081 19.8351 24.5163C20.5255 24.5866 20.5958 23.89 20.6836 23.0297Z" fill="black"/>
<path d="M23.2795 27.1156C23.3814 26.1025 23.0983 25.2446 22.6481 25.1996C22.1979 25.1546 21.7505 25.9394 21.6493 26.9526C21.5475 27.9658 21.8306 28.8236 22.2808 28.8686C22.7317 28.9137 23.1784 28.1288 23.2795 27.1156Z" fill="white"/>
<path d="M22.4689 26.9689C22.5392 26.2782 22.358 25.6929 22.0651 25.5992C21.8263 26.0127 21.6837 26.475 21.6493 26.9513C21.584 27.3675 21.572 27.7904 21.6142 28.2097C21.6584 28.2255 21.7034 28.2373 21.749 28.2448C22.3404 28.3034 22.3987 27.7064 22.4689 26.9689Z" fill="black"/>
<path d="M9.8441 47.6067C8.23851 48.7958 6.81273 50.2111 5.6124 51.8089C5.95796 51.9374 6.32038 52.0604 6.69544 52.1833C7.80587 50.7849 9.09469 49.5375 10.5289 48.4727C13.5722 46.1023 14.3273 42.1339 14.5148 40.062C14.1053 40.2495 13.7127 40.4363 13.3439 40.647C13.0574 42.62 12.2497 45.7335 9.8441 47.6067V47.6067Z" fill="#FFB800"/>
<path d="M22.1178 41.4786C22.0468 41.4913 21.9794 41.5187 21.9197 41.5587C21.8593 41.5987 21.808 41.65 21.768 41.7097C21.728 41.7701 21.7006 41.8375 21.6872 41.9085C21.6739 41.9787 21.6753 42.0517 21.6907 42.122C22.4043 45.704 19.8407 50.6381 18.179 53.366C18.653 53.3014 19.1328 53.2136 19.6125 53.1083C21.3276 50.1815 23.4818 45.4996 22.7618 41.9057C22.7478 41.8354 22.7197 41.768 22.6797 41.7083C22.6396 41.6486 22.5884 41.5973 22.5287 41.558C22.469 41.5179 22.4015 41.4906 22.3313 41.4772C22.2604 41.4632 22.188 41.4639 22.1178 41.4786V41.4786Z" fill="#FFB800"/>
<path d="M19.1096 40.4012C19.0408 40.3788 18.9684 40.3696 18.8968 40.3752C18.8251 40.3802 18.7549 40.3998 18.6903 40.4328C18.6264 40.4651 18.5695 40.5101 18.5224 40.5656C18.4761 40.6204 18.4403 40.6836 18.4185 40.7524C18.4185 40.8114 16.4582 46.8341 15.1876 48.8415C14.5092 49.9245 13.1922 51.8209 12.0916 53.3836C12.5074 53.43 12.9225 53.4714 13.3439 53.5065C14.3624 52.0491 15.4861 50.4218 16.1183 49.409C17.4527 47.2843 19.3786 41.3206 19.4608 41.0685C19.5008 40.9336 19.4868 40.7882 19.4214 40.6632C19.3554 40.5382 19.2437 40.4448 19.1096 40.4012V40.4012Z" fill="#FFB800"/>
<path d="M27.1516 44.7558C26.0566 41.4667 26.0566 39.2776 26.0566 34.8996C26.1156 33.4656 26.1037 32.096 26.0566 30.8025C23.3413 29.9948 17.8629 38.7509 11.3015 34.2323C11.4511 35.7348 11.4511 37.2484 11.3015 38.7509C10.5872 41.0923 7.53825 43.4333 7.46802 43.6791C12.7533 47.226 23.3174 46.9451 27.1516 44.7558V44.7558Z" fill="#2F33E1"/>
<path d="M26.0566 35.4029L23.6398 35.6839C23.6398 35.6839 23.8267 39.1488 26.2322 40.5943C26.0812 38.8684 26.0222 37.1354 26.0566 35.4029Z" fill="black"/>
<path d="M23.6398 35.6838C23.6862 35.9261 23.7845 36.1554 23.9278 36.3563C24.0711 36.5571 24.2558 36.7249 24.4693 36.8481C24.6835 36.9714 24.9209 37.0472 25.1668 37.0705C25.4119 37.0938 25.6598 37.064 25.893 36.9832L32.8583 34.5542C34.6282 33.9415 36.2479 32.9578 37.6076 31.6687C38.9667 30.3797 40.0357 28.8152 40.7423 27.0799C40.8652 26.7756 40.9291 26.6 40.9291 26.6C41.9826 23.4622 42.5283 20.1763 42.5445 16.8665C42.5452 16.6307 42.5038 16.3969 42.4216 16.1758C42.3198 15.9619 42.1491 15.7882 41.937 15.6822C41.7249 15.5761 41.4832 15.5439 41.2515 15.5905C40.6657 15.6373 39.7765 16.1758 38.9393 16.3924C38.1021 16.609 37.4236 15.9242 36.5983 16.4685C36.4501 16.5642 36.3279 16.6938 36.2401 16.8465C36.1523 16.9992 36.1025 17.1706 36.0947 17.3464L36.2233 22.2103C36.2191 22.2766 36.1952 22.3401 36.1537 22.3923C36.113 22.4446 36.0568 22.4831 35.9936 22.5028C35.9297 22.5225 35.8616 22.5224 35.7984 22.5026C35.7351 22.4827 35.679 22.444 35.6382 22.3917L34.8186 21.0338C34.7603 20.9374 34.6676 20.8665 34.5594 20.835C34.4505 20.8036 34.3346 20.8139 34.2335 20.8641C33.9413 21.005 33.6829 21.2067 33.475 21.4557C33.2671 21.7046 33.1153 21.9951 33.0283 22.3076C32.9419 22.6202 32.9236 22.9475 32.9735 23.2679C33.024 23.5882 33.142 23.8942 33.3204 24.1651L34.4618 25.921C34.7223 26.3183 34.8951 26.7665 34.9696 27.2359C35.0433 27.7054 35.0159 28.1851 34.8895 28.6432C34.7631 29.1012 34.5411 29.5272 34.237 29.8924C33.9329 30.2577 33.555 30.5539 33.1273 30.7615L24.7692 33.7582C24.3864 33.8983 24.0648 34.1671 23.859 34.5184C23.6532 34.8696 23.5752 35.2816 23.6398 35.6838V35.6838Z" fill="#FF85C6"/>
<path d="M39.2083 17.926C39.5054 20.3174 39.3164 22.7442 38.6527 25.0607" stroke="#FF6CBA" stroke-width="1.87" stroke-miterlimit="10" stroke-linecap="round"/>
<path d="M38.7517 51.0307C38.3057 51.1536 37.8337 51.1381 37.3969 50.9864C36.96 50.8347 36.5793 50.5545 36.3054 50.1815C35.3102 48.859 33.4433 49.4209 32.6588 49.6548C32.6061 49.6548 32.5766 49.5965 32.6237 49.567C33.8465 48.918 34.8277 47.8918 35.4211 46.6409C36.6447 43.7788 35.8896 42.2976 35.3629 41.6893C35.3291 41.65 35.2863 41.6205 35.2378 41.6036C35.1894 41.5868 35.1374 41.5819 35.0868 41.591C35.0356 41.5994 34.9885 41.6212 34.9485 41.6542C34.9091 41.6865 34.8782 41.7286 34.86 41.7771C34.1864 43.533 31.8862 44.4341 31.8862 44.4341C29.7089 45.3065 29.9666 47.2436 30.1717 48.6427C30.282 49.4124 30.1247 50.1977 29.7264 50.8663C29.5874 51.0742 29.4307 51.2702 29.2587 51.4521C29.8465 51.0398 30.4674 50.676 31.1136 50.3634C31.1733 50.3381 31.2386 50.329 31.3032 50.3367C31.3671 50.3452 31.4282 50.3698 31.4802 50.4091C31.5315 50.4484 31.5722 50.5004 31.5968 50.5601C31.6221 50.6198 31.6312 50.6851 31.6228 50.7497C31.4879 51.8384 30.2181 54.1267 30.3586 54.5305C30.6971 54.0087 31.089 53.524 31.5294 53.0851C31.9276 52.7627 32.2844 52.6461 32.5302 52.8919C35.1578 55.5314 37.9735 53.0204 39.1148 51.6565C39.1795 51.6003 39.2223 51.5237 39.2357 51.4387C39.2497 51.3545 39.2343 51.2681 39.1914 51.1943C39.1486 51.1199 39.0811 51.063 39.0011 51.0335C38.921 51.0033 38.8325 51.0026 38.7517 51.0307V51.0307Z" fill="#FF5EB3"/>
<path d="M16.9674 31.4579C16.9674 31.4579 18.8869 32.6988 19.6827 30.2874" stroke="#FF6CBA" stroke-width="1.65" stroke-miterlimit="10" stroke-linecap="round"/>
<path d="M16.3817 33.2548C16.3817 33.2548 17.5525 33.8402 17.9156 32.0258" stroke="#FF6CBA" stroke-width="1.65" stroke-miterlimit="10" stroke-linecap="round"/>
<path d="M13.0517 22.7196C13.0517 22.7196 15.2698 20.6418 14.3623 24.0307L13.0517 22.7196Z" fill="white"/>
<path d="M13.9297 24.7505C13.9297 24.7505 16.1477 22.6727 15.2403 26.0616L13.9297 24.7505Z" fill="white"/>
<path d="M18.9396 27.7823C18.8694 28.4437 16.7503 28.3266 14.0111 23.3984C12.2145 20.1676 10.7276 21.5899 10.9503 23.3984C11.0802 24.3343 11.0142 25.287 10.7571 26.1962C10.4277 27.4216 10.2606 28.6849 10.2599 29.9538C10.2599 30.5039 17.8685 29.9538 17.8685 29.9538L20.5782 28.3091L18.9396 27.7823Z" fill="#FF85C6"/>
<path d="M19.6012 37.352C19.6012 38.4816 17.7688 40.5712 15.5037 40.5712C15.1132 40.5971 14.7213 40.5389 14.3539 40.4012C13.9873 40.2635 13.6544 40.0486 13.3769 39.7712C13.1002 39.4944 12.8853 39.1612 12.7476 38.7945C12.6093 38.4277 12.5517 38.0356 12.5777 37.6446C12.6479 36.515 13.2386 37.6446 15.5037 37.6446C17.7688 37.6446 19.6012 36.2224 19.6012 37.352V37.352Z" fill="#4247FF"/>
</g>
<defs>
<clipPath id="clip0_85_1202">
<rect width="45" height="45" rx="22.5" fill="white"/>
</clipPath>
</defs>
</svg>
