<svg width="45" height="45" viewBox="0 0 45 45" fill="none" xmlns="http://www.w3.org/2000/svg">
<g clip-path="url(#clip0_85_1179)">
<path d="M6.50047 40.8294C6.41159 40.7959 6.32262 40.7594 6.23309 40.7287C5.95446 40.6351 5.66771 40.5662 5.38908 40.4725C4.74533 40.2558 4.2176 39.9159 3.69338 39.4966C3.00247 40.307 2.43349 41.2317 2.00534 42.1865H7.68495C7.44822 41.8202 7.22967 41.442 7.03115 41.0539C6.8486 41.0403 6.66779 40.9685 6.50047 40.8294Z" fill="#9AFFD8"/>
<path d="M2.843 38.6985C2.36825 38.1678 1.98717 37.5571 1.78579 36.8697C1.5425 36.0398 1.60379 35.0874 2.12976 34.3759C2.96317 33.2486 4.41087 33.0094 5.67658 33.3964C5.72845 32.9877 5.79914 32.5813 5.89162 32.1796C6.38576 30.0315 7.39055 28.1603 8.74587 26.5765C8.80125 26.067 9.02737 25.5735 9.29889 25.1488C9.86077 24.2688 10.6353 23.5202 11.4753 22.8741C10.3927 22.8046 9.3119 22.6998 8.23521 22.5508C7.87057 22.5001 7.76046 21.9087 7.87297 21.6396C8.02017 21.2879 9.02035 21.189 9.35547 21.116C10.4492 20.8774 11.5783 20.8162 12.6821 20.6307C13.0036 20.5764 13.3258 20.5252 13.6492 20.4798C14.2306 20.3986 14.8154 20.3391 15.4026 20.2949C15.7737 19.6618 16.1012 19.0091 16.5287 18.4066C17.5765 16.9324 18.9908 15.626 20.7248 14.9145C22.3445 14.2501 24.353 14.0528 25.9662 14.8432C26.5634 15.136 27.2296 15.5559 27.8846 16.0366C30.1274 15.0618 32.5175 14.3803 34.7592 13.3831C36.7424 12.5014 38.7514 11.2074 39.4694 9.15948C40.3699 6.59033 38.8068 3.64177 36.4791 2.23002C34.1513 0.818172 31.2765 0.65029 28.5637 0.878307C26.7177 1.0332 24.8471 1.35184 23.0283 1.00134C21.2095 0.650935 19.4013 -0.568255 19.0308 -2.383C19.0014 -2.52555 18.9825 -2.66866 18.9713 -2.81113H6.48294C5.35152 -2.26926 4.14876 -1.90357 3.01088 -1.72915C2.31463 -1.6226 1.62381 -1.57665 0.937614 -1.5784L-0.937408 20.1569L0.937614 41.7094C1.41523 40.6369 2.03784 39.6315 2.80765 38.7386C2.81947 38.7251 2.83119 38.7121 2.843 38.6985Z" fill="#9AFFD8"/>
<path d="M22.9679 3.05313C24.7867 3.40363 26.6573 3.0849 28.5032 2.93001C31.2162 2.70208 34.1504 0.817166 36.4781 2.22901C38.8058 3.64085 40.369 6.58933 39.4684 9.15848C38.7504 11.2064 36.7414 12.5005 34.7583 13.3821C32.5166 14.3793 30.1265 15.0608 27.8836 16.0355C28.8902 16.7729 29.8696 17.6523 30.5317 18.431C30.984 18.9634 31.616 19.7149 31.7497 20.4176C32.0789 20.4977 32.4053 20.5926 32.7298 20.7027C33.0678 20.817 33.413 20.9436 33.7575 21.0838C34.8749 20.3452 36.1053 19.7591 37.3351 19.2809C40.0751 18.2148 43.0171 17.9109 45.9361 18.0446V-2.81213H18.9704C18.9815 -2.66958 18.9416 -0.474316 18.9705 -0.331207C19.3415 1.48344 21.1491 2.70272 22.9679 3.05313Z" fill="#9FA9FF"/>
<path d="M35.0181 21.6771C35.7844 22.0959 36.4917 22.6107 37.0377 23.2562C37.5118 23.8163 37.8735 24.509 37.8329 25.2629C37.8023 25.833 37.5701 26.4038 37.2097 26.8626C37.2321 26.9032 37.2539 26.9439 37.2751 26.9845C37.3705 27.1677 37.4588 27.3538 37.539 27.5441C38.1344 28.9547 38.5903 30.4967 38.86 32.0804C39.1981 31.9991 39.5544 32.0015 39.8984 32.081C40.8561 32.3025 41.5765 33.0906 41.8987 33.9906C41.9039 34.0052 41.9081 34.02 41.9128 34.0347C42.0506 34.3999 42.1231 34.7968 42.1401 35.2062C42.222 37.2064 40.6512 38.676 39.2394 39.848C38.9814 40.0619 38.6769 40.1538 38.3854 40.0972C38.3612 40.1679 38.3382 40.2386 38.3129 40.308C38.0667 40.9877 37.7692 41.6115 37.4276 42.1852H45.9362V19.2234C42.1278 19.0532 38.3312 19.6887 35.0181 21.6771Z" fill="#9FA9FF"/>
<path d="M3.64845 39.4613C3.36216 39.2298 3.09008 38.9742 2.84273 38.698C2.83092 38.7115 2.81911 38.7245 2.80739 38.7381C2.03757 39.631 1.41496 40.6363 0.937347 41.7089V42.1866H2.00518C2.43332 41.2318 3.00176 40.3071 3.69321 39.4966C3.67845 39.4843 3.66377 39.473 3.64845 39.4613Z" fill="white"/>
<path d="M37.3347 19.2808C36.1049 19.759 34.8745 20.3451 33.7572 21.0837C34.1836 21.258 34.6094 21.4542 35.0182 21.6779C38.3307 19.689 42.128 19.054 45.9363 19.2243V18.045C43.0173 17.9108 40.0753 18.2147 37.3347 19.2808Z" fill="white"/>
<path d="M12.5313 -1.52048L-4.91773 6.56307L-5.00476 16.7549C-4.0463 16.5744 1.31924 19.4892 6.94422 15.7392C18.3354 8.1451 11.0963 -0.461156 12.5313 -1.52048Z" fill="#FAFFA0"/>
<path d="M42.1411 35.2075C42.1247 34.7987 42.0516 34.4018 41.9138 34.0365C41.9091 34.0218 41.905 34.0072 41.8997 33.9924C41.5775 33.0924 40.8572 32.3043 39.8994 32.0829C39.5555 32.0034 39.1992 32.0011 38.861 32.0823C38.5907 30.4985 38.1354 28.956 37.54 27.5459C37.4599 27.3556 37.3715 27.1695 37.2761 26.9863C37.2549 26.9451 37.2325 26.9045 37.2108 26.8644C37.0323 27.0923 36.8226 27.2926 36.5888 27.4517C35.733 28.0341 34.5862 27.9771 33.6184 27.7838C32.6784 27.596 31.7502 27.2378 30.9127 26.7725C30.8697 26.7484 30.8267 26.7237 30.7842 26.6995C30.4297 26.4963 30.0857 26.2743 29.7552 26.0339C29.0343 25.5103 28.3753 24.9031 27.7963 24.2269C27.7863 24.3583 27.7751 24.489 27.7615 24.6192C27.6237 25.9262 27.2763 27.4411 26.1212 28.2309C25.2471 28.8282 23.8754 28.8771 23.3836 27.7862C23.019 26.9781 23.0997 26.001 23.2611 25.1098C23.2587 25.1157 23.2563 25.121 23.254 25.1269C22.8406 26.15 22.4571 27.1754 21.8604 28.1101C21.0382 29.3971 19.799 30.8402 18.2593 31.2164C17.8506 31.3166 17.4207 31.3425 16.9712 31.2689C16.3275 31.164 15.7391 30.8366 15.517 30.1929C15.3338 29.6616 15.4475 29.0554 15.6212 28.5378C15.7856 28.0471 16.0041 27.5742 16.255 27.1159C15.8316 27.4352 15.385 27.7273 14.9045 27.9794C13.3525 28.794 11.0979 29.6727 9.53995 28.4294C9.05699 28.0436 8.74947 27.49 8.73239 26.8668C8.72953 26.7702 8.73479 26.6736 8.74541 26.5775C7.39008 28.1614 6.38529 30.0326 5.89115 32.1806C5.79868 32.5823 5.72798 32.9887 5.67611 33.3975C4.41041 33.0106 2.96325 33.2497 2.1293 34.377C1.60332 35.0879 1.54204 36.0409 1.78532 36.8708C1.9867 37.5582 2.36842 38.1689 2.84253 38.6996C3.08988 38.9758 3.36205 39.2315 3.64825 39.4629C3.66302 39.4747 3.67834 39.4865 3.69301 39.4983C4.21724 39.9176 4.74497 40.2575 5.38871 40.4742C5.66734 40.5679 5.95419 40.6368 6.23273 40.7304C6.3229 40.7605 6.41122 40.797 6.50019 40.8312C6.66743 40.9701 6.84823 41.0426 7.03088 41.0556C7.22931 41.4437 7.44786 41.8218 7.68459 42.1882L14.8202 46.8757H16.255H25.6494H29.8831H31.0764L37.4281 42.1882C37.7697 41.6145 38.0671 40.9902 38.3133 40.3111C38.3387 40.241 38.3622 40.1703 38.3857 40.1003C38.6773 40.1568 38.9819 40.0649 39.2398 39.8511C40.6522 38.6778 42.223 37.2082 42.1411 35.2075Z" fill="#24193A"/>
<path d="M37.0377 23.2566C36.4917 22.6111 35.7844 22.0963 35.0181 21.6775C34.6093 21.4537 34.1835 21.2575 33.7571 21.0832C33.4124 20.9424 33.0667 20.8164 32.7293 20.7016C32.4047 20.5914 32.0784 20.4966 31.7491 20.4165C31.8252 20.8176 31.7404 21.2022 31.3651 21.5215C31.3151 21.5638 31.2604 21.6051 31.2003 21.6451C31.146 21.6811 31.0878 21.7146 31.0282 21.747C30.2331 22.177 28.9903 22.2818 27.8023 22.3195C27.3506 22.3336 26.9065 22.339 26.4983 22.3484C26.1408 22.3566 25.8109 22.3684 25.527 22.3931C23.5416 22.5669 21.5455 22.7336 19.5464 22.8455C17.4432 22.9627 15.3363 23.018 13.2355 22.955C12.6476 22.9374 12.0604 22.9108 11.4738 22.8732C10.6345 23.5193 9.85929 24.2679 9.29741 25.1478C9.02589 25.5725 8.79977 26.0661 8.74439 26.5756C8.73378 26.6716 8.72907 26.7682 8.73138 26.8648C8.74845 27.4879 9.05597 28.0421 9.53894 28.4274C11.0974 29.6707 13.352 28.792 14.9035 27.9773C15.384 27.7253 15.8306 27.4331 16.254 27.1139C16.0031 27.5721 15.7846 28.0451 15.6202 28.5358C15.4465 29.054 15.3328 29.6595 15.516 30.1908C15.7381 30.8345 16.3264 31.1614 16.9702 31.2669C17.4197 31.3405 17.849 31.3146 18.2583 31.2144C19.7986 30.8375 21.0378 29.3951 21.8594 28.1081C22.4561 27.174 22.8396 26.1486 23.253 25.1249C23.2553 25.119 23.2577 25.1137 23.26 25.1078C23.0987 25.9989 23.018 26.9761 23.3826 27.7842C23.8743 28.8756 25.2461 28.8267 26.1202 28.2288C27.2752 27.439 27.6227 25.9241 27.7605 24.6172C27.7741 24.487 27.7853 24.3562 27.7953 24.2249C28.3737 24.901 29.0333 25.5083 29.7542 26.0319C30.0853 26.2723 30.4286 26.4943 30.7832 26.6974C30.8262 26.7222 30.8687 26.747 30.9117 26.7706C31.7491 27.2358 32.6774 27.5939 33.6174 27.7818C34.5852 27.975 35.7325 28.0321 36.5878 27.4496C36.821 27.2906 37.0307 27.0897 37.2097 26.8624C37.5701 26.403 37.8023 25.8328 37.8329 25.2627C37.8741 24.5094 37.5118 23.8167 37.0377 23.2566Z" fill="#FFCD2E"/>
<path d="M31.7493 20.417C31.6157 19.7144 30.9842 18.9628 30.5313 18.4304C29.8693 17.6517 28.8892 16.7724 27.8832 16.035C27.2283 15.5549 26.5621 15.1344 25.9649 14.8417C24.3516 14.0513 22.3432 14.2486 20.7235 14.913C18.9895 15.6244 17.5753 16.9308 16.5275 18.405C16.0993 19.0076 15.7724 19.6596 15.4013 20.2934C14.8141 20.3376 14.2292 20.3971 13.6479 20.4783C13.3245 20.5237 13.0023 20.5749 12.6808 20.6291C11.577 20.8152 10.4485 20.8765 9.35417 21.115C9.01841 21.188 8.01832 21.287 7.87167 21.6386C7.75917 21.9078 7.86927 22.4991 8.23392 22.5498C9.31052 22.6988 10.3914 22.8042 11.474 22.8732C12.0606 22.9109 12.6477 22.9374 13.2356 22.9551C15.3365 23.0181 17.4434 22.9627 19.5466 22.8455C21.5457 22.7336 23.5417 22.5669 25.5272 22.3931C25.8111 22.3684 26.141 22.3567 26.4985 22.3484C26.9066 22.339 27.3502 22.3343 27.8025 22.3195C28.9905 22.2818 30.2327 22.1763 31.0284 21.747C31.088 21.7146 31.1462 21.6811 31.2004 21.6451C31.2604 21.6051 31.3158 21.5638 31.3653 21.5214C31.7399 21.2028 31.8253 20.8182 31.7493 20.417ZM12.6319 22.0621C12.9299 21.8701 13.2344 21.6881 13.546 21.5196C13.2344 21.6881 12.9299 21.8701 12.6319 22.0621ZM16.1876 20.6097C16.2937 20.6138 16.3802 20.6474 16.4468 20.6998C16.3802 20.6474 16.2937 20.6138 16.1876 20.6097Z" fill="#FF5CEF"/>
<path d="M19.6822 36.4385C19.6734 36.3767 19.6634 36.3149 19.6528 36.2536C19.6634 36.3154 19.6734 36.3773 19.6822 36.4385Z" fill="white"/>
<path d="M19.7046 36.6219C19.6987 36.5642 19.6916 36.5065 19.6834 36.4488C19.6916 36.5065 19.6987 36.5642 19.7046 36.6219Z" fill="white"/>
<path d="M19.6838 36.4504C19.6831 36.4465 19.6831 36.4427 19.6825 36.4388C19.6831 36.4427 19.6831 36.4465 19.6838 36.4504Z" fill="white"/>
<path d="M19.705 36.6223C19.705 36.6235 19.705 36.6254 19.7056 36.6267C19.7056 36.6254 19.705 36.6241 19.705 36.6223Z" fill="white"/>
<path d="M19.7052 36.6268C18.4501 37.5969 16.904 38.1988 15.3214 38.3602C14.7259 38.4209 14.1257 38.4185 13.5332 38.3508C12.572 38.24 11.632 37.9555 10.772 37.4791C10.6854 37.4308 10.5995 37.3807 10.5158 37.3289C10.2637 37.1734 10.024 37.002 9.79607 36.8159C9.65708 37.6334 9.75657 38.4839 10.1136 39.2396C10.5029 40.0636 11.2143 40.7191 12.0059 41.152C13.3494 41.8859 15.0787 42.1398 16.5635 41.668C16.8592 41.5738 17.1461 41.4519 17.4176 41.2981C17.496 41.254 17.5719 41.2063 17.6473 41.1574C19.1369 40.1855 19.8849 38.3702 19.7052 36.6268Z" fill="white"/>
<path d="M34.3801 36.4084C34.3595 36.0286 34.29 35.6617 34.1751 35.3147C33.5178 35.9685 32.7451 36.5086 31.8515 36.8944C31.7414 36.9421 31.6295 36.9869 31.5164 37.0304C31.1571 37.1676 30.7843 37.2831 30.4032 37.3762C28.8659 37.7502 27.1938 37.7543 25.7018 37.352C25.2048 37.2177 24.7118 37.0198 24.2872 36.7359C24.2653 36.9627 24.2642 37.1918 24.2853 37.4203C24.432 38.9994 25.5087 40.2446 26.9688 40.7988C27.3623 40.9478 27.7687 41.0249 28.1851 41.0762C28.2781 41.088 28.3671 41.0598 28.443 41.0091C29.4697 41.1687 30.5663 41.0444 31.5247 40.6763C31.9051 40.5302 32.2632 40.3453 32.5872 40.125C32.6502 40.082 32.712 40.0384 32.7721 39.9925C33.9071 39.1308 34.4567 37.825 34.3801 36.4084Z" fill="white"/>
<path d="M19.6532 36.2547C19.652 36.2477 19.6503 36.2406 19.6491 36.233C19.6391 36.1787 19.6285 36.1246 19.6161 36.0704C19.6026 36.0079 19.5872 35.9461 19.5714 35.8849C19.1891 34.4383 18.1478 33.5619 16.8791 33.1755C16.6376 33.1019 16.3873 33.0459 16.1323 33.0076C15.9408 32.9788 15.7465 32.9593 15.5504 32.9499C15.4196 32.9434 15.2882 32.9411 15.1563 32.9429C14.8924 32.9464 14.6273 32.9664 14.3635 33.0029C14.2976 33.0117 14.2316 33.0218 14.1662 33.0329C14.0348 33.0553 13.9035 33.0813 13.7739 33.1107C13.7091 33.1255 13.6443 33.1413 13.5795 33.1584C13.4506 33.192 13.3228 33.2297 13.1961 33.2715C13.0065 33.334 12.8203 33.4046 12.6383 33.4835C12.5171 33.5359 12.398 33.5925 12.2814 33.6526C12.1648 33.7126 12.0505 33.7763 11.9387 33.8434C11.8273 33.9105 11.7183 33.9813 11.6123 34.0554C11.3484 34.241 11.104 34.4477 10.8849 34.6756C10.7972 34.767 10.7141 34.8612 10.6346 34.959C10.5162 35.1056 10.4072 35.2593 10.3101 35.4201C10.2759 35.4761 10.2435 35.5332 10.2123 35.5916C10.184 35.644 10.1569 35.6976 10.131 35.7512C10.0491 35.9213 9.97964 36.0981 9.92371 36.2818C9.90719 36.3348 9.89243 36.389 9.87831 36.4426C9.87305 36.4621 9.86834 36.4815 9.86363 36.501C9.85477 36.5351 9.84711 36.5699 9.83945 36.6046C9.83419 36.6276 9.82884 36.6505 9.82413 36.6741C9.82007 36.693 9.81712 36.7118 9.81352 36.7312C9.80826 36.7601 9.80235 36.7889 9.79709 36.8184C10.0244 37.0045 10.2641 37.1759 10.5168 37.3314C10.6011 37.3833 10.6864 37.4333 10.773 37.4816C11.633 37.9581 12.573 38.2431 13.5342 38.3533C14.1267 38.4216 14.7269 38.4234 15.3224 38.3628C16.905 38.2013 18.4511 37.5994 19.7062 36.6293C19.6927 36.5027 19.675 36.3784 19.6532 36.2547Z" fill="#427EFC"/>
<path d="M34.1743 35.3141C34.159 35.2676 34.1425 35.2211 34.1254 35.1757C34.1231 35.1698 34.1213 35.1646 34.1189 35.1587C34.1043 35.1192 34.0883 35.0798 34.0724 35.0409C34.0695 35.0338 34.0665 35.0267 34.0636 35.0203C34.0271 34.9325 33.9871 34.8465 33.9441 34.7622C33.9399 34.7546 33.9364 34.7469 33.9322 34.7393C33.9134 34.7022 33.8934 34.6651 33.8734 34.6286C33.8704 34.6238 33.8681 34.6186 33.8651 34.6139C33.8415 34.5721 33.818 34.5314 33.7932 34.4902C33.7903 34.4854 33.7873 34.4807 33.7844 34.476C33.7626 34.4406 33.7408 34.4059 33.7178 34.3718C33.7126 34.3636 33.7067 34.3547 33.7008 34.3464C33.6755 34.3088 33.6495 34.271 33.6224 34.2333C33.6219 34.2328 33.6219 34.2321 33.6213 34.2316C33.5936 34.1933 33.5653 34.1562 33.5365 34.1185C33.5299 34.1102 33.5235 34.102 33.517 34.0937C33.4935 34.0644 33.4699 34.0349 33.4458 34.0054C33.4393 33.9971 33.4322 33.9895 33.4257 33.9813C33.3956 33.9459 33.3651 33.9106 33.3333 33.8758C33.3297 33.8723 33.3261 33.8682 33.3226 33.8646C33.295 33.834 33.2661 33.804 33.2373 33.7745C33.2284 33.7657 33.2196 33.7563 33.2101 33.7475C33.1831 33.7198 33.1554 33.6927 33.1271 33.6662C33.1213 33.6603 33.1147 33.6544 33.1088 33.6485C33.0753 33.6167 33.0405 33.5855 33.0052 33.5543C32.9964 33.5466 32.9881 33.5395 32.9793 33.5319C32.9516 33.5078 32.9233 33.4842 32.8945 33.4606C32.8844 33.4523 32.8738 33.4435 32.8639 33.4353C32.8267 33.4058 32.7896 33.3763 32.7519 33.3475C32.6918 33.3021 32.6312 33.2592 32.5693 33.2173C32.0127 32.8404 31.3837 32.5936 30.7275 32.4676C30.6739 32.4569 30.6198 32.4475 30.5661 32.4387C30.4001 32.4116 30.2322 32.3927 30.0643 32.3809C29.8412 32.3651 29.6167 32.3627 29.3923 32.3727C29.387 32.3727 29.3817 32.3733 29.3764 32.3739C29.1573 32.3845 28.9388 32.4069 28.722 32.4411C28.5 32.4764 28.2803 32.5241 28.0642 32.5836C27.9198 32.623 27.7773 32.6684 27.6371 32.7191C27.3567 32.8198 27.0847 32.9417 26.8249 33.0837C26.5651 33.2256 26.3183 33.3876 26.0881 33.569L26.0875 33.5696C26.0545 33.5954 26.0221 33.622 25.9897 33.6485C25.9791 33.6573 25.9686 33.6662 25.9585 33.675C25.9367 33.6939 25.9149 33.7121 25.8932 33.7315C25.8813 33.7421 25.869 33.7527 25.8572 33.7633C25.8371 33.781 25.8171 33.7992 25.7977 33.8176C25.7854 33.8287 25.7735 33.8399 25.7612 33.8517C25.7411 33.8705 25.7218 33.8894 25.7023 33.9088C25.6911 33.9194 25.6799 33.9306 25.6687 33.9418C25.6457 33.9642 25.6234 33.9877 25.601 34.0107C25.5933 34.0184 25.5863 34.0261 25.5786 34.0337C25.5492 34.0644 25.5203 34.0955 25.4914 34.1274C25.4832 34.1362 25.4755 34.145 25.4679 34.1539C25.4473 34.1768 25.4266 34.2004 25.4066 34.224C25.396 34.2363 25.3854 34.2486 25.3748 34.2611C25.3571 34.2817 25.34 34.3022 25.323 34.3235C25.3118 34.337 25.3012 34.3506 25.2906 34.3636C25.274 34.3841 25.2576 34.4047 25.2417 34.4259C25.2311 34.4395 25.2205 34.4531 25.2105 34.4666C25.1934 34.489 25.1769 34.5119 25.1598 34.5343C25.151 34.5467 25.1422 34.5585 25.1333 34.5709C25.1086 34.605 25.0845 34.6397 25.0603 34.6751C25.0556 34.6816 25.0514 34.6886 25.0467 34.6951C25.0273 34.724 25.0079 34.7535 24.989 34.7829C24.9802 34.7964 24.9713 34.8106 24.9625 34.8247C24.9483 34.847 24.9342 34.8701 24.9201 34.893C24.9107 34.9084 24.9013 34.9242 24.8924 34.9396C24.8795 34.9613 24.8671 34.9832 24.8541 35.005C24.8447 35.0208 24.8358 35.0367 24.8271 35.0532C24.8147 35.0756 24.8023 35.0985 24.79 35.121C24.7817 35.1363 24.7735 35.1516 24.7652 35.1675C24.7517 35.194 24.7381 35.2205 24.7245 35.247C24.7186 35.2588 24.7122 35.2706 24.7063 35.2829C24.6881 35.3207 24.6704 35.3583 24.6533 35.396C24.6468 35.4107 24.6404 35.4255 24.6338 35.4407C24.6233 35.4655 24.612 35.4897 24.6021 35.5144C24.595 35.5315 24.5879 35.5491 24.5808 35.5663C24.5714 35.5886 24.5626 35.6116 24.5538 35.6346C24.5467 35.6522 24.5402 35.6705 24.5331 35.6882C24.5249 35.7106 24.5166 35.7335 24.5084 35.7565C24.5019 35.7741 24.4955 35.7918 24.4896 35.8101C24.4813 35.8343 24.4737 35.8584 24.4654 35.8832C24.4601 35.8996 24.4548 35.9161 24.4495 35.9326C24.4371 35.972 24.426 36.0109 24.4147 36.0504C24.4112 36.0639 24.4077 36.0775 24.4042 36.0916C24.3971 36.1193 24.3894 36.147 24.383 36.1746C24.3788 36.1929 24.3747 36.2106 24.3706 36.2289C24.3652 36.2524 24.36 36.276 24.3547 36.2995C24.3506 36.3184 24.3471 36.3373 24.3435 36.3567C24.3388 36.3796 24.3347 36.4032 24.3305 36.4261C24.327 36.445 24.3241 36.4644 24.3205 36.4833C24.3164 36.5074 24.3128 36.531 24.3099 36.5551C24.3076 36.5734 24.3046 36.5917 24.3023 36.6099C24.2987 36.6377 24.2957 36.6659 24.2928 36.6942C24.291 36.7083 24.2893 36.7225 24.2881 36.7371C24.7128 37.021 25.2058 37.2189 25.7028 37.3532C27.1948 37.7555 28.8669 37.7514 30.4042 37.3774C30.7852 37.285 31.1575 37.1695 31.5174 37.0316C31.6305 36.9886 31.7424 36.9433 31.8525 36.8956C32.7449 36.5086 33.5176 35.968 34.1743 35.3141C34.1743 35.3141 34.1749 35.3141 34.1743 35.3141Z" fill="#427EFC"/>
</g>
<defs>
<clipPath id="clip0_85_1179">
<rect width="45" height="45" rx="22.5" fill="white"/>
</clipPath>
</defs>
</svg>
