<svg width="45" height="45" viewBox="0 0 45 45" fill="none" xmlns="http://www.w3.org/2000/svg">
<g clip-path="url(#clip0_85_1117)">
<rect width="45" height="45" rx="22.5" fill="#E2C5ED"/>
<path d="M26.7049 18.7837C25.8273 16.5866 25.8273 15.0179 26.8932 15.0179C27.2069 12.9463 28.0845 12.7581 28.6483 13.0718C29.2122 13.3856 29.0876 14.7042 29.0876 14.7042C31.7831 12.067 33.5383 12.4443 33.8512 13.2601C34.1649 14.0758 31.9705 15.2062 31.9705 15.2062C34.0394 15.3944 35.1052 15.6454 35.2307 16.2729C35.3562 16.9004 34.0394 17.0267 33.2873 17.0895C34.7287 17.466 35.9201 18.1562 35.6691 18.8464C35.419 19.5375 33.0363 19.0347 33.0363 19.0347C34.1021 19.6003 34.3531 20.7925 31.2811 20.5415C28.21 20.2905 27.3324 20.4788 26.7049 18.7837Z" fill="#CC914B"/>
<path d="M28.3344 34.7279C30.1524 36.1093 30.0269 36.8623 30.1524 38.4946H21.1255L13.0389 32.5936C13.2899 30.522 14.7313 29.3925 17.3641 29.6435C19.9969 29.8945 28.3344 34.7279 28.3344 34.7279Z" fill="#244296"/>
<path d="M34.165 38.6828C36.233 40.7544 36.735 42.0094 37.6754 44.7093C38.6157 47.4084 40.4964 48.2241 41.4995 51.5515C42.5017 54.8781 40.1199 58.4565 33.5375 57.5144C31.0302 57.1379 28.2092 56.6359 25.8274 54.5016C23.4448 52.3673 27.5199 50.8604 32.4098 50.6094L34.165 38.6828Z" fill="#BA8241"/>
<path d="M34.6658 38.8084L35.7944 39.0594C35.8572 42.6378 34.7913 47.9104 32.4096 50.6095H31.9703L34.6658 38.8084Z" fill="#FBECCE"/>
<path d="M17.4268 63.1008C7.45956 63.2263 2.69512 62.5988 3.57271 60.841C3.9439 60.1481 4.27884 59.4349 4.57579 58.7067C4.57579 58.7067 4.26293 55.8193 5.20327 54.6898C5.6319 54.1207 6.09236 53.5754 6.58198 53.0575C6.58198 53.0575 4.95228 40.7545 9.27749 30.0828C13.2271 30.5221 14.4176 31.4642 17.1758 33.0956C19.9341 34.728 22.8179 36.7368 22.8179 36.7368C32.1585 36.2975 33.2244 36.7368 34.6658 38.8084C34.6685 43.4199 33.6848 47.9784 31.782 52.179C32.2062 54.6863 32.3538 57.2342 32.2213 59.7742C32.1585 61.6575 30.0269 62.8498 17.4268 63.1008Z" fill="#355FD4"/>
<path d="M22.818 36.7368C22.818 36.7368 20.3734 34.979 17.1768 33.0956C13.9793 31.2132 13.2272 30.5221 9.27758 30.0828C8.23738 32.6714 7.48087 35.3652 7.0213 38.1173L10.4689 47.0311C13.1644 49.6046 20.0597 51.5507 20.0597 51.5507L32.7234 49.7937C33.9748 46.2648 34.6314 42.552 34.6659 38.8084C33.2245 36.7368 32.1586 36.2975 22.818 36.7368Z" fill="#446DE0"/>
<path d="M25.0754 36.6739L24.8871 36.9249C24.8871 36.9249 24.6989 45.6504 27.8336 43.7043C30.9684 41.7583 30.1527 38.4945 29.9026 36.6111C28.7112 36.5484 27.1443 36.6111 25.0754 36.6739Z" fill="#244296"/>
<path d="M17.7406 32.9709C16.3796 32.2594 14.977 31.6301 13.54 31.0875C12.7084 32.6871 12.5042 34.5404 12.9682 36.2823C13.4322 38.0251 14.5307 39.5311 16.0481 40.5033C20.3734 43.4533 23.0689 43.7043 23.0689 43.7043L17.7406 32.9709Z" fill="#244296"/>
<path d="M14.5434 31.8406C14.2306 34.6024 15.672 36.674 17.741 38.8711C19.8099 41.0682 20.1227 41.5074 19.0569 48.2241C17.9919 54.9409 12.4754 61.6576 12.4754 61.6576L29.1496 60.6527C29.6702 54.7721 29.1611 48.8455 27.6455 43.1398C27.2071 41.4447 27.4572 41.5702 28.2093 40.378C28.6406 39.7293 28.9199 38.9922 29.0286 38.2206C29.1373 37.4491 29.071 36.6634 28.8368 35.921C28.8368 35.921 33.0365 30.4593 33.4757 24.4337C33.573 22.7351 33.0922 21.0532 32.1138 19.6631C31.1346 18.272 29.7144 17.2548 28.0847 16.7758C26.0644 16.204 23.9027 16.4408 22.0538 17.4368C20.2058 18.432 18.8165 20.1085 18.1793 22.1111C16.8634 26.066 15.9858 29.8319 15.9858 29.8319C15.5563 29.9573 15.1806 30.2233 14.9191 30.5875C14.6583 30.9516 14.5258 31.3926 14.5434 31.8406Z" fill="#BA8241"/>
<path d="M27.6451 43.1397C27.5399 42.8356 27.4763 42.5192 27.4569 42.1984V48.475C24.6358 48.9823 21.745 48.9611 18.9319 48.4123C17.8033 55.0662 12.4123 61.6575 12.4123 61.6575L17.0512 61.4065L29.2748 56.6986C29.3605 52.125 28.8117 47.5621 27.6451 43.1397Z" fill="#AD6937"/>
<path d="M9.88103 47.6152C10.8497 47.5764 11.4771 43.6126 11.2827 38.7633C11.0883 33.914 10.1453 30.014 9.17666 30.0528C8.20804 30.0917 7.58056 34.0546 7.77499 38.9048C7.96942 43.7541 8.91241 47.6541 9.88103 47.6152Z" fill="#FBECCE"/>
<path d="M9.45981 46.5097C10.0829 46.5009 10.5371 42.8403 10.4744 38.3339C10.4116 33.8275 9.85574 30.181 9.23268 30.1899C8.60961 30.1987 8.15535 33.8593 8.2181 38.3657C8.28085 42.8721 8.83675 46.5177 9.45981 46.5097Z" fill="#BA8241"/>
<path d="M9.52873 30.2082C8.08728 28.5758 5.32901 25.563 5.32901 18.2188C5.32901 14.4522 6.7077 9.1168 7.96178 6.85697C8.00155 6.77125 8.021 6.67757 8.02012 6.58389C8.01835 6.48933 7.99624 6.39652 7.95382 6.31168C7.9114 6.22684 7.85131 6.15349 7.77619 6.09605C7.70196 6.03772 7.61534 5.99795 7.52255 5.97851C6.3321 5.91576 4.70152 6.79422 2.94633 9.74428C2.91717 7.68772 2.77047 5.63383 2.50799 3.59318C2.44524 2.90207 1.94325 2.90206 1.63039 3.15394C0.125312 4.4089 -1.06513 8.36384 -1.75536 14.5777C-2.25823 13.1133 -2.90869 11.7045 -3.69791 10.3726C-3.9489 9.93252 -4.26264 9.86977 -4.5755 10.3726C-5.82958 12.3178 -6.70717 16.3983 -6.14332 22.613C-7.20916 22.2992 -8.21137 22.2365 -7.96126 25.1865C-7.80395 26.8162 -7.22065 28.3752 -6.26882 29.7062C-7.45927 29.5179 -7.77302 30.6474 -7.14642 32.468C-6.51894 34.2886 -2.94581 40.8171 10.2181 44.5201L9.52873 30.2082Z" fill="#BA8241"/>
<path d="M9.52862 46.4036C5.70451 46.0899 2.88349 45.0223 3.13448 41.884H9.46587L9.52862 46.4036Z" fill="#BA8241"/>
<path d="M16.7374 26.9444C16.5386 27.6161 16.5041 28.3249 16.6349 29.0133C16.7657 29.7009 17.0582 30.3478 17.4895 30.8993C19.0565 32.719 21.6265 32.719 24.0719 31.9033C26.5164 31.0876 29.0865 28.0111 29.5885 24.7473C30.0896 21.4835 26.7047 20.6042 22.0657 22.7385C21.4391 22.9895 21.3764 22.9268 21.3764 22.2993C21.3136 18.6581 19.9968 18.8463 19.0565 20.2904C18.6773 20.8516 18.3821 21.465 18.1789 22.111C17.615 23.8689 17.113 25.5631 16.7374 26.9444Z" fill="#E6CD9F"/>
<path d="M23.0689 24.6846C23.7662 24.3267 24.5431 24.1535 25.3261 24.1827C25.7424 24.1888 26.1507 24.2967 26.5165 24.4964C26.8338 24.7191 27.1096 24.9949 27.3314 25.3121C27.4569 25.4376 27.3941 25.5631 27.2686 25.6886C27.144 25.815 27.0813 25.6886 26.9558 25.6259C26.7684 25.3749 26.521 25.1743 26.2364 25.0426C25.9518 24.9109 25.639 24.8526 25.3261 24.8729C24.6712 24.8985 24.0384 25.1168 23.5082 25.5004C23.3994 25.5587 23.2731 25.5719 23.1555 25.5366C23.038 25.5012 22.939 25.4209 22.8807 25.3121C22.8223 25.2043 22.81 25.0771 22.8453 24.9595C22.8807 24.842 22.9611 24.743 23.0689 24.6846Z" fill="#3C2439"/>
<path d="M19.1205 23.617C19.1824 23.1804 19.1824 22.7359 19.1205 22.2993C19.0684 22.1208 18.9579 21.9661 18.8068 21.8591C18.7193 21.8388 18.6283 21.8397 18.5408 21.8618C18.4533 21.883 18.3729 21.9254 18.3048 21.9855H18.0547C18.0547 21.8591 18.0547 21.7964 18.1174 21.7337C18.2385 21.6365 18.3817 21.5684 18.5337 21.5357C18.6857 21.503 18.8439 21.5065 18.995 21.5454C19.3079 21.6082 19.4961 21.9228 19.6216 22.1738C19.7657 22.6846 19.8496 23.2114 19.8726 23.7425C19.8576 23.8318 19.8116 23.9122 19.7427 23.9696C19.6729 24.0271 19.5863 24.058 19.4961 24.0562C19.4502 24.066 19.4024 24.0651 19.3574 24.0536C19.3114 24.0421 19.269 24.02 19.2328 23.9899C19.1965 23.9599 19.1682 23.9219 19.1479 23.8795C19.1285 23.8362 19.1188 23.7902 19.1205 23.7425V23.617Z" fill="#3C2439"/>
<path d="M19.8097 26.6925C19.1937 26.6581 18.5839 26.5529 17.9918 26.3788C17.6153 26.2533 17.427 26.1278 19.0576 25.6885C20.6873 25.2493 20.8755 25.8141 20.3736 26.4415C20.3214 26.5405 20.2366 26.6191 20.1349 26.6642C20.0324 26.7102 19.9184 26.7199 19.8097 26.6925Z" fill="#5F354C"/>
<path d="M27.2066 25.6886C27.5257 25.6842 27.8341 25.5746 28.0842 25.3749C28.2716 25.2494 28.2716 25.2494 27.5822 25.3121L27.0184 25.4376L27.2066 25.6886Z" fill="#3C2439"/>
<path d="M25.8309 28.6528C26.6687 28.4353 27.222 27.7699 27.0655 27.1654C26.91 26.5617 26.104 26.2471 25.2662 26.4646C24.4283 26.682 23.8751 27.3474 24.0315 27.951C24.1871 28.5555 24.9931 28.8693 25.8309 28.6528Z" fill="#D9AC9D"/>
<path d="M17.7407 23.4287C17.4897 24.2453 17.2396 25.0611 17.0514 25.8141H17.1769C17.5525 25.8141 17.8662 25.1238 17.8662 24.2453C17.8547 23.9687 17.8132 23.6956 17.7407 23.4287Z" fill="#D9AC9D"/>
<path d="M27.7708 38.2427C26.7049 37.8662 26.0156 37.3014 26.0784 38.4318C26.1411 39.5613 25.389 39.4985 24.5114 38.6828C23.6338 37.8662 23.4456 37.427 22.819 38.1799C22.1915 38.9338 21.5649 38.871 20.5618 37.6152C20.3249 37.959 20.0271 38.2568 19.6842 38.4946C19.1831 38.8711 18.6184 37.7407 18.4301 36.9877C18.2428 36.2347 18.18 35.9837 16.4248 36.6112L15.9229 36.7367C16.4734 37.4932 17.0815 38.2073 17.7408 38.871C17.8557 39.0823 18.0033 39.2731 18.18 39.4357C19.1566 39.6912 20.1897 39.6258 21.1257 39.2475C22.0032 40.5653 22.568 40.1888 23.7584 39.0593C25.5764 41.1309 26.5167 40.4398 26.454 38.5573C27.1504 38.9771 27.914 39.2749 28.7111 39.4357C29.1389 38.3098 29.1831 37.0743 28.8366 35.9201C29.0876 38.2427 28.7739 38.62 27.7708 38.2427Z" fill="#AD6937"/>
<path d="M15.9226 36.7366C14.7313 37.0504 14.0419 37.1131 15.1078 35.2298C16.1736 33.3464 15.9226 36.7366 15.9226 36.7366Z" fill="#BA8241"/>
<path d="M23.9464 44.6456H24.0719C24.8868 45.7133 25.4506 45.274 25.8271 44.0182C26.2027 42.7632 26.1409 44.0182 25.8271 44.8976C25.5134 45.776 25.1378 46.5918 24.1347 45.8388C23.1943 46.8428 22.1912 47.0309 21.6265 45.3367C21.0627 43.6417 21.6265 45.0858 22.1912 45.525C22.7551 45.9642 23.6954 45.8387 23.9464 44.6456Z" fill="#AD6937"/>
<path d="M2.94606 9.74425C0.0631725 13.5737 0.815272 20.6041 0.815272 20.6041C-1.943 18.2188 -3.57269 19.6629 -2.82059 22.9895C-2.0685 26.3169 1.94297 30.0827 1.94297 30.0827C-2.13125 29.3924 -2.25673 33.7866 3.13432 35.3553C8.52537 36.9249 9.59119 37.2386 8.7136 37.4269C7.83601 37.6151 3.57355 36.7994 0.250544 35.7954C-3.07158 34.7906 -4.95226 30.3964 0.501535 29.5807C-4.45028 24.2453 -4.76402 20.7296 -3.25982 19.0345C-1.75475 17.3403 0.313292 19.0345 0.313292 19.0345C-0.627049 15.3942 -0.250569 10.6863 2.94606 9.1795V9.74425Z" fill="#AD6937"/>
<path d="M25.2634 35.6072C26.2037 36.9877 27.7079 37.6161 27.5824 35.7327C27.4569 33.8494 27.2687 35.2298 26.9558 35.8582C26.6421 36.4857 24.6359 34.6024 25.2634 35.6072Z" fill="#AD6937"/>
</g>
<defs>
<clipPath id="clip0_85_1117">
<rect width="45" height="45" rx="22.5" fill="white"/>
</clipPath>
</defs>
</svg>
