<svg width="45" height="45" viewBox="0 0 45 45" fill="none" xmlns="http://www.w3.org/2000/svg">
<g clip-path="url(#clip0_85_3112)">
<rect width="45" height="45" rx="22.5" fill="#66BCFF"/>
<path d="M4.8374 32.3289C4.12759 32.3203 3.42309 32.4522 2.76449 32.7171C2.10589 32.9819 1.50621 33.3745 1 33.8722C2.3875 37.2172 4.64057 40.1326 7.52773 42.3186C8.52903 41.7158 9.30683 40.8033 9.74349 39.7192C10.1802 38.635 10.2519 37.4382 9.948 36.3097C9.64407 35.1811 8.98094 34.1822 8.05889 33.464C7.13684 32.7458 6.00602 32.3473 4.8374 32.3289V32.3289Z" fill="#EB459F"/>
<path d="M2.62671 34.039C2.68928 34.3935 3.64863 34.8523 5.02509 35.0609C6.40155 35.2694 7.48603 35.1026 7.63202 34.7689C8.13844 33.7009 8.59087 32.608 8.98762 31.4946C9.21703 30.8272 8.75822 29.8053 6.23471 29.6176C3.71121 29.4299 2.89784 29.7636 2.50159 30.3058C2.10533 30.8481 2.25132 32.2245 2.62671 34.039V34.039Z" fill="#BF0F76"/>
<path d="M10.6978 21.0461C10.2598 20.9835 9.73841 21.1921 9.11275 22.5477C9.17531 20.8375 9.1336 19.1274 9.1336 18.314C9.1336 17.5007 8.75819 17.2504 8.32023 17.2087C8.19745 17.1942 8.073 17.2053 7.9547 17.2412C7.8364 17.2771 7.72681 17.3371 7.6328 17.4174C7.5388 17.4977 7.46241 17.5966 7.40844 17.7078C7.35447 17.819 7.32406 17.9402 7.31916 18.0638C7.25659 18.7103 7.19404 20.6707 7.17318 21.3172C7.15233 21.9637 7.13147 22.0889 7.04805 22.0889C6.96463 22.0889 6.86035 21.8803 6.73522 21.4215C6.49864 20.6628 6.22014 19.9178 5.901 19.1899C5.4839 18.1889 5.35877 17.5632 4.00317 17.8552C2.64756 18.1472 1.56307 19.3359 1.22939 20.1284C0.895698 20.9209 1.33367 21.6092 2.33473 24.0701C1.56308 27.2819 1.6465 27.7407 2.14703 28.3872C2.64756 29.0337 3.79461 28.992 5.69245 28.8669C9.86354 28.5957 9.84267 28.3246 10.3015 26.5102C10.7603 24.6958 11.0314 23.1525 11.1357 22.5268C11.24 21.9012 11.2817 21.1295 10.6978 21.0461V21.0461Z" fill="#FFE75C"/>
<path d="M8.40372 24.1326C8.43863 24.1231 8.47044 24.1046 8.49603 24.079C8.52163 24.0534 8.54013 24.0215 8.5497 23.9866C8.71266 23.4908 8.90061 23.0036 9.11281 22.5268C9.11281 22.2348 9.13366 21.922 9.13366 21.63C8.75168 22.3038 8.44399 23.017 8.21602 23.7572C6.35988 24.0492 5.31712 24.9668 4.94173 26.677C4.93548 26.7292 4.94918 26.7819 4.98012 26.8244C5.01106 26.867 5.05694 26.8962 5.10855 26.9064H5.15028C5.19271 26.9041 5.23341 26.8889 5.26695 26.8628C5.3005 26.8367 5.32527 26.801 5.33796 26.7604C5.67164 25.1754 6.63101 24.362 8.40372 24.1326V24.1326Z" fill="black"/>
<path d="M4.37854 28.6166C4.33683 29.4717 4.35769 30.6605 4.35769 30.6605L7.56943 30.8899L7.75714 28.137L4.37854 28.6166Z" fill="#FFE75C"/>
<path d="M17.6635 29.1797C12.971 30.0765 11.8657 33.9139 12.2411 38.3144C10.1555 39.67 9.38385 41.2342 9.40471 43.5908C12.9846 45.7437 17.1353 46.7551 21.3043 46.4906C25.4733 46.2261 29.4628 44.6981 32.7419 42.1101L33.5761 30.4102C33.5761 30.4102 22.3768 28.3038 17.6635 29.1797V29.1797Z" fill="#EB459F"/>
<path d="M10.1972 35.0608C7.56941 35.9368 5.94268 37.8763 5.52557 40.5875C8.05467 43.0871 11.187 44.8903 14.6185 45.8223L17.1838 29.0128C13.3672 28.5122 9.98864 30.5352 10.1972 35.0608V35.0608Z" fill="#EB459F"/>
<path d="M18.3309 31.9535C16.1411 27.5322 14.9732 27.0734 15.2026 25.7178C15.432 24.3622 18.456 24.2787 22.4811 24.2996C26.5062 24.3205 22.2726 31.7033 22.2726 31.7033L18.3309 31.9535Z" fill="black"/>
<path d="M17.6636 29.1796C12.9711 30.0764 11.8657 33.9138 12.2411 38.3143C10.2807 39.5865 9.48821 41.0672 9.40479 43.1945" stroke="black" stroke-width="0.6" stroke-linecap="round" stroke-linejoin="round"/>
<path d="M24.1286 30.6605C19.3319 32.7878 19.9575 34.3519 21.3757 38.4813C20.3067 39.4551 19.5084 40.6894 19.0588 42.0638C18.6092 43.4382 18.5236 44.9056 18.8105 46.3229" stroke="white" stroke-width="0.6" stroke-linecap="round" stroke-linejoin="round"/>
<path d="M29.6553 4.48685C31.0735 2.67243 32.9505 1.65052 34.7232 2.10934C36.4959 2.56815 36.8713 3.56921 37.8307 9.03333C41.1467 10.7852 41.5429 11.244 38.9151 15.0606C41.3344 17.4589 41.6472 18.6894 38.5189 21.4006L35.0778 21.5674C32.1371 19.1274 31.6157 19.0231 33.0339 15.4985C28.3832 9.93012 28.9671 8.9082 29.6553 4.48685V4.48685Z" fill="url(#paint0_linear_85_3112)"/>
<path d="M34.1393 15.7905C34.1393 15.1232 34.473 14.6018 34.8692 14.6018C35.2655 14.6018 35.62 15.1232 35.62 15.7905" stroke="white" stroke-width="0.6" stroke-linecap="round" stroke-linejoin="round"/>
<path d="M33.2008 11.1397C34.2604 11.1397 35.1194 10.2807 35.1194 9.22104C35.1194 8.16137 34.2604 7.30234 33.2008 7.30234C32.1411 7.30234 31.282 8.16137 31.282 9.22104C31.282 10.2807 32.1411 11.1397 33.2008 11.1397Z" fill="#4452F2"/>
<path d="M32.4708 8.3243C33.5305 8.3243 34.3895 7.46528 34.3895 6.40561C34.3895 5.34594 33.5305 4.48691 32.4708 4.48691C31.4112 4.48691 30.5521 5.34594 30.5521 6.40561C30.5521 7.46528 31.4112 8.3243 32.4708 8.3243Z" fill="#4452F2"/>
<path d="M30.0099 7.46917C31.0696 7.46917 31.9286 6.61014 31.9286 5.55048C31.9286 4.49081 31.0696 3.63177 30.0099 3.63177C28.9503 3.63177 28.0912 4.49081 28.0912 5.55048C28.0912 6.61014 28.9503 7.46917 30.0099 7.46917Z" fill="#4452F2"/>
<path d="M28.1121 6.28036C28.7571 6.28036 29.2799 5.75747 29.2799 5.11245C29.2799 4.46744 28.7571 3.94455 28.1121 3.94455C27.467 3.94455 26.9442 4.46744 26.9442 5.11245C26.9442 5.75747 27.467 6.28036 28.1121 6.28036Z" fill="#4452F2"/>
<path d="M21.6051 33.0171C25.4008 33.0171 28.404 31.0358 30.2393 29.3674C31.467 28.2265 32.2565 26.6917 32.4708 25.0295C32.7837 22.5685 33.2842 18.3766 33.5553 14.1012C33.9724 7.44835 29.8013 4.77886 25.8596 5.1334C21.918 5.48794 18.6437 7.57349 17.9137 14.1012C13.3464 14.1012 11.6988 14.7269 11.386 16.4162C11.0731 18.1055 13.0961 19.2108 16.0784 20.483C16.7875 20.775 16.871 20.8375 16.9961 21.2546C17.1212 21.6717 17.58 23.7782 20.333 26.0097C19.6239 27.699 19.457 29.0129 19.6447 30.9316C19.8324 32.8503 20.8543 33.0171 21.6051 33.0171V33.0171Z" fill="url(#paint1_linear_85_3112)"/>
<path d="M21.3758 31.7657C19.7699 27.6989 18.9774 27.0316 16.016 24.8417C15.5363 25.0503 15.2652 25.3214 15.2026 25.7177C14.9732 27.0733 16.1411 27.5321 18.3309 31.9534L21.3758 31.7657Z" fill="#BF0F76"/>
<path d="M32.1581 12.6206C35.9121 12.3494 36.8923 12.4954 37.08 13.4131C37.2677 14.3307 36.1832 15.0606 32.3458 17.0419L32.1581 12.6206Z" fill="#FFE75C"/>
<path d="M24.0244 18.1055C23.8158 18.6894 23.8158 19.6697 23.8367 20.7541C23.8575 21.8386 23.9618 23.2359 22.6271 23.3402C21.2923 23.4445 20.5832 21.9012 20.2287 21.2338C19.8741 20.5664 19.7907 20.483 19.603 20.3787C19.4153 20.2745 18.6437 19.8782 17.9554 19.5237C17.2672 19.1691 16.8501 18.8146 17.0378 18.606C17.2255 18.3975 19.0399 18.7729 21.0004 18.9606C22.9608 19.1483 23.2736 18.5226 23.8367 17.8552C23.941 17.7301 24.1495 17.7301 24.0244 18.1055V18.1055Z" fill="#C40655"/>
<path d="M23.8367 17.8552C23.4196 18.3557 23.1276 18.8354 22.1891 18.9605C22.1582 19.0767 22.1372 19.1953 22.1265 19.3151C22.0431 20.3579 22.5436 21.2129 23.2319 21.2129C23.4533 21.2055 23.666 21.1248 23.8367 20.9835V20.7541C23.8158 19.6696 23.8158 18.6894 24.0244 18.1055C24.2329 17.5215 23.941 17.7301 23.8367 17.8552Z" fill="black"/>
<path d="M23.5447 16.4579C24.0682 17.0255 24.7185 17.4614 25.4425 17.7301" stroke="#FFAE00" stroke-width="0.6" stroke-miterlimit="10" stroke-linecap="round"/>
<path d="M20.6876 22.0888C21.1047 22.7354 21.7303 23.4236 22.6271 23.3402C23.9618 23.2359 23.8576 21.8386 23.8367 20.7541C23.8367 20.3578 23.8159 19.9824 23.8367 19.6279C22.4394 19.3776 20.917 20.045 20.6876 22.0888Z" fill="#4452F2"/>
<path d="M18.5602 13.9969C18.7479 12.7038 19.0816 12.2659 19.311 12.2242C19.5404 12.1824 19.5196 12.7038 19.4362 13.8717M24.8169 13.8717C25.2548 11.9739 25.8805 11.8696 26.1516 11.9947C26.4227 12.1199 26.6104 12.5996 26.5479 13.9969M23.2944 19.3776C22.6479 19.753 21.8971 20.7123 21.8346 22.1305L23.2944 19.3776Z" stroke="black" stroke-width="0.6" stroke-linecap="round" stroke-linejoin="round"/>
<path d="M28.7692 15.7453C29.4393 15.2566 29.6689 14.4305 29.2821 13.9C28.8953 13.3695 28.0385 13.3356 27.3684 13.8243C26.6983 14.3129 26.4687 15.139 26.8556 15.6695C27.2424 16.2 28.0992 16.2339 28.7692 15.7453Z" fill="#FA80BA"/>
<path d="M35.62 15.7906C35.62 16.4371 35.2863 16.9585 34.8692 16.9585C34.4521 16.9585 34.1393 16.4371 34.1393 15.7906" stroke="white" stroke-width="0.6" stroke-linecap="round" stroke-linejoin="round"/>
<path d="M34.473 19.7321L33.9099 18.6894C33.8988 18.6666 33.8931 18.6417 33.8931 18.6164C33.8931 18.5911 33.8988 18.5661 33.9099 18.5434L34.7024 17.438C34.714 17.4164 34.7317 17.3986 34.7533 17.387C34.775 17.3754 34.7995 17.3703 34.824 17.3726C34.8485 17.3748 34.8717 17.3841 34.8909 17.3995C34.91 17.4149 34.9243 17.4355 34.9318 17.4589L35.4115 18.46C35.4225 18.479 35.4282 18.5006 35.4282 18.5225C35.4282 18.5445 35.4225 18.5661 35.4115 18.5851L34.7024 19.7321C34.6887 19.7495 34.6713 19.7635 34.6514 19.7732C34.6316 19.7828 34.6098 19.7878 34.5877 19.7878C34.5656 19.7878 34.5438 19.7828 34.5239 19.7732C34.5041 19.7635 34.4866 19.7495 34.473 19.7321V19.7321Z" fill="white"/>
<path d="M38.5189 21.4006L35.0778 21.5675C34.619 21.8595 34.7858 22.0472 35.0778 22.3183L38.4981 22.1931C39.0194 21.7552 38.8735 21.6718 38.5189 21.4006V21.4006Z" fill="#4452F2"/>
<path d="M38.498 22.1931C38.7274 23.1524 38.8317 23.7989 38.8943 24.1952C38.9568 24.5915 38.79 24.8209 36.8087 24.8834C34.8275 24.946 34.9109 24.6332 34.9317 24.1535C34.9526 23.6738 35.0778 22.3182 35.0778 22.3182L38.498 22.1931Z" fill="#FFE75C"/>
<path d="M32.6586 28.8042C33.6596 25.1545 33.9933 23.9658 31.9495 24.07C29.3569 24.2038 26.7737 24.4824 24.2121 24.9043C22.3351 25.2379 22.3769 25.4882 23.2945 31.7031L32.6586 28.8042Z" fill="#BF0F76"/>
<path d="M12.095 27.9909C12.0336 27.9932 11.9734 28.0083 11.9182 28.0354C11.8631 28.0625 11.8142 28.1009 11.7749 28.1481C11.7356 28.1954 11.7066 28.2503 11.6899 28.3095C11.6732 28.3686 11.6691 28.4306 11.6779 28.4914L12.8041 36.6667C12.8407 36.912 12.9671 37.1349 13.1587 37.2924C13.4715 37.5218 14.0555 37.7929 15.0982 37.7929C16.141 37.7929 16.7249 37.5218 17.0169 37.2924C17.2085 37.1349 17.3349 36.912 17.3715 36.6667L18.5185 28.4914C18.5276 28.4289 18.5229 28.3651 18.505 28.3045C18.4871 28.2439 18.4563 28.188 18.4147 28.1404C18.373 28.0929 18.3216 28.0549 18.264 28.0291C18.2063 28.0032 18.1437 27.9902 18.0806 27.9909H12.095Z" fill="white"/>
<path d="M16.9961 29.5134C18.2266 29.43 18.7897 29.4092 19.0816 29.868C19.3736 30.3268 19.1651 31.1402 18.9148 32.5166C18.6645 33.8931 18.3517 33.6637 16.7875 33.768" stroke="white" stroke-width="0.6" stroke-linecap="round" stroke-linejoin="round"/>
<path d="M27.0643 9.78875C27.0868 9.62907 26.7536 9.45023 26.3202 9.38932C25.8867 9.3284 25.5172 9.40848 25.4947 9.56816C25.4723 9.72784 25.8055 9.90668 26.2389 9.96759C26.6723 10.0285 27.0419 9.94844 27.0643 9.78875Z" fill="black"/>
<path d="M19.8341 10.4047C19.8533 10.2678 19.6285 10.1231 19.332 10.0814C19.0354 10.0397 18.7794 10.1169 18.7602 10.2538C18.7409 10.3906 18.9657 10.5354 19.2623 10.5771C19.5589 10.6187 19.8149 10.5416 19.8341 10.4047Z" fill="black"/>
<path d="M30.8233 51.9329C33.9678 51.9329 36.5168 49.3838 36.5168 46.2393C36.5168 43.0949 33.9678 40.5458 30.8233 40.5458C27.6789 40.5458 25.1298 43.0949 25.1298 46.2393C25.1298 49.3838 27.6789 51.9329 30.8233 51.9329Z" fill="#EB459F"/>
<path d="M21.0004 31.7031C27.111 29.3465 31.0527 27.8449 33.8265 27.4069C35.1318 27.1878 36.4727 27.3545 37.6847 27.8866C41.7932 29.7219 40.7504 34.0598 39.3948 36.1453C41.9809 37.9389 43.274 41.2341 40.6045 45.0089C42.8986 46.9693 44.275 51.2447 41.2927 53.8516C38.3104 56.4585 33.8264 55.6452 31.9912 51.7035L21.0004 31.7031Z" fill="#EB459F"/>
<path d="M25.9223 44.4667C26.256 44.6753 27.2987 44.2999 28.4875 43.4031C29.6762 42.5063 30.3228 41.5886 30.1976 41.2132C29.7388 39.9411 29.0506 38.4395 28.7169 37.7513C28.3832 37.063 27.2779 36.6876 25.2549 38.4395C23.2319 40.1913 22.8982 41.0881 23.0025 41.7972C23.1068 42.5063 24.2747 43.4031 25.9223 44.4667V44.4667Z" fill="#BF0F76"/>
<path d="M24.5875 37.1465C26.527 34.9776 27.2778 33.476 27.4029 32.7877C27.5281 32.0995 27.5698 31.5156 25.9639 30.0557C24.358 28.5958 23.4613 28.1578 22.6688 28.2204C21.8763 28.283 21.1463 29.1798 20.4581 31.015C20.3538 31.3279 21.5008 32.0369 21.1672 32.1204C19.2693 32.7043 18.7271 35.2487 18.4351 36.3332C18.1431 37.4177 18.1014 38.3561 19.5405 39.2112C20.9795 40.0663 21.5634 40.546 24.5875 37.1465V37.1465Z" fill="#FFE75C"/>
<path d="M22.0222 29.9931C19.4987 30.0765 18.3308 30.2642 17.7886 30.5353C17.2464 30.8064 17.2672 31.3695 17.3506 31.9118C17.4341 32.454 17.5383 32.6417 18.8939 32.6834C20.2495 32.7251 22.0222 32.6834 22.0222 32.6834V29.9931Z" fill="#FFE75C"/>
<path d="M22.8356 38.7315L24.2955 40.4833L26.8399 38.4395L25.0672 35.8743L22.8356 38.7315Z" fill="#FFE75C"/>
<path d="M2.8979 18.3349C2.74119 18.4151 2.59424 18.513 2.45994 18.6268C2.40176 18.6679 2.35824 18.7265 2.33573 18.794C2.31321 18.8615 2.31289 18.9345 2.33481 19.0022C2.4808 19.753 3.02303 21.0044 4.14922 23.1733C4.16708 23.2086 4.19375 23.2386 4.22664 23.2606C4.25953 23.2825 4.29751 23.2955 4.33693 23.2985L4.42035 23.2568C4.44438 23.2483 4.46616 23.2345 4.48402 23.2164C4.50189 23.1982 4.51536 23.1762 4.52341 23.1521C4.53146 23.1279 4.53386 23.1022 4.53046 23.077C4.52705 23.0518 4.51792 23.0276 4.50375 23.0065C2.54334 19.2108 2.5225 18.5851 2.8979 18.3349V18.3349Z" fill="black"/>
<path d="M22.4602 30.1389C21.3965 30.6812 21.3131 31.6614 21.5008 32.4956C20.458 32.9753 20.1869 33.5592 20.3746 34.8523C19.8115 35.186 19.3318 35.6031 19.5195 36.6458" stroke="black" stroke-width="0.6" stroke-linecap="round" stroke-linejoin="round"/>
<path d="M22.9399 38.8357L23.8367 38.0015L23.5238 39.5448L22.9399 38.8357Z" fill="black"/>
<path d="M4.35773 28.9502L7.00636 28.7834L4.35773 30.2016V28.9502Z" fill="black"/>
<path d="M2.41814 32.9127L8.15338 33.6218L8.13253 35.5196L2.14703 35.1443L2.41814 32.9127Z" fill="#EB459F"/>
<path d="M32.9088 36.2705C31.986 37.4612 31.5667 38.9661 31.7409 40.4624M36.2666 44.5292C35.9021 43.3719 35.1775 42.3613 34.1983 41.6447C33.2191 40.9282 32.0367 40.5432 30.8233 40.5459L36.2666 44.5292Z" stroke="black" stroke-width="0.6" stroke-linecap="round" stroke-linejoin="round"/>
<path d="M32.158 37.5636L31.6158 36.6459" stroke="black" stroke-width="0.6" stroke-linecap="round" stroke-linejoin="round"/>
</g>
<defs>
<linearGradient id="paint0_linear_85_3112" x1="37.8286" y1="23.4569" x2="35.8577" y2="14.462" gradientUnits="userSpaceOnUse">
<stop stop-color="#FFE75C"/>
<stop offset="1" stop-color="#FFC619"/>
</linearGradient>
<linearGradient id="paint1_linear_85_3112" x1="32051.8" y1="13783.5" x2="31557" y2="14957.7" gradientUnits="userSpaceOnUse">
<stop stop-color="#FFE75C"/>
<stop offset="1" stop-color="#FFC619"/>
</linearGradient>
<clipPath id="clip0_85_3112">
<rect width="45" height="45" rx="22.5" fill="white"/>
</clipPath>
</defs>
</svg>
