<svg width="45" height="45" viewBox="0 0 45 45" fill="none" xmlns="http://www.w3.org/2000/svg">
<g clip-path="url(#clip0_85_1085)">
<rect width="45" height="45" rx="22.5" fill="#EB459F"/>
<path d="M33.9315 49.7104C37.7173 49.2054 38.52 49.1304 39.3574 49.0209C40.1952 48.9114 40.5174 46.9651 40.8927 44.4791C41.2675 41.9932 40.8258 37.5019 40.8258 37.5019L35.2313 39.1665L33.9315 49.7104Z" fill="#FF78B9"/>
<path d="M48.9523 35.8621C46.6551 33.2747 34.9474 24.282 34.9474 24.282L32.1898 28.2443C32.1898 28.2443 36.0729 32.5203 38.8565 35.414C33.21 35.8637 23.027 37.2024 23.027 37.2024C15.8025 35.7542 12.0045 35.4889 12.0045 35.4889L20.188 28.029L17.4448 23.9736C17.4448 23.9736 10.3723 28.3107 6.36963 31.4315C2.36746 34.5522 1.74066 38.4023 5.51636 41.3529C9.29153 44.303 10.585 45.1467 10.585 45.1467L34.9899 47.6629C42.1458 45.6858 46.418 43.5183 49.0092 41.2679C51.3814 39.2136 51.2496 38.4491 48.9523 35.8621Z" fill="#FFC619"/>
<path d="M10.8992 35.6008C10.8673 35.6008 10.836 35.596 10.8057 35.5864C10.7897 35.5864 9.3176 35.1627 8.49037 35.0245C8.40319 35.0058 8.32716 34.9548 8.27719 34.8814C8.22721 34.8081 8.20756 34.7182 8.22245 34.631C8.2368 34.5433 8.28463 34.4646 8.35587 34.4115C8.42711 34.3583 8.51537 34.3349 8.60362 34.3456C9.46753 34.4912 10.9317 34.907 10.9944 34.925C11.0736 34.949 11.1416 35 11.1863 35.0696C11.231 35.1388 11.2491 35.2222 11.2379 35.3041C11.2262 35.386 11.1858 35.4609 11.1236 35.5152C11.0614 35.5694 10.9816 35.5997 10.8992 35.6008Z" fill="black"/>
<path d="M33.473 23.0288L31.0179 27.1107C31.0179 27.1107 33.2827 29.4462 33.7611 29.9672C34.6777 28.9417 35.5554 27.1814 35.3061 24.5493C34.2784 23.7205 33.473 23.0288 33.473 23.0288Z" fill="black"/>
<path d="M17.6333 40.9172C14.3239 36.8821 13.1421 35.0995 12.469 33.0724C11.9762 31.5859 14.9018 32.5024 18.7078 33.6237C22.5138 34.7449 21.887 35.8337 17.6333 40.9172Z" fill="#FF78B9"/>
<path d="M12.8972 34.9677C9.40164 38.8503 9.32667 43.6318 9.71583 50.2497C9.71583 50.2497 3.72426 56.2859 4.56957 61.564C5.41541 66.8421 13.6234 69.0867 22.9505 68.9974C30.4524 68.9246 31.2983 67.142 31.9734 63.6161C32.4152 61.3088 32.7215 58.6443 32.916 56.5842C33.1271 54.4172 33.6741 52.297 34.5381 50.2986C39.1351 39.5924 35.4344 35.7301 35.4344 35.7301L22.9808 36.7439L12.8972 34.9677Z" fill="#FF78B9"/>
<path d="M15.639 29.4082C12.6947 31.5757 13.3237 34.8623 17.4641 39.4307L19.3051 41.276L31.3228 39.2967C35.1751 34.5157 34.409 31.3285 33.0097 29.3231C34.9646 26.0786 35.1001 23.8483 35.0799 21.8589C35.0475 18.4751 31.99 13.1868 24.2786 13.2618C20.0574 13.3022 16.3444 14.937 15.0106 20.2635C14.548 22.1529 14.4141 25.1599 15.639 29.4082Z" fill="#FFE75C"/>
<path d="M30.4933 17.629C30.5868 17.6284 30.6799 17.6476 30.766 17.6848C30.8521 17.7226 30.9297 17.7773 30.9935 17.8464C31.0568 17.9155 31.1052 17.9974 31.1355 18.0862C31.1658 18.1755 31.177 18.2696 31.1685 18.3632L30.7463 23.0108C30.6283 24.0544 30.1376 25.0204 29.3651 25.7322C28.5921 26.4436 27.5889 26.8529 26.5389 26.8853H25.6043C24.5113 26.8955 23.4517 26.5052 22.6266 25.788C21.8015 25.0709 21.2677 24.0762 21.1252 22.9922L20.9227 21.4515C20.8993 21.2686 20.8095 21.1006 20.6707 20.9794C20.5314 20.8582 20.3528 20.7922 20.1683 20.7944C19.9817 20.7965 19.8025 20.8677 19.6654 20.9943C19.5287 21.1213 19.4431 21.2941 19.4261 21.4796L19.2013 23.9677C19.1263 24.7848 18.7504 25.5451 18.147 26.1012C17.5436 26.6567 16.7552 26.9688 15.9343 26.9768C15.4463 26.9911 14.9609 26.9013 14.5101 26.7126C14.0598 26.5238 13.6552 26.2405 13.3229 25.8827C12.9912 25.5244 12.7397 25.099 12.5855 24.6354C12.4319 24.1719 12.3792 23.6806 12.4308 23.1952L12.8588 18.5051C12.8753 18.3143 12.9625 18.1362 13.1039 18.0059C13.2448 17.8757 13.4292 17.8028 13.6212 17.8018L30.4933 17.629Z" fill="black"/>
<path d="M30.952 17.8098L35.0902 21.8587L35.0982 22.6982L30.9721 19.8194L30.952 17.8098Z" fill="black"/>
<path d="M35.4332 35.7156C33.5172 33.8905 30.9723 32.2685 28.7218 31.4918C26.4709 30.7156 25.9557 30.4785 25.4432 31.7741C24.9302 33.0697 24.3884 34.5072 24.1556 34.9612C23.9222 35.4153 21.5314 37.1107 20.0333 38.3557C18.5346 39.6003 16.9918 42.2383 16.9918 42.2383L32.7102 43.4265L35.4332 35.7156Z" fill="#FF78B9"/>
<path d="M38.7977 35.3611L40.8254 37.5084C39.9088 40.4021 39.3027 43.9971 38.9763 48.02L30.9348 48.6058L35.434 35.7322L38.7977 35.3611Z" fill="#FF78B9"/>
<path d="M12.8974 34.9682C12.3131 34.8602 11.7921 34.7651 11.403 34.7045C11.1743 34.6667 10.9399 34.6822 10.7182 34.7502C10.4965 34.8183 10.2939 34.9363 10.1254 35.0958C8.34549 36.7869 7.287 38.7274 6.89944 40.8885C6.42894 43.5244 6.5895 43.7982 9.6225 45.4101C11.6502 46.4909 13.7406 41.7019 14.8948 38.427C15.0197 38.0692 15.0659 37.6886 15.0303 37.3111C14.9947 36.9336 14.8783 36.5679 14.689 36.2399C14.4992 35.9113 14.2408 35.6279 13.9319 35.4084C13.6225 35.1888 13.2701 35.0389 12.8974 34.9682Z" fill="#FF78B9"/>
<path d="M12.4947 22.4774L19.0604 17.7405L16.6149 17.7628L12.6648 20.614L12.4947 22.4774Z" fill="#5865F2"/>
<path d="M14.0711 26.494C14.6346 26.8279 15.2795 26.9986 15.9345 26.9869C16.7548 26.9794 17.5432 26.6673 18.1472 26.1112C18.7506 25.5551 19.1259 24.7949 19.2009 23.9778L19.3146 22.7082L14.0711 26.494Z" fill="#5865F2"/>
<path d="M30.494 17.629L27.789 17.6556L21.0611 22.5115L21.126 23.0023C21.1956 23.5344 21.3604 24.0496 21.6129 24.5233L30.94 17.7954C30.8161 17.688 30.6577 17.6284 30.494 17.629Z" fill="#5865F2"/>
<path d="M30.7468 23.0108L30.9493 20.7801L23.3134 26.2916C24.0083 26.6967 24.7999 26.9067 25.6043 26.8998H26.5394C27.5915 26.8668 28.5963 26.4553 29.3693 25.7408C30.1423 25.0263 30.6314 24.0571 30.7468 23.0108Z" fill="#5865F2"/>
<path d="M18.8748 27.7391C18.7908 27.738 18.7099 27.7066 18.6477 27.6503C18.5855 27.5945 18.5457 27.5174 18.5361 27.4339C18.526 27.351 18.5473 27.267 18.5951 27.1979C18.643 27.1293 18.7142 27.0798 18.7955 27.0596C19.7647 26.8571 20.7658 26.8571 21.7355 27.0596C21.8243 27.0804 21.9014 27.1357 21.9492 27.2127C21.9971 27.2904 22.0125 27.3834 21.9917 27.4722C21.9715 27.561 21.9163 27.6381 21.8387 27.6859C21.7616 27.7343 21.668 27.7497 21.5792 27.729C20.7126 27.5535 19.82 27.5535 18.9534 27.729C18.9279 27.7364 18.9013 27.7396 18.8748 27.7391Z" fill="black"/>
<path d="M20.1511 11.1793C19.7055 12.4089 19.6535 13.7465 20.0006 15.0076C20.0607 15.2271 20.191 15.4207 20.3717 15.5584C20.5519 15.6966 20.7731 15.7715 21.0006 15.7721H23.0969C23.3319 15.7699 23.5637 15.72 23.7779 15.6248C23.9927 15.5297 24.1852 15.3914 24.3441 15.2186C25.6073 13.864 27.9088 13.5456 29.6988 14.2978L30.7961 12.7385C30.904 12.587 30.9551 12.4015 30.9391 12.2159C30.9232 12.0299 30.8413 11.856 30.7089 11.7247C29.6701 10.7353 28.4287 9.98413 27.0704 9.52373C25.712 9.0628 24.2697 8.9033 22.8433 9.05641C22.2404 9.12074 21.6673 9.3536 21.191 9.72947C20.7146 10.1048 20.3536 10.6077 20.1511 11.1793Z" fill="#FF8C19"/>
<path d="M28.8976 37.7764C28.8195 37.7769 28.7434 37.7509 28.6823 37.7025C28.6212 37.6536 28.5781 37.5855 28.5611 37.5095C28.5441 37.4335 28.5531 37.3532 28.5877 37.283C28.6217 37.2128 28.6791 37.1565 28.7498 37.1235C30.1491 36.4521 31.7344 35.9066 34.928 35.4792C34.9737 35.4723 35.02 35.4749 35.0646 35.4861C35.1093 35.4972 35.1513 35.5174 35.188 35.5446C35.2252 35.5722 35.256 35.6068 35.2794 35.6461C35.3033 35.686 35.3187 35.7296 35.3257 35.7753C35.332 35.8205 35.3299 35.8667 35.3182 35.9114C35.3071 35.956 35.2874 35.998 35.2598 36.0353C35.2321 36.0719 35.1975 36.1033 35.1582 36.1267C35.1188 36.1501 35.0747 36.166 35.0296 36.1724C31.9253 36.5961 30.3963 37.1113 29.0539 37.754C29.0045 37.7737 28.9508 37.7812 28.8976 37.7764Z" fill="black"/>
<path d="M42.3013 39.5072C42.212 39.5072 42.1264 39.4721 42.0621 39.4099C41.5129 38.8746 41.0849 38.4429 40.7909 38.1265C40.7287 38.059 40.6958 37.9702 40.6995 37.8788C40.7032 37.7874 40.7431 37.7007 40.8101 37.6385C40.8776 37.5768 40.9664 37.5439 41.0578 37.5476C41.1493 37.5508 41.2359 37.5906 41.2981 37.6582C41.582 37.966 41.9993 38.3902 42.5427 38.9171C42.5916 38.9649 42.6246 39.0266 42.6384 39.0936C42.6522 39.16 42.6458 39.2297 42.6198 39.293C42.5937 39.3562 42.5501 39.4104 42.4932 39.4482C42.4363 39.4865 42.3699 39.5072 42.3013 39.5072Z" fill="black"/>
<path d="M19.618 45.6573H17.7928C17.7455 45.6573 17.6988 45.6472 17.6552 45.6286C17.6116 45.61 17.5722 45.5823 17.5393 45.5478C17.5074 45.5121 17.4829 45.4712 17.4675 45.426C17.4515 45.3814 17.4452 45.3335 17.4484 45.2862C17.576 43.9369 17.795 42.5972 18.1033 41.2776C18.1687 40.9969 18.2963 40.7343 18.476 40.5089C18.9508 39.9103 19.501 39.3754 20.1124 38.9172C21.1789 38.1181 22.2496 37.3254 23.29 36.5593C24.1311 35.941 24.7696 35.0872 25.1247 34.1058C26.088 31.47 26.3416 31.1637 26.4346 31.0521C26.4952 30.9888 26.5777 30.9506 26.6649 30.9458C26.7526 30.941 26.8387 30.9697 26.9057 31.026C26.9727 31.0819 27.0157 31.1616 27.0264 31.2488C27.037 31.336 27.0136 31.4237 26.962 31.4939C26.8993 31.5688 26.6277 31.9947 25.7717 34.3328C25.3703 35.4424 24.6483 36.4078 23.6972 37.1064C22.6574 37.8688 21.5909 38.662 20.5244 39.4605C19.9577 39.8853 19.4489 40.3813 19.0098 40.9369C18.8928 41.0825 18.8104 41.2521 18.7684 41.4334C18.4973 42.5993 18.2942 43.7801 18.1597 44.9699H19.2894C19.3378 44.2378 19.4574 42.4169 19.5446 41.2064C19.5537 41.1171 19.5972 41.0352 19.6658 40.9773C19.7344 40.9198 19.8227 40.8911 19.912 40.897C20.0018 40.9034 20.0847 40.9443 20.1448 41.0113C20.2044 41.0783 20.2357 41.1655 20.232 41.2553C20.1209 42.7981 19.9566 45.3346 19.9566 45.3346C19.9508 45.4212 19.9131 45.5026 19.8503 45.5621C19.7876 45.6217 19.7046 45.6557 19.618 45.6573Z" fill="#F551A0"/>
<path d="M39.0603 35.635C37.6227 39.2847 36.0289 45.4613 37.2554 48.4316C37.3697 48.7155 37.5233 48.9813 37.7115 49.2227L38.3851 49.1413C38.1108 48.8861 37.8976 48.5725 37.7626 48.2227C36.6775 45.5868 38.03 39.8568 39.4776 36.0774L39.0603 35.635Z" fill="#F551A0"/>
<path d="M7.18781 43.8492C7.34145 44.0108 7.51104 44.1571 7.69446 44.2852C8.04321 40.2421 9.69396 36.8295 12.2448 34.8502L11.5249 34.7268C9.1501 36.7646 7.59929 40.0251 7.18781 43.8492Z" fill="#F551A0"/>
</g>
<defs>
<clipPath id="clip0_85_1085">
<rect width="45" height="45" rx="22.5" fill="white"/>
</clipPath>
</defs>
</svg>
