<svg width="45" height="45" viewBox="0 0 45 45" fill="none" xmlns="http://www.w3.org/2000/svg">
<g clip-path="url(#clip0_85_999)">
<rect width="45" height="45" rx="22.5" fill="#5865F2"/>
<path d="M45.792 43.3185C47.528 45.5407 47.319 48.3184 45.306 49.4295C43.292 50.5406 40.306 49.5684 38.708 47.2768C37.111 44.9852 37.389 42.4852 39.264 41.4436C41.139 40.4019 44.056 41.1658 45.792 43.3185V43.3185Z" fill="#242145"/>
<path d="M23.0138 77.137C35.9388 77.137 46.4168 67.7788 46.4168 56.2348C46.4168 44.6908 35.9388 35.3325 23.0138 35.3325C10.0888 35.3325 -0.38916 44.6908 -0.38916 56.2348C-0.38916 67.7788 10.0888 77.137 23.0138 77.137V77.137Z" fill="white"/>
<path d="M37.8749 48.3183C38.0379 54.0989 37.5259 59.8786 36.3469 65.5401H37.8749C39.4459 59.7537 40.0099 53.7403 39.5419 47.7628C39.2639 44.4296 37.8749 38.8047 34.5419 37.3464L32.8059 36.7214C36.4859 37.9714 37.7359 43.7351 37.8749 48.3183V48.3183Z" fill="#FFD73B"/>
<path d="M15.2359 51.0267C16.2779 58.1099 14.9579 68.1791 14.9579 68.1791H17.1809C18.1189 62.502 18.1429 56.7112 17.2499 51.0267C15.3059 39.0826 9.61091 38.2493 7.59691 39.3603L6.76392 39.9853C9.61092 37.9021 14.1949 43.9436 15.2359 51.0267V51.0267Z" fill="#FFD73B"/>
<path d="M23.0139 7C20.8579 7.0012 18.7269 7.4717 16.7709 8.3789C14.8139 9.2861 13.0789 10.6082 11.6839 12.2534C10.2899 13.8987 9.27087 15.8276 8.69687 17.9063C8.12287 19.9851 8.00887 22.1638 8.36087 24.2913C9.17987 29.1393 10.5059 33.8876 12.3199 38.4576C12.8059 39.7075 17.3889 40.6103 23.0139 40.6103C28.6389 40.6103 33.2219 39.7075 33.6389 38.4576C35.4739 33.8896 36.8239 29.1414 37.6669 24.2913C38.0199 22.1638 37.9049 19.9851 37.3309 17.9063C36.7569 15.8276 35.7379 13.8987 34.3439 12.2534C32.9499 10.6082 31.2139 9.2861 29.2579 8.3789C27.3009 7.4717 25.1709 7.0012 23.0139 7V7Z" fill="white"/>
<path d="M8.1529 44.5686C6.8339 47.2074 4.3339 49.3601 3.0839 48.5962C1.8339 47.8324 2.7359 45.1935 4.3339 43.1103C5.9309 41.027 7.1809 40.402 8.0839 40.6798C8.9859 40.9575 9.1249 42.4853 8.1529 44.5686V44.5686Z" fill="#242145"/>
<path d="M8.43103 40.888C7.45403 40.1318 6.25102 39.7273 5.01602 39.7399C3.78102 39.7525 2.58601 40.1815 1.62501 40.9574C-0.805989 42.8324 -2.19399 46.374 -1.43099 50.1933C-0.666989 54.0127 3.08302 48.5961 3.08302 48.5961L8.43103 40.888Z" fill="#242145"/>
<path d="M27.875 46.2351C28.134 45.2079 28.32 44.1637 28.431 43.1102C28.431 43.0549 28.409 43.002 28.37 42.9629C28.331 42.9238 28.278 42.9019 28.223 42.9019C26.595 43.1901 24.945 43.3296 23.292 43.3185C23.153 43.3185 23.084 43.388 23.153 43.5268L24.959 46.5129C25.189 49.6328 25.212 52.7646 25.028 55.8876C25.028 56.0265 25.098 56.096 25.167 56.096C26.818 56.1536 28.471 56.0372 30.097 55.7488L30.236 55.5404C29.82 51.5128 28.986 48.1795 27.875 46.2351V46.2351Z" fill="#57F287"/>
<path d="M23.0139 40.6796C28.9199 40.6796 33.7079 39.6225 33.7079 38.3185C33.7079 37.0146 28.9199 35.9575 23.0139 35.9575C17.1069 35.9575 12.3188 37.0146 12.3188 38.3185C12.3188 39.6225 17.1069 40.6796 23.0139 40.6796Z" fill="black"/>
<path d="M34.2639 36.7215V36.9993L33.6389 38.4576C33.2219 39.7076 28.5699 40.6103 23.0139 40.6103C20.5689 40.6466 18.1259 40.4372 15.7219 39.9853C13.8469 39.6381 12.5969 39.0826 12.3199 38.4576C12.1649 37.9604 11.9789 37.4734 11.7639 36.9993V36.7215C11.7639 35.4021 16.8329 34.291 23.0829 34.291C29.3329 34.291 34.2639 35.4021 34.2639 36.7215Z" fill="#5562F2"/>
<path d="M23.0139 38.8738C16.2079 38.8738 11.9719 37.6239 11.9719 36.7211C11.9719 35.8184 16.2079 34.5684 23.0139 34.5684C29.8189 34.5684 33.9859 35.8184 33.9859 36.7211C33.9859 37.6239 29.8189 38.8738 23.0139 38.8738Z" fill="black"/>
<path d="M23.0139 34.8466C29.7499 34.8466 33.6389 36.0966 33.7079 36.7215C33.7779 37.3465 29.7499 38.5965 23.0139 38.5965C16.2779 38.5965 12.3888 37.3465 12.2498 36.7215C12.1108 36.0966 16.2779 34.8466 23.0139 34.8466ZM23.0139 34.291C16.7639 34.291 11.6938 35.4021 11.6938 36.7215C11.6938 38.0409 16.7639 39.152 23.0139 39.152C29.2639 39.152 34.2639 38.1104 34.2639 36.7215C34.2639 35.3327 29.2639 34.291 23.0139 34.291Z" fill="#99A1FF"/>
<path d="M24.5419 36.7215V36.8603L23.4309 36.9992L22.3199 36.8603C22.2949 36.8322 22.2749 36.7992 22.2629 36.7633C22.2519 36.7275 22.2469 36.6896 22.2499 36.652C22.4289 33.7748 21.7779 30.9069 20.3749 28.3883C20.2409 28.0987 20.2159 27.7703 20.3059 27.4638C20.3949 27.1574 20.5919 26.8937 20.8609 26.7217C21.1409 26.5916 21.4579 26.5693 21.7529 26.659C22.0479 26.7487 22.2989 26.9442 22.4589 27.2078C24.0429 30.1167 24.7659 33.4167 24.5419 36.7215V36.7215Z" fill="#EB459F"/>
<path d="M28.7779 23.5968C27.8749 24.2912 26.4859 26.0967 27.3199 27.9022L25.3059 27.7633L22.1809 26.4439L20.8609 24.3606L20.5139 21.7912L21.0699 20.6107L22.4579 20.4718L25.9309 22.8329L28.7779 23.5968Z" fill="black"/>
<path d="M33.3609 23.8746C33.3919 24.0553 33.3819 24.2405 33.3329 24.4171C33.2839 24.5937 33.1969 24.7574 33.0779 24.8965C32.9579 25.0357 32.8099 25.1469 32.6429 25.2223C32.4759 25.2977 32.2939 25.3355 32.1109 25.3329C30.9999 25.4718 30.5829 25.194 30.3749 24.8468C30.1239 25.1167 29.7989 25.3068 29.4409 25.3933C29.0829 25.4797 28.7069 25.4587 28.3609 25.3329C27.5969 24.9857 27.1109 24.569 27.3889 23.6663C27.6669 22.7635 33.3609 23.8746 33.3609 23.8746V23.8746Z" fill="#8CD9FF"/>
<path d="M23.153 21.3053C22.667 22.1386 23.292 22.7636 24.403 23.3886C25.514 24.0135 25.931 22.6247 25.931 22.6247L23.153 21.3053Z" fill="#8CD9FF"/>
<path d="M23.1528 24.3607C24.0558 23.8051 25.2358 24.4996 25.7218 25.6801C25.9488 26.3294 26.2778 26.9387 26.6948 27.4856H24.4028L22.3198 26.0967L23.1528 24.3607Z" fill="#57F287"/>
<path d="M20.9309 22.9719C22.0419 22.6941 23.4309 23.5969 24.2639 25.8885L25.0969 28.1801L21.4859 26.2357L20.5139 24.083L20.9309 22.9719Z" fill="#57F287"/>
<path d="M20.9309 22.9719C22.0419 22.6941 23.4309 23.5969 24.2639 25.8885L25.0969 28.1801" stroke="black" stroke-width="0.856299" stroke-miterlimit="10" stroke-linecap="round"/>
<path d="M32.5968 29.2216C32.8318 29.1624 33.0478 29.0427 33.2218 28.8744C33.4998 28.5966 33.5698 28.1105 32.8748 27.4161C32.1808 26.7216 28.9168 26.7911 27.7358 27.0688C26.8208 27.3648 25.8408 27.398 24.9078 27.1648C23.9748 26.9316 23.1268 26.4412 22.4578 25.7494C21.1388 24.4995 21.2078 22.3467 21.2778 21.6523C21.3468 20.9579 21.8328 20.7496 22.9438 21.444C27.1808 24.0828 29.0558 24.7078 31.6248 24.7772C34.1948 24.8467 34.4718 23.9439 34.5418 23.6662C34.5868 23.4774 34.5778 23.2799 34.5168 23.0959C34.4548 22.9118 34.3438 22.7486 34.1948 22.6245L32.5968 23.4578L27.5278 22.3467L22.9438 19.6385L20.6528 19.4996L19.6108 22.069L20.5828 25.8883L23.1528 28.1105L26.8328 28.8049L31.2078 27.9716L32.3888 28.5271L32.5968 29.2216Z" fill="#EB459F"/>
<path d="M34.056 23.0412C35.097 21.1662 34.8189 19.1524 32.3189 17.6941C32.8059 14.9164 31.694 12.7637 27.806 12.6942C26.903 10.4026 24.4029 10.0554 22.3889 10.1943C21.6129 10.1916 20.8529 10.413 20.1999 10.8319C19.5469 11.2507 19.0289 11.8492 18.7079 12.5554C14.8189 12.4859 11.9719 14.0831 12.2499 17.833C10.3059 19.0135 9.68094 21.7218 11.0689 23.3884C9.68094 26.5133 12.8059 28.5272 15.0969 28.8744C15.7219 32.0687 18.2919 34.3604 22.3189 33.2493C23.5079 33.819 24.831 34.0491 26.142 33.9143C27.454 33.7795 28.7019 33.285 29.7499 32.4854C32.5279 32.6937 33.2919 31.0271 32.9439 29.2216C32.9139 28.9978 32.8359 28.7831 32.7159 28.5916C32.5969 28.4 32.4379 28.2361 32.2499 28.1105C31.2779 27.4855 29.819 27.6939 28.153 28.0411C24.819 28.7355 22.1809 27.8327 20.7919 25.1245C20.0279 23.7356 19.819 21.3746 20.653 20.2635C21.486 19.1524 22.8749 20.1246 24.3329 21.0274C27.1109 22.7634 30.722 24.4995 33.431 23.5273C33.691 23.4475 33.914 23.2745 34.056 23.0412Z" fill="#FF78B9"/>
<path d="M34.056 23.0412C35.097 21.1662 34.8189 19.1524 32.3189 17.6941C32.8059 14.9164 31.694 12.7637 27.806 12.6942C26.903 10.4026 24.4029 10.0554 22.3889 10.1943C21.6129 10.1916 20.8529 10.413 20.1999 10.8319C19.5469 11.2507 19.0289 11.8492 18.7079 12.5554C14.8189 12.4859 11.9719 14.0831 12.2499 17.833C10.3059 19.0135 9.68094 21.7218 11.0689 23.3884C9.68094 26.5133 12.8059 28.5272 15.0969 28.8744C15.7219 32.0687 18.2919 34.3604 22.3189 33.2493C23.5079 33.819 24.831 34.0491 26.142 33.9143C27.454 33.7795 28.7019 33.285 29.7499 32.4854C32.5279 32.6937 33.2919 31.0271 32.9439 29.2216C32.9139 28.9978 32.8359 28.7831 32.7159 28.5916C32.5969 28.4 32.4379 28.2361 32.2499 28.1105C31.2779 27.4855 29.819 27.6939 28.153 28.0411C24.819 28.7355 22.1809 27.8327 20.7919 25.1245C20.0279 23.7356 19.819 21.3746 20.653 20.2635C21.486 19.1524 22.8749 20.1246 24.3329 21.0274C27.1109 22.7634 30.722 24.4995 33.431 23.5273C33.691 23.4475 33.914 23.2745 34.056 23.0412Z" fill="#FF78B9"/>
<path d="M29.125 14.499L29.958 13.8749" stroke="black" stroke-width="0.856299" stroke-miterlimit="10" stroke-linecap="round"/>
<path d="M29.542 14.7774L30.722 14.6387" stroke="black" stroke-width="0.856299" stroke-miterlimit="10" stroke-linecap="round"/>
<path d="M22.25 12.5553L22.459 11.4442" stroke="black" stroke-width="0.856299" stroke-miterlimit="10" stroke-linecap="round"/>
<path d="M23.084 12.5555L23.57 11.5138" stroke="black" stroke-width="0.856299" stroke-miterlimit="10" stroke-linecap="round"/>
<path d="M23.6389 12.6942L24.4719 11.9304" stroke="black" stroke-width="0.856299" stroke-miterlimit="10" stroke-linecap="round"/>
<path d="M26.9028 13.25C26.8728 13.1877 26.8198 13.139 26.7558 13.1133C26.6918 13.0876 26.6198 13.0868 26.5558 13.1111C26.4858 13.25 26.4168 13.3888 26.4858 13.4583C27.2528 14.7806 27.4768 16.349 27.1108 17.8332C27.0748 17.9459 27.0748 18.0674 27.1128 18.1799C27.1498 18.2923 27.2228 18.3898 27.3188 18.4582C27.8108 18.819 28.2248 19.2758 28.5348 19.801C28.8448 20.3262 29.0458 20.9088 29.1248 21.5136C29.2228 22.1071 29.1248 22.7164 28.8468 23.2497L29.2638 23.3886C29.6208 22.8071 29.7678 22.1209 29.6808 21.4442C29.4398 20.1242 28.7228 18.9383 27.6668 18.1108C27.6258 18.0752 27.6018 18.0256 27.5968 17.9721C27.8038 17.1786 27.8488 16.3517 27.7298 15.5404C27.6108 14.7292 27.3288 13.9502 26.9028 13.25V13.25Z" fill="black"/>
<path d="M21.695 18.5276C21.826 18.9549 21.85 19.4082 21.764 19.847H22.25C22.386 19.3142 22.337 18.7512 22.111 18.2498C21.556 17.2082 20.167 16.5832 18.639 16.0971C17.111 15.611 16.208 15.1249 15.861 14.2916C15.514 13.4583 15.722 14.0833 15.583 14.1527C15.445 14.2221 15.375 14.2916 15.445 14.4305C15.861 15.611 16.486 15.9582 18.5 16.5832C20.514 17.2082 21.208 17.6248 21.695 18.5276V18.5276Z" fill="black"/>
<path d="M16.9719 23.3189H17.1109L17.3199 23.1801C17.3439 23.1153 17.3429 23.0438 17.3169 22.9796C17.2919 22.9154 17.2429 22.863 17.1809 22.8329C13.0139 20.8885 12.3889 19.2913 12.2499 17.833L11.7639 18.1802C11.9719 19.6385 12.8749 21.3051 16.9719 23.3189V23.3189Z" fill="black"/>
<path d="M20.2359 29.9161H20.3749C20.5139 29.9161 20.5829 29.8467 20.5829 29.7773C20.5829 29.7078 20.6529 29.4995 20.5139 29.43L18.4999 28.319H18.0829C17.1579 28.7744 16.1249 28.9666 15.0969 28.8745C15.1109 29.0663 15.1579 29.2543 15.2359 29.43C16.2889 29.4561 17.3339 29.2424 18.2919 28.8051L20.2359 29.9161Z" fill="black"/>
<path d="M30.514 32.4855C31.023 31.9011 31.339 31.1733 31.417 30.4023C31.519 29.4549 31.299 28.5008 30.792 27.694H30.167C30.718 28.4329 30.989 29.3435 30.931 30.2634C30.813 31.1008 30.393 31.8662 29.75 32.4161H30.514V32.4855Z" fill="black"/>
<path d="M12.3188 25.1246H12.4578L12.6668 24.9857C12.6908 24.9209 12.6898 24.8494 12.6638 24.7852C12.6388 24.721 12.5898 24.6687 12.5278 24.6385C11.9918 24.2572 11.5018 23.8144 11.0698 23.319L10.8608 23.8746C11.2828 24.3609 11.7738 24.7821 12.3188 25.1246V25.1246Z" fill="black"/>
<path d="M25.444 17.2081C25.028 17.2776 24.611 16.9304 24.264 16.2359C23.889 15.4523 23.314 14.7816 22.597 14.2915C21.417 13.4582 21.694 12.6249 22.25 12.2777C22.806 11.9305 24.542 12.0694 25.444 13.5277C26.347 14.986 26.417 16.9998 25.444 17.2081V17.2081Z" fill="white"/>
<path d="M29.987 18.1261C30.694 17.9486 31.047 16.9302 30.776 15.8515C30.505 14.7728 29.712 14.0423 29.006 14.2198C28.299 14.3973 27.946 15.4157 28.217 16.4944C28.487 17.5731 29.28 18.3036 29.987 18.1261Z" fill="white"/>
<path d="M25.0279 14.847C25.2359 14.7776 25.5839 15.0553 25.6529 15.7498C25.7219 16.4442 25.4449 16.5831 25.3059 16.5831C25.1669 16.5831 25.0969 16.3053 25.0279 15.8886C24.9589 15.472 24.6809 14.9859 25.0279 14.847Z" fill="black"/>
<path d="M30.307 16.9724C30.331 16.5128 30.133 16.1288 29.865 16.1148C29.597 16.1007 29.36 16.4619 29.336 16.9215C29.312 17.3811 29.509 17.7651 29.778 17.7791C30.046 17.7932 30.282 17.432 30.307 16.9724Z" fill="black"/>
<path d="M17.1809 15.6804L17.5279 14.361" stroke="black" stroke-width="0.856299" stroke-miterlimit="10" stroke-linecap="round"/>
<path d="M15.7928 22.6246L15.6528 23.3884" stroke="black" stroke-width="0.856299" stroke-miterlimit="10" stroke-linecap="round"/>
<path d="M35.5838 18.6664C36.0048 18.6664 36.3468 18.3244 36.3468 17.9026C36.3468 17.4807 36.0048 17.1387 35.5838 17.1387C35.1618 17.1387 34.8198 17.4807 34.8198 17.9026C34.8198 18.3244 35.1618 18.6664 35.5838 18.6664Z" fill="#8CD9FF"/>
<path d="M14.5419 33.6659C14.8099 33.6659 15.0279 33.4483 15.0279 33.1798C15.0279 32.9114 14.8099 32.6937 14.5419 32.6937C14.2729 32.6937 14.0559 32.9114 14.0559 33.1798C14.0559 33.4483 14.2729 33.6659 14.5419 33.6659Z" fill="#8CD9FF"/>
<path d="M14.2639 14.8471C14.8389 14.8471 15.3059 14.3807 15.3059 13.8054C15.3059 13.2302 14.8389 12.7638 14.2639 12.7638C13.6889 12.7638 13.2219 13.2302 13.2219 13.8054C13.2219 14.3807 13.6889 14.8471 14.2639 14.8471Z" fill="#8CD9FF"/>
<path d="M8.57 51.0266C8.658 50.4745 8.82201 49.9371 9.05601 49.4294C10.098 47.5545 11.139 45.6101 11.625 44.9157C12.111 44.2212 12.875 44.2212 14.889 44.2212C16.903 44.2212 16.903 44.2212 17.528 44.9851C18.153 45.749 18.153 45.8879 17.598 46.9989C19.125 47.9017 18.986 48.0406 18.986 50.1933C18.986 52.346 18.361 52.4155 16.486 52.6932C15.236 54.3599 14.473 55.6098 12.459 55.6098C11.895 55.5852 11.342 55.4443 10.835 55.1961C10.329 54.9479 9.87899 54.5977 9.51299 54.1674C9.14799 53.7371 8.876 53.236 8.714 52.6955C8.551 52.1551 8.502 51.5869 8.57 51.0266Z" fill="#FF78B9"/>
<path d="M35.4439 45.9573C34.2639 46.7212 34.3328 47.2767 34.7498 48.3184C35.2418 49.384 35.8219 50.4061 36.4859 51.3739C36.9029 52.0683 37.4578 52.0683 39.4718 51.9988C39.7458 52.4427 40.1809 52.7631 40.6859 52.8926C41.1909 53.0221 41.7269 52.9507 42.1809 52.6933C43.0829 52.2766 44.0559 51.1655 43.7079 48.8739C43.6679 48.5493 43.5479 48.2394 43.3609 47.9712C42.3189 46.2351 40.5829 43.6657 40.1669 43.1796C39.7499 42.6935 39.2639 42.6241 37.3189 42.6241C35.3749 42.6241 35.1669 43.0407 34.8889 43.8741C34.6109 44.7074 34.8889 44.9851 35.4439 45.9573V45.9573Z" fill="#FF78B9"/>
<path d="M3.22187 41.4436C2.73587 41.7908 1.97187 42.138 1.83287 41.9297C1.69487 41.7214 2.24988 41.2353 2.80588 40.9575C3.36088 40.6797 3.49987 40.7492 3.56987 40.8186C3.63887 40.8881 3.49987 41.1658 3.22187 41.4436Z" fill="#625ABD"/>
<path d="M38.7778 43.7352C38.7078 43.5963 38.5688 43.5963 38.4308 43.6658L35.2358 45.5407L35.4438 45.9574L38.7078 44.013C38.7778 43.9435 38.8468 43.8047 38.7778 43.7352V43.7352Z" fill="black"/>
<path d="M36.764 44.9153L35.584 44.5686" stroke="black" stroke-width="0.811127" stroke-miterlimit="10" stroke-linecap="round"/>
<path d="M27.1108 31.1661C27.1358 31.1013 27.1348 31.0299 27.1088 30.9656C27.0828 30.9014 27.0348 30.8491 26.9718 30.8189C26.9028 30.7495 26.6948 30.8189 26.6248 30.8884C26.4228 31.2642 26.1018 31.5631 25.7128 31.7388C25.3238 31.9145 24.8878 31.9573 24.4718 31.8605C24.4548 31.8488 24.4348 31.8412 24.4138 31.8383C24.3928 31.8355 24.3708 31.8375 24.3508 31.8442C24.3308 31.8509 24.3128 31.8621 24.2978 31.877C24.2828 31.8919 24.2708 31.91 24.2638 31.93C23.8068 32.6009 23.1118 33.0726 22.3198 33.2494L23.0838 33.5272C23.7088 33.3137 24.2468 32.8985 24.6108 32.3466C25.0988 32.4376 25.6028 32.3725 26.0518 32.1606C26.5008 31.9486 26.8718 31.6007 27.1108 31.1661V31.1661Z" fill="black"/>
</g>
<defs>
<clipPath id="clip0_85_999">
<rect width="45" height="45" rx="22.5" fill="white"/>
</clipPath>
</defs>
</svg>
