<svg width="45" height="45" viewBox="0 0 45 45" fill="none" xmlns="http://www.w3.org/2000/svg">
<g clip-path="url(#clip0_104_475)">
<rect width="45" height="45" rx="22.5" fill="#5865F2"/>
<path d="M18.8963 25.7925C24.3618 25.7925 28.7925 21.3618 28.7925 15.8963C28.7925 10.4307 24.3618 6 18.8963 6C13.4307 6 9 10.4307 9 15.8963C9 21.3618 13.4307 25.7925 18.8963 25.7925Z" fill="#8CD9FF"/>
<path d="M26.2006 31.3075L25.6852 29.2311L30.0001 28.156C30.1781 28.1055 30.3305 27.9899 30.4271 27.8321C30.4727 27.7524 30.5015 27.6643 30.5116 27.5731C30.5217 27.4819 30.513 27.3896 30.486 27.3019L29.7497 24.7468L31.8041 24.1504L32.5404 26.7055C32.6483 27.0724 32.6805 27.4575 32.6349 27.8372C32.5893 28.217 32.467 28.5835 32.2753 28.9145C32.0876 29.2457 31.8339 29.5348 31.5299 29.7641C31.2259 29.9933 30.8782 30.1577 30.5081 30.2472L26.2006 31.3075Z" fill="#FFE75C"/>
<path d="M29.411 26.4037L31.3549 26.7424C31.7018 26.8001 32.0575 26.7718 32.3909 26.66C32.7243 26.5482 33.0252 26.3563 33.2672 26.1012C33.5092 25.8462 33.685 25.5356 33.7791 25.1968C33.8731 24.858 33.8827 24.5013 33.8069 24.1579V24.1579C33.6901 23.6363 33.3939 23.1723 32.9701 22.8467C32.5462 22.521 32.0215 22.3545 31.4875 22.376L29.7055 22.4349C29.442 22.4446 29.184 22.5136 28.9509 22.6369C28.7177 22.7602 28.5154 22.9345 28.359 23.1468C28.2025 23.3591 28.0961 23.604 28.0475 23.8632C27.9989 24.1225 28.0094 24.3893 28.0783 24.6439L28.2844 25.3802C28.3534 25.6414 28.4965 25.877 28.6964 26.0586C28.8963 26.2402 29.1445 26.3601 29.411 26.4037Z" fill="#FFE75C"/>
<path d="M31.7746 21.89C31.6715 21.9268 29.1165 21.971 29.8013 24.9752Z" fill="#FFE75C"/>
<path d="M32.9748 22.4864C31.6863 21.8016 30.648 25.1004 31.863 25.4317C32.5478 25.6011 32.7171 24.8279 32.7171 24.8279" fill="#FFE75C"/>
<path d="M29.411 26.4037L31.3549 26.7424C31.7018 26.8001 32.0575 26.7718 32.3909 26.66C32.7243 26.5482 33.0252 26.3563 33.2672 26.1012C33.5092 25.8462 33.685 25.5356 33.7791 25.1968C33.8731 24.858 33.8827 24.5013 33.8069 24.1579V24.1579C33.6901 23.6363 33.3939 23.1723 32.9701 22.8467C32.5462 22.521 32.0215 22.3545 31.4875 22.376L29.7055 22.4349C29.442 22.4446 29.184 22.5136 28.9509 22.6369C28.7177 22.7602 28.5154 22.9345 28.359 23.1468C28.2025 23.3591 28.0961 23.604 28.0475 23.8632C27.9989 24.1225 28.0094 24.3893 28.0783 24.6439L28.2844 25.3802C28.3534 25.6414 28.4965 25.877 28.6964 26.0586C28.8963 26.2402 29.1445 26.3601 29.411 26.4037Z" fill="#FFE75C"/>
<path d="M29.8013 25.1887C29.7528 25.1881 29.706 25.171 29.6685 25.1402C29.631 25.1094 29.6051 25.0668 29.5951 25.0194C29.4715 24.6259 29.4319 24.211 29.4788 23.8013C29.5257 23.3916 29.6582 22.9963 29.8676 22.641C30.0839 22.3617 30.3575 22.1318 30.6698 21.9667C30.9822 21.8017 31.3263 21.7052 31.6789 21.6838H31.7231C31.7758 21.6698 31.8319 21.6765 31.8798 21.7025C31.9277 21.7285 31.9638 21.7719 31.9808 21.8237C31.9899 21.8503 31.9934 21.8784 31.9912 21.9064C31.989 21.9343 31.9811 21.9616 31.968 21.9864C31.9549 22.0112 31.9369 22.0331 31.915 22.0507C31.8932 22.0683 31.868 22.0812 31.8409 22.0888C31.8044 22.0952 31.767 22.0952 31.7305 22.0888C31.4476 22.1037 31.1708 22.1769 30.9174 22.3035C30.6641 22.4302 30.4395 22.6078 30.2578 22.8251C30.0819 23.1314 29.9726 23.4714 29.9371 23.8229C29.9016 24.1744 29.9406 24.5294 30.0516 24.8647C30.0628 24.9203 30.0523 24.978 30.0221 25.0259C29.992 25.0739 29.9445 25.1084 29.8896 25.1224L29.8013 25.1887Z" fill="black"/>
<path d="M32.0471 25.6378C31.9689 25.6482 31.8897 25.6482 31.8115 25.6378C31.6357 25.5875 31.4786 25.4867 31.3595 25.348C31.2404 25.2093 31.1646 25.0387 31.1414 24.8573C31.0777 24.4115 31.1242 23.9569 31.277 23.5333C31.4297 23.1096 31.684 22.7299 32.0176 22.4274C32.1637 22.3055 32.3434 22.2311 32.5328 22.214C32.7223 22.1969 32.9124 22.2379 33.0779 22.3317C33.1275 22.3583 33.1646 22.4034 33.1812 22.4571C33.1977 22.5109 33.1924 22.569 33.1663 22.6189C33.1371 22.6677 33.0906 22.7038 33.0361 22.7201C32.9817 22.7364 32.9231 22.7319 32.8718 22.7072C32.7772 22.6541 32.6686 22.6313 32.5606 22.6418C32.4526 22.6523 32.3505 22.6957 32.268 22.7662C31.9968 23.0189 31.7888 23.3318 31.6609 23.6797C31.533 24.0277 31.4887 24.4008 31.5317 24.769C31.5392 24.8714 31.5768 24.9693 31.6396 25.0504C31.7025 25.1316 31.7879 25.1925 31.8851 25.2255C31.9374 25.248 31.9938 25.2596 32.0508 25.2596C32.1077 25.2596 32.1641 25.248 32.2164 25.2255C32.3479 25.1242 32.4413 24.9815 32.4815 24.8205C32.4844 24.7902 32.4938 24.7609 32.5089 24.7345C32.5241 24.7081 32.5447 24.6853 32.5694 24.6675C32.5941 24.6497 32.6223 24.6374 32.6521 24.6315C32.682 24.6255 32.7127 24.6259 32.7424 24.6328C32.772 24.6397 32.7998 24.6528 32.824 24.6714C32.8482 24.6899 32.8681 24.7133 32.8824 24.7402C32.8968 24.767 32.9052 24.7966 32.9072 24.827C32.9092 24.8573 32.9046 24.8878 32.8939 24.9162C32.832 25.1874 32.672 25.426 32.4447 25.5863C32.3189 25.6378 32.1819 25.6556 32.0471 25.6378V25.6378Z" fill="black"/>
<path d="M21.9385 29.1855C26.5777 28.1477 29.7657 24.7455 29.059 21.5866C28.3523 18.4276 24.0186 16.7081 19.3794 17.7459C14.7401 18.7838 11.5522 22.186 12.2589 25.3449C12.9656 28.5039 17.2993 30.2234 21.9385 29.1855Z" fill="#1416A8"/>
<path d="M13.9997 26.9632L20.067 43.1625L29.6393 41.0271L28.1813 23.797C28.1065 22.8994 27.7681 22.0438 27.2088 21.3377C26.6494 20.6316 25.8939 20.1065 25.0372 19.8282V19.8282C23.3424 19.2751 21.5299 19.1883 19.7899 19.577C18.05 19.9656 16.4467 20.8154 15.1483 22.0372V22.0372C14.4935 22.6542 14.0352 23.4507 13.8308 24.3269C13.6265 25.2032 13.6852 26.1202 13.9997 26.9632V26.9632Z" fill="#FF78B9"/>
<path d="M25.2241 43.8763C27.8751 43.2833 29.8255 41.9146 29.5804 40.8193C29.3354 39.724 26.9877 39.3168 24.3368 39.9099C21.6858 40.5029 19.7354 41.8716 19.9804 42.9669C20.2254 44.0622 22.5731 44.4694 25.2241 43.8763Z" fill="black"/>
<path d="M26.7823 26.4698C26.7433 25.4035 26.6028 24.3433 26.3626 23.3036C26.3515 23.2598 26.3318 23.2187 26.3045 23.1826C26.2773 23.1466 26.2431 23.1163 26.204 23.0937C26.1649 23.071 26.1216 23.0564 26.0768 23.0508C26.0319 23.0451 25.9864 23.0485 25.9429 23.0606C25.8794 23.0795 25.8231 23.1169 25.7811 23.1681C25.7391 23.2193 25.7134 23.2819 25.7073 23.3478V23.3478C25.6557 23.8706 25.6336 24.3934 25.6042 24.9088C25.5747 25.4243 25.5527 25.9323 25.5158 26.433C25.5158 26.6907 25.4717 26.9337 25.4422 27.1694C25.4386 27.2405 25.4386 27.3118 25.4422 27.3829C25.4381 27.4227 25.4217 27.4602 25.3952 27.4902C25.3687 27.5202 25.3335 27.5411 25.2945 27.5501C25.2555 27.559 25.2147 27.5555 25.1778 27.54C25.1409 27.5246 25.1098 27.498 25.0888 27.4639V27.4639C24.9562 27.2724 24.8237 27.0663 24.6985 26.8527C24.4408 26.4257 24.2052 25.9839 23.9622 25.5273C23.4836 24.629 23.0344 23.6939 22.5558 22.7808C22.5005 22.6756 22.4081 22.5947 22.2965 22.5539C22.1849 22.5131 22.0621 22.5152 21.952 22.5599C21.8449 22.6085 21.7591 22.6941 21.7104 22.8011C21.6616 22.908 21.6533 23.029 21.6869 23.1416C21.976 24.1473 22.3353 25.1315 22.762 26.087C22.9755 26.5803 23.2111 27.0589 23.4983 27.5596C23.6324 27.8127 23.7799 28.0585 23.9401 28.2959C24.1084 28.5626 24.3059 28.8096 24.5292 29.0323C24.683 29.1797 24.8595 29.3015 25.0519 29.3931L25.2655 29.4667C25.3559 29.4779 25.4475 29.4779 25.5379 29.4667C25.6432 29.4676 25.7479 29.4502 25.8472 29.4152L25.9871 29.3563L26.1049 29.29L26.2153 29.2016L26.2963 29.1206C26.3248 29.0975 26.3496 29.0702 26.37 29.0396L26.4289 28.9586L26.4804 28.8776V28.8114C26.4804 28.7598 26.532 28.7083 26.5467 28.6641C26.5847 28.5839 26.6143 28.5 26.635 28.4138L26.6719 28.2886V28.1708C26.7322 27.8821 26.7691 27.5891 26.7823 27.2945C26.797 27.0147 26.7897 26.7423 26.7823 26.4698Z" fill="white"/>
<path d="M13.0793 39.4293L11.7833 34.761C11.6675 34.3519 11.6339 33.924 11.6845 33.5018C11.735 33.0797 11.8687 32.6718 12.0779 32.3016C12.2904 31.9328 12.5766 31.6117 12.9186 31.3584C13.2607 31.105 13.6512 30.9248 14.0659 30.829L15.6859 30.4461C15.8488 30.4078 16.0177 30.402 16.1828 30.4291C16.348 30.4561 16.5062 30.5154 16.6485 30.6036C16.7907 30.6919 16.9142 30.8072 17.0118 30.9432C17.1094 31.0791 17.1793 31.233 17.2174 31.396V31.396C17.2837 31.6772 17.2357 31.9732 17.0838 32.219C16.9319 32.4647 16.6886 32.6401 16.4075 32.7066L14.6035 33.1263C14.4975 33.1509 14.3983 33.1986 14.313 33.2661C14.2277 33.3336 14.1584 33.4191 14.1101 33.5166C14.0195 33.6942 14.001 33.9 14.0586 34.0909L15.3545 38.7961L13.0793 39.4293Z" fill="#FFE75C"/>
<path d="M13.0866 38.5235L14.9348 36.7932C15.0837 36.6527 15.2651 36.551 15.4627 36.4974C15.6603 36.4437 15.8681 36.4396 16.0676 36.4855C16.2672 36.5314 16.4524 36.6258 16.6067 36.7604C16.761 36.895 16.8797 37.0656 16.9523 37.2571L17.4236 38.5088C17.612 39.0069 17.621 39.555 17.449 40.059C17.277 40.5629 16.9347 40.9912 16.4811 41.2701L14.9569 42.2052C14.7329 42.3429 14.4806 42.4283 14.219 42.4548C13.9574 42.4814 13.6932 42.4485 13.446 42.3585C13.1989 42.2686 12.9753 42.124 12.792 41.9355C12.6086 41.747 12.4702 41.5196 12.3871 41.2701C12.2282 40.7934 12.2097 40.281 12.3337 39.7941C12.4577 39.3072 12.7191 38.8662 13.0866 38.5235V38.5235Z" fill="#FFE75C"/>
<path d="M13.683 40.7915C13.8191 41.2727 14.126 41.6878 14.5462 41.9589C14.9664 42.2301 15.4711 42.3386 15.9657 42.2642" fill="#FFE75C"/>
<path d="M14.6771 39.768C14.7742 40.2819 15.0637 40.7394 15.4864 41.0472C15.9092 41.3551 16.4335 41.4901 16.9524 41.4247" fill="#FFE75C"/>
<path d="M17.2984 37.397C17.2773 37.6288 17.1989 37.8517 17.0704 38.0457C16.9419 38.2398 16.7673 38.3989 16.5621 38.5088" fill="#FFE75C"/>
<path d="M16.0025 37.9051C16.3341 38.1926 16.551 38.5899 16.6136 39.0243Z" fill="#FFE75C"/>
<path d="M13.0866 38.5235L14.9348 36.7932C15.0837 36.6527 15.2651 36.551 15.4627 36.4974C15.6603 36.4437 15.8681 36.4396 16.0676 36.4855C16.2672 36.5314 16.4524 36.6258 16.6067 36.7604C16.761 36.895 16.8797 37.0656 16.9523 37.2571L17.4236 38.5088C17.612 39.0069 17.621 39.555 17.449 40.059C17.277 40.5629 16.9347 40.9912 16.4811 41.2701L14.9569 42.2052C14.7329 42.3429 14.4806 42.4283 14.219 42.4548C13.9574 42.4814 13.6932 42.4485 13.446 42.3585C13.1989 42.2686 12.9753 42.124 12.792 41.9355C12.6086 41.747 12.4702 41.5196 12.3871 41.2701C12.2282 40.7934 12.2097 40.281 12.3337 39.7941C12.4577 39.3072 12.7191 38.8662 13.0866 38.5235V38.5235Z" fill="#FFE75C"/>
<path d="M15.5754 42.5218C15.0888 42.5036 14.6204 42.3321 14.237 42.032C13.8535 41.7319 13.5746 41.3183 13.4401 40.8503C13.4254 40.7947 13.4335 40.7355 13.4625 40.6858C13.4915 40.6361 13.539 40.5999 13.5947 40.5853C13.6504 40.5706 13.7095 40.5787 13.7592 40.6077C13.809 40.6367 13.8451 40.6842 13.8598 40.7399C13.9761 41.1737 14.2488 41.549 14.6254 41.7937C15.002 42.0384 15.4558 42.1352 15.8994 42.0653C15.9549 42.059 16.0107 42.0748 16.0548 42.1092C16.0989 42.1436 16.1277 42.1939 16.135 42.2494C16.1403 42.277 16.1398 42.3055 16.1336 42.3329C16.1275 42.3604 16.1158 42.3863 16.0992 42.4091C16.0826 42.4318 16.0616 42.451 16.0374 42.4653C16.0131 42.4796 15.9862 42.4888 15.9583 42.4924C15.8313 42.5087 15.7035 42.5185 15.5754 42.5218V42.5218Z" fill="black"/>
<path d="M16.6284 41.6603C16.1166 41.6343 15.628 41.4385 15.24 41.1038C14.8519 40.7691 14.5865 40.3146 14.4857 39.8121C14.4745 39.7566 14.485 39.6989 14.5152 39.6509C14.5453 39.603 14.5927 39.5684 14.6476 39.5544C14.7042 39.5435 14.7628 39.555 14.8109 39.5867C14.8591 39.6183 14.893 39.6675 14.9054 39.7238C14.9917 40.1825 15.2505 40.5907 15.6284 40.8645C16.0064 41.1384 16.4748 41.2572 16.9376 41.1964C16.9657 41.1923 16.9943 41.1938 17.0218 41.2008C17.0493 41.2079 17.0751 41.2203 17.0978 41.2375C17.1204 41.2546 17.1394 41.2761 17.1536 41.3006C17.1678 41.3252 17.177 41.3524 17.1806 41.3805C17.1847 41.4082 17.1832 41.4364 17.1761 41.4634C17.1689 41.4905 17.1564 41.5158 17.1392 41.5378C17.1219 41.5599 17.1004 41.5782 17.0759 41.5917C17.0514 41.6051 17.0244 41.6134 16.9965 41.6161C16.8753 41.6415 16.7521 41.6563 16.6284 41.6603V41.6603Z" fill="black"/>
<path d="M16.5253 38.7224C16.4759 38.7214 16.4283 38.7033 16.3908 38.6713C16.3532 38.6392 16.3279 38.5951 16.3192 38.5464C16.3106 38.4978 16.319 38.4476 16.3431 38.4045C16.3673 38.3614 16.4056 38.328 16.4516 38.31C16.6266 38.2191 16.7762 38.086 16.8868 37.9227C16.9973 37.7594 17.0654 37.5711 17.0849 37.3749C17.0907 37.3183 17.1188 37.2663 17.163 37.2304C17.2072 37.1945 17.2639 37.1776 17.3205 37.1835C17.3771 37.1893 17.4291 37.2174 17.465 37.2616C17.5009 37.3058 17.5178 37.3624 17.5119 37.4191C17.4853 37.6909 17.3902 37.9516 17.2358 38.1769C17.0813 38.4022 16.8723 38.5848 16.6283 38.7077L16.5253 38.7224Z" fill="black"/>
<path d="M16.6284 39.2599C16.5802 39.2589 16.5337 39.2427 16.4953 39.2136C16.457 39.1845 16.4288 39.144 16.4148 39.0979V39.039C16.3605 38.6719 16.1747 38.337 15.892 38.0965C15.8537 38.0556 15.8324 38.0016 15.8324 37.9456C15.8324 37.8895 15.8537 37.8356 15.892 37.7946C15.9317 37.7568 15.9845 37.7357 16.0393 37.7357C16.0941 37.7357 16.1469 37.7568 16.1866 37.7946C16.5451 38.0902 16.7834 38.5065 16.8566 38.9654V39.0243C16.87 39.079 16.8613 39.1367 16.8323 39.185C16.8034 39.2332 16.7565 39.2681 16.702 39.282L16.6284 39.2599Z" fill="black"/>
<path d="M24.7279 45.8869C24.6953 44.5338 24.545 43.1862 24.2788 41.8592L22.1802 42.2789C22.3586 43.3778 22.4668 44.487 22.5042 45.5997C22.8482 45.3744 23.2614 45.2794 23.6692 45.3321C24.077 45.3848 24.4525 45.5815 24.7279 45.8869Z" fill="black"/>
<path d="M28.1813 59.0598L28.0635 60.0833C28.0504 60.1753 28.0574 60.269 28.0841 60.358C28.1108 60.447 28.1565 60.5292 28.2182 60.5987C28.2758 60.5081 28.3609 60.4384 28.4612 60.3999C29.8124 59.8084 31.0565 58.9973 32.1428 57.9995C34.2192 56.0629 35.6551 55.4886 36.2294 55.8715C36.1576 55.7381 36.0629 55.6185 35.9496 55.518C34.5138 54.2 31.5905 56.8213 30.4271 57.9111L30.9794 51.1001C31.1013 49.8272 30.8452 48.5465 30.2431 47.4184L28.7704 44.6351C28.3873 44.5488 27.986 44.6013 27.6381 44.7834C27.2901 44.9655 27.0182 45.2652 26.8707 45.6292L28.3433 48.4346C28.7545 49.1854 28.9339 50.0412 28.8588 50.8939L28.1813 59.0598Z" fill="#1416A8"/>
<path d="M28.7336 44.6646L26.8928 41.2554L25.0078 42.2715L26.8339 45.6586C26.9813 45.2947 27.2533 44.9949 27.6012 44.8129C27.9492 44.6308 28.3505 44.5783 28.7336 44.6646V44.6646Z" fill="black"/>
<path d="M15.0232 11.9422C12.4296 13.0663 10.3351 15.0979 9.13253 17.6561C9.15244 17.79 9.17947 17.9227 9.21352 18.0537C9.21352 18.1641 9.26507 18.2672 9.28716 18.3703C10.3894 15.6673 12.5028 13.5011 15.1778 12.3324C16.7935 11.6184 18.5436 11.2593 20.31 11.2795C23.3957 11.2806 26.377 12.3973 28.7041 14.4236C28.6673 14.2027 28.6305 13.9892 28.5863 13.7683C26.7125 12.2454 24.4547 11.2691 22.0617 10.9469C19.6686 10.6247 17.2331 10.9691 15.0232 11.9422V11.9422Z" fill="#66BCFF"/>
<path d="M16.6873 16.4338C15.4593 16.9741 14.3552 17.7607 13.4433 18.7447C12.5314 19.7288 11.8311 20.8895 11.3857 22.1551L11.3415 22.3023C11.4446 22.4275 11.555 22.5527 11.6655 22.6705C11.7023 22.538 11.7391 22.4128 11.7833 22.2876C12.2078 21.075 12.8782 19.9631 13.7525 19.0217C14.6268 18.0803 15.6861 17.3296 16.864 16.8167C18.202 16.2154 19.653 15.9066 21.12 15.911C23.819 15.8959 26.4235 16.9035 28.4096 18.7311C28.4538 18.5765 28.4906 18.4292 28.5274 18.2746C26.9402 16.8611 24.9788 15.9355 22.8787 15.609C20.7785 15.2825 18.6287 15.5689 16.6873 16.4338V16.4338Z" fill="#66BCFF"/>
<path d="M10.9071 10.0571C10.4797 10.6409 10.1191 11.2707 9.83205 11.9348C11.0165 10.328 12.6004 9.05886 14.4267 8.25314C16.0269 7.536 17.7612 7.16706 19.5148 7.17074C21.6952 7.17216 23.8392 7.72971 25.7441 8.79066C25.2922 8.35812 24.7989 7.97092 24.2715 7.63462C22.6664 7.00813 20.9531 6.70574 19.2305 6.74492C17.508 6.7841 15.8102 7.16406 14.2353 7.86289C13.0143 8.40911 11.8902 9.15019 10.9071 10.0571V10.0571Z" fill="#66BCFF"/>
<path d="M26.6719 37.9051C25.7599 37.9128 24.8514 38.019 23.9622 38.2217C22.5807 38.5093 21.2664 39.0565 20.0891 39.8343C19.7374 40.0745 19.416 40.3564 19.1319 40.6737L19.986 42.9563C19.7357 41.8665 21.6869 40.497 24.3377 39.9005C25.1037 39.7258 25.8863 39.6345 26.6719 39.6281C28.2476 39.6281 29.411 40.0552 29.6172 40.8136L29.4184 38.3837H29.3227C28.4778 38.0563 27.5779 37.8938 26.6719 37.9051Z" fill="#D11583"/>
<path d="M20.8475 37.6327L20.1112 38.369C20.0875 38.3936 20.058 38.4116 20.0254 38.4215C19.9927 38.4313 19.9581 38.4326 19.9248 38.4252C19.8916 38.4178 19.8608 38.402 19.8354 38.3792C19.81 38.3565 19.7908 38.3276 19.7798 38.2954L18.3072 34.4223C18.2573 34.298 18.2453 34.1617 18.2729 34.0307C18.3004 33.8996 18.3661 33.7797 18.4618 33.686L19.0288 33.1263C19.0527 33.1018 19.0823 33.0836 19.115 33.0734C19.1477 33.0632 19.1824 33.0613 19.216 33.0679C19.2497 33.0744 19.2811 33.0893 19.3075 33.1111C19.334 33.1329 19.3546 33.1609 19.3675 33.1926L20.9138 37.3013C20.9416 37.356 20.9502 37.4184 20.9382 37.4785C20.9262 37.5386 20.8942 37.593 20.8475 37.6327V37.6327Z" fill="#D11583"/>
</g>
<defs>
<clipPath id="clip0_104_475">
<rect width="45" height="45" rx="22.5" fill="white"/>
</clipPath>
</defs>
</svg>
