<svg width="45" height="45" viewBox="0 0 45 45" fill="none" xmlns="http://www.w3.org/2000/svg">
<rect width="45" height="45" rx="22.5" fill="#FFE75C"/>
<path d="M39.5394 20.4467C38.4502 19.0439 37.1826 17.7895 35.769 16.7153C36.8331 14.4941 37.0282 13.8563 36.6576 13.1355C35.952 11.767 33.9292 10.7652 31.4301 11.0584C31.1765 11.0867 30.9314 11.1684 30.7114 11.2981C30.4915 11.4278 30.3017 11.6026 30.1538 11.811C29.8195 12.2875 29.241 13.133 28.2527 14.626L24.8362 20.2952C19.0159 14.4037 16.5559 13.5606 12.8147 14.4672C8.94922 15.4055 8.66619 19.1247 9.27139 21.4046C9.75947 23.2959 11.3971 25.2923 11.9386 25.9179C10.5511 25.7478 9.14339 25.8845 7.8143 26.3185C7.6456 26.3828 7.49275 26.4829 7.3663 26.6118C7.23985 26.7411 7.14292 26.8961 7.08234 27.0663C6.61694 28.4712 6.29414 29.9193 6.1183 31.3891C5.9962 32.2858 11.7018 32.9994 15.1113 32.9994H36.9794C37.4212 31.4062 36.9794 29.4732 36.9794 29.4732C36.9794 29.4732 39.198 25.2679 40.0837 23.8017C40.9695 22.3356 40.528 21.8078 39.5394 20.4467Z" fill="#FF78B9"/>
<path d="M24.8364 20.288C26.7108 22.3284 29.8002 23.7677 29.8002 23.7677C31.4766 18.5848 31.7696 15.6158 32.9874 15.3788C33.7657 15.2273 34.8639 15.975 35.7693 16.7081C36.8333 14.4869 37.0284 13.8491 36.6575 13.1283C35.9522 11.7599 33.9294 10.758 31.4303 11.0512C31.1765 11.0795 30.9317 11.1612 30.7117 11.2909C30.4917 11.4206 30.3016 11.5954 30.154 11.8039C29.8197 12.2803 29.2412 13.1258 28.253 14.6189L24.8364 20.288Z" fill="#FFA8D2"/>
<path d="M28.1014 28.902L16.9464 25.5665L11.0895 24.8334C11.4434 25.3221 11.7606 25.6984 11.9485 25.9135C10.5573 25.7435 9.14619 25.882 7.8143 26.319C7.6456 26.3833 7.49275 26.4834 7.3663 26.6123C7.23985 26.7415 7.14292 26.8966 7.08234 27.0668C6.61694 28.4717 6.29414 29.9198 6.1183 31.3896C5.9962 32.2863 11.7018 32.9999 15.1112 32.9999H36.9794C37.3122 31.7593 37.3622 30.4601 37.1261 29.1978C35.0858 29.1512 31.3909 29.0558 28.1014 28.902Z" fill="#FFA8D2"/>
<path d="M16.8269 17.7542C13.786 14.1034 10.4061 14.8047 9.39826 17.3461C8.95585 18.6544 8.91423 20.0653 9.27866 21.3975C9.76674 23.2889 11.4043 25.2853 11.9462 25.9133C18.3521 26.578 21.9932 28.6745 28.1087 28.9019C21.7077 25.1192 19.5016 20.965 16.8269 17.7542Z" fill="black"/>
<path d="M14.5425 32.9997C8.45871 32.9997 3.05069 31.5653 7.83144 30.7858C12.766 29.9842 17.5564 32.9997 23.3378 32.9997H14.5425Z" fill="black"/>
<path d="M6.73118 28.2421C6.72652 28.2636 6.72093 28.285 6.7141 28.3058C8.99325 27.3284 12.942 27.6142 18.2009 29.1708C23.621 30.776 27.311 30.9205 37.2751 30.9301C37.2751 30.7347 37.2751 30.5464 37.2751 30.3706C27.3793 30.3706 23.7164 30.2165 18.3693 28.6333C13.6935 27.2501 10.0011 26.8543 7.53149 27.4555C7.33949 27.5015 7.16333 27.599 7.02228 27.7376C6.88123 27.8762 6.78058 28.0508 6.73118 28.2421Z" fill="#FF78B9"/>
<path d="M33.854 25.3489C34.4819 25.3489 34.9911 24.3479 34.9911 23.1131C34.9911 21.8782 34.4819 20.8772 33.854 20.8772C33.2258 20.8772 32.7166 21.8782 32.7166 23.1131C32.7166 24.3479 33.2258 25.3489 33.854 25.3489Z" fill="white"/>
<path d="M23.3917 26.9785C21.9154 28.2734 20.4633 27.1814 20.8805 24.9723C21.6786 25.6884 22.5172 26.3584 23.3917 26.9785Z" fill="#66BCFF"/>
<path d="M19.2845 23.4379C18.3083 25.1485 16.8733 24.303 16.8441 23.0396C15.1651 23.0396 15.1164 21.5442 16.3314 19.9925C17.2452 21.1999 18.2313 22.3505 19.2845 23.4379Z" fill="#66BCFF"/>
<path d="M13.1299 16.652C11.5094 19.0369 11.0164 18.9025 10.67 18.3918C9.19113 20.2978 9.18616 18.6166 10.0526 17.1089C10.7871 15.8261 11.8779 15.8285 13.1299 16.652Z" fill="#66BCFF"/>
<path d="M9.98151 21.6222C9.26881 23.8214 10.1449 24.4201 11.1748 23.8214C10.7396 23.1094 10.3413 22.3753 9.98151 21.6222Z" fill="#66BCFF"/>
<path d="M33.5167 22.3357C33.2507 22.2698 32.9531 22.4774 32.7285 22.8244C32.7285 22.9173 32.7285 23.0101 32.7285 23.103C32.7033 23.7492 32.8736 24.3879 33.2166 24.9357C33.5804 24.6768 33.8305 24.2873 33.9147 23.8483C34.0902 23.1177 33.9268 22.4359 33.5167 22.3357Z" fill="black"/>
<path d="M27.7598 30.9612C27.6741 30.9615 27.5915 30.9285 27.5293 30.8692C27.4672 30.8102 27.4299 30.7294 27.4256 30.6437C27.474 29.4016 27.945 28.2135 28.7605 27.2762C28.818 27.2085 28.9 27.1665 28.9886 27.1594C29.0771 27.1522 29.1651 27.1808 29.2328 27.2383C29.3002 27.2961 29.3421 27.3784 29.3493 27.4669C29.3564 27.5558 29.3282 27.6434 29.2704 27.7111C28.5617 28.5295 28.1476 29.5619 28.0941 30.6437C28.0948 30.7319 28.0609 30.8167 28 30.8801C27.9388 30.9438 27.8552 30.9807 27.7673 30.9832L27.7598 30.9612Z" fill="black"/>
</svg>
