<svg width="45" height="45" viewBox="0 0 45 45" fill="none" xmlns="http://www.w3.org/2000/svg">
<g clip-path="url(#clip0_85_936)">
<rect width="45" height="45" rx="22.5" fill="#7B9ADE"/>
<path d="M1.66503 32.1485C1.64115 31.8764 1.67039 31.602 1.75194 31.3412C1.83349 31.0805 1.96581 30.8382 2.14116 30.6287C2.3165 30.4192 2.53174 30.2457 2.77401 30.1199C3.01595 29.9933 3.28114 29.9157 3.55286 29.8909L4.4587 32.2759L1.66503 32.1485Z" fill="#3B375E"/>
<path d="M4.79538 55.8296C4.80217 55.8125 4.80515 55.7935 4.80401 55.7748C4.80321 55.7571 4.7989 55.7385 4.79082 55.7212C4.78402 55.7045 4.77249 55.6895 4.75845 55.6763C4.74473 55.6641 4.7285 55.6538 4.71135 55.6471C4.69454 55.6412 4.67554 55.6382 4.65656 55.6384C4.63792 55.6396 4.61929 55.6438 4.60292 55.6516C4.58561 55.6597 4.57023 55.6703 4.55803 55.684C4.54488 55.698 4.53555 55.7139 4.52877 55.7311L3.50692 57.6165C3.38601 57.5418 3.26836 57.4765 3.1569 57.3986C2.46002 56.9288 1.97536 56.2063 1.805 55.3829C1.63403 54.5608 1.79193 53.7047 2.24381 52.996L6.07785 47.0223L14.3689 47.573L16.0374 54.5076C16.1357 54.9158 16.1036 55.3446 15.9455 55.7333C15.7874 56.1219 15.5104 56.451 15.1543 56.673C14.7803 56.9076 14.3245 57.1809 13.8021 57.4454L13.3994 54.7708C13.3991 54.7423 13.3871 54.7136 13.3664 54.6933C13.3456 54.6729 13.3174 54.6615 13.2876 54.6612C13.2582 54.6618 13.2305 54.6734 13.2092 54.6945C13.1889 54.7153 13.1774 54.7435 13.178 54.7729L12.8044 57.9264C11.4727 58.5679 10.0185 58.9121 8.5403 58.9378C7.06274 58.9621 5.59784 58.667 4.24509 58.0709L4.79538 55.8296Z" fill="white"/>
<path d="M-12.8657 34.1481C-17.3053 33.5255 -21.5338 31.8573 -25.2029 29.2794C-26.1525 28.4631 -27.2073 27.7771 -28.3381 27.239C-28.9159 27.0043 -29.7668 26.9906 -29.9633 27.587C-30.0204 27.8542 -29.9772 28.1333 -29.8417 28.3701C-29.38 29.2688 -28.7265 30.0548 -27.9279 30.6725C-26.3687 32.0245 -24.6468 33.1767 -22.8026 34.1006C-23.9547 33.4513 -25.1913 32.9623 -26.4758 32.6473C-26.9157 32.491 -27.3861 32.4394 -27.8498 32.4964C-28.079 32.5341 -28.2918 32.638 -28.4616 32.7959C-28.6302 32.9545 -28.7499 33.1596 -28.8024 33.385C-28.8027 33.6146 -28.7562 33.8418 -28.6655 34.0528C-28.5743 34.2625 -28.4421 34.4529 -28.2749 34.61C-27.0532 36.0201 -25.55 37.1576 -23.862 37.9503C-22.1739 38.7429 -20.3383 39.1716 -18.4734 39.2095C-19.5068 39.2798 -20.4968 39.2611 -21.5114 39.3249C-21.9697 39.3452 -22.5285 39.4424 -22.6953 39.8489C-22.862 40.2553 -22.5408 40.7581 -22.1648 41.0517C-21.07 41.7218 -19.8036 42.0578 -18.5216 42.0182C-14.3944 42.3634 -12.2633 41.3651 -8.45607 40.0436C-4.69778 38.703 -1.10399 36.9399 2.25702 34.7895C3.00277 34.409 3.69085 33.9225 4.29836 33.3463C4.07047 32.6845 5.24003 30.7059 3.78063 30.5527C3.78063 30.5527 -0.244458 32.2242 -0.480838 32.3056C-1.98684 32.877 -7.86378 35.0064 -12.8657 34.1481V34.1481Z" fill="white"/>
<path d="M4.30171 33.3559C4.07381 32.694 5.24337 30.7155 3.78398 30.5622C3.78398 30.5622 -0.241117 32.2338 -0.477496 32.3152C-0.988076 32.491 -2.02815 32.8491 -3.31405 33.2919C-5.67391 35.4349 -8.40823 37.1263 -11.3797 38.2795C-12.7306 38.8345 -14.0184 39.5329 -15.2204 40.3635C-15.5184 40.5147 -15.7836 40.7245 -15.999 40.9805C-16.2143 41.2366 -16.3765 41.5336 -16.4739 41.8527L-16.2504 42.0718C-13.4654 41.959 -11.494 41.111 -8.48109 40.063C-4.7228 38.7224 -1.12901 36.9593 2.232 34.8089C2.98912 34.4276 3.68571 33.9382 4.30171 33.3559V33.3559Z" fill="#E1E9F5"/>
<path d="M11.5053 32.9906C16.3778 36.7596 23.1643 38.3466 29.9802 38.7601C31.4505 38.8927 32.9312 38.8376 34.387 38.5965C35.8624 38.3571 37.2324 37.6792 38.3177 36.6508C38.7063 36.2896 38.987 35.827 39.1268 35.3146C39.1882 35.0724 39.1775 34.8169 39.0958 34.5796C39.0144 34.3432 38.8656 34.1353 38.6677 33.9814C38.1672 33.7074 37.5861 33.6198 37.0271 33.7319C36.4396 33.8073 36.0458 33.9535 35.4615 34.0383L35.2725 34.1034C36.6568 33.6056 37.9466 32.8791 39.0904 31.9533C40.2016 31.1043 41.0463 29.9546 41.5245 28.6403C41.6629 28.3082 41.7254 27.9493 41.7092 27.5889C41.693 27.2285 41.5985 26.8772 41.4312 26.5572C41.213 26.24 40.8951 26.0046 40.5277 25.89C40.1601 25.7744 39.7646 25.7868 39.4041 25.9226C38.5626 26.2123 38.2424 27.0947 37.7906 27.779C37.3204 28.4592 36.7091 29.0303 35.9982 29.4538C36.7148 28.9057 37.3047 28.2107 37.7298 27.415C38.1549 26.6193 38.4037 25.7414 38.4605 24.8409C38.5265 24.4427 38.4437 24.0333 38.2269 23.6923C38.0101 23.3514 37.6746 23.102 37.2849 22.9929C36.9943 22.9629 36.7011 22.9962 36.425 23.0912C36.1489 23.1863 35.8975 23.3406 35.6869 23.5431C35.2918 23.9468 34.9707 24.4148 34.7361 24.9282C33.5648 27.0554 32.3919 29.3313 30.1761 30.7288C27.9907 31.9625 25.4929 32.5317 22.9883 32.3682C18.8384 32.2953 14.2846 31.6635 11.265 29.4669C11.1968 30.2519 11.6622 30.6204 11.4043 31.4072C11.2056 31.8469 11.1456 32.3361 11.2316 32.8099C11.229 32.8362 11.2314 32.8618 11.2399 32.8864C11.2484 32.9109 11.2625 32.9336 11.2804 32.9517C11.2804 32.9517 11.458 33.0069 11.5053 32.9906V32.9906Z" fill="white"/>
<path opacity="0.52" d="M11.5053 32.9906C11.4581 33.0069 11.3756 32.9824 11.331 32.9449C11.3131 32.9267 11.2989 32.9041 11.2905 32.8795C11.282 32.8549 11.2795 32.8293 11.2821 32.8031C11.1962 32.3292 11.2562 31.84 11.4549 31.4004C11.6788 30.6993 11.3367 30.32 11.3083 29.6847L11.5893 29.6408C12.8108 30.4544 14.1561 31.0626 15.5728 31.442C16.7513 34.8648 19.735 35.9738 22.6371 37.7984C18.6137 37.0484 14.8105 35.4051 11.5053 32.9906V32.9906Z" fill="#D1D8E3"/>
<path d="M22.7287 18.2222C22.7287 18.2222 7.16517 16.1778 9.39789 32.2146" stroke="white" stroke-width="4.53" stroke-miterlimit="10"/>
<path d="M14.5475 39.3994C14.5475 39.3994 16.1937 32.2013 11.1008 29.1745L11.2805 29.1127C11.2805 29.1127 10.183 31.6692 9.85211 31.7832L8.45268 28.7326L7.1468 29.3938L3.53982 29.8531C3.53982 29.8531 4.72164 33.2853 1.92505 33.8252C1.92505 33.8252 1.21693 35.4546 6.76782 42.9137L14.5475 39.3994Z" fill="#4A4285"/>
<path d="M9.82971 31.7485L9.85251 31.8147L10.4674 28.7474L11.0277 28.8083L11.7211 28.8869C16.8172 31.9231 14.5382 39.4026 14.5382 39.4026L14.4247 39.4417L11.4178 37.2513L9.82971 31.7485Z" fill="#433B79"/>
<path d="M11.4079 37.2231L7.15581 42.8119L14.5475 39.3995L11.4079 37.2231Z" fill="#3B375E"/>
<path d="M7.07107 33.904C7.49372 33.7585 7.71909 33.298 7.57323 32.8744C7.4277 32.4518 6.9663 32.2267 6.54365 32.3723C6.12101 32.5178 5.89597 32.9792 6.0415 33.4019C6.18735 33.8254 6.64843 34.0495 7.07107 33.904Z" fill="#746F95"/>
<path opacity="0.32" d="M9.69181 41.5155C9.69181 41.5155 6.22828 37.5998 3.78916 38.4714C3.62842 38.5267 6.91095 43.3297 6.91095 43.3297L13.89 40.7151L9.69181 41.5155Z" fill="#3B375E"/>
<path d="M14.7671 40.191C14.9688 40.4389 25.7694 47.2644 19.0504 50.9105C13.9014 53.7411 9.36149 46.1771 10.774 41.8938L14.7671 40.191Z" fill="#9294A7"/>
<path d="M12.327 41.2745C12.327 41.2745 17.4658 53.1272 8.93904 54.9633C8.93904 54.9633 3.22762 56.5597 5.66726 48.6865L5.634 44.3511L12.327 41.2745Z" fill="#B5B6C6"/>
<path d="M2.95971 46.0757C3.01141 44.9051 4.58775 43.77 5.30385 43.2696L5.53573 43.0523C5.81939 42.7949 6.14626 42.5893 6.50061 42.4451L14.5846 39.3231C14.7154 39.2759 14.8593 39.2761 14.99 39.3241C15.1205 39.3712 15.2299 39.4647 15.2987 39.5848L15.5404 40.041C15.5797 40.1121 15.6042 40.1893 15.611 40.2705C15.6175 40.3508 15.6072 40.4316 15.5808 40.5083C15.554 40.5842 15.5114 40.6539 15.4553 40.7123C15.3993 40.7707 15.3327 40.8169 15.2574 40.8471L7.01129 44.2047C7.35789 44.8457 7.51937 45.5696 7.47784 46.2967C7.39687 48.0274 6.30973 49.3853 5.05992 49.3186C3.8101 49.2519 2.86929 47.8096 2.95971 46.0757V46.0757Z" fill="#F99300"/>
<path d="M2.95981 46.0758C3.01151 44.9052 4.58785 43.7701 5.30394 43.2697C5.6925 43.8361 5.88199 44.5154 5.84162 45.1998C5.88136 45.862 5.6604 46.5134 5.22576 47.0142C4.79239 47.5156 4.17942 47.8271 3.51839 47.8824L3.23023 47.8441C3.00933 47.2824 2.91768 46.6783 2.95981 46.0758Z" fill="#ED8000"/>
<path d="M3.09742 30.841C3.09742 30.841 3.84049 30.5111 3.72434 32.201L4.0514 32.0143L3.84918 30.7514L3.71245 30.3542L3.09742 30.841Z" fill="#3B375E"/>
<path opacity="0.32" d="M22.9644 15.8354C22.9644 15.8354 21.5893 15.8964 20.2801 15.903C19.972 17.5543 19.3715 19.137 18.5047 20.5756C19.7453 20.4191 20.9934 20.3426 22.2436 20.3458L22.6041 18.1064L22.9644 15.8354Z" fill="#C9C9C9"/>
<path d="M22.4198 9.98397C22.6801 11.6246 23.0579 13.2438 23.5491 14.8303C23.99 13.2296 24.3117 11.599 24.513 9.95068C24.5089 8.89447 24.0226 8.00429 23.4374 7.99425C22.8523 7.9842 22.4059 8.89939 22.4198 9.98397Z" fill="#C9C9C9"/>
<path d="M29.6351 22.2067C31.6221 20.4766 31.5541 17.1463 29.483 14.768C27.4119 12.3897 24.1225 11.864 22.1355 13.5941C20.1486 15.3243 20.2175 18.6543 22.2876 21.0329C24.3588 23.4112 27.6491 23.9366 29.6351 22.2067Z" fill="white"/>
<path d="M17.2997 11.271C18.4031 12.2025 23.6238 13.7575 23.6238 13.7575C23.6238 13.7575 21.185 8.88614 20.0816 7.95462C19.8758 7.70713 19.6186 7.50695 19.3269 7.36941C19.0353 7.23188 18.7167 7.1607 18.3948 7.15945C18.0719 7.15852 17.7535 7.22902 17.4617 7.3644C17.1689 7.50011 16.9103 7.69811 16.7028 7.94619C16.4958 8.193 16.3456 8.48163 16.2627 8.79363C16.1794 9.10469 16.1659 9.43088 16.2234 9.74845C16.2796 10.0654 16.4056 10.3668 16.5923 10.6293C16.7783 10.8931 17.0195 11.1115 17.2997 11.271V11.271Z" fill="white"/>
<path d="M18.3912 14.8401C20.1132 14.6131 21.8098 14.2235 23.4586 13.6769C21.9007 12.9241 20.2762 12.319 18.6055 11.8684C18.3765 11.778 18.1298 11.7434 17.885 11.7664C17.6392 11.7897 17.4037 11.8708 17.1954 12.0028C16.9879 12.1345 16.8148 12.3136 16.6892 12.5261C16.5641 12.7374 16.4909 12.9762 16.475 13.2218C16.46 13.467 16.5026 13.7136 16.6003 13.939C16.6984 14.1654 16.8483 14.3645 17.0377 14.5214C17.2271 14.6782 17.4512 14.7883 17.6917 14.8419C17.9323 14.8955 18.1818 14.8921 18.4196 14.8303L18.3912 14.8401Z" fill="white"/>
<path d="M30.155 19.6099C30.155 19.6099 27.1622 24.6171 26.6812 19.135L30.155 19.6099Z" fill="#333333"/>
<path d="M26.6812 19.135C23.879 18.4606 22.0071 16.2495 22.5058 14.227C22.6084 13.7601 22.8211 13.3242 23.1258 12.9559C24.2382 12.556 25.448 12.5159 26.5834 12.8431C27.7194 13.169 28.7235 13.8459 29.4528 14.7751C30.4089 15.8473 30.972 17.2123 31.05 18.646C29.7083 19.3566 28.1471 19.5314 26.6812 19.135V19.135Z" fill="#00E9DC"/>
<path d="M26.6811 19.1351C27.1842 18.5229 27.8032 18.0168 28.5031 17.6447C29.2034 17.2734 29.9693 17.0436 30.7582 16.9697C32.9541 18.8196 35.4856 20.2281 38.2151 21.118C38.7541 21.2952 39.2134 21.6584 39.5091 22.1425L39.5384 22.2276L26.6811 19.1351Z" fill="#FBCC00"/>
<path d="M26.9556 20.6692C27.1751 20.5757 27.4063 20.513 27.6432 20.4853C28.1986 20.3999 28.7657 20.5356 29.2218 20.8619C28.4772 21.6788 27.4716 22.3212 26.9556 20.6692V20.6692Z" fill="#FF70AA"/>
<path d="M26.1056 16.7295C25.9384 16.198 25.5031 15.8613 25.134 15.9779C24.7657 16.0941 24.603 16.6197 24.7714 17.1519C24.9395 17.6831 25.3749 18.0197 25.7431 17.9035C26.1123 17.7869 26.274 17.2616 26.1056 16.7295Z" fill="black"/>
<path d="M35.5024 20.7555C35.5288 20.648 35.3755 20.5189 35.1599 20.4673C34.9456 20.4163 34.7506 20.4612 34.7251 20.5684C34.6987 20.6758 34.8521 20.8049 35.0667 20.8569C35.2819 20.9076 35.4769 20.8626 35.5024 20.7555V20.7555Z" fill="#C19D00"/>
<path d="M23.7833 32.8032C23.579 32.6737 23.384 32.5283 23.2003 32.3694C25.6464 32.5287 28.0861 31.9753 30.2241 30.7758L30.366 30.727C30.927 30.5656 31.4791 30.3754 32.0206 30.1573C32.3323 29.9844 32.6805 29.8899 33.0362 29.8816C33.227 29.8921 33.4086 29.9649 33.5531 30.0897C33.6973 30.2135 33.7957 30.3826 33.8336 30.5695C33.8873 30.9466 33.7958 31.3292 33.5785 31.6409C32.9877 32.5053 32.1436 33.1651 31.1621 33.5306C29.4174 34.309 27.4497 34.4302 25.6217 33.873C24.9635 33.6015 24.3448 33.2423 23.7833 32.8032Z" fill="#E3E3E3"/>
<path d="M1.93487 33.8536C4.73146 33.3137 3.54964 29.8815 3.54964 29.8815L4.50355 32.6519C4.84829 33.521 4.92347 34.4734 4.71837 35.3859C4.51295 36.2974 4.03884 37.1259 3.35541 37.7642C1.45576 34.3359 1.93487 33.8536 1.93487 33.8536V33.8536Z" fill="#3B375E"/>
<path d="M2.04359 34.9371C2.71437 34.17 3.26529 33.3066 3.67861 32.3753L1.47077 33.6114L1.59732 34.9004L2.04359 34.9371Z" fill="#E1E9F5"/>
</g>
<defs>
<clipPath id="clip0_85_936">
<rect width="45" height="45" rx="22.5" fill="white"/>
</clipPath>
</defs>
</svg>
