<svg width="45" height="45" viewBox="0 0 45 45" fill="none" xmlns="http://www.w3.org/2000/svg">
<g clip-path="url(#clip0_85_887)">
<rect width="45" height="45" rx="22.5" fill="#FFE734"/>
<path d="M10.145 20.7692C4.20446 20.9946 1.26888 17.5371 1.26888 17.5371C3.78627 18.2208 5.18801 17.5429 5.18801 17.5429C3.07145 16.0242 2.25357 12.5962 2.25357 12.5962C6.52905 16.4501 10.2428 16.6101 10.2428 16.6101L10.145 20.7692Z" fill="#5960FA"/>
<path d="M10.2794 15.9725C10.2794 15.9725 9.49802 26.0931 11.5806 35.3511" stroke="#373BE1" stroke-width="1.87" stroke-miterlimit="10" stroke-linecap="round"/>
<path d="M24.3024 34.6521C24.5602 34.2512 25.9947 30.5105 22.7252 30.2708C17.6465 29.9029 19.2003 33.7498 12.8648 33.2468C6.52942 32.7437 5.89879 37.2918 9.90896 39.3045L24.3024 34.6521Z" fill="#FFE734"/>
<path d="M4.01401 28.4894C3.62495 28.6587 3.27658 28.9093 2.99253 29.2245C2.70843 29.5396 2.49518 29.912 2.36709 30.3165C3.23562 30.2715 8.94853 31.2814 9.72064 37.7728L10.1324 37.316C10.1324 37.316 7.94485 28.7209 4.01401 28.4894V28.4894Z" fill="#22C774"/>
<path d="M9.91118 38.5902C9.91118 38.5902 8.30076 31.4675 2.8625 28.1137C2.8625 28.1137 2.0518 24.2369 6.59964 24.6106C6.59964 24.6106 11.6137 32.7979 11.4597 39.0629L9.91118 38.5902Z" fill="#57EBA0"/>
<path d="M10.5855 38.6642C10.5855 38.6642 9.33776 30.3905 11.7856 27.2156C11.7856 27.2156 14.8029 26.6236 15.1073 29.3859C12.4535 32.2841 11.7288 36.1927 11.7637 39.217L10.5855 38.6642Z" fill="#FF6CBA"/>
<path d="M11.1476 38.4216C11.1476 38.4216 10.4827 28.8767 13.8893 25.8001C14.222 26.0439 14.5125 26.3407 14.7491 26.6786C15.2831 27.4056 15.5072 28.3146 15.3723 29.2066C15.3723 29.2066 13.183 30.7353 11.9897 36.1877L11.1476 38.4216Z" fill="#FF85C6"/>
<path d="M13.7734 35.3158C13.1322 35.2839 12.4942 35.4253 11.9266 35.7251C10.5198 36.473 7.8097 37.9503 6.92077 38.6931C6.44003 39.0441 6.0574 39.5126 5.80948 40.0538C5.56156 40.595 5.45666 41.1908 5.50483 41.784L5.56993 43.0391L4.55605 43.723C3.58832 44.3741 3.13408 45.103 3.84361 46.7775C4.50729 48.3236 5.28131 50.4868 7.1127 51.0407C8.94408 51.5942 18.0927 48.4942 18.7678 47.9933L19.0706 45.9398L20.9321 35.6586L13.7734 35.3158Z" fill="#FFE734"/>
<path d="M42.929 14.2354L40.1481 13.5088C39.9578 13.4576 39.7553 13.4788 39.5798 13.5684C39.4042 13.6579 39.2682 13.8094 39.1979 13.9935C38.962 14.7232 38.804 15.4757 38.7265 16.2387C38.4348 15.8184 38.4346 14.5556 38.4653 13.8051C38.4676 13.7333 38.4542 13.6619 38.4259 13.5959C38.3976 13.5299 38.3552 13.4708 38.3017 13.423C38.2482 13.3751 38.1848 13.3395 38.116 13.3189C38.0472 13.2981 37.9748 13.2927 37.9037 13.303L37.2294 13.399C37.1321 13.4097 37.0402 13.4494 36.9659 13.5131C36.8915 13.5767 36.8381 13.6613 36.8125 13.7558C36.502 14.9041 36.9854 17.8442 36.9854 17.8442L36.07 16.9861C36.0258 16.9485 35.9745 16.9202 35.9192 16.9028C35.8639 16.8854 35.8056 16.8792 35.7479 16.8846C35.6902 16.8901 35.6341 16.907 35.583 16.9344C35.5319 16.9618 35.4868 16.9992 35.4504 17.0443L35.0795 17.5338C35.0239 17.6132 34.9965 17.7089 35.0015 17.8057C35.0066 17.9024 35.0437 17.9947 35.1072 18.068L36.0343 19.1519C36.2471 19.4085 36.3834 19.7198 36.4275 20.0502C36.4716 20.3806 36.4217 20.7167 36.2836 21.0201L34.6184 24.677C33.7158 26.6646 32.3903 28.4313 30.7343 29.8536C29.0783 31.2759 27.1318 32.3196 25.0307 32.9118L19.3009 34.5152L22.334 38.4248L28.4307 35.6702C31.6868 34.1928 34.3085 31.6018 35.8241 28.3634L39.354 20.8652L39.4148 20.862L42.1713 18.7683L43.4632 15.2179C43.4992 15.1185 43.5136 15.0126 43.5056 14.9073C43.4975 14.8019 43.4673 14.6995 43.4168 14.6066C43.3663 14.5138 43.2968 14.4328 43.2127 14.3688C43.1286 14.3048 43.0319 14.2593 42.929 14.2354V14.2354Z" fill="#1A9AF5"/>
<path d="M27.8208 31.8005C26.9251 32.2688 25.9826 32.6416 25.009 32.913L21.1892 33.982L22.6832 37.6012L23.8062 37.7607L28.4308 35.6703C28.9459 35.4372 29.4469 35.1742 29.9313 34.8827C30.1605 32.3323 28.0627 31.6791 27.8208 31.8005Z" fill="#373BE1"/>
<path d="M21.9224 45.1822C21.9224 45.1822 26.4715 47.5936 28.2475 50.3536C29.4126 52.1654 26.8562 61.0547 26.0011 63.8768C25.921 64.1401 25.775 64.3786 25.5769 64.5697C25.3787 64.7602 25.135 64.8972 24.8689 64.9674L20.8809 65.3964C18.4404 65.523 22.7905 55.1172 24.288 52.5926L19.226 49.1887L15.4222 46.5383L21.9224 45.1822Z" fill="#0822A5"/>
<path d="M13.5073 44.2036C12.1588 44.8627 10.7302 45.3437 9.25773 45.6345C9.25773 45.6345 13.3408 42.0003 14.6514 39.6507C15.2172 38.6373 15.4269 37.8121 15.3371 37.1724C15.2313 36.307 14.8279 35.161 14.03 35.4767C12.5152 36.0734 9.18065 38.7762 6.21585 44.9128C3.36114 50.8215 9.65017 48.5838 14.1334 46.4528" fill="#1A9AF5"/>
<path d="M24.497 33.0309C24.497 33.0309 15.4603 35.0976 14.1715 35.4345L14.115 35.4374L14.0195 35.4423C12.9484 35.8637 10.9742 37.342 8.86473 40.3252C8.86473 40.3252 9.87394 41.9013 12.3669 42.5341C12.9263 41.946 13.4538 41.3286 13.9474 40.6843L15.4075 46.5042L21.9077 45.1481L24.0035 41.8172C24.9782 40.2783 25.445 38.4721 25.3381 36.6535C25.1957 35.4181 24.9135 34.2027 24.497 33.0309V33.0309Z" fill="#373BE1"/>
<path d="M16.8666 42.9886L16.7738 41.1995C16.7635 41.0114 16.7962 40.8234 16.8694 40.6499C16.9427 40.4763 17.0545 40.3217 17.1964 40.1979L18.3784 39.1438C18.5717 38.9773 18.8111 38.8735 19.0648 38.8464C19.3185 38.8192 19.5745 38.8699 19.7987 38.9917C20.2899 39.2529 20.6864 39.6621 20.9319 40.1613C21.1775 40.6605 21.2595 41.2244 21.1665 41.7728L21.0273 42.6161C20.9494 43.0767 20.7169 43.4971 20.3682 43.808C20.0195 44.1189 19.5753 44.3018 19.1087 44.3267L17.9015 44.3893L16.8666 42.9886Z" fill="#1A9AF5"/>
<path d="M10.3852 16.25C10.9464 16.2209 11.3778 15.7424 11.3487 15.1812C11.3196 14.62 10.841 14.1886 10.2798 14.2177C9.71855 14.2468 9.28723 14.7254 9.31633 15.2866C9.34544 15.8478 9.82397 16.2791 10.3852 16.25Z" fill="#373BE1"/>
<path d="M15.526 35.1072C15.526 35.1072 18.43 36.5285 18.7797 40.7514C18.7838 40.8421 18.7624 40.9322 18.7181 41.0114C18.6737 41.0907 18.6081 41.156 18.5286 41.1999C18.4667 41.2354 18.3977 41.2568 18.3267 41.2628C18.2556 41.2687 18.184 41.2589 18.1171 41.2342C18.0502 41.2094 17.9895 41.1702 17.9394 41.1194C17.8893 41.0686 17.851 41.0074 17.8271 40.9401C17.3211 39.5774 15.6642 35.505 13.038 35.9983C13.0392 36.02 13.4713 34.5302 15.526 35.1072V35.1072Z" fill="#FFB800"/>
<path d="M23.1631 33.3396C24.0046 33.9491 26.3087 35.8935 24.8633 40.0963C24.8633 40.0963 28.5559 36.6565 24.7824 32.9116C24.5945 32.7298 23.8033 32.2526 23.1631 33.3396V33.3396Z" fill="#FFB800"/>
<path d="M14.142 46.4522C16.373 45.3917 18.1569 44.3586 18.1569 44.3586L17.6267 41.9434C16.303 42.7836 14.927 43.5385 13.5072 44.2035" fill="#1A9AF5"/>
<path d="M17.8252 35.528C17.8919 36.2256 18.1858 37.0246 19.4482 37.7733C19.4482 37.7733 21.0303 36.8771 20.9881 36.065C20.9881 36.065 21.8635 37.2431 23.0838 37.1798C23.0838 37.1798 23.3189 33.9063 20.487 33.792C20.175 33.7849 19.8629 33.8011 19.5534 33.8404C18.5052 33.947 17.7229 34.4796 17.8252 35.528V35.528Z" fill="#0822A5"/>
<path d="M19.4024 33.87C19.7513 33.1247 20.1002 32.2967 20.4199 31.492C20.7395 30.6873 21.0318 29.8579 21.3154 29.029C21.8729 27.3747 22.3467 25.6934 22.7349 23.9915C22.9437 23.149 23.0822 22.2927 23.2602 21.4431C23.3375 21.0037 23.3945 20.5914 23.4636 20.1611L23.5613 19.5247L23.6324 18.8809C23.8308 17.1839 23.924 15.4762 23.9114 13.7676L23.9073 13.6894C23.9105 13.1494 24.1281 12.6327 24.5122 12.2531C24.8963 11.8735 25.4155 11.662 25.9556 11.6652C26.4956 11.6683 27.0122 11.8859 27.3919 12.27C27.7715 12.6541 27.983 13.1733 27.9798 13.7133L27.9873 13.8566C27.8632 15.7334 27.6197 17.6003 27.2583 19.4461L27.133 20.1362L26.9768 20.8193C26.8691 21.2603 26.7714 21.7269 26.6597 22.1768C26.4138 23.0604 26.1866 23.9692 25.9003 24.8288C25.352 26.5989 24.7279 28.3338 23.9927 30.0266C23.6319 30.877 23.2574 31.7149 22.8606 32.5454L22.5892 33.1038C22.2699 33.7474 21.9453 34.3738 21.5743 35.0288C21.4147 35.3053 21.1549 35.51 20.8486 35.6002C20.5423 35.6904 20.213 35.6594 19.9289 35.5135C19.6449 35.3676 19.4278 35.118 19.3227 34.8165C19.2177 34.5149 19.2326 34.1846 19.3644 33.8937L19.4024 33.87Z" fill="#1A9AF5"/>
<path d="M13.9622 40.7184C14.3569 40.1043 14.7106 39.4648 15.0211 38.8042C15.5092 40.4073 14.3899 42.4161 14.3899 42.4161L13.9622 40.7184Z" fill="black"/>
<path d="M27.6201 17.3547C27.7014 16.571 25.2578 15.8835 24.8069 15.502C24.8069 15.502 25.7706 18.2996 27.4059 18.8506C27.4796 18.4244 27.5581 17.9239 27.6201 17.3547Z" fill="black"/>
<path d="M28.1647 17.3613C30.4071 17.245 32.1307 15.3328 32.0143 13.0904C31.898 10.8479 29.9859 9.12435 27.7435 9.24066C25.501 9.35697 23.7774 11.2691 23.8937 13.5116C24.0101 15.754 25.9222 17.4776 28.1647 17.3613Z" fill="#1A9AF5"/>
<path d="M29.334 16.4347C30.2138 16.1276 30.6229 15.0074 30.2478 13.9327C29.8727 12.8579 28.8555 12.2355 27.9757 12.5426C27.0959 12.8496 26.6868 13.9698 27.0619 15.0446C27.437 16.1194 28.4543 16.7417 29.334 16.4347V16.4347Z" fill="#99E4FF"/>
<path d="M33.8947 13.9476C34.1154 12.9121 33.694 11.9446 32.9534 11.7868C32.2127 11.6288 31.4333 12.3402 31.2126 13.3757C30.9918 14.4112 31.4132 15.3786 32.1539 15.5365C32.8945 15.6945 33.6739 14.9831 33.8947 13.9476Z" fill="#99E4FF"/>
<path d="M27.7656 14.4516C27.9132 14.3341 28.0866 14.2535 28.2716 14.2164C28.4673 14.1809 28.669 14.1959 28.8573 14.26C29.0382 14.3286 29.2045 14.4308 29.3475 14.5612C29.4816 14.6865 29.6013 14.8263 29.7044 14.9781C29.7389 15.024 29.7638 15.0763 29.778 15.1319C29.7922 15.1876 29.7953 15.2455 29.7872 15.3023C29.779 15.3591 29.7597 15.4138 29.7304 15.4632C29.7011 15.5125 29.6624 15.5556 29.6164 15.5901C29.5705 15.6245 29.5182 15.6495 29.4626 15.6637C29.4069 15.6779 29.349 15.681 29.2922 15.6728C29.2354 15.6646 29.1807 15.6454 29.1314 15.6161C29.082 15.5867 29.0389 15.548 29.0044 15.502C28.9811 15.4707 28.9618 15.4366 28.9469 15.4005C28.9069 15.2911 28.8562 15.1858 28.7957 15.0862C28.7404 14.9995 28.6717 14.9222 28.5922 14.8572C28.5119 14.8008 28.4187 14.7652 28.3212 14.7537C28.2125 14.7473 28.1037 14.7633 28.0014 14.8008L27.958 14.8031C27.9128 14.8209 27.8627 14.8217 27.8169 14.8054C27.7712 14.7889 27.733 14.7565 27.7094 14.714C27.6859 14.6714 27.6786 14.6218 27.689 14.5743C27.6994 14.5268 27.7267 14.4848 27.7658 14.4559L27.7656 14.4516Z" fill="black"/>
<path d="M33.1432 13.5282C33.0338 13.5315 32.9267 13.5594 32.8295 13.6098C32.7404 13.6545 32.6655 13.7232 32.6134 13.8082C32.562 13.8993 32.5259 13.9983 32.5067 14.1011C32.4882 14.2181 32.4812 14.3366 32.4859 14.4549C32.4594 14.5441 32.4051 14.6224 32.3308 14.6784C32.2566 14.7344 32.1663 14.7652 32.0733 14.7661C31.9803 14.767 31.8894 14.7381 31.8141 14.6836C31.7387 14.6291 31.6828 14.5518 31.6546 14.4632C31.6489 14.4317 31.6472 14.3996 31.6497 14.3676C31.6877 14.1948 31.7416 14.0258 31.8107 13.8629C31.8911 13.6928 32.0028 13.5393 32.1399 13.4104C32.2851 13.2773 32.4613 13.1828 32.6526 13.1356C32.8354 13.0958 33.025 13.0994 33.2061 13.1461C33.2318 13.1518 33.2562 13.1625 33.2776 13.1778C33.2991 13.1931 33.3173 13.2125 33.331 13.235C33.3448 13.2575 33.3539 13.2824 33.3578 13.3085C33.3616 13.3346 33.3602 13.3612 33.3535 13.3866C33.3435 13.4297 33.3198 13.4684 33.286 13.4968C33.2521 13.5253 33.21 13.542 33.1658 13.5444L33.1432 13.5282Z" fill="black"/>
<path d="M32.7022 6.53643C31.8076 6.58283 30.9694 6.70902 30.5035 7.4647L29.552 8.76374C28.8537 9.74049 27.3463 11.4036 26.6457 12.1671C27.6471 11.7676 28.6111 11.2805 29.5268 10.7114C29.8238 10.5252 30.1816 10.4621 30.5244 10.5354C30.8671 10.6087 31.1679 10.8126 31.3628 11.1038C32.3798 10.4323 33.2274 9.53432 33.8393 8.48039C33.9509 8.28185 34.0087 8.05757 34.0068 7.82985C34.0048 7.60209 33.9433 7.37882 33.8283 7.18226C33.7133 6.98565 33.5488 6.82264 33.3513 6.70931C33.1537 6.59598 32.9299 6.53637 32.7022 6.53643V6.53643Z" fill="#FF4DAB"/>
<path d="M28.704 8.78596L27.7226 8.83687C25.6946 8.94206 24.1166 10.9224 23.9135 12.8836C24.7961 12.7703 25.6618 12.5514 26.4922 12.2317L26.6459 12.1715C27.3465 11.408 28.8539 9.74483 29.5522 8.7681L28.704 8.78596Z" fill="#FF85C6"/>
<path d="M20.9234 40.1047C20.9716 40.4395 20.9213 40.781 20.7784 41.0876C20.5456 41.4978 20.1719 41.8095 19.7267 41.9651C19.6287 41.9908 19.544 42.0523 19.4893 42.1374C19.4345 42.2226 19.4137 42.3252 19.4309 42.4249C19.4481 42.5247 19.5021 42.6144 19.5823 42.6762C19.6624 42.7381 19.7628 42.7677 19.8636 42.7591C19.8956 42.762 19.9277 42.7604 19.9592 42.7542C20.4106 42.6021 20.8164 42.3385 21.1386 41.9876L21.1751 41.768C21.2745 41.2009 21.1861 40.6169 20.9234 40.1047V40.1047Z" fill="#0087E8"/>
<path d="M7.57275 45.7219C7.83933 45.745 8.1073 45.7485 8.37447 45.7325C8.6704 45.7159 8.96527 45.6832 9.25765 45.6345C9.34087 45.5605 9.85663 45.094 10.5491 44.4267C9.62846 44.801 8.63674 44.9683 7.64418 44.917C7.59117 44.9104 7.53735 44.9145 7.48596 44.9291C7.43452 44.9437 7.38658 44.9684 7.3449 45.0019C7.30321 45.0353 7.26863 45.0767 7.24321 45.1237C7.2178 45.1707 7.20203 45.2223 7.1969 45.2755C7.19171 45.3296 7.19736 45.3841 7.21359 45.436C7.22976 45.4879 7.25608 45.536 7.2911 45.5776C7.32607 45.6191 7.36902 45.6533 7.41738 45.6781C7.46575 45.7029 7.51856 45.7178 7.57275 45.7219V45.7219Z" fill="black"/>
<path d="M25.0335 14.4975C25.0642 15.088 25.2393 16.4505 26.5703 16.0027C26.588 15.9963 26.6039 15.9855 26.6164 15.9713C26.629 15.9572 26.6377 15.9401 26.642 15.9217C26.6462 15.9033 26.6458 15.8842 26.6407 15.866C26.6357 15.8478 26.6261 15.8311 26.6129 15.8176C26.3231 15.5191 25.583 14.765 25.2338 14.413C25.2184 14.3939 25.1972 14.3803 25.1734 14.3744C25.1496 14.3684 25.1245 14.3703 25.1019 14.3798C25.0793 14.3893 25.0603 14.406 25.048 14.4272C25.0357 14.4484 25.0306 14.4731 25.0335 14.4975V14.4975Z" fill="black"/>
<path d="M25.4192 15.4701C25.3567 15.4667 25.2942 15.4699 25.2324 15.4798C25.3156 15.7042 25.4828 15.8875 25.6986 15.9909C25.9144 16.0942 26.1619 16.1096 26.3889 16.0338C26.3008 15.8548 26.1617 15.7058 25.9892 15.6055C25.8167 15.5053 25.6183 15.4582 25.4192 15.4701Z" fill="#FF85C6"/>
<path d="M6.64219 17.5415C6.0915 18.0055 4.88287 18.7126 2.68123 18.7441C3.09727 19.0284 3.53239 19.2838 3.98362 19.5082C6.63709 19.1223 7.65929 17.7587 7.7119 17.6819L8.01665 17.2612L7.54351 17.0375C6.51879 16.5535 5.67824 15.7509 5.14757 14.7496C4.73407 14.501 4.30142 14.2187 3.85803 13.8977C4.29156 15.4208 5.28651 16.7229 6.64219 17.5415Z" fill="#4950FA"/>
</g>
<defs>
<clipPath id="clip0_85_887">
<rect width="45" height="45" rx="22.5" fill="white"/>
</clipPath>
</defs>
</svg>
