<svg width="45" height="45" viewBox="0 0 45 45" fill="none" xmlns="http://www.w3.org/2000/svg">
<rect width="45" height="45" rx="22.5" fill="#FF78B8"/>
<path d="M34.7986 22.8531C37.2464 22.392 38.7255 19.3366 38.1022 16.0289C37.479 12.721 34.9895 10.4135 32.5418 10.8746C30.094 11.3358 28.6149 14.3911 29.2381 17.6989C29.8613 21.0067 32.3508 23.3143 34.7986 22.8531Z" fill="white"/>
<path d="M34.166 23.7835C31.2047 23.7835 28.6163 20.8509 28.2578 17.0436C28.1262 16.0569 28.1977 15.0538 28.4677 14.0958C28.7377 13.1378 29.2006 12.245 29.8281 11.4723C30.2313 11.003 30.7275 10.6223 31.2853 10.3545C31.8433 10.0867 32.4506 9.93756 33.069 9.91641H33.1694C36.1307 9.91641 38.7191 12.8562 39.0848 16.6564C39.2171 17.6435 39.1453 18.6473 38.874 19.6056C38.6026 20.5639 38.1374 21.4563 37.5073 22.2276C37.1041 22.697 36.6078 23.0775 36.05 23.3454C35.4922 23.6132 34.8848 23.7624 34.2664 23.7835H34.166ZM33.1622 11.6946H33.1048C32.7292 11.711 32.3611 11.8055 32.024 11.9721C31.6869 12.1388 31.3884 12.374 31.1474 12.6626C30.6843 13.2529 30.3446 13.9304 30.1488 14.6547C29.9529 15.379 29.9048 16.1353 30.0073 16.8786C30.2726 19.6894 32.1584 22.0268 34.1732 22.0268H34.2306C34.6073 22.0106 34.9765 21.9162 35.3147 21.7495C35.6529 21.5829 35.9528 21.3477 36.1952 21.0589C36.6554 20.4669 36.9933 19.7892 37.189 19.0654C37.3848 18.3416 37.4345 17.5861 37.3352 16.8428C37.0628 14.0393 35.134 11.6946 33.1622 11.6946Z" fill="#5865F2"/>
<path d="M26.5469 18.3064C26.9128 14.9047 25.0934 11.9193 22.4829 11.6385C19.8726 11.3577 17.4597 13.8877 17.0938 17.2895C16.7279 20.6913 18.5473 23.6767 21.1577 23.9574C23.7681 24.2383 26.181 21.7082 26.5469 18.3064Z" fill="white"/>
<path d="M21.5464 24.8518C21.1443 24.8528 20.744 24.7997 20.3561 24.694C17.3805 23.8838 15.5808 20.1481 16.348 16.3623C16.5166 15.3747 16.8845 14.4319 17.4294 13.5912C17.9742 12.7504 18.6846 12.0295 19.5172 11.4722C20.0693 11.1179 20.6889 10.882 21.3369 10.7797C21.9849 10.6772 22.647 10.7104 23.2815 10.8771C26.2643 11.6873 28.064 15.423 27.2897 19.2017C27.12 20.1869 26.7516 21.1274 26.2068 21.9656C25.6619 22.8039 24.952 23.5224 24.1204 24.0774C23.3509 24.5695 22.4596 24.8376 21.5464 24.8518ZM22.0841 12.4976C21.5012 12.5051 20.9322 12.6765 20.4421 12.9923C19.819 13.4229 19.2885 13.974 18.8821 14.6133C18.4757 15.2524 18.2015 15.9666 18.076 16.7136C17.488 19.5817 18.7141 22.4498 20.8222 22.9947C21.2244 23.0993 21.6442 23.1182 22.0543 23.0503C22.4644 22.9824 22.8556 22.8291 23.2027 22.6003C23.8238 22.166 24.3528 21.6128 24.7589 20.9729C25.165 20.333 25.4403 19.6188 25.5688 18.8718C26.1568 16.0038 24.9235 13.1357 22.8226 12.5908C22.5816 12.5277 22.3333 12.4964 22.0841 12.4976Z" fill="#5865F2"/>
<path d="M34.228 18.8692C34.8575 18.8613 35.3586 18.1102 35.347 17.1915C35.3355 16.2729 34.8157 15.5346 34.1862 15.5425C33.5566 15.5504 33.0555 16.3015 33.0671 17.2202C33.0786 18.1388 33.5984 18.8771 34.228 18.8692Z" fill="black"/>
<path d="M24.0254 18.2029C24.1961 17.3001 23.833 16.4735 23.2143 16.3565C22.5956 16.2395 21.9557 16.8764 21.785 17.7792C21.6142 18.6818 21.9773 19.5085 22.5961 19.6255C23.2147 19.7425 23.8546 19.1056 24.0254 18.2029Z" fill="black"/>
<path d="M29.1501 14.7495L26.3893 14.9444L26.513 16.6967L29.2738 16.5018L29.1501 14.7495Z" fill="#5865F2"/>
<path d="M26.7734 23.8265H31.1902C31.3053 23.8271 31.4189 23.8525 31.5232 23.9013C31.6275 23.95 31.72 24.0207 31.7943 24.1087C31.8686 24.1966 31.923 24.2996 31.9536 24.4106C31.9842 24.5216 31.9904 24.6379 31.9717 24.7514C31.6347 26.7734 30.3871 30.9536 26.1352 25.0813C26.049 24.9636 25.9971 24.8243 25.9854 24.6789C25.9736 24.5335 26.0024 24.3877 26.0685 24.2576C26.1346 24.1276 26.2355 24.0185 26.3599 23.9424C26.4844 23.8663 26.6274 23.8261 26.7734 23.8265Z" fill="black"/>
<path d="M29.6344 26.1066C28.7096 25.8064 27.7271 25.7278 26.7663 25.8771C29.3189 29.0392 30.6669 28.2792 31.3695 26.8595C30.825 26.5367 30.242 26.2837 29.6344 26.1066Z" fill="#E53794"/>
</svg>
