<svg width="45" height="45" viewBox="0 0 45 45" fill="none" xmlns="http://www.w3.org/2000/svg">
<g clip-path="url(#clip0_85_852)">
<rect width="45" height="45" rx="22.5" fill="#FF6CBA"/>
<path d="M35.3586 41.8828L37.3521 47.3648C37.8227 48.6823 37.9345 50.1015 37.676 51.4764L35.5729 62.8794H26.5271C26.7017 62.072 26.9661 60.8855 27.2549 59.5602C28.3664 54.5265 29.7469 49.8216 26.9362 44.694L35.3586 41.8828Z" fill="#0822A5"/>
<path d="M29.2435 44.1007L28.8199 48.7607C28.7361 51.0321 28.1633 53.2592 27.1401 55.289L22.6548 62.8896H12.6028L18.2047 54.0684C19.3685 52.087 19.8906 49.7941 19.6998 47.5048L19.5701 45.9445L29.2435 44.1007Z" fill="#0822A5"/>
<path d="M34.8602 44.1007C34.8602 44.1007 30.3399 49.8318 18.5283 53.0714L16.6648 49.4036C16.6648 49.4036 34.4017 46.2686 34.8602 44.1007Z" fill="black"/>
<path d="M37.8504 43.1039C31.6122 47.4797 24.2648 50.0058 16.6546 50.3898L16.2258 48.4665L35.3038 40.9509L37.8504 43.1039Z" fill="#4247FF"/>
<path d="M27.3848 28.8255C27.3848 28.8255 28.3166 19.9694 26.7269 15.0504C25.3377 14.3654 23.7708 14.1285 22.2416 14.3727C22.2416 14.3727 22.7051 17.1735 22.2416 18.1055C22.2416 18.1055 19.899 12.7031 15.9118 10.7096C15.9118 10.7096 9.1838 12.0452 7.32029 18.1055C7.32029 18.1055 10.1162 19.0374 11.0479 21.8333C11.0479 21.8333 8.72031 19.9694 5.91965 19.9694C4.52441 20.9014 3.12378 23.6972 3.59205 27.445C5.20738 27.1491 6.87474 27.4826 8.25204 28.377C8.25204 28.377 5.45617 28.377 4.05555 29.3089C4.39344 31.1084 5.02318 32.8407 5.91965 34.4372C5.91965 34.4372 10.335 32.5732 14.8904 34.4372L27.3848 28.8255Z" fill="#40E991"/>
<path d="M18.987 48.8749C18.987 48.8749 30.4246 46.094 36.3553 41.9626C36.7348 41.7015 37.0414 41.3479 37.2461 40.9351C37.4507 40.5224 37.5465 40.0643 37.5246 39.6041C37.5026 39.144 37.3636 38.6971 37.1205 38.3056C36.8775 37.9143 36.5387 37.5914 36.136 37.3677C33.6441 36.037 30.6988 34.2677 27.8483 28.8256L12.9318 37.6866C12.9318 37.6866 12.9318 42.3464 18.987 48.8749Z" fill="#2F33E1"/>
<path d="M11.4366 46.5928C10.7423 45.5522 10.2896 44.3692 10.112 43.1306C9.93433 41.8923 10.0366 40.6298 10.4098 39.4359L10.4397 39.3313C11.0533 37.3611 12.2745 35.6357 13.9287 34.4024C17.4171 31.8258 20.3128 29.3339 28.9246 27.3255C29.4489 27.202 29.9222 26.9191 30.2791 26.5157C30.6361 26.1124 30.8594 25.6083 30.9181 25.0728C31.1297 22.4428 31.036 19.7971 30.639 17.1886C30.1755 12.9923 25.9793 10.6599 25.9793 10.6599C26.4428 7.39556 31.1075 6.46362 31.1075 6.46362C32.5079 7.86401 33.9383 11.1284 33.9383 11.1284C34.4018 10.1964 33.9383 8.3275 33.9383 8.3275L35.7673 8.79601C35.7673 8.79601 39.0316 25.1127 37.6362 29.309C36.0464 34.0734 30.1606 33.5053 30.1606 33.5053C30.1606 33.5053 14.3073 40.9809 14.4418 41.1055C19.3111 46.1341 20.7315 50.3055 21.1399 52.4536C21.2273 52.9165 21.1567 53.395 20.9396 53.8136C20.7231 54.2316 20.3727 54.5654 19.9439 54.7609C15.6828 56.7094 13.3755 54.0181 13.3755 54.0181C13.4449 53.9284 13.5101 53.8339 13.5699 53.7394C13.9395 53.1217 14.1237 52.4112 14.1009 51.6917C14.0776 50.9723 13.8486 50.275 13.4401 49.6823L11.4366 46.5928Z" fill="#2F33E1"/>
<path d="M30.639 17.1885C30.1755 12.9922 25.9793 10.6598 25.9793 10.6598C26.4428 7.39542 31.1075 6 31.1075 6C33.4399 7.86393 33.9382 11.1283 33.9382 11.1283C34.4017 10.1963 33.9382 8.32742 33.9382 8.32742L35.7673 8.79587C36.6135 10.6182 36.9691 12.6298 36.7989 14.6318C32.5079 14.3876 30.649 17.2533 30.649 17.2533L30.639 17.1885Z" fill="#40E991"/>
<path d="M20.5622 25.2971C21.0604 27.8238 21.0604 29.9569 21.6435 29.8373C22.2266 29.7177 23.2032 27.3902 22.69 24.8536C22.1769 22.3168 20.3774 20.5626 19.7895 20.6822C19.2016 20.8018 20.0539 22.7753 20.5622 25.2971V25.2971Z" fill="white"/>
<path d="M20.9055 21.5743C20.954 21.5512 21.0066 21.5377 21.0604 21.5344C21.7936 22.3871 22.3223 23.3963 22.6052 24.4847C22.5513 24.5915 22.464 24.6775 22.3558 24.729C21.8977 24.9432 21.195 24.405 20.7961 23.5378C20.3972 22.6707 20.4372 21.7836 20.9055 21.5743V21.5743Z" fill="black"/>
<path d="M16.5948 27.1559C18.2795 29.0995 19.3111 30.9684 19.7645 30.5748C20.2178 30.181 19.9187 27.6792 18.2346 25.7355C16.5499 23.7919 14.1081 23.139 13.6542 23.5327C13.2009 23.9264 14.9251 25.2122 16.5948 27.1559V27.1559Z" fill="white"/>
<path d="M16.0069 24.1658C16.0476 24.124 16.0948 24.0887 16.1463 24.0612C16.9369 24.4862 17.6438 25.05 18.2346 25.7257C18.5337 26.0682 18.7992 26.4387 19.027 26.8321C19.0276 26.8454 19.0276 26.8587 19.027 26.872C18.6329 27.3105 17.6414 27.0614 16.8143 26.3138C15.9866 25.5663 15.608 24.6144 16.0069 24.1658V24.1658Z" fill="black"/>
<path d="M16.6545 30.3256C16.6545 30.3256 13.8886 26.837 12.0095 28.5913C10.131 30.3455 14.1475 32.3241 16.6545 30.3256Z" fill="black"/>
<path d="M15.1996 31.0383C13.7044 31.4121 12.1196 30.8539 11.6609 30.0415C12.0598 29.8668 12.4916 29.7784 12.927 29.7824C14.0381 29.7624 14.9651 30.3057 15.1996 31.0383V31.0383Z" fill="#FF85C6"/>
<path d="M27.3848 28.8254L14.925 34.4222C13.8091 33.9686 12.4832 34.4222 11.6711 33.6447C12.9515 29.2939 15.7474 31.6512 17.6115 29.2939C21.7529 24.1208 25.0871 24.6341 27.6485 24.8534C28.0408 26.1661 27.947 27.5762 27.3848 28.8254V28.8254Z" fill="#2F33E1"/>
<path d="M10.6245 27.8836C10.3308 28.1988 10.1383 28.5946 10.0719 29.02C10.0055 29.4454 10.0677 29.881 10.2507 30.2708" stroke="#22C774" stroke-width="1.87" stroke-miterlimit="10" stroke-linecap="round"/>
<path d="M12.8869 34.1332C13.9377 33.1131 15.1481 32.2715 16.4704 31.6413C16.5816 31.6049 16.7018 31.6114 16.8089 31.6595C16.9153 31.7077 17.0002 31.794 17.0463 31.9014C17.0923 32.0088 17.0971 32.1297 17.0589 32.2402C17.02 32.3508 16.9416 32.4428 16.8388 32.4985C15.8795 32.9537 14.983 33.5317 14.1727 34.2179C13.7391 34.1731 13.3007 34.1731 12.8869 34.1332V34.1332Z" fill="black"/>
<path d="M27.7585 27.6544C27.2293 27.794 26.7251 28.0142 26.2634 28.3072C26.1869 28.3596 26.0966 28.3874 26.0039 28.387C25.9273 28.3867 25.8514 28.3675 25.7838 28.331C25.7156 28.2945 25.6582 28.2418 25.6151 28.1777C25.5811 28.1272 25.5571 28.0703 25.5452 28.0104C25.5326 27.9505 25.5326 27.8889 25.5446 27.8289C25.5571 27.7691 25.5811 27.7122 25.6151 27.6617C25.6498 27.6111 25.6935 27.568 25.7449 27.5347C26.4034 27.1245 27.1264 26.828 27.8829 26.6577C27.868 26.9927 27.8261 27.326 27.7585 27.6544V27.6544Z" fill="black"/>
<path d="M28.6704 45.7256C28.9678 45.4391 29.2412 45.1294 29.4877 44.7986C29.8782 44.2335 30.0947 43.5663 30.1107 42.8796C30.1218 42.5597 30.0675 42.2409 29.9512 41.9427C29.6472 41.2051 28.8847 40.7616 28.0773 40.2931C27.7585 40.1087 27.4344 39.9193 27.1306 39.705C25.7646 38.7511 24.8299 37.297 24.5291 35.6582C24.4603 35.2291 24.4154 34.7965 24.3945 34.3625C24.3646 33.9837 24.3395 33.6299 24.2845 33.276C24.2151 32.5962 23.8999 31.9651 23.3976 31.5018C23.2259 31.3786 23.0441 31.2702 22.8545 31.1779C22.4323 30.9963 22.0609 30.714 21.7727 30.3555C21.5269 29.9593 21.3798 29.5098 21.3445 29.0448C21.3445 28.9252 21.3146 28.8106 21.2895 28.696C21.137 27.9176 20.7237 27.2145 20.1185 26.7024C20.3774 26.4931 20.6167 26.3087 20.8906 26.1393C21.5693 26.7729 22.0298 27.6051 22.2063 28.5166C22.2063 28.6411 22.2511 28.7707 22.2714 28.9003C22.2894 29.2197 22.3779 29.5312 22.5304 29.8123C22.7415 30.0439 22.9999 30.2274 23.2881 30.3505C23.5232 30.4654 23.7486 30.6004 23.9609 30.7542C24.6678 31.3573 25.1128 32.2115 25.2019 33.1365C25.2665 33.5302 25.2964 33.9239 25.3215 34.3076C25.3436 34.7083 25.3867 35.1076 25.4507 35.5037C25.7054 36.8987 26.4984 38.1375 27.6587 38.9525C27.9327 39.1418 28.2318 39.3163 28.5457 39.4957C29.4478 40.0239 30.3847 40.5672 30.8134 41.5938C30.9782 42.0123 31.0563 42.46 31.0426 42.9095C31.0234 43.6969 30.7927 44.4649 30.3748 45.1323C29.7618 45.3913 29.1438 45.6305 28.5258 45.8799L28.6704 45.7256Z" fill="#4247FF"/>
<path d="M17.1282 43.7667C16.3263 42.5758 15.2055 41.6345 13.8934 41.0506" stroke="black" stroke-width="1.87" stroke-miterlimit="10" stroke-linecap="round"/>
<path d="M16.1863 42.3465C17.1228 40.4825 16.3956 38.0056 16.3956 38.0056" stroke="black" stroke-width="1.87" stroke-miterlimit="10" stroke-linecap="round"/>
<path d="M28.4211 7.2859C28.7169 7.08992 29.0059 6.91547 29.2883 6.76266C30.2061 7.52141 30.9663 8.45263 31.526 9.5037C31.574 9.61583 31.5793 9.74172 31.5407 9.85744C31.5021 9.97316 31.4224 10.0707 31.3167 10.1316C31.251 10.1623 31.1798 10.1792 31.1074 10.1815C31.0212 10.1782 30.9372 10.1526 30.8638 10.1072C30.7904 10.0618 30.7301 9.99804 30.6888 9.92233C30.1313 8.8907 29.3578 7.99141 28.4211 7.2859V7.2859Z" fill="#22C774"/>
<path d="M26.4626 9.2844C26.6169 9.01008 26.7969 8.75142 27.0008 8.5119C27.9304 8.97874 28.7338 9.66249 29.3433 10.5054C29.389 10.5761 29.4147 10.6579 29.4179 10.7421C29.421 10.8263 29.4014 10.9097 29.3611 10.9837C29.3208 11.0577 29.2613 11.1194 29.1889 11.1624C29.1165 11.2054 29.0338 11.2281 28.9496 11.2281C28.872 11.2277 28.7958 11.2079 28.7279 11.1705C28.6599 11.133 28.6025 11.0791 28.5608 11.0137C28.0177 10.2702 27.2963 9.67552 26.4626 9.2844V9.2844Z" fill="#22C774"/>
<path d="M31.0078 33.5052L29.383 31.412C29.383 31.412 31.1075 32.5583 34.8353 32.5583C33.6682 33.2135 32.3457 33.5407 31.0078 33.5052V33.5052Z" fill="black"/>
</g>
<defs>
<clipPath id="clip0_85_852">
<rect width="45" height="45" rx="22.5" fill="white"/>
</clipPath>
</defs>
</svg>
