<svg width="45" height="45" viewBox="0 0 45 45" fill="none" xmlns="http://www.w3.org/2000/svg">
<rect width="45" height="45" rx="22.5" fill="#EF6270"/>
<path d="M21.3379 40.4274C29.8088 40.4274 36.6757 33.5605 36.6757 25.0896C36.6757 16.6187 29.8088 9.7518 21.3379 9.7518C12.8669 9.7518 6.00006 16.6187 6.00006 25.0896C6.00006 33.5605 12.8669 40.4274 21.3379 40.4274Z" fill="#FFC619"/>
<path d="M17.8249 35.1331C16.5385 36.0732 14.6089 37.7059 13.7678 38.3986C11.4142 37.0657 9.45191 35.1376 8.07794 32.8077C12.7782 28.8001 15.0542 27.7611 17.627 27.2168L21.5851 26.5242C21.78 26.5083 21.974 26.5657 22.1294 26.6845C22.2842 26.8032 22.3901 26.9754 22.4262 27.1674C22.4623 27.3376 22.4376 27.5147 22.3564 27.6686C22.2748 27.8224 22.1422 27.9427 21.9809 28.0085L17.0827 29.8886C19.705 29.9875 21.2882 30.3833 22.2778 30.9771C23.2673 31.5708 23.1189 31.7687 22.0304 33.8467C20.9419 35.9248 20.3482 35.5784 17.8249 35.1331Z" fill="#FFE75C"/>
<path d="M13.0256 26.6236C13.0009 26.3915 12.8915 26.1773 12.7174 26.022C12.5437 25.8666 12.3186 25.781 12.0855 25.7825C11.8233 25.7825 11.5715 25.8869 11.3859 26.0724C11.2004 26.258 11.096 26.5098 11.096 26.772C11.096 27.1184 11.096 27.6626 11.0465 28.3058C10.9476 30.1859 10.156 31.0765 8.72113 32.264L13.0256 30.3838C13.1696 29.1345 13.1696 27.8729 13.0256 26.6236Z" fill="#FFE75C"/>
<path d="M21.3538 22.6657C21.7482 22.4203 21.7635 21.7321 21.388 21.129C21.0124 20.5258 20.3885 20.2359 19.9942 20.4813C19.5999 20.7267 19.5845 21.4149 19.9601 22.0181C20.3356 22.6212 20.9595 22.9111 21.3538 22.6657Z" fill="black"/>
<path d="M13.2641 23.0599C13.5892 22.8571 13.606 22.2975 13.3022 21.8096C12.9979 21.3218 12.4878 21.0907 12.1628 21.2936C11.8372 21.4965 11.8204 22.056 12.1247 22.5439C12.4285 23.0317 12.9386 23.2628 13.2641 23.0599Z" fill="black"/>
<path d="M10.8483 20.4388C12.011 20.6075 13.1881 20.6574 14.3612 20.5872" stroke="black" stroke-miterlimit="10" stroke-linecap="round"/>
<path d="M18.8145 17.5693C19.804 16.4808 20.843 16.4808 22.8716 18.3114" stroke="black" stroke-miterlimit="10" stroke-linecap="round"/>
<path d="M22.0303 8.96002C23.3661 7.62415 24.8505 5.69455 27.0274 6.04089C29.2044 6.38723 33.5089 7.47572 35.6364 8.61368C37.7639 9.75165 36.8733 10.9886 35.6364 12.4729C37.0217 14.5014 38.1102 15.0457 36.1312 16.9258L30.3424 15.7878L22.0303 8.96002Z" fill="#29CC7A"/>
<path d="M35.5374 19.3007C36.8732 18.1132 37.0711 17.9648 36.4774 17.2226C35.8837 16.4805 34.3994 15.392 31.4308 14.1551C30.1953 13.6558 29.1543 12.7707 28.4622 11.6318C26.6315 8.66315 24.3556 7.22832 22.5744 6.88198C22.3196 6.83053 22.0549 6.87209 21.8278 6.99924C21.6012 7.1264 21.4271 7.33024 21.3375 7.57466C21.3375 7.67361 21.288 7.77256 21.288 7.87152C21.246 8.04419 21.1599 8.20301 21.0387 8.33314C20.9174 8.46277 20.7651 8.55974 20.5954 8.61367C20.3109 8.69481 20.058 8.86205 19.872 9.09211C19.686 9.32218 19.5756 9.60469 19.5563 9.90007C22.0797 9.90007 24.8998 11.038 28.1653 15.8373C28.9728 17.0208 30.0825 17.9663 31.3788 18.5753C32.6751 19.1844 34.1114 19.4347 35.5374 19.3007Z" fill="#29CC7A"/>
<path d="M36.8237 16.1836C35.4008 14.9462 33.778 13.9591 32.0245 13.2645C30.8945 12.8211 29.9396 12.0226 29.3033 10.9885C28.2311 9.10395 26.632 7.57363 24.7019 6.58508L23.7619 7.22828C25.5925 7.97043 27.1758 9.40526 28.4622 11.4833C29.2078 12.6989 30.3151 13.6504 31.6287 14.2045C33.2782 14.8393 34.8026 15.7606 36.1311 16.9257L36.8237 16.1836Z" fill="black"/>
<path d="M37.6157 9.80116C38.4899 9.80116 39.199 9.09215 39.199 8.2179C39.199 7.34364 38.4899 6.63464 37.6157 6.63464C36.7414 6.63464 36.0324 7.34364 36.0324 8.2179C36.0324 9.09215 36.7414 9.80116 37.6157 9.80116Z" fill="#29CC7A"/>
<path d="M12.3824 24.6443C15.0541 24.7432 19.3586 25.0896 19.3586 25.0896" stroke="black" stroke-miterlimit="10" stroke-linecap="round"/>
<path d="M35.6859 11.4341H33.2616" stroke="#19B375" stroke-width="2" stroke-linecap="round" stroke-linejoin="round"/>
<path d="M22.6735 33.5995L17.4785 32.4615" stroke="#FFC619" stroke-width="2" stroke-miterlimit="10" stroke-linecap="round"/>
</svg>
