<svg width="45" height="45" viewBox="0 0 45 45" fill="none" xmlns="http://www.w3.org/2000/svg">
<g clip-path="url(#clip0_85_771)">
<rect width="45" height="45" rx="22.5" fill="#98D9B5"/>
<path d="M34.9901 37.3256C35.4926 37.7368 35.4013 37.9652 35.3099 39.1072C35.2368 39.866 35.2049 40.6289 35.2186 41.3913C35.2186 42.3506 35.2642 44.0866 34.2135 44.6804C33.8298 44.9006 33.405 45.0427 32.9664 45.0975C32.5279 45.1523 32.0802 45.1194 31.6554 45.0002C30.993 44.87 30.3443 44.6548 29.7367 44.3606C29.1886 44.0409 30.1936 37.8281 30.1936 37.8281L34.9901 37.3256Z" fill="#5F448F"/>
<path d="M31.6553 45.0002C32.0801 45.1194 32.5278 45.1523 32.9664 45.0975C33.4049 45.0427 33.8298 44.9006 34.2135 44.6804H33.9394C31.8837 45.2743 31.6096 42.8532 31.564 41.6654C31.5183 40.4777 31.4726 38.5134 31.4726 38.5134L30.1021 39.29C30.463 39.7861 30.6823 40.3694 30.7417 40.9802C30.9016 42.2081 30.9016 43.4521 30.7417 44.6804L31.6553 45.0002Z" fill="#553987"/>
<path d="M35.0817 37.9194C35.1731 38.2849 34.4422 38.7874 33.4829 39.0158C32.5236 39.2442 31.6556 39.1528 31.5643 38.7874C31.4729 38.4219 32.1581 36.5947 33.1174 36.3662C34.0767 36.1378 34.9904 37.554 35.0817 37.9194Z" fill="#B9D5FE"/>
<path d="M23.1128 50.8474C17.4939 50.9844 16.763 50.8931 16.3975 50.3906C16.0321 49.8881 16.3519 48.883 16.5346 47.9694C16.7173 47.0558 16.3519 46.9187 16.5803 45.868C16.5803 45.868 16.1691 40.9801 16.2148 39.3355C16.2605 37.691 15.895 35.9094 19.2755 35.4983C22.656 35.0871 26.9043 35.1785 28.7316 36.0008C30.5589 36.823 30.696 37.9651 30.9244 39.6096C31.1528 41.2542 30.7873 44.2235 30.6503 45.3199C31.0157 47.4212 31.1528 48.6546 30.6503 49.3399C30.1478 50.0251 27.7723 50.756 23.1128 50.8474Z" fill="#7D4EA5"/>
<path d="M30.9247 39.6097C30.6963 37.9651 30.5593 36.8231 28.732 36.0008C26.9047 35.1785 22.6106 35.1328 19.2759 35.4983C18.746 35.5723 18.2297 35.6943 17.7227 35.8638C15.2559 36.6403 14.662 38.5133 14.3422 39.7467C14.3331 39.8933 14.2829 40.0345 14.2052 40.1579C14.8447 40.2492 15.9868 39.7924 16.535 39.701C17.0831 39.6097 16.2152 40.6147 16.6263 41.3913C17.0374 42.1679 15.4843 46.0051 15.4843 46.0051V46.8731H16.3522C16.2928 47.065 16.2791 47.2673 16.3111 47.4651C16.3431 47.6629 16.4208 47.8511 16.535 48.0151C16.3522 48.746 16.1238 49.5683 16.2609 50.1165L30.3765 49.6597C30.4907 49.593 30.5821 49.4989 30.6507 49.3856C31.1532 48.7004 31.0161 47.467 30.6507 45.3656C30.7877 44.2235 31.1532 41.2085 30.9247 39.6097Z" fill="#5F448F"/>
<path d="M30.1479 48.5631C29.7368 46.6902 29.5541 45.0456 29.3257 44.7715C29.0973 44.4974 28.0466 44.3604 25.5341 44.269C23.0216 44.1777 23.0216 43.8122 22.4734 46.0506C21.9252 48.289 21.7425 49.8879 21.7425 49.8879L30.7875 50.0706L30.1479 48.5631Z" stroke="#553987" stroke-miterlimit="10"/>
<path d="M19.276 12.9315L17.6314 11.0128C17.3573 10.6474 16.6721 9.91647 16.3066 10.0078C15.9412 10.0992 15.8955 11.1499 15.8955 11.6067L15.7584 14.1192C15.5757 18.1744 15.7128 22.2373 16.1696 26.2706L26.4023 22.7987C24.269 19.342 21.8844 16.0442 19.276 12.9315Z" fill="#513B6B"/>
<path d="M19.276 12.9315L17.6314 11.0128C17.3573 10.6474 16.6721 9.91647 16.3066 10.0078L24.1639 23.5297L26.4023 22.7987C24.269 19.342 21.889 16.0442 19.276 12.9315Z" fill="#59569C"/>
<path d="M24.9859 20.5604C24.5291 19.8752 22.382 20.0122 20.0066 20.7888C17.6311 21.5654 15.8952 22.8445 15.9409 23.6667L16.1693 26.2706L26.402 22.7988L24.9859 20.5604Z" fill="#647EB3"/>
<path d="M23.6153 19.3687C24.1772 18.5588 23.5833 17.1819 22.2951 16.2938C21.0115 15.4053 19.5131 15.3418 18.9558 16.1518C18.3939 16.9617 18.9877 18.3386 20.276 19.2266C21.5596 20.1151 23.058 20.1786 23.6153 19.3687Z" fill="#CF822B"/>
<path d="M23.474 19.0619C24.0177 18.2725 23.4467 16.9363 22.2041 16.0766C20.957 15.2169 19.5043 15.1598 18.9607 15.9491C18.4171 16.7381 18.9835 18.0747 20.2306 18.9344C21.4778 19.7942 22.9304 19.8508 23.474 19.0619Z" fill="#F5B951"/>
<path d="M22.2358 18.3325C22.6378 17.751 22.2221 16.7689 21.3084 16.1385C20.3948 15.5081 19.3304 15.4683 18.9284 16.0498C18.5264 16.6314 18.9422 17.6135 19.8558 18.2439C20.7694 18.8743 21.8338 18.9141 22.2358 18.3325Z" fill="#ED9D34"/>
<path d="M22.1536 18.5573C22.5556 17.9758 22.1399 16.9932 21.2263 16.3628C20.3126 15.7328 19.2436 15.6931 18.8416 16.2746C18.4442 16.8561 18.8599 17.8383 19.7736 18.4687C20.6872 19.0991 21.7516 19.1389 22.1536 18.5573Z" fill="#ED9D34"/>
<path d="M23.6337 31.2052C32.4685 28.1815 38.9234 23.6791 38.06 21.1493C37.1921 18.6189 29.3302 19.0191 20.4999 22.0428C11.6696 25.0665 5.21022 29.5689 6.07817 32.0992C6.94156 34.629 14.8034 34.2289 23.6337 31.2052Z" fill="#35244A"/>
<path d="M26.6305 25.9508C26.4021 26.3619 24.6205 27.2299 22.6105 27.9151C20.6005 28.6004 18.6818 29.0115 18.1793 28.8288C17.6768 28.646 19.367 27.5497 22.1536 26.636C24.9402 25.7224 26.9503 25.4026 26.6305 25.9508Z" fill="#1A0D2B"/>
<path d="M26.8592 37.3254L20.0526 35.2241C19.276 33.0314 18.8192 31.1127 18.0883 28.6916L26.6765 25.8136C27.6358 29.8793 27.4531 33.5795 26.8592 37.3254Z" fill="#1A0D2B"/>
<path d="M25.2603 37.7824C22.1539 34.8588 20.3723 34.0822 18.9561 33.7167C18.8237 33.6852 18.6821 33.6898 18.5496 33.7309C18.4171 33.772 18.2984 33.8478 18.2024 33.9502C18.1111 34.053 18.0471 34.1786 18.0197 34.3143C17.9877 34.4499 17.9968 34.5906 18.0425 34.7217C17.8735 34.7263 17.7091 34.7738 17.5629 34.8597C17.4167 34.946 17.2933 35.0676 17.2065 35.2133C17.1197 35.3595 17.0695 35.5248 17.065 35.6947C17.0604 35.8642 17.0969 36.0323 17.1746 36.1835C17.403 36.9145 25.2603 37.7824 25.2603 37.7824Z" fill="#5F448F"/>
<path d="M31.5319 38.9198C34.7524 36.2835 36.5706 33.1804 35.5976 31.9894C34.6245 30.7985 31.2212 31.9707 28.0007 34.6074C24.7801 37.2437 22.9574 40.3469 23.9304 41.5378C24.908 42.7288 28.3067 41.5566 31.5319 38.9198Z" fill="#AD6937"/>
<path d="M23.8895 41.3455L22.6561 39.8842L34.3507 30.3362L35.5384 31.7985L31.4727 38.7421L23.8895 41.3455Z" fill="#AD6937"/>
<path d="M30.4999 37.6568C33.7205 35.02 35.461 31.8223 34.392 30.5144C33.3231 29.2061 29.8421 30.2832 26.6215 32.92C23.401 35.5563 21.6559 38.7545 22.7249 40.0624C23.7984 41.3707 27.2748 40.2935 30.4999 37.6568Z" fill="#DEA666"/>
<path d="M34.3504 30.3363C34.0397 30.0061 33.6149 29.8092 33.1626 29.7881C32.3404 32.5291 29.234 37.1429 26.8585 39.7468C28.1467 39.1575 29.3482 38.3887 30.4217 37.4627C33.6651 34.8588 35.401 31.6611 34.3504 30.3363Z" fill="#E8C56B"/>
<path d="M31.564 38.8788C30.9702 39.3813 30.2849 39.5641 30.1022 39.3356C29.9194 39.1072 30.0108 39.1072 30.0565 38.9245L31.0158 38.1936L31.9294 37.417C32.1122 37.3713 32.2492 37.417 32.2949 37.5084C32.3406 37.5997 32.1579 38.3763 31.564 38.8788Z" fill="#E6C68C"/>
<path d="M28.4125 40.0209C28.2891 40.4782 28.015 40.8807 27.6358 41.163C26.9963 41.6655 26.3568 41.8482 26.174 41.6198C25.9913 41.3914 26.0827 41.2543 26.2197 40.9802C26.9826 40.7409 27.7181 40.4193 28.4125 40.0209Z" fill="#E6C68C"/>
<path d="M36.0409 32.1634C35.8125 32.3384 35.5659 32.4914 35.31 32.6202C35.4151 32.2064 35.3648 31.7683 35.173 31.3868L35.31 31.2498C35.9039 30.7473 36.5434 30.5646 36.7718 30.793C37.0002 31.0214 36.6348 31.6609 36.0409 32.1634Z" fill="#E6C68C"/>
<path d="M17.7226 35.8637C15.2558 36.6403 14.6619 38.5133 14.3421 39.7467C14.0132 40.6731 13.5838 41.5612 13.0631 42.3962C12.8027 42.8713 12.693 43.4149 12.7478 43.954C12.8072 44.493 13.0265 45.0019 13.3828 45.4112C14.1594 46.2792 14.7533 47.6039 17.7226 46.3705C20.6919 45.1371 20.3722 44.6803 22.6563 42.9901C22.0624 41.2999 20.966 40.2949 20.3264 40.0208L19.6412 40.569C18.924 40.6809 18.2388 40.9458 17.6313 41.3455C18.0424 40.4776 18.2251 38.1935 17.7226 35.8637Z" fill="#8352AD"/>
<path d="M13.3825 45.4112C14.1591 46.2792 14.7529 47.604 17.7223 46.3706C20.6916 45.1371 20.3718 44.6803 22.6559 42.9901C22.3179 41.9961 21.7194 41.1121 20.92 40.4319H20.8743C20.3261 40.9344 18.5445 41.9851 17.9507 41.9851C16.7538 42.0861 15.598 42.4611 14.5702 43.0815C13.7479 43.6753 12.7886 43.9494 12.7429 43.3556C12.6881 44.0974 12.9165 44.8325 13.3825 45.4112Z" fill="#5F448F"/>
<path d="M35.6298 34.6302C35.7211 34.7796 35.776 34.9477 35.7943 35.1218C35.808 35.2963 35.7851 35.4717 35.7212 35.6352L35.2644 36.4118C35.2141 36.495 35.1821 36.5886 35.173 36.6859C35.1273 36.9143 35.1273 37.5539 35.0816 38.0107L32.7519 38.4218L33.4828 36.8686C33.4828 36.8686 32.8432 36.0007 32.6148 35.5896C32.5554 35.4913 32.528 35.3771 32.5326 35.2625C32.5417 35.1473 32.5874 35.0382 32.6605 34.95L33.4371 33.7623C33.4828 33.7107 33.5422 33.6773 33.6107 33.6686C33.6792 33.6604 33.7477 33.6773 33.8025 33.7166L34.7161 34.5845L33.9852 33.1227C33.9533 33.0405 33.9442 32.9533 33.9533 32.8665C33.9579 32.7797 33.9852 32.6956 34.0309 32.6202C34.1223 32.5289 34.3051 32.4375 34.5335 32.7116C34.9583 33.316 35.3237 33.9583 35.6298 34.6302Z" fill="white"/>
<path d="M26.4019 30.2449C26.4932 31.1585 26.3562 31.9351 26.0821 31.9808C25.808 32.0264 25.5339 31.2499 25.4426 30.3362C25.3512 29.4226 25.3055 28.646 25.7167 28.646C26.1278 28.646 26.2648 29.3312 26.4019 30.2449Z" fill="#A6783C"/>
<path d="M17.7682 35.9093H17.7226C15.2558 36.6859 14.6619 38.5589 14.3421 39.7923C14.0223 41.0257 15.1187 40.4318 15.6669 40.5232C16.2151 40.6146 16.946 41.0714 16.2608 41.0257C15.5755 40.98 15.1187 40.98 14.8446 41.3912C14.5705 41.8023 14.2508 42.122 14.936 41.8023C15.7994 41.4976 16.713 41.3578 17.6312 41.3912C18.0424 40.4775 18.2251 38.1934 17.7682 35.9093Z" fill="#5F448F"/>
<path d="M17.4941 36.3205C18.225 37.5996 19.9152 37.2342 21.0573 37.5539C21.5324 37.7166 22.0212 37.8239 22.5191 37.8737L22.382 37.5539C21.61 37.2579 20.8152 37.0286 20.0066 36.8687C18.6361 36.5489 16.9459 35.3612 17.4941 36.3205Z" fill="#553987"/>
<path d="M32.6148 35.5896C32.8432 36.0008 33.4828 36.8687 33.4828 36.8687L32.7519 38.4219L35.0816 38.0107C35.1273 37.5539 35.1273 36.9144 35.173 36.686C35.1821 36.5887 35.2141 36.495 35.2644 36.4119L35.7212 35.6353C35.7851 35.4717 35.808 35.2963 35.7943 35.1223C35.776 34.9478 35.7211 34.7797 35.6298 34.6303C35.8125 35.1328 35.6755 35.3155 35.3557 35.2698C35.0359 35.2242 34.9902 35.1785 34.9446 35.7267C34.8989 36.2748 34.9446 36.4119 34.4877 36.4119C34.0309 36.4119 33.9853 36.7317 33.7112 36.4119C33.4371 36.0921 32.5234 35.2242 32.6605 34.9501C32.5874 35.0382 32.5417 35.1474 32.5326 35.2625C32.528 35.3772 32.5554 35.4919 32.6148 35.5896Z" fill="#B9D5FE"/>
<path d="M34.6708 40.706C34.2003 41.1948 33.6932 41.653 33.1633 42.0764C32.8892 42.2592 33.0719 42.4876 33.5744 42.6246C34.0769 42.7617 34.2597 42.4419 34.4881 41.711C34.7165 40.9801 34.9449 40.3862 34.6708 40.706Z" fill="#553987"/>
<path d="M18.5906 44.4519C17.9602 45.0764 17.2704 45.6424 16.5349 46.1421C16.0781 46.3705 16.5806 46.5076 17.3115 46.3249C17.6038 46.2499 17.8779 46.1074 18.1063 45.9096C18.3393 45.7114 18.5175 45.4624 18.6363 45.1828C18.956 44.589 19.2758 43.8124 18.5906 44.4519Z" fill="#553987"/>
<path d="M17.6311 41.3455C17.6311 40.2414 17.4483 39.1446 17.0829 38.1021C16.8088 37.4169 17.357 37.691 17.6768 38.0108C17.9965 38.3305 18.1336 39.3356 18.0879 40.0208C18.0422 40.706 18.0422 41.1171 18.0422 41.1171L17.6311 41.3455Z" fill="#553987"/>
<path d="M20.3266 40.1122L20.9205 39.5641C20.9662 39.5453 21.0027 39.5129 21.0255 39.4718C21.0484 39.4311 21.0621 39.3832 21.0576 39.3357C21.286 38.5134 21.1946 38.5591 21.423 38.1936C22.3823 36.6404 22.4737 36.549 22.7021 36.549C22.9807 36.5504 23.2594 36.5966 23.5243 36.6861C23.5929 36.7222 23.6477 36.7729 23.6933 36.8341C23.739 36.8958 23.7665 36.9666 23.7802 37.041C23.7939 37.116 23.7893 37.1927 23.771 37.2658C23.7482 37.3389 23.7116 37.406 23.6614 37.4627L23.0675 38.6047L23.7527 38.0109C24.0725 37.6911 24.2552 37.3713 24.438 37.417C24.6207 37.4627 24.8948 37.9195 24.5294 38.3306C24.1639 38.7418 23.4787 39.6554 23.4787 39.6554C23.4787 39.6554 23.9812 40.6604 23.8898 41.1172C23.7984 41.574 23.57 42.0309 22.5193 42.8075C21.9209 42.6394 21.3865 42.2899 20.9936 41.8075C20.6053 41.3251 20.3677 40.7331 20.3266 40.1122Z" fill="white"/>
<path d="M23.9349 38.3764C23.6974 38.6436 23.4416 38.8885 23.1584 39.1073C23.0213 39.1986 22.7929 39.29 22.7472 39.0159C22.7015 38.7418 22.5645 38.7418 22.3817 38.8332C22.199 38.9245 22.1077 39.0159 22.062 38.7418C22.0163 38.4677 21.8792 38.3307 21.6508 38.4221C21.4224 38.5134 21.2397 38.6048 21.3311 38.3764C21.4224 38.1479 21.2397 38.6961 21.057 39.3357V39.4271L21.3311 39.7468C21.5595 40.0666 21.6509 40.2036 21.5138 40.3864L20.6915 41.2543C20.8834 41.6244 21.1483 41.9523 21.4727 42.2187C21.7924 42.4854 22.167 42.6855 22.5645 42.8075C23.6152 42.0309 23.7979 41.6198 23.9349 41.1173C24.072 40.6148 23.5238 39.6555 23.5238 39.6555C23.5238 39.6555 24.209 38.7418 24.5745 38.3307C24.9399 37.9195 24.8486 37.7368 24.7116 37.5541C24.5745 37.3714 24.1177 38.1936 23.9349 38.3764Z" fill="#B9D5FE"/>
<path d="M23.7523 30.8845C24.0264 31.7981 24.0264 32.666 23.7523 32.7574C23.4782 32.8488 22.9757 32.1179 22.7017 31.2042C22.4276 30.2906 22.2905 29.4683 22.7473 29.2856C23.2041 29.1029 23.4782 29.9251 23.7523 30.8845Z" fill="#A6783C"/>
<path d="M19.1387 14.713H19.093L18.5905 15.444L19.093 16.1749H19.1387L19.5955 15.444L19.1387 14.713Z" fill="white"/>
</g>
<defs>
<clipPath id="clip0_85_771">
<rect width="45" height="45" rx="22.5" fill="white"/>
</clipPath>
</defs>
</svg>
