<svg width="45" height="45" viewBox="0 0 45 45" fill="none" xmlns="http://www.w3.org/2000/svg">
<g clip-path="url(#clip0_85_753)">
<rect width="45" height="45" rx="22.5" fill="#FCE97D"/>
<path d="M47.7056 27.869C47.1904 22.4887 42.2814 17.5989 35.3144 15.0586C35.4086 14.3673 35.422 13.6676 35.3542 12.9729C34.9246 8.49595 31.6758 5.14683 27.6473 5.53214C24.8283 5.80495 22.376 7.83783 21.3028 10.5626C19.7287 8.09376 16.9369 6.56995 14.1179 6.84052C10.0894 7.21964 7.54072 11.1329 7.95989 15.6014C8.02615 16.2967 8.17319 16.9818 8.39796 17.6428C2.04087 21.4599 -1.84718 27.1963 -1.32946 32.5766C-0.514115 41.0782 11.1227 46.9153 24.6606 45.6159C38.1984 44.3165 48.5229 36.3706 47.7056 27.869Z" fill="url(#paint0_linear_85_753)"/>
<path d="M18.2462 22.0365C21.0105 21.7704 23.0171 19.1171 22.728 16.11C22.4389 13.1023 19.9638 10.8798 17.1995 11.1453C14.4352 11.4114 12.4286 14.0647 12.7176 17.0718C13.0067 20.0795 15.4819 22.302 18.2462 22.0365Z" fill="white"/>
<path d="M26.4937 21.2428C29.258 20.9773 31.2645 18.3234 30.9754 15.3163C30.6864 12.3086 28.2112 10.0862 25.4469 10.3517C22.6826 10.6177 20.6761 13.271 20.9651 16.2782C21.2541 19.2858 23.7294 21.5083 26.4937 21.2428Z" fill="white"/>
<path d="M18.1379 20.3737C19.2786 20.264 20.0653 18.7385 19.895 16.9666C19.7246 15.1942 18.6618 13.8465 17.5211 13.9561C16.3804 14.0658 15.5936 15.5913 15.764 17.3632C15.9343 19.1356 16.9971 20.4834 18.1379 20.3737Z" fill="black"/>
<path d="M15.7405 18.4623C16.3448 18.4623 16.8347 17.9724 16.8347 17.3683C16.8347 16.7641 16.3448 16.2742 15.7405 16.2742C15.1363 16.2742 14.6465 16.7641 14.6465 17.3683C14.6465 17.9724 15.1363 18.4623 15.7405 18.4623Z" fill="black"/>
<path d="M19.9132 18.0624C20.5174 18.0624 21.0073 17.5725 21.0073 16.9683C21.0073 16.3637 20.5174 15.8737 19.9132 15.8737C19.3089 15.8737 18.8191 16.3637 18.8191 16.9683C18.8191 17.5725 19.3089 18.0624 19.9132 18.0624Z" fill="black"/>
<path d="M26.2842 19.5896C27.425 19.4799 28.2117 17.9544 28.0413 16.1825C27.871 14.4101 26.8082 13.0623 25.6675 13.172C24.5267 13.2817 23.7401 14.8072 23.9104 16.5796C24.0807 18.3515 25.1436 19.6993 26.2842 19.5896Z" fill="black"/>
<path d="M23.8853 17.6805C24.4896 17.6805 24.9794 17.1911 24.9794 16.5864C24.9794 15.9823 24.4896 15.4923 23.8853 15.4923C23.281 15.4923 22.7912 15.9823 22.7912 16.5864C22.7912 17.1911 23.281 17.6805 23.8853 17.6805Z" fill="black"/>
<path d="M28.0601 17.2805C28.6643 17.2805 29.1542 16.7906 29.1542 16.1865C29.1542 15.5818 28.6643 15.0918 28.0601 15.0918C27.4558 15.0918 26.966 15.5818 26.966 16.1865C26.966 16.7906 27.4558 17.2805 28.0601 17.2805Z" fill="black"/>
<path d="M5.27969 29.9379C6.55184 29.9379 7.58313 28.9068 7.58313 27.6345C7.58313 26.3621 6.55184 25.331 5.27969 25.331C4.00748 25.331 2.9762 26.3621 2.9762 27.6345C2.9762 28.9068 4.00748 29.9379 5.27969 29.9379Z" fill="#FF78B9"/>
<path d="M40.2843 26.5781C41.5565 26.5781 42.5878 25.547 42.5878 24.2746C42.5878 23.0023 41.5565 21.9712 40.2843 21.9712C39.0121 21.9712 37.9808 23.0023 37.9808 24.2746C37.9808 25.547 39.0121 26.5781 40.2843 26.5781Z" fill="#FF78B9"/>
<path d="M23.4703 33.0631C23.0138 33.107 22.553 33.0603 22.1145 32.9259C21.6759 32.792 21.2681 32.5726 20.9144 32.2801C20.5607 31.9882 20.2681 31.6293 20.0531 31.2243C19.8382 30.8193 19.7053 30.3755 19.662 29.9188L19.1673 24.7713L22.787 25.9514L26.1175 24.1025L26.6143 29.2544C26.6582 29.7112 26.6117 30.1719 26.4774 30.6106C26.3432 31.0488 26.1237 31.4566 25.8317 31.8104C25.5397 32.1643 25.1809 32.4568 24.7757 32.6716C24.3705 32.8865 23.9269 33.0198 23.4703 33.0631Z" fill="#FF78B9"/>
<path d="M27.3079 23.2998C25.7904 23.738 23.6022 24.8782 22.8518 26.6934C21.7703 25.0543 19.404 24.3523 17.8215 24.21" stroke="black" stroke-width="1.75" stroke-linecap="round" stroke-linejoin="round"/>
</g>
<defs>
<linearGradient id="paint0_linear_85_753" x1="24.539" y1="45.6283" x2="21.0806" y2="6.10645" gradientUnits="userSpaceOnUse">
<stop stop-color="white"/>
<stop offset="0.02" stop-color="#F0FCFA"/>
<stop offset="0.06" stop-color="#CDF4EF"/>
<stop offset="0.12" stop-color="#B0EDE5"/>
<stop offset="0.17" stop-color="#97E8DD"/>
<stop offset="0.24" stop-color="#85E4D7"/>
<stop offset="0.31" stop-color="#78E1D2"/>
<stop offset="0.41" stop-color="#70DFD0"/>
<stop offset="0.61" stop-color="#6EDFCF"/>
<stop offset="0.73" stop-color="#6DDCCC"/>
<stop offset="0.82" stop-color="#68D3C4"/>
<stop offset="0.89" stop-color="#60C3B5"/>
<stop offset="0.96" stop-color="#55ADA1"/>
<stop offset="1" stop-color="#4D9C91"/>
</linearGradient>
<clipPath id="clip0_85_753">
<rect width="45" height="45" rx="22.5" fill="white"/>
</clipPath>
</defs>
</svg>
