<svg width="45" height="45" viewBox="0 0 45 45" fill="none" xmlns="http://www.w3.org/2000/svg">
<g clip-path="url(#clip0_85_672)">
<rect width="45" height="45" rx="22.5" fill="#FF78B9"/>
<path d="M46.7553 30.9921C46.3451 27.9968 45.1317 26.5468 43.9839 27.1512C42.8365 27.7556 41.8799 30.3322 41.7302 33.459C41.5458 37.4685 42.7364 41.0842 44.5103 40.3411L45.4016 39.5628C46.0739 38.6414 46.5404 37.1006 46.7873 35.4162C46.7025 34.6778 46.7427 33.9306 46.9065 33.2055C46.9221 32.4647 46.8715 31.7238 46.7553 30.9921V30.9921ZM29.9789 32.6718C30.392 29.4814 31.6934 26.9665 33.0268 26.51C34.3606 26.0534 35.7341 27.7218 35.9704 30.9737C36.2799 35.1634 34.7518 39.8332 32.5609 40.185C30.3704 40.5363 29.4908 36.6824 29.9789 32.6718Z" fill="black"/>
<path d="M44.5553 39.2542L43.8766 40.4135L44.3255 40.4973C44.8213 40.1025 45.2797 39.6783 45.7382 39.2542L44.5553 39.2542Z" fill="black"/>
<path d="M46.7804 35.6536C46.6681 34.6601 46.7539 33.6541 47.033 32.694C47.312 31.7339 47.7787 30.8386 48.4061 30.06C47.8954 27.9548 47.0059 26.9751 46.1507 27.4781C45.2956 27.9816 44.3833 30.3504 44.2553 33.3732C44.1272 36.396 44.5602 38.4085 45.3095 39.6414C46.0181 39.0109 46.6861 38.3362 47.3094 37.6212C47.0331 36.9964 46.8547 36.3327 46.7804 35.6536V35.6536Z" fill="#0C1AAD"/>
<path d="M31.9489 40.1533C33.4954 40.6672 35.1513 40.7581 36.7448 40.4166L35.48 37.9247L34.1523 37.8397L31.9489 40.1533Z" fill="black"/>
<path d="M34.2556 32.8258C34.6129 29.7428 35.7295 27.3841 36.8628 26.9504C37.9966 26.5167 39.1841 28.0377 39.4902 31.0109C39.9437 34.9811 38.7719 39.8133 36.8116 40.409C34.8516 41.0046 33.8489 36.9617 34.2556 32.8258V32.8258Z" fill="#0C1AAD"/>
<path d="M36.0417 33.6695C36.2128 31.3177 36.696 29.3357 37.2215 28.9039C37.7466 28.4721 38.1803 29.6055 38.1983 31.8345C38.2162 34.0631 37.7154 37.6693 36.972 38.2611C36.2285 38.8534 35.8615 36.5291 36.0417 33.6695V33.6695Z" fill="#5865F2"/>
<path d="M8.36587 32.8425C8.5827 29.708 10.0498 26.87 11.7056 26.2751C13.3615 25.6806 14.9289 27.5631 15.0315 30.8302C15.1344 34.0973 13.4257 38.0782 11.3838 38.5477C9.34191 39.0176 8.11327 36.2513 8.36587 32.8425Z" fill="black"/>
<path d="M15.6878 39.2393C13.8662 39.6433 11.9597 39.3682 10.3266 38.4658L11.9576 35.8797L14.7956 36.164L15.6878 39.2393V39.2393Z" fill="black"/>
<path d="M12.6798 33.0257C12.8448 30.0322 14.0795 27.525 15.4762 27.0277C16.8724 26.53 18.3721 28.1164 18.7151 31.1194C19.1343 34.7893 17.8261 38.7244 15.788 39.2279C13.75 39.7309 12.4794 36.5977 12.6798 33.0257V33.0257Z" fill="#0C1AAD"/>
<path d="M46.7804 35.6536C46.8211 36.0699 46.9133 36.4795 47.0548 36.8731C32.2343 37.6194 16.2495 36.167 5.33471 33.5265C2.86636 32.9298 1.93041 32.4283 2.05654 29.9801C2.18221 27.532 2.30079 26.2005 4.53315 26.2157L13.5115 20.1875C17.1359 7.23348 19.4571 3.58839 25.3297 2.91757C31.7358 2.1858 38.728 2.73906 42.5725 5.91697C45.6658 8.43624 46.8654 12.7269 47.5889 18.7626C47.9654 21.7613 48.7021 22.5898 49.8881 24.6854C50.4582 25.6987 50.8788 26.7891 51.1366 27.9228C49.6913 28.5916 48.493 29.698 47.7112 31.0854C46.9294 32.4728 46.6038 34.0709 46.7804 35.6536V35.6536Z" fill="#2AE5C4"/>
<path d="M44.2542 34.2525L42.3259 34.2361L42.3068 34.0691C42.3639 32.2037 42.3121 26.1253 38.7877 25.7504C37.2433 25.6239 35.6929 25.5866 34.1441 25.6388C34.0637 25.6367 33.9857 25.6106 33.9202 25.5639C33.8547 25.5172 33.8046 25.4519 33.7764 25.3766C33.4774 23.9459 33.5053 22.1178 33.8594 19.8912C33.8815 19.7876 33.9737 19.7095 34.0446 19.7349C34.0871 19.745 34.1252 19.7684 34.1534 19.8018C34.1815 19.8351 34.1982 19.8766 34.2009 19.9202C33.8442 22.124 33.8126 23.9189 34.106 25.3049C35.677 25.2493 37.2496 25.2841 38.8163 25.4093C42.5445 25.7945 42.7226 31.791 42.6586 33.8938L43.9119 33.9198C44.0095 30.6298 44.0955 26.0567 44.0102 22.3487C44.0237 22.3082 44.0481 22.2722 44.0807 22.2446C44.1133 22.217 44.1528 22.1988 44.1949 22.1921C44.2616 22.1845 44.3398 22.2771 44.3474 22.3438C44.4408 26.1188 44.3326 30.7955 44.2351 34.0855L44.2542 34.2525V34.2525Z" fill="#0EC2BC"/>
<path d="M31.0512 21.9361L31.9538 36.9419C22.3774 36.5483 13.184 35.3678 6.02869 33.6839L5.82057 33.6401C3.6198 33.0124 4.04961 30.5635 4.53316 26.2157C5.01672 21.8679 8.38402 19.3877 13.773 19.5157C19.6089 19.6238 25.4103 20.4365 31.0512 21.9361V21.9361Z" fill="#2AE5C4"/>
<path d="M22.2462 25.3417L22.1795 25.3493L10.1226 23.9546C10.0187 23.9303 9.92738 23.8686 9.86609 23.7813C9.82186 23.6877 9.8098 23.5821 9.83179 23.481C10.9053 20.4517 13.8633 20.0123 15.0759 19.9753C15.124 19.9776 15.1697 19.9971 15.2046 20.0304C15.2395 20.0636 15.2612 20.1083 15.2657 20.1563C15.2772 20.2566 15.1845 20.3347 15.114 20.3087C13.9387 20.3754 11.177 20.7585 10.1512 23.6136L22.208 25.0079C22.2416 25.004 22.2751 25.0002 22.2714 24.9671C22.703 23.126 24.0635 21.7202 25.7205 21.4293C25.7648 21.4243 25.8093 21.437 25.8441 21.4648C25.879 21.4925 25.9015 21.5329 25.9065 21.5772C25.9116 21.6215 25.8988 21.6659 25.8711 21.7008C25.8434 21.7357 25.8029 21.7581 25.7587 21.7632C24.235 22.0388 22.9965 23.3292 22.5831 25.0326C22.5695 25.1144 22.529 25.1892 22.4679 25.2453C22.4069 25.3013 22.3288 25.3353 22.2462 25.3417V25.3417Z" fill="#0EC2BC"/>
<path d="M34.6709 34.0963C34.6946 35.7838 34.7022 37.0333 31.6832 36.9389C21.9026 36.535 12.5308 35.2734 5.33473 33.5265C2.86637 32.9298 1.93043 32.4283 2.05656 29.9801C2.18223 27.5321 2.30081 26.2005 4.53317 26.2157L4.39219 27.3472C11.639 28.6489 23.3327 30.1186 32.3024 30.8178C34.3793 30.9523 34.6408 31.4633 34.6709 34.0963Z" fill="white"/>
<path d="M11.1279 26.5442C9.55212 26.6566 8.99841 27.4294 9.14324 28.6973C9.28807 29.9652 11.0564 32.1294 14.384 32.5603C17.7121 32.9913 20.1571 32.2051 20.9201 30.5969C21.6826 28.9887 21.4055 28.0401 19.5237 27.5455C16.6655 26.7903 13.7418 26.3467 11.1279 26.5442Z" fill="#9E0960"/>
<path d="M34.6039 5.10305C30.4553 4.29251 26.1685 4.34287 23.2626 4.94502C22.1969 5.18486 21.2573 5.80982 20.624 6.69996C18.5044 9.7476 16.7778 13.8657 15.0949 20.1418C19.9767 20.5644 27.2628 21.3207 30.1339 21.6012C31.5492 15.0514 33.1185 10.4444 35.3208 6.64381C35.9149 5.62929 35.4019 5.28211 34.6039 5.10305Z" fill="#1E5EE8"/>
<path d="M28.5345 20.0266C28.5345 20.0266 19.4116 20.0545 15.1426 19.9677C15.1502 20.0343 15.1209 20.0712 15.0949 20.1418L27.8081 21.3599L28.5345 20.0266V20.0266Z" fill="black"/>
<path d="M29.9689 22.2284C30.3751 20.4583 30.7299 18.8291 31.1335 17.3295C29.6956 17.7644 29.1019 18.7784 28.1732 20.7098L27.6686 21.9168L29.9689 22.2284V22.2284ZM29.1635 6.29892C25.8103 12.1579 23.9748 23.0147 23.9748 23.0147L25.9378 23.3314C28.2756 11.8423 31.3647 5.74371 31.3647 5.74371L29.1635 6.29892Z" fill="black"/>
<path d="M34.6039 5.10306C30.4553 4.29252 26.1685 4.34288 23.2626 4.94503C22.519 5.1269 21.8297 5.4839 21.252 5.98625C26.6422 5.23498 31.3368 6.38891 34.7899 7.6171L35.3207 6.64382C35.9148 5.62929 35.4019 5.28212 34.6039 5.10306Z" fill="black"/>
<path d="M42.3188 22.3389C42.1786 23.7744 41.1844 23.6518 40.0644 23.6106L35.0092 23.4445C33.5477 23.3748 33.4132 23.0859 33.7653 20.5444C34.221 16.8417 36.2975 10.7569 37.6999 8.53515C39.1022 6.31299 39.8697 6.22531 40.4418 6.49819C41.0138 6.77062 41.8736 8.97104 42.2524 14.0655C42.4982 16.8166 42.5205 19.5838 42.3188 22.3389V22.3389ZM43.1155 10.0796C43.7493 14.1828 44.0535 18.3305 44.0254 22.4821C44.0026 23.465 44.1035 23.7576 44.5448 23.7748L46.4769 23.8243C46.885 23.8452 46.9244 23.3003 46.7033 21.3651C46.0333 15.7971 45.574 12.3676 43.9105 9.3468C43.5751 8.77667 43.1357 8.18443 42.9688 8.2035C42.8019 8.22256 42.9833 9.21605 43.1155 10.0796V10.0796Z" fill="#1E5EE8"/>
<path d="M31.126 6.61564C31.2168 7.11216 30.6841 7.47768 29.9382 7.46132L27.1159 7.31039C26.37 7.29403 25.6792 6.86607 25.5922 6.40267C25.5058 5.93967 26.0347 5.54103 26.7801 5.55744L29.6029 5.70833C30.3482 5.72429 31.0396 6.15264 31.126 6.61564V6.61564Z" fill="white"/>
<path d="M27.8827 13.138C28.1763 13.1045 28.4603 13.0134 28.7187 12.8701C28.9771 12.7268 29.2047 12.534 29.3886 12.3027C29.5725 12.0714 29.709 11.8061 29.7904 11.5221C29.8717 11.238 29.8963 10.9407 29.8628 10.6472C29.8293 10.3536 29.7382 10.0695 29.5949 9.81114C29.4516 9.55275 29.2588 9.32512 29.0275 9.14125C28.7962 8.95738 28.5309 8.82087 28.2469 8.73951C27.9628 8.65815 27.6655 8.63353 27.372 8.66707C26.7791 8.73479 26.2374 9.03526 25.8661 9.50238C25.4947 9.9695 25.3242 10.565 25.3919 11.1579C25.4596 11.7508 25.7601 12.2925 26.2272 12.6638C26.6943 13.0351 27.2898 13.2057 27.8827 13.138V13.138Z" fill="#0EC2BC"/>
<path d="M13.1723 19.5838C11.7634 17.3115 10.59 15.6202 8.55202 16.1237C6.51396 16.6267 6.68505 19.3111 7.08257 21.9021C7.4801 24.4931 13.1724 19.5843 13.1724 19.5843L13.1723 19.5838ZM30.5649 21.8226C29.0104 19.1606 27.7356 17.1767 25.5078 17.4992C23.2799 17.8213 23.445 20.743 23.8802 23.6675C24.3159 26.5923 30.5649 21.8226 30.5649 21.8226V21.8226Z" fill="#2AE5C4"/>
<path d="M7.89224 24.227C8.30946 23.5691 8.2286 22.77 7.7115 22.4423C7.19484 22.1146 6.43741 22.382 6.02019 23.0399C5.60297 23.6978 5.68378 24.4965 6.20094 24.8246C6.71759 25.1523 7.47503 24.8849 7.89224 24.227ZM28.6594 26.637C28.9541 25.6413 28.5444 24.6417 27.7438 24.4049C26.9438 24.168 26.0561 24.7836 25.7613 25.7793C25.4666 26.7755 25.8764 27.7747 26.6769 28.0115C27.477 28.2483 28.3646 27.6328 28.6594 26.637Z" fill="#5865F2"/>
<path d="M8.52119 20.5885C9.16577 20.4881 9.82372 20.5168 10.4571 20.672C10.5016 20.6787 10.547 20.6742 10.5893 20.6588C10.6316 20.6434 10.6693 20.6177 10.6991 20.584C10.7288 20.5503 10.7497 20.5097 10.7598 20.4659C10.7698 20.4221 10.7688 20.3764 10.7567 20.3331C10.4118 19.0885 9.81953 18.3447 9.13701 18.2875C8.45449 18.2304 8.06274 18.6469 8.18281 20.2894C8.19188 20.3724 8.23157 20.4491 8.29415 20.5044C8.35673 20.5597 8.43768 20.5897 8.52119 20.5885V20.5885ZM25.2628 22.1576C25.99 22.1652 26.7114 22.2882 27.4 22.5219C27.444 22.5345 27.4905 22.5355 27.5351 22.5249C27.5796 22.5142 27.6206 22.4923 27.6542 22.4611C27.6877 22.4301 27.7129 22.3911 27.7273 22.3478C27.7417 22.3044 27.7448 22.2582 27.7365 22.2132C27.339 20.8051 26.6984 19.9321 25.9339 19.7487C25.1695 19.5659 24.7441 19.9862 24.8833 21.7956C24.8855 21.8939 24.9264 21.9874 24.9973 22.0555C25.0326 22.0893 25.0742 22.1157 25.1198 22.1333C25.1654 22.1508 25.214 22.1591 25.2628 22.1576V22.1576ZM43.8881 17.7319C43.9891 19.2074 44.0387 20.8244 44.0254 22.4821C44.0026 23.4649 44.1036 23.7576 44.5448 23.7747L46.4769 23.8243C46.8851 23.8452 46.9243 23.2998 46.7033 21.3647L46.547 19.997C46.3317 18.7031 45.9216 18.074 43.8881 17.7319V17.7319ZM35.0092 23.4445L40.0644 23.6106C41.1844 23.6517 42.1786 23.7744 42.3188 22.3388C42.433 20.7381 42.464 19.1326 42.4118 17.5287L41.2544 17.4578C38.2907 17.2559 36.1093 17.0993 34.4478 17.0525C34.1403 18.1994 33.9123 19.3661 33.7653 20.5444C33.4132 23.0859 33.5477 23.3747 35.0092 23.4445V23.4445Z" fill="black"/>
<path d="M37.4325 19.2128C37.3898 16.1755 37.2575 12.9458 36.764 10.3998C36.3482 11.2844 35.9893 12.1946 35.6893 13.1249C35.8616 14.9306 35.9493 16.881 35.9748 19.1767L37.4325 19.2128Z" fill="black"/>
<path d="M25.3885 9.94143L27.6274 10.9026L26.4711 8.77C25.9897 9.02864 25.6086 9.44082 25.3884 9.94098L25.3885 9.94143Z" fill="#1E5EE8"/>
<path d="M42.9688 8.20341C42.8685 8.21486 42.8659 8.48582 42.9447 8.88214L43.6609 8.9359C43.3777 8.52847 43.1022 8.18817 42.9688 8.20341ZM49.0345 29.3457C48.6077 27.975 47.9049 27.4468 47.2262 27.4232C45.7723 27.4202 45.2374 31.909 45.3418 36.9672L47.059 36.9062C46.9338 36.4965 46.8406 36.0777 46.7804 35.6536C46.6482 34.4998 46.7828 33.331 47.1736 32.2374C47.5644 31.1438 48.201 30.1545 49.0345 29.3457V29.3457ZM40.6544 37.0633C41.4738 33.2856 41.0544 27.2491 39.2855 27.147C37.516 27.0449 36.3069 31.8474 36.2602 37.0584C37.7174 37.0946 39.1712 37.0977 40.6544 37.0633V37.0633ZM37.6999 8.53506C38.887 8.56856 40.3523 8.67185 41.5797 8.76785C41.2532 7.38562 40.869 6.68596 40.4418 6.4981C40.0146 6.31024 39.0729 6.35025 37.6999 8.53506Z" fill="black"/>
<path d="M46.7804 35.6536C46.6681 34.66 46.7539 33.6541 47.033 32.6939C47.312 31.7338 47.7787 30.8385 48.4061 30.06C48.0795 28.6777 47.5684 27.7559 46.9964 27.483C45.7221 27.8653 45.2309 32.1464 45.3418 36.9672L47.0591 36.9062C46.9338 36.4965 46.8406 36.0777 46.7804 35.6536ZM39.0341 37.0793C39.5582 35.1018 39.7128 33.0445 39.4902 31.0109C39.3403 29.4053 38.9028 28.2385 38.3853 27.554C37.1468 28.8448 36.2841 32.8302 36.2601 37.058C37.304 37.6152 38.0379 37.5313 39.0341 37.0793Z" fill="#0C1AAD"/>
<path d="M37.4849 37.4254C37.9522 36.1892 38.2269 33.8592 38.1983 31.8345C38.1696 29.8098 37.9231 29.1279 37.5885 28.862C36.7855 30.7114 36.2944 33.8097 36.2602 37.0585C36.4926 37.9106 37.3306 37.8484 37.4849 37.4254ZM46.82 29.1934C46.328 29.6214 45.9001 31.4956 45.8475 33.6982C45.7949 35.9013 46.1989 38.2553 46.7957 38.1532L47.3094 37.6212C47.0331 36.9964 46.8547 36.3327 46.7804 35.6536C46.5959 33.9982 46.9636 32.3282 47.8264 30.9033C47.5997 29.5097 47.2194 28.8436 46.82 29.1934V29.1934Z" fill="#5865F2"/>
<path d="M40.8276 24.6722L39.6371 24.6055C39.5892 24.6027 39.5438 24.583 39.509 24.5499C39.4743 24.5167 39.4524 24.4723 39.4474 24.4245C39.4483 24.3587 39.4732 24.2955 39.5175 24.2469C39.5618 24.1982 39.6224 24.1675 39.6879 24.1604L40.8783 24.2271C40.9264 24.2297 40.972 24.2494 41.0068 24.2827C41.0416 24.316 41.0634 24.3606 41.0682 24.4085C41.0723 24.4422 41.0691 24.4763 41.0588 24.5086C41.0485 24.5409 41.0313 24.5706 41.0085 24.5956C40.9856 24.6207 40.9577 24.6405 40.9264 24.6537C40.8952 24.6669 40.8615 24.6732 40.8276 24.6722V24.6722Z" fill="#ADFDDC"/>
<path d="M19.2745 30.9875C18.8542 31.7455 17.3242 32.2585 15.6328 32.2486C13.942 32.2391 11.9706 31.5516 11.9973 30.6023C12.0239 29.6527 14.3501 28.7109 16.717 29.015C19.084 29.3195 19.7246 30.1925 19.2745 30.9875V30.9875Z" fill="#FF78B9"/>
<path d="M23.5196 35.3025L23.4529 35.3101C17.2994 34.9988 10.2972 33.7707 7.45849 33.1823C7.41487 33.1722 7.37371 33.1535 7.33743 33.1272C7.30115 33.101 7.27048 33.0677 7.24723 33.0294C7.22398 32.9912 7.20861 32.9486 7.20203 32.9043C7.19545 32.86 7.19779 32.8149 7.20891 32.7715C7.21539 32.7295 7.23064 32.6894 7.25369 32.6537C7.27673 32.618 7.30705 32.5876 7.34265 32.5644C7.37824 32.5412 7.41833 32.5258 7.46029 32.5191C7.50224 32.5124 7.54513 32.5147 7.58615 32.5258C12.8305 33.5783 18.1389 34.2818 23.4764 34.6314C23.5208 34.6307 23.565 34.6386 23.6063 34.6549C23.6476 34.6712 23.6852 34.6955 23.7172 34.7263C23.749 34.7573 23.7744 34.7942 23.7918 34.835C23.8093 34.8758 23.8184 34.9197 23.8187 34.9641C23.8134 35.0457 23.7812 35.1232 23.727 35.1845C23.6729 35.2458 23.5999 35.2873 23.5196 35.3025V35.3025Z" fill="#8CD9FF"/>
</g>
<defs>
<clipPath id="clip0_85_672">
<rect width="45" height="45" rx="22.5" fill="white"/>
</clipPath>
</defs>
</svg>
