<svg width="45" height="45" viewBox="0 0 45 45" fill="none" xmlns="http://www.w3.org/2000/svg">
<g clip-path="url(#clip0_85_627)">
<rect width="45" height="45" rx="22.5" fill="#5764EF"/>
<path d="M9.40883 23.7062C10.2292 22.8324 10.6999 21.9417 10.4602 21.7167C10.2206 21.4916 9.3612 22.0174 8.54081 22.8912C7.72041 23.7648 7.24973 24.6554 7.48939 24.8805C7.72906 25.1056 8.58843 24.5798 9.40883 23.7062V23.7062Z" fill="#FFE75C"/>
<path d="M5.54035 27.7824C6.34154 26.8767 6.79149 25.9661 6.5451 25.7483C6.29891 25.5304 5.4499 26.0878 4.64871 26.9935C3.84753 27.899 3.39758 28.8096 3.64396 29.0276C3.89016 29.2454 4.73917 28.6879 5.54035 27.7824Z" fill="#FFE75C"/>
<path d="M6.55971 28.8882L6.46369 28.8498L5.0234 27.5823C5.0065 27.5662 4.99305 27.5468 4.98403 27.5253C4.97481 27.504 4.97001 27.4807 4.97001 27.4575C4.97001 27.4342 4.97481 27.411 4.98403 27.3897C4.99305 27.3682 5.0065 27.3488 5.0234 27.3327C5.05259 27.3015 5.09234 27.2823 5.13497 27.2789C5.17741 27.2752 5.21986 27.2877 5.25385 27.3134L6.67493 28.5809C6.69299 28.5957 6.70797 28.6141 6.71891 28.6349C6.72967 28.6556 6.7362 28.6783 6.73812 28.7017C6.73985 28.7249 6.73697 28.7484 6.72928 28.7706C6.7218 28.7927 6.70989 28.8131 6.69414 28.8306C6.67725 28.8494 6.6565 28.8644 6.63326 28.8743C6.61003 28.8843 6.58506 28.8889 6.55971 28.8882V28.8882Z" fill="#FF8C19"/>
<path d="M10.4197 24.6825L10.3237 24.6441L8.88337 23.3766C8.85092 23.3442 8.83094 23.3012 8.82749 23.2555C8.82403 23.2096 8.8369 23.1641 8.86417 23.127C8.8803 23.1101 8.8997 23.0967 8.92121 23.0876C8.94252 23.0784 8.96575 23.0736 8.98899 23.0736C9.01223 23.0736 9.03547 23.0784 9.05679 23.0876C9.0783 23.0967 9.09769 23.1101 9.11382 23.127L10.5349 24.3945C10.5526 24.4075 10.5672 24.424 10.5779 24.4432C10.5885 24.4622 10.595 24.4836 10.5967 24.5053C10.5987 24.5272 10.5958 24.549 10.5883 24.5698C10.581 24.5903 10.5693 24.6092 10.5541 24.6249C10.5372 24.6437 10.5165 24.6587 10.4932 24.6687C10.47 24.6787 10.445 24.6833 10.4197 24.6825V24.6825Z" fill="#FF8C19"/>
<path d="M20.4057 30.6357C20.5018 28.6001 21.3467 26.9485 22.3069 26.9485C23.2671 26.9485 24.5154 28.6001 24.4194 30.6357C24.3234 32.6713 22.9215 34.3229 21.9613 34.3229C21.0011 34.3229 20.3097 32.6713 20.4057 30.6357Z" fill="#FFC619"/>
<path d="M22.403 33.4779C22.3603 33.4781 22.319 33.4625 22.287 33.4343C22.2551 33.4059 22.2349 33.3667 22.2301 33.3243C21.9743 31.5502 21.8587 29.7587 21.8844 27.9664C21.8844 27.9205 21.9027 27.8765 21.9351 27.8442C21.9674 27.8118 22.0114 27.7935 22.0573 27.7935C22.1049 27.7983 22.1489 27.8206 22.1808 27.8561C22.2128 27.8917 22.2303 27.9377 22.2301 27.9856C22.2061 29.7587 22.3215 31.531 22.5758 33.2858C22.5815 33.3289 22.571 33.3726 22.546 33.4082C22.5212 33.4437 22.4838 33.4687 22.4414 33.4779H22.403Z" fill="black"/>
<path d="M40.3779 31.0774C40.7427 28.965 40.2626 27.2559 39.3024 27.2559C38.3422 27.2559 36.7291 28.965 36.3642 31.0774C35.9994 33.1899 36.998 34.9182 37.9582 34.9182C38.9184 34.9182 39.9938 33.2091 40.3779 31.0774Z" fill="#FFE75C"/>
<path d="M31.8129 21.7827H31.7553C31.7169 21.7656 31.6842 21.7347 31.6669 21.6955C31.6496 21.6565 31.6458 21.6124 31.6593 21.5715C32.293 19.8815 33.4068 19.6319 33.8485 19.6127C34.175 19.5875 34.5014 19.6555 34.7895 19.8084C35.0795 19.9614 35.3176 20.1932 35.4808 20.4768C35.5 20.5176 35.5039 20.5648 35.4904 20.6078C35.4751 20.651 35.4444 20.6867 35.404 20.7073C35.3848 20.7203 35.3618 20.7288 35.3387 20.7319C35.3157 20.7349 35.2926 20.7328 35.2696 20.7253C35.2485 20.718 35.2273 20.7056 35.2101 20.689C35.1947 20.6727 35.1812 20.6526 35.1736 20.6305C35.043 20.4054 34.851 20.2226 34.6186 20.1035C34.3881 19.9844 34.127 19.9341 33.8677 19.9583C33.0611 19.9967 32.3698 20.6305 31.9857 21.6867C31.9703 21.7184 31.9454 21.7447 31.9147 21.7618C31.8839 21.7791 31.8475 21.7864 31.8129 21.7827Z" fill="black"/>
<path d="M26.4872 48.6377C26.545 47.5268 26.4006 45.9968 26.1767 44.1802C25.9529 42.3637 24.8769 41.9864 23.736 42.0004C21.974 42.0143 21.5479 42.6851 20.3636 45.7732C19.2516 48.6657 19.3382 49.4622 19.9231 50.0141C21.1796 51.1949 23.3388 51.0901 24.5158 50.8385C25.5268 50.615 26.4078 50.0979 26.4872 48.6377Z" fill="#FFC619"/>
<path d="M38.3038 39.5656C38.4575 36.5121 38.0734 32.3065 37.4781 27.3134C36.8827 22.3204 34.0214 21.2834 30.9871 21.3218C26.3014 21.3602 25.1683 23.2038 22.0189 31.6919C19.0615 39.6424 19.2919 41.8316 20.8475 43.3487C24.1889 46.5942 29.9309 46.3061 33.0612 45.6148C35.7497 45.0003 38.0926 43.5792 38.3038 39.5656Z" fill="#FFE75C"/>
<path d="M27.6648 31.3847H27.6072C27.5644 31.3714 27.5283 31.3418 27.5068 31.3025C27.4853 31.2629 27.4799 31.2166 27.492 31.1734C27.6358 30.5856 27.9043 30.0354 28.2794 29.5603C28.2955 29.5434 28.3149 29.5299 28.3364 29.5209C28.3577 29.5117 28.381 29.5069 28.4042 29.5069C28.4274 29.5069 28.4507 29.5117 28.472 29.5209C28.4935 29.5299 28.5129 29.5434 28.529 29.5603C28.5453 29.5747 28.5584 29.5924 28.5674 29.6123C28.5764 29.6321 28.5811 29.6536 28.5811 29.6755C28.5811 29.6972 28.5764 29.7189 28.5674 29.7387C28.5584 29.7587 28.5453 29.7763 28.529 29.7907C28.1983 30.2328 27.9569 30.735 27.8185 31.2694C27.8098 31.3032 27.7899 31.333 27.7618 31.3539C27.734 31.3749 27.6998 31.3858 27.6648 31.3847V31.3847Z" fill="#FFC619"/>
<path d="M30.2382 29.6947C30.4494 28.4465 31.2752 27.4863 32.0818 27.4863C32.8883 27.4863 33.426 28.4465 33.2916 29.6947C33.1572 30.943 32.5043 32.2296 31.3328 32.1528C30.1614 32.076 29.9885 31.0198 30.2382 29.6947V29.6947Z" fill="white"/>
<path d="M24.9571 29.3107C25.2643 28.0432 26.0325 27.083 26.6854 27.083C27.3384 27.083 27.7032 27.9088 27.4536 29.3107C27.2039 30.7126 26.5702 31.8648 25.61 31.8072C24.6498 31.7496 24.6306 30.6549 24.9571 29.3107Z" fill="white"/>
<path d="M31.2368 21.0721C29.47 21.0337 27.6072 21.5138 26.5894 22.474C25.5716 23.4342 26.4934 23.7799 29.0283 22.6277C28.2218 24.1256 28.6058 25.1626 30.0461 24.7593C30.8335 24.5289 31.6401 23.6647 32.1394 22.8389C33.8293 24.26 34.6167 24.7785 35.5385 24.7593C36.4603 24.7401 36.4411 23.4726 35.5769 22.5508C34.7127 21.6291 33.6181 21.1298 31.2368 21.0721V21.0721Z" fill="#FF8C19"/>
<path d="M31.3136 35.8016C31.2656 36.2523 31.1695 36.6967 31.0255 37.1266C30.8738 37.5514 30.6741 37.9574 30.4302 38.3365C30.1825 38.748 29.8714 39.1175 29.5084 39.4311C29.1007 39.7856 28.6131 40.036 28.0873 40.1609C27.7854 40.2223 27.4739 40.2198 27.1728 40.1538C26.8719 40.0875 26.5881 39.9592 26.3398 39.7768C26.1041 39.6097 25.9077 39.3935 25.7636 39.1431L25.6484 38.9702L25.5716 38.7974C25.5123 38.6793 25.461 38.5575 25.418 38.4325C25.2955 37.9755 25.2373 37.5036 25.2451 37.0306C25.2484 36.9146 25.2613 36.799 25.2835 36.6849C25.2951 36.5749 25.3143 36.4658 25.3412 36.3585C25.3509 36.2483 25.3703 36.139 25.3988 36.032L25.4948 35.7247V35.6671C25.5192 35.5759 25.5616 35.4903 25.6194 35.4156C25.6772 35.3409 25.7494 35.2785 25.8316 35.232C25.9138 35.1855 26.0046 35.1559 26.0984 35.1448C26.1923 35.1338 26.2873 35.1417 26.3782 35.1678C26.5439 35.2206 26.6852 35.3311 26.7766 35.4789C26.8682 35.6268 26.904 35.8025 26.8775 35.9744C26.8145 36.3034 26.7886 36.6383 26.8006 36.973C26.8078 37.2735 26.8596 37.5712 26.9543 37.8564C27.0188 38.063 27.1463 38.2445 27.3192 38.3749L27.396 38.4325H27.7416C27.9769 38.3586 28.1933 38.2341 28.3754 38.0676C28.6087 37.8572 28.8151 37.6184 28.9899 37.3571C29.3605 36.7942 29.6102 36.1595 29.7197 35.4943C29.7792 35.3076 29.9021 35.1481 30.0672 35.0438C30.2324 34.9395 30.4302 34.8974 30.6242 34.9251C30.8181 34.9527 30.9948 35.0484 31.1254 35.1949C31.254 35.3412 31.3289 35.5291 31.3328 35.7247L31.3136 35.8016Z" fill="#EB459F"/>
<path d="M30.7951 35.7056C30.7164 36.11 30.6069 36.5079 30.4686 36.8962C30.315 37.2801 30.123 37.6469 29.8925 37.9908C29.6659 38.3384 29.3951 38.6547 29.0859 38.9318C28.7618 39.2185 28.3731 39.4229 27.9529 39.5272C27.7388 39.5736 27.5176 39.5754 27.3029 39.5323C27.088 39.4893 26.8844 39.4027 26.7047 39.2775C26.3626 39.0131 26.1084 38.6516 25.9749 38.2405C25.7139 37.4462 25.6805 36.5947 25.8789 35.7824C25.8789 35.7056 25.9557 35.6672 26.0325 35.6864C26.0515 35.6852 26.0706 35.6889 26.0876 35.6969C26.1049 35.705 26.1199 35.7171 26.1314 35.7323C26.1428 35.7474 26.1502 35.7653 26.1531 35.7841C26.156 35.8029 26.1541 35.8221 26.1477 35.84C25.9926 36.5993 26.0323 37.3855 26.263 38.1253C26.383 38.4704 26.6036 38.7713 26.8967 38.9894C27.0373 39.0956 27.2005 39.1682 27.3737 39.2017C27.5468 39.2349 27.7252 39.228 27.8953 39.1815C28.2531 39.0903 28.583 38.9121 28.8555 38.663C29.1503 38.4118 29.4086 38.121 29.6237 37.7988C30.05 37.1476 30.338 36.4153 30.4686 35.648C30.4821 35.6092 30.509 35.5761 30.5435 35.555C30.5781 35.5339 30.6203 35.526 30.6607 35.5327C30.6991 35.5416 30.7337 35.5637 30.7586 35.5951C30.7836 35.6266 30.797 35.6656 30.7951 35.7056Z" fill="black"/>
<path d="M34.7895 7.41815L13.6844 11.8159C14.3523 12.2466 14.9762 12.7419 15.5471 13.2946C17.0451 14.7925 17.2371 16.5592 15.4895 18.2876C9.09462 24.5865 2.16199 31.5383 1.54747 38.6246C1.14418 43.3487 3.31423 46.575 7.92318 46.8823C12.5321 47.1895 15.4703 44.1361 17.7556 41.0251C21.9229 35.3791 24.6114 33.4011 28.0681 32.6905L28.337 30.6741C25.2259 30.3093 21.8076 32.5753 18.831 35.5903C17.1411 37.3187 16.1425 37.8948 14.7982 37.9332C13.4539 37.9716 11.9944 36.3009 13.7228 32.7674C15.4511 29.2338 19.5224 25.5467 26.3398 20.5152C34.4246 14.5428 34.6167 11.8351 34.7895 7.41815V7.41815Z" fill="url(#paint0_linear_85_627)"/>
<path d="M13.6844 11.8159C14.3523 12.2466 14.9762 12.7419 15.5471 13.2946C17.045 14.7925 17.2371 16.5592 15.4895 18.2876C9.09461 24.5865 2.16198 31.5383 1.54745 38.6246L13.7228 32.7674C15.4703 29.2338 19.5224 25.5467 26.3398 20.5152C34.4246 14.5428 34.6166 11.8351 34.7895 7.41815L13.6844 11.8159Z" fill="url(#paint1_linear_85_627)"/>
<path d="M24.148 11.1608C30.0519 10.0163 34.6493 8.11929 34.4189 6.92403C34.1865 5.72878 29.2125 5.68768 23.3088 6.83224C17.4051 7.97679 12.8069 9.87376 13.0387 11.069C13.2705 12.2643 18.2443 12.3054 24.148 11.1608Z" fill="#FFE75C"/>
<path d="M23.5168 11.7006C18.7158 12.5264 14.8174 12.584 13.7228 11.8159H13.6843C14.03 12.0463 14.3565 12.2768 14.6445 12.5072C15.4298 12.6516 16.2275 12.716 17.0258 12.6992C19.223 12.6633 21.4134 12.445 23.5744 12.0463C27.9529 11.2782 33.0995 9.85706 34.7511 8.1095C34.7664 7.91785 34.7741 7.72562 34.7703 7.53339C33.8677 9.03129 29.4892 10.6636 23.5168 11.7006V11.7006Z" fill="#FA8014"/>
<path d="M24.3971 10.6713C29.7946 9.642 34.0348 8.10646 33.8696 7.2417C33.7045 6.37695 29.1964 6.51061 23.7997 7.53994C18.4032 8.56946 14.162 10.105 14.3269 10.9698C14.4919 11.8345 19.0004 11.7009 24.3971 10.6713Z" fill="url(#paint2_linear_85_627)"/>
<path d="M23.6896 10.8364C26.8007 10.2795 29.6044 9.53055 31.4864 8.82C30.4878 8.57035 27.9145 8.70478 24.8226 9.26169C21.2891 9.89542 18.2165 10.8556 17.3523 11.5662C19.4797 11.478 21.5979 11.2341 23.6896 10.8364Z" fill="black"/>
<path d="M32.3353 28.9344C32.5043 28.4996 32.3621 28.0378 32.0165 27.903C31.6708 27.7682 31.2522 28.0113 31.0832 28.4461C30.9142 28.8808 31.0563 29.3427 31.4019 29.4775C31.7476 29.6123 32.1663 29.3692 32.3353 28.9344Z" fill="black"/>
<path d="M27.1942 28.3947C27.3125 27.9653 27.1846 27.5554 26.9084 27.4794C26.6323 27.4033 26.3127 27.6899 26.1944 28.1193C26.0761 28.5489 26.204 28.9585 26.48 29.0345C26.7561 29.1106 27.0759 28.8242 27.1942 28.3947Z" fill="black"/>
<path d="M37.6509 31.6344C37.6202 31.6361 37.5914 31.6299 37.5645 31.6163C37.5376 31.6029 37.5146 31.5827 37.4973 31.5575C37.4819 31.5272 37.4742 31.4928 37.4781 31.4586C37.4819 31.4245 37.4954 31.392 37.5165 31.3655C38.1656 30.4141 38.7359 29.4125 39.2256 28.3697C39.2314 28.3486 39.2429 28.3292 39.2563 28.3125C39.2717 28.2959 39.289 28.2827 39.3101 28.2735C39.3293 28.2644 39.3504 28.2596 39.3735 28.2596C39.3946 28.2598 39.4177 28.2644 39.4369 28.2737C39.458 28.2821 39.4791 28.2948 39.4945 28.3111C39.5118 28.3274 39.5252 28.3468 39.5348 28.3683C39.5425 28.3898 39.5482 28.4131 39.5482 28.4363C39.5463 28.4597 39.5425 28.4828 39.5329 28.5041C39.1046 29.4597 38.5957 30.3782 38.0158 31.2503C38.3461 31.203 38.6802 31.1773 39.0144 31.1735C39.0605 31.1735 39.1046 31.1917 39.1373 31.2242C39.1699 31.2564 39.1872 31.3004 39.1872 31.3463C39.1872 31.3922 39.1699 31.4362 39.1373 31.4684C39.1046 31.5009 39.0605 31.5191 39.0144 31.5191C38.565 31.5247 38.1156 31.5633 37.6701 31.6344H37.6509Z" fill="black"/>
<path d="M38.0542 34.9182C37.7949 34.9683 37.5318 35.0004 37.2668 35.0142C37.382 35.5135 37.6317 36.2625 38.0542 34.9182Z" fill="black"/>
<path d="M28.2602 25.8923C28.2602 26.238 27.7609 26.526 27.1271 26.526C26.4934 26.526 25.9749 26.238 25.9749 25.8923C25.9749 25.5466 26.4934 25.4122 27.1271 25.4506C27.7609 25.489 28.2602 25.5274 28.2602 25.8923Z" fill="black"/>
<path d="M33.4644 26.2188C33.4644 26.5645 32.9459 26.8525 32.3314 26.8525C31.7169 26.8525 31.1792 26.5645 31.1792 26.2188C31.1792 25.8731 31.6977 25.7387 32.3314 25.7771C32.9651 25.8155 33.4644 25.8731 33.4644 26.2188Z" fill="black"/>
<path d="M27.2424 44.2321H27.0695C26.5209 44.2233 25.9801 44.1012 25.481 43.873C24.9819 43.6451 24.5354 43.3161 24.1697 42.9071C23.8521 42.5226 23.6166 42.0773 23.478 41.5983C23.3393 41.1194 23.3002 40.6172 23.3632 40.1225C23.3722 40.0785 23.3962 40.0389 23.4313 40.0109C23.4665 39.9829 23.5103 39.9679 23.5552 39.9689C23.5992 39.9779 23.6387 40.0019 23.6668 40.037C23.6948 40.0722 23.7098 40.116 23.7088 40.1609C23.6478 40.608 23.6812 41.0629 23.807 41.4961C23.9326 41.9294 24.1478 42.3317 24.4386 42.6766C24.7706 43.048 25.1756 43.3472 25.6283 43.5552C26.0807 43.7634 26.5714 43.8761 27.0695 43.8865C29.1628 43.9633 31.1984 42.5806 31.8321 40.641C31.8455 40.5982 31.8743 40.5621 31.9147 40.5406C31.9531 40.5191 31.9992 40.5137 32.0433 40.5258C32.0664 40.5298 32.0875 40.5388 32.1067 40.5523C32.1259 40.5657 32.1413 40.5832 32.1528 40.6035C32.1624 40.6239 32.1701 40.6464 32.1701 40.6696C32.172 40.6927 32.1682 40.7157 32.1586 40.737C31.5056 42.7534 29.4124 44.2321 27.2424 44.2321V44.2321Z" fill="#FFC619"/>
<path d="M7.32785 32.6522C7.20494 32.6583 7.08184 32.6453 6.96297 32.6138C6.44465 32.4588 5.94784 32.2395 5.48426 31.9608C5.45661 31.9336 5.43894 31.8978 5.43414 31.8594C5.42934 31.821 5.43741 31.782 5.45738 31.7488C5.47736 31.7156 5.50788 31.69 5.54418 31.6762C5.58028 31.6624 5.62004 31.6612 5.6571 31.6728C6.09053 31.9297 6.55527 32.1298 7.03979 32.2681C7.24047 32.3228 7.45228 32.3215 7.6522 32.2639C7.85192 32.2063 8.03205 32.0949 8.17281 31.9416L15.7584 23.6071C15.7906 23.5831 15.8304 23.571 15.8707 23.5731C15.911 23.5752 15.9493 23.5914 15.9788 23.6188C16.0084 23.6461 16.0276 23.683 16.033 23.7229C16.0382 23.7628 16.0295 23.8034 16.008 23.8376L8.44167 32.1721C8.29899 32.3244 8.12654 32.4457 7.93489 32.5283C7.74323 32.6109 7.53659 32.6531 7.32785 32.6522V32.6522Z" fill="#FF8C19"/>
<path d="M9.55552 29.0756C10.4166 28.2116 10.8099 27.2078 10.4343 26.8336C10.0587 26.4593 9.05621 26.8562 8.1953 27.7202C7.33439 28.584 6.9409 29.588 7.31653 29.9623C7.69216 30.3365 8.6946 29.9396 9.55552 29.0756V29.0756Z" fill="#FFE75C"/>
<path d="M13.216 25.0791C14.1335 24.2758 14.5944 23.301 14.2451 22.9019C13.8958 22.5029 12.8686 22.8307 11.951 23.6342C11.0333 24.4375 10.5724 25.4123 10.9217 25.8113C11.271 26.2104 12.2982 25.8826 13.216 25.0791Z" fill="#FFE75C"/>
<path d="M11.1519 33.3777C11.8237 32.4893 11.9773 31.4738 11.4953 31.1091C11.0131 30.7444 10.0777 31.1689 9.40592 32.057C8.73416 32.9452 8.58033 33.9609 9.06254 34.3256C9.54476 34.6903 10.4802 34.2659 11.1519 33.3777Z" fill="#FFE75C"/>
<path d="M14.8927 29.3723C15.6138 28.5099 15.8223 27.4963 15.3586 27.1085C14.8948 26.7206 13.9342 27.1055 13.2131 27.9679C12.492 28.8306 12.2832 29.844 12.7472 30.2319C13.211 30.6196 14.1716 30.2348 14.8927 29.3723Z" fill="#FFE75C"/>
<path d="M32.9459 6.47717L32.8883 6.80364C33.5797 6.89966 33.9253 7.0917 33.8677 7.39896C33.6373 8.32075 29.0859 9.81866 23.6896 10.7981C18.2933 11.7775 14.0876 11.8159 14.3181 10.8941C14.3757 10.6252 14.7406 10.3372 15.3743 10.0107L15.1823 9.74184C14.1261 10.2604 13.4731 10.7789 13.3771 11.2205C13.089 12.5072 17.6404 12.7185 23.5552 11.7006C29.47 10.6828 34.4822 8.80085 34.7703 7.49498C34.8855 6.97648 34.1942 6.6308 32.9459 6.47717V6.47717Z" fill="#FFE75C"/>
<path d="M14.0684 25.8923L13.9532 25.8539L12.5129 24.5673C12.4949 24.5525 12.4799 24.5342 12.4689 24.5133C12.4582 24.4926 12.4517 24.4699 12.4497 24.4465C12.448 24.4232 12.4509 24.3998 12.4586 24.3775C12.4661 24.3554 12.478 24.3351 12.4937 24.3176C12.5081 24.3013 12.5258 24.2882 12.5458 24.2792C12.5655 24.2702 12.5872 24.2656 12.6089 24.2656C12.6308 24.2656 12.6523 24.2702 12.6721 24.2792C12.6921 24.2882 12.7098 24.3013 12.7242 24.3176L14.1837 25.5851C14.2006 25.6012 14.214 25.6206 14.223 25.6421C14.2322 25.6634 14.237 25.6867 14.237 25.7099C14.237 25.7331 14.2322 25.7564 14.223 25.7777C14.214 25.7992 14.2006 25.8186 14.1837 25.8347C14.1708 25.8532 14.1535 25.8681 14.1333 25.8783C14.1134 25.8883 14.0909 25.8931 14.0684 25.8923V25.8923Z" fill="#FF8C19"/>
<path d="M10.3237 29.906C10.3027 29.9091 10.2814 29.9071 10.2614 29.9006C10.2415 29.8939 10.2232 29.8826 10.2084 29.8676L8.84496 28.6577C8.82095 28.6255 8.80885 28.5857 8.81097 28.5454C8.81308 28.5051 8.82922 28.4668 8.85668 28.4373C8.88395 28.4077 8.92082 28.3885 8.96076 28.3831C9.00071 28.3779 9.04122 28.3866 9.07541 28.4081L10.4389 29.6179C10.4566 29.631 10.4712 29.6475 10.4819 29.6667C10.4925 29.6857 10.499 29.707 10.5007 29.7287C10.5026 29.7506 10.4998 29.7725 10.4923 29.7933C10.485 29.8138 10.4733 29.8326 10.4581 29.8484C10.4216 29.8829 10.374 29.9035 10.3237 29.906V29.906Z" fill="#FF8C19"/>
<path d="M13.8956 28.6961C13.8747 28.6992 13.8534 28.6973 13.8334 28.6907C13.8134 28.684 13.7952 28.6727 13.7804 28.6577L12.4553 27.4863C12.4384 27.4701 12.425 27.4507 12.416 27.4292C12.4067 27.4079 12.4019 27.3847 12.4019 27.3614C12.4019 27.3382 12.4067 27.315 12.416 27.2937C12.425 27.2721 12.4384 27.2527 12.4553 27.2366C12.4697 27.2203 12.4874 27.2072 12.5074 27.1982C12.5272 27.1892 12.5487 27.1846 12.5706 27.1846C12.5924 27.1846 12.614 27.1892 12.6337 27.1982C12.6537 27.2072 12.6714 27.2203 12.6858 27.2366L14.0109 28.4081C14.0285 28.4211 14.0431 28.4376 14.0539 28.4568C14.0644 28.4758 14.071 28.4972 14.0727 28.5189C14.0746 28.5408 14.0717 28.5626 14.0644 28.5834C14.0569 28.6039 14.0452 28.6228 14.0301 28.6385C14.0132 28.6573 13.9924 28.6723 13.9692 28.6823C13.9459 28.6923 13.921 28.6969 13.8956 28.6961V28.6961Z" fill="#FF8C19"/>
<path d="M10.3045 32.9402L10.1892 32.9018L8.82577 31.6919C8.80887 31.6758 8.79542 31.6564 8.7864 31.6349C8.77718 31.6136 8.77238 31.5904 8.77238 31.5671C8.77238 31.5439 8.77718 31.5207 8.7864 31.4993C8.79542 31.4778 8.80887 31.4584 8.82577 31.4423C8.84017 31.426 8.85784 31.4129 8.87781 31.4039C8.89759 31.3949 8.91909 31.3903 8.94099 31.3903C8.96269 31.3903 8.98439 31.3949 9.00417 31.4039C9.02415 31.4129 9.04181 31.426 9.05622 31.4423L10.4197 32.6329C10.4377 32.6477 10.4527 32.6662 10.4637 32.6869C10.4744 32.7076 10.481 32.7303 10.4829 32.7537C10.4846 32.777 10.4817 32.8004 10.474 32.8227C10.4666 32.8448 10.4547 32.8651 10.4389 32.8826C10.4024 32.9172 10.3548 32.9377 10.3045 32.9402V32.9402Z" fill="#FF8C19"/>
</g>
<defs>
<linearGradient id="paint0_linear_85_627" x1="27.6475" y1="27.1598" x2="23.559" y2="27.1598" gradientUnits="userSpaceOnUse">
<stop stop-color="#FFE75C"/>
<stop offset="1" stop-color="#FFC619"/>
</linearGradient>
<linearGradient id="paint1_linear_85_627" x1="27.0945" y1="3.19712" x2="15.5126" y2="29.8292" gradientUnits="userSpaceOnUse">
<stop stop-color="#FF8C19"/>
<stop offset="1" stop-color="#FFC619"/>
</linearGradient>
<linearGradient id="paint2_linear_85_627" x1="20556.2" y1="434.887" x2="20068.6" y2="1344.97" gradientUnits="userSpaceOnUse">
<stop stop-color="#FF8C19"/>
<stop offset="1" stop-color="#FFC619"/>
</linearGradient>
<clipPath id="clip0_85_627">
<rect width="45" height="45" rx="22.5" fill="white"/>
</clipPath>
</defs>
</svg>
