<svg width="45" height="45" viewBox="0 0 45 45" fill="none" xmlns="http://www.w3.org/2000/svg">
<g clip-path="url(#clip0_85_601)">
<rect width="45" height="45" rx="22.5" fill="#5C49EE"/>
<path d="M18.6861 13.1407C20.9271 12.0137 21.8849 9.39242 20.8254 7.28589C19.766 5.17937 17.0905 4.38545 14.8495 5.51244C12.6086 6.63943 11.6508 9.261 12.7102 11.3672C13.7697 13.4738 16.4452 14.2677 18.6861 13.1407V13.1407Z" fill="white"/>
<path d="M18.8682 13.0459C18.3591 13.3215 17.8057 13.5059 17.2331 13.5909H17.2028C16.9329 13.524 16.6898 13.376 16.5064 13.167C16.2036 12.834 15.9917 12.2284 16.5064 11.1989C17.0211 10.1694 17.7176 8.59488 17.1725 7.23231C17.058 6.95041 16.8815 6.69788 16.6561 6.4935C16.4307 6.28911 16.1622 6.13802 15.8705 6.05142C15.4476 5.91971 14.9971 5.90366 14.5658 6.00479C14.1346 6.10623 13.7382 6.32091 13.4179 6.62673C13.5951 6.43022 13.7874 6.24794 13.9932 6.0817H14.0235C14.3142 5.85249 14.654 5.69382 15.0164 5.61813C15.3788 5.54243 15.7538 5.55212 16.1119 5.64598C16.47 5.73985 16.8014 5.91577 17.08 6.15952C17.3586 6.40327 17.5769 6.70818 17.7176 7.05064C18.3534 8.62515 17.4451 10.6841 17.0211 11.5017C16.5972 12.3192 16.6275 12.4706 16.9303 12.8037C17.2331 13.1368 17.9901 13.2276 18.8682 13.0459V13.0459Z" fill="#66BCFF"/>
<path d="M31.7975 31.0317C34.4621 26.1871 37.1872 23.2803 35.9155 17.1941C34.6437 11.108 27.4978 8.26178 22.2595 8.74625C17.0212 9.23071 13.63 12.0164 14.175 16.3463C12.9033 16.7702 8.81556 17.3455 11.9646 27.7313C7.57411 27.8221 1.79078 28.2763 -0.0865261 33.1816C-1.11602 35.9067 -0.0259676 34.5441 2.24497 40.7211C1.63939 42.6892 -0.177364 49.2598 -0.0865261 51.4096C-1.41881 57.3141 -0.994902 60.6448 -0.661831 65.5198H32.5847C33.5703 59.2595 33.56 52.8827 32.5545 46.6255C31.0102 38.4804 44 43.961 44 40.1155C44 36.27 41.2446 32.4246 31.7975 31.0317V31.0317Z" fill="url(#paint0_linear_85_601)"/>
<path d="M26.0747 9.86657C26.0665 9.86657 26.059 9.86354 26.0532 9.85778C26.0478 9.85203 26.0444 9.84446 26.0444 9.83629C26.0099 9.83659 25.9757 9.82932 25.9442 9.81539C25.9127 9.80146 25.8846 9.78088 25.8615 9.75514C25.8385 9.7291 25.8213 9.69882 25.8113 9.66581C25.801 9.63281 25.798 9.59799 25.8022 9.56377C25.7861 9.003 25.6308 8.45495 25.3507 7.96866C25.0706 7.48238 24.6746 7.07331 24.1974 6.77809C24.1641 6.75962 24.1353 6.73418 24.1123 6.7039C24.0896 6.67332 24.0732 6.6385 24.0648 6.60156C24.056 6.56432 24.0554 6.52586 24.0626 6.48862C24.0699 6.45107 24.0848 6.41565 24.1066 6.38446C24.1447 6.31845 24.2065 6.26909 24.2798 6.24669C24.3527 6.22428 24.4315 6.23003 24.5002 6.26334C25.3795 6.81048 26.0096 7.6801 26.2564 8.68568C26.6334 8.24965 27.1657 7.97805 27.7401 7.92869C27.7797 7.92446 27.82 7.9284 27.8585 7.9396C27.8969 7.9511 27.9323 7.97018 27.9635 7.99561C27.9944 8.02075 28.0201 8.05193 28.0389 8.08736C28.0577 8.12279 28.0695 8.16124 28.0731 8.20121C28.0677 8.27479 28.038 8.34443 27.9887 8.39923C27.9393 8.45404 27.8733 8.49068 27.8006 8.504C27.4715 8.53035 27.1578 8.65358 26.8989 8.85827C26.6403 9.06326 26.448 9.34032 26.3472 9.65461C26.3287 9.71366 26.2927 9.76543 26.2443 9.80328C26.1955 9.84113 26.1362 9.86324 26.0747 9.86657V9.86657Z" fill="black"/>
<path d="M32.9178 19.1623C33.2812 20.6157 33.2206 23.6436 34.4318 23.4619C35.6429 23.2803 35.6429 20.7974 35.6429 20.7974L32.9178 19.1623Z" fill="black"/>
<path d="M20.6547 26.399C18.9591 26.2174 17.9296 25.7026 16.9304 24.764C16.6276 24.3098 16.3854 23.8859 16.1734 23.4922C15.5375 22.2205 14.9622 20.5854 15.8101 19.7679C16.6579 18.9503 16.8093 19.2229 17.4451 19.6165C17.8187 20.0019 18.1724 20.4062 18.5049 20.8277C19.595 22.1297 20.2914 22.3416 21.987 22.2508C22.6289 22.2087 23.2666 22.1176 23.8946 21.9783C24.7727 22.0691 25.4691 22.4022 25.6205 23.3408V23.6133C25.1966 24.6731 23.1376 26.6413 20.6547 26.399V26.399Z" fill="black"/>
<path d="M39.2988 22.906C41.9028 22.1 43.3159 19.1932 42.4557 16.4136C41.5952 13.6339 38.7868 12.0343 36.1827 12.8403C33.579 13.6463 32.1656 16.5531 33.0261 19.3328C33.8864 22.1124 36.6948 23.7121 39.2988 22.906V22.906Z" fill="white"/>
<path d="M25.6205 23.6133C22.6531 21.5543 19.2013 22.493 16.9304 24.7639C17.7479 25.9751 18.9591 27.156 20.6547 27.3377C23.1376 27.6102 25.681 25.4604 25.6205 23.6133V23.6133Z" fill="#BF1378"/>
<path d="M19.5345 25.9448H19.4134C19.3419 25.9118 19.2861 25.8522 19.2579 25.7786C19.2296 25.7053 19.2311 25.6236 19.262 25.5512C19.807 24.3703 21.4118 21.7057 24.47 22.281C24.5418 22.3013 24.6047 22.3452 24.6486 22.4058C24.6925 22.466 24.7149 22.5396 24.7122 22.6141C24.705 22.6544 24.6898 22.6925 24.6674 22.7267C24.645 22.7607 24.6159 22.79 24.582 22.8127C24.5481 22.8351 24.51 22.8509 24.47 22.8582C24.43 22.8657 24.3888 22.8651 24.3489 22.8563C21.8054 22.3719 20.4126 24.4914 19.807 25.7934C19.7774 25.8388 19.737 25.8767 19.6895 25.903C19.642 25.9294 19.5888 25.9436 19.5345 25.9448V25.9448Z" fill="black"/>
<path d="M21.987 22.0388C20.2914 22.16 19.7161 22.0388 18.626 20.7066C18.2895 20.2945 17.8912 19.9369 17.4451 19.6468C17.324 20.8882 17.4451 21.4635 18.4443 21.6149C18.4746 22.9775 18.8683 23.25 19.595 23.3106C20.3217 23.3711 20.8364 23.1895 21.0786 22.6747C21.3512 23.3711 21.5934 23.6739 22.5623 23.5831C23.5313 23.4922 23.9552 23.1289 23.8946 21.9783C23.2581 21.9544 22.6208 21.9747 21.987 22.0388V22.0388Z" fill="white"/>
<path d="M23.8038 19.2229C23.5313 18.7384 23.8341 18.1328 24.5911 17.6181C25.3481 17.1033 26.4987 17.0125 27.2557 17.5575C28.0126 18.1025 27.9521 18.5567 27.6796 18.8595C27.4071 19.1623 27.0437 19.132 26.2262 18.9806C25.6418 18.9077 25.0507 19.0472 24.5608 19.3743C24.1975 19.5257 23.925 19.4348 23.8038 19.2229V19.2229Z" fill="white"/>
<path d="M18.1415 14.8627C19.0499 15.1049 19.4435 16.0436 19.504 16.6794C19.5646 17.3153 19.504 17.7998 19.1104 17.8906C18.7168 17.9815 18.4745 17.497 18.2626 17.0731C18.0506 16.6492 17.7781 16.2253 17.0211 16.0436C16.9327 16.0387 16.8465 16.0136 16.7693 15.9703C16.6922 15.9267 16.6261 15.8658 16.5763 15.7926C16.5264 15.7193 16.4942 15.6354 16.4821 15.5479C16.47 15.4601 16.4783 15.3708 16.5064 15.2866C16.6275 14.9233 17.0211 14.5902 18.1415 14.8627V14.8627Z" fill="white"/>
<path d="M42.2135 15.9528C42.3794 16.3755 42.4439 16.8315 42.4018 17.2835C42.3597 17.7359 42.2122 18.1719 41.9712 18.5568C41.7387 18.9059 41.4162 19.186 41.0377 19.367C40.6595 19.5481 40.2393 19.6238 39.8214 19.5863C39.125 19.4954 37.8835 19.011 37.066 16.6492C36.5815 15.3169 35.6429 14.4388 34.5528 14.5296C34.0986 14.5599 33.5536 14.8021 33.1902 15.5894L33.0086 16.0739C33.1527 15.7929 33.3689 15.5555 33.6347 15.385C33.9009 15.2149 34.207 15.1183 34.5225 15.1049C35.3704 15.0747 36.1273 15.7408 36.521 16.8309C37.4293 19.4954 38.9433 20.0405 39.7306 20.1616H40.0636C40.4945 20.1573 40.919 20.0574 41.3066 19.8688C41.6942 19.6804 42.0351 19.4079 42.3043 19.0715C42.4442 18.8877 42.5456 18.6779 42.6028 18.4544C42.6601 18.2307 42.6719 17.9978 42.6374 17.7695C42.608 17.143 42.4642 16.5275 42.2135 15.9528V15.9528Z" fill="#66BCFF"/>
<path d="M26.2262 18.9806C27.0437 19.132 27.4676 19.132 27.6796 18.8595L27.7401 18.7989C27.6793 18.5649 27.5479 18.3547 27.3638 18.1979C27.1794 18.0407 26.9517 17.9442 26.7106 17.9208C26.3755 17.8739 26.0348 17.9532 25.755 18.1434C25.4753 18.3338 25.276 18.6215 25.1967 18.9503V19.0714C25.5285 18.9637 25.8807 18.9325 26.2262 18.9806V18.9806Z" fill="black"/>
<path d="M18.0204 16.6794L18.2627 17.073C18.4746 17.4969 18.6563 18.0117 19.1105 17.8906C19.5647 17.7695 19.5647 17.3153 19.5041 16.6794C19.5041 16.5886 19.4738 16.4977 19.4738 16.3766L19.0499 16.2252C18.8538 16.2064 18.6561 16.2382 18.4759 16.3179C18.2956 16.3975 18.1388 16.522 18.0204 16.6794Z" fill="black"/>
<path d="M27.0134 15.6802C26.9225 15.8013 26.7408 15.7407 26.3472 15.6802C26.0093 15.6454 25.6678 15.6868 25.348 15.8013C24.7121 16.0132 24.4093 15.8921 24.4093 15.6196C24.4093 15.3471 24.9544 15.014 25.9233 14.9838C26.8922 14.9535 27.1042 15.4985 27.0134 15.6802V15.6802Z" fill="#BF1378"/>
<path d="M18.3232 13.6818C18.2929 13.8332 18.5049 13.8937 18.8682 14.0754C19.1579 14.2256 19.4151 14.4315 19.6252 14.681C20.0794 15.226 20.3822 15.2866 20.5336 15.0443C20.685 14.8021 20.3822 14.2571 19.5949 13.6818C18.8077 13.1065 18.3232 13.5001 18.3232 13.6818Z" fill="#BF1378"/>
<path d="M21.5328 31.1831C20.9607 31.1874 20.3906 31.1159 19.8372 30.9712C18.8633 30.7108 17.9515 30.2578 17.1558 29.6389C16.3601 29.02 15.6965 28.2479 15.2044 27.368C15.1838 27.335 15.1704 27.2977 15.1654 27.259C15.1603 27.2202 15.1637 27.1808 15.1751 27.1436C15.1866 27.106 15.206 27.0718 15.232 27.0425C15.2579 27.0134 15.2898 26.9901 15.3256 26.9743C15.3908 26.9383 15.4671 26.9277 15.5397 26.9447C15.6124 26.9613 15.6763 27.0043 15.7192 27.0652C16.1679 27.8839 16.7773 28.6037 17.5109 29.1814C18.2446 29.7588 19.0873 30.1821 19.9886 30.4262C21.775 30.8803 23.6826 30.517 25.4691 29.3967C25.5027 29.3743 25.5406 29.3588 25.5802 29.3512C25.6199 29.3437 25.6608 29.3443 25.7001 29.3528C25.7398 29.3612 25.777 29.3776 25.8103 29.4006C25.8433 29.4239 25.8715 29.4533 25.893 29.4875C25.923 29.5541 25.9305 29.6286 25.9142 29.6998C25.8975 29.7709 25.8585 29.8345 25.8022 29.8811C24.5323 30.7132 23.051 31.165 21.5328 31.1831V31.1831Z" fill="#D92C8C"/>
<path d="M29.9673 11.3264C30.0618 11.1305 29.7105 10.7659 29.1831 10.5122C28.6559 10.2584 28.1518 10.2115 28.0576 10.4074C27.9631 10.6033 28.3144 10.9679 28.8418 11.2216C29.3693 11.4753 29.8731 11.5223 29.9673 11.3264Z" fill="#FF99CA"/>
<path d="M34.5528 31.5465L34.0684 31.4254C29.6779 35.9975 24.1065 37.9657 19.5343 36.5729C14.9622 35.18 12.661 30.0325 11.9645 27.7313H11.359C12.0251 30.0628 14.1447 35.5131 19.3527 37.1179C20.3955 37.4213 21.4762 37.5742 22.5623 37.5721C26.5894 37.5721 30.9193 35.5434 34.4923 31.8493C34.5241 31.8063 34.5459 31.7569 34.5562 31.7046C34.5668 31.6525 34.5656 31.5983 34.5528 31.5465V31.5465Z" fill="#D92C8C"/>
</g>
<defs>
<linearGradient id="paint0_linear_85_601" x1="17.4391" y1="31.9704" x2="22.7016" y2="57.4413" gradientUnits="userSpaceOnUse">
<stop stop-color="#EB459F"/>
<stop offset="0.38" stop-color="#DD2B90"/>
<stop offset="0.73" stop-color="#D41B86"/>
<stop offset="1" stop-color="#D11583"/>
</linearGradient>
<clipPath id="clip0_85_601">
<rect width="45" height="45" rx="22.5" fill="white"/>
</clipPath>
</defs>
</svg>
