<svg width="45" height="45" viewBox="0 0 45 45" fill="none" xmlns="http://www.w3.org/2000/svg">
<rect width="45" height="45" rx="22.5" fill="#5865F2"/>
<path d="M27.7036 36.2969C28.2272 36.1834 28.767 36.1656 29.297 36.2442C29.5018 36.3014 29.6836 36.4211 29.8171 36.5866C29.9959 36.7739 30.2208 36.9109 30.4693 36.9837C30.7178 37.0565 30.981 37.0626 31.2326 37.0014L30.1595 37.7651C29.708 37.65 29.2477 37.5729 28.7834 37.5347C28.4611 37.2193 28.1577 36.8851 27.8748 36.5339L27.7036 36.2969Z" fill="black"/>
<path d="M27.3284 36.804C27.0734 37.9528 27.105 39.1467 27.4205 40.2803C27.4523 40.3891 27.5225 40.4827 27.6181 40.5437C27.9014 40.7497 28.2371 40.8714 28.5866 40.8947C28.9362 40.918 29.2851 40.842 29.5933 40.6753C29.6846 40.6229 29.7548 40.5405 29.7921 40.442C29.8293 40.3435 29.8312 40.2352 29.7974 40.1355C29.5735 39.4771 29.139 38.0418 29.4879 37.6862L27.7629 36.3694L27.3284 36.804Z" fill="#EB459F"/>
<path d="M31.8449 33.3277L30.1924 30.1805C30.1776 30.1484 30.1531 30.1216 30.1225 30.104C30.0918 30.0863 30.0564 30.0785 30.0212 30.0818L28.1777 30.2464C28.1502 30.2504 28.1239 30.2606 28.1009 30.2762C28.0779 30.2918 28.0587 30.3124 28.0447 30.3364C28.0308 30.3605 28.0225 30.3874 28.0204 30.4151C28.0184 30.4429 28.0226 30.4707 28.0329 30.4966L30.1397 35.3621C30.1397 35.3621 30.9364 37.2385 29.7776 37.3965C29.4487 37.3776 29.1278 37.2878 28.8369 37.1333C28.5459 36.9787 28.2919 36.7631 28.0921 36.5011C27.9341 36.3431 27.809 36.2904 27.7037 36.3102C27.3415 36.3629 27.2494 37.2451 27.2494 37.2451C27.4008 36.5867 27.7102 36.6262 27.8353 36.7974C28.0592 37.1859 29.0994 38.6343 31.4631 37.7784C33.9452 36.8632 31.9371 33.4264 31.8449 33.3277Z" fill="#FF78B9"/>
<path d="M20.3626 37.1595C20.271 38.3863 20.4117 39.6193 20.7774 40.7938C20.8544 41.0077 20.9944 41.1933 21.1789 41.326C21.3634 41.4588 21.5838 41.5327 21.811 41.5378L23.5163 41.5773C23.5895 41.5779 23.6616 41.5588 23.7249 41.522C23.7882 41.4852 23.8405 41.432 23.8761 41.368C23.9118 41.3041 23.9296 41.2317 23.9277 41.1584C23.9258 41.0852 23.9042 41.0139 23.8652 40.9519C23.4439 40.2935 22.9566 39.2861 23.3451 38.496L22.0283 38.687L21.416 37.6138L20.8037 36.8237L20.3626 37.1595Z" fill="#EB459F"/>
<path d="M20.6588 36.613C20.9993 36.4277 21.3764 36.3198 21.7634 36.297C22.1503 36.2743 22.5375 36.3372 22.8974 36.4813L23.3451 37.5348L22.9566 38.2261L22.1929 38.4565L21.5806 37.6138L20.9683 36.8435L20.6588 36.613Z" fill="black"/>
<path d="M24.9384 34.2099L23.3122 30.8521L20.5996 30.9245L22.6472 36.1324C22.6472 36.1324 23.4175 38.1471 22.4233 38.1471C21.7649 38.1471 21.7649 37.4361 21.2646 36.9225C21.1131 36.7513 20.8893 36.5406 20.6588 36.6131C20.2967 36.7382 20.3428 37.6138 20.3428 37.6138C20.3856 37.4428 20.4692 37.2847 20.5864 37.153C20.7378 37.0015 20.8959 37.153 20.9683 37.3834C21.2711 38.2261 21.4818 39.2598 23.9113 38.6212C26.5581 37.9167 25.0174 34.335 24.9384 34.2099Z" fill="#FF78B9"/>
<path d="M23.3122 30.8521L20.5996 30.9245L21.8044 33.9927L24.6487 33.6042L23.3122 30.8521Z" fill="black"/>
<path d="M30.1924 30.1674C30.1776 30.1353 30.1532 30.1085 30.1225 30.0908C30.0918 30.0732 30.0565 30.0654 30.0212 30.0687L28.1777 30.2333C28.1502 30.2373 28.1239 30.2475 28.1009 30.263C28.0779 30.2786 28.0587 30.2992 28.0448 30.3233C28.0308 30.3474 28.0225 30.3743 28.0205 30.402C28.0184 30.4297 28.0226 30.4576 28.0329 30.4834L29.1258 33.0051L31.5092 32.6825L30.1924 30.1674Z" fill="black"/>
<path d="M27.9301 11.2549L28.8113 11.2117C28.94 11.2054 29.0686 11.2245 29.1899 11.2679C29.3112 11.3113 29.4228 11.3782 29.5182 11.4647C29.6137 11.5512 29.6912 11.6557 29.7462 11.7721C29.8013 11.8886 29.8329 12.0148 29.8392 12.1434L29.9038 13.4586L27.0629 13.5981L26.9984 12.2829C26.9856 12.023 27.0766 11.7687 27.2514 11.5759C27.4261 11.3832 27.6703 11.2677 27.9301 11.2549V11.2549Z" fill="#FF78B9"/>
<path d="M24.2431 11.2757L25.1217 11.1952C25.3808 11.1715 25.6387 11.2517 25.8387 11.4182C26.0386 11.5846 26.1643 11.8237 26.188 12.0827L26.3081 13.3941L23.4888 13.6521L23.3687 12.3408C23.3452 12.084 23.4237 11.8282 23.5874 11.6289C23.751 11.4295 23.9866 11.3026 24.2431 11.2757V11.2757Z" fill="#FF78B9"/>
<path d="M18.9905 11.0866L21.399 10.8233C21.6576 10.795 21.9169 10.8706 22.1198 11.0335C22.3227 11.1964 22.4525 11.4332 22.4808 11.6918L22.6239 13.0008L18.2519 13.4788L18.1088 12.1699C18.0947 12.0407 18.1063 11.91 18.1431 11.7854C18.1799 11.6607 18.2411 11.5447 18.3231 11.4439C18.4052 11.3431 18.5064 11.2596 18.6209 11.1983C18.7355 11.137 18.8611 11.099 18.9905 11.0866Z" fill="#FF78B9"/>
<path d="M12.4684 31.7738L15.3653 29.7986L37.5927 28.1263C36.2818 29.0314 34.8671 29.7763 33.379 30.3451C31.7659 30.8718 12.4684 31.7738 12.4684 31.7738Z" fill="black"/>
<path d="M13.1729 31.3327C13.0614 31.4088 12.9321 31.4546 12.7976 31.4655C12.663 31.4765 12.528 31.4521 12.4057 31.395C12.2835 31.3378 12.1782 31.2498 12.1003 31.1396C12.0224 31.0294 11.9745 30.9008 11.9614 30.7665L10.8027 18.0924C10.7756 17.7246 10.8261 17.3552 10.9508 17.0081C11.0756 16.6611 11.2718 16.3441 11.5269 16.0777L13.7654 13.7009C14.1341 13.3045 14.626 13.0446 15.1612 12.9635C21.8287 11.9587 28.5924 11.7554 35.3081 12.3578C35.449 12.3719 35.5837 12.4225 35.6991 12.5044C35.8146 12.5864 35.9067 12.6969 35.9665 12.8252C38.2182 17.9212 38.0602 25.2886 37.9417 27.5206C37.9306 27.6678 37.8767 27.8086 37.7866 27.9256C37.6965 28.0425 37.5742 28.1306 37.4347 28.179C37.3727 28.1991 37.3087 28.2123 37.2438 28.2185L16.3068 29.7196C15.6771 29.7652 15.0717 29.9814 14.5555 30.3451L13.1729 31.3327Z" fill="#FFE75C"/>
<path d="M20.7444 6.81409C20.7444 6.81409 18.6771 5.45121 17.7487 6.29396C16.9652 7.01819 17.8475 7.84118 17.8475 7.84118L18.71 8.2033C18.71 8.2033 20.6588 7.59758 20.7444 6.81409Z" fill="#57F287"/>
<path d="M20.086 8.05849C20.0585 8.05903 20.0312 8.05339 20.0061 8.042C19.9811 8.03061 19.9589 8.01375 19.9412 7.99265C17.4525 5.04963 14.8913 6.54418 14.786 6.61002C14.7649 6.62732 14.7403 6.63989 14.7139 6.64689C14.6876 6.6539 14.66 6.65517 14.6331 6.65062C14.6062 6.64608 14.5806 6.63582 14.558 6.62054C14.5354 6.60527 14.5163 6.58532 14.5021 6.56206C14.4878 6.53879 14.4787 6.51274 14.4754 6.48566C14.4721 6.45858 14.4746 6.43111 14.4828 6.40508C14.491 6.37906 14.5046 6.35509 14.5229 6.33479C14.5411 6.31449 14.5634 6.29833 14.5884 6.28741C14.5884 6.28741 17.5249 4.54266 20.2309 7.74246C20.2667 7.77826 20.2868 7.82681 20.2868 7.87743C20.2868 7.92805 20.2667 7.9766 20.2309 8.0124C20.2114 8.02994 20.1884 8.04312 20.1634 8.05107C20.1385 8.05902 20.1121 8.06155 20.086 8.05849V8.05849Z" fill="black"/>
<path d="M17.8343 7.84121C18.2769 8.00725 18.7631 8.01609 19.2114 7.86625C19.6597 7.71641 20.0429 7.417 20.2967 7.01822C21.2975 5.74093 22.634 4.09495 24.5104 4.00936C24.568 3.99286 24.6297 3.99816 24.6836 4.02426C24.7375 4.05035 24.78 4.0954 24.8028 4.15079C24.8256 4.20619 24.8272 4.26805 24.8073 4.32455C24.7873 4.38104 24.7473 4.42822 24.6948 4.45706C24.2257 4.92923 23.8425 5.47955 23.5623 6.0833C22.6274 7.90705 20.4679 9.86248 17.8343 7.84121Z" fill="#29CC7A"/>
<path d="M21.2514 29.3839L37.2372 28.2383C37.3021 28.2321 37.3661 28.2189 37.4281 28.1988C37.5676 28.1504 37.6899 28.0623 37.78 27.9454C37.8701 27.8284 37.924 27.6876 37.9351 27.5404C38.0362 25.5086 38.012 23.4725 37.8627 21.4437L36.48 21.5885C36.0969 21.6292 35.7273 21.7535 35.3974 21.9525C35.0675 22.1516 34.7853 22.4207 34.5707 22.7407L33.3461 24.5579C33.1206 24.8931 32.8211 25.172 32.4706 25.3729C32.1201 25.5739 31.728 25.6915 31.3248 25.7166L23.6743 26.2302C23.2979 26.2528 22.9308 26.3559 22.5977 26.5327C22.2647 26.7094 21.9734 26.9556 21.7437 27.2546C21.514 27.5536 21.3512 27.8984 21.2662 28.2658C21.1813 28.6331 21.1762 29.0144 21.2514 29.3839V29.3839Z" fill="#FFC619"/>
<path d="M15.9447 21.4765C15.512 19.4905 15.4784 17.4382 15.846 15.439V15.3469H15.9316C19.5605 14.6878 23.2387 14.3375 26.9268 14.3C28.4674 14.2907 30.007 14.3831 31.5355 14.5766H31.6211V14.649C32.5692 16.7953 32.6219 20.1531 32.6285 20.298V20.4428H32.4836C27.016 20.4782 21.556 20.8564 16.1357 21.5753H16.004L15.9447 21.4765Z" fill="black"/>
<path d="M26.9531 14.4317C28.4937 14.4225 30.0333 14.5148 31.5618 14.7082C32.5165 16.8546 32.5626 20.298 32.5626 20.298C27.0571 20.3315 21.5593 20.7164 16.1027 21.4502C15.675 19.4834 15.6437 17.4511 16.0106 15.472C19.6286 14.8151 23.2959 14.4671 26.9728 14.4317H26.9531ZM26.9728 14.142C23.2762 14.1829 19.5895 14.5331 15.9513 15.1889L15.767 15.2284L15.7275 15.4061C15.3472 17.4261 15.3786 19.5019 15.8196 21.5095L15.8789 21.7728L16.1488 21.7333C21.5883 21.0065 27.0683 20.6239 32.556 20.5877H32.8457V20.298C32.8457 20.1532 32.7865 16.7624 31.8252 14.5897L31.7594 14.4449H31.5948C30.0659 14.2555 28.5265 14.1632 26.986 14.1684L26.9728 14.142Z" fill="black"/>
<path d="M29.4155 20.3573C26.7819 20.4363 22.9105 20.6272 18.9865 21.0684C18.5793 21.1157 18.1667 21.0764 17.7758 20.9532C17.3848 20.8299 17.0243 20.6255 16.7179 20.3532C16.4114 20.081 16.166 19.747 15.9976 19.3733C15.8291 18.9996 15.7416 18.5945 15.7406 18.1846V17.9607C15.7475 17.2651 16.0027 16.5949 16.4602 16.0709C16.9178 15.547 17.5476 15.2038 18.2359 15.1033C21.9626 14.5382 25.7357 14.3397 29.5011 14.5108C30.1358 14.557 30.7377 14.8109 31.2137 15.2334C31.6897 15.6558 32.0134 16.2233 32.1346 16.8481V16.9205C32.2103 17.3286 32.1977 17.7482 32.0978 18.1511C31.9979 18.554 31.813 18.9308 31.5554 19.2563C31.2979 19.5818 30.9737 19.8485 30.6046 20.0384C30.2355 20.2283 29.83 20.337 29.4155 20.3573V20.3573Z" fill="#7196FF"/>
<path d="M19.105 18.0001C19.1412 17.8897 19.1898 17.7837 19.2499 17.6841C19.3082 17.5814 19.3789 17.4864 19.4606 17.401C19.641 17.1989 19.8893 17.07 20.1585 17.0389C20.3001 17.0217 20.4438 17.0351 20.5798 17.0784C20.7057 17.1197 20.8237 17.182 20.9288 17.2627C21.1123 17.4 21.2667 17.5723 21.3831 17.7697C21.4143 17.8267 21.4222 17.8936 21.405 17.9563C21.3878 18.0189 21.3469 18.0725 21.2909 18.1055C21.2506 18.1313 21.2038 18.145 21.1559 18.145C21.1081 18.145 21.0612 18.1313 21.0209 18.1055C20.8883 17.9941 20.7474 17.8929 20.5996 17.8026C20.4877 17.7373 20.3604 17.7032 20.2309 17.7039C20.0998 17.726 19.977 17.7828 19.8753 17.8685C19.7456 17.9752 19.6265 18.0943 19.5198 18.224V18.224C19.4756 18.2666 19.4166 18.2905 19.3552 18.2905C19.2938 18.2905 19.2348 18.2666 19.1906 18.224C19.1572 18.1981 19.1315 18.1636 19.1164 18.1241C19.1013 18.0846 19.0974 18.0417 19.105 18.0001Z" fill="black"/>
<path d="M29.343 17.3682C29.3742 17.259 29.4208 17.1548 29.4813 17.0587C29.5439 16.9612 29.6168 16.8708 29.6986 16.7888C29.7906 16.6987 29.8976 16.6252 30.0146 16.5715C30.1416 16.513 30.2797 16.4827 30.4195 16.4827C30.5593 16.4827 30.6975 16.513 30.8244 16.5715C30.933 16.6241 31.0329 16.6929 31.1207 16.7756C31.2781 16.9222 31.4075 17.0962 31.5026 17.2891C31.5302 17.3478 31.534 17.415 31.5131 17.4764C31.4923 17.5378 31.4483 17.5887 31.3907 17.6183C31.3479 17.6389 31.2999 17.6461 31.2529 17.6391C31.2059 17.632 31.1622 17.6111 31.1273 17.5788C31.0047 17.4653 30.8749 17.3597 30.7388 17.2628C30.6423 17.1888 30.5294 17.1391 30.4096 17.118C30.2978 17.111 30.1874 17.1462 30.1002 17.2167C29.9757 17.3103 29.8629 17.4186 29.7644 17.5393C29.7213 17.5816 29.6634 17.6052 29.6031 17.6052C29.5428 17.6052 29.4849 17.5816 29.4418 17.5393C29.413 17.5206 29.389 17.4954 29.3718 17.4656C29.3547 17.4359 29.3448 17.4025 29.343 17.3682Z" fill="black"/>
<path d="M27.7432 15.5773C27.0848 15.3666 25.4585 15.0967 22.6472 15.7156C22.4509 15.768 22.2784 15.8861 22.1586 16.0503C22.0388 16.2144 21.9789 16.4146 21.9888 16.6176C21.9888 17.0587 22.0283 17.6578 22.0941 18.2899C22.1042 18.4525 22.1463 18.6116 22.2179 18.758C22.2896 18.9043 22.3895 19.0351 22.5118 19.1428C22.6342 19.2504 22.7766 19.3329 22.9309 19.3854C23.0852 19.4379 23.2483 19.4594 23.4109 19.4487C24.7006 19.3062 25.9984 19.2512 27.2954 19.2841C27.4671 19.2775 27.6356 19.2363 27.7909 19.1628C27.9461 19.0893 28.0849 18.9851 28.1987 18.8565C28.3126 18.7279 28.3992 18.5775 28.4533 18.4145C28.5074 18.2515 28.5278 18.0792 28.5135 17.908C28.5082 17.3346 28.4442 16.7632 28.3225 16.2028C28.2878 16.0575 28.2163 15.9237 28.1148 15.8141C28.0133 15.7045 27.8853 15.623 27.7432 15.5773V15.5773Z" fill="#BACFFF"/>
<path d="M23.7138 18.3821C23.8174 18.3376 23.9256 18.3045 24.0364 18.2833C24.1435 18.2469 24.2537 18.2205 24.3656 18.2043C24.5831 18.1625 24.8065 18.1625 25.024 18.2043C25.0701 18.2181 25.1093 18.2489 25.1337 18.2904C25.1582 18.3319 25.166 18.3811 25.1557 18.4282C25.1486 18.4593 25.1332 18.488 25.1112 18.5112C25.0892 18.5344 25.0613 18.5512 25.0306 18.5598V18.5598C24.9309 18.5874 24.8298 18.6094 24.7277 18.6257L24.4314 18.6718H24.1351H23.8323C23.8098 18.6718 23.7875 18.6673 23.7668 18.6587C23.746 18.6501 23.7271 18.6375 23.7112 18.6216C23.6953 18.6057 23.6827 18.5869 23.6741 18.5661C23.6655 18.5453 23.6611 18.5231 23.6611 18.5006C23.6624 18.4557 23.6814 18.4131 23.7138 18.3821Z" fill="#5C86FF"/>
<path d="M26.2091 18.1121C26.3032 18.0705 26.4031 18.0438 26.5054 18.0331C26.6061 18.0232 26.7075 18.0232 26.8083 18.0331C27.0189 18.0392 27.2229 18.108 27.3942 18.2306C27.4139 18.2438 27.4307 18.2608 27.4437 18.2807C27.4567 18.3005 27.4657 18.3227 27.47 18.346C27.4743 18.3693 27.4738 18.3932 27.4687 18.4164C27.4637 18.4395 27.454 18.4614 27.4403 18.4808C27.4233 18.5052 27.4007 18.5251 27.3743 18.5389C27.3479 18.5527 27.3186 18.5598 27.2889 18.5598C27.1967 18.5598 27.1177 18.5598 27.0387 18.5598H26.7885H26.5317C26.4463 18.5667 26.3604 18.5667 26.2749 18.5598V18.5598C26.2523 18.5559 26.2306 18.5474 26.2113 18.5349C26.192 18.5225 26.1753 18.5062 26.1624 18.4871C26.1495 18.4681 26.1406 18.4466 26.1362 18.424C26.1317 18.4015 26.1319 18.3782 26.1367 18.3557C26.1252 18.335 26.1179 18.3122 26.1153 18.2887C26.1128 18.2652 26.1149 18.2414 26.1217 18.2187C26.1284 18.196 26.1396 18.1749 26.1546 18.1566C26.1696 18.1383 26.1882 18.1231 26.2091 18.1121V18.1121Z" fill="#5C86FF"/>
<path d="M31.4433 14.5568C31.4433 14.5568 20.7444 13.7931 15.846 16.8217L16.59 15.2284C16.59 15.2284 26.2223 13.5824 31.4433 14.5568Z" fill="black"/>
<path d="M34.6168 16.6505C35.4631 16.5962 36.3119 16.5962 37.1582 16.6505C37.1253 16.5188 37.0989 16.3872 37.066 16.2555C36.2416 16.2058 35.4149 16.2058 34.5905 16.2555C34.5654 16.2571 34.5408 16.2638 34.5183 16.2749C34.4958 16.2861 34.4757 16.3016 34.4592 16.3206C34.4426 16.3396 34.43 16.3616 34.4221 16.3855C34.4141 16.4093 34.4109 16.4345 34.4127 16.4596C34.4135 16.4855 34.4195 16.511 34.4302 16.5347C34.4409 16.5583 34.4562 16.5796 34.4752 16.5974C34.4941 16.6151 34.5164 16.6289 34.5407 16.638C34.565 16.6472 34.5909 16.6514 34.6168 16.6505V16.6505Z" fill="#FFC619"/>
<path d="M34.8209 17.3616C34.7702 17.3616 34.7217 17.3817 34.6859 17.4175C34.6501 17.4533 34.6299 17.5019 34.6299 17.5525C34.6299 17.6032 34.6501 17.6518 34.6859 17.6876C34.7217 17.7234 34.7702 17.7435 34.8209 17.7435C35.6629 17.6931 36.5071 17.6931 37.3491 17.7435C37.3491 17.6118 37.303 17.4867 37.2767 17.355C36.4586 17.3104 35.6387 17.3126 34.8209 17.3616V17.3616Z" fill="#FFC619"/>
<path d="M37.494 18.4611C36.6805 18.4114 35.8648 18.4114 35.0513 18.4611C35.0007 18.4611 34.9521 18.4813 34.9163 18.5171C34.8805 18.5529 34.8604 18.6014 34.8604 18.6521C34.8604 18.7027 34.8805 18.7513 34.9163 18.7871C34.9521 18.8229 35.0007 18.843 35.0513 18.843C35.8759 18.7963 36.7024 18.7963 37.5269 18.843L37.494 18.4611Z" fill="#FFC619"/>
<path d="M18.7166 27.7181L17.7158 23.4517H17.571C15.67 23.4316 13.7734 23.6394 11.9219 24.0706L11.6981 24.1233L13.5679 28.5148L13.7325 28.4621C15.2855 28.0473 16.8799 27.8066 18.4861 27.7444L18.7166 27.7181ZM13.7852 28.0341L12.2314 24.38C13.9304 24.0023 15.6658 23.8124 17.4064 23.8138L18.2359 27.356C16.7327 27.426 15.241 27.6533 13.7852 28.0341V28.0341Z" fill="#FFC619"/>
<path d="M13.9169 13.5561C12.2775 19.6002 14.516 27.2178 15.1876 29.2588C15.2394 29.4129 15.2399 29.5796 15.1888 29.734C15.1378 29.8883 15.038 30.022 14.9044 30.1147L12.633 31.7146C12.5946 31.7432 12.5501 31.7625 12.503 31.771C12.4559 31.7794 12.4075 31.7769 12.3616 31.7635C12.3156 31.7501 12.2734 31.7262 12.2382 31.6937C12.2031 31.6613 12.1759 31.6211 12.1589 31.5763C11.5005 29.9369 9.01182 23.1423 10.5459 17.4011C10.6307 17.1013 10.7892 16.8275 11.0068 16.6045L13.9169 13.5561Z" fill="#FFC619"/>
<path d="M12.5869 19.8109C12.5897 19.6811 12.5646 19.5522 12.5133 19.4329C12.462 19.3136 12.3858 19.2066 12.2897 19.1193C12.1936 19.0319 12.0799 18.9662 11.9563 18.9265C11.8327 18.8868 11.702 18.8741 11.573 18.8891L8.93941 19.1328C8.80433 19.1443 8.67287 19.1825 8.55263 19.2452C8.43239 19.3078 8.32573 19.3936 8.23882 19.4977C8.15191 19.6017 8.08645 19.7219 8.04623 19.8514C8.00601 19.9809 7.99183 20.117 8.00449 20.252L8.23493 22.7342L10.2496 22.5498L10.2101 21.5227C10.2038 21.4611 10.2099 21.3989 10.2282 21.3397C10.2465 21.2805 10.2765 21.2257 10.3164 21.1783C10.3563 21.131 10.4054 21.0922 10.4607 21.0643C10.5159 21.0364 10.5763 21.0199 10.6381 21.0158L11.6059 20.9236C11.8754 20.8859 12.1224 20.7529 12.3024 20.5488C12.4823 20.3447 12.5833 20.083 12.5869 19.8109V19.8109Z" fill="#D11583"/>
<path d="M9.31872 23.1515C9.87633 23.1001 10.3059 22.8147 10.2782 22.5142C10.2505 22.2137 9.77595 22.0117 9.21834 22.0632C8.66073 22.1146 8.23117 22.3999 8.25889 22.7005C8.28661 23.001 8.76111 23.2029 9.31872 23.1515Z" fill="black"/>
<path d="M13.8839 24.0838C13.8839 23.9587 13.8379 23.8271 13.8115 23.6954C12.6007 24.2166 11.4875 24.9402 10.5195 25.8352C10.5195 25.9932 10.5788 26.1446 10.6117 26.296C11.5563 25.3626 12.6658 24.6126 13.8839 24.0838V24.0838Z" fill="#FFA027"/>
<path d="M14.8189 28.1593C14.786 28.0408 14.753 27.9157 14.7135 27.7906C13.5575 28.3036 12.4837 28.9847 11.5269 29.8119L11.6586 30.2069C12.6034 29.3698 13.6687 28.6795 14.8189 28.1593V28.1593Z" fill="#F79414"/>
</svg>
