<svg width="45" height="45" viewBox="0 0 45 45" fill="none" xmlns="http://www.w3.org/2000/svg">
<g clip-path="url(#clip0_85_578)">
<rect width="45" height="45" rx="22.5" fill="#FFA840"/>
<path d="M19.8444 55.4501C19.4789 55.4515 19.1167 55.3804 18.7787 55.2409C18.4405 55.1013 18.1331 54.8961 17.8739 54.6369C17.6147 54.3777 17.4089 54.0697 17.2681 53.7304C17.1275 53.3912 17.0546 53.0273 17.0539 52.6597C17.0468 50 17.0362 46.0217 17.0314 43.3691C17.0302 42.6272 17.3218 41.9151 17.8421 41.3892C18.3624 40.8633 19.069 40.5668 19.8065 40.5646C20.544 40.5642 21.2515 40.8585 21.7734 41.3825C22.2953 41.9067 22.589 42.6178 22.5899 43.3597C22.5899 46.011 22.6053 49.9858 22.6124 52.6442C22.6134 53.0119 22.5422 53.3761 22.4032 53.7161C22.2642 54.0561 22.0599 54.3651 21.8021 54.6257C21.5443 54.8863 21.238 55.0932 20.9006 55.2346C20.5633 55.3761 20.2015 55.4493 19.8361 55.4501H19.8444Z" fill="#7196FF"/>
<path d="M30.4737 52.0669C29.411 49.6649 27.8309 46.087 26.7622 43.6637C26.1894 42.3641 26.6051 40.7938 27.8144 40.0561C28.1527 39.8479 28.5313 39.7148 28.9248 39.6657C29.3184 39.6165 29.7179 39.6524 30.0965 39.771C30.4752 39.8897 30.8243 40.0883 31.1205 40.3536C31.4167 40.6188 31.6531 40.9447 31.8141 41.3093C32.8769 43.7314 34.4877 47.3676 35.5612 49.7944C35.7094 50.1306 35.7903 50.4928 35.7994 50.8604C35.8084 51.2281 35.7453 51.5939 35.6137 51.937C35.4821 52.2801 35.2846 52.5937 35.0324 52.86C34.7802 53.1262 34.4783 53.3399 34.1441 53.4887C33.4699 53.7895 32.7045 53.8086 32.0163 53.542C31.3281 53.2754 30.7733 52.7448 30.4737 52.0669Z" fill="#7196FF"/>
<path d="M7.28192 44.6663C7.28192 44.614 7.28192 44.563 7.28192 44.5095C7.51807 40.4493 8.34469 36.8096 11.5781 32.2386C11.9508 31.7111 12.5166 31.354 13.1509 31.2461C13.7853 31.1382 14.4363 31.2882 14.9607 31.663C15.4852 32.038 15.8401 32.607 15.9474 33.2452C16.0547 33.8833 15.9056 34.5382 15.5329 35.0657C12.9491 38.7161 12.328 41.3972 12.1295 44.7922C12.0954 45.4268 11.8165 46.0229 11.3521 46.4538C10.8878 46.8847 10.2747 47.1163 9.64311 47.0995C9.01156 47.0826 8.41152 46.8186 7.97052 46.3635C7.52953 45.9084 7.28248 45.2982 7.28192 44.6627V44.6663Z" fill="url(#paint0_linear_85_578)"/>
<path d="M11.9935 28.4168L7.54753 29.7926C6.95811 29.975 6.32078 29.9145 5.77582 29.6241C5.23079 29.3339 4.82272 28.8378 4.64138 28.2448L3.1028 23.214C2.92145 22.621 2.98173 21.98 3.27029 21.4317C3.55884 20.8835 4.0521 20.4731 4.64151 20.2907L9.08751 18.9148L11.9939 28.4179L11.9935 28.4168Z" fill="#7196FF"/>
<path d="M9.67163 27.3L7.45148 27.9871C7.15659 28.0783 6.83779 28.048 6.56513 27.9028C6.29248 27.7576 6.08834 27.5093 5.99766 27.2128L4.8011 23.3003C4.71036 23.0036 4.74053 22.6829 4.88488 22.4087C5.02923 22.1344 5.276 21.9291 5.57081 21.8379L7.79096 21.1508L9.67163 27.3Z" fill="#BACFFF"/>
<path d="M29.8338 12.4922L34.2798 11.1163C34.5718 11.0258 34.8787 10.9941 35.1828 11.0229C35.4871 11.0517 35.7826 11.1406 36.0527 11.2844C36.3227 11.4283 36.5619 11.6242 36.7566 11.8611C36.9513 12.098 37.0977 12.3711 37.1874 12.6649L38.726 17.6958C38.9073 18.2887 38.8471 18.9298 38.5585 19.478C38.2699 20.0262 37.7767 20.4367 37.1872 20.6191L32.7402 21.9953L29.8338 12.4922Z" fill="#7196FF"/>
<path d="M32.1554 13.6083L34.3778 12.9206C34.6727 12.8294 34.9915 12.8597 35.2641 13.0049C35.5368 13.1501 35.7409 13.3983 35.8317 13.6949L37.0286 17.6086C37.1192 17.9052 37.0891 18.2259 36.9448 18.5001C36.8004 18.7744 36.5537 18.9797 36.2588 19.071L34.0364 19.7587L32.1554 13.6083Z" fill="#BACFFF"/>
<path d="M30.4347 23.4302L12.8805 29.7201L12.2747 38.0948C12.1626 39.6508 12.5758 41.1995 13.4473 42.49C14.138 43.5132 15.088 44.3321 16.1991 44.8617C17.3101 45.3914 18.5418 45.6127 19.7664 45.5024L30.4134 44.5427C31.6938 44.4273 32.9068 43.914 33.884 43.0738C34.8613 42.2337 35.5543 41.1084 35.8669 39.854C36.1908 38.5525 36.0885 37.1807 35.5752 35.9423L30.4347 23.4302Z" fill="#7196FF"/>
<path d="M12.4942 35.0481L31.7407 26.6188L31.24 25.3953L12.8272 30.4474L12.4942 35.0481Z" fill="#4F79F0"/>
<path d="M26.6817 8.22691L8.97252 13.6082C6.1982 14.4512 4.62859 17.3969 5.46668 20.1876L7.82731 28.0482C8.66532 30.839 11.5938 32.4178 14.368 31.5748L32.0772 26.1935C34.8514 25.3505 36.421 22.4048 35.583 19.6141L33.2224 11.7535C32.3843 8.9628 29.4559 7.3839 26.6817 8.22691Z" fill="#7196FF"/>
<path d="M13.0009 16.9288L23.1276 13.795C23.5524 13.6635 24.0117 13.7072 24.4045 13.9164C24.7972 14.1256 25.0913 14.4832 25.222 14.9104L26.4206 18.8298C26.743 19.8837 26.6359 21.0233 26.1229 21.9977C25.61 22.9723 24.7332 23.7019 23.6855 24.0261L18.5759 25.6073C17.4434 25.9578 16.219 25.8414 15.1718 25.2837C14.1247 24.726 13.3408 23.7727 12.9923 22.6336L11.892 19.0355C11.7613 18.6083 11.8047 18.1462 12.0126 17.7512C12.2207 17.356 12.5761 17.0603 13.0009 16.9288V16.9288Z" fill="#BACFFF"/>
<path d="M28.9563 16.6367C29.823 16.6367 30.5257 15.9299 30.5257 15.058C30.5257 14.1861 29.823 13.4793 28.9563 13.4793C28.0895 13.4793 27.3869 14.1861 27.3869 15.058C27.3869 15.9299 28.0895 16.6367 28.9563 16.6367V16.6367Z" fill="#202225"/>
<path d="M9.56573 22.6354C10.4325 22.6354 11.1352 21.9286 11.1352 21.0568C11.1352 20.1849 10.4325 19.478 9.56573 19.478C8.69901 19.478 7.99634 20.1849 7.99634 21.0568C7.99634 21.9286 8.69901 22.6354 9.56573 22.6354Z" fill="#202225"/>
<path d="M17.5131 21.8052L16.1225 22.2355C15.7391 22.3541 15.524 22.7629 15.6419 23.1486L15.6423 23.1497C15.7602 23.5354 16.1666 23.7518 16.55 23.6332L17.9406 23.2029C18.3239 23.0842 18.5391 22.6754 18.4212 22.2898L18.4208 22.2887C18.3029 21.903 17.8965 21.6866 17.5131 21.8052V21.8052Z" fill="#7196FF"/>
<path d="M22.8343 20.1576L20.8884 20.7597C20.505 20.8784 20.2898 21.2872 20.4078 21.6728L20.4082 21.6739C20.5261 22.0595 20.9325 22.276 21.3159 22.1574L23.2618 21.5552C23.6451 21.4366 23.8603 21.0278 23.7423 20.6421L23.742 20.641C23.624 20.2553 23.2176 20.0389 22.8343 20.1576Z" fill="#7196FF"/>
<path d="M41.9888 23.8578C41.9675 23.9042 41.9463 23.9517 41.9227 23.998C40.0816 27.6199 37.8745 30.6217 33.0848 33.5012C32.8112 33.6654 32.5081 33.7739 32.1929 33.8203C31.8777 33.8668 31.5564 33.8504 31.2476 33.7719C30.9386 33.6935 30.6481 33.5547 30.3926 33.3632C30.137 33.1719 29.9214 32.9317 29.7582 32.6566C29.5948 32.3814 29.487 32.0766 29.4408 31.7595C29.3947 31.4424 29.411 31.1192 29.4889 30.8085C29.567 30.4978 29.705 30.2055 29.8953 29.9485C30.0855 29.6914 30.3242 29.4746 30.5978 29.3103C34.4227 27.0129 36.063 24.8105 37.6017 21.7814C37.8908 21.2212 38.3845 20.7954 38.9789 20.5934C39.5734 20.3914 40.2226 20.4289 40.7902 20.698C41.3578 20.9672 41.7997 21.4469 42.0232 22.0368C42.2467 22.6266 42.2344 23.2805 41.9888 23.8614V23.8578Z" fill="#7196FF"/>
<path d="M38.8511 38.7256L36.6854 41.94C36.6479 41.9977 36.6264 42.0643 36.6234 42.1331C36.6203 42.2019 36.6357 42.2703 36.6679 42.331C36.7002 42.3918 36.7481 42.4427 36.8066 42.4784C36.8651 42.5141 36.9322 42.5333 37.0006 42.534H40.8622C41.2552 42.5335 41.6423 42.437 41.99 42.2528C42.3378 42.0687 42.636 41.8024 42.8588 41.4767C43.0817 41.1511 43.2227 40.776 43.2696 40.3835C43.3166 39.9909 43.2681 39.5928 43.1284 39.2233C42.9697 38.8063 42.7005 38.441 42.3499 38.1671C41.9993 37.8932 41.5807 37.7213 41.1398 37.67C40.6988 37.6187 40.2523 37.69 39.8488 37.8761C39.4453 38.0621 39.1002 38.356 38.8511 38.7256V38.7256Z" fill="#7196FF"/>
</g>
<defs>
<linearGradient id="paint0_linear_85_578" x1="17.4301" y1="36.8182" x2="5.81509" y2="41.446" gradientUnits="userSpaceOnUse">
<stop stop-color="#7196FF"/>
<stop offset="1" stop-color="#567EF7"/>
</linearGradient>
<clipPath id="clip0_85_578">
<rect width="45" height="45" rx="22.5" fill="white"/>
</clipPath>
</defs>
</svg>
