<svg width="59" height="59" viewBox="0 0 59 59" fill="none" xmlns="http://www.w3.org/2000/svg">
<path d="M14.9803 53.4937V43.8034H10.1023C8.80855 43.8034 7.5678 43.2929 6.653 42.3842C5.73819 41.4756 5.22426 40.2432 5.22426 38.9582V9.88716C5.22426 8.60214 5.73819 7.36976 6.653 6.46111C7.5678 5.55246 8.80855 5.04199 10.1023 5.04199H49.1264C50.4202 5.04199 51.6609 5.55246 52.5757 6.46111C53.4905 7.36976 54.0045 8.60214 54.0045 9.88716V38.9582C54.0045 40.2432 53.4905 41.4756 52.5757 42.3842C51.6609 43.2929 50.4202 43.8034 49.1264 43.8034H27.9883L14.9803 53.4937ZM10.1023 9.88716V38.9582H19.8583V43.8034L26.3623 38.9582H49.1264V9.88716H10.1023Z" fill="#99AAB5"/>
<path d="M22.2862 14.7326H17.4081V34.1133H22.2862V14.7326Z" fill="#99AAB5"/>
<path d="M32.0535 24.423H27.1754V34.1133H32.0535V24.423Z" fill="#99AAB5"/>
<path d="M41.804 19.5776H36.926V34.1131H41.804V19.5776Z" fill="#99AAB5"/>
</svg>
