<svg width="60" height="60" viewBox="0 0 60 60" fill="none" xmlns="http://www.w3.org/2000/svg">
<path d="M47.5891 10.7408V13.4885L12.3651 21.1419V45.1739C12.3651 46.2276 13.0978 47.1434 14.1451 47.4029L23.5381 49.6983C23.726 49.7419 23.9186 49.7649 24.1064 49.7649C24.8367 49.7649 25.5342 49.4322 25.9851 48.8468L26.4795 48.2024V40.549L23.1624 44.8732L17.0616 43.381V38.0852L26.4795 40.1332V34.9359C26.4795 31.0564 29.6667 27.9116 33.5984 27.9116H52.2857V10.7408H47.5891Z" fill="#99AAB5"/>
<path d="M10.0162 21.1311H5.31963V38.2875H10.0162V21.1311Z" fill="#99AAB5"/>
<path d="M31.2158 34.936C31.2158 33.6428 32.2782 32.5945 33.5888 32.5945H56.1321C57.4424 32.5945 58.5051 33.6428 58.5051 34.936V50.3049C58.5051 51.5979 57.4424 52.6464 56.1321 52.6464H45.1803C44.5925 52.6464 44.0257 52.8615 43.5894 53.2503L37.5457 58.6378C37.1643 58.9778 36.555 58.7107 36.555 58.2034V53.2318C36.555 52.9083 36.2893 52.6464 35.9618 52.6464H33.5888C32.2782 52.6464 31.2158 51.5979 31.2158 50.3049V34.936Z" fill="#99AAB5"/>
</svg>
