<svg width="59" height="60" viewBox="0 0 59 60" fill="none" xmlns="http://www.w3.org/2000/svg">
<path d="M29.6647 4.96057C16.216 4.96057 5.27456 16.0862 5.27456 29.7613C5.27456 43.4389 16.216 54.562 29.6647 54.562C34.6378 54.562 39.4036 53.069 43.4499 50.2442L40.6914 46.157C37.4573 48.4089 33.6476 49.6019 29.6647 49.6019C18.9062 49.6019 10.1526 40.7009 10.1526 29.7613C10.1526 18.8217 18.9062 9.92071 29.6647 9.92071C40.4231 9.92071 49.1767 18.8217 49.1767 29.7613V31.7007C49.1767 35.143 47.7182 37.2015 45.2743 37.2015L45.2694 37.2461C45.1231 37.2139 44.9646 37.2015 44.8085 37.2015H44.2987C42.9255 37.2015 40.8841 35.1728 40.8841 33.8063V29.7613C40.8841 23.4718 35.8524 18.353 29.6647 18.353C23.4769 18.353 18.4452 23.4693 18.4452 29.7613C18.4452 36.0532 23.4769 41.1696 29.6647 41.1696C32.6744 41.1696 35.3963 39.9445 37.4134 37.9778C38.9963 40.3487 41.689 42.1616 44.2987 42.1616L44.3036 42.1145C44.4548 42.1468 44.6133 42.1616 44.7743 42.1616H45.2743C50.5231 42.1616 54.0547 37.9604 54.0547 31.7007V29.7613C54.0547 16.0862 43.1133 4.96057 29.6647 4.96057ZM29.6647 36.207C26.1671 36.207 23.3232 33.3152 23.3232 29.7588C23.3232 26.2024 26.1671 23.3106 29.6647 23.3106C33.1622 23.3106 36.0061 26.2024 36.0061 29.7588C36.0061 33.3152 33.1622 36.207 29.6647 36.207Z" fill="#99AAB5"/>
</svg>
