<svg width="59" height="60" viewBox="0 0 59 60" fill="none" xmlns="http://www.w3.org/2000/svg">
<path d="M51.5289 4.98969L54.9661 8.45006L10.0669 53.6551L6.62973 50.1923L51.5289 4.98969Z" fill="#99AAB5"/>
<path d="M43.8074 26.5772L25.6461 44.8621H51.0998V42.4149C47.0744 42.4149 43.8074 39.1283 43.8074 35.0732V26.5772Z" fill="#99AAB5"/>
<path d="M21.8174 48.7087L23.2073 47.3093H37.5882C35.9037 50.2215 32.802 52.2038 29.2141 52.2038C26.2361 52.2038 23.5932 50.8382 21.8174 48.7087Z" fill="#99AAB5"/>
<path d="M29.2182 8.15381C32.6627 8.15381 35.8057 9.37742 38.2948 11.3866L14.6287 35.2152C14.6287 35.1905 14.6299 35.1663 14.6312 35.1425C14.6324 35.1193 14.6336 35.0963 14.6336 35.0733V22.8371C14.6336 14.727 21.1627 8.15381 29.2182 8.15381Z" fill="#99AAB5"/>
</svg>
