<svg width="60" height="60" viewBox="0 0 60 60" fill="none" xmlns="http://www.w3.org/2000/svg">
<path d="M49.6372 13.5746C50.3409 11.938 49.1366 10.1176 47.3502 10.1176H42.8765C41.9275 10.1176 41.0611 10.6556 40.6428 11.5047L33.4375 26.1341C33.1023 26.8144 32.9281 27.5621 32.9281 28.3198V47.3186C32.9281 48.6884 34.0421 49.7987 35.4164 49.7987H50.0351C51.4094 49.7987 52.5234 48.6884 52.5234 47.3186V32.1282C52.5234 30.7584 51.4094 29.6481 50.0351 29.6481H44.6126C43.7193 29.6481 43.1171 28.7379 43.469 27.9195L49.6372 13.5746ZM24.4433 13.5746C25.147 11.938 23.9426 10.1176 22.1562 10.1176H17.6826C16.7336 10.1176 15.8672 10.6556 15.449 11.5047L8.2435 26.1341C7.90846 26.8144 7.73425 27.5621 7.73425 28.3198V47.3186C7.73425 48.6884 8.84831 49.7987 10.2225 49.7987H24.8412C26.2155 49.7987 27.3295 48.6884 27.3295 47.3186V32.1282C27.3295 30.7584 26.2155 29.6481 24.8412 29.6481H19.4187C18.5255 29.6481 17.9233 28.7379 18.2751 27.9195L24.4433 13.5746Z" fill="#99AAB5"/>
</svg>
