<svg width="60" height="59" viewBox="0 0 60 59" fill="none" xmlns="http://www.w3.org/2000/svg">
<path d="M45.3412 39.316C45.3412 32.8337 41.6871 29.311 36.1704 27.6199C40.4692 25.8586 43.3351 22.547 43.3351 17.474C43.3351 9.79413 38.0332 4.86206 26.9276 4.86206H12.5262V53.478H26.7128C38.3196 53.478 45.3412 48.8982 45.3412 39.316ZM34.5224 18.2491C34.5224 22.4061 31.5848 24.8721 25.9962 24.8721H21.6256V11.9783H26.426C32.158 11.9783 34.5224 14.3739 34.5224 18.2491ZM36.2418 39.0342C36.2418 43.8958 32.731 46.3619 26.7128 46.3619H21.6256V31.4951H26.5694C32.8744 31.4951 36.2418 34.1021 36.2418 39.0342Z" fill="#99AAB5"/>
</svg>
