<svg width="60" height="59" viewBox="0 0 60 59" fill="none" xmlns="http://www.w3.org/2000/svg">
<path d="M53.5863 20.0768C52.8571 19.6304 51.945 19.5938 51.1812 19.9694L44.8706 23.0841V17.2743C44.8706 14.5841 42.6533 12.3963 39.9269 12.3963H10.2646C7.53811 12.3963 5.32085 14.5841 5.32085 17.2743V41.6645C5.32085 44.3571 7.53811 46.5425 10.2646 46.5425H39.9269C42.6533 46.5425 44.8706 44.3571 44.8706 41.6645V35.8547L51.1812 38.9669C51.5298 39.1401 51.908 39.2255 52.2861 39.2255C52.7385 39.2255 53.1884 39.1011 53.5863 38.862C54.3131 38.4157 54.758 37.6328 54.758 36.7864V22.1524C54.758 21.306 54.3131 20.5231 53.5863 20.0768Z" fill="#99AAB5"/>
</svg>
