<svg width="59" height="59" viewBox="0 0 59 59" fill="none" xmlns="http://www.w3.org/2000/svg">
<path d="M51.8333 2.9234L56.143 7.23557L48.5431 14.8355L56.143 22.4355L51.8333 26.7476L44.2309 19.1477L36.6309 26.7476L32.3212 22.4355L39.9212 14.8355L32.3212 7.23557L36.6309 2.9234L44.2309 10.5234L51.8333 2.9234ZM44.2311 53.8596H32.0361C17.2191 53.8596 5.20697 41.8475 5.20697 27.0305V14.8355C5.20697 13.4867 6.29965 12.3964 7.64598 12.3964H17.402C18.7508 12.3964 19.841 13.4867 19.841 14.8355V24.5915C19.841 25.9403 18.7508 27.0305 17.402 27.0305H14.963C15.1167 36.6353 22.28 44.1036 32.0361 44.1036V41.6646C32.0361 40.3158 33.1263 39.2256 34.4751 39.2256H44.2311C45.5799 39.2256 46.6701 40.3158 46.6701 41.6646V51.4206C46.6701 52.7694 45.5799 53.8596 44.2311 53.8596Z" fill="#99AAB5"/>
</svg>
