<svg width="59" height="59" viewBox="0 0 59 59" fill="none" xmlns="http://www.w3.org/2000/svg">
<path d="M27.4964 12.3965V7.51843C40.8117 7.51843 51.6401 18.4598 51.6401 31.9085H46.8114C46.8114 21.1501 38.1462 12.3965 27.4964 12.3965ZM41.9826 31.9085H37.1539C37.1539 26.5305 32.8225 22.1525 27.4964 22.1525V17.2745C35.4856 17.2745 41.9826 23.8379 41.9826 31.9085ZM27.4964 27.0305V31.9085H32.3251C32.3251 29.2159 30.1643 27.0305 27.4964 27.0305ZM34.7395 39.2256H44.397C45.7322 39.2256 46.8114 40.3158 46.8114 41.6646V51.4206C46.8114 52.7694 45.7322 53.8596 44.397 53.8596H32.3251C17.6578 53.8596 5.76703 41.8475 5.76703 27.0305V14.8355C5.76703 13.4867 6.84867 12.3965 8.1814 12.3965H17.8389C19.174 12.3965 20.2533 13.4867 20.2533 14.8355V24.5915C20.2533 25.9403 19.174 27.0305 17.8389 27.0305H15.4245C15.5766 36.6353 22.6676 44.1036 32.3251 44.1036V41.6646C32.3251 40.3158 33.4044 39.2256 34.7395 39.2256Z" fill="#99AAB5"/>
</svg>
