<svg width="59" height="59" viewBox="0 0 59 59" fill="none" xmlns="http://www.w3.org/2000/svg">
<g clip-path="url(#clip0_102_3293)">
<path d="M16.7911 46.5425H39.3697C42.0599 46.5425 44.2477 44.3571 44.2477 41.6645V35.8547L50.4745 38.9669C50.8184 39.1401 51.1915 39.2255 51.5647 39.2255C52.011 39.2255 52.4549 39.1011 52.8476 38.862C53.5647 38.4157 54.0037 37.6328 54.0037 36.7864V22.1524C54.0037 21.306 53.5647 20.5231 52.8476 20.0768C52.1281 19.6304 51.2281 19.5938 50.4745 19.9694L44.2477 23.0841V19.0859L16.7911 46.5425ZM30.2414 12.3963H10.1015C7.41132 12.3963 5.22353 14.5841 5.22353 17.2743V37.4142L30.2414 12.3963Z" fill="#99AAB5"/>
<path d="M45.1812 4.0492L0.340622 48.8899L3.7899 52.3392L48.6305 7.49848L45.1812 4.0492Z" fill="#99AAB5"/>
</g>
<defs>
<clipPath id="clip0_102_3293">
<rect width="58.5363" height="58.5363" fill="white" transform="translate(0.340576 0.201538)"/>
</clipPath>
</defs>
</svg>
