<svg width="60" height="59" viewBox="0 0 60 59" fill="none" xmlns="http://www.w3.org/2000/svg">
<g clip-path="url(#clip0_102_3296)">
<path d="M56.3472 11.9087V7.51851C56.3472 3.42097 52.4799 0.201477 48.6126 0.201477C44.7452 0.201477 40.8779 3.42097 40.8779 7.51851V11.9087C39.2205 11.9087 37.5631 13.6648 37.5631 15.4209V25.6647C37.5631 27.7135 39.2205 29.4696 40.8779 29.4696H56.0709C58.0046 29.4696 59.662 27.7135 59.662 25.9574V15.7136C59.662 13.6648 58.0046 11.9087 56.3472 11.9087ZM52.2957 11.177H44.9294V7.25719C44.9294 5.16661 46.6482 3.85999 48.6126 3.85999C50.5769 3.85999 52.2957 5.16661 52.2957 7.25719V11.177Z" fill="#99AAB5"/>
</g>
<defs>
<clipPath id="clip0_102_3296">
<rect width="58.9304" height="58.5363" fill="white" transform="translate(0.731689 0.201538)"/>
</clipPath>
</defs>
</svg>
