<svg width="60" height="60" viewBox="0 0 60 60" fill="none" xmlns="http://www.w3.org/2000/svg">
<path d="M49.8132 4.98977V11.3183L41.6463 3.25958L38.1395 6.71995L46.3064 14.7787H39.8929V19.6731H54.7733V4.98977H49.8132ZM12.6121 36.8036H20.0523V22.1202C20.0523 19.4234 22.2769 17.2258 25.0125 17.2258H34.9328V9.88414C34.9328 7.1873 32.7081 4.98969 29.9726 4.98969H12.6121C9.87659 4.98969 7.65197 7.1873 7.65197 9.88414V31.9092C7.65197 34.606 9.87659 36.8036 12.6121 36.8036ZM29.9726 22.1202H47.3331C50.0686 22.1202 52.2933 24.3179 52.2933 27.0148V49.0398C52.2933 51.739 50.0686 53.9342 47.3331 53.9342H29.9726C27.2371 53.9342 25.0125 51.739 25.0125 49.0398V27.0148C25.0125 24.3179 27.2371 22.1202 29.9726 22.1202ZM39.8929 31.9092V29.462H29.9726V31.9092H39.8929ZM29.9726 46.5925H47.3331V44.1453H29.9726V46.5925ZM29.9726 39.2509H47.3331V36.8036H29.9726V39.2509Z" fill="#99AAB5"/>
</svg>
