<svg width="60" height="60" viewBox="0 0 60 60" fill="none" xmlns="http://www.w3.org/2000/svg">
<path d="M34.9845 20.497C34.9845 19.15 33.8925 18.058 32.5455 18.058H24.6431L26.1204 9.73457C26.2531 8.98747 25.6784 8.30194 24.9198 8.30194H22.5189C21.9276 8.30194 21.4215 8.72611 21.3182 9.30833L19.7651 18.058H11.0337C10.4413 18.058 9.93453 18.4837 9.83241 19.0673L9.40559 21.5063C9.275 22.2525 9.84924 22.936 10.6068 22.936H18.9114L16.3261 37.5701H7.59467C7.00226 37.5701 6.49553 37.9959 6.39341 38.5793L5.96658 41.0183C5.836 41.7647 6.41024 42.4481 7.16784 42.4481H15.4724L13.995 50.7715C13.8624 51.5185 14.437 52.2041 15.1957 52.2041H17.5966C18.1879 52.2041 18.694 51.78 18.7974 51.1978L20.3504 42.4481H34.9845L33.5072 50.7715C33.3745 51.5185 33.9491 52.2041 34.7079 52.2041H37.1086C37.7001 52.2041 38.2062 51.78 38.3093 51.1978L39.8625 42.4481H48.5939C49.1864 42.4481 49.6932 42.0222 49.7951 41.4388L50.222 38.9998C50.3527 38.2535 49.7783 37.5701 49.0208 37.5701H40.7162L41.5108 33.072C41.7705 31.6016 40.6396 30.253 39.1462 30.253C37.9811 30.253 36.9842 31.0894 36.7816 32.2367L35.8391 37.5701H21.2052L23.7905 22.936H32.5455C33.8925 22.936 34.9845 21.844 34.9845 20.497Z" fill="#99AAB5"/>
<path d="M52.1146 13.1799V10.7409C52.1146 8.00924 49.7365 5.86292 47.1756 5.86292C44.6146 5.86292 42.2975 8.00924 42.2975 10.7409V13.1799C40.9505 13.1799 39.8585 14.2719 39.8585 15.619V22.936C39.8585 24.283 40.9505 25.375 42.2975 25.375H47.1756H52.0536C53.4007 25.375 54.4926 24.283 54.4926 22.936V15.558C54.4926 14.2446 53.428 13.1799 52.1146 13.1799ZM49.6146 13.1799H44.7366V10.7409C44.7366 9.34721 45.8748 8.30192 47.1756 8.30192C48.4763 8.30192 49.6146 9.34721 49.6146 10.7409V13.1799Z" fill="#99AAB5"/>
</svg>
