<svg width="59" height="60" viewBox="0 0 59 60" fill="none" xmlns="http://www.w3.org/2000/svg">
<path d="M14.3627 52.2041C13.6065 52.2041 13.0339 51.5185 13.1661 50.7715L14.6385 42.4481H6.36186C5.6068 42.4481 5.03449 41.7647 5.16464 41.0183L5.59003 38.5793C5.69181 37.9959 6.19683 37.5701 6.78725 37.5701H15.4893L18.0659 22.936H9.78928C9.03423 22.936 8.46192 22.2525 8.59207 21.5063L9.01745 19.0673C9.11923 18.4837 9.62426 18.058 10.2147 18.058H18.9167L20.4645 9.30833C20.5675 8.72611 21.0719 8.30194 21.6612 8.30194H24.054C24.8101 8.30194 25.3828 8.98747 25.2506 9.73457L23.7783 18.058H38.3631L39.911 9.30833C40.0138 8.72611 40.5182 8.30194 41.1077 8.30194H43.5003C44.2565 8.30194 44.8292 8.98747 44.697 9.73457L43.2247 18.058H51.5013C52.2563 18.058 52.8288 18.7415 52.6985 19.4877L52.2731 21.9267C52.1715 22.5103 51.6663 22.936 51.0759 22.936H42.3739L39.7972 37.5701H48.0739C48.8289 37.5701 49.4013 38.2535 49.271 38.9998L48.8456 41.4388C48.744 42.0222 48.2389 42.4481 47.6485 42.4481H38.9465L37.3985 51.1978C37.2957 51.78 36.7913 52.2041 36.2018 52.2041H33.8092C33.053 52.2041 32.4803 51.5185 32.6125 50.7715L34.0849 42.4481H19.5001L17.9522 51.1978C17.8493 51.78 17.3448 52.2041 16.7555 52.2041H14.3627ZM22.9286 22.936L20.3519 37.5701H34.9366L37.5133 22.936H22.9286Z" fill="#99AAB5"/>
</svg>
