<svg width="60" height="59" viewBox="0 0 60 59" fill="none" xmlns="http://www.w3.org/2000/svg">
<path fill-rule="evenodd" clip-rule="evenodd" d="M10.2831 6.29913C7.55662 6.29913 5.33936 8.48692 5.33936 11.1772V38.0063C5.33936 40.6989 7.55662 42.8843 10.2831 42.8843H27.5861V47.7623H17.6987V52.6403H42.4172V47.7623H32.5298V42.8843H49.8328C52.5593 42.8843 54.7765 40.6989 54.7765 38.0063V11.1772C54.7765 8.48692 52.5593 6.29913 49.8328 6.29913H10.2831ZM15.2268 36.7868C19.3499 31.0856 24.7781 28.4941 33.0242 28.4941V35.1709L44.8891 23.7685L33.0242 12.3967V18.8905C21.4855 20.5369 16.8879 28.6466 15.2268 36.7868Z" fill="#99AAB5"/>
</svg>
