<svg width="59" height="60" viewBox="0 0 59 60" fill="none" xmlns="http://www.w3.org/2000/svg">
<path d="M34.0496 20.497C34.0496 19.15 32.9613 18.058 31.6188 18.058H23.743L25.2153 9.73457C25.3475 8.98747 24.7749 8.30194 24.0187 8.30194H21.6259C21.0366 8.30194 20.5322 8.72611 20.4292 9.30833L18.8814 18.058H10.1794C9.58897 18.058 9.08395 18.4837 8.98217 19.0673L8.55679 21.5063C8.42664 22.2525 8.99895 22.936 9.754 22.936H18.0306L15.454 37.5701H6.75197C6.16155 37.5701 5.65653 37.9959 5.55475 38.5793L5.12936 41.0183C4.99922 41.7647 5.57152 42.4481 6.32658 42.4481H14.6032L13.1308 50.7715C12.9986 51.5185 13.5712 52.2041 14.3275 52.2041H16.7203C17.3096 52.2041 17.814 51.78 17.917 51.1978L19.4648 42.4481H34.0496L32.5772 50.7715C32.445 51.5185 33.0177 52.2041 33.7739 52.2041H36.1665C36.756 52.2041 37.2604 51.78 37.3632 51.1978L38.9112 42.4481H47.6132C48.2036 42.4481 48.7087 42.0222 48.8103 41.4388L49.2357 38.9998C49.366 38.2535 48.7936 37.5701 48.0386 37.5701H39.7619L40.5539 33.072C40.8128 31.6016 39.6856 30.253 38.1972 30.253C37.036 30.253 36.0426 31.0894 35.8406 32.2367L34.9013 37.5701H20.3166L22.8933 22.936H31.6188C32.9613 22.936 34.0496 21.844 34.0496 20.497Z" fill="#99AAB5"/>
<path fill-rule="evenodd" clip-rule="evenodd" d="M48.3645 10.2583L54.0827 21.8546C54.882 23.4756 53.7067 25.3752 51.904 25.3752H40.4073C38.6003 25.3752 37.425 23.4671 38.2332 21.8454L44.0117 10.2491C44.9096 8.44725 47.4741 8.45264 48.3645 10.2583ZM47.4129 13.1801H44.9818L44.9821 19.2776H47.4129V13.1801ZM46.1972 22.9362C45.5263 22.9362 44.9818 22.3896 44.9818 21.7139C44.9818 21.0392 45.5263 20.4916 46.1972 20.4916C46.8684 20.4916 47.4129 21.0392 47.4129 21.7139C47.4129 22.3896 46.8684 22.9362 46.1972 22.9362Z" fill="#99AAB5"/>
</svg>
