<svg width="60" height="60" viewBox="0 0 60 60" fill="none" xmlns="http://www.w3.org/2000/svg">
<path d="M13.0134 5.15692C8.94513 5.15692 5.64711 8.48803 5.64711 12.5971V47.3181C5.64711 51.4274 8.94513 54.7583 13.0134 54.7583H47.3895C51.4579 54.7583 54.7558 51.4274 54.7558 47.3181V12.5971C54.7558 8.48803 51.4579 5.15692 47.3895 5.15692H13.0134ZM22.3377 19.3429V39.8779H17.2992V19.3429H22.3377ZM33.1718 19.3429C40.2434 19.3429 43.9266 23.4797 43.9266 29.5807C43.9266 35.6816 40.155 39.8779 33.2896 39.8779H26.1591V19.3429H33.1718ZM33.0245 35.9197C36.6192 35.9197 38.8586 34.015 38.8586 29.6104C38.8586 25.2951 36.4719 23.3011 33.0245 23.3011H31.1976V35.9197H33.0245Z" fill="#99AAB5"/>
</svg>
