<svg width="60" height="60" viewBox="0 0 60 60" fill="none" xmlns="http://www.w3.org/2000/svg">
<path d="M50.5105 20.5986C51.3574 20.0827 52.4318 20.1348 53.2273 20.7325C54.0202 21.3327 54.3821 22.3545 54.145 23.3267L49.2503 43.1674C48.9765 44.2734 47.9975 45.0472 46.8742 45.0472H12.613C11.4897 45.0472 10.5108 44.2708 10.2368 43.1674L5.3423 23.3267C5.10494 22.3545 5.46711 21.3327 6.26001 20.7325C7.05783 20.1373 8.12971 20.0852 8.97888 20.5986L19.2156 26.8236L27.7099 13.9098C27.768 13.8216 27.8489 13.7633 27.93 13.7049C27.9789 13.6697 28.0279 13.6344 28.0721 13.5924L25.7154 11.2016C25.2407 10.7205 25.2407 9.92931 25.7154 9.44819L28.8797 6.24146C29.3545 5.76033 30.1351 5.76033 30.6099 6.24146L33.7741 9.44819C34.2489 9.92931 34.2489 10.7205 33.7741 11.2016L31.4175 13.5924C31.4616 13.6352 31.5115 13.6711 31.5615 13.7071C31.6418 13.7648 31.7223 13.8227 31.7796 13.9098L40.274 26.8236L50.5105 20.5986ZM10.1661 47.527H49.3215V52.4874H10.1661V47.527Z" fill="#99AAB5"/>
</svg>
