<svg width="61" height="59" viewBox="0 0 61 59" fill="none" xmlns="http://www.w3.org/2000/svg">
<path d="M30.3357 26.603C28.8228 26.603 27.6076 27.7901 27.6076 29.2679C27.6076 30.7456 28.8228 31.9327 30.3357 31.9327C31.8485 31.9327 33.0637 30.7456 33.0637 29.2679C33.0637 27.7901 31.8485 26.603 30.3357 26.603ZM30.3357 5.04199C16.6457 5.04199 5.53497 15.8952 5.53497 29.2679C5.53497 42.6405 16.6457 53.4937 30.3357 53.4937C44.0257 53.4937 55.1364 42.6405 55.1364 29.2679C55.1364 15.8952 44.0257 5.04199 30.3357 5.04199ZM35.767 34.5733L15.4553 43.8034L24.9043 23.9624L45.2161 14.7323L35.767 34.5733Z" fill="#99AAB5"/>
</svg>
