<svg width="60" height="60" viewBox="0 0 60 60" fill="none" xmlns="http://www.w3.org/2000/svg">
<g clip-path="url(#clip0_102_3338)">
<path d="M32.4379 0.404175C41.0516 0.404175 48.2034 6.84183 49.3942 15.1876C49.4522 15.1866 49.5102 15.1861 49.5685 15.1861C54.9746 15.1861 59.3574 19.5981 59.3574 25.0406C59.3574 26.9396 58.8239 28.7132 57.8996 30.2175C54.4157 27.0027 49.7726 25.0406 44.674 25.0406C37.4276 25.0406 31.1005 29.0042 27.7155 34.8952H12.8601C6.11314 34.8952 0.624023 29.3693 0.624023 22.577C0.624023 15.7847 6.11314 10.2588 12.8601 10.2588C16.2691 10.2588 19.4138 11.3773 23.0773 16.615L25.0767 15.1959C22.6931 11.7862 20.17 9.80299 17.8084 8.67464C20.8381 3.63155 26.2954 0.404175 32.4379 0.404175Z" fill="#99AAB5"/>
<path d="M52.7333 43.0051L47.1218 48.6542V34.8923H42.2274V48.6542L36.6159 43.0051L33.1555 46.4887L44.6746 58.085L56.1936 46.4887L52.7333 43.0051Z" fill="#99AAB5"/>
</g>
<defs>
<clipPath id="clip0_102_3338">
<rect width="58.7333" height="59.1275" fill="white" transform="translate(0.624023 0.404175)"/>
</clipPath>
</defs>
</svg>
