<svg width="45" height="60" viewBox="0 0 45 60" fill="none" xmlns="http://www.w3.org/2000/svg">
<g clip-path="url(#clip0_102_3341)">
<path d="M37.1481 18.6008H37.5032C41.6213 18.6008 44.9598 21.9319 44.9598 26.041V52.0817C44.9598 56.1909 41.6213 59.5219 37.5032 59.5219H7.67661C3.55842 59.5219 0.219971 56.1909 0.219971 52.0817V26.041C0.219971 21.9319 3.55842 18.6008 7.67661 18.6008H31.7509V14.1721C31.7509 9.32531 27.8024 5.38554 22.945 5.38554C19.1474 5.38554 15.9053 7.79363 14.6714 11.1606H9.06363C10.4486 4.78276 16.1404 0.000244141 22.945 0.000244141C30.7851 0.000244141 37.1481 6.34923 37.1481 14.1721V18.6008ZM22.5899 46.5016C26.7081 46.5016 30.0465 43.1705 30.0465 39.0614C30.0465 34.9522 26.7081 31.6212 22.5899 31.6212C18.4717 31.6212 15.1332 34.9522 15.1332 39.0614C15.1332 43.1705 18.4717 46.5016 22.5899 46.5016Z" fill="#99AAB5"/>
</g>
<defs>
<clipPath id="clip0_102_3341">
<rect width="44.7398" height="59.5217" fill="white" transform="translate(0.219971 0.000244141)"/>
</clipPath>
</defs>
</svg>
