<svg width="60" height="59" viewBox="0 0 60 59" fill="none" xmlns="http://www.w3.org/2000/svg">
<path d="M56.1412 20.3101L31.4226 8.1561C30.728 7.81336 29.9073 7.81336 29.2103 8.1561L4.49166 20.3101C3.99235 20.5532 3.61415 20.9761 3.39169 21.4356C3.2409 21.7321 3.1272 22.2353 3.1272 22.4857V36.4992C3.1272 37.841 4.23459 38.93 5.59906 38.93C6.96352 38.93 8.07092 37.841 8.07092 36.4992V25.3224L30.3547 34.45L55.9558 24.7414C56.858 24.3841 57.4661 23.5431 57.5056 22.5853C57.5477 21.6276 57.0113 20.7404 56.1412 20.3101ZM30.3177 39.5012C29.9938 39.5012 29.67 39.438 29.366 39.314L13.0146 32.6148V39.9388C13.0146 40.86 13.5436 41.7011 14.3816 42.1143C14.7877 42.3139 15.195 42.5181 15.606 42.724C19.4853 44.6681 23.693 46.7766 30.3177 46.7766C36.9452 46.7766 41.1622 44.6628 45.0401 42.7189C45.4474 42.5147 45.8513 42.3122 46.2537 42.1143C47.0917 41.7035 47.6207 40.86 47.6207 39.9412V33.1325L31.2051 39.3408C30.9183 39.4453 30.6192 39.5012 30.3177 39.5012ZM3.1272 44.3628C3.1272 43.021 4.23459 41.932 5.59906 41.932C6.96352 41.932 8.07092 43.021 8.07092 44.3628V49.2244C8.07092 50.5662 6.96352 51.6552 5.59906 51.6552C4.23459 51.6552 3.1272 50.5662 3.1272 49.2244V44.3628Z" fill="#99AAB5"/>
</svg>
