<svg width="60" height="61" viewBox="0 0 60 61" fill="none" xmlns="http://www.w3.org/2000/svg">
<path d="M54.5573 42.8975H48.9899C49.3986 41.7255 49.6628 40.4814 49.6628 39.1651C49.6628 32.9817 44.7317 27.9678 38.6504 27.9678H33.7559L30.7605 21.879C30.3469 21.0354 29.5002 20.5029 28.5727 20.5029H17.849C16.4981 20.5029 15.4018 21.6152 15.4018 22.9912V28.0947C9.90285 28.7192 5.61287 33.4072 5.61287 39.1651C5.61287 45.3509 10.544 50.3623 16.6254 50.3623H38.6504C41.2518 50.3623 43.6109 49.4068 45.4952 47.8741H54.5573V42.8975ZM16.6254 42.2754C14.9368 42.2754 13.5663 40.882 13.5663 39.1651C13.5663 37.4481 14.9368 36.0547 16.6254 36.0547C18.3139 36.0547 19.6844 37.4481 19.6844 39.1651C19.6844 40.882 18.3139 42.2754 16.6254 42.2754ZM28.8615 42.2754C27.1729 42.2754 25.8024 40.882 25.8024 39.1651C25.8024 37.4481 27.1729 36.0547 28.8615 36.0547C30.5501 36.0547 31.9205 37.4481 31.9205 39.1651C31.9205 40.882 30.5501 42.2754 28.8615 42.2754ZM41.0976 42.2754C39.409 42.2754 38.0385 40.882 38.0385 39.1651C38.0385 37.4481 39.409 36.0547 41.0976 36.0547C42.7862 36.0547 44.1566 37.4481 44.1566 39.1651C44.1566 40.882 42.7862 42.2754 41.0976 42.2754Z" fill="#99AAB5"/>
<path d="M20.2913 18.0143H25.1857C25.1857 13.8987 21.8918 10.5494 17.8441 10.5494H15.3969V15.526H17.8441C19.1925 15.526 20.2913 16.6432 20.2913 18.0143Z" fill="#99AAB5"/>
</svg>
