<svg width="60" height="61" viewBox="0 0 60 61" fill="none" xmlns="http://www.w3.org/2000/svg">
<path d="M44.9293 15.5236H42.4739V13.0353C42.4739 11.6642 41.3763 10.547 40.0184 10.547H10.5532C9.19536 10.547 8.09778 11.6642 8.09778 13.0353V32.9416C8.09778 36.6466 9.25183 40.073 11.2039 42.8947H39.3358C40.841 40.7125 41.887 38.1819 42.2774 35.4299H44.9293C50.3435 35.4299 54.751 30.9659 54.751 25.4767C54.751 19.99 50.3435 15.5236 44.9293 15.5236ZM44.9293 30.4558H42.4739V20.5026H44.9293C47.6401 20.5026 49.8402 22.7346 49.8402 25.4792C49.8402 28.2213 47.6401 30.4558 44.9293 30.4558Z" fill="#99AAB5"/>
<path d="M5.64809 45.3852H44.9351V50.3618H5.64809V45.3852Z" fill="#99AAB5"/>
</svg>
