<svg width="60" height="59" viewBox="0 0 60 59" fill="none" xmlns="http://www.w3.org/2000/svg">
<path d="M30.2015 4.86206C16.6386 4.86206 5.64711 15.7433 5.64711 29.17C5.64711 42.5968 16.6386 53.478 30.2015 53.478C43.7643 53.478 54.7558 42.5968 54.7558 29.17C54.7558 15.7433 43.7643 4.86206 30.2015 4.86206ZM30.2015 13.6129C31.2872 13.6129 32.1658 14.4827 32.1658 15.5576V28.046L41.4044 33.333C42.3443 33.8685 42.6512 35.046 42.1103 35.9765C41.5694 36.9073 40.38 37.2109 39.44 36.6754L29.4336 30.963C29.3568 30.9326 29.2878 30.8833 29.2188 30.8415C28.6317 30.5036 28.2366 29.8881 28.2366 29.1703V15.5578C28.2366 14.4829 29.1157 13.6129 30.2015 13.6129Z" fill="#99AAB5"/>
</svg>
