<svg width="61" height="59" viewBox="0 0 61 59" fill="none" xmlns="http://www.w3.org/2000/svg">
<path d="M14.8865 12.7503H46.3096C50.21 12.7503 53.4485 15.7028 53.7302 19.5159L55.3817 41.865C55.5685 44.3908 53.6305 46.5866 51.0537 46.7696C50.9411 46.7776 50.8285 46.7815 50.7157 46.7815C47.7577 46.7815 45.1772 44.8135 44.4505 42.0031L43.1716 37.0583H18.0245L16.7456 42.0031C16.0188 44.8135 13.4383 46.7815 10.4804 46.7815C7.89665 46.7815 5.80208 44.7285 5.80208 42.1961C5.80208 42.0857 5.80617 41.9751 5.81431 41.865L7.46576 19.5159C7.74752 15.7028 10.9859 12.7503 14.8865 12.7503ZM36.7983 24.9043C38.8528 24.9043 40.5184 23.2719 40.5184 21.2581C40.5184 19.2444 38.8528 17.6119 36.7983 17.6119C34.7438 17.6119 33.0782 19.2444 33.0782 21.2581C33.0782 23.2719 34.7438 24.9043 36.7983 24.9043ZM46.7186 32.1967C48.7731 32.1967 50.4387 30.5642 50.4387 28.5505C50.4387 26.5368 48.7731 24.9043 46.7186 24.9043C44.6641 24.9043 42.9985 26.5368 42.9985 28.5505C42.9985 30.5642 44.6641 32.1967 46.7186 32.1967ZM15.7177 22.4735H10.7576V27.3351H15.7177V32.1967H20.6778V27.3351H25.638V22.4735H20.6778V17.6119H15.7177V22.4735Z" fill="#99AAB5"/>
</svg>
