<svg width="59" height="59" viewBox="0 0 59 59" fill="none" xmlns="http://www.w3.org/2000/svg">
<path d="M7.09293 53.86H22.5618C23.7816 53.86 24.7717 52.8667 24.7717 51.6426C24.7717 50.4188 23.7816 49.4255 22.5618 49.4255H12.4275L26.334 35.4718C27.1969 34.6059 27.1969 33.2024 26.334 32.3365C25.9031 31.903 25.3374 31.6868 24.7717 31.6868C24.2059 31.6868 23.6402 31.903 23.2093 32.3365L9.30278 46.2901V36.1214C9.30278 34.8975 8.31277 33.9042 7.09293 33.9042C5.8731 33.9042 4.88312 34.8975 4.88312 36.1214V51.6426C4.88312 52.8667 5.8731 53.86 7.09293 53.86Z" fill="#99AAB5"/>
<path d="M32.0463 26.6025C32.9092 27.4683 34.308 27.4683 35.171 26.6025L49.0775 12.649V22.8175C49.0775 24.0415 50.0675 25.0348 51.2875 25.0348C52.5072 25.0348 53.4971 24.0415 53.4971 22.8175V7.29642C53.4971 6.07246 52.5072 5.0791 51.2875 5.0791H35.8185C34.5986 5.0791 33.6086 6.07246 33.6086 7.29642C33.6086 8.52037 34.5986 9.51373 35.8185 9.51373H45.9527L32.0463 23.4672C31.1833 24.333 31.1833 25.7366 32.0463 26.6025Z" fill="#99AAB5"/>
</svg>
