<svg width="60" height="60" viewBox="0 0 60 60" fill="none" xmlns="http://www.w3.org/2000/svg">
<path d="M29.9576 12.4012C14.5693 12.4012 3.30914 29.7618 3.30914 29.7618C3.30914 29.7618 14.5693 47.1223 29.9576 47.1223C45.3459 47.1223 56.6061 29.7618 56.6061 29.7618C56.6061 29.7618 45.3459 12.4012 29.9576 12.4012ZM29.9576 39.6821C24.6061 39.6821 20.2673 35.2427 20.2673 29.7618C20.2673 24.2808 24.6061 19.8415 29.9576 19.8415C35.3091 19.8415 39.6479 24.2808 39.6479 29.7618C39.6479 35.2427 35.3091 39.6821 29.9576 39.6821Z" fill="#99AAB5"/>
<path d="M29.9576 34.7214C32.6336 34.7214 34.8028 32.5007 34.8028 29.7612C34.8028 27.0217 32.6336 24.8011 29.9576 24.8011C27.2816 24.8011 25.1124 27.0217 25.1124 29.7612C25.1124 32.5007 27.2816 34.7214 29.9576 34.7214Z" fill="#99AAB5"/>
<path d="M29.9578 34.7209C32.6338 34.7209 34.8029 32.5003 34.8029 29.7608C34.8029 27.0213 32.6338 24.8007 29.9578 24.8007C27.2818 24.8007 25.1126 27.0213 25.1126 29.7608C25.1126 32.5003 27.2818 34.7209 29.9578 34.7209Z" fill="#99AAB5"/>
</svg>
