<svg width="60" height="59" viewBox="0 0 60 59" fill="none" xmlns="http://www.w3.org/2000/svg">
<path d="M48.5013 22.4736L38.1195 21.5013C37.1307 21.5013 36.3892 20.772 36.142 20.0428L32.187 10.5627C31.4454 8.61803 28.4792 8.61803 27.7376 10.5627L23.2883 20.2859C23.0411 21.0151 22.2996 21.5013 21.3108 21.7443L10.929 22.4736C8.70433 22.7167 7.96277 25.3905 9.44589 26.849L17.3558 33.6552C18.0974 34.1414 18.3446 35.1137 18.0974 36.086L15.6255 46.0523C15.1312 48.24 17.3558 49.6985 19.3333 48.7262L28.232 43.3784C28.9736 42.8923 29.9623 42.8923 30.7039 43.3784L39.6026 48.7262C41.5801 49.9416 43.8047 48.24 43.3104 46.0523L40.8385 36.086C40.5913 35.1137 40.8385 34.3845 41.5801 33.6552L49.49 26.849C51.7147 25.3905 50.7259 22.7167 48.5013 22.4736ZM29.7151 38.0307L20.3221 43.6215L22.7939 33.1691L14.6368 26.1198L25.513 25.1475L29.7151 15.4243L33.9173 25.1475L44.7935 26.1198L36.6363 33.1691L39.1082 43.6215L29.7151 38.0307Z" fill="#99AAB5"/>
</svg>
