<svg width="59" height="59" viewBox="0 0 59 59" fill="none" xmlns="http://www.w3.org/2000/svg">
<path d="M46.1059 7.51843H33.993V12.3965H46.1059V24.5915H50.951V12.3965C50.951 11.1027 50.4406 9.86198 49.5319 8.94717C48.6233 8.03237 47.3909 7.51843 46.1059 7.51843Z" fill="#99AAB5"/>
<path d="M46.1059 46.5427H33.993V51.4207H46.1059C47.3909 51.4207 48.6233 50.9068 49.5319 49.992C50.4406 49.0772 50.951 47.8365 50.951 46.5427V34.3477H46.1059V46.5427Z" fill="#99AAB5"/>
<path d="M7.33987 12.3965V24.5915H12.185V12.3965H24.298V7.51843H12.185C10.9 7.51843 9.66764 8.03237 8.75899 8.94717C7.85035 9.86198 7.33987 11.1027 7.33987 12.3965Z" fill="#99AAB5"/>
<path d="M12.185 34.3477H7.33987V46.5427C7.33987 47.8365 7.85035 49.0772 8.75899 49.992C9.66764 50.9068 10.9 51.4207 12.185 51.4207H24.298V46.5427H12.185V34.3477Z" fill="#99AAB5"/>
</svg>
