<svg width="60" height="60" viewBox="0 0 60 60" fill="none" xmlns="http://www.w3.org/2000/svg">
<path d="M42.0422 20.1105H49.6628C52.3646 20.1105 54.5573 22.3204 54.5573 25.0378V29.9651H5.61287V25.0378C5.61287 22.3204 7.80803 20.1105 10.5073 20.1105H18.128C17.0243 19.5315 15.9793 18.8245 15.1056 17.9474C12.2424 15.065 12.2424 10.3766 15.1056 7.49664C17.8783 4.70533 22.7092 4.70533 25.4868 7.49171C29.4929 11.5247 30.0337 19.1152 30.0802 19.9676C30.0829 19.9959 30.0768 20.0213 30.0706 20.0465C30.0655 20.0674 30.0606 20.0882 30.0606 20.1105H30.1096C30.1096 20.088 30.1044 20.067 30.0993 20.0461C30.0934 20.0214 30.0873 19.9968 30.09 19.9701C30.1389 19.1177 30.6773 11.5272 34.6834 7.49417C37.461 4.70286 42.2869 4.70533 45.0645 7.49171C47.9253 10.3791 47.9253 15.0674 45.0645 17.9474C44.1909 18.8245 43.1459 19.5315 42.0422 20.1105ZM18.566 14.4638C17.6116 13.5005 17.6116 11.9386 18.566 10.9778C19.0261 10.5121 19.6403 10.2584 20.2962 10.2584C20.9521 10.2584 21.5663 10.5121 22.0264 10.9778C23.4702 12.4313 24.3121 15.0379 24.7624 17.2108C22.6088 16.7599 20.0001 15.9075 18.566 14.4638ZM35.4053 17.2157C35.8581 15.0403 36.6975 12.4338 38.1438 10.9802C38.6039 10.5121 39.2181 10.2584 39.874 10.2584C40.5298 10.2584 41.1441 10.5121 41.6017 10.9753C42.5561 11.9386 42.5586 13.5005 41.6042 14.4638C40.1578 15.9198 37.5662 16.7673 35.4053 17.2157ZM8.06009 34.8924V49.6742C8.06009 52.3917 10.2552 54.6015 12.9545 54.6015H27.6379V34.8924H8.06009ZM32.5323 34.8924V54.6015H47.2156C49.9174 54.6015 52.1101 52.3917 52.1101 49.6742V34.8924H32.5323Z" fill="#99AAB5"/>
</svg>
