<svg width="60" height="61" viewBox="0 0 60 61" fill="none" xmlns="http://www.w3.org/2000/svg">
<path d="M10.4977 9.05121H27.4244C27.2203 9.66917 27.2203 10.4931 27.2203 11.1111C27.2203 19.1446 33.5425 25.5303 41.496 25.5303C42.1078 25.5303 42.9234 25.5303 43.5352 25.3243V35.0058C43.5352 37.0656 41.9037 38.7136 39.8644 38.7136H23.3457L16.004 46.1292V38.7136H10.4977C8.45839 38.7136 6.8269 37.0656 6.8269 35.0058V12.759C6.8269 10.6991 8.45839 9.05121 10.4977 9.05121Z" fill="#99AAB5"/>
<path d="M49.6644 10.9054L41.0991 2.25385L38.6519 4.93171L42.7305 9.05146H33.3495V12.7592H42.7305L38.6519 16.879L41.303 19.5569L49.6644 10.9054Z" fill="#99AAB5"/>
</svg>
