<svg width="66" height="61" viewBox="0 0 66 61" fill="none" xmlns="http://www.w3.org/2000/svg">
<g clip-path="url(#clip0_102_3385)">
<path d="M56.5551 10.3295L50.2196 3.97379L53.5859 0.595459L65.4472 12.4998L53.5859 24.4041L50.2196 21.0258L56.5551 14.6701H41.7245V10.3295H56.5551Z" fill="#99AAB5"/>
<path d="M41.6745 25.7635C43.1586 27.1068 44.869 28.2028 46.7419 28.9868C45.2773 32.497 42.1833 35.1597 38.4141 36.0156C38.1733 35.9162 37.9304 35.8195 37.6858 35.7255C39.9406 32.9708 41.391 29.5285 41.6745 25.7635Z" fill="#99AAB5"/>
<path d="M35.7968 24.4037C35.7968 30.966 30.4769 36.308 23.9354 36.308C17.3969 36.308 12.0741 30.966 12.0741 24.4037C12.0741 17.8415 17.3939 12.4994 23.9354 12.4994C30.4769 12.4994 35.7968 17.8415 35.7968 24.4037Z" fill="#99AAB5"/>
<path d="M0.211754 57.1416C0.211754 46.6271 9.96771 39.285 23.9344 39.285C37.9041 39.285 47.6571 46.6271 47.6571 57.1416V60.1177H0.211754V57.1416Z" fill="#99AAB5"/>
<path d="M59.527 60.1173H53.5964V57.1412C53.5964 50.5935 50.8149 44.9592 46.2459 40.8596C54.3958 43.5569 59.527 49.5144 59.527 57.1412V60.1173Z" fill="#99AAB5"/>
</g>
<defs>
<clipPath id="clip0_102_3385">
<rect width="65.2374" height="59.5217" fill="white" transform="translate(0.21167 0.595581)"/>
</clipPath>
</defs>
</svg>
