<svg width="61" height="59" viewBox="0 0 61 59" fill="none" xmlns="http://www.w3.org/2000/svg">
<path d="M25.3668 9.95703H12.9664C11.5967 9.95703 10.4863 11.049 10.4863 12.396V24.5911C10.4863 25.9381 11.5967 27.0301 12.9664 27.0301H25.3668C26.7365 27.0301 27.8468 25.9381 27.8468 24.5911V12.396C27.8468 11.049 26.7365 9.95703 25.3668 9.95703Z" fill="#99AAB5"/>
<path d="M25.3668 31.9081H12.9664C11.5967 31.9081 10.4863 33.0001 10.4863 34.3472V46.5422C10.4863 47.8892 11.5967 48.9812 12.9664 48.9812H25.3668C26.7365 48.9812 27.8468 47.8892 27.8468 46.5422V34.3472C27.8468 33.0001 26.7365 31.9081 25.3668 31.9081Z" fill="#99AAB5"/>
<path d="M47.6874 9.95703H35.2871C33.9174 9.95703 32.807 11.049 32.807 12.396V24.5911C32.807 25.9381 33.9174 27.0301 35.2871 27.0301H47.6874C49.0571 27.0301 50.1675 25.9381 50.1675 24.5911V12.396C50.1675 11.049 49.0571 9.95703 47.6874 9.95703Z" fill="#99AAB5"/>
<path d="M47.6874 31.9081H35.2871C33.9174 31.9081 32.807 33.0001 32.807 34.3472V46.5422C32.807 47.8892 33.9174 48.9812 35.2871 48.9812H47.6874C49.0571 48.9812 50.1675 47.8892 50.1675 46.5422V34.3472C50.1675 33.0001 49.0571 31.9081 47.6874 31.9081Z" fill="#99AAB5"/>
</svg>
