<svg width="59" height="60" viewBox="0 0 59 60" fill="none" xmlns="http://www.w3.org/2000/svg">
<path d="M29.4855 4.96106C16.0368 4.96106 5.09538 16.0891 5.09538 29.7618C5.09538 43.4394 16.0368 54.5625 29.4855 54.5625C42.9342 54.5625 53.8756 43.4394 53.8756 29.7618C53.8756 16.0891 42.9342 4.96106 29.4855 4.96106ZM29.4855 45.2622C27.8026 45.2622 26.4367 43.8758 26.4367 42.1621C26.4367 40.4509 27.8026 39.062 29.4855 39.062C31.1684 39.062 32.5342 40.4509 32.5342 42.1621C32.5342 43.8758 31.1684 45.2622 29.4855 45.2622ZM31.9245 34.4119V37.202H27.0465V29.7618H29.4855C32.1781 29.7618 34.3635 27.5371 34.3635 24.8016C34.3635 22.0636 32.1781 19.8415 29.4855 19.8415C26.7928 19.8415 24.6075 22.0636 24.6075 24.8016H19.7294C19.7294 19.3331 24.1075 14.8813 29.4855 14.8813C34.8635 14.8813 39.2415 19.3331 39.2415 24.8016C39.2415 29.417 36.1269 33.3058 31.9245 34.4119Z" fill="#99AAB5"/>
</svg>
