<svg width="59" height="60" viewBox="0 0 59 60" fill="none" xmlns="http://www.w3.org/2000/svg">
<path d="M37.9577 9.673C37.3897 9.08534 36.4626 9.0843 35.8934 9.67065L34.0183 11.602C33.4558 12.1815 33.4549 13.1171 34.0163 13.6978L48.5361 28.7145C49.0968 29.2944 49.0968 30.2283 48.5361 30.8081L34.0163 45.8248C33.4549 46.4057 33.4558 47.3411 34.0183 47.9206L35.8934 49.852C36.4626 50.4383 37.3897 50.4374 37.9577 49.8497L56.3617 30.8081C56.9222 30.228 56.9222 29.2945 56.3617 28.7147L37.9577 9.673Z" fill="#99AAB5"/>
<path d="M24.8741 13.6978C25.4355 13.1171 25.4346 12.1815 24.872 11.602L22.997 9.67065C22.4277 9.0843 21.5007 9.08534 20.9328 9.673L2.52864 28.7147C1.96824 29.2945 1.96824 30.228 2.52864 30.8081L20.9328 49.8497C21.5007 50.4374 22.4277 50.4383 22.997 49.852L24.872 47.9206C25.4346 47.3411 25.4355 46.4057 24.8741 45.8248L10.3542 30.8081C9.79355 30.2283 9.79355 29.2944 10.3542 28.7145L24.8741 13.6978Z" fill="#99AAB5"/>
</svg>
