<svg width="59" height="60" viewBox="0 0 59 60" fill="none" xmlns="http://www.w3.org/2000/svg">
<g clip-path="url(#clip0_102_3408)">
<path d="M4.88021 5.15741C2.19523 5.15741 0.0186157 7.37814 0.0186157 10.1176V49.7987C0.0186157 52.5382 2.19523 54.7588 4.88021 54.7588H53.4962C56.1812 54.7588 58.3578 52.5382 58.3578 49.7987V10.1176C58.3578 7.37814 56.1812 5.15741 53.4962 5.15741H4.88021ZM23.754 28.5891V38.5888C21.6538 39.9875 19.1744 40.7613 16.4033 40.7613C10.0152 40.7613 6.48563 36.4757 6.48563 30.1367C6.48563 23.7679 10.3068 19.4525 16.52 19.4525C18.9994 19.4525 21.0704 20.0478 22.6747 20.9703L22.0038 25.4047C20.487 24.4226 18.7077 23.6488 16.6366 23.6488C13.1655 23.6488 11.4736 26.2678 11.4736 30.1069C11.4736 33.9758 13.2238 36.6841 16.695 36.6841C17.8034 36.6841 18.591 36.446 19.4078 36.0293V32.3687H15.6449V28.5891H23.754ZM28.0897 19.8394H33.0777V40.3744H28.0897V19.8394ZM49.7829 19.8394V24.0952H42.6947V28.2915H48.2952V32.5473H42.6947V40.3744H37.7359V19.8394H49.7829Z" fill="#99AAB5"/>
</g>
<defs>
<clipPath id="clip0_102_3408">
<rect width="58.3392" height="59.5217" fill="white" transform="translate(0.0185547 0.197266)"/>
</clipPath>
</defs>
</svg>
