<svg width="59" height="61" viewBox="0 0 59 61" fill="none" xmlns="http://www.w3.org/2000/svg">
<path d="M30.7131 25.4788C28.7265 19.6811 23.3484 15.5257 17.0255 15.5257C9.00669 15.5257 2.48993 22.2192 2.48993 30.4554C2.48993 38.6916 9.00669 45.3851 17.0255 45.3851C23.3484 45.3851 28.7265 41.2297 30.7131 35.432H41.2513V45.3851H50.9417V35.432H55.7868V25.4788H30.7131ZM17.0255 35.432C14.3606 35.432 12.1803 33.1925 12.1803 30.4554C12.1803 27.7183 14.3606 25.4788 17.0255 25.4788C19.6903 25.4788 21.8706 27.7183 21.8706 30.4554C21.8706 33.1925 19.6903 35.432 17.0255 35.432Z" fill="#99AAB5"/>
</svg>
