<svg width="59" height="59" viewBox="0 0 59 59" fill="none" xmlns="http://www.w3.org/2000/svg">
<path d="M29.8205 26.4168L51.6126 12.94C50.9125 12.5524 50.1225 12.3101 49.2669 12.3101H10.374C9.5184 12.3101 8.72596 12.5524 8.02832 12.94L29.8205 26.4168Z" fill="#99AAB5"/>
<path d="M31.1022 31.3242C30.7108 31.5665 30.266 31.69 29.8212 31.69C29.3763 31.69 28.9315 31.5665 28.5401 31.3266L5.52048 17.0892C5.52048 17.111 5.51318 17.1328 5.51318 17.1521V38.9553C5.51318 41.625 7.69361 43.8005 10.3748 43.8005H49.2675C51.9487 43.8005 54.1291 41.625 54.1291 38.9553V17.1521C54.1291 17.1303 54.1218 17.1085 54.1218 17.0867L31.1022 31.3242Z" fill="#99AAB5"/>
</svg>
