<svg width="60" height="60" viewBox="0 0 60 60" fill="none" xmlns="http://www.w3.org/2000/svg">
<path d="M7.90082 29.9672C7.90082 35.4118 10.1278 40.3145 13.6763 43.8621L7.90082 49.6763H22.5842V34.8945L17.1024 40.413C14.4594 37.7277 12.7953 34.0568 12.7953 29.9672C12.7953 23.537 16.8821 18.0678 22.5842 16.0476V10.8985C14.1412 13.0912 7.90082 20.7778 7.90082 29.9672ZM51.9508 10.258H37.2675V25.0399L42.7493 19.5213C45.3923 22.2067 47.0564 25.8775 47.0564 29.9672C47.0564 36.3973 42.9695 41.8666 37.2675 43.8868V49.0358C45.7104 46.8431 51.9508 39.1566 51.9508 29.9672C51.9508 24.5225 49.7238 19.6199 46.1754 16.0722L51.9508 10.258Z" fill="#99AAB5"/>
<path d="M27.4838 42.2851V37.3578H32.3783V42.2851H27.4838ZM27.4838 32.4306V17.6487H32.3783V32.4306H27.4838Z" fill="#99AAB5"/>
</svg>
