<svg width="61" height="60" viewBox="0 0 61 60" fill="none" xmlns="http://www.w3.org/2000/svg">
<path d="M56.7578 12.8871V15.3261H58.5806C58.9095 15.3261 59.1758 15.5882 59.1758 15.9115V26.9359C59.1758 27.259 58.9095 27.5212 58.5806 27.5212H44.8906C44.562 27.5212 44.2954 27.259 44.2954 26.9359V15.9115C44.2954 15.5882 44.562 15.3261 44.8906 15.3261H46.7755V12.8871C46.7755 10.1554 49.1316 8.00909 51.7356 8.00909C54.3397 8.00909 56.7578 10.1554 56.7578 12.8871ZM49.2556 15.3261H54.2157V12.8871C54.2157 11.4934 53.0585 10.4481 51.7356 10.4481C50.413 10.4481 49.2556 11.4934 49.2556 12.8871V15.3261Z" fill="#99AAB5"/>
<path fill-rule="evenodd" clip-rule="evenodd" d="M40.1269 15.239L12.871 21.1414V45.1735C12.871 46.2271 13.6061 47.143 14.6569 47.4022L24.0811 49.6978C24.2696 49.7415 24.4628 49.7644 24.6513 49.7644C25.384 49.7644 26.0838 49.4315 26.5362 48.8461L32.3556 41.2869L48.212 44.7166V47.4688H52.9241V31.4233H44.8887C42.2588 31.4233 40.1269 29.3265 40.1269 26.7404V15.239ZM17.5831 43.3806L23.7042 44.8727L27.3065 40.192L17.5831 38.0847V43.3806Z" fill="#99AAB5"/>
<path d="M10.5154 21.1304H5.8033V38.2866H10.5154V21.1304Z" fill="#99AAB5"/>
</svg>
