<svg width="60" height="60" viewBox="0 0 60 60" fill="none" xmlns="http://www.w3.org/2000/svg">
<path fill-rule="evenodd" clip-rule="evenodd" d="M56.444 24.1962L50.7148 12.6C49.8225 10.7943 47.2529 10.7889 46.3533 12.5908L40.5637 24.1871C39.7539 25.8089 40.9315 27.7169 42.7419 27.7169H54.261C56.0671 27.7169 57.2447 25.8174 56.444 24.1962ZM47.3254 15.5218L47.3256 21.6193H49.7611V15.5218H47.3254ZM48.5431 25.2779C47.8711 25.2779 47.3254 24.7312 47.3254 24.0556C47.3254 23.3809 47.8711 22.8333 48.5431 22.8333C49.2153 22.8333 49.7611 23.3809 49.7611 24.0556C49.7611 24.7312 49.2153 25.2779 48.5431 25.2779Z" fill="#99AAB5"/>
<path fill-rule="evenodd" clip-rule="evenodd" d="M41.5367 14.7689L12.4967 21.1421V45.174C12.4967 46.2277 13.2221 47.1438 14.259 47.403L23.5584 49.6986C23.7444 49.7423 23.9351 49.7652 24.1211 49.7652C24.8441 49.7652 25.5346 49.4323 25.9809 48.8469L31.7234 41.2877L47.3697 44.7172V47.4696H52.0194V30.2531H41.8972C38.5036 30.2531 36.2292 26.7778 37.5972 23.6826L41.5367 14.7689ZM17.1465 43.3814L23.1865 44.8733L26.7411 40.1928L17.1465 38.0855V43.3814Z" fill="#99AAB5"/>
<path d="M10.1723 21.1311H5.52255V38.2874H10.1723V21.1311Z" fill="#99AAB5"/>
</svg>
