<svg width="59" height="59" viewBox="0 0 59 59" fill="none" xmlns="http://www.w3.org/2000/svg">
<path d="M38.9517 19.7792V7.54309H34.0901V19.7792C34.0901 21.0773 34.6024 22.3222 35.5141 23.2401C36.4258 24.158 37.6624 24.6736 38.9517 24.6736H51.1057V19.7792H38.9517Z" fill="#99AAB5"/>
<path d="M34.0901 39.3571V51.5931H38.9517V39.3571H51.1057V34.4626H38.9517C37.6624 34.4626 36.4258 34.9783 35.5141 35.8962C34.6024 36.8141 34.0901 38.059 34.0901 39.3571Z" fill="#99AAB5"/>
<path d="M19.5004 19.7792H7.34641V24.6736H19.5004C20.7898 24.6736 22.0263 24.158 22.9381 23.2401C23.8498 22.3222 24.362 21.0773 24.362 19.7792V7.54309H19.5004V19.7792Z" fill="#99AAB5"/>
<path d="M19.5004 34.4626H7.34641V39.3571H19.5004V51.5931H24.362V39.3571C24.362 38.059 23.8498 36.8141 22.9381 35.8962C22.0263 34.9783 20.7898 34.4626 19.5004 34.4626Z" fill="#99AAB5"/>
</svg>
