<svg width="60" height="60" viewBox="0 0 60 60" fill="none" xmlns="http://www.w3.org/2000/svg">
<path d="M48.4494 8.17408C47.5194 7.47454 46.3154 7.26443 45.2043 7.59566L20.7321 15.0112C19.1781 15.4809 18.1136 16.9269 18.1136 18.5658V37.2308C17.7098 37.1715 17.3085 37.1048 16.89 37.1048C12.1571 37.1048 8.32471 40.9806 8.32471 45.7563C8.32471 50.5294 12.1571 54.4078 16.89 54.4078C21.6229 54.4078 25.4553 50.5294 25.4553 45.7563V21.3219L42.5858 16.131V32.2871C42.182 32.2278 41.7807 32.161 41.3622 32.161C36.6293 32.161 32.7969 36.0369 32.7969 40.8126C32.7969 45.5857 36.6293 49.4641 41.3622 49.4641C46.0951 49.4641 49.9275 45.5857 49.9275 40.8126V11.1502C49.9275 9.97359 49.3769 8.87361 48.4494 8.17408Z" fill="#99AAB5"/>
</svg>
