<svg width="60" height="60" viewBox="0 0 60 60" fill="none" xmlns="http://www.w3.org/2000/svg">
<g clip-path="url(#clip0_102_3225)">
<path fill-rule="evenodd" clip-rule="evenodd" d="M5.38809 3.39062C2.92736 3.39062 0.932556 5.43829 0.932556 7.96423V51.7402C0.932556 54.2661 2.92736 56.3138 5.38809 56.3138H49.2688C50.4647 56.3138 51.6104 55.8204 52.4482 54.9445L57.1964 49.98C58.0143 49.1249 58.4725 47.9743 58.4725 46.7759V20.4933C58.4725 17.9674 56.4777 15.9197 54.017 15.9197H47.8046V7.96423C47.8046 5.43829 45.8098 3.39062 43.3491 3.39062H5.38809ZM40.0704 12.5023C40.0704 11.7806 39.5005 11.1956 38.7974 11.1956H8.07291C7.36984 11.1956 6.7999 11.7806 6.7999 12.5023V19.0631C6.7999 19.7848 7.36984 20.3698 8.07291 20.3698H38.7974C39.5005 20.3698 40.0704 19.7848 40.0704 19.0631V12.5023ZM22.0016 28.1808C22.0016 27.459 21.4317 26.874 20.7286 26.874H8.07291C7.36984 26.874 6.7999 27.459 6.7999 28.1808V31.7291C6.7999 32.4508 7.36984 33.0358 8.07291 33.0358H20.7286C21.4317 33.0358 22.0016 32.4508 22.0016 31.7291V28.1808ZM40.0704 28.1808C40.0704 27.459 39.5005 26.874 38.7974 26.874H24.8748C24.1718 26.874 23.6018 27.459 23.6018 28.1808V31.7291C23.6018 32.4508 24.1718 33.0358 24.8748 33.0358H38.7974C39.5005 33.0358 40.0704 32.4508 40.0704 31.7291V28.1808ZM22.0016 35.9172C22.0016 35.1955 21.4317 34.6105 20.7286 34.6105H8.07291C7.36984 34.6105 6.7999 35.1955 6.7999 35.9172V39.4655C6.7999 40.1873 7.36984 40.7723 8.07291 40.7723H20.7286C21.4317 40.7723 22.0016 40.1873 22.0016 39.4655V35.9172ZM40.0704 35.9172C40.0704 35.1955 39.5005 34.6105 38.7974 34.6105H24.8748C24.1718 34.6105 23.6018 35.1955 23.6018 35.9172V39.4655C23.6018 40.1873 24.1718 40.7723 24.8748 40.7723H38.7974C39.5005 40.7723 40.0704 40.1873 40.0704 39.4655V35.9172ZM22.0016 43.7907C22.0016 43.069 21.4317 42.484 20.7286 42.484H8.07291C7.36984 42.484 6.7999 43.069 6.7999 43.7907V47.3391C6.7999 48.0607 7.36984 48.6458 8.07291 48.6458H20.7286C21.4317 48.6458 22.0016 48.0607 22.0016 47.3391V43.7907ZM40.0704 43.7907C40.0704 43.069 39.5005 42.484 38.7974 42.484H24.8748C24.1718 42.484 23.6018 43.069 23.6018 43.7907V47.3391C23.6018 48.0607 24.1718 48.6458 24.8748 48.6458H38.7974C39.5005 48.6458 40.0704 48.0607 40.0704 47.3391V43.7907ZM52.2719 23.5252C52.2719 22.8035 51.7019 22.2185 50.9988 22.2185H47.6774C46.9745 22.2185 46.4044 22.8035 46.4044 23.5252V47.3391C46.4044 48.0607 46.9745 48.6458 47.6774 48.6458H49.8911C50.2208 48.6458 50.5375 48.5145 50.7748 48.2795L51.8826 47.1827C52.1313 46.9363 52.2719 46.5968 52.2719 46.2421V23.5252Z" fill="#99AAB5"/>
</g>
<defs>
<clipPath id="clip0_102_3225">
<rect width="58.3392" height="58.5363" fill="white" transform="translate(0.932373 0.984924)"/>
</clipPath>
</defs>
</svg>
