<svg width="60" height="61" viewBox="0 0 60 61" fill="none" xmlns="http://www.w3.org/2000/svg">
<path d="M8.11368 23.9145C8.11368 24.9476 7.25308 25.8083 6.2202 25.8083H5.18731C4.15442 25.8083 3.29341 24.9476 3.29341 23.9145C3.29341 22.8815 4.15442 22.0207 5.18731 22.0207H6.2202C7.25308 22.0207 8.11368 22.8815 8.11368 23.9145ZM54.7656 23.398C59.2413 32.8679 55.1098 44.2317 45.2974 48.7082C35.8295 53.0128 24.4678 48.8806 20.164 39.4106C19.3034 37.5168 18.7869 35.4506 18.6147 33.3845H14.8273C13.7944 33.3845 12.9338 32.5233 12.9338 31.4902C12.9338 30.4572 13.7944 29.5964 14.8273 29.5964H20.3363C21.3692 29.5964 22.2298 28.7357 22.2298 27.7026C22.2298 26.6695 21.3692 25.8083 20.3363 25.8083H11.5567C10.5239 25.8083 9.66284 24.9476 9.66284 23.9145C9.66284 22.8815 10.5239 22.0207 11.5567 22.0207H23.7791C24.812 22.0207 25.6726 21.1595 25.6726 20.1265C25.6726 19.0934 24.812 18.2326 23.7791 18.2326H18.7869C17.2376 18.2326 15.8602 17.0272 15.8602 15.3057C15.8602 13.7561 17.0653 12.3784 18.7869 12.3784H38.2395C45.1255 12.7231 51.667 16.683 54.7656 23.398ZM33.0097 21.4987C27.5664 23.9987 25.1796 30.4389 27.6792 35.8832C30.1788 41.3275 36.6178 43.7147 42.0611 41.2147C47.5048 38.7146 49.8912 32.2745 47.3916 26.8302C44.892 21.3859 38.453 18.9987 33.0097 21.4987ZM41.6825 25.1198L45.1253 30.974C45.2976 31.3182 45.2976 31.4905 45.1253 31.8348L41.6825 37.689C41.5102 38.0332 41.166 38.0332 40.9937 38.0332H34.28C33.9358 38.0332 33.7635 37.8609 33.5917 37.689L30.1484 31.8348C29.9766 31.4905 29.9766 31.3182 30.1484 30.974L33.5917 25.1198C33.7635 24.7756 34.1081 24.7756 34.28 24.7756H40.9937C41.3383 24.6033 41.5102 24.7756 41.6825 25.1198Z" fill="#99AAB5"/>
</svg>
