<svg width="60" height="59" viewBox="0 0 60 59" fill="none" xmlns="http://www.w3.org/2000/svg">
<path d="M27.3624 9.95744C27.3624 8.61043 28.458 7.51843 29.8096 7.51843H30.3534C31.705 7.51843 32.8006 8.61043 32.8006 9.95744V48.9816C32.8006 50.3287 31.705 51.4206 30.3534 51.4206H29.8096C28.458 51.4206 27.3624 50.3287 27.3624 48.9816V9.95744Z" fill="#99AAB5"/>
<path d="M16.4864 15.4452C16.4864 14.0982 17.5821 13.0062 18.9336 13.0062H19.4775C20.829 13.0062 21.9247 14.0982 21.9247 15.4452V43.4939C21.9247 44.8409 20.829 45.9329 19.4775 45.9329H18.9336C17.5821 45.9329 16.4864 44.8409 16.4864 43.4939V15.4452Z" fill="#99AAB5"/>
<path d="M8.60391 37.7012C9.95549 37.7012 11.0511 36.6093 11.0511 35.2622V23.6769C11.0511 22.3299 9.95549 21.2379 8.60391 21.2379H8.06009C6.70854 21.2379 5.61287 22.3299 5.61287 23.6769V35.2622C5.61287 36.6093 6.70854 37.7012 8.06009 37.7012H8.60391Z" fill="#99AAB5"/>
<path d="M54.5489 32.5183C54.5489 33.8654 53.453 34.9574 52.1017 34.9574H51.5576C50.206 34.9574 49.1104 33.8654 49.1104 32.5183V26.4208C49.1104 25.0738 50.206 23.9818 51.5576 23.9818H52.1017C53.453 23.9818 54.5489 25.0738 54.5489 26.4208V32.5183Z" fill="#99AAB5"/>
<path d="M40.6838 18.494C39.3322 18.494 38.2366 19.586 38.2366 20.933V38.0061C38.2366 39.3532 39.3322 40.4451 40.6838 40.4451H41.2276C42.5792 40.4451 43.6749 39.3532 43.6749 38.0061V20.933C43.6749 19.586 42.5792 18.494 41.2276 18.494H40.6838Z" fill="#99AAB5"/>
</svg>
