<svg width="59" height="59" viewBox="0 0 59 59" fill="none" xmlns="http://www.w3.org/2000/svg">
<path d="M37.6116 30.6458L43.05 25.2257V38.0062C43.05 39.3533 41.9542 40.4453 40.6027 40.4453H40.0589C38.7073 40.4453 37.6116 39.3533 37.6116 38.0062V30.6458Z" fill="#99AAB5"/>
<path d="M32.1772 17.4529V9.95744C32.1772 8.61041 31.0816 7.51843 29.73 7.51843H29.1861C27.8347 7.51843 26.7389 8.61041 26.7389 9.95744V22.8729L32.1772 17.4529Z" fill="#99AAB5"/>
<path d="M26.7389 41.4869L26.9194 41.3056L32.1772 36.0654V48.9816C32.1772 50.3287 31.0816 51.4206 29.73 51.4206H29.1861C27.8347 51.4206 26.7389 50.3287 26.7389 48.9816V41.4869Z" fill="#99AAB5"/>
<path d="M21.3011 28.2932L15.8629 33.7133V15.4452C15.8629 14.0982 16.9585 13.0062 18.3101 13.0062H18.8539C20.2055 13.0062 21.3011 14.0982 21.3011 15.4452V28.2932Z" fill="#99AAB5"/>
<path d="M10.4275 35.2622C10.4275 36.6093 9.33185 37.7012 7.98028 37.7012H7.43645C6.08488 37.7012 4.98923 36.6093 4.98923 35.2622V23.6769C4.98923 22.3299 6.08488 21.2379 7.43645 21.2379H7.98028C9.33185 21.2379 10.4275 22.3299 10.4275 23.6769V35.2622Z" fill="#99AAB5"/>
<path d="M53.9373 32.5183C53.9373 33.8654 52.8417 34.9574 51.4901 34.9574H50.9463C49.5947 34.9574 48.4991 33.8654 48.4991 32.5183V26.4208C48.4991 25.0738 49.5947 23.9818 50.9463 23.9818H51.4901C52.8417 23.9818 53.9373 25.0738 53.9373 26.4208V32.5183Z" fill="#99AAB5"/>
<path d="M51.4816 10.616L48.3736 7.51843L7.43161 48.3231L10.5396 51.4206L20.7934 41.2256L23.8035 38.2012L27.8659 34.1524L36.7738 25.2744L51.4816 10.616Z" fill="#99AAB5"/>
</svg>
