<svg width="60" height="60" viewBox="0 0 60 60" fill="none" xmlns="http://www.w3.org/2000/svg">
<path fill-rule="evenodd" clip-rule="evenodd" d="M56.7807 24.196L50.9746 12.5997C50.0706 10.7941 47.4666 10.7887 46.5549 12.5906L40.6873 24.1869C39.8669 25.8086 41.0603 27.7166 42.895 27.7166H54.5685C56.3988 27.7166 57.5924 25.8171 56.7807 24.196ZM48.774 25.2776C48.0928 25.2776 47.54 24.731 47.54 24.0553C47.54 23.3806 48.0928 22.8331 48.774 22.8331C49.4553 22.8331 50.0081 23.3806 50.0081 24.0553C50.0081 24.731 49.4553 25.2776 48.774 25.2776ZM50.0084 15.5216H47.54V21.6191H50.0084V15.5216Z" fill="#99AAB5"/>
<path d="M41.5862 14.7872L12.244 21.1415V45.1734C12.244 46.2271 12.9791 47.1432 14.0299 47.4024L23.4541 49.698C23.6426 49.7417 23.8358 49.7646 24.0243 49.7646C24.757 49.7646 25.4568 49.4317 25.9092 48.8463L26.4052 48.2019V40.5488L23.0772 44.8729L16.9561 43.3807V38.0849L26.4052 40.1327V34.9354C26.4052 31.0562 29.603 27.9111 33.5478 27.9111H34.7385L41.5862 14.7872Z" fill="#99AAB5"/>
<path d="M9.88721 21.1311H5.17507V38.2874H9.88721V21.1311Z" fill="#99AAB5"/>
<path d="M33.5381 32.5945C32.2232 32.5945 31.1573 33.6428 31.1573 34.936V50.3049C31.1573 51.5981 32.2232 52.6464 33.5381 52.6464H35.919C36.2476 52.6464 36.5142 52.9083 36.5142 53.2317V58.2034C36.5142 58.7107 37.1255 58.978 37.5082 58.6378L43.572 53.2503C44.0097 52.8615 44.5784 52.6464 45.1681 52.6464H56.1563C57.471 52.6464 58.5372 51.5981 58.5372 50.3049V34.936C58.5372 33.6428 57.471 32.5945 56.1563 32.5945H33.5381Z" fill="#99AAB5"/>
</svg>
