<svg width="60" height="60" viewBox="0 0 60 60" fill="none" xmlns="http://www.w3.org/2000/svg">
<path d="M35.9248 18.058C36.2482 18.058 36.5102 18.3201 36.5102 18.6433V22.3506C36.5102 22.6739 36.2482 22.936 35.9248 22.936H23.7552L21.1699 37.5701H26.559V42.4481H20.3152L18.7621 51.1978C18.6588 51.78 18.1526 52.2041 17.5614 52.2041H15.1605C14.4017 52.2041 13.8271 51.5185 13.9597 50.7715L15.4372 42.4481H7.13256C6.37496 42.4481 5.80072 41.7647 5.9313 41.0183L6.35813 38.5793C6.46025 37.9959 6.96698 37.5701 7.55939 37.5701H16.2908L18.8762 22.936H10.5716C9.81396 22.936 9.23972 22.2525 9.37031 21.5063L9.79713 19.0673C9.89925 18.4837 10.406 18.058 10.9984 18.058H19.7298L21.2829 9.30833C21.3862 8.72611 21.8923 8.30194 22.4836 8.30194H24.8845C25.6432 8.30194 26.2178 8.98747 26.0851 9.73457L24.6078 18.058H35.9248Z" fill="#99AAB5"/>
<path d="M31.2367 34.936C31.2367 33.6428 32.285 32.5945 33.5781 32.5945H55.8219C57.115 32.5945 58.1633 33.6428 58.1633 34.936V50.3049C58.1633 51.5981 57.115 52.6464 55.8219 52.6464H45.0156C44.4359 52.6464 43.8764 52.8615 43.4461 53.2503L37.4827 58.6378C37.1064 58.978 36.5049 58.7107 36.5049 58.2034V53.2317C36.5049 52.9083 36.243 52.6464 35.9196 52.6464H33.5781C32.285 52.6464 31.2367 51.5981 31.2367 50.3049V34.936Z" fill="#99AAB5"/>
<path fill-rule="evenodd" clip-rule="evenodd" d="M50.7257 10.2583L56.4359 21.8546C57.234 23.4756 56.0603 25.3751 54.2603 25.3751H42.7799C40.9755 25.3751 39.8019 23.4671 40.6087 21.8454L46.3791 10.2491C47.2757 8.44723 49.8367 8.45265 50.7257 10.2583ZM47.3482 19.2777L47.3479 13.1801H49.7755V19.2777H47.3482ZM47.3479 21.7139C47.3479 22.3896 47.8916 22.9362 48.5616 22.9362C49.2316 22.9362 49.7755 22.3896 49.7755 21.7139C49.7755 21.0392 49.2316 20.4916 48.5616 20.4916C47.8916 20.4916 47.3479 21.0392 47.3479 21.7139Z" fill="#99AAB5"/>
</svg>
