<svg width="60" height="60" viewBox="0 0 60 60" fill="none" xmlns="http://www.w3.org/2000/svg">
<path d="M46.8021 10.1171H12.541C11.2429 10.1171 9.99798 10.6397 9.0801 11.5699C8.16221 12.5001 7.64655 13.7617 7.64655 15.0772L7.64655 44.8381C7.64655 46.1536 8.16221 47.4152 9.0801 48.3454C9.99798 49.2756 11.2429 49.7982 12.541 49.7982H22.3299V44.8381H12.541V20.0373H46.8021V44.8381H37.0132V49.7982H46.8021C49.494 49.7982 51.6965 47.5661 51.6965 44.8381V15.0772C51.6965 13.7617 51.1809 12.5001 50.263 11.5699C49.3451 10.6397 48.1002 10.1171 46.8021 10.1171V10.1171ZM29.6715 24.9975L19.8827 34.9178H27.2243V49.7982H32.1188V34.9178H39.4604L29.6715 24.9975Z" fill="#99AAB5"/>
</svg>
