<svg width="59" height="60" viewBox="0 0 59 60" fill="none" xmlns="http://www.w3.org/2000/svg">
<path d="M17.8333 29.9698C17.8333 27.2484 15.6714 25.0425 13.0046 25.0425C10.3377 25.0425 8.17584 27.2484 8.17584 29.9698C8.17584 32.6909 10.3377 34.8971 13.0046 34.8971C15.6714 34.8971 17.8333 32.6909 17.8333 29.9698ZM34.734 29.9698C34.734 27.2484 32.5721 25.0425 29.9052 25.0425C27.2383 25.0425 25.0765 27.2484 25.0765 29.9698C25.0765 32.6909 27.2383 34.8971 29.9052 34.8971C32.5721 34.8971 34.734 32.6909 34.734 29.9698ZM46.8058 25.0425C49.4727 25.0425 51.6346 27.2484 51.6346 29.9698C51.6346 32.6909 49.4727 34.8971 46.8058 34.8971C44.1389 34.8971 41.9771 32.6909 41.9771 29.9698C41.9771 27.2484 44.1389 25.0425 46.8058 25.0425Z" fill="#99AAB5"/>
</svg>
