<svg width="60" height="60" viewBox="0 0 60 60" fill="none" xmlns="http://www.w3.org/2000/svg">
<g clip-path="url(#clip0_102_3473)">
<path d="M55.504 11.161H3.76743C1.72648 11.161 0.0719604 12.8266 0.0719604 14.8811C0.0719604 16.9357 1.72648 18.6012 3.76743 18.6012H55.504C57.545 18.6012 59.1995 16.9357 59.1995 14.8811C59.1995 12.8266 57.545 11.161 55.504 11.161Z" fill="#99AAB5"/>
<path d="M25.9403 40.9219H3.76743C1.72648 40.9219 0.0719604 42.5874 0.0719604 44.642C0.0719604 46.6965 1.72648 48.3621 3.76743 48.3621H25.9403C27.9812 48.3621 29.6357 46.6965 29.6357 44.642C29.6357 42.5874 27.9812 40.9219 25.9403 40.9219Z" fill="#99AAB5"/>
<path d="M55.504 26.0414H3.76743C1.72648 26.0414 0.0719604 27.707 0.0719604 29.7615C0.0719604 31.8161 1.72648 33.4817 3.76743 33.4817H55.504C57.545 33.4817 59.1995 31.8161 59.1995 29.7615C59.1995 27.707 57.545 26.0414 55.504 26.0414Z" fill="#99AAB5"/>
</g>
<defs>
<clipPath id="clip0_102_3473">
<rect width="59.1275" height="59.5217" fill="white" transform="translate(0.0722656 0.000244141)"/>
</clipPath>
</defs>
</svg>
