<svg width="60" height="59" viewBox="0 0 60 59" fill="none" xmlns="http://www.w3.org/2000/svg">
<path d="M17.8226 2.45032C17.178 2.45039 16.5597 2.7065 16.1039 3.16235C15.648 3.61819 15.3919 4.23644 15.3918 4.88111V14.6043C15.3921 15.1735 15.592 15.7246 15.9568 16.1615L26.8147 29.1891L15.9568 42.2167C15.592 42.6535 15.3921 43.2046 15.3918 43.7739V53.4971C15.3919 54.1417 15.648 54.7599 16.1039 55.2159C16.5597 55.6717 17.178 55.9279 17.8226 55.9279H42.1306C42.7753 55.9279 43.3934 55.6717 43.8494 55.2159C44.3052 54.7599 44.5614 54.1417 44.5614 53.4971V43.7739C44.5612 43.2046 44.3614 42.6535 43.9965 42.2167L33.1386 29.1891L43.9965 16.1615C44.3614 15.7246 44.5612 15.1735 44.5614 14.6043V4.88111C44.5614 4.23644 44.3052 3.61819 43.8494 3.16235C43.3934 2.7065 42.7753 2.45039 42.1306 2.45032H17.8226ZM29.9766 32.9872L39.6998 44.6521V51.0663H20.2534V44.6521L29.9766 32.9872Z" fill="#99AAB5"/>
</svg>
