<svg width="61" height="61" viewBox="0 0 61 61" fill="none" xmlns="http://www.w3.org/2000/svg">
<path d="M30.1038 35.3162C28.8216 37.5863 28.1478 40.1492 28.1478 42.7564C28.1478 45.3636 28.8216 47.9266 30.1038 50.1966H8.27922V45.2365C8.27922 38.5403 21.4236 35.3162 28.1198 35.3162H30.1038ZM28.1198 30.3561C22.6636 30.3561 18.1995 25.8919 18.1995 20.4358C18.1995 14.9796 22.6636 10.5155 28.1198 10.5155C33.5759 10.5155 38.0401 14.9796 38.0401 20.4358C38.0401 25.8919 33.5759 30.3561 28.1198 30.3561ZM43.0002 32.8361C48.4564 32.8361 52.9205 37.3003 52.9205 42.7564C52.9205 48.2126 48.4564 52.6767 43.0002 52.6767C37.5441 52.6767 33.0799 48.2126 33.0799 42.7564C33.0799 37.3003 37.5441 32.8361 43.0002 32.8361ZM40.5201 48.2126L47.9604 42.7564L40.5201 37.3003V48.2126Z" fill="#99AAB5"/>
</svg>
