<svg width="60" height="61" viewBox="0 0 60 61" fill="none" xmlns="http://www.w3.org/2000/svg">
<g clip-path="url(#clip0_102_3487)">
<path d="M50.2957 1.33737L53.756 4.8442L48.147 10.531L53.756 16.2178L50.2957 19.7246L44.6842 14.0378L39.0751 19.7246L35.6123 16.2178L41.2238 10.531L35.6123 4.8442L39.0751 1.33737L44.6842 7.02418L50.2957 1.33737ZM20.2121 32.8516C25.6083 32.8516 30.0011 28.3999 30.0011 22.9314C30.0011 17.4628 25.6083 13.0111 20.2121 13.0111C14.8159 13.0111 10.4232 17.4628 10.4232 22.9314C10.4232 28.3999 14.8159 32.8516 20.2121 32.8516ZM20.2121 35.3317C8.6832 35.3317 0.634293 41.4501 0.634293 50.2121V52.6922H39.79V50.2121C39.79 41.4501 31.7411 35.3317 20.2121 35.3317Z" fill="#99AAB5"/>
</g>
<defs>
<clipPath id="clip0_102_3487">
<rect width="58.7333" height="59.5217" fill="white" transform="translate(0.624023 0.595581)"/>
</clipPath>
</defs>
</svg>
