<svg width="59" height="59" viewBox="0 0 59 59" fill="none" xmlns="http://www.w3.org/2000/svg">
<path d="M41.6871 14.7323V17.1525H17.2148C14.5131 17.1525 12.3204 19.3231 12.3204 21.9977V38.9582H7.42594C4.72176 38.9582 2.53149 36.7875 2.53149 34.113V14.7323C2.53149 12.0578 4.72176 9.88715 7.42594 9.88715H36.7926C39.4944 9.88715 41.6871 12.0578 41.6871 14.7323ZM17.2148 26.8428C17.2148 24.1683 19.4076 21.9977 22.1093 21.9977H51.476C54.1777 21.9977 56.3704 24.1683 56.3704 26.8428V46.2235C56.3704 48.898 54.1777 51.0687 51.476 51.0687H22.1093C19.4076 51.0687 17.2148 48.898 17.2148 46.2235V26.8428ZM29.03 35.2322L22.1093 46.2235H51.476L41.7434 30.765L33.9783 43.0911L29.03 35.2322Z" fill="#99AAB5"/>
</svg>
