<svg width="60" height="59" viewBox="0 0 60 59" fill="none" xmlns="http://www.w3.org/2000/svg">
<path d="M18.3633 44.1034C18.3633 42.4849 17.3146 41.1766 16.0223 41.1766H8.99705C7.70484 41.1766 6.65607 42.4849 6.65607 44.1034V49.957C6.65607 51.5755 7.70484 52.8838 8.99705 52.8838H16.02C17.3122 52.8838 18.361 51.5755 18.361 49.957V44.1034H18.3633Z" fill="#99AAB5"/>
<path d="M35.9262 26.2767C35.9262 24.8052 34.8771 23.616 33.5847 23.616H26.5604C25.2679 23.616 24.2189 24.8052 24.2189 26.2767V50.2233C24.2189 51.6948 25.2679 52.8841 26.5604 52.8841H33.5847C34.8771 52.8841 35.9262 51.6948 35.9262 50.2233V26.2767Z" fill="#99AAB5"/>
<path d="M53.4873 8.65643C53.4873 7.21773 52.4383 6.05481 51.1458 6.05481H44.1215C42.8291 6.05481 41.78 7.21773 41.78 8.65643V50.2821C41.78 51.7209 42.8291 52.8838 44.1215 52.8838H51.1458C52.4383 52.8838 53.4873 51.7209 53.4873 50.2821V8.65643Z" fill="#99AAB5"/>
</svg>
