<svg width="60" height="60" viewBox="0 0 60 60" fill="none" xmlns="http://www.w3.org/2000/svg">
<g clip-path="url(#clip0_102_3508)">
<path d="M53.8511 4.4784C53.8511 5.49465 53.0252 6.32613 52.0157 6.32613C51.0062 6.32613 50.1803 5.49465 50.1803 4.4784V2.63066C50.1803 1.61441 51.0062 0.782928 52.0157 0.782928C53.0252 0.782928 53.8511 1.61441 53.8511 2.63066V4.4784ZM6.02015 48.7132L7.96569 45.1286L9.91123 48.7132L13.4719 50.6718L9.91123 52.6304L7.96569 56.215L6.02015 52.6304L2.45944 50.6718L6.02015 48.7132ZM52.0157 10.0216C51.0062 10.0216 50.1803 10.8531 50.1803 11.8693V13.7171C50.1803 14.7333 51.0062 15.5648 52.0157 15.5648C53.0252 15.5648 53.8511 14.7333 53.8511 13.7171V11.8693C53.8511 10.8531 53.0435 10.0216 52.0157 10.0216ZM55.6865 6.32613H57.5219C58.5498 6.32613 59.3574 7.15761 59.3574 8.17387C59.3574 9.19012 58.5314 10.0216 57.5219 10.0216H55.6865C54.6771 10.0216 53.8511 9.19012 53.8511 8.17387C53.8511 7.15761 54.6771 6.32613 55.6865 6.32613ZM48.3449 6.32613H46.5094C45.5 6.32613 44.674 7.15761 44.674 8.17387C44.674 9.19012 45.5 10.0216 46.5094 10.0216H48.3449C49.3543 10.0216 50.1803 9.19012 50.1803 8.17387C50.1803 7.15761 49.3727 6.32613 48.3449 6.32613ZM29.2934 3.48066V13.9388L21.7315 21.533L14.3899 18.4843L29.2934 3.48066ZM46.0324 18.4843L31.1288 3.48066V13.9388L38.6908 21.533L46.0324 18.4843ZM13.6924 20.1841L21.034 23.2514V37.2942L13.6924 40.3614V20.1841ZM31.1288 46.6068V57.0649L46.0324 42.0613L38.6908 38.9941L31.1288 46.6068ZM29.2934 57.0649L14.3899 42.0613L21.7315 38.9941L29.2934 46.6068V57.0649ZM39.3882 37.2942L46.7299 40.3614V20.1841L39.3882 23.2514V37.2942ZM36.837 22.2906L37.5528 23.0112V37.5344L30.2111 44.9253L22.8695 37.5344V36.592L36.837 22.2906ZM22.8695 33.9498L35.5338 20.9787L34.1022 19.5374L22.8695 31.0488V33.9498ZM32.7991 18.2256L22.8695 28.4066V23.0112L30.2111 15.6203L32.7991 18.2256Z" fill="#99AAB5"/>
</g>
<defs>
<clipPath id="clip0_102_3508">
<rect width="58.7333" height="59.1275" fill="white" transform="translate(0.624023 0.782837)"/>
</clipPath>
</defs>
</svg>
