<svg width="60" height="60" viewBox="0 0 60 60" fill="none" xmlns="http://www.w3.org/2000/svg">
<path d="M30.3222 2.63068L13.6371 19.2603V41.4331L30.3222 58.0627L47.0072 41.4331V19.2603L30.3222 2.63068ZM38.8872 21.6069L31.2491 14.0127V6.15985L44.4489 19.3157L38.8872 21.6069ZM22.9066 37.6083V23.0851L30.3222 15.6942L37.7378 23.0851V37.6083L30.3222 44.9992L22.9066 37.6083ZM29.3952 14.0127L21.7572 21.6254L16.1955 19.3342L29.3952 6.15985V14.0127ZM21.0527 23.3253V37.3681L15.491 39.6593V21.0341L21.0527 23.3253ZM21.7572 39.0865L29.3952 46.6992V54.5336L16.1955 41.3777L21.7572 39.0865ZM31.2491 46.6807L38.8872 39.068L44.4489 41.3592L31.2491 54.5336V46.6807ZM39.5917 37.3681V23.3253L45.1533 21.0341V39.6778L39.5917 37.3681Z" fill="#99AAB5"/>
</svg>
