<svg width="61" height="60" viewBox="0 0 61 60" fill="none" xmlns="http://www.w3.org/2000/svg">
<path d="M31.5298 3.48096L46.6334 18.4846L39.1932 21.5333L31.5298 13.9392V3.48096ZM21.2995 23.2517L13.8593 20.1845V40.3618L21.2995 37.2945V23.2517ZM31.5298 46.6073V57.0655L46.6334 42.0619L39.1932 38.9946L31.5298 46.6073ZM29.6697 13.9392V3.48099L14.5661 18.4846L22.0063 21.5333L29.6697 13.9392ZM29.6697 57.0653L14.5661 42.0617L22.0063 38.9944L29.6697 46.6071V57.0653ZM39.9 37.2945L47.3402 40.3618V20.1845L39.9 23.2517V37.2945ZM30.5998 15.6206L38.04 23.0115V37.5347L30.5998 44.9257L23.1595 37.5347V23.0115L30.5998 15.6206Z" fill="#99AAB5"/>
</svg>
