<svg width="60" height="60" viewBox="0 0 60 60" fill="none" xmlns="http://www.w3.org/2000/svg">
<path d="M56.1248 12.8876V15.3266H57.9416C58.2694 15.3266 58.5349 15.5887 58.5349 15.912V26.9363C58.5349 27.2597 58.2694 27.5217 57.9416 27.5217H44.297C43.9694 27.5217 43.7037 27.2597 43.7037 26.9363V15.912C43.7037 15.5887 43.9694 15.3266 44.297 15.3266H46.1756V12.8876C46.1756 10.1559 48.5239 8.00958 51.1193 8.00958C53.7148 8.00958 56.1248 10.1559 56.1248 12.8876ZM48.6474 15.3266H53.5912V12.8876C53.5912 11.4939 52.4378 10.4486 51.1193 10.4486C49.8011 10.4486 48.6474 11.4939 48.6474 12.8876V15.3266Z" fill="#99AAB5"/>
<path d="M39.5492 15.2397L12.3835 21.1422V45.1742C12.3835 46.2279 13.1161 47.1437 14.1635 47.4033L23.5565 49.6986C23.7444 49.7423 23.9369 49.7652 24.1248 49.7652C24.8551 49.7652 25.5526 49.4325 26.0034 48.8472L26.4978 48.2028V40.5494L23.1808 44.8735L17.08 43.3813V38.0855L26.4978 40.1335V34.9362C26.4978 31.0567 29.685 27.9119 33.6167 27.9119H39.5492V15.2397Z" fill="#99AAB5"/>
<path d="M10.0359 21.1311H5.33936V38.2875H10.0359V21.1311Z" fill="#99AAB5"/>
<path d="M33.6069 32.5945C32.2963 32.5945 31.2339 33.6428 31.2339 34.936V50.3049C31.2339 51.5981 32.2963 52.6464 33.6069 52.6464H35.9799C36.3077 52.6464 36.5731 52.9083 36.5731 53.2317V58.2034C36.5731 58.7107 37.1827 58.978 37.5641 58.6378L43.6078 53.2503C44.0438 52.8615 44.6109 52.6464 45.1984 52.6464H56.1502C57.4608 52.6464 58.5232 51.5981 58.5232 50.3049V34.936C58.5232 33.6428 57.4608 32.5945 56.1502 32.5945H33.6069Z" fill="#99AAB5"/>
</svg>
