<svg width="60" height="60" viewBox="0 0 60 60" fill="none" xmlns="http://www.w3.org/2000/svg">
<path d="M56.1611 12.9847V10.5457C56.1611 7.81399 53.775 5.66766 51.2054 5.66766C48.6359 5.66766 46.311 7.81399 46.311 10.5457V12.9847H44.4511C44.1268 12.9847 43.8638 13.2468 43.8638 13.5701V24.5944C43.8638 24.9177 44.1268 25.1798 44.4511 25.1798H57.9598C58.2843 25.1798 58.5471 24.9177 58.5471 24.5944V13.5701C58.5471 13.2468 58.2843 12.9847 57.9598 12.9847H56.1611ZM53.6527 12.9847H48.7582V10.5457C48.7582 9.15196 49.9003 8.10668 51.2054 8.10668C52.5105 8.10668 53.6527 9.15196 53.6527 10.5457V12.9847Z" fill="#99AAB5"/>
<path d="M38.7682 18.0575C39.0924 18.0575 39.3555 18.3196 39.3555 18.6429V22.3502C39.3555 22.6734 39.0924 22.9355 38.7682 22.9355H24.0125L21.4185 37.5695H26.8257V42.4475H20.5609L19.0026 51.1972C18.8989 51.7794 18.3911 52.2036 17.7978 52.2036H15.3888C14.6275 52.2036 14.051 51.5182 14.184 50.7709L15.6664 42.4475H7.33388C6.57372 42.4475 5.99755 41.7641 6.12857 41.0178L6.55683 38.5788C6.6593 37.9954 7.16773 37.5695 7.76214 37.5695H16.523L19.117 22.9355H10.7845C10.0243 22.9355 9.44813 22.252 9.57915 21.5058L10.0074 19.0668C10.1099 18.4832 10.6183 18.0575 11.2127 18.0575H19.9735L21.5318 9.30784C21.6355 8.72565 22.1433 8.30145 22.7366 8.30145H25.1456C25.9068 8.30145 26.4834 8.98699 26.3502 9.7341L24.868 18.0575H38.7682Z" fill="#99AAB5"/>
<path d="M33.8679 32.5945C32.5704 32.5945 31.5186 33.6428 31.5186 34.936V50.3049C31.5186 51.5981 32.5704 52.6464 33.8679 52.6464H36.2173C36.5418 52.6464 36.8046 52.9083 36.8046 53.2317V58.2037C36.8046 58.711 37.4081 58.978 37.7857 58.6378L43.7691 53.2505C44.2008 52.8615 44.7622 52.6464 45.3439 52.6464H56.1866C57.4841 52.6464 58.5359 51.5981 58.5359 50.3049V34.936C58.5359 33.6428 57.4841 32.5945 56.1866 32.5945H33.8679Z" fill="#99AAB5"/>
</svg>
