<svg width="53" height="59" viewBox="0 0 53 59" fill="none" xmlns="http://www.w3.org/2000/svg">
<g clip-path="url(#clip0_102_3523)">
<path d="M44.0894 43.8038H8.8757V37.9896H44.0894V43.8038ZM44.0894 32.1754H8.8757V26.3612H44.0894V32.1754ZM44.0894 20.547H8.8757V14.7328H44.0894V20.547ZM0.0722656 58.3393L4.47398 53.9787L8.8757 58.3393L13.2774 53.9787L17.6791 58.3393L22.0808 53.9787L26.4826 58.3393L30.8843 53.9787L35.286 58.3393L39.6877 53.9787L44.0894 58.3393L48.4911 53.9787L52.8929 58.3393V0.197266L48.4911 4.55792L44.0894 0.197266L39.6877 4.55792L35.286 0.197266L30.8843 4.55792L26.4826 0.197266L22.0808 4.55792L17.6791 0.197266L13.2774 4.55792L8.8757 0.197266L4.47398 4.55792L0.0722656 0.197266V58.3393Z" fill="#99AAB5"/>
</g>
<defs>
<clipPath id="clip0_102_3523">
<rect width="52.8206" height="58.1421" fill="white" transform="translate(0.0722656 0.197266)"/>
</clipPath>
</defs>
</svg>
