<svg width="60" height="60" viewBox="0 0 60 60" fill="none" xmlns="http://www.w3.org/2000/svg">
<path d="M30.191 5.33148C36.9705 5.33148 42.4682 10.8451 42.4682 17.6497V22.577H17.9138V17.6497C17.9138 10.8451 23.4091 5.33148 30.191 5.33148ZM26.5078 13.9542C26.5078 15.9966 28.1579 17.6497 30.191 17.6497C32.2241 17.6497 33.8742 15.9966 33.8742 13.9542C33.8742 11.9119 32.2241 10.2588 30.191 10.2588C28.1579 10.2588 26.5078 11.9119 26.5078 13.9542ZM57.2008 54.6044H42.4682L47.3791 47.2135V29.9679H42.4682V44.7498C42.4682 46.1122 41.3681 47.2135 40.0127 47.2135H35.1019L37.5573 54.6044H22.8247L25.2801 47.2135H20.3693C19.0139 47.2135 17.9138 46.1122 17.9138 44.7498V29.9679H13.0029V47.2135L17.9138 54.6044H3.1812L8.09207 47.2135V29.9679C8.09207 27.2481 10.2946 25.0407 13.0029 25.0407H47.3791C50.0874 25.0407 52.2899 27.2481 52.2899 29.9679V47.2135L57.2008 54.6044ZM32.6464 34.8952C32.6464 36.2576 33.7465 37.3589 35.1019 37.3589C36.4573 37.3589 37.5573 36.2576 37.5573 34.8952C37.5573 33.5328 36.4573 32.4316 35.1019 32.4316C33.7465 32.4316 32.6464 33.5328 32.6464 34.8952Z" fill="#99AAB5"/>
</svg>
