<svg width="60" height="59" viewBox="0 0 60 59" fill="none" xmlns="http://www.w3.org/2000/svg">
<path d="M46.5149 29.7572C48.8236 32.7335 50.7431 35.6804 52.1543 38.4442C56.2305 46.4396 54.807 50.3519 52.8973 52.2261C52.0372 53.0642 50.4614 54.0686 47.8214 54.0686C43.2813 54.0686 36.7917 51.0484 29.978 45.9753C23.1617 51.0484 16.6721 54.0686 12.1346 54.0686C9.49437 54.0686 7.91623 53.0642 7.05857 52.2261C5.14634 50.3493 3.72278 46.4396 7.80153 38.4442C9.21264 35.6804 11.1348 32.7359 13.441 29.7572C6.45524 20.7305 2.70059 11.5768 7.05857 7.30294C7.91871 6.46232 9.49437 5.45801 12.1346 5.45801C16.6746 5.45801 23.1642 8.4783 29.978 13.5512C36.7942 8.4783 43.2838 5.45801 47.8214 5.45801C50.4614 5.45801 52.0372 6.45989 52.8973 7.30294C57.2553 11.5743 53.5007 20.7281 46.5149 29.7572ZM49.3719 10.7582C49.0254 10.4161 48.3375 10.3452 47.8214 10.3452C44.9767 10.3452 39.8807 12.5567 33.997 16.7572C37.4822 19.714 40.4791 22.6805 43.2838 25.8646C49.2025 17.9326 50.6958 12.0557 49.3719 10.7582ZM35.2658 34.9475C37.0834 33.1659 38.684 31.4408 40.1274 29.7718C38.6265 28.0294 37.006 26.2873 35.2658 24.5792C33.4809 22.832 31.7155 21.2901 29.978 19.8532C28.2402 21.2901 26.4751 22.832 24.69 24.5792C22.9498 26.2873 21.3293 28.0294 19.8284 29.7718C21.2719 31.4408 22.875 33.1659 24.69 34.9475C26.4751 36.6969 28.2402 38.2388 29.978 39.6708C31.7155 38.2388 33.4809 36.6969 35.2658 34.9475ZM12.1346 10.3452C11.621 10.3452 10.9329 10.4161 10.5864 10.7582C9.26001 12.0557 10.7559 17.9301 16.6746 25.8621C19.6489 22.485 22.6781 19.5429 25.959 16.7548C20.0727 12.5567 14.9792 10.3452 12.1346 10.3452ZM10.5839 48.7707C10.9304 49.1105 11.6185 49.1813 12.1346 49.1813C14.9792 49.1813 20.0752 46.9724 25.959 42.7742C22.496 39.8346 19.5292 36.8999 16.6871 33.6742C14.8995 36.069 13.3886 38.4196 12.2617 40.6287C9.62899 45.7871 10.0129 48.2111 10.5839 48.7707ZM47.8189 49.1813C48.3347 49.1813 49.023 49.1105 49.3694 48.7707C49.9403 48.2111 50.3245 45.7896 47.6917 40.6287C46.5647 38.4172 45.0539 36.0666 43.2662 33.6742C40.4216 36.9023 37.4549 39.837 33.9945 42.7742C39.8807 46.9724 44.9742 49.1813 47.8189 49.1813ZM34.9642 29.7621C34.9642 32.4613 32.7319 34.6492 29.978 34.6492C27.2241 34.6492 24.9917 32.4613 24.9917 29.7621C24.9917 27.0629 27.2241 24.8748 29.978 24.8748C32.7319 24.8748 34.9642 27.0629 34.9642 29.7621Z" fill="#99AAB5"/>
</svg>
