<svg width="60" height="60" viewBox="0 0 60 60" fill="none" xmlns="http://www.w3.org/2000/svg">
<path d="M53.7518 50.399L40.5982 37.1125C43.2543 33.6733 44.7104 29.4728 44.7104 25.0407C44.7104 19.7758 42.6787 14.8264 38.9933 11.1063C35.3104 7.38124 30.4105 5.33148 25.1983 5.33148C19.9861 5.33148 15.0862 7.38124 11.4033 11.1063C7.71791 14.8264 5.68622 19.7758 5.68622 25.0407C5.68622 30.3055 7.71791 35.2549 11.4033 38.975C15.0862 42.7001 19.9861 44.7498 25.1983 44.7498C29.5861 44.7498 33.7446 43.2815 37.1494 40.5961L50.303 53.8801L53.7518 50.399ZM25.1983 39.8225C21.2886 39.8225 17.6154 38.2852 14.852 35.4939C12.0862 32.7026 10.5642 28.9899 10.5642 25.0407C10.5642 21.0939 12.0862 17.3812 14.852 14.5899C17.6154 11.7961 21.2886 10.2588 25.1983 10.2588C29.108 10.2588 32.7812 11.7961 35.5446 14.5899C38.3104 17.3812 39.8323 21.0939 39.8323 25.0407C39.8323 28.9899 38.3104 32.7026 35.5446 35.4939C32.7812 38.2852 29.108 39.8225 25.1983 39.8225Z" fill="#99AAB5"/>
</svg>
