<svg width="60" height="61" viewBox="0 0 60 61" fill="none" xmlns="http://www.w3.org/2000/svg">
<path d="M44.6355 20.4358H42.18V15.4756C42.18 8.63065 36.6799 3.07529 29.9029 3.07529C23.1259 3.07529 17.6257 8.63065 17.6257 15.4756V20.4358H15.1703C12.4693 20.4358 10.2594 22.6678 10.2594 25.3959V50.1966C10.2594 52.9247 12.4693 55.1568 15.1703 55.1568H44.6355C47.3364 55.1568 49.5463 52.9247 49.5463 50.1966V25.3959C49.5463 22.6678 47.3364 20.4358 44.6355 20.4358ZM22.291 15.4756C22.291 11.2347 25.7041 7.78742 29.9029 7.78742C34.1017 7.78742 37.5147 11.2347 37.5147 15.4756V20.4358H22.291V15.4756ZM39.7246 40.2764H32.3583V47.7166H27.4474V40.2764H20.0811V35.3162H27.4474V27.876H32.3583V35.3162H39.7246V40.2764Z" fill="#99AAB5"/>
</svg>
