<svg width="64" height="59" viewBox="0 0 64 59" fill="none" xmlns="http://www.w3.org/2000/svg">
<g clip-path="url(#clip0_102_3541)">
<path d="M55.9707 18.2318H4.51817C2.48842 18.2318 0.842987 19.8642 0.842987 21.878C0.842987 23.8917 2.48842 25.5242 4.51817 25.5242H55.9707C58.0005 25.5242 59.6459 23.8917 59.6459 21.878C59.6459 19.8642 58.0005 18.2318 55.9707 18.2318Z" fill="#99AAB5"/>
<path d="M26.5693 32.8169H4.51817C2.48842 32.8169 0.842987 34.4494 0.842987 36.4631C0.842987 38.4769 2.48842 40.1093 4.51817 40.1093H26.5693C28.599 40.1093 30.2444 38.4769 30.2444 36.4631C30.2444 34.4494 28.599 32.8169 26.5693 32.8169Z" fill="#99AAB5"/>
</g>
<defs>
<clipPath id="clip0_102_3541">
<rect width="62.4781" height="58.3392" fill="white" transform="translate(0.842773 0.000244141)"/>
</clipPath>
</defs>
</svg>
