<svg width="59" height="60" viewBox="0 0 59 60" fill="none" xmlns="http://www.w3.org/2000/svg">
<g clip-path="url(#clip0_102_3544)">
<path d="M27.0596 10.4347L7.8433 0.76597C6.81135 0.380279 5.69098 0.300991 4.61529 0.537575C3.53961 0.774158 2.55388 1.31668 1.77519 2.10059C0.996508 2.88451 0.457605 3.87684 0.222598 4.95975C-0.0124083 6.04265 0.0663521 7.17055 0.449473 8.20942L10.0537 27.5546C10.5935 28.9931 10.5931 30.5808 10.0526 32.0195L0.807533 51.7419C0.310876 52.7311 0.13707 53.8528 0.310826 54.947C0.484583 56.0411 0.997077 57.052 1.77522 57.8353C2.55338 58.6187 3.55741 59.1345 4.64428 59.3095C5.73115 59.4844 6.84536 59.3094 7.82797 58.8095L27.4188 49.5023C28.848 48.9582 30.4251 48.9578 31.854 49.5012L51.0702 59.1699C52.1022 59.5554 53.2226 59.6352 54.2982 59.3983C55.3739 59.1617 56.3596 58.6192 57.1383 57.8353C57.917 57.0514 58.4559 56.059 58.6909 54.9761C58.9262 53.8932 58.8469 52.7653 58.464 51.7265L48.8598 32.3812C48.4953 31.6945 48.3046 30.9278 48.3049 30.1489C48.305 29.3701 48.496 28.6033 48.8609 27.9163L58.106 8.19399C58.6026 7.20479 58.7764 6.0831 58.6027 4.98893C58.4289 3.89477 57.9165 2.88399 57.1384 2.10062C56.3602 1.31725 55.3561 0.801314 54.2692 0.626392C53.1824 0.45147 52.0681 0.626443 51.0855 1.12643L31.4947 10.4336C30.8123 10.8009 30.0506 10.9931 29.277 10.9933C28.5033 10.9936 27.7417 10.8016 27.0596 10.4347Z" fill="#99AAB5"/>
</g>
<defs>
<clipPath id="clip0_102_3544">
<rect width="58.7333" height="59.1275" fill="white" transform="translate(0.0900879 0.404175)"/>
</clipPath>
</defs>
</svg>
