<svg width="60" height="61" viewBox="0 0 60 61" fill="none" xmlns="http://www.w3.org/2000/svg">
<path d="M25.3827 8.95946C26.0874 8.25251 27.1467 8.0424 28.0681 8.42307C28.9895 8.80126 29.5882 9.70844 29.5882 10.7046V50.2542C29.5882 51.2553 28.9895 52.1576 28.0681 52.5407C27.1467 52.9238 26.0874 52.7113 25.3827 52.0043L14.8063 40.3668H7.41537C6.06036 40.3668 4.95172 39.2545 4.95172 37.8949V23.0639C4.95172 21.7068 6.06036 20.592 7.41537 20.592H14.8063L25.3827 8.95946ZM34.5155 23.0637C38.5904 23.0637 41.9064 26.3934 41.9064 30.4794C41.9064 34.5703 38.5904 37.8949 34.5155 37.8949V32.9512C35.873 32.9512 36.9791 31.8414 36.9791 30.4794C36.9791 29.1174 35.873 28.0075 34.5155 28.0075V23.0637Z" fill="#99AAB5"/>
</svg>
