<svg width="60" height="61" viewBox="0 0 60 61" fill="none" xmlns="http://www.w3.org/2000/svg">
<path d="M48.9661 23.0589L52.0636 26.1982L46.6246 31.7104L52.0636 37.2227L48.9661 40.3619L43.5271 34.8497L38.0881 40.3619L34.9906 37.2227L40.4296 31.7104L34.9906 26.1982L38.0881 23.0589L43.5271 28.5711L48.9661 23.0589Z" fill="#99AAB5"/>
<path d="M28.6004 8.42549C28.1539 8.23928 27.663 8.19156 27.1897 8.28836C26.7164 8.38517 26.2822 8.62216 25.9419 8.9693L15.4785 20.587H8.16151C7.51465 20.587 6.89428 20.8475 6.43687 21.311C5.97947 21.7746 5.7225 22.4033 5.7225 23.0589V37.89C5.7225 38.5456 5.97947 39.1743 6.43687 39.6379C6.89428 40.1015 7.51465 40.3619 8.16151 40.3619H15.4785L25.9419 52.0043C26.2831 52.3529 26.7189 52.5907 27.1939 52.6873C27.6689 52.7838 28.1615 52.7349 28.6089 52.5466C29.0563 52.3583 29.4383 52.0393 29.7061 51.6301C29.9739 51.221 30.1154 50.7403 30.1126 50.2493V10.6996C30.1102 10.2116 29.9653 9.73522 29.6962 9.33053C29.4271 8.92584 29.0458 8.61093 28.6004 8.42549Z" fill="#99AAB5"/>
</svg>
