<svg width="59" height="60" viewBox="0 0 59 60" fill="none" xmlns="http://www.w3.org/2000/svg">
<path d="M27.9515 8.49474C27.0362 8.11913 25.9839 8.32645 25.284 9.02401L14.7781 20.502H7.43645C6.09048 20.502 4.98923 21.602 4.98923 22.941V37.575C4.98923 38.9164 6.09048 40.014 7.43645 40.014H14.7781L25.284 51.4968C25.9839 52.1944 27.0362 52.4041 27.9515 52.0261C28.8668 51.648 29.4614 50.7578 29.4614 49.77V10.7459C29.4614 9.76302 28.8668 8.86791 27.9515 8.49474ZM34.3559 13.1847V18.0628C41.1029 18.0628 46.592 23.5359 46.592 30.2579C46.592 36.9823 41.1029 42.453 34.3559 42.453V47.331C43.8022 47.331 51.4864 39.6749 51.4864 30.2579C51.4864 20.8457 43.8022 13.1847 34.3559 13.1847ZM34.3559 22.9408C38.4036 22.9408 41.6976 26.2262 41.6976 30.2579C41.6976 34.2945 38.4036 37.575 34.3559 37.575V32.6969C35.7043 32.6969 36.8031 31.6018 36.8031 30.2579C36.8031 28.914 35.7043 27.8189 34.3559 27.8189V22.9408Z" fill="#99AAB5"/>
</svg>
