<svg width="59" height="60" viewBox="0 0 59 60" fill="none" xmlns="http://www.w3.org/2000/svg">
<path d="M36.4155 30.2531C36.4155 30.2548 36.4155 30.2562 36.4155 30.2579C36.4155 31.6018 35.3278 32.6969 33.993 32.6969V37.575C37.9999 37.575 41.2607 34.2945 41.2607 30.2579C41.2607 30.2562 41.2607 30.2548 41.2607 30.2531H36.4155ZM46.1059 30.2531C46.1059 30.2548 46.1059 30.2562 46.1059 30.2579C46.1059 36.9823 40.672 42.453 33.993 42.453V47.331C43.3441 47.331 50.9511 39.6749 50.9511 30.2579C50.9511 30.2562 50.9511 30.2548 50.9511 30.2531H46.1059ZM25.0124 9.02401C25.7053 8.32645 26.747 8.11913 27.6531 8.49474C28.5591 8.86791 29.1478 9.76302 29.1478 10.7459V49.77C29.1478 50.7578 28.5591 51.648 27.6531 52.0261C26.747 52.4041 25.7053 52.1944 25.0124 51.4968L14.6123 40.014H7.34452C6.0121 40.014 4.92194 38.9164 4.92194 37.575V22.941C4.92194 21.602 6.0121 20.502 7.34452 20.502H14.6123L25.0124 9.02401Z" fill="#99AAB5"/>
<path d="M51.002 13.1802V10.7412C51.002 8.00949 48.64 5.86316 46.0963 5.86316C43.5526 5.86316 41.2511 8.00949 41.2511 10.7412V13.1802C39.9131 13.1802 38.8285 14.2722 38.8285 15.6192V22.9362C38.8285 24.2833 39.9131 25.3753 41.2511 25.3753H46.0963H50.9415C52.2795 25.3753 53.3641 24.2833 53.3641 22.9362V15.5582C53.3641 14.2449 52.3066 13.1802 51.002 13.1802ZM48.5189 13.1802H43.6737V10.7412C43.6737 9.34746 44.8043 8.30217 46.0963 8.30217C47.3883 8.30217 48.5189 9.34746 48.5189 10.7412V13.1802Z" fill="#99AAB5"/>
</svg>
