<svg width="59" height="61" viewBox="0 0 59 61" fill="none" xmlns="http://www.w3.org/2000/svg">
<path fill-rule="evenodd" clip-rule="evenodd" d="M7.42136 12.6771C7.42136 10.2189 9.3948 8.22778 11.8264 8.22778H47.0662C49.5 8.22778 51.4712 10.2189 51.4712 12.6771V39.3732C51.4712 41.8293 49.5 43.8226 47.0662 43.8226H27.2437L18.4339 52.7212V43.8226H11.8264C9.3948 43.8226 7.42136 41.8293 7.42136 39.3732V12.6771ZM29.899 13.2755C29.3872 13.064 28.7992 13.1808 28.4079 13.5735L22.535 20.0363H18.431C17.6786 20.0363 17.063 20.6556 17.063 21.4095V29.6494C17.063 30.4046 17.6786 31.0225 18.431 31.0225H22.535L28.4079 37.4882C28.7992 37.8809 29.3872 37.9976 29.899 37.786C30.4107 37.5732 30.743 37.0719 30.743 36.5157V14.5431C30.743 13.9896 30.4107 13.4856 29.899 13.2755ZM33.479 15.9164V18.663C37.2507 18.663 40.319 21.7446 40.319 25.5294C40.319 29.3157 37.2507 32.3959 33.479 32.3959V35.1424C38.7596 35.1424 43.055 30.8317 43.055 25.5294C43.055 20.2299 38.7596 15.9164 33.479 15.9164ZM33.479 21.4095C35.7417 21.4095 37.583 23.2594 37.583 25.5294C37.583 27.8022 35.7417 29.6494 33.479 29.6494V26.9027C34.2327 26.9027 34.847 26.2862 34.847 25.5294C34.847 24.7727 34.2327 24.1561 33.479 24.1561V21.4095Z" fill="#99AAB5"/>
</svg>
