<svg width="59" height="59" viewBox="0 0 59 59" fill="none" xmlns="http://www.w3.org/2000/svg">
<path d="M22.3326 29.1696C22.3326 33.0069 25.5203 36.1146 29.4517 36.1146C33.3832 36.1146 36.571 33.0069 36.571 29.1696C36.571 25.3324 33.3832 22.2245 29.4517 22.2245C25.5203 22.2245 22.3326 25.3324 22.3326 29.1696ZM32.7315 29.1696C32.7315 31.0875 31.1379 32.6422 29.172 32.6422C27.2059 32.6422 25.6123 31.0875 25.6123 29.1696C25.6123 27.2517 27.2059 25.697 29.172 25.697C31.1379 25.697 32.7315 27.2517 32.7315 29.1696Z" fill="#99AAB5"/>
<path d="M9.88367 4.86255C7.18054 4.86255 4.98923 7.03916 4.98923 9.72414V48.6169C4.98923 51.302 7.18054 53.4785 9.88367 53.4785H49.0392C51.7424 53.4785 53.9336 51.302 53.9336 48.6169V9.72414C53.9336 7.03916 51.7424 4.86255 49.0392 4.86255H9.88367ZM9.88367 29.1705C9.88367 29.1705 18.1562 17.0165 29.4614 17.0165C40.7666 17.0165 49.0392 29.1705 49.0392 29.1705C49.0392 29.1705 40.7666 41.3245 29.4614 41.3245C18.1562 41.3245 9.88367 29.1705 9.88367 29.1705Z" fill="#99AAB5"/>
</svg>
