<svg width="60" height="60" viewBox="0 0 60 60" fill="none" xmlns="http://www.w3.org/2000/svg">
<g clip-path="url(#clip0_102_3567)">
<path d="M54.817 5.86301V8.30202C56.1392 8.30202 57.211 9.36669 57.211 10.6801V18.0581C57.211 19.4051 56.1117 20.4971 54.7556 20.4971H44.9339C43.5777 20.4971 42.4785 19.4051 42.4785 18.0581V10.741C42.4785 9.39401 43.5777 8.30202 44.9339 8.30202V5.86301C44.9339 3.13131 47.2665 0.984985 49.8447 0.984985C52.4229 0.984985 54.817 3.13131 54.817 5.86301ZM47.3893 8.30202H52.3002V5.86301C52.3002 4.46928 51.1542 3.424 49.8447 3.424C48.5353 3.424 47.3893 4.46928 47.3893 5.86301V8.30202Z" fill="#99AAB5"/>
<path d="M37.5583 6.87523C35.2163 6.21601 32.7452 5.86316 30.192 5.86316C15.2875 5.86316 3.18217 17.8875 3.18217 32.6923C3.18217 37.5703 4.53267 42.1557 6.81622 46.0825L9.98374 44.2532C8.01939 40.863 6.86533 36.9118 6.86533 32.6923C6.86533 19.8875 17.3009 9.52168 30.192 9.52168C32.7665 9.52168 35.2431 9.93514 37.5583 10.6989V6.87523Z" fill="#99AAB5"/>
<path d="M52.3423 25.375C53.1113 27.6747 53.5275 30.1347 53.5275 32.692C53.5275 36.9115 52.3735 40.8627 50.3846 44.2773L53.5521 46.1066C55.8602 42.1554 57.2107 37.57 57.2107 32.692C57.2107 30.1559 56.8554 27.7013 56.1917 25.375H52.3423Z" fill="#99AAB5"/>
<path d="M35.103 32.6923C35.103 35.3752 32.8931 37.5703 30.1921 37.5703C27.4911 37.5703 25.2812 35.3752 25.2812 32.6923C25.2812 30.0094 27.4911 27.8143 30.1921 27.8143C32.8931 27.8143 35.103 30.0094 35.103 32.6923Z" fill="#99AAB5"/>
<path d="M21.5981 48.5457V49.7652H38.7861V48.5457C38.7861 44.3994 35.2503 41.2287 30.1921 41.2287C25.1339 41.2287 21.5981 44.3994 21.5981 48.5457Z" fill="#99AAB5"/>
<path d="M17.9147 32.6923C17.9147 25.9607 23.4149 20.4973 30.1919 20.4973C36.9688 20.4973 42.469 25.9607 42.469 32.6923C42.469 34.9118 41.8306 36.9606 40.7748 38.7655L43.9914 40.6191C45.3419 38.2777 46.1522 35.5948 46.1522 32.6923C46.1522 23.9607 38.9823 16.8387 30.1919 16.8387C21.4014 16.8387 14.2316 23.9607 14.2316 32.6923C14.2316 35.5704 15.0173 38.2777 16.3923 40.6191L19.609 38.7655C18.5531 36.9606 17.9147 34.9118 17.9147 32.6923Z" fill="#99AAB5"/>
</g>
<defs>
<clipPath id="clip0_102_3567">
<rect width="58.9304" height="58.5363" fill="white" transform="translate(0.731689 0.984924)"/>
</clipPath>
</defs>
</svg>
