<svg width="60" height="60" viewBox="0 0 60 60" fill="none" xmlns="http://www.w3.org/2000/svg">
<g clip-path="url(#clip0_102_3561)">
<path fill-rule="evenodd" clip-rule="evenodd" d="M30.0754 5.86316C15.2208 5.86316 3.15598 17.8875 3.15598 32.6923C3.15598 37.5703 4.50195 42.1556 6.77786 46.0824L9.93477 44.2532C7.977 40.863 6.8268 36.9118 6.8268 32.6923C6.8268 19.8875 17.2275 9.52167 30.0754 9.52167C42.9233 9.52167 53.324 19.8875 53.324 32.6923H56.9948C56.9948 17.8875 44.93 5.86316 30.0754 5.86316ZM14.1685 32.6923C14.1685 23.9606 21.3143 16.8387 30.0754 16.8387C38.8364 16.8387 45.9823 23.9606 45.9823 32.6923H42.3115C42.3115 25.9606 36.8297 20.4972 30.0754 20.4972C23.3211 20.4972 17.8393 25.9606 17.8393 32.6923C17.8393 34.9118 18.4756 36.9605 19.5279 38.7654L16.322 40.6191C14.9516 38.2776 14.1685 35.5703 14.1685 32.6923ZM30.0754 37.5703C32.7786 37.5703 34.9698 35.3864 34.9698 32.6923C34.9698 29.9981 32.7786 27.8143 30.0754 27.8143C27.3722 27.8143 25.1809 29.9981 25.1809 32.6923C25.1809 35.3864 27.3722 37.5703 30.0754 37.5703ZM30.0754 41.2288C25.0341 41.2288 21.5101 44.3995 21.5101 48.5458V49.7653H32.5226V41.5215C31.764 41.3508 30.9564 41.2288 30.0754 41.2288ZM42.3115 37.5703H54.5476C57.2395 37.5703 59.442 39.7654 59.442 42.4483V54.6434C59.442 57.3263 57.2395 59.5214 54.5476 59.5214H42.3115C39.6195 59.5214 37.417 57.3263 37.417 54.6434V42.4483C37.417 39.7654 39.6195 37.5703 42.3115 37.5703ZM42.3115 54.6434H54.5476V52.2044H42.3115V54.6434ZM42.3115 49.7653H54.5476V47.3263H42.3115V49.7653ZM42.3115 44.8873H54.5476V42.4483H42.3115V44.8873Z" fill="#99AAB5"/>
</g>
<defs>
<clipPath id="clip0_102_3561">
<rect width="58.7333" height="58.5363" fill="white" transform="translate(0.713379 0.984924)"/>
</clipPath>
</defs>
</svg>
