<svg width="59" height="60" viewBox="0 0 59 60" fill="none" xmlns="http://www.w3.org/2000/svg">
<path fill-rule="evenodd" clip-rule="evenodd" d="M34.4853 32.6855C34.4853 35.3668 32.2905 37.5607 29.6081 37.5607C26.9255 37.5607 24.7307 35.3668 24.7307 32.6855C24.7307 30.004 26.9255 27.81 29.6081 27.81C32.2905 27.81 34.4853 30.004 34.4853 32.6855ZM21.0727 49.7492V48.5303C21.0727 44.3864 24.5844 41.2173 29.6081 41.2173C34.6316 41.2173 38.1432 44.3864 38.1432 48.5303V49.7492H21.0727ZM17.4148 32.6855C17.4148 25.9575 22.8774 20.497 29.6081 20.497C36.3388 20.497 41.8012 25.9575 41.8012 32.6855C41.8012 34.9037 41.1673 36.9514 40.1185 38.7553L43.3132 40.6079C44.6544 38.2677 45.4592 35.5862 45.4592 32.6855C45.4592 23.9584 38.3384 16.8405 29.6081 16.8405C20.8776 16.8405 13.7568 23.9584 13.7568 32.6855C13.7568 35.5619 14.5372 38.2677 15.9028 40.6079L19.0974 38.7553C18.0489 36.9514 17.4148 34.9037 17.4148 32.6855Z" fill="#99AAB5"/>
<path d="M29.6081 9.5275C16.8051 9.5275 6.44084 19.8877 6.44084 32.6856C6.44084 36.9026 7.58702 40.8517 9.53795 44.2402L6.39208 46.0684C4.12414 42.1437 2.78287 37.5608 2.78287 32.6856C2.78287 17.8887 14.8054 5.87097 29.6081 5.87097C44.4106 5.87097 56.4331 17.8887 56.4331 32.6856C56.4331 37.5608 55.0919 42.1437 52.7997 46.0928L49.6538 44.2645C51.6291 40.8517 52.7751 36.9026 52.7751 32.6856C52.7751 19.8877 42.411 9.5275 29.6081 9.5275Z" fill="#99AAB5"/>
</svg>
