<svg width="59" height="61" viewBox="0 0 59 61" fill="none" xmlns="http://www.w3.org/2000/svg">
<path d="M53.9134 22.0398C53.539 21.1117 52.6494 20.5046 51.6673 20.5046H38.5848L31.9633 6.95087C31.1392 5.2663 28.4386 5.2663 27.6146 6.95087L20.9955 20.5046H7.91291C6.93086 20.5046 6.04119 21.1117 5.66685 22.0398C5.2925 22.968 5.49912 24.0429 6.19433 24.7521L17.3371 36.1584L12.8693 52.1705C12.5898 53.1733 12.9495 54.2482 13.7711 54.8628C14.5976 55.4799 15.7085 55.5023 16.552 54.9225L29.7901 45.8901L43.0258 54.9225C43.4342 55.2012 43.9033 55.3406 44.3749 55.3406C44.8781 55.3406 45.3813 55.1813 45.8091 54.8628C46.6307 54.2482 46.9905 53.1733 46.7109 52.1705L42.2431 36.1584L53.3859 24.7521C54.0811 24.0429 54.2877 22.968 53.9134 22.0398Z" fill="#99AAB5"/>
</svg>
