<svg width="60" height="59" viewBox="0 0 60 59" fill="none" xmlns="http://www.w3.org/2000/svg">
<g clip-path="url(#clip0_102_3578)">
<path d="M30.0579 40.3177C36.2516 40.3177 41.2726 35.3266 41.2726 29.1698C41.2726 23.013 36.2516 18.0219 30.0579 18.0219C23.8642 18.0219 18.8431 23.013 18.8431 29.1698C18.8431 35.3266 23.8642 40.3177 30.0579 40.3177ZM30.0579 11.1481C35.0668 11.1481 39.5882 13.175 42.8684 16.4357L50.8029 8.54843C45.528 3.26089 38.1697 0.000244141 30.0579 0.000244141C13.8342 0.000244141 0.713379 13.0869 0.713379 29.1698H11.9281C11.9281 19.2116 20.04 11.1481 30.0579 11.1481ZM48.232 29.1698C48.232 39.128 40.1201 47.1915 30.1022 47.1915C25.0933 47.1915 20.5719 45.1646 17.2474 41.904L9.31283 49.7912C14.6321 55.0788 21.946 58.3394 30.0579 58.3394C46.2816 58.3394 59.4467 45.2528 59.4467 29.1698H48.232Z" fill="#99AAB5"/>
</g>
<defs>
<clipPath id="clip0_102_3578">
<rect width="58.7333" height="58.3392" fill="white" transform="translate(0.713379 0.000244141)"/>
</clipPath>
</defs>
</svg>
