<svg width="60" height="59" viewBox="0 0 60 59" fill="none" xmlns="http://www.w3.org/2000/svg">
<g clip-path="url(#clip0_102_3580)">
<path fill-rule="evenodd" clip-rule="evenodd" d="M29.9907 15.9567V0.374586H6.49736C4.93965 0.374586 3.44575 0.987153 2.34428 2.07753C1.24282 3.1679 0.624023 4.64677 0.624023 6.18879L0.624023 52.528C0.624023 54.07 1.24282 55.5489 2.34428 56.6393C3.44575 57.7297 4.93965 58.3422 6.49736 58.3422H53.484C55.0417 58.3422 56.5356 57.7297 57.6371 56.6393C58.7386 55.5489 59.3574 54.07 59.3574 52.528V29.2712H43.4406C39.8806 29.2483 36.473 27.8382 33.9556 25.3462C31.4382 22.8542 30.0138 19.4808 29.9907 15.9567ZM29.9907 45.4056C27.3971 45.4056 24.9098 44.3857 23.0758 42.5702C21.2419 40.7548 20.2116 38.2924 20.2116 35.725H24.1174C24.1174 37.267 24.7362 38.7459 25.8376 39.8362C26.9391 40.9266 28.433 41.5392 29.9907 41.5392C31.5484 41.5392 33.0423 40.9266 34.1438 39.8362C35.2452 38.7459 35.864 37.267 35.864 35.725H39.7698C39.7698 38.2924 38.7395 40.7548 36.9056 42.5702C35.0716 44.3857 32.5843 45.4056 29.9907 45.4056ZM35.864 15.8985V2.11885C35.8575 1.73871 35.9669 1.36546 36.178 1.04786C36.3891 0.730258 36.6921 0.483088 37.0474 0.338645C37.4026 0.194203 37.7937 0.159206 38.1693 0.238228C38.545 0.317251 38.8879 0.506617 39.1531 0.781581L58.7994 20.201C59.0644 20.4709 59.2433 20.812 59.314 21.1818C59.3846 21.5515 59.3439 21.9337 59.1968 22.2808C59.0496 22.6278 58.8027 22.9243 58.4866 23.1335C58.1706 23.3426 57.7993 23.4551 57.4192 23.457H43.4994C42.4956 23.4608 41.501 23.268 40.5729 22.8895C39.6447 22.511 38.8015 21.9544 38.0917 21.2517C37.3819 20.5491 36.8197 19.7143 36.4373 18.7956C36.055 17.8768 35.8601 16.8922 35.864 15.8985ZM14.801 38.2907C14.801 40.5052 12.9875 42.3005 10.7505 42.3005C8.51339 42.3005 6.69989 40.5052 6.69989 38.2907C6.69989 36.0761 8.51339 34.2809 10.7505 34.2809C12.9875 34.2809 14.801 36.0761 14.801 38.2907ZM49.2309 42.3005C51.468 42.3005 53.2815 40.5052 53.2815 38.2907C53.2815 36.0761 51.468 34.2809 49.2309 34.2809C46.9939 34.2809 45.1804 36.0761 45.1804 38.2907C45.1804 40.5052 46.9939 42.3005 49.2309 42.3005Z" fill="#99AAB5"/>
</g>
<defs>
<clipPath id="clip0_102_3580">
<rect width="58.7333" height="58.1421" fill="white" transform="translate(0.624023 0.197266)"/>
</clipPath>
</defs>
</svg>
