<svg width="60" height="59" viewBox="0 0 60 59" fill="none" xmlns="http://www.w3.org/2000/svg">
<path fill-rule="evenodd" clip-rule="evenodd" d="M34.4971 19.245V8.90962C34.4971 7.61229 36.0639 6.98526 36.9908 7.89337L51.8645 22.4666C52.7911 23.3748 52.1292 24.91 50.827 24.91H40.2788C37.079 24.91 34.4971 22.3802 34.4971 19.245ZM29.9795 19.2887C29.9795 24.8327 34.5715 29.3332 40.2283 29.3332H52.163V46.7263C52.163 49.1177 50.1667 51.0746 47.7262 51.0746H12.2327C9.79254 51.0746 7.796 49.1177 7.796 46.7263V11.9401C7.796 9.5486 9.79254 7.59187 12.2327 7.59187H29.9795V19.2887ZM30.0469 39.4429C33.7329 39.4429 36.7209 36.5144 36.7209 32.9019H41.1705C41.1705 38.9229 36.1902 43.8035 30.0469 43.8035C23.9037 43.8035 18.9236 38.9229 18.9236 32.9019H23.3729C23.3729 36.5144 26.361 39.4429 30.0469 39.4429Z" fill="#99AAB5"/>
</svg>
