<svg width="60" height="59" viewBox="0 0 60 59" fill="none" xmlns="http://www.w3.org/2000/svg">
<g clip-path="url(#clip0_102_3582)">
<path fill-rule="evenodd" clip-rule="evenodd" d="M35.9247 2.12506V15.9018C35.9231 16.8946 36.1222 17.8779 36.5106 18.7953C36.899 19.7127 37.469 20.5461 38.1879 21.2478C38.9068 21.9496 39.7605 22.5057 40.7 22.8844C41.6394 23.263 42.6462 23.4568 43.6625 23.4545H57.7692C58.1559 23.4558 58.5344 23.3449 58.8565 23.1358C59.1786 22.9267 59.4299 22.6288 59.5785 22.28C59.727 21.9312 59.7662 21.5472 59.691 21.1766C59.6158 20.806 59.4296 20.4656 59.156 20.1985L39.2609 0.767442C38.9886 0.496103 38.6394 0.310667 38.2582 0.235054C37.877 0.159441 37.4814 0.197118 37.1224 0.343226C36.7633 0.489334 36.4573 0.737171 36.2439 1.05477C36.0304 1.37237 35.9192 1.74516 35.9247 2.12506ZM43.5911 29.3501C39.956 29.3486 36.4703 27.9373 33.8999 25.4265C31.3295 22.9157 29.8848 19.5108 29.8832 15.96V0.366262H6.14598C4.57355 0.370863 3.06687 0.983069 1.95499 2.06918C0.843113 3.15529 0.21638 4.62705 0.21167 6.16303L0.21167 52.5372C0.21638 54.0731 0.843113 55.5449 1.95499 56.631C3.06687 57.7171 4.57355 58.3293 6.14598 58.3339H53.6205C55.1929 58.3293 56.6996 57.7171 57.8115 56.631C58.9234 55.5449 59.5501 54.0731 59.5548 52.5372V29.3501H43.5911ZM24.0204 45.4119C24.0026 44.6376 24.1434 43.8676 24.4345 43.1472C24.7256 42.4269 25.1611 41.7705 25.7154 41.2168C26.2698 40.6631 26.9317 40.2231 27.6625 39.9227C28.3933 39.6224 29.1782 39.4676 29.971 39.4676C30.7639 39.4676 31.5487 39.6224 32.2795 39.9227C33.0103 40.2231 33.6723 40.6631 34.2266 41.2168C34.781 41.7705 35.2165 42.4269 35.5075 43.1472C35.7986 43.8676 35.9394 44.6376 35.9217 45.4119H39.8888C39.8888 42.8421 38.8438 40.3775 36.9835 38.5604C35.1233 36.7433 32.6003 35.7225 29.9695 35.7225C27.3388 35.7225 24.8158 36.7433 22.9555 38.5604C21.0953 40.3775 20.0503 42.8421 20.0503 45.4119H24.0204ZM8.29472 39.4436L6.16384 37.3621L8.49709 35.0829L10.628 37.1644L12.7588 35.0829L15.0921 37.3621L12.9612 39.4436L15.0921 41.5251L12.7588 43.8042L10.628 41.7227L8.49709 43.8042L6.16384 41.5251L8.29472 39.4436ZM46.9838 39.4436L44.8529 37.3621L47.1862 35.0829L49.3171 37.1644L51.448 35.0829L53.7812 37.3621L51.6503 39.4436L53.7812 41.5251L51.448 43.8042L49.3171 41.7227L47.1862 43.8042L44.8529 41.5251L46.9838 39.4436Z" fill="#99AAB5"/>
</g>
<defs>
<clipPath id="clip0_102_3582">
<rect width="59.5217" height="58.1421" fill="white" transform="translate(0.21167 0.197266)"/>
</clipPath>
</defs>
</svg>
