<svg width="61" height="59" viewBox="0 0 61 59" fill="none" xmlns="http://www.w3.org/2000/svg">
<path d="M50.4446 27.0302V33.1278H10.7634V11.1767H33.0841V6.29865H10.7634C9.44793 6.29865 8.1863 6.81257 7.2561 7.72739C6.32587 8.64219 5.8033 9.88294 5.8033 11.1767V38.0058C5.8033 39.2994 6.32587 40.5402 7.2561 41.455C8.1863 42.3699 9.44793 42.8838 10.7634 42.8838H28.1239V47.7618H18.2036V52.6399H43.0043V47.7618H33.0841V42.8838H50.4446C51.76 42.8838 53.0216 42.3699 53.9519 41.455C54.8821 40.5402 55.4047 39.2994 55.4047 38.0058V27.0302H50.4446Z" fill="#99AAB5"/>
<path d="M57.8805 6.18083L54.2802 2.64001L47.9729 8.86781L41.6403 2.64001L38.04 6.18083L44.3726 12.3835L38.04 18.6113L41.6403 22.1521L47.9729 15.9243L54.2802 22.1521L57.8805 18.6113L51.5479 12.3835L57.8805 6.18083Z" fill="#99AAB5"/>
</svg>
