<svg width="60" height="59" viewBox="0 0 60 59" fill="none" xmlns="http://www.w3.org/2000/svg">
<path d="M10.1364 6.29865C7.40092 6.29865 5.17629 8.48644 5.17629 11.1767V38.0058C5.17629 40.6985 7.40092 42.8838 10.1364 42.8838H27.4969V47.7618H17.5766V52.6399H42.3774V47.7618H32.4571V42.8838H49.8176C52.5531 42.8838 54.7777 40.6985 54.7777 38.0058V11.1767C54.7777 8.48644 52.5531 6.29865 49.8176 6.29865H10.1364ZM36.297 14.8352L39.8973 18.376L33.5647 24.5787L39.8973 30.8066L36.297 34.3473L29.9896 28.1195L23.6571 34.3473L20.0567 30.8066L26.3893 24.5787L20.0567 18.376L23.6571 14.8352L29.9896 21.063L36.297 14.8352Z" fill="#99AAB5"/>
</svg>
