<svg width="61" height="60" viewBox="0 0 61 60" fill="none" xmlns="http://www.w3.org/2000/svg">
<path d="M54.6781 33.3435L27.3973 6.42401C26.931 5.96393 26.3036 5.70697 25.6439 5.70697H8.28337C6.91189 5.70697 5.8033 6.80088 5.8033 8.15419V25.2847C5.8033 25.9357 6.06371 26.5549 6.52996 27.0149L33.8107 53.9344C34.2944 54.4116 34.9293 54.6514 35.5642 54.6514C36.1991 54.6514 36.8339 54.4116 37.3176 53.9344L54.6781 36.8038C55.6478 35.847 55.6478 34.3003 54.6781 33.3435ZM18.2037 22.8375C15.4607 22.8375 13.2435 20.6448 13.2435 17.9431C13.2435 15.2365 15.4607 13.0486 18.2037 13.0486C20.9417 13.0486 23.1638 15.2365 23.1638 17.9431C23.1638 20.6448 20.9417 22.8375 18.2037 22.8375Z" fill="#99AAB5"/>
</svg>
