<svg width="60" height="59" viewBox="0 0 60 59" fill="none" xmlns="http://www.w3.org/2000/svg">
<path d="M47.1254 2.64001C48.4763 2.64001 49.5726 3.73025 49.5726 5.07903V7.51804L56.9143 5.07903V14.8351L49.5726 12.3961V14.8351C49.5726 16.1838 48.4763 17.2741 47.1254 17.2741H37.3365C35.9856 17.2741 34.8893 16.1838 34.8893 14.8351V5.07903C34.8893 3.73025 35.9856 2.64001 37.3365 2.64001H47.1254Z" fill="#99AAB5"/>
<path d="M49.5725 33.1278V22.1522H54.467V38.0058C54.467 40.6985 52.2718 42.8838 49.5725 42.8838H32.442V47.7618H42.2309V52.6399H17.7587V47.7618H27.5475V42.8838H10.417C7.71771 42.8838 5.52255 40.6985 5.52255 38.0058V11.1767C5.52255 8.48644 7.71771 6.29865 10.417 6.29865H29.9948V11.1767H10.417V33.1278H49.5725Z" fill="#99AAB5"/>
</svg>
