<svg width="60" height="60" viewBox="0 0 60 60" fill="none" xmlns="http://www.w3.org/2000/svg">
<path d="M54.4377 27.0104H5.81201V32.5228H30.1249C34.5929 32.5228 38.2291 36.2325 38.2291 40.7914C38.2291 45.35 34.5929 49.0599 30.1249 49.0599H22.0206V46.3038H16.6177V51.816C16.6177 53.3376 17.828 54.5724 19.3192 54.5724H30.1249C37.5726 54.5724 43.6321 48.3901 43.6321 40.7914C43.6321 37.6769 42.5757 34.8325 40.8632 32.5228H54.4377V27.0104Z" fill="#99AAB5"/>
<path d="M22.5152 21.4982C22.21 20.6328 22.0155 19.7122 22.0155 18.742C22.0155 14.1833 25.6515 10.4734 30.1198 10.4734H35.5225V13.2296H40.9254V7.71724C40.9254 6.19584 39.7151 4.96106 38.2241 4.96106H30.1198C22.6719 4.96106 16.6126 11.1432 16.6126 18.742C16.6126 19.6846 16.7072 20.608 16.8855 21.4982H22.5152Z" fill="#99AAB5"/>
</svg>
