<svg width="60" height="60" viewBox="0 0 60 60" fill="none" xmlns="http://www.w3.org/2000/svg">
<path d="M31.8261 44.8622V15.4955H28.1552V44.8622H31.8261Z" fill="#99AAB5"/>
<path d="M16.531 32.0142C14.8416 32.0142 13.472 33.3837 13.472 35.0732V44.8621H9.80118V35.0732C9.80118 31.3564 12.8142 28.3434 16.531 28.3434H43.4505C47.1673 28.3434 50.1804 31.3564 50.1804 35.0732V44.8621H46.5095V35.0732C46.5095 33.3837 45.1401 32.0142 43.4505 32.0142H16.531Z" fill="#99AAB5"/>
<path d="M29.9949 17.9426C26.616 17.9426 23.8768 15.2034 23.8768 11.8245C23.8768 8.44563 26.616 5.70648 29.9949 5.70648C33.3738 5.70648 36.113 8.44563 36.113 11.8245C36.113 15.2034 33.3738 17.9426 29.9949 17.9426Z" fill="#99AAB5"/>
<path d="M48.3491 54.6514C44.9702 54.6514 42.231 51.9122 42.231 48.5333C42.231 45.1545 44.9702 42.4153 48.3491 42.4153C51.7279 42.4153 54.4671 45.1545 54.4671 48.5333C54.4671 51.9122 51.7279 54.6514 48.3491 54.6514Z" fill="#99AAB5"/>
<path d="M29.9949 54.6514C26.616 54.6514 23.8768 51.9122 23.8768 48.5333C23.8768 45.1545 26.616 42.4153 29.9949 42.4153C33.3738 42.4153 36.113 45.1545 36.113 48.5333C36.113 51.9122 33.3738 54.6514 29.9949 54.6514Z" fill="#99AAB5"/>
<path d="M11.6406 54.6514C8.26171 54.6514 5.52255 51.9122 5.52255 48.5333C5.52255 45.1545 8.26171 42.4153 11.6406 42.4153C15.0195 42.4153 17.7587 45.1545 17.7587 48.5333C17.7587 51.9122 15.0195 54.6514 11.6406 54.6514Z" fill="#99AAB5"/>
</svg>
