<svg width="60" height="59" viewBox="0 0 60 59" fill="none" xmlns="http://www.w3.org/2000/svg">
<path d="M41.6949 6.12146L35.0874 14.4826H24.9021L18.2946 6.12146L22.1172 3.02722L29.9948 12.9937L37.8724 3.02722L41.6949 6.12146ZM10.417 16.9599H49.5725C52.2645 16.9599 54.467 19.1896 54.467 21.9147V46.6885C54.467 49.4137 52.2645 51.6432 49.5725 51.6432H10.417C7.72505 51.6432 5.52255 49.4137 5.52255 46.6885V21.9147C5.52255 19.1896 7.72505 16.9599 10.417 16.9599ZM10.417 46.6885H39.7837V21.9147H10.417V46.6885ZM44.6781 40.4951C44.6781 41.8626 45.7745 42.9723 47.1253 42.9723C48.4762 42.9723 49.5725 41.8626 49.5725 40.4951C49.5725 39.1275 48.4762 38.0176 47.1253 38.0176C45.7745 38.0176 44.6781 39.1275 44.6781 40.4951ZM44.6781 28.1082C44.6781 29.4758 45.7745 30.5854 47.1253 30.5854C48.4762 30.5854 49.5725 29.4758 49.5725 28.1082C49.5725 26.7406 48.4762 25.6307 47.1253 25.6307C45.7745 25.6307 44.6781 26.7406 44.6781 28.1082Z" fill="#99AAB5"/>
</svg>
