<svg width="60" height="60" viewBox="0 0 60 60" fill="none" xmlns="http://www.w3.org/2000/svg">
<path d="M29.973 6.31653C23.3984 6.31653 18.0687 11.611 18.0687 18.142V29.9675C18.0687 36.4986 23.3984 41.793 29.973 41.793H41.8774C48.452 41.793 53.7817 36.4986 53.7817 29.9675V18.142C53.7817 11.611 48.452 6.31653 41.8774 6.31653H29.973ZM29.3721 32.3451C29.3181 32.6469 29.5519 32.9239 29.8605 32.9239H30.837C31.0774 32.9239 31.2834 32.7526 31.3253 32.5173L31.957 28.982H37.9092L37.3083 32.3451C37.2543 32.6469 37.4881 32.9239 37.7967 32.9239H38.7732C39.0138 32.9239 39.2196 32.7526 39.2615 32.5173L39.8934 28.982H43.4447C43.6856 28.982 43.8917 28.8101 43.9332 28.5743L44.1069 27.5888C44.16 27.2873 43.9264 27.0112 43.6182 27.0112H40.2405L41.2921 21.0984H44.8435C45.0844 21.0984 45.2905 20.9263 45.332 20.6906L45.5057 19.7052C45.5588 19.4037 45.3252 19.1275 45.017 19.1275H41.6393L42.2401 15.7645C42.2942 15.4627 42.0604 15.1857 41.7518 15.1857H40.7753C40.5347 15.1857 40.3289 15.357 40.2869 15.5923L39.6553 19.1275H33.7031L34.304 15.7645C34.3578 15.4627 34.1242 15.1857 33.8156 15.1857H32.839C32.5985 15.1857 32.3927 15.357 32.3506 15.5923L31.7189 19.1275H28.1676C27.9267 19.1275 27.7206 19.2995 27.679 19.5352L27.5054 20.5207C27.4523 20.8223 27.6859 21.0984 27.9941 21.0984H31.3718L30.3202 27.0112H26.7688C26.5279 27.0112 26.3218 27.1832 26.2803 27.419L26.1066 28.4044C26.0535 28.7059 26.2871 28.982 26.5953 28.982H29.973L29.3721 32.3451ZM32.3046 27.0112L33.3562 21.0984H39.3084L38.2568 27.0112H32.3046Z" fill="#99AAB5"/>
<path d="M14.0989 21.1293C9.31338 24.3113 6.16263 29.7305 6.16263 35.8805C6.16263 45.677 14.1573 53.6187 24.0191 53.6187C30.21 53.6187 35.6648 50.4892 38.8683 45.7358H36.4098C33.5009 49.3401 29.0313 51.6478 24.0191 51.6478C15.2531 51.6478 8.14668 44.5886 8.14668 35.8805C8.14668 30.9012 10.4702 26.461 14.0989 23.5714V21.1293Z" fill="#99AAB5"/>
</svg>
