<svg width="61" height="60" viewBox="0 0 61 60" fill="none" xmlns="http://www.w3.org/2000/svg">
<path d="M43.7531 22.9361L42.8593 27.9117H37.9004L38.7942 22.9361L23.9093 22.9355L21.2804 37.5695H26.7602V42.4475H20.4113L18.8321 51.1972C18.727 51.7794 18.2123 52.2036 17.6111 52.2036H15.1698C14.3982 52.2036 13.814 51.5182 13.9489 50.7709L15.4511 42.4475H7.00674C6.23638 42.4475 5.65247 41.7641 5.78525 41.0178L6.21927 38.5788C6.32311 37.9954 6.83837 37.5695 7.44075 37.5695H16.3192L18.948 22.9355H10.5036C9.73328 22.9355 9.14937 22.252 9.28215 21.5058L9.71617 19.0668C9.82001 18.4832 10.3353 18.0575 10.9377 18.0575H19.8161L21.3953 9.30784C21.5003 8.72565 22.015 8.30145 22.6162 8.30145H25.0575C25.829 8.30145 26.4133 8.98699 26.2784 9.7341L24.7762 18.0575L39.661 18.0581L41.2402 9.30846C41.3453 8.72626 41.8599 8.30207 42.4611 8.30207H44.9024C45.6739 8.30207 46.2582 8.9876 46.1233 9.73472L44.6211 18.0581H53.0655C53.8359 18.0581 54.4198 18.7416 54.287 19.4878L53.853 21.9268C53.7491 22.5104 53.2339 22.9361 52.6315 22.9361H43.7531Z" fill="#99AAB5"/>
<path d="M33.9088 32.5945C32.5938 32.5945 31.5279 33.6428 31.5279 34.936V50.305C31.5279 51.5981 32.5938 52.6464 33.9088 52.6464H36.2896C36.6185 52.6464 36.8849 52.9084 36.8849 53.2318V58.2035C36.8849 58.7108 37.4964 58.9781 37.8791 58.6379L43.9429 53.2503C44.3804 52.8616 44.9493 52.6464 45.5391 52.6464H56.5271C57.842 52.6464 58.9079 51.5981 58.9079 50.305V34.936C58.9079 33.6428 57.842 32.5945 56.5271 32.5945H33.9088Z" fill="#99AAB5"/>
</svg>
