<svg width="59" height="59" viewBox="0 0 59 59" fill="none" xmlns="http://www.w3.org/2000/svg">
<path d="M56.4331 24.9044V10.3196H2.77481V24.9044C5.45772 24.9044 7.65283 27.0921 7.65283 29.766C7.65283 32.4398 5.45772 34.6276 2.77481 34.6276V49.2124H56.4331V34.6276C53.7502 34.6276 51.555 32.4398 51.555 29.766C51.555 27.0921 53.7502 24.9044 56.4331 24.9044ZM32.043 39.4892V44.3508H27.1649V39.4892H22.2869V34.6276H32.043C32.7015 34.6276 33.2625 34.2143 33.2625 33.7039C33.2625 31.1758 21.0674 33.7039 21.0674 25.8038C21.0674 22.6437 23.7991 20.0428 27.1649 20.0428V15.1812H32.043V20.0428H36.921V24.9044H27.1649C26.5064 24.9044 25.9454 25.3176 25.9454 25.8281C25.9454 28.3561 38.1405 25.8281 38.1405 33.7282C38.1405 36.8882 35.4088 39.4892 32.043 39.4892Z" fill="#99AAB5"/>
</svg>
