<svg width="60" height="60" viewBox="0 0 60 60" fill="none" xmlns="http://www.w3.org/2000/svg">
<path d="M29.7026 35.1246C18.1738 35.1246 10.1249 41.2429 10.1249 50.005V54.9652H49.2804V50.005C49.2804 41.2429 41.2315 35.1246 29.7026 35.1246ZM27.2554 47.525C25.9021 47.525 24.8082 46.4164 24.8082 45.0449C24.8082 43.6734 25.9021 42.5648 27.2554 42.5648C28.6087 42.5648 29.7026 43.6734 29.7026 45.0449C29.7026 46.4164 28.6087 47.525 27.2554 47.525ZM34.5971 47.525C33.2438 47.525 32.1499 46.4164 32.1499 45.0449C32.1499 43.6734 33.2438 42.5648 34.5971 42.5648C35.9504 42.5648 37.0443 43.6734 37.0443 45.0449C37.0443 46.4164 35.9504 47.525 34.5971 47.525Z" fill="#99AAB5"/>
<path d="M44.386 15.2845H44.1657C42.9959 8.25847 36.9635 2.88416 29.7026 2.88416C22.4417 2.88416 16.4093 8.25847 15.2395 15.2845H15.0193C12.3176 15.2845 10.1249 17.5066 10.1249 20.2446V22.7247C10.1249 25.4627 12.3176 27.6849 15.0193 27.6849C15.0193 30.4179 17.2145 32.645 19.9137 32.645H39.4915C42.1933 32.645 44.386 30.4179 44.386 27.6849C47.0877 27.6849 49.2804 25.4627 49.2804 22.7247V20.2446C49.2804 17.5066 47.0877 15.2845 44.386 15.2845ZM39.4915 25.2048H19.9137V15.2845H39.4915V25.2048Z" fill="#99AAB5"/>
</svg>
