<svg width="60" height="60" viewBox="0 0 60 60" fill="none" xmlns="http://www.w3.org/2000/svg">
<path d="M28.1734 5.36622L5.92168 33.5937C5.07265 34.6706 5.26039 36.2298 6.34101 37.076C6.77939 37.4192 7.32077 37.606 7.87829 37.606H17.6885V52.4864C17.6885 53.8561 18.8026 54.9665 20.1768 54.9665H40.0831C41.4573 54.9665 42.5713 53.8561 42.5713 52.4864V37.606H52.3814C53.7557 37.606 54.8697 36.4956 54.8697 35.1259C54.8697 34.5701 54.6826 34.0307 54.3382 33.5937L32.0865 5.36622C31.2375 4.2892 29.6733 4.10208 28.5927 4.94831C28.4366 5.07045 28.2958 5.21075 28.1734 5.36622Z" fill="#99AAB5"/>
</svg>
