<svg width="60" height="59" viewBox="0 0 60 59" fill="none" xmlns="http://www.w3.org/2000/svg">
<path d="M30.2464 9.95752H8.29531C5.60126 9.95752 3.4173 12.1415 3.4173 14.8355V44.1037C3.4173 46.7977 5.60126 48.9817 8.29531 48.9817H30.2464C32.9404 48.9817 35.1244 46.7977 35.1244 44.1037V14.8355C35.1244 12.1415 32.9404 9.95752 30.2464 9.95752Z" fill="#99AAB5"/>
<path d="M54.6364 9.95752H42.4414C41.0944 9.95752 40.0024 11.0495 40.0024 12.3965V24.5916C40.0024 25.9386 41.0944 27.0306 42.4414 27.0306H54.6364C55.9835 27.0306 57.0755 25.9386 57.0755 24.5916V12.3965C57.0755 11.0495 55.9835 9.95752 54.6364 9.95752Z" fill="#99AAB5"/>
<path d="M54.6364 31.9086H42.4414C41.0944 31.9086 40.0024 33.0006 40.0024 34.3476V46.5427C40.0024 47.8897 41.0944 48.9817 42.4414 48.9817H54.6364C55.9835 48.9817 57.0755 47.8897 57.0755 46.5427V34.3476C57.0755 33.0006 55.9835 31.9086 54.6364 31.9086Z" fill="#99AAB5"/>
</svg>
