<svg width="60" height="59" viewBox="0 0 60 59" fill="none" xmlns="http://www.w3.org/2000/svg">
<g clip-path="url(#clip0_102_3249)">
<path d="M30.3222 0C13.9664 0 0.659912 13.0855 0.659912 29.1696C0.659912 45.2566 13.9664 58.3392 30.3222 58.3392C46.678 58.3392 59.9845 45.2566 59.9845 29.1696C59.9845 13.0855 46.678 0 30.3222 0ZM27.356 11.6678H33.2885V32.0865H27.356V11.6678ZM30.3222 44.4836C28.2755 44.4836 26.6144 42.853 26.6144 40.8374C26.6144 38.8247 28.2755 37.1912 30.3222 37.1912C32.3689 37.1912 34.03 38.8247 34.03 40.8374C34.03 42.853 32.3689 44.4836 30.3222 44.4836Z" fill="#99AAB5"/>
</g>
<defs>
<clipPath id="clip0_102_3249">
<rect width="59.3246" height="58.3392" fill="white" transform="translate(0.659912)"/>
</clipPath>
</defs>
</svg>
