<svg width="61" height="60" viewBox="0 0 61 60" fill="none" xmlns="http://www.w3.org/2000/svg">
<path d="M28.1355 27.4369V22.3014C25.2553 21.28 23.1918 18.524 23.1918 15.2845C23.1918 11.1754 26.5118 7.8443 30.6074 7.8443C34.703 7.8443 38.023 11.1754 38.023 15.2845H42.9667C42.9667 8.43599 37.4332 2.88416 30.6074 2.88416C23.7815 2.88416 18.2481 8.43599 18.2481 15.2845C18.2481 19.7362 20.5862 23.64 24.0974 25.8273L16.5052 40.1388C16.2673 40.1036 16.0239 40.0852 15.7762 40.0852C13.0459 40.0852 10.8325 42.3059 10.8325 45.0454C10.8325 47.7849 13.0459 50.0055 15.7762 50.0055C17.8035 50.0055 19.5457 48.7813 20.3086 47.0294H40.9061C41.669 48.7813 43.4114 50.0055 45.4385 50.0055C48.169 50.0055 50.3823 47.7849 50.3823 45.0454C50.3823 42.3059 48.169 40.0852 45.4385 40.0852C43.4114 40.0852 41.669 41.3094 40.9061 43.0613H20.3086C20.2959 43.032 20.2829 43.003 20.2696 42.974L28.1355 27.4369Z" fill="#99AAB5"/>
<path d="M30.6079 20.2446C27.8775 20.2446 25.6642 18.0239 25.6642 15.2845C25.6642 12.5451 27.8775 10.3243 30.6079 10.3243C33.3383 10.3243 35.5516 12.5451 35.5516 15.2845C35.5516 16.364 35.2078 17.363 34.6242 18.1773L45.4391 32.645C52.2649 32.645 57.7984 38.1969 57.7984 45.0453C57.7984 51.8938 52.2649 57.4457 45.4391 57.4457C40.371 57.4457 36.0153 54.385 34.1081 50.0055H39.9117C41.2695 51.5277 43.2428 52.4855 45.4391 52.4855C49.5344 52.4855 52.8546 49.1546 52.8546 45.0453C52.8546 40.9361 49.5344 37.6051 45.4391 37.6051H42.9672L30.6079 20.2446Z" fill="#99AAB5"/>
<path d="M27.1078 50.0052C25.2005 54.3848 20.8449 57.4454 15.7768 57.4454C8.95093 57.4454 3.41748 51.8936 3.41748 45.0451C3.41748 38.1966 8.95093 32.6448 15.7768 32.6448V37.6049C11.6813 37.6049 8.3612 40.9359 8.3612 45.0451C8.3612 49.1543 11.6813 52.4853 15.7768 52.4853C17.973 52.4853 19.9463 51.5275 21.3041 50.0052H27.1078Z" fill="#99AAB5"/>
</svg>
