<svg width="60" height="59" viewBox="0 0 60 59" fill="none" xmlns="http://www.w3.org/2000/svg">
<path d="M54.2164 17.1599V12.3099C54.2164 9.6402 52.0237 7.46472 49.3219 7.46472H10.1664C7.46708 7.46472 5.27192 9.6402 5.27192 12.3099V17.1599H54.2164ZM19.9553 9.88731C21.3086 9.88731 22.4025 10.9726 22.4025 12.3099C22.4025 13.6496 21.3086 14.7325 19.9553 14.7325C18.6019 14.7325 17.508 13.6496 17.508 12.3099C17.508 10.9726 18.6019 9.88731 19.9553 9.88731ZM12.6136 9.88731C13.9669 9.88731 15.0608 10.9726 15.0608 12.3099C15.0608 13.6496 13.9669 14.7325 12.6136 14.7325C11.2603 14.7325 10.1664 13.6496 10.1664 12.3099C10.1664 10.9726 11.2603 9.88731 12.6136 9.88731Z" fill="#99AAB5"/>
<path d="M5.27192 19.5825V46.2261C5.27192 48.8982 7.46708 51.0712 10.1664 51.0712H49.3219C52.0237 51.0712 54.2164 48.8982 54.2164 46.2261V19.5825H5.27192Z" fill="#99AAB5"/>
</svg>
