<svg width="60" height="61" viewBox="0 0 60 61" fill="none" xmlns="http://www.w3.org/2000/svg">
<g clip-path="url(#clip0_102_7039)">
<path d="M37.6595 5.75647H22.8248V10.701H37.6595V5.75647Z" fill="#99AAB5"/>
<path d="M54.5159 22.5929C53.8532 21.3592 52.5676 20.5854 51.1681 20.5854H35.1837V18.1131C35.1837 15.3838 32.9684 13.1686 30.2388 13.1686C27.5092 13.1686 25.2939 15.3838 25.2939 18.1131V20.5854H9.31441C7.915 20.5854 6.62685 21.3592 5.96671 22.5929C5.30656 23.8265 5.37826 25.3247 6.15461 26.4916C6.80734 27.4681 7.78149 28.1826 8.9114 28.5015L25.2964 34.5116V42.8356H20.3515C17.6219 42.8356 15.4065 45.0508 15.4065 47.7801V52.7246H45.076V47.7801C45.076 45.0508 42.8607 42.8356 40.1311 42.8356H35.1862V34.5116L51.5687 28.5015C52.6986 28.1801 53.6752 27.4657 54.3255 26.4916C55.1043 25.3272 55.176 23.8265 54.5159 22.5929ZM30.2413 30.4769C28.1941 30.4769 26.5326 28.818 26.5326 26.7685C26.5326 24.7215 28.1941 23.0601 30.2413 23.0601C32.2909 23.0601 33.95 24.7215 33.95 26.7685C33.95 28.818 32.2909 30.4769 30.2413 30.4769Z" fill="#99AAB5"/>
</g>
<defs>
<clipPath id="clip0_102_7039">
<rect width="59.3389" height="59.3389" fill="white" transform="translate(0.572571 0.802612)"/>
</clipPath>
</defs>
</svg>
