<svg width="59" height="60" viewBox="0 0 59 60" fill="none" xmlns="http://www.w3.org/2000/svg">
<g clip-path="url(#clip0_102_6983)">
<path d="M29.4576 35.1257C32.1472 35.1257 34.3276 32.9117 34.3276 30.1807C34.3276 27.4498 32.1472 25.2358 29.4576 25.2358C26.768 25.2358 24.5876 27.4498 24.5876 30.1807C24.5876 32.9117 26.768 35.1257 29.4576 35.1257Z" fill="#99AAB5"/>
<path d="M52.3802 13.8966C54.2819 11.9656 54.2819 8.83547 52.3802 6.90448C50.4785 4.97349 47.3958 4.97349 45.494 6.90448C44.223 8.1951 43.8212 10.0198 44.2497 11.664L41.7344 14.2205C38.2329 11.8098 34.0057 10.4005 29.4572 10.4005C24.9086 10.4005 20.6814 11.8098 17.1775 14.2205L14.6621 11.664C15.0931 10.0198 14.6913 8.1951 13.4203 6.90448C11.5185 4.97349 8.43585 4.97349 6.53412 6.90448C4.63239 8.83547 4.63239 11.9656 6.53412 13.8966C7.80518 15.1872 9.59977 15.5927 11.219 15.16L13.4787 17.452C9.80675 21.4326 7.53977 26.7682 7.53977 32.6502V49.9574C7.53977 54.0517 10.81 57.3747 14.8448 57.3747C18.8795 57.3747 22.1497 54.0517 22.1497 49.9574C22.1497 54.0517 25.4199 57.3747 29.4547 57.3747C33.4895 57.3747 36.7597 54.0517 36.7597 49.9574C36.7597 54.0517 40.0299 57.3747 44.0647 57.3747C48.0995 57.3747 51.3697 54.0517 51.3697 49.9574V32.6502C51.3697 26.7657 49.1027 21.4326 45.4307 17.452L47.6904 15.16C49.3121 15.5927 51.1067 15.1872 52.3802 13.8966ZM29.4547 40.07C24.0758 40.07 19.7147 35.6418 19.7147 30.1802C19.7147 24.7185 24.0758 20.2904 29.4547 20.2904C34.8336 20.2904 39.1947 24.7185 39.1947 30.1802C39.1947 35.6418 34.8336 40.07 29.4547 40.07Z" fill="#99AAB5"/>
</g>
<defs>
<clipPath id="clip0_102_6983">
<rect width="58.4399" height="59.3389" fill="white" transform="translate(0.228729 0.500854)"/>
</clipPath>
</defs>
</svg>
