<svg width="60" height="60" viewBox="0 0 60 60" fill="none" xmlns="http://www.w3.org/2000/svg">
<g clip-path="url(#clip0_102_6997)">
<path d="M29.7691 7.92676C18.8458 7.92676 9.98946 16.7831 9.98946 27.7064C9.98946 47.4861 29.7691 54.9034 29.7691 54.9034C29.7691 54.9034 49.5488 47.4861 49.5488 27.7064C49.5488 16.7831 40.6924 7.92676 29.7691 7.92676ZM27.1434 37.3787C13.7822 37.3787 14.9987 25.2339 14.9987 25.2339C29.5713 25.2339 27.1434 37.3787 27.1434 37.3787ZM32.3924 37.3787C32.3924 37.3787 29.9644 25.2339 44.5371 25.2339C44.5396 25.2339 45.7535 37.3787 32.3924 37.3787Z" fill="#99AAB5"/>
</g>
<defs>
<clipPath id="clip0_102_6997">
<rect width="59.3389" height="59.3389" fill="white" transform="translate(0.0897827 0.500854)"/>
</clipPath>
</defs>
</svg>
