<svg width="59" height="60" viewBox="0 0 59 60" fill="none" xmlns="http://www.w3.org/2000/svg">
<path d="M46.4938 25.1121H12.4039C11.0597 25.1121 9.96887 26.203 9.96887 27.5471V44.5921H14.8389V29.9821H17.2739V44.5921C17.2739 45.9362 18.3647 47.0271 19.7088 47.0271H22.1438V54.332H27.0138V47.0271H31.8838V54.332H36.7538V47.0271H39.1888C40.5329 47.0271 41.6238 45.9362 41.6238 44.5921V29.9821H44.0588V44.5921H48.9288V27.5471C48.9288 26.203 47.8379 25.1121 46.4938 25.1121Z" fill="#99AAB5"/>
<path d="M17.2736 20.2421C17.2736 21.5862 18.3645 22.6771 19.7086 22.6771H39.1886C40.5327 22.6771 41.6236 21.5862 41.6236 20.2421C41.6236 17.7657 40.8712 15.4647 39.5952 13.541L43.3451 9.79113L39.902 6.34561L36.1521 10.0955C34.2261 8.822 31.9274 8.06715 29.4486 8.06715C26.9698 8.06715 24.6711 8.822 22.7451 10.0955L18.9952 6.34561L15.5521 9.79113L19.302 13.541C18.026 15.4647 17.2736 17.7657 17.2736 20.2421Z" fill="#99AAB5"/>
</svg>
