<svg width="60" height="60" viewBox="0 0 60 60" fill="none" xmlns="http://www.w3.org/2000/svg">
<g clip-path="url(#clip0_102_8876)">
<path d="M30.2426 3.7475C15.9271 3.7475 4.28183 15.3928 4.28183 29.7083C4.28183 44.0238 15.9271 55.6691 30.2426 55.6691C35.5361 55.6691 40.6096 54.1065 44.9191 51.1469L40.7209 45.0301C37.6526 47.1391 34.0304 48.2517 30.2426 48.2517C20.0165 48.2517 11.6992 39.9344 11.6992 29.7083C11.6992 19.4847 20.0165 11.1649 30.2426 11.1649C40.4687 11.1649 48.786 19.4847 48.786 29.7083V31.6442C48.786 33.2315 48.4325 35.8894 46.0663 35.8894H45.0798C44.3579 35.8622 42.8991 34.4505 42.8521 33.7409V29.7083C42.8521 22.7533 37.1952 17.0988 30.2426 17.0988C23.2901 17.0988 17.6331 22.7557 17.6331 29.7083C17.6331 36.6608 23.2901 42.3178 30.2426 42.3178C33.1379 42.3178 35.7784 41.2942 37.9097 39.6476C39.769 41.7912 42.4219 43.3068 45.0773 43.3068H46.0663C52.0348 43.3068 56.2034 38.5102 56.2034 31.6442V29.7083C56.2034 15.3928 44.5581 3.7475 30.2426 3.7475ZM30.2426 34.9004C27.3795 34.9004 25.0505 32.5714 25.0505 29.7083C25.0505 26.8477 27.3795 24.5161 30.2401 24.5161C33.1032 24.5161 35.4323 26.8452 35.4323 29.7083C35.4348 32.5714 33.1057 34.9004 30.2426 34.9004Z" fill="#99AAB5"/>
</g>
<defs>
<clipPath id="clip0_102_8876">
<rect width="59.3389" height="59.3389" fill="white" transform="translate(0.572571 0.0391846)"/>
</clipPath>
</defs>
</svg>
