<svg width="60" height="60" viewBox="0 0 60 60" fill="none" xmlns="http://www.w3.org/2000/svg">
<g clip-path="url(#clip0_102_8999)">
<path d="M51.885 52.2149L51.4598 52.1784C51.2966 52.1784 35.186 52.0932 35.186 44.6494V42.2144H45.0759C46.4407 42.2144 47.5483 41.1235 47.5483 39.7794C47.5483 38.4353 46.4407 37.3444 45.0759 37.3444H15.4064C14.0416 37.3444 12.9339 38.4353 12.9339 39.7794C12.9339 41.1235 14.0416 42.2144 15.4064 42.2144H25.2962V44.6494C25.2962 52.0737 9.1857 52.4073 9.02252 52.4073L8.60715 52.4414C6.63413 52.7725 5.36823 54.292 5.53142 56.1401C5.69213 57.9761 7.21516 59.2594 9.23515 59.2594H51.2471C54.4489 59.2594 54.8915 57.0411 54.9509 56.3617C55.1239 54.3942 53.7468 52.5363 51.885 52.2149Z" fill="#99AAB5"/>
<path d="M12.9354 30.0386H25.2977V34.9086H35.1875V30.0386H47.5498C53.004 30.0386 57.4396 25.6702 57.4396 20.2986C57.4396 14.927 53.004 10.5586 47.5498 10.5586C44.5062 10.5586 41.8112 11.949 39.9939 14.0894C39.3239 9.35576 35.2295 5.68866 30.2426 5.68866C25.2556 5.68866 21.1612 9.35576 20.4912 14.0894C18.674 11.949 15.979 10.5586 12.9354 10.5586C7.48115 10.5586 3.04556 14.927 3.04556 20.2986C3.04556 25.6702 7.48115 30.0386 12.9354 30.0386Z" fill="#99AAB5"/>
</g>
<defs>
<clipPath id="clip0_102_8999">
<rect width="59.3389" height="58.4399" fill="white" transform="translate(0.572571 0.817505)"/>
</clipPath>
</defs>
</svg>
