<svg width="60" height="60" viewBox="0 0 60 60" fill="none" xmlns="http://www.w3.org/2000/svg">
<g clip-path="url(#clip0_102_6541)">
<path d="M32.5054 10.3167V0.576721H27.6354V10.3167H0.850433V15.1867H8.15542V24.9267H13.0254V15.1867H27.6354V32.2316H32.5054V15.1867H47.1153V27.3617H51.9853V15.1867H59.2903V10.3167H32.5054Z" fill="#99AAB5"/>
<path d="M42.2451 44.4073H56.855L49.55 29.7973L42.2451 44.4073Z" fill="#99AAB5"/>
<path d="M10.5899 41.9731C14.6244 41.9731 17.8949 38.7025 17.8949 34.6681C17.8949 30.6337 14.6244 27.3631 10.5899 27.3631C6.55552 27.3631 3.28497 30.6337 3.28497 34.6681C3.28497 38.7025 6.55552 41.9731 10.5899 41.9731Z" fill="#99AAB5"/>
<path d="M22.7653 46.8416C22.7653 56.5816 30.6522 59.0166 37.3752 59.0166C37.3752 59.0166 32.5052 54.1466 32.5052 46.8416C32.5052 39.5366 37.3752 34.6666 37.3752 34.6666C30.6522 34.6666 22.7653 37.1016 22.7653 46.8416Z" fill="#99AAB5"/>
</g>
<defs>
<clipPath id="clip0_102_6541">
<rect width="58.4399" height="58.4399" fill="white" transform="translate(0.850433 0.576721)"/>
</clipPath>
</defs>
</svg>
