<svg width="59" height="60" viewBox="0 0 59 60" fill="none" xmlns="http://www.w3.org/2000/svg">
<path d="M17.326 54.1475C20.0156 54.1475 22.196 51.9671 22.196 49.2775C22.196 46.5879 20.0156 44.4075 17.326 44.4075C14.6364 44.4075 12.456 46.5879 12.456 49.2775C12.456 51.9671 14.6364 54.1475 17.326 54.1475Z" fill="#99AAB5"/>
<path d="M31.9356 54.1475C34.6252 54.1475 36.8055 51.9671 36.8055 49.2775C36.8055 46.5879 34.6252 44.4075 31.9356 44.4075C29.2459 44.4075 27.0656 46.5879 27.0656 49.2775C27.0656 51.9671 29.2459 54.1475 31.9356 54.1475Z" fill="#99AAB5"/>
<path d="M26.3573 20.0568H27.0707V7.88183C27.0707 6.53772 25.9799 5.44684 24.6357 5.44684H22.2007C19.2325 5.44684 16.4736 6.34048 14.1677 7.86722L26.3573 20.0568Z" fill="#99AAB5"/>
<path d="M12.2439 9.38928C9.38522 12.058 7.58576 15.8445 7.58576 20.0546H22.9092L12.2439 9.38928Z" fill="#99AAB5"/>
<path d="M41.6763 12.7518C40.6025 12.7518 39.6528 13.458 39.3436 14.488L36.9427 22.4918H7.58641C7.58641 23.2613 7.58154 24.2255 7.59858 24.9925C7.60345 25.2312 7.63267 25.4674 7.71059 25.6987L12.5806 40.3087C12.9142 41.3021 13.8419 41.9718 14.8914 41.9718H34.3713C35.4452 41.9718 36.3948 41.2656 36.7041 40.2356L43.488 17.6218H51.4163V12.7518H41.6763Z" fill="#99AAB5"/>
</svg>
