<svg width="59" height="61" viewBox="0 0 59 61" fill="none" xmlns="http://www.w3.org/2000/svg">
<g clip-path="url(#clip0_102_6532)">
<path d="M35.8889 42.8126L45.6435 47.144C46.6248 43.9671 47.3578 40.6766 47.9202 37.3835L35.8889 42.8126Z" fill="#99AAB5"/>
<path d="M29.602 28.0743C31.6192 28.0743 33.2545 26.414 33.2545 24.366C33.2545 22.3179 31.6192 20.6576 29.602 20.6576C27.5848 20.6576 25.9495 22.3179 25.9495 24.366C25.9495 26.414 27.5848 28.0743 29.602 28.0743Z" fill="#99AAB5"/>
<path d="M11.4344 37.3499C14.914 57.8695 20.9747 60.2157 29.6774 60.2157C36.8509 60.2157 40.9733 57.9956 43.8953 51.7705L11.4344 37.3499Z" fill="#99AAB5"/>
<path d="M29.845 40.1294L48.7114 31.6174C49.381 25.2267 49.1716 20.8508 49.1594 20.6579C49.1594 9.19659 40.9657 0.879944 29.6795 0.879944C18.3908 0.879944 10.1995 9.19659 10.2019 20.5244C10.1873 20.8038 9.97793 25.2044 10.65 31.6026L29.845 40.1294ZM29.6795 8.29669C36.4025 8.29669 41.8544 13.8296 41.8544 20.6579C41.8544 27.4838 36.4025 33.0192 29.6795 33.0192C22.9564 33.0192 17.5045 27.4838 17.5045 20.6579C17.5045 13.8296 22.9564 8.29669 29.6795 8.29669Z" fill="#99AAB5"/>
</g>
<defs>
<clipPath id="clip0_102_6532">
<rect width="58.4399" height="59.3389" fill="white" transform="translate(0.419434 0.880432)"/>
</clipPath>
</defs>
</svg>
