<svg width="59" height="59" viewBox="0 0 59 59" fill="none" xmlns="http://www.w3.org/2000/svg">
<path d="M12.7045 31.9243C8.67715 31.9243 5.39978 35.2017 5.39978 39.229H12.7045V31.9243Z" fill="#99AAB5"/>
<path d="M15.1392 24.619H20.009V17.3144H24.8788V24.619H34.6183V17.3144H39.4881V24.619H44.3579C45.702 24.619 46.7928 23.5282 46.7928 22.1841V12.4446C46.7928 8.41726 43.5154 5.13989 39.4881 5.13989H20.009C15.9817 5.13989 12.7043 8.41726 12.7043 12.4446V22.1841C12.7043 23.5282 13.7951 24.619 15.1392 24.619Z" fill="#99AAB5"/>
<path d="M46.7928 39.229H54.0975C54.0975 35.2017 50.8201 31.9243 46.7928 31.9243V39.229Z" fill="#99AAB5"/>
<path d="M46.7928 41.663V53.8375H51.6626C53.0066 53.8375 54.0975 52.7467 54.0975 51.4026V41.663H46.7928Z" fill="#99AAB5"/>
<path d="M12.7045 41.663H5.39978V51.4026C5.39978 52.7467 6.49061 53.8375 7.83467 53.8375H12.7045V41.663Z" fill="#99AAB5"/>
<path d="M44.3582 27.053H39.4884V31.9228H34.6186V27.053H24.879V31.9228H20.0093V27.053H15.1395V53.8368H44.3582V27.053ZM37.0535 41.6623H22.4442V36.7925H37.0535V41.6623Z" fill="#99AAB5"/>
</svg>
