<svg width="60" height="60" viewBox="0 0 60 60" fill="none" xmlns="http://www.w3.org/2000/svg">
<g clip-path="url(#clip0_102_7715)">
<path d="M47.0667 44.4714C47.0667 45.8131 45.9565 46.9064 44.5942 46.9064H32.2319V51.7764H42.1218C42.1218 53.1181 41.0116 54.2114 39.6493 54.2114H20.8933L14.9247 48.3333V35.7419L20.8933 29.8614H29.7595V32.2964C29.7595 33.6381 28.6493 34.7314 27.287 34.7314H22.3421V39.6014H27.287C31.3765 39.6014 34.7044 36.3239 34.7044 32.2964V27.4264C34.7044 26.0823 33.5967 24.9914 32.2319 24.9914H19.8697C19.2145 24.9914 18.584 25.2447 18.1216 25.7073L13.5896 30.1682C13.2435 29.9905 12.8701 29.8614 12.4523 29.8614H2.56247C1.19767 29.8614 0.0900116 30.9523 0.0900116 32.2964V51.7764C0.0900116 53.1229 1.19767 54.2114 2.56247 54.2114H12.4523C12.8701 54.2114 13.2435 54.0848 13.5896 53.9046L18.1216 58.3704C18.584 58.8233 19.2145 59.0814 19.8697 59.0814H39.6493C43.7387 59.0814 47.0667 55.8039 47.0667 51.7764V51.3284C49.9397 50.3203 52.0116 47.6418 52.0116 44.4714V42.0364H47.0667V44.4714ZM9.97983 49.3414H5.03492V34.7314H9.97983V49.3414Z" fill="#99AAB5"/>
<path d="M37.1768 7.94772V10.5069C34.3582 11.0718 32.2319 13.5312 32.2319 16.4702C32.2319 19.8256 35.006 22.5577 38.4131 22.5577H40.8855C41.5679 22.5577 42.1217 23.1031 42.1217 23.7752C42.1217 24.4472 41.5679 24.9927 40.8855 24.9927H37.1768V32.2977H42.1217V29.7409C44.9403 29.176 47.0667 26.7167 47.0667 23.7752C47.0667 20.4198 44.2926 17.6877 40.8855 17.6877H38.4131C37.7307 17.6877 37.1768 17.1423 37.1768 16.4702C37.1768 15.7981 37.7307 15.2527 38.4131 15.2527H47.0667V10.3827H42.1217V7.94772H37.1768Z" fill="#99AAB5"/>
<path d="M39.6488 0.642707C28.7428 0.642707 19.8692 9.38434 19.8692 20.1227C19.8692 20.9481 19.9384 21.7565 20.0398 22.5577H25.0366C24.9006 21.7663 24.8141 20.953 24.8141 20.1227C24.8141 12.0677 31.4675 5.5127 39.6488 5.5127C47.8302 5.5127 54.4836 12.0677 54.4836 20.1227C54.4836 28.1825 47.8302 34.7326 39.6488 34.7326C38.8057 34.7326 37.9824 34.6474 37.1764 34.5135V39.437C37.9874 39.5344 38.8107 39.6026 39.6488 39.6026C50.5548 39.6026 59.4285 30.8634 59.4285 20.1227C59.4285 9.38434 50.5548 0.642707 39.6488 0.642707Z" fill="#99AAB5"/>
</g>
<defs>
<clipPath id="clip0_102_7715">
<rect width="59.3389" height="58.4399" fill="white" transform="translate(0.089798 0.643555)"/>
</clipPath>
</defs>
</svg>
