<svg width="60" height="60" viewBox="0 0 60 60" fill="none" xmlns="http://www.w3.org/2000/svg">
<g clip-path="url(#clip0_102_7708)">
<path d="M39.6193 34.7334C42.3089 34.7334 44.4892 32.5531 44.4892 29.8634C44.4892 27.1738 42.3089 24.9935 39.6193 24.9935C36.9296 24.9935 34.7493 27.1738 34.7493 29.8634C34.7493 32.5531 36.9296 34.7334 39.6193 34.7334Z" fill="#99AAB5"/>
<path d="M56.6643 15.2522H53.1725L46.5761 4.25825C46.2254 3.67873 45.6508 3.26721 44.986 3.12842C44.3261 2.99206 43.6273 3.13816 43.0746 3.53019L26.6651 15.2522H35.0439L43.7588 9.02841L47.4941 15.2522H37.1843V20.1222H54.2293V39.6022H25.0093V34.7322H20.1393V42.0372C20.1393 43.3837 21.2302 44.4722 22.5743 44.4722H39.332L38.7865 45.5631C38.3726 46.3934 37.5398 46.9072 36.6121 46.9072H21.1474L15.2694 41.0291V28.4377L21.1474 22.5572H29.8793V24.9922C29.8793 26.3339 28.7884 27.4272 27.4443 27.4272H22.5743V32.2972H27.4443C31.4718 32.2972 34.7493 29.0197 34.7493 24.9922V20.1222C34.7493 18.7781 33.6609 17.6872 32.3143 17.6872H20.1393C19.4941 17.6872 18.8731 17.9405 18.4178 18.4031L13.9545 22.864C13.6136 22.6863 13.2459 22.5572 12.8344 22.5572H3.09439C1.75027 22.5572 0.659393 23.6481 0.659393 24.9922V44.4722C0.659393 45.8187 1.75027 46.9072 3.09439 46.9072H12.8344C13.2459 46.9072 13.6136 46.7805 13.9545 46.6004L18.4178 51.0661C18.8731 51.519 19.4941 51.7772 20.1393 51.7772H36.6121C39.3977 51.7772 41.9009 50.2309 43.1452 47.7375L44.7766 44.4722H56.6643C58.0108 44.4722 59.0993 43.3837 59.0993 42.0372V17.6872C59.0993 16.3431 58.0108 15.2522 56.6643 15.2522ZM10.3994 42.0372H5.52938V27.4272H10.3994V42.0372Z" fill="#99AAB5"/>
</g>
<defs>
<clipPath id="clip0_102_7708">
<rect width="58.4399" height="58.4399" fill="white" transform="translate(0.659256 0.643555)"/>
</clipPath>
</defs>
</svg>
