<svg width="59" height="60" viewBox="0 0 59 60" fill="none" xmlns="http://www.w3.org/2000/svg">
<g clip-path="url(#clip0_102_7723)">
<path d="M32.0743 13.4955V3.07855C32.0743 2.29692 31.6994 1.56155 31.0614 1.10377C30.4259 0.643555 29.6101 0.52424 28.8699 0.770174L22.5219 2.88618L18.5528 0.899229C17.8686 0.55833 17.0602 0.55833 16.3735 0.899229L12.4069 2.88618L6.05888 0.770174C5.31377 0.52424 4.50048 0.643555 3.86738 1.1062C3.22942 1.56398 2.85443 2.29692 2.85443 3.07855V13.4955C1.40561 14.3428 0.419434 15.8964 0.419434 17.6885V54.2134C0.419434 56.8992 2.60362 59.0834 5.28942 59.0834H29.6394C32.3252 59.0834 34.5093 56.8992 34.5093 54.2134V17.6885C34.5093 15.8964 33.5232 14.3428 32.0743 13.4955ZM11.8249 7.82435C12.4386 8.02889 13.1058 7.98019 13.6828 7.69286L17.4644 5.80331L21.2459 7.69043C21.823 7.98019 22.4902 8.02889 23.1038 7.82435L27.2044 6.45832V12.8185H7.72441V6.45832L11.8249 7.82435ZM29.632 54.2134H5.28942V17.6885H29.6394L29.632 54.2134Z" fill="#99AAB5"/>
<path d="M27.2046 20.1222H7.72462V29.8622H27.2046V20.1222Z" fill="#99AAB5"/>
<path d="M10.1596 37.1683C11.5044 37.1683 12.5946 36.0781 12.5946 34.7333C12.5946 33.3885 11.5044 32.2983 10.1596 32.2983C8.8148 32.2983 7.72462 33.3885 7.72462 34.7333C7.72462 36.0781 8.8148 37.1683 10.1596 37.1683Z" fill="#99AAB5"/>
<path d="M24.7696 37.1683C26.1144 37.1683 27.2046 36.0781 27.2046 34.7333C27.2046 33.3885 26.1144 32.2983 24.7696 32.2983C23.4248 32.2983 22.3346 33.3885 22.3346 34.7333C22.3346 36.0781 23.4248 37.1683 24.7696 37.1683Z" fill="#99AAB5"/>
<path d="M17.4646 37.1683C18.8094 37.1683 19.8996 36.0781 19.8996 34.7333C19.8996 33.3885 18.8094 32.2983 17.4646 32.2983C16.1198 32.2983 15.0296 33.3885 15.0296 34.7333C15.0296 36.0781 16.1198 37.1683 17.4646 37.1683Z" fill="#99AAB5"/>
<path d="M10.1596 44.4733C11.5044 44.4733 12.5946 43.3831 12.5946 42.0383C12.5946 40.6935 11.5044 39.6033 10.1596 39.6033C8.8148 39.6033 7.72462 40.6935 7.72462 42.0383C7.72462 43.3831 8.8148 44.4733 10.1596 44.4733Z" fill="#99AAB5"/>
<path d="M24.7696 44.4733C26.1144 44.4733 27.2046 43.3831 27.2046 42.0383C27.2046 40.6935 26.1144 39.6033 24.7696 39.6033C23.4248 39.6033 22.3346 40.6935 22.3346 42.0383C22.3346 43.3831 23.4248 44.4733 24.7696 44.4733Z" fill="#99AAB5"/>
<path d="M17.4646 44.4733C18.8094 44.4733 19.8996 43.3831 19.8996 42.0383C19.8996 40.6935 18.8094 39.6033 17.4646 39.6033C16.1198 39.6033 15.0296 40.6935 15.0296 42.0383C15.0296 43.3831 16.1198 44.4733 17.4646 44.4733Z" fill="#99AAB5"/>
<path d="M10.1596 51.7766C11.5044 51.7766 12.5946 50.6864 12.5946 49.3416C12.5946 47.9968 11.5044 46.9066 10.1596 46.9066C8.8148 46.9066 7.72462 47.9968 7.72462 49.3416C7.72462 50.6864 8.8148 51.7766 10.1596 51.7766Z" fill="#99AAB5"/>
<path d="M24.7696 51.7766C26.1144 51.7766 27.2046 50.6864 27.2046 49.3416C27.2046 47.9968 26.1144 46.9066 24.7696 46.9066C23.4248 46.9066 22.3346 47.9968 22.3346 49.3416C22.3346 50.6864 23.4248 51.7766 24.7696 51.7766Z" fill="#99AAB5"/>
<path d="M17.4646 51.7766C18.8094 51.7766 19.8996 50.6864 19.8996 49.3416C19.8996 47.9968 18.8094 46.9066 17.4646 46.9066C16.1198 46.9066 15.0296 47.9968 15.0296 49.3416C15.0296 50.6864 16.1198 51.7766 17.4646 51.7766Z" fill="#99AAB5"/>
<path d="M56.4246 20.1222H39.3796C38.0355 20.1222 36.9446 21.2131 36.9446 22.5572V46.9072C36.9446 48.2513 38.0355 49.3422 39.3796 49.3422H56.4246C57.7687 49.3422 58.8596 48.2513 58.8596 46.9072V22.5572C58.8596 21.2131 57.7687 20.1222 56.4246 20.1222ZM41.8146 24.9922H44.2496V44.4722H41.8146V24.9922ZM53.9896 44.4722H49.1196V24.9922H53.9896V44.4722Z" fill="#99AAB5"/>
</g>
<defs>
<clipPath id="clip0_102_7723">
<rect width="58.4399" height="58.4399" fill="white" transform="translate(0.419434 0.643555)"/>
</clipPath>
</defs>
</svg>
