<svg width="60" height="59" viewBox="0 0 60 59" fill="none" xmlns="http://www.w3.org/2000/svg">
<g clip-path="url(#clip0_102_7670)">
<path d="M16.7488 26.9875H23.6349L18.7649 22.1175L34.8018 6.08306L43.5337 14.8125L31.3587 26.9875H38.2449L48.6983 16.5365C49.6504 15.582 49.6504 14.0431 48.6983 13.0934L36.5233 0.918441C35.5713 -0.0360766 34.0323 -0.0360766 33.0803 0.918441L13.6003 20.3984C12.6482 21.348 12.6482 22.887 13.6003 23.8415L16.7488 26.9875Z" fill="#99AAB5"/>
<path d="M49.4113 29.4226H10.4514C9.10728 29.4226 8.0164 30.5135 8.0164 31.8576V56.2075C8.0164 57.5541 9.10728 58.6425 10.4514 58.6425H49.4113C50.7554 58.6425 51.8463 57.5541 51.8463 56.2075V31.8576C51.8463 30.5135 50.7554 29.4226 49.4113 29.4226ZM37.2363 46.4676H32.3663V51.3375H27.4964V46.4676H22.6264V41.5976H27.4964V36.7276H32.3663V41.5976H37.2363V46.4676Z" fill="#99AAB5"/>
<path d="M31.1491 22.1176C33.1663 22.1176 34.8016 20.4823 34.8016 18.4651C34.8016 16.4479 33.1663 14.8126 31.1491 14.8126C29.1319 14.8126 27.4966 16.4479 27.4966 18.4651C27.4966 20.4823 29.1319 22.1176 31.1491 22.1176Z" fill="#99AAB5"/>
</g>
<defs>
<clipPath id="clip0_102_7670">
<rect width="58.4399" height="58.4399" fill="white" transform="translate(0.711517 0.203491)"/>
</clipPath>
</defs>
</svg>
