<svg width="59" height="60" viewBox="0 0 59 60" fill="none" xmlns="http://www.w3.org/2000/svg">
<g clip-path="url(#clip0_102_7703)">
<path d="M53.7986 7.94788H24.5787C21.8929 7.94788 19.7087 10.1296 19.7087 12.8179V15.2529H24.5787V12.8179H53.7986V17.6879H36.7537V22.5578H53.7962L53.7913 37.1678H24.5787V34.7328H19.7087V37.1678C19.7087 39.856 21.8929 42.0378 24.5787 42.0378H40.1188L38.3559 45.5637C37.942 46.394 37.1092 46.9078 36.179 46.9078H20.7168L14.8387 41.0297V28.4384L20.7168 22.5578H29.4487V24.9928C29.4487 26.3345 28.3554 27.4278 27.0137 27.4278H22.1437V32.2978H27.0137C31.0412 32.2978 34.3187 29.0203 34.3187 24.9928V20.1228C34.3187 18.7787 33.2278 17.6879 31.8837 17.6879H19.7087C19.0634 17.6879 18.4425 17.9411 17.9872 18.4037L13.5238 22.8647C13.1829 22.6869 12.8152 22.5578 12.4037 22.5578H2.66375C1.31964 22.5578 0.22876 23.6487 0.22876 24.9928V44.4728C0.22876 45.8193 1.31964 46.9078 2.66375 46.9078H12.4037C12.8152 46.9078 13.1829 46.7812 13.5238 46.601L17.9872 51.0668C18.4425 51.5197 19.0634 51.7778 19.7087 51.7778H36.179C38.9646 51.7778 41.4678 50.2315 42.7121 47.7381L45.5635 42.0378H53.7986C56.4844 42.0378 58.6686 39.856 58.6686 37.1678V12.8179C58.6686 10.1296 56.4844 7.94788 53.7986 7.94788ZM9.96874 42.0378H5.09875V27.4278H9.96874V42.0378Z" fill="#99AAB5"/>
</g>
<defs>
<clipPath id="clip0_102_7703">
<rect width="58.4399" height="58.4399" fill="white" transform="translate(0.228729 0.643555)"/>
</clipPath>
</defs>
</svg>
