<svg width="60" height="60" viewBox="0 0 60 60" fill="none" xmlns="http://www.w3.org/2000/svg">
<g clip-path="url(#clip0_102_8585)">
<path d="M44.6279 12.8938H39.7579V8.0238C39.7579 6.67968 38.6671 5.58881 37.3229 5.58881H22.713C21.3689 5.58881 20.278 6.67968 20.278 8.0238V12.8938H15.408C14.0639 12.8938 12.973 13.9847 12.973 15.3288V49.4187C12.973 52.1045 15.1572 54.2887 17.843 54.2887H42.1929C44.8787 54.2887 47.0629 52.1045 47.0629 49.4187V15.3288C47.0629 13.9847 45.972 12.8938 44.6279 12.8938ZM42.1929 25.0688H17.843V17.7638H22.713C24.0571 17.7638 25.148 16.6729 25.148 15.3288V10.4588H34.8879V15.3288C34.8879 16.6729 35.9788 17.7638 37.3229 17.7638H42.1929V25.0688Z" fill="#99AAB5"/>
</g>
<defs>
<clipPath id="clip0_102_8585">
<rect width="58.4399" height="58.4399" fill="white" transform="translate(0.798187 0.718994)"/>
</clipPath>
</defs>
</svg>
