<svg width="60" height="59" viewBox="0 0 60 59" fill="none" xmlns="http://www.w3.org/2000/svg">
<g clip-path="url(#clip0_102_8580)">
<path d="M45.0769 12.4539H40.132V7.58392C40.132 6.2398 39.0244 5.14893 37.6596 5.14893H22.8248C21.46 5.14893 20.3524 6.2398 20.3524 7.58392V12.4539H15.4075C14.0427 12.4539 12.935 13.5448 12.935 14.8889V48.9788C12.935 51.6646 15.1528 53.8488 17.8799 53.8488H42.6045C45.3316 53.8488 47.5494 51.6646 47.5494 48.9788V14.8889C47.5494 13.5448 46.4417 12.4539 45.0769 12.4539ZM42.6045 41.6738H17.8799V17.3239H22.8248C24.1896 17.3239 25.2973 16.233 25.2973 14.8889V10.0189H35.1871V14.8889C35.1871 16.233 36.2948 17.3239 37.6596 17.3239H42.6045V41.6738Z" fill="#99AAB5"/>
</g>
<defs>
<clipPath id="clip0_102_8580">
<rect width="59.3389" height="58.4399" fill="white" transform="translate(0.572571 0.278809)"/>
</clipPath>
</defs>
</svg>
