<svg width="60" height="59" viewBox="0 0 60 59" fill="none" xmlns="http://www.w3.org/2000/svg">
<g clip-path="url(#clip0_102_7839)">
<path d="M17.8799 12.2713H42.6045C43.9692 12.2713 45.0769 11.1804 45.0769 9.83633V4.96634C45.0769 3.62223 43.9692 2.53135 42.6045 2.53135H17.8799C16.5151 2.53135 15.4074 3.62223 15.4074 4.96634V9.83633C15.4074 11.1804 16.5151 12.2713 17.8799 12.2713Z" fill="#99AAB5"/>
<path d="M53.5143 46.8915L40.1358 30.8765V14.7057H35.1909V17.1407H30.246V22.0107H35.1909V24.4457H27.7736V29.3157H35.1909V31.7507C35.1909 32.3156 35.3912 32.8635 35.7546 33.2969L42.6058 41.4907H17.8912L24.7374 33.2969C25.1008 32.8635 25.3011 32.3156 25.3011 31.7507V14.7057H20.3562V30.8789L6.86153 47.0424C5.26927 49.2826 5.07889 52.1803 6.35962 54.6055C7.64035 57.0308 10.1623 58.5356 12.9388 58.5356H47.5532C50.3298 58.5356 52.8517 57.0308 54.1324 54.6031C55.4131 52.1803 55.2228 49.2826 53.5143 46.8915Z" fill="#99AAB5"/>
</g>
<defs>
<clipPath id="clip0_102_7839">
<rect width="59.3389" height="58.4399" fill="white" transform="translate(0.572571 0.0817871)"/>
</clipPath>
</defs>
</svg>
