<svg width="60" height="59" viewBox="0 0 60 59" fill="none" xmlns="http://www.w3.org/2000/svg">
<g clip-path="url(#clip0_102_7221)">
<path d="M54.3685 23.3516C54.3685 29.4047 49.462 34.3086 43.411 34.3086C37.3601 34.3086 32.4536 29.4047 32.4536 23.3516C32.4536 17.3009 43.411 2.65497 43.411 2.65497C43.411 2.65497 54.3685 17.3009 54.3685 23.3516Z" fill="#99AAB5"/>
<path d="M47.0633 44.0467H26.1564L26.8698 43.3333C27.8219 42.3837 27.8219 40.8424 26.8698 39.8903L24.4348 37.4554C23.7457 36.7664 22.7133 36.557 21.8075 36.9149L12.9733 40.4479V56.2187H39.7583C40.4035 56.2187 41.0245 55.963 41.4798 55.5053L48.7848 48.2006C49.4812 47.5042 49.6906 46.4572 49.3132 45.5466C48.9382 44.6408 48.0494 44.0467 47.0633 44.0467Z" fill="#99AAB5"/>
<path d="M8.10348 36.7444H3.23349C1.88937 36.7444 0.798492 37.8352 0.798492 39.1793V56.2235C0.798492 57.57 1.88937 58.6584 3.23349 58.6584H8.10348C9.44759 58.6584 10.5385 57.57 10.5385 56.2235V39.1793C10.5385 37.8328 9.45003 36.7444 8.10348 36.7444Z" fill="#99AAB5"/>
</g>
<defs>
<clipPath id="clip0_102_7221">
<rect width="58.4399" height="58.4399" fill="white" transform="translate(0.798187 0.213928)"/>
</clipPath>
</defs>
</svg>
