<svg width="60" height="59" viewBox="0 0 60 59" fill="none" xmlns="http://www.w3.org/2000/svg">
<g clip-path="url(#clip0_102_7238)">
<path d="M22.5745 58.6553H34.7495C37.4377 58.6553 39.6195 56.4761 39.6195 53.7856H17.7045C17.7045 56.4737 19.8863 58.6553 22.5745 58.6553Z" fill="#99AAB5"/>
<path d="M39.6195 36.7416H17.7045V51.351H39.6195V36.7416Z" fill="#99AAB5"/>
<path d="M37.1846 8.78331C37.1846 7.96519 36.7731 7.20307 36.0913 6.75018C35.4071 6.30216 34.5427 6.2218 33.7903 6.54564L21.6153 11.7636C20.7216 12.1459 20.1397 13.0273 20.1397 13.9988V34.3059H37.1846V8.78331ZM29.8797 29.4385H25.0097V16.9134L29.8797 14.8267V29.4385Z" fill="#99AAB5"/>
</g>
<defs>
<clipPath id="clip0_102_7238">
<rect width="58.4399" height="58.4399" fill="white" transform="translate(0.659256 0.213928)"/>
</clipPath>
</defs>
</svg>
