<svg width="60" height="60" viewBox="0 0 60 60" fill="none" xmlns="http://www.w3.org/2000/svg">
<g clip-path="url(#clip0_102_8959)">
<path d="M54.122 41.4966L45.2951 12.8075C44.4307 10.0073 41.8813 8.12262 38.952 8.12262C35.2922 8.12262 32.3142 11.1006 32.3142 14.7604V17.8626H27.4442V14.7604C27.4442 11.1006 24.4662 8.12262 20.8064 8.12262C17.8747 8.12262 15.3277 10.0073 14.4632 12.8075L5.63638 41.4966C5.56576 41.728 5.52924 41.969 5.52924 42.2125V43.43C5.52924 49.4737 10.4455 54.3875 16.4867 54.3875C22.5279 54.3875 27.4442 49.4737 27.4442 43.43V32.4726H32.3142V43.43C32.3142 49.4737 37.2304 54.3875 43.2716 54.3875C49.3129 54.3875 54.2291 49.4737 54.2291 43.43V42.2125C54.2291 41.969 54.1926 41.728 54.122 41.4966ZM16.4867 49.5175C13.1313 49.5175 10.3992 46.7855 10.3992 43.43C10.3992 40.0746 13.1313 37.3425 16.4867 37.3425C19.8421 37.3425 22.5742 40.0746 22.5742 43.43C22.5742 46.7855 19.8421 49.5175 16.4867 49.5175ZM43.2716 49.5175C39.9162 49.5175 37.1842 46.7855 37.1842 43.43C37.1842 40.0746 39.9162 37.3425 43.2716 37.3425C46.6271 37.3425 49.3591 40.0746 49.3591 43.43C49.3591 46.7855 46.6271 49.5175 43.2716 49.5175Z" fill="#99AAB5"/>
</g>
<defs>
<clipPath id="clip0_102_8959">
<rect width="58.4399" height="58.4399" fill="white" transform="translate(0.659256 0.817505)"/>
</clipPath>
</defs>
</svg>
