<svg width="60" height="60" viewBox="0 0 60 60" fill="none" xmlns="http://www.w3.org/2000/svg">
<g clip-path="url(#clip0_102_7604)">
<path d="M37.6596 27.5581H41.3683C42.0507 27.5581 42.6045 27.0126 42.6045 26.3406C42.6045 25.6709 42.0507 25.1231 41.3683 25.1231H37.6596V27.5581Z" fill="#99AAB5"/>
<path d="M41.3683 32.4281H37.6596V34.8631H41.3683C42.0507 34.8631 42.6045 34.3176 42.6045 33.6456C42.6045 32.976 42.0507 32.4281 41.3683 32.4281Z" fill="#99AAB5"/>
<path d="M40.132 10.5126C32.3042 10.5126 25.3244 15.0588 22.1548 21.8987C20.0655 20.8248 17.7538 20.2526 15.4074 20.2526C7.22607 20.2526 0.572693 26.8076 0.572693 34.8626C0.572693 42.92 7.22607 49.4725 15.4074 49.4725H40.132C51.038 49.4725 59.9116 40.7333 59.9116 29.9926C59.9116 19.2518 51.038 10.5126 40.132 10.5126ZM47.5493 33.6451C47.5493 36.5865 45.423 39.0435 42.6044 39.6084V42.1676H37.6595V39.7326H32.7146V20.2526H37.6595V17.8176H42.6044V20.3768C45.423 20.9417 47.5493 23.4035 47.5493 26.3401C47.5493 27.7183 47.0672 28.9748 46.281 29.9926C47.0672 31.0128 47.5493 32.2693 47.5493 33.6451Z" fill="#99AAB5"/>
</g>
<defs>
<clipPath id="clip0_102_7604">
<rect width="59.3389" height="58.4399" fill="white" transform="translate(0.572571 0.763428)"/>
</clipPath>
</defs>
</svg>
