<svg width="59" height="60" viewBox="0 0 59 60" fill="none" xmlns="http://www.w3.org/2000/svg">
<g clip-path="url(#clip0_102_7594)">
<path d="M56.7405 39.806C56.5409 39.7549 56.3461 39.7743 56.1488 39.7743V8.07802C56.1488 6.73634 55.058 5.64303 53.7138 5.64303H5.01397C3.66985 5.64303 2.57898 6.73634 2.57898 8.07802V39.7329C2.57898 39.7329 2.18694 39.7549 1.98727 39.806C0.682116 40.1299 -0.109257 41.4545 0.214597 42.7572L2.05789 50.1377C2.65933 52.5361 4.97745 54.3429 7.44896 54.3429H51.2789C53.7504 54.3429 56.0685 52.5361 56.6675 50.1401L58.5108 42.7596C58.8371 41.4545 58.0433 40.1323 56.7405 39.806ZM7.44896 10.513H51.2789V39.7329H34.2339C32.8898 39.7329 31.7989 40.8263 31.7989 42.1679H26.9289C26.9289 40.8263 25.838 39.7329 24.4939 39.7329H7.44896V10.513ZM51.9412 48.9567C51.8876 49.1685 51.498 49.4729 51.2789 49.4729H7.44896C7.22982 49.4729 6.84022 49.1685 6.78665 48.9567L5.6982 44.6029H22.0589C22.0589 45.9471 23.1498 47.0379 24.4939 47.0379H34.2339C35.578 47.0379 36.6689 45.9471 36.6689 44.6029H53.0296L51.9412 48.9567Z" fill="#99AAB5"/>
<path d="M26.9277 34.8634H22.0577V15.3835H26.9277V12.9485H12.3177C10.9736 12.9485 9.88272 14.0418 9.88272 15.3835V34.8634C9.88272 36.2075 10.9736 37.2984 12.3177 37.2984H26.9277V34.8634Z" fill="#99AAB5"/>
<path d="M30.5799 27.5585H26.9274V29.9935H30.5799C31.2519 29.9935 31.7974 29.4481 31.7974 28.776C31.7974 28.1064 31.2519 27.5585 30.5799 27.5585Z" fill="#99AAB5"/>
<path d="M36.6672 21.471C36.6672 22.8492 36.1924 24.1056 35.418 25.1235C36.1899 26.1437 36.6672 27.4002 36.6672 28.7759C36.6672 31.7174 34.5731 34.1743 31.7972 34.7392V37.2984H46.4072C47.7513 37.2984 48.8422 36.2075 48.8422 34.8634V15.3835C48.8422 14.0418 47.7513 12.9485 46.4072 12.9485H31.7972V15.5077C34.5731 16.0726 36.6672 18.5319 36.6672 21.471Z" fill="#99AAB5"/>
<path d="M26.9274 22.6885H30.5799C31.2519 22.6885 31.7974 22.1431 31.7974 21.471C31.7974 20.8014 31.2519 20.2535 30.5799 20.2535H26.9274V22.6885Z" fill="#99AAB5"/>
</g>
<defs>
<clipPath id="clip0_102_7594">
<rect width="58.4399" height="58.4399" fill="white" transform="translate(0.142029 0.763428)"/>
</clipPath>
</defs>
</svg>
