<svg width="59" height="60" viewBox="0 0 59 60" fill="none" xmlns="http://www.w3.org/2000/svg">
<g clip-path="url(#clip0_102_7577)">
<path d="M27.0656 27.5564H30.7181C31.3901 27.5564 31.9356 27.011 31.9356 26.3389C31.9356 25.6644 31.3901 25.1214 30.7181 25.1214H27.0656V27.5564Z" fill="#99AAB5"/>
<path d="M29.5008 0.771973C13.3884 0.771973 0.280869 13.8795 0.280869 29.9919C0.280869 46.1018 13.3884 59.2094 29.5008 59.2094C45.6132 59.2094 58.7207 46.1018 58.7207 29.9919C58.7207 13.8795 45.6132 0.771973 29.5008 0.771973ZM50.5562 17.8169H43.0881L36.7644 6.74745C42.6279 8.58587 47.5246 12.5939 50.5562 17.8169ZM36.8058 33.6444C36.8058 36.5834 34.7117 39.0428 31.9358 39.6077V42.1669H27.0658V39.7319H22.1958V20.2519H27.0658V17.8169H31.9358V20.3761C34.7117 20.9435 36.8058 23.4004 36.8058 26.3394C36.8058 27.7127 36.331 28.9692 35.5566 29.9919C36.331 31.0122 36.8058 32.2686 36.8058 33.6444ZM28.4489 5.69797C28.7995 5.68092 29.1453 5.64196 29.5008 5.64196C29.8563 5.64196 30.2021 5.68092 30.5527 5.69553L35.2839 13.9721C33.4771 13.3219 31.534 12.9469 29.5008 12.9469C27.4676 12.9469 25.5245 13.3195 23.7177 13.9721L28.4489 5.69797ZM22.2372 6.74988L15.9135 17.8169H8.4454C11.477 12.5939 16.3737 8.58587 22.2372 6.74988ZM5.15086 29.9919C5.15086 27.4449 5.54776 24.9929 6.27339 22.6869H14.1189C13.0646 24.9028 12.4558 27.3743 12.4558 29.9919C12.4558 32.6095 13.0646 35.0786 14.1189 37.2969H6.27339C5.54776 34.9909 5.15086 32.5365 5.15086 29.9919ZM8.44784 42.1669H15.9135L22.2372 53.2315C16.3737 51.3955 11.477 47.3875 8.44784 42.1669ZM30.5527 54.2858C30.2021 54.3029 29.8563 54.3394 29.5008 54.3394C29.1453 54.3394 28.7995 54.3004 28.4489 54.2858L23.7177 46.0093C25.5269 46.6619 27.4676 47.0393 29.5008 47.0393C31.534 47.0393 33.4747 46.6643 35.2839 46.0093L30.5527 54.2858ZM36.7644 53.2315L43.0881 42.1669H50.5538C47.5246 47.3875 42.6279 51.3955 36.7644 53.2315ZM44.8827 37.2969C45.937 35.0786 46.5458 32.6095 46.5458 29.9919C46.5458 27.3743 45.937 24.9028 44.8827 22.6869H52.7282C53.4538 24.9929 53.8507 27.4449 53.8507 29.9919C53.8507 32.534 53.4538 34.9885 52.7282 37.2969H44.8827Z" fill="#99AAB5"/>
<path d="M30.7181 32.4281H27.0656V34.8631H30.7181C31.3901 34.8631 31.9356 34.3177 31.9356 33.6456C31.9356 32.9736 31.3901 32.4281 30.7181 32.4281Z" fill="#99AAB5"/>
</g>
<defs>
<clipPath id="clip0_102_7577">
<rect width="58.4399" height="58.4399" fill="white" transform="translate(0.280975 0.763428)"/>
</clipPath>
</defs>
</svg>
