<svg width="60" height="60" viewBox="0 0 60 60" fill="none" xmlns="http://www.w3.org/2000/svg">
<path d="M31.1491 37.2881H27.4967V39.7231H31.1491C31.8212 39.7231 32.3666 39.18 32.3666 38.5056C32.3666 37.8335 31.8212 37.2881 31.1491 37.2881Z" fill="#99AAB5"/>
<path d="M27.4967 32.4183H31.1491C31.8212 32.4183 32.3666 31.8753 32.3666 31.2008C32.3666 30.5287 31.8212 29.9833 31.1491 29.9833H27.4967V32.4183Z" fill="#99AAB5"/>
<path d="M54.2817 17.8133V12.9433C54.2817 10.2599 52.0975 8.07331 49.4117 8.07331H10.4518C7.76601 8.07331 5.58182 10.2599 5.58182 12.9433V17.8133H54.2817ZM20.1918 10.5083C21.5359 10.5083 22.6268 11.6016 22.6268 12.9433C22.6268 14.2874 21.5359 15.3783 20.1918 15.3783C18.8477 15.3783 17.7568 14.2874 17.7568 12.9433C17.7568 11.6016 18.8477 10.5083 20.1918 10.5083ZM12.8868 10.5083C14.2309 10.5083 15.3218 11.6016 15.3218 12.9433C15.3218 14.2874 14.2309 15.3783 12.8868 15.3783C11.5427 15.3783 10.4518 14.2874 10.4518 12.9433C10.4518 11.6016 11.5427 10.5083 12.8868 10.5083Z" fill="#99AAB5"/>
<path d="M5.58176 20.248V47.0329C5.58176 49.7187 7.76595 51.9029 10.4517 51.9029H49.4117C52.0975 51.9029 54.2816 49.7187 54.2816 47.0329V20.248H5.58176ZM37.2367 38.5056C37.2367 41.4446 35.1426 43.904 32.3667 44.4689V47.0281H27.4967V44.5931H22.6267V25.1131H27.4967V22.6781H32.3667V25.2373C35.1426 25.8022 37.2367 28.2616 37.2367 31.2006C37.2367 32.5739 36.7619 33.8328 35.9875 34.8531C36.7619 35.8709 37.2367 37.1322 37.2367 38.5056Z" fill="#99AAB5"/>
</svg>
