<svg width="60" height="59" viewBox="0 0 60 59" fill="none" xmlns="http://www.w3.org/2000/svg">
<g clip-path="url(#clip0_102_7652)">
<path d="M39.4008 1.28883C38.9479 0.611906 38.1906 0.202827 37.3749 0.202827H27.6349V14.8128H48.4176L39.4008 1.28883Z" fill="#99AAB5"/>
<path d="M22.7645 0.202827H13.0245C12.2112 0.202827 11.4515 0.611906 10.9986 1.28883L1.98181 14.8128H22.7645V0.202827Z" fill="#99AAB5"/>
<path d="M47.115 34.2873C47.9477 34.2873 48.7561 34.3725 49.55 34.5064V19.6822H0.850071V46.4671C0.850071 47.8112 1.94095 48.9021 3.28507 48.9021H32.505C32.505 48.9021 32.505 48.8997 32.505 48.8972C32.505 40.8277 39.0478 34.2873 47.115 34.2873Z" fill="#99AAB5"/>
<path d="M55.1332 39.871L44.6797 50.3245L39.0963 44.741L35.6532 48.1841L44.6797 57.2107L58.5762 43.3141L55.1332 39.871Z" fill="#99AAB5"/>
</g>
<defs>
<clipPath id="clip0_102_7652">
<rect width="58.4399" height="58.4399" fill="white" transform="translate(0.850433 0.203491)"/>
</clipPath>
</defs>
</svg>
