<svg width="60" height="59" viewBox="0 0 60 59" fill="none" xmlns="http://www.w3.org/2000/svg">
<g clip-path="url(#clip0_102_7686)">
<path d="M54.9669 0.209167H45.077V14.8191L37.6597 9.94914L30.2423 14.8191V0.209167H20.3525C17.6254 0.209167 15.4076 2.39336 15.4076 5.07915V34.2991L25.2974 31.8641L32.7148 39.1691H54.9669C57.694 39.1691 59.9118 36.9849 59.9118 34.2991V5.07915C59.9118 2.39336 57.694 0.209167 54.9669 0.209167Z" fill="#99AAB5"/>
<path d="M47.5495 44.0383H26.321L27.0454 43.3249C28.0121 42.3752 28.0121 40.8363 27.0454 39.8818L24.5729 37.4468C23.8732 36.7577 22.8249 36.5483 21.9052 36.9062L12.9351 40.4394V56.2133H40.1321C40.7873 56.2133 41.4178 55.9576 41.8801 55.4998L49.2975 48.1948C50.0046 47.4984 50.2172 46.4514 49.834 45.5431C49.4508 44.6324 48.5483 44.0383 47.5495 44.0383Z" fill="#99AAB5"/>
<path d="M7.99018 36.734H3.04527C1.68047 36.734 0.572815 37.8249 0.572815 39.169V56.2139C0.572815 57.558 1.68047 58.6489 3.04527 58.6489H7.99018C9.35498 58.6489 10.4626 57.558 10.4626 56.2139V39.169C10.4626 37.8249 9.35498 36.734 7.99018 36.734Z" fill="#99AAB5"/>
</g>
<defs>
<clipPath id="clip0_102_7686">
<rect width="59.3389" height="58.4399" fill="white" transform="translate(0.572571 0.203491)"/>
</clipPath>
</defs>
</svg>
