<svg width="59" height="59" viewBox="0 0 59 59" fill="none" xmlns="http://www.w3.org/2000/svg">
<g clip-path="url(#clip0_102_7661)">
<path d="M38.8318 1.28883C38.3789 0.611906 37.6216 0.202827 36.8059 0.202827H27.0659V14.8128H47.8486L38.8318 1.28883Z" fill="#99AAB5"/>
<path d="M48.981 19.6822H0.28112V46.4671C0.28112 47.8112 1.372 48.9021 2.71611 48.9021H36.806C36.806 48.9021 36.806 48.8997 36.806 48.8972C36.806 42.1718 42.258 36.7223 48.981 36.7223V19.6822Z" fill="#99AAB5"/>
<path d="M22.1955 0.202827H12.4556C11.6423 0.202827 10.8825 0.611906 10.4296 1.28883L1.41286 14.8128H22.1955V0.202827Z" fill="#99AAB5"/>
<path d="M56.2863 46.4629H41.6763V51.3329H56.2863V46.4629Z" fill="#99AAB5"/>
</g>
<defs>
<clipPath id="clip0_102_7661">
<rect width="58.4399" height="58.4399" fill="white" transform="translate(0.280975 0.203491)"/>
</clipPath>
</defs>
</svg>
