<svg width="59" height="59" viewBox="0 0 59 59" fill="none" xmlns="http://www.w3.org/2000/svg">
<g clip-path="url(#clip0_102_7643)">
<path d="M38.9701 1.28883C38.5172 0.611906 37.7575 0.202827 36.9442 0.202827H27.2042V14.8128H47.9869L38.9701 1.28883Z" fill="#99AAB5"/>
<path d="M22.3342 0.202827H12.5943C11.781 0.202827 11.0213 0.611906 10.5684 1.28883L1.55157 14.8128H22.3342V0.202827Z" fill="#99AAB5"/>
<path d="M49.1193 19.6822H0.419407V46.4671C0.419407 47.8112 1.51028 48.9021 2.8544 48.9021H34.5093C34.5093 48.9021 34.5093 48.8997 34.5093 48.8972C34.5093 40.8277 41.0521 34.2873 49.1193 34.2873V19.6822Z" fill="#99AAB5"/>
<path d="M51.5544 46.4631V39.1582H46.6844V46.4631H39.3794V51.3331H46.6844V58.6381H51.5544V51.3331H58.8594V46.4631H51.5544Z" fill="#99AAB5"/>
</g>
<defs>
<clipPath id="clip0_102_7643">
<rect width="58.4399" height="58.4399" fill="white" transform="translate(0.419434 0.203491)"/>
</clipPath>
</defs>
</svg>
