<svg width="60" height="59" viewBox="0 0 60 59" fill="none" xmlns="http://www.w3.org/2000/svg">
<path d="M51.9947 29.7125H42.2547V12.6683C42.2547 11.3266 41.1638 10.2334 39.8197 10.2334H37.3847V7.79848C37.3847 6.45685 36.2938 5.36359 34.9497 5.36359H25.2097C23.8656 5.36359 22.7747 6.45685 22.7747 7.79848V10.2334H20.3397C18.9956 10.2334 17.9047 11.3266 17.9047 12.6683V29.7125H8.16477C6.82065 29.7125 5.72977 30.8058 5.72977 32.1474V51.6265C5.72977 52.973 6.82065 54.0614 8.16477 54.0614H25.2097V44.3219H34.9497V54.0614H51.9947C53.3388 54.0614 54.4297 52.973 54.4297 51.6265V32.1474C54.4297 30.8058 53.3412 29.7125 51.9947 29.7125ZM15.4698 49.1917H10.5998V44.3219H15.4698V49.1917ZM15.4698 39.4521H10.5998V34.5823H15.4698V39.4521ZM27.6447 39.4521H22.7747V34.5823H27.6447V39.4521ZM27.6447 29.7125H22.7747V24.8427H27.6447V29.7125ZM27.6447 19.9729H22.7747V15.1032H27.6447V19.9729ZM37.3847 39.4521H32.5147V34.5823H37.3847V39.4521ZM37.3847 29.7125H32.5147V24.8427H37.3847V29.7125ZM37.3847 19.9729H32.5147V15.1032H37.3847V19.9729ZM49.5597 49.1917H44.6897V44.3219H49.5597V49.1917ZM49.5597 39.4521H44.6897V34.5823H49.5597V39.4521Z" fill="#99AAB5"/>
</svg>
