<svg width="59" height="59" viewBox="0 0 59 59" fill="none" xmlns="http://www.w3.org/2000/svg">
<path d="M31.9448 8.02249V2.93356H27.0749V8.02249C20.1692 9.18393 14.8999 15.1762 14.8999 22.4127H44.1198C44.1198 15.1762 38.8529 9.18393 31.9448 8.02249Z" fill="#99AAB5"/>
<path d="M53.86 39.4568H46.555V29.7172C46.555 28.3731 45.4641 27.2823 44.12 27.2823H14.9001C13.556 27.2823 12.4651 28.3731 12.4651 29.7172V39.4568H5.16009C3.81597 39.4568 2.7251 40.5476 2.7251 41.8917V51.6312C2.7251 52.9777 3.81597 54.0661 5.16009 54.0661H53.86C55.2041 54.0661 56.295 52.9777 56.295 51.6312V41.8917C56.295 40.5476 55.2065 39.4568 53.86 39.4568ZM12.4651 49.1964H7.59509V44.3266H12.4651V49.1964ZM22.205 49.1964H17.3351V44.3266H22.205V49.1964ZM22.205 37.0219H17.3351V32.1521H22.205V37.0219ZM31.945 49.1964H27.075V44.3266H31.945V49.1964ZM31.945 37.0219H27.075V32.1521H31.945V37.0219ZM41.685 49.1964H36.815V44.3266H41.685V49.1964ZM41.685 37.0219H36.815V32.1521H41.685V37.0219ZM51.425 49.1964H46.555V44.3266H51.425V49.1964Z" fill="#99AAB5"/>
</svg>
