<svg width="59" height="59" viewBox="0 0 59 59" fill="none" xmlns="http://www.w3.org/2000/svg">
<g clip-path="url(#clip0_102_7377)">
<path d="M24.5013 18.6238C24.5013 13.9147 20.6881 10.1017 15.9788 10.1017C11.272 10.1017 7.45634 13.9147 7.45634 18.6238V24.711H24.5013V18.6238Z" fill="#99AAB5"/>
<path d="M24.5013 27.1454H7.45634V36.885H24.5013V27.1454Z" fill="#99AAB5"/>
<path d="M53.7188 49.0622V33.3961C53.7188 32.5414 53.2683 31.7476 52.5378 31.3069L42.7978 25.4607C42.0259 25.0006 41.0641 25.0006 40.2922 25.4607L30.5522 31.3069C29.8193 31.7476 29.3713 32.5414 29.3713 33.3961V49.0622H24.5013V39.3226H7.45632V49.0622H0.151337V53.9319H58.5912V49.0622H53.7188ZM36.6738 49.0622V39.3226H46.4138V49.0622H36.6738Z" fill="#99AAB5"/>
</g>
<defs>
<clipPath id="clip0_102_7377">
<rect width="58.4399" height="58.4399" fill="white" transform="translate(0.142029 0.352295)"/>
</clipPath>
</defs>
</svg>
