<svg width="60" height="60" viewBox="0 0 60 60" fill="none" xmlns="http://www.w3.org/2000/svg">
<g clip-path="url(#clip0_102_7046)">
<path d="M44.6373 7.95673H15.4174C12.7291 7.95673 10.5474 10.1385 10.5474 12.8267V51.7866C10.5474 54.4748 12.7291 56.6566 15.4174 56.6566C18.1056 56.6566 20.2873 54.4748 20.2873 51.7866H39.7673C39.7673 54.4748 41.949 56.6566 44.6373 56.6566C47.3255 56.6566 49.5073 54.4748 49.5073 51.7866V12.8267C49.5073 10.136 47.3279 7.95673 44.6373 7.95673ZM15.4174 17.6967H44.6373V34.7417H15.4174V17.6967ZM19.0698 46.9166C17.0537 46.9166 15.4174 45.2803 15.4174 43.2641C15.4174 41.248 17.0537 39.6116 19.0698 39.6116C21.086 39.6116 22.7223 41.248 22.7223 43.2641C22.7223 45.2803 21.0885 46.9166 19.0698 46.9166ZM37.3323 43.2641C37.3323 41.248 38.9686 39.6116 40.9848 39.6116C43.001 39.6116 44.6373 41.248 44.6373 43.2641C44.6373 45.2803 43.001 46.9166 40.9848 46.9166C38.9686 46.9166 37.3323 45.2803 37.3323 43.2641Z" fill="#99AAB5"/>
<path d="M56.8121 20.1311H51.9421V29.8711H56.8121V20.1311Z" fill="#99AAB5"/>
<path d="M8.11239 20.1311H3.2424V29.8711H8.11239V20.1311Z" fill="#99AAB5"/>
</g>
<defs>
<clipPath id="clip0_102_7046">
<rect width="58.4399" height="58.4399" fill="white" transform="translate(0.798187 0.637451)"/>
</clipPath>
</defs>
</svg>
