<svg width="59" height="60" viewBox="0 0 59 60" fill="none" xmlns="http://www.w3.org/2000/svg">
<g clip-path="url(#clip0_102_7763)">
<path d="M48.8418 15.2529V12.8179H43.9719V15.2529H39.1019V10.3829C39.1019 9.03875 38.011 7.94788 36.6669 7.94788H22.0569C20.7128 7.94788 19.6219 9.03875 19.6219 10.3829V15.2529H14.7519V12.8179H9.88194V15.2529C7.19614 15.2529 5.01195 17.437 5.01195 20.1228V49.3428C5.01195 52.031 7.19614 54.2128 9.88194 54.2128H48.8418C51.5276 54.2128 53.7118 52.031 53.7118 49.3428V20.1228C53.7118 17.437 51.5276 15.2529 48.8418 15.2529ZM24.4919 12.8179H34.2319V15.2529H24.4919V12.8179ZM36.6669 29.8628H28.1444C27.4723 29.8628 26.9269 30.4107 26.9269 31.0803C26.9269 31.7524 27.4723 32.2978 28.1444 32.2978H30.5794C33.9348 32.2978 36.6669 35.0299 36.6669 38.3853C36.6669 41.3268 34.5728 43.7861 31.7969 44.351V46.9078H26.9269V44.4728H22.0569V39.6028H30.5794C31.2514 39.6028 31.7969 39.0574 31.7969 38.3853C31.7969 37.7157 31.2514 37.1678 30.5794 37.1678H28.1444C24.7865 37.1678 22.0569 34.4357 22.0569 31.0803C22.0569 28.1413 24.151 25.6819 26.9269 25.117V22.5578H31.7969V24.9928H36.6669V29.8628Z" fill="#99AAB5"/>
</g>
<defs>
<clipPath id="clip0_102_7763">
<rect width="58.4399" height="58.4399" fill="white" transform="translate(0.142029 0.643555)"/>
</clipPath>
</defs>
</svg>
