<svg width="59" height="59" viewBox="0 0 59 59" fill="none" xmlns="http://www.w3.org/2000/svg">
<g clip-path="url(#clip0_102_8886)">
<path d="M51.3638 7.68157H46.4938V2.81158H41.6238V14.9866H36.7538V7.68157H22.1438V2.81158H17.2738V14.9866H12.4039V7.68157H7.53387C4.84807 7.68157 2.66388 9.8682 2.66388 12.5516V49.0765C2.66388 51.7623 4.84807 53.9465 7.53387 53.9465H51.3638C54.0496 53.9465 56.2337 51.7623 56.2337 49.0765V12.5516C56.2337 9.8682 54.0496 7.68157 51.3638 7.68157ZM19.7088 46.6415H9.96886V36.9015H19.7088V46.6415ZM19.7088 32.0315H9.96886V22.2915H19.7088V32.0315ZM34.3188 46.6415H24.5788V36.9015H34.3188V46.6415ZM34.3188 32.0315H24.5788V22.2915H34.3188V32.0315ZM48.9288 32.0315H39.1888V22.2915H48.9288V32.0315Z" fill="#99AAB5"/>
</g>
<defs>
<clipPath id="clip0_102_8886">
<rect width="58.4399" height="58.4399" fill="white" transform="translate(0.228729 0.377441)"/>
</clipPath>
</defs>
</svg>
