<svg width="59" height="60" viewBox="0 0 59 60" fill="none" xmlns="http://www.w3.org/2000/svg">
<g clip-path="url(#clip0_102_8075)">
<path d="M29.6397 22.6675C24.2681 22.6675 19.8997 27.0359 19.8997 32.4075C19.8997 37.7791 24.2681 42.1474 29.6397 42.1474C35.0113 42.1474 39.3797 37.7791 39.3797 32.4075C39.3797 27.0359 35.0113 22.6675 29.6397 22.6675Z" fill="#99AAB5"/>
<path d="M49.1194 15.3624H44.4199C42.7933 15.3624 41.2714 14.5491 40.368 13.1928L38.3884 10.2221C37.485 8.86825 35.9631 8.05496 34.3365 8.05496H24.9399C23.3133 8.05496 21.7915 8.86825 20.8881 10.2221L18.9084 13.1928C18.0075 14.5491 16.4856 15.3624 14.859 15.3624H10.1595C7.47126 15.3624 5.28951 17.5441 5.28951 20.2324V47.0173C5.28951 49.7055 7.47126 51.8873 10.1595 51.8873H49.1194C51.8076 51.8873 53.9894 49.7055 53.9894 47.0173V20.2324C53.9894 17.5417 51.8076 15.3624 49.1194 15.3624ZM29.6394 47.0173C21.5821 47.0173 15.0295 40.4647 15.0295 32.4073C15.0295 24.3499 21.5821 17.7974 29.6394 17.7974C37.6968 17.7974 44.2494 24.3499 44.2494 32.4073C44.2494 40.4647 37.6968 47.0173 29.6394 47.0173Z" fill="#99AAB5"/>
<path d="M29.6394 22.6555C24.2678 22.6555 19.8995 27.0239 19.8995 32.3955C19.8995 37.7671 24.2678 42.1355 29.6394 42.1355C35.011 42.1355 39.3794 37.7671 39.3794 32.3955C39.3794 27.0239 35.011 22.6555 29.6394 22.6555Z" fill="#99AAB5"/>
</g>
<defs>
<clipPath id="clip0_102_8075">
<rect width="58.4399" height="58.4399" fill="white" transform="translate(0.419434 0.742188)"/>
</clipPath>
</defs>
</svg>
