<svg width="60" height="60" viewBox="0 0 60 60" fill="none" xmlns="http://www.w3.org/2000/svg">
<g clip-path="url(#clip0_102_8063)">
<path d="M29.8791 34.8406C32.5688 34.8406 34.7491 32.6602 34.7491 29.9706C34.7491 27.281 32.5688 25.1006 29.8791 25.1006C27.1895 25.1006 25.0092 27.281 25.0092 29.9706C25.0092 32.6602 27.1895 34.8406 29.8791 34.8406Z" fill="#99AAB5"/>
<path d="M49.3591 5.62128H10.3992C7.71099 5.62128 5.52924 7.80303 5.52924 10.4913V49.4512C5.52924 52.1394 7.71099 54.3212 10.3992 54.3212H49.3591C52.0474 54.3212 54.2291 52.1394 54.2291 49.4512V10.4913C54.2291 7.80303 52.0474 5.62128 49.3591 5.62128ZM10.3992 15.3613C10.3992 12.6755 12.5834 10.4913 15.2692 10.4913H25.0092V15.3613H15.2692V25.1012H10.3992V15.3613ZM25.0092 49.4512H15.2692C12.5834 49.4512 10.3992 47.267 10.3992 44.5812V34.8412H15.2692V44.5812H25.0092V49.4512ZM32.3142 44.5812H27.4442V39.3654C24.0376 38.4791 21.3713 35.8128 20.485 32.4062H15.2692V27.5362H20.485C21.3713 24.1297 24.0376 21.4658 27.4442 20.5794V15.3613H32.3142V20.577C35.7207 21.4633 38.387 24.1297 39.2734 27.5362H44.4891V32.4062H39.2734C38.387 35.8128 35.7207 38.4791 32.3142 39.3654V44.5812ZM49.3591 44.5812C49.3591 47.267 47.1749 49.4512 44.4891 49.4512H34.7492V44.5812H44.4891V34.8412H49.3591V44.5812ZM49.3591 25.1012H44.4891V15.3613H34.7492V10.4913H44.4891C47.1749 10.4913 49.3591 12.6755 49.3591 15.3613V25.1012Z" fill="#99AAB5"/>
</g>
<defs>
<clipPath id="clip0_102_8063">
<rect width="58.4399" height="58.4399" fill="white" transform="translate(0.659256 0.742188)"/>
</clipPath>
</defs>
</svg>
