<svg width="60" height="60" viewBox="0 0 60 60" fill="none" xmlns="http://www.w3.org/2000/svg">
<g clip-path="url(#clip0_102_7009)">
<path d="M42.255 54.9079C44.9447 54.9079 47.125 52.6939 47.125 49.9629C47.125 47.2319 44.9447 45.018 42.255 45.018C39.5654 45.018 37.385 47.2319 37.385 49.9629C37.385 52.6939 39.5654 54.9079 42.255 54.9079Z" fill="#99AAB5"/>
<path d="M20.3396 54.9079C23.0293 54.9079 25.2096 52.6939 25.2096 49.9629C25.2096 47.2319 23.0293 45.018 20.3396 45.018C17.65 45.018 15.4696 47.2319 15.4696 49.9629C15.4696 52.6939 17.65 54.9079 20.3396 54.9079Z" fill="#99AAB5"/>
<path d="M49.4673 25.8203C46.4114 20.9693 41.0788 17.8219 35.1082 17.8219C35.0814 17.8219 35.057 17.8268 35.0302 17.8268C35.0034 17.8268 34.9767 17.8219 34.9499 17.8219C25.1588 17.8219 17.077 25.1676 15.7012 34.7211L15.4699 35.1291H13.0349C10.3467 35.1291 8.16494 37.3444 8.16494 40.074V47.4914C8.16494 48.8562 9.25582 49.9638 10.5999 49.9638H13.0349C13.0349 45.8694 16.3076 42.5465 20.3399 42.5465C24.3723 42.5465 27.6449 45.8694 27.6449 49.9638H34.9499C34.9499 45.8694 38.2225 42.5465 42.2549 42.5465C46.2872 42.5465 49.5598 45.8694 49.5598 49.9638H51.9948C53.339 49.9638 54.4298 48.8562 54.4298 47.4914V40.074C54.4274 35.0178 52.5427 29.8875 49.4673 25.8203ZM20.5566 35.1291C21.7206 28.1147 27.7106 22.7668 34.9474 22.7668C42.1843 22.7668 48.1768 28.1147 49.3383 35.1291H20.5566Z" fill="#99AAB5"/>
</g>
<defs>
<clipPath id="clip0_102_7009">
<rect width="58.4399" height="59.3389" fill="white" transform="translate(0.850433 0.500854)"/>
</clipPath>
</defs>
</svg>
