<svg width="60" height="59" viewBox="0 0 60 59" fill="none" xmlns="http://www.w3.org/2000/svg">
<g clip-path="url(#clip0_102_7414)">
<path d="M19.8791 27.2833L18.9791 32.1531H40.5587L39.6587 27.2833C42.3883 27.2833 44.6036 25.104 44.6036 22.4135V12.6739H39.6587V17.5437H32.2414V12.6739H27.2964V17.5437H19.8791V12.6739H14.9342V22.4135C14.9342 25.1016 17.147 27.2833 19.8791 27.2833Z" fill="#99AAB5"/>
<path d="M2.57188 34.587V41.8917H5.04434V51.6313C5.04434 52.9778 6.152 54.0662 7.5168 54.0662H24.824V49.1964C24.824 46.5107 27.0393 44.3266 29.7689 44.3266C32.4985 44.3266 34.7138 46.5107 34.7138 49.1964V54.0662H52.021C53.3858 54.0662 54.4935 52.9778 54.4935 51.6313V41.8917H56.9659V34.587H2.57188Z" fill="#99AAB5"/>
</g>
<defs>
<clipPath id="clip0_102_7414">
<rect width="59.3389" height="58.4399" fill="white" transform="translate(0.089798 0.488708)"/>
</clipPath>
</defs>
</svg>
