<svg width="60" height="59" viewBox="0 0 60 59" fill="none" xmlns="http://www.w3.org/2000/svg">
<g clip-path="url(#clip0_102_6814)">
<path d="M44.6284 24.3675V29.6536H47.0633C48.4075 29.6536 49.4983 28.5628 49.4983 27.2187V19.914C49.4983 19.7899 49.4472 19.6852 49.4277 19.5659L44.6284 24.3675Z" fill="#99AAB5"/>
<path d="M54.1841 9.24329C53.8067 8.33264 52.9179 7.73853 51.9341 7.73853H27.5842V17.4781H25.1492V7.73853H20.2792V19.913H17.8442V7.98688C12.2949 9.11667 8.10425 14.0352 8.10425 19.913C8.10425 26.626 13.5659 32.0875 20.2792 32.0875H39.7592C41.1033 32.0875 42.1942 30.9966 42.1942 29.6526V23.3584L53.6557 11.8949C54.3545 11.2009 54.5615 10.1515 54.1841 9.24329Z" fill="#99AAB5"/>
<path d="M25.1484 37.5576L12.9734 41.037V34.5237H8.10345V51.5679H12.9734V46.1016L28.253 41.7358C29.2976 41.4363 30.0184 40.4794 30.0184 39.3935V34.5237H25.1484V37.5576Z" fill="#99AAB5"/>
</g>
<defs>
<clipPath id="clip0_102_6814">
<rect width="58.4399" height="58.4399" fill="white" transform="translate(0.798187 0.427979)"/>
</clipPath>
</defs>
</svg>
