<svg width="59" height="59" viewBox="0 0 59 59" fill="none" xmlns="http://www.w3.org/2000/svg">
<g clip-path="url(#clip0_102_6965)">
<path d="M48.9522 31.7244C48.9522 20.9379 40.7731 4.94061 29.4723 4.94061C18.1715 4.94061 9.99234 20.9379 9.99234 31.7244C9.99234 41.8755 14.5141 45.859 27.0373 46.29V48.7687H19.7323V53.6385H39.2123V48.7687H31.9073V46.29C44.4305 45.859 48.9522 41.8755 48.9522 31.7244ZM29.4723 31.7244C34.3423 31.7244 39.2123 34.1593 39.2123 36.5942C39.2123 36.5942 34.3423 39.0291 29.4723 39.0291C24.6023 39.0291 19.7323 36.5942 19.7323 36.5942C19.7323 34.1593 24.6023 31.7244 29.4723 31.7244Z" fill="#99AAB5"/>
</g>
<defs>
<clipPath id="clip0_102_6965">
<rect width="58.4399" height="58.4399" fill="white" transform="translate(0.24292 0.060791)"/>
</clipPath>
</defs>
</svg>
