<svg width="60" height="59" viewBox="0 0 60 59" fill="none" xmlns="http://www.w3.org/2000/svg">
<g clip-path="url(#clip0_102_8701)">
<path d="M49.4117 5.03046H10.4518C7.76357 5.03046 5.58182 7.21221 5.58182 9.90044V39.1204C5.58182 41.8086 7.76357 43.9904 10.4518 43.9904H12.8868V53.7303L22.6268 43.9904H49.4117C52.0999 43.9904 54.2817 41.8086 54.2817 39.1204V9.90044C54.2817 7.21221 52.0999 5.03046 49.4117 5.03046ZM37.2367 14.1617C38.9145 14.1617 40.2805 15.5253 40.2805 17.2054C40.2805 18.8856 38.9145 20.2492 37.2367 20.2492C35.559 20.2492 34.193 18.8856 34.193 17.2054C34.193 15.5253 35.559 14.1617 37.2367 14.1617ZM22.6268 14.1617C24.3045 14.1617 25.6705 15.5253 25.6705 17.2054C25.6705 18.8856 24.3045 20.2492 22.6268 20.2492C20.9491 20.2492 19.583 18.8856 19.583 17.2054C19.583 15.5253 20.9491 14.1617 22.6268 14.1617ZM29.9318 34.2504C24.94 34.2504 20.6642 31.2407 18.7844 26.9454H41.0792C39.1993 31.2407 34.9235 34.2504 29.9318 34.2504Z" fill="#99AAB5"/>
</g>
<defs>
<clipPath id="clip0_102_8701">
<rect width="58.4399" height="58.4399" fill="white" transform="translate(0.711517 0.159058)"/>
</clipPath>
</defs>
</svg>
