<svg width="60" height="59" viewBox="0 0 60 59" fill="none" xmlns="http://www.w3.org/2000/svg">
<g clip-path="url(#clip0_102_8675)">
<path d="M27.5097 17.2037H5.03511C2.30799 17.2037 0.0901947 19.3879 0.0901947 22.0737V43.9886C0.0901947 46.6744 2.30799 48.8586 5.03511 48.8586H7.50756V58.5986L20.6932 48.8586H37.177C39.9041 48.8586 42.1219 46.6744 42.1219 43.9886V29.3786C34.7738 29.3786 28.6891 24.1093 27.5097 17.2037Z" fill="#99AAB5"/>
<path d="M51.2872 9.18527L47.7912 5.74219L42.1218 11.3256L36.4525 5.74219L32.9565 9.18527L38.6258 14.7687L32.9565 20.3521L36.4525 23.7952L42.1218 18.2118L47.7912 23.7952L51.2872 20.3521L45.6179 14.7687L51.2872 9.18527Z" fill="#99AAB5"/>
</g>
<defs>
<clipPath id="clip0_102_8675">
<rect width="59.3389" height="58.4399" fill="white" transform="translate(0.089798 0.159058)"/>
</clipPath>
</defs>
</svg>
