<svg width="60" height="59" viewBox="0 0 60 59" fill="none" xmlns="http://www.w3.org/2000/svg">
<path d="M15.561 46.4191V51.2888C15.561 52.6329 16.6518 53.7237 17.996 53.7237H39.9109C41.255 53.7237 42.3459 52.6329 42.3459 51.2888V46.4191H15.561Z" fill="#99AAB5"/>
<path d="M42.3461 9.89341C40.9728 9.89341 39.726 10.171 38.5646 10.7481C36.5776 7.02997 33.2538 5.02362 28.9536 5.02362C24.6534 5.02362 21.3297 7.02997 19.3451 10.7456C18.32 10.244 17.0757 9.89341 15.5612 9.89341C11.8064 9.89341 8.25618 13.4435 8.25618 17.1981C8.25618 21.727 11.3657 25.5449 15.5612 26.6309V43.9819H20.4311V36.6772H22.8661V43.9819H27.7361V31.8074H30.1711V43.9819H35.0411V36.6772H37.4761V43.9819H42.3461V26.6309C46.5416 25.5449 49.6511 21.727 49.6511 17.1981C49.6511 13.4435 46.1009 9.89341 42.3461 9.89341Z" fill="#99AAB5"/>
</svg>
