<svg width="60" height="59" viewBox="0 0 60 59" fill="none" xmlns="http://www.w3.org/2000/svg">
<g clip-path="url(#clip0_102_8713)">
<path d="M45.0768 5.02978C45.0768 2.34154 42.8615 0.15979 40.1319 0.15979C37.4023 0.15979 35.187 2.34154 35.187 5.02978C35.187 2.34154 32.9717 0.15979 30.2421 0.15979C27.5125 0.15979 25.2972 2.34154 25.2972 5.02978C25.2972 2.34154 23.0819 0.15979 20.3523 0.15979C17.6227 0.15979 15.4073 2.34154 15.4073 5.02978C15.4073 5.41207 15.4617 5.78219 15.5483 6.14014L17.8798 24.5097C17.8798 31.223 23.4255 36.6847 30.2421 36.6847C37.0586 36.6847 42.6044 31.223 42.6044 24.5097L44.9359 6.14014C45.0224 5.78219 45.0768 5.41207 45.0768 5.02978ZM30.2421 31.8147C26.1526 31.8147 22.8247 28.5372 22.8247 24.5097H37.6594C37.6594 28.5372 34.3315 31.8147 30.2421 31.8147Z" fill="#99AAB5"/>
<path d="M20.3522 40.8378C14.2502 43.2095 10.4624 47.8652 10.4624 53.7311V58.601H20.3522V40.8378Z" fill="#99AAB5"/>
<path d="M30.242 39.1204C27.5618 39.1204 25.077 39.4515 22.8246 40.0481V58.6003H50.0216V53.7303C50.0216 45.1275 41.8872 39.1204 30.242 39.1204ZM30.242 48.8603C28.8772 48.8603 27.7695 47.7719 27.7695 46.4253C27.7695 45.0812 28.8772 43.9903 30.242 43.9903C31.6068 43.9903 32.7144 45.0812 32.7144 46.4253C32.7144 47.7719 31.6068 48.8603 30.242 48.8603Z" fill="#99AAB5"/>
</g>
<defs>
<clipPath id="clip0_102_8713">
<rect width="59.3389" height="58.4399" fill="white" transform="translate(0.572571 0.159058)"/>
</clipPath>
</defs>
</svg>
