<svg width="60" height="60" viewBox="0 0 60 60" fill="none" xmlns="http://www.w3.org/2000/svg">
<g clip-path="url(#clip0_102_8317)">
<path d="M51.7944 42.0929V34.6755C51.7944 31.9484 49.6102 29.7306 46.9244 29.7306H12.8345C10.1487 29.7306 7.96454 31.9484 7.96454 34.6755V42.0929H51.7944ZM40.837 33.4393C42.1811 33.4393 43.272 34.5469 43.272 35.9117C43.272 37.279 42.1811 38.3842 40.837 38.3842C39.4928 38.3842 38.402 37.279 38.402 35.9117C38.402 34.5469 39.4928 33.4393 40.837 33.4393ZM33.532 33.4393C34.8761 33.4393 35.967 34.5469 35.967 35.9117C35.967 37.279 34.8761 38.3842 33.532 38.3842C32.1879 38.3842 31.097 37.279 31.097 35.9117C31.097 34.5469 32.1879 33.4393 33.532 33.4393Z" fill="#99AAB5"/>
<path d="M51.7945 47.0387H7.96457V54.4561C7.96457 57.1832 10.1488 59.401 12.8346 59.401H46.9245C49.6103 59.401 51.7945 57.1832 51.7945 54.4561V47.0387ZM33.532 55.6923C32.1879 55.6923 31.097 54.5871 31.097 53.2198C31.097 51.855 32.1879 50.7474 33.532 50.7474C34.8761 50.7474 35.967 51.855 35.967 53.2198C35.967 54.5871 34.8761 55.6923 33.532 55.6923ZM40.837 55.6923C39.4929 55.6923 38.402 54.5871 38.402 53.2198C38.402 51.855 39.4929 50.7474 40.837 50.7474C42.1811 50.7474 43.272 51.855 43.272 53.2198C43.272 54.5871 42.1811 55.6923 40.837 55.6923Z" fill="#99AAB5"/>
<path d="M34.9928 0.0612183C31.014 0.0612183 27.4638 2.07874 25.2869 5.26821C28.0019 6.17066 30.0327 8.95464 30.5392 10.1637C30.5051 10.1909 28.5449 11.6298 28.4718 11.6818C25.9224 7.92857 23.7309 7.12502 21.3568 7.12502C16.6572 7.12502 12.8343 11.0884 12.8343 15.9566C12.8343 20.8249 16.6572 24.7858 21.3568 24.7858H34.9928C41.5721 24.7858 46.9242 19.2401 46.9242 12.4235C46.9242 5.60694 41.5721 0.0612183 34.9928 0.0612183Z" fill="#99AAB5"/>
</g>
<defs>
<clipPath id="clip0_102_8317">
<rect width="58.4399" height="59.3389" fill="white" transform="translate(0.659256 0.0604248)"/>
</clipPath>
</defs>
</svg>
