<svg width="60" height="59" viewBox="0 0 60 59" fill="none" xmlns="http://www.w3.org/2000/svg">
<path d="M54.4386 31.9493C54.4386 21.3234 49.0842 15.8474 48.8554 15.6185C48.3976 15.1607 47.7791 14.9051 47.1339 14.9051H40.8373L46.4205 9.32184L42.9775 5.87891L33.9514 14.9051H10.6105V19.7748H45.9992C47.1558 21.3259 49.5688 25.3483 49.5688 31.9493C49.5688 34.4718 47.84 36.8093 45.8726 38.6258C46.2281 32.5702 44.794 26.1664 41.5507 22.9232C41.0929 22.4654 40.4745 22.2097 39.8292 22.2097H8.1756C7.19191 22.2097 6.30317 22.8038 5.92576 23.7121C5.54835 24.6227 5.75775 25.6697 6.45413 26.3661L9.9409 29.8553C7.39157 34.4402 5.32191 42.7529 11.0975 50.4569C11.5552 51.0705 12.2784 51.4284 13.0454 51.4284H39.8292C40.4745 51.4284 41.0953 51.1728 41.5507 50.715C42.8193 49.4464 43.7932 47.6811 44.5115 45.6602C47.3628 43.9679 54.4386 39.0567 54.4386 31.9493ZM38.7092 27.0795C39.9266 28.7742 40.6595 31.4721 40.9225 34.3842H13.228C13.9804 32.3973 14.9008 31.1044 14.9957 30.9778C15.7238 30.0087 15.6264 28.65 14.7693 27.7929L14.0559 27.0795H38.7092Z" fill="#99AAB5"/>
</svg>
