<svg width="60" height="59" viewBox="0 0 60 59" fill="none" xmlns="http://www.w3.org/2000/svg">
<g clip-path="url(#clip0_102_8908)">
<path d="M30.074 35.4414C33.3015 35.4414 35.918 32.8249 35.918 29.5974C35.918 26.3699 33.3015 23.7534 30.074 23.7534C26.8464 23.7534 24.23 26.3699 24.23 29.5974C24.23 32.8249 26.8464 35.4414 30.074 35.4414Z" fill="#99AAB5"/>
<path d="M47.1152 7.68292H13.0253C10.3371 7.68292 8.1553 9.86468 8.1553 12.5529V46.6428C8.1553 49.3311 10.3371 51.5128 13.0253 51.5128H47.1152C49.8034 51.5128 51.9852 49.3311 51.9852 46.6428V12.5529C51.9852 9.86468 49.8034 7.68292 47.1152 7.68292ZM44.6802 32.2544H40.3216C40.0829 33.1651 39.7274 34.0198 39.2721 34.8185L42.0236 37.57L38.04 41.5513L35.286 38.7997C34.4898 39.2575 33.6351 39.6106 32.722 39.8468V44.2078H27.4112V39.8468C26.5005 39.6106 25.6459 39.2575 24.8496 38.7997L22.0956 41.5513L18.1144 37.57L20.8684 34.8185C20.4131 34.0198 20.0576 33.1651 19.8189 32.2544H15.4603V26.9413H19.8189C20.0576 26.0306 20.4131 25.1784 20.8684 24.3772L18.1144 21.6281L22.1005 17.6445L24.8545 20.396C25.6507 19.9382 26.5054 19.5852 27.4161 19.349V14.9879H32.7268V19.349C33.6399 19.5852 34.4946 19.9407 35.2909 20.396L38.0449 17.6445L42.0285 21.6281L39.277 24.3797C39.7323 25.1808 40.0878 26.033 40.3264 26.9437H44.6802V32.2544Z" fill="#99AAB5"/>
</g>
<defs>
<clipPath id="clip0_102_8908">
<rect width="58.4399" height="58.4399" fill="white" transform="translate(0.850433 0.377441)"/>
</clipPath>
</defs>
</svg>
