<svg width="59" height="59" viewBox="0 0 59 59" fill="none" xmlns="http://www.w3.org/2000/svg">
<path d="M10.178 12.3775C11.3371 11.3913 15.3645 9.94249 19.7086 9.94249C24.0526 9.94249 28.0801 11.3913 29.2391 12.3775H34.3185C34.3185 6.91579 24.2839 5.0725 19.7086 5.0725C15.1332 5.0725 5.0986 6.91579 5.0986 12.3775V41.5974C5.0986 47.064 15.1332 48.9024 19.7086 48.9024C20.4074 48.9024 21.245 48.8513 22.1436 48.7612V43.8693C21.3522 43.9691 20.5413 44.0324 19.7086 44.0324C15.0431 44.0324 10.7429 42.3669 9.96859 41.388V39.7006C13.1828 41.052 17.237 41.5974 19.7086 41.5974C20.4098 41.5974 21.245 41.5463 22.1436 41.4562V36.5643C21.3522 36.6641 20.5413 36.7274 19.7086 36.7274C14.992 36.7274 10.6772 35.0302 9.96859 34.0538V32.3931C13.1828 33.747 17.237 34.2924 19.7086 34.2924C20.4098 34.2924 21.245 34.2413 22.1436 34.1512V29.2593C21.3522 29.3591 20.5413 29.4224 19.7086 29.4224C14.992 29.4224 10.6772 27.7253 9.96859 26.7488V25.0882C13.1828 26.442 17.237 26.9874 19.7086 26.9874C20.4098 26.9874 21.245 26.9363 22.1436 26.8462V21.9567C21.3522 22.0541 20.5413 22.1175 19.7086 22.1175C14.992 22.1175 10.6772 20.4203 9.96859 19.4438V17.7856C13.1828 19.137 17.237 19.6825 19.7086 19.6825C20.4098 19.6825 21.245 19.6313 22.1436 19.5412V14.6542C21.3522 14.7492 20.5413 14.8125 19.7086 14.8125C15.3645 14.8125 11.3371 13.3685 10.178 12.3775Z" fill="#99AAB5"/>
<path d="M39.1884 17.2484C34.6131 17.2484 24.5784 19.0917 24.5784 24.5534V46.4684C24.5784 51.9349 34.6131 53.7734 39.1884 53.7734C43.7638 53.7734 53.7984 51.9349 53.7984 46.4684V24.5534C53.7984 19.0917 43.7638 17.2484 39.1884 17.2484ZM48.9284 31.6198C48.2198 32.5962 43.905 34.2934 39.1884 34.2934C34.4718 34.2934 30.157 32.5962 29.4484 31.6198V29.9591C32.6626 31.313 36.7169 31.8584 39.1884 31.8584C41.6599 31.8584 45.7142 31.313 48.9284 29.9615V31.6198ZM48.9284 38.9248C48.2198 39.9012 43.905 41.5984 39.1884 41.5984C34.4718 41.5984 30.157 39.9012 29.4484 38.9248V37.2641C32.6626 38.618 36.7169 39.1634 39.1884 39.1634C41.6599 39.1634 45.7142 38.618 48.9284 37.2665V38.9248ZM39.1884 22.1184C43.5324 22.1184 47.5599 23.5673 48.719 24.5534C47.5599 25.5445 43.5324 26.9884 39.1884 26.9884C34.8444 26.9884 30.8169 25.5445 29.6578 24.5534C30.8169 23.5673 34.8444 22.1184 39.1884 22.1184ZM39.1884 48.9034C34.523 48.9034 30.2228 47.2378 29.4484 46.259V44.5715C32.6626 45.9229 36.7169 46.4684 39.1884 46.4684C41.6599 46.4684 45.7142 45.9229 48.9284 44.5715V46.259C48.1541 47.2378 43.8539 48.9034 39.1884 48.9034Z" fill="#99AAB5"/>
</svg>
