<svg width="60" height="59" viewBox="0 0 60 59" fill="none" xmlns="http://www.w3.org/2000/svg">
<g clip-path="url(#clip0_102_7612)">
<path d="M30.0179 24.5532C16.5913 24.5532 5.66794 35.4766 5.66794 48.9031C5.66794 50.2472 6.75882 51.3381 8.10293 51.3381H51.9328C53.2769 51.3381 54.3678 50.2472 54.3678 48.9031C54.3678 35.4766 43.4444 24.5532 30.0179 24.5532Z" fill="#99AAB5"/>
<path d="M30.0138 22.1181C37.5842 22.1181 44.8453 25.3713 49.9345 31.0473L53.5602 27.7965C49.4182 23.1774 44.0442 19.9583 38.1807 18.378C39.1426 17.4843 39.7537 16.2254 39.7537 14.8131C39.7537 12.1225 37.572 9.94316 34.8838 9.94316C32.1955 9.94316 30.0138 12.1225 30.0138 14.8131C30.0138 15.719 30.2767 16.559 30.7102 17.2847C30.4764 17.2798 30.2475 17.2481 30.0138 17.2481C29.78 17.2481 29.5511 17.2798 29.3174 17.2847C29.7508 16.559 30.0138 15.719 30.0138 14.8131C30.0138 12.1225 27.832 9.94316 25.1438 9.94316C22.4555 9.94316 20.2738 12.1225 20.2738 14.8131C20.2738 16.2254 20.885 17.4843 21.8468 18.378C15.9833 19.9583 10.6093 23.1774 6.46738 27.7965L10.0931 31.0473C15.1822 25.3713 22.4434 22.1181 30.0138 22.1181Z" fill="#99AAB5"/>
</g>
<defs>
<clipPath id="clip0_102_7612">
<rect width="58.4399" height="58.4399" fill="white" transform="translate(0.798187 0.203491)"/>
</clipPath>
</defs>
</svg>
