<svg width="60" height="59" viewBox="0 0 60 59" fill="none" xmlns="http://www.w3.org/2000/svg">
<g clip-path="url(#clip0_102_8203)">
<path d="M41.967 4.98422L35.1875 12.0433V40.3963L56.3394 18.3694L41.967 4.98422Z" fill="#99AAB5"/>
<path d="M25.2976 5.05075H10.4629C7.7358 5.05075 5.51801 7.23738 5.51801 9.92074V48.8806C5.51801 51.5664 7.7358 53.7506 10.4629 53.7506H25.2976C28.0248 53.7506 30.2426 51.5664 30.2426 48.8806V9.92074C30.2426 7.23738 28.0248 5.05075 25.2976 5.05075ZM10.4629 48.8806V9.92074H25.2976L25.3001 48.8806H10.4629Z" fill="#99AAB5"/>
<path d="M22.8248 14.7898H12.9349V24.5298H22.8248V14.7898Z" fill="#99AAB5"/>
<path d="M22.8248 29.4016H12.9349V39.1415H22.8248V29.4016Z" fill="#99AAB5"/>
<path d="M17.8803 46.4459C19.2458 46.4459 20.3528 45.3557 20.3528 44.0109C20.3528 42.6661 19.2458 41.5759 17.8803 41.5759C16.5148 41.5759 15.4079 42.6661 15.4079 44.0109C15.4079 45.3557 16.5148 46.4459 17.8803 46.4459Z" fill="#99AAB5"/>
<path d="M56.2479 31.6878L45.8487 32.842L35.1875 43.9432V51.1775L58.1393 48.6305L56.2479 31.6878Z" fill="#99AAB5"/>
</g>
<defs>
<clipPath id="clip0_102_8203">
<rect width="59.3389" height="58.4399" fill="white" transform="translate(0.572571 0.180298)"/>
</clipPath>
</defs>
</svg>
