<svg width="60" height="60" viewBox="0 0 60 60" fill="none" xmlns="http://www.w3.org/2000/svg">
<g clip-path="url(#clip0_102_8647)">
<path d="M50.0222 39.6786H10.4629C7.73333 39.6786 5.51801 41.8603 5.51801 44.5486V49.4186C5.51801 52.1068 7.73333 54.2885 10.4629 54.2885H50.0222C52.7518 54.2885 54.9671 52.1068 54.9671 49.4186V44.5486C54.9671 41.8603 52.7518 39.6786 50.0222 39.6786ZM45.0773 49.4186C43.7125 49.4186 42.6048 48.3277 42.6048 46.9836C42.6048 45.6395 43.7125 44.5486 45.0773 44.5486C46.4421 44.5486 47.5497 45.6395 47.5497 46.9836C47.5497 48.3277 46.4421 49.4186 45.0773 49.4186Z" fill="#99AAB5"/>
<path d="M41.3685 14.1132H19.1164V28.7232H41.3685V14.1132Z" fill="#99AAB5"/>
<path d="M45.0773 5.58923H15.4078C12.6807 5.58923 10.4629 7.77342 10.4629 10.4592V32.3742C10.4629 35.06 12.6807 37.2442 15.4078 37.2442H45.0773C47.8044 37.2442 50.0222 35.06 50.0222 32.3742V10.4592C50.0222 7.77342 47.8044 5.58923 45.0773 5.58923ZM43.8411 29.9392C43.8411 30.6112 43.2872 31.1567 42.6048 31.1567H17.8803C17.1979 31.1567 16.6441 30.6112 16.6441 29.9392V12.8942C16.6441 12.2222 17.1979 11.6767 17.8803 11.6767H42.6048C43.2872 11.6767 43.8411 12.2222 43.8411 12.8942V29.9392Z" fill="#99AAB5"/>
</g>
<defs>
<clipPath id="clip0_102_8647">
<rect width="59.3389" height="58.4399" fill="white" transform="translate(0.572571 0.718994)"/>
</clipPath>
</defs>
</svg>
