<svg width="60" height="60" viewBox="0 0 60 60" fill="none" xmlns="http://www.w3.org/2000/svg">
<g clip-path="url(#clip0_102_8500)">
<path d="M27.4968 13.7945L24.1487 11.1135C23.7152 10.7678 23.1795 10.5803 22.6268 10.5803H8.01681C6.6727 10.5803 5.58182 11.6711 5.58182 13.0153V44.6702C5.58182 46.0143 6.6727 47.1052 8.01681 47.1052H21.7721L27.4968 51.6099V13.7945Z" fill="#99AAB5"/>
<path d="M49.3137 10.5803H34.7038C34.151 10.5803 33.6153 10.7678 33.1819 11.1135L29.8338 13.7945V51.6099L35.5584 47.1052H49.3137C50.6578 47.1052 51.7487 46.0143 51.7487 44.6702V13.0153C51.7487 11.6711 50.6578 10.5803 49.3137 10.5803Z" fill="#99AAB5"/>
<path d="M49.4118 10.5811H34.8018C34.2491 10.5811 33.7134 10.7685 33.2799 11.1143L29.9318 13.7952V51.6107L35.6565 47.106H49.4118C50.7559 47.106 51.8468 46.0151 51.8468 44.671V13.016C51.8468 11.6719 50.7559 10.5811 49.4118 10.5811Z" fill="#99AAB5"/>
</g>
<defs>
<clipPath id="clip0_102_8500">
<rect width="58.4399" height="58.4399" fill="white" transform="translate(0.711517 0.838745)"/>
</clipPath>
</defs>
</svg>
