<svg width="60" height="59" viewBox="0 0 60 59" fill="none" xmlns="http://www.w3.org/2000/svg">
<g clip-path="url(#clip0_102_6970)">
<path d="M50.6004 23.2014C45.9008 23.2014 42.0779 27.0242 42.0779 31.7235H20.1629C20.1629 27.0242 16.34 23.2014 11.6405 23.2014C6.94092 23.2014 3.11798 27.0242 3.11798 31.7235V41.4631C3.11798 44.1464 5.30217 46.3329 7.98797 46.3329V48.7678H12.858V46.3329H49.3829V48.7678H54.2528V46.3329C56.9386 46.3329 59.1228 44.1464 59.1228 41.4631V31.7235C59.1228 27.0242 55.2999 23.2014 50.6004 23.2014Z" fill="#99AAB5"/>
<path d="M50.6004 20.7092C50.9778 20.7092 51.3382 20.7822 51.7058 20.8187C51.1385 14.6292 45.9763 9.75214 39.6429 9.75214H32.3379V29.2313H39.9156C41.0284 24.3542 45.3968 20.7092 50.6004 20.7092Z" fill="#99AAB5"/>
<path d="M22.3276 29.2313H29.9029V9.75214H22.5979C16.2645 9.75214 11.1023 14.6317 10.535 20.8187C10.9027 20.7822 11.263 20.7092 11.6405 20.7092C16.8465 20.7092 21.2173 24.3542 22.3276 29.2313Z" fill="#99AAB5"/>
<path d="M50.6004 20.7664C50.9778 20.7664 51.3382 20.8394 51.7059 20.876C51.1385 14.6865 45.9764 9.80939 39.6429 9.80939H32.338V29.2885H39.9157C41.0284 24.4114 45.3968 20.7664 50.6004 20.7664Z" fill="#99AAB5"/>
<path d="M22.3294 29.2885H29.9047V9.80939H22.5997C16.2663 9.80939 11.1041 14.6889 10.5367 20.876C10.9044 20.8394 11.2648 20.7664 11.6422 20.7664C16.8482 20.7664 21.219 24.4114 22.3294 29.2885Z" fill="#99AAB5"/>
</g>
<defs>
<clipPath id="clip0_102_6970">
<rect width="58.4399" height="58.4399" fill="white" transform="translate(0.673462 0.060791)"/>
</clipPath>
</defs>
</svg>
