<svg width="59" height="59" viewBox="0 0 59 59" fill="none" xmlns="http://www.w3.org/2000/svg">
<g clip-path="url(#clip0_102_8573)">
<path d="M29.3619 46.5438H9.88194V12.4539H39.1019V19.7589H43.9719V10.0189C43.9719 7.33068 41.7901 5.14893 39.1019 5.14893H9.88194C7.1937 5.14893 5.01195 7.33068 5.01195 10.0189V48.9788C5.01195 51.667 7.1937 53.8488 9.88194 53.8488H29.3619V46.5438Z" fill="#99AAB5"/>
<path d="M53.7119 29.499C53.7119 26.8108 51.5301 24.629 48.8419 24.629H39.1019C36.4137 24.629 34.2319 26.8108 34.2319 29.499V48.979C34.2319 51.6672 36.4137 53.849 39.1019 53.849H48.8419C51.5301 53.849 53.7119 51.6672 53.7119 48.979V29.499ZM48.8419 46.544H39.1019V29.499H48.8419V46.544Z" fill="#99AAB5"/>
</g>
<defs>
<clipPath id="clip0_102_8573">
<rect width="58.4399" height="58.4399" fill="white" transform="translate(0.142029 0.278809)"/>
</clipPath>
</defs>
</svg>
