<svg width="60" height="60" viewBox="0 0 60 60" fill="none" xmlns="http://www.w3.org/2000/svg">
<g clip-path="url(#clip0_102_7846)">
<path d="M54.9819 18.8413L53.4381 20.4088C53.3797 20.4682 53.309 20.5176 53.2482 20.577L39.4953 6.615C39.5538 6.55319 39.6025 6.48396 39.6633 6.42215L41.2071 4.85461L37.7616 1.35856L36.2203 2.9261C29.8381 9.4064 26.6215 18.3666 27.2522 27.4009C18.3523 26.7606 9.52785 30.0267 3.1506 36.5045L1.60681 38.0745L5.04989 41.5706L6.59368 40.0006C6.65212 39.9412 6.72274 39.8918 6.78361 39.8324L20.5365 53.7969C20.478 53.8562 20.4293 53.9279 20.3684 53.9873L18.8247 55.5548L22.2677 59.0508L23.8115 57.4833C30.1936 51.0055 33.4103 42.0478 32.7796 33.0109C41.6819 33.6562 50.4991 30.3852 56.8812 23.9049L58.425 22.3373L54.9819 18.8413ZM49.4252 23.6873C48.0032 24.6491 46.5032 25.4675 44.9351 26.1227L34.0336 15.0535C34.6813 13.4637 35.4849 11.9431 36.4321 10.4992L49.4252 23.6873ZM27.822 32.4349C28.0874 34.9716 28.0241 37.5083 27.5833 39.9734L20.3952 32.6747C22.8254 32.2247 25.3237 32.1654 27.822 32.4349ZM10.6066 36.7221C12.0286 35.7578 13.5261 34.9419 15.0942 34.2842L25.9982 45.3559C25.3504 46.9482 24.5469 48.4687 23.5997 49.9176L10.6066 36.7221ZM32.2123 27.977C31.9468 25.4403 32.0077 22.906 32.4509 20.436L39.6366 27.7372C37.2089 28.1822 34.7106 28.244 32.2123 27.977Z" fill="#99AAB5"/>
</g>
<defs>
<clipPath id="clip0_102_7846">
<rect width="58.4399" height="59.3389" fill="white" transform="translate(0.798187 0.521851)"/>
</clipPath>
</defs>
</svg>
