<svg width="59" height="60" viewBox="0 0 59 60" fill="none" xmlns="http://www.w3.org/2000/svg">
<g clip-path="url(#clip0_102_8353)">
<path d="M46.4069 19.8408H43.9719V24.7857H46.4069V39.6204H12.317V24.7857H14.752V19.8408H12.317C9.63121 19.8408 7.44702 22.0586 7.44702 24.7857V47.0378C7.44702 49.7649 9.63121 51.9827 12.317 51.9827H26.927V54.4552H19.622V59.4001H39.1019V54.4552H31.797V51.9827H46.4069C49.0927 51.9827 51.2769 49.7649 51.2769 47.0378V24.7857C51.2769 22.0586 49.0927 19.8408 46.4069 19.8408Z" fill="#99AAB5"/>
<path d="M40.8231 19.1164L37.38 15.6204L31.7966 21.2897V0.0612183H26.9266V21.2897L21.3432 15.6204L17.9001 19.1164L29.3616 30.7543L40.8231 19.1164Z" fill="#99AAB5"/>
</g>
<defs>
<clipPath id="clip0_102_8353">
<rect width="58.4399" height="59.3389" fill="white" transform="translate(0.142029 0.0604248)"/>
</clipPath>
</defs>
</svg>
