<svg width="59" height="59" viewBox="0 0 59 59" fill="none" xmlns="http://www.w3.org/2000/svg">
<g clip-path="url(#clip0_102_7141)">
<path d="M17.1921 20.5948L22.5029 18.6128C24.9525 22.6521 29.9296 24.5002 34.4782 22.8007C39.9569 20.7554 46.9624 10.0107 47.744 8.79332L49.1149 6.65801L46.6531 6.03713C46.2684 5.93974 37.1299 3.65347 31.2981 3.65347C23.9225 3.65347 20.2773 9.79645 21.2196 15.1919L15.9138 17.1739L17.1921 20.5948ZM31.2981 7.30809C34.8994 7.30809 40.12 8.3161 43.2052 8.99054C40.6119 12.6695 36.1948 18.2622 33.1998 19.3798C30.6187 20.3415 27.6943 19.3652 26.0458 17.2907L34.9603 13.9648L33.6844 10.5464L24.7528 13.8772C24.5726 10.9092 26.4914 7.30809 31.2981 7.30809Z" fill="#99AAB5"/>
<path d="M42.3026 28.2109C41.8911 27.3855 41.0461 26.8644 40.1233 26.8644H18.7878C17.865 26.8644 17.0225 27.3855 16.6085 28.2109L10.2337 40.9594C10.0657 41.2954 9.97803 41.6704 9.97803 42.0502V48.7776C9.97803 50.124 11.0689 51.2124 12.413 51.2124H14.848V52.4298C14.848 54.4458 16.4843 56.0819 18.5005 56.0819C20.5167 56.0819 22.153 54.4458 22.153 52.4298V51.2124H36.763V52.4298C36.763 54.4458 38.3993 56.0819 40.4155 56.0819C42.4316 56.0819 44.0679 54.4458 44.0679 52.4298V51.2124H46.5029C47.8471 51.2124 48.9379 50.124 48.9379 48.7776V42.0502C48.9379 41.6704 48.8503 41.2979 48.6823 40.9594L42.3026 28.2109ZM22.1506 46.3428H14.8456V41.4732H22.1506V46.3428ZM17.2806 36.6036L19.7156 31.734H39.1955L41.6305 36.6036H17.2806ZM44.0655 46.3428H36.7605V41.4732H44.0655V46.3428Z" fill="#99AAB5"/>
</g>
<defs>
<clipPath id="clip0_102_7141">
<rect width="58.4399" height="58.4399" fill="white" transform="translate(0.228729 0.0775757)"/>
</clipPath>
</defs>
</svg>
