<svg width="60" height="60" viewBox="0 0 60 60" fill="none" xmlns="http://www.w3.org/2000/svg">
<g clip-path="url(#clip0_102_7127)">
<path d="M22.748 23.5935L28.1404 21.6114C30.6277 25.651 35.6814 27.4992 40.3 25.7996C45.7171 23.8053 52.2469 14.1335 55.1619 9.65555C50.1379 8.41126 42.5425 6.6532 37.0734 6.6532C29.5844 6.6532 25.8831 12.7967 26.8399 18.1926L21.4525 20.1723L22.748 23.5935ZM37.0734 10.3057C40.7302 10.3057 46.0311 11.3138 49.1637 11.9883C46.5306 15.6675 42.0455 21.2607 39.0044 22.3784C36.3836 23.3402 33.4142 22.3638 31.7403 20.2892L40.792 16.963L39.4964 13.5442L30.4275 16.8753C30.242 13.907 32.1903 10.3057 37.0734 10.3057Z" fill="#99AAB5"/>
<path d="M52.5034 32.2976H15.4166V23.7751C15.4166 23.0105 15.0507 22.2873 14.4276 21.8271L9.48272 18.1746C8.73357 17.6219 7.73222 17.5318 6.89406 17.9457C6.0559 18.3597 5.52679 19.1998 5.52679 20.1226V54.2126C5.52679 55.5591 6.63445 56.6475 7.99925 56.6475H52.5034C53.8682 56.6475 54.9759 55.5591 54.9759 54.2126V34.7326C54.9759 33.3885 53.8682 32.2976 52.5034 32.2976ZM25.3064 51.7776H17.8891V46.9076H25.3064V51.7776ZM25.3064 42.0376H17.8891V37.1676H25.3064V42.0376ZM37.6687 51.7776H30.2514V46.9076H37.6687V51.7776ZM37.6687 42.0376H30.2514V37.1676H37.6687V42.0376ZM50.031 51.7776H42.6136V46.9076H50.031V51.7776ZM50.031 42.0376H42.6136V37.1676H50.031V42.0376Z" fill="#99AAB5"/>
</g>
<defs>
<clipPath id="clip0_102_7127">
<rect width="59.3389" height="58.4399" fill="white" transform="translate(0.572571 0.637451)"/>
</clipPath>
</defs>
</svg>
