<svg width="60" height="60" viewBox="0 0 60 60" fill="none" xmlns="http://www.w3.org/2000/svg">
<g clip-path="url(#clip0_102_7148)">
<path d="M32.3234 8.08466H27.4534V12.9546H32.3234V8.08466Z" fill="#99AAB5"/>
<path d="M43.6609 14.8003L40.2178 11.3562L36.7737 14.7993L40.2168 18.2433L43.6609 14.8003Z" fill="#99AAB5"/>
<path d="M46.9334 22.6947H42.0634V27.5647H46.9334V22.6947Z" fill="#99AAB5"/>
<path d="M23.0019 14.8003L19.5589 11.3562L16.1148 14.7993L19.5579 18.2433L23.0019 14.8003Z" fill="#99AAB5"/>
<path d="M17.7134 22.6947H12.8434V27.5647H17.7134V22.6947Z" fill="#99AAB5"/>
<path d="M7.97346 32.4334C6.62934 32.4334 5.53847 33.5243 5.53847 34.8684V52.7242L17.7134 32.4334H7.97346Z" fill="#99AAB5"/>
<path d="M32.3233 32.4334L34.7583 56.7834H44.4982L37.1932 32.4334H32.3233Z" fill="#99AAB5"/>
<path d="M51.8033 32.4334H42.0634L54.2383 52.7242V34.8684C54.2383 33.5243 53.1475 32.4334 51.8033 32.4334Z" fill="#99AAB5"/>
<path d="M15.2786 56.7834H25.0186L27.4536 32.4334H22.5836L15.2786 56.7834Z" fill="#99AAB5"/>
<path d="M20.1484 25.1297C20.1484 26.9145 20.6622 28.563 21.4999 29.9996H38.2794C39.117 28.563 39.6308 26.9145 39.6308 25.1297C39.6308 19.7508 35.2698 15.3897 29.8909 15.3897C24.5119 15.3897 20.1484 19.7508 20.1484 25.1297Z" fill="#99AAB5"/>
</g>
<defs>
<clipPath id="clip0_102_7148">
<rect width="58.4399" height="58.4399" fill="white" transform="translate(0.659256 0.775818)"/>
</clipPath>
</defs>
</svg>
