<svg width="60" height="60" viewBox="0 0 60 60" fill="none" xmlns="http://www.w3.org/2000/svg">
<g clip-path="url(#clip0_102_8843)">
<path d="M41.5312 13.1253L30.0697 1.48743L18.6082 13.1253L22.0513 16.6213L27.6347 10.952V22.2907H32.5047V10.952L38.0881 16.6213L41.5312 13.1253Z" fill="#99AAB5"/>
<path d="M30.0698 41.6322L51.8995 27.8754C51.2007 27.4823 50.4069 27.235 49.5497 27.235H10.5898C9.73272 27.235 8.93891 27.4823 8.24007 27.8754L30.0698 41.6322Z" fill="#99AAB5"/>
<path d="M31.353 46.6421C30.9609 46.8894 30.5153 47.013 30.0697 47.013C29.6241 47.013 29.1785 46.8894 28.7865 46.6421L5.7271 32.114C5.7271 32.1338 5.71979 32.156 5.71979 32.1783V54.4304C5.71979 57.1575 7.90398 59.3753 10.5898 59.3753H49.5497C52.2355 59.3753 54.4197 57.1575 54.4197 54.4304V32.1783C54.4197 32.156 54.4124 32.1338 54.4124 32.1115L31.353 46.6421Z" fill="#99AAB5"/>
</g>
<defs>
<clipPath id="clip0_102_8843">
<rect width="58.4399" height="59.3389" fill="white" transform="translate(0.850433 0.0391846)"/>
</clipPath>
</defs>
</svg>
