<svg width="60" height="60" viewBox="0 0 60 60" fill="none" xmlns="http://www.w3.org/2000/svg">
<g clip-path="url(#clip0_102_8815)">
<path d="M15.2692 27.5663V9.92782H44.4891V27.5663L49.3591 24.7403V4.98291H10.3992V24.7403L15.2692 27.5663Z" fill="#99AAB5"/>
<path d="M37.8319 37.1266H21.9266L5.52931 27.6125V49.4888C5.52931 52.2184 7.71107 54.4338 10.3993 54.4338H49.3592C52.0474 54.4338 54.2292 52.2184 54.2292 49.4888V27.6125L37.8319 37.1266Z" fill="#99AAB5"/>
<path d="M29.8793 32.181C29.8793 32.181 39.6192 24.9886 39.6192 19.6604C39.6192 14.6018 32.044 12.4013 29.8793 19.0473C27.7146 12.4013 20.1393 14.6018 20.1393 19.6604C20.1393 24.9886 29.8793 32.181 29.8793 32.181Z" fill="#99AAB5"/>
</g>
<defs>
<clipPath id="clip0_102_8815">
<rect width="58.4399" height="59.3389" fill="white" transform="translate(0.659256 0.0391846)"/>
</clipPath>
</defs>
</svg>
