<svg width="59" height="60" viewBox="0 0 59 60" fill="none" xmlns="http://www.w3.org/2000/svg">
<g clip-path="url(#clip0_102_8834)">
<path d="M37.6584 8.18094L32.0749 13.8503V2.5116H27.2049V13.8503L21.6215 8.18094L18.1784 11.677L29.6399 23.3148L41.1015 11.677L37.6584 8.18094Z" fill="#99AAB5"/>
<path d="M29.6405 41.6325L51.4702 27.8757C50.7714 27.4826 49.9776 27.2354 49.1205 27.2354H10.1606C9.30345 27.2354 8.50965 27.4826 7.8108 27.8757L29.6405 41.6325Z" fill="#99AAB5"/>
<path d="M30.9232 46.6424C30.5312 46.8897 30.0856 47.0133 29.64 47.0133C29.1944 47.0133 28.7488 46.8897 28.3567 46.6424L5.29734 32.1143C5.29734 32.1341 5.29004 32.1563 5.29004 32.1786V54.4307C5.29004 57.1578 7.47422 59.3756 10.16 59.3756H49.1199C51.8057 59.3756 53.9899 57.1578 53.9899 54.4307V32.1786C53.9899 32.1563 53.9826 32.1341 53.9826 32.1118L30.9232 46.6424Z" fill="#99AAB5"/>
</g>
<defs>
<clipPath id="clip0_102_8834">
<rect width="58.4399" height="59.3389" fill="white" transform="translate(0.419434 0.0391846)"/>
</clipPath>
</defs>
</svg>
