<svg width="60" height="60" viewBox="0 0 60 60" fill="none" xmlns="http://www.w3.org/2000/svg">
<g clip-path="url(#clip0_102_8825)">
<path d="M39.0835 33.8614L21.309 46.5575C20.8763 46.8641 20.3744 47.0174 19.87 47.0174C19.3657 47.0174 18.8637 46.8616 18.4335 46.5575L0.223906 33.5524C0.142315 33.9084 0.0903931 34.2768 0.0903931 34.6551V54.4347C0.0903931 57.1619 2.30819 59.3796 5.0353 59.3796H34.7048C37.4319 59.3796 39.6497 57.1619 39.6497 54.4347V34.6551C39.6497 34.4276 39.6126 34.2076 39.5829 33.9875C39.4148 33.948 39.2467 33.9084 39.0835 33.8614Z" fill="#99AAB5"/>
<path d="M19.8708 41.5046L33.8897 31.4912C33.0614 30.9547 32.2801 30.3588 31.5433 29.7086H5.03609C4.55644 29.7086 4.1015 29.8 3.66388 29.9261L19.8708 41.5046Z" fill="#99AAB5"/>
<path d="M44.5944 0.000366211C36.413 0.000366211 29.7597 6.65622 29.7597 14.8351C29.7597 23.0115 36.413 29.6698 44.5944 29.6698C52.7757 29.6698 59.4291 23.0115 59.4291 14.8351C59.4291 6.65622 52.7757 0.000366211 44.5944 0.000366211ZM52.0118 17.3076H42.1219V4.94528H47.0668V12.3626H52.0118V17.3076Z" fill="#99AAB5"/>
</g>
<defs>
<clipPath id="clip0_102_8825">
<rect width="59.3389" height="59.3389" fill="white" transform="translate(0.089798 0.0391846)"/>
</clipPath>
</defs>
</svg>
