<svg width="59" height="59" viewBox="0 0 59 59" fill="none" xmlns="http://www.w3.org/2000/svg">
<path d="M12.4757 34.3856H17.3455V36.8204H22.2153V34.3856H24.6501V27.0809H5.17101V31.9507H12.4757V34.3856Z" fill="#99AAB5"/>
<path d="M51.4342 7.60138H14.9108C13.5668 7.60138 12.476 8.69221 12.476 10.0363V22.2107C12.476 23.5548 13.5668 24.6456 14.9108 24.6456H27.0853V46.5597H5.17128V51.4294H53.8691V10.0363C53.8691 8.69221 52.7807 7.60138 51.4342 7.60138ZM20.9981 19.7758C18.982 19.7758 17.3457 18.1396 17.3457 16.1235C17.3457 14.1074 18.982 12.4712 20.9981 12.4712C23.0142 12.4712 24.6504 14.1074 24.6504 16.1235C24.6504 18.1396 23.0166 19.7758 20.9981 19.7758ZM48.9993 46.5597H41.6947V34.3852C41.6947 31.6971 43.8763 29.5154 46.5645 29.5154H48.9993V46.5597ZM48.9993 19.7758H39.2598V17.3409H48.9993V19.7758ZM48.9993 14.9061H39.2598V12.4712H48.9993V14.9061Z" fill="#99AAB5"/>
</svg>
