<svg width="60" height="60" viewBox="0 0 60 60" fill="none" xmlns="http://www.w3.org/2000/svg">
<g clip-path="url(#clip0_102_8046)">
<path d="M33.0642 37.2715L37.0333 30.0493L32.8451 22.6932L32.8987 22.6615H26.967L22.998 29.8886L27.1862 37.2447L27.1326 37.2715H33.0642Z" fill="#99AAB5"/>
<path d="M30.7529 5.66018C30.5069 5.65044 30.2659 5.62122 30.0175 5.62122C23.443 5.62122 17.4822 8.25345 13.0967 12.4976L20.1728 24.9259L30.7529 5.66018Z" fill="#99AAB5"/>
<path d="M51.0775 17.7952C47.8146 12.1777 42.3797 7.98949 35.9196 6.37265L29.6471 17.7952H51.0775Z" fill="#99AAB5"/>
<path d="M53.2475 22.6615H38.4355L50.2744 43.4539C52.8579 39.592 54.3701 34.9534 54.3701 29.9665C54.3701 27.4219 53.9732 24.9699 53.2475 22.6615Z" fill="#99AAB5"/>
<path d="M9.76119 16.4838C7.1801 20.3457 5.66797 24.9844 5.66797 29.9688C5.66797 32.5134 6.06487 34.9678 6.7905 37.2738H21.6026L9.76119 16.4838Z" fill="#99AAB5"/>
<path d="M29.2854 54.2824C29.5313 54.2897 29.7724 54.3189 30.0207 54.3189C36.5952 54.3189 42.5561 51.6891 46.9415 47.4425L39.8654 35.0167L29.2854 54.2824Z" fill="#99AAB5"/>
<path d="M8.95874 42.1426C12.2216 47.7626 17.6565 51.9483 24.1166 53.5652L30.3891 42.1426H8.95874Z" fill="#99AAB5"/>
</g>
<defs>
<clipPath id="clip0_102_8046">
<rect width="58.4399" height="58.4399" fill="white" transform="translate(0.798187 0.742188)"/>
</clipPath>
</defs>
</svg>
