<svg width="59" height="59" viewBox="0 0 59 59" fill="none" xmlns="http://www.w3.org/2000/svg">
<g clip-path="url(#clip0_102_8706)">
<path d="M37.9695 40.4602L36.7301 40.0414L29.3618 45.7734L21.9935 40.0414L20.7541 40.4602C13.9458 42.7515 9.88181 47.7116 9.88181 53.7285V58.5985H48.8417V53.7285C48.8417 47.7116 44.7777 42.7515 37.9695 40.4602Z" fill="#99AAB5"/>
<path d="M12.3165 26.9435V31.8135H19.6215C21.8422 34.7988 25.3656 36.6835 29.3614 36.6835C33.3573 36.6835 36.8807 34.7988 39.1014 31.8135H46.4064V26.9435C46.4064 2.59354 12.3165 2.59354 12.3165 26.9435ZM29.3614 31.8135C26.2471 31.8135 23.6027 29.846 22.5532 27.0945C22.6652 27.0238 22.7918 26.9678 22.9014 26.8948C26.0791 24.7569 28.6626 21.3625 29.3614 17.2035C30.0554 21.3357 32.6219 24.7423 35.8215 26.8948C35.9311 26.9678 36.0577 27.0238 36.1697 27.0945C35.1226 29.846 32.4758 31.8135 29.3614 31.8135Z" fill="#99AAB5"/>
</g>
<defs>
<clipPath id="clip0_102_8706">
<rect width="58.4399" height="58.4399" fill="white" transform="translate(0.142029 0.159058)"/>
</clipPath>
</defs>
</svg>
