<svg width="60" height="59" viewBox="0 0 60 59" fill="none" xmlns="http://www.w3.org/2000/svg">
<path d="M36.4778 17.1061H28.754L9.27402 36.5861H10.7009V53.6311H15.5709V36.5861H16.9978L36.4778 17.1061Z" fill="#99AAB5"/>
<path d="M47.2258 17.1067V13.9997C48.6746 13.1596 49.6608 11.6085 49.6608 9.80175C49.6608 7.11352 47.4791 4.93176 44.7908 4.93176C42.1026 4.93176 39.9208 7.11352 39.9208 9.80175C39.9208 11.6061 40.907 13.1572 42.3558 13.9997V18.1148L23.884 36.5867H31.6078L51.0877 17.1067H47.2258Z" fill="#99AAB5"/>
<path d="M38.4944 36.5841H44.7913V53.6291H49.6613V36.5841H52.0963C53.4404 36.5841 54.5313 35.4932 54.5313 34.1491V20.5497L38.4944 36.5841Z" fill="#99AAB5"/>
<path d="M18.0057 17.1073V14.0003C19.4545 13.1602 20.4407 11.6091 20.4407 9.80236C20.4407 7.11413 18.2589 4.93237 15.5707 4.93237C12.8825 4.93237 10.7007 7.11413 10.7007 9.80236C10.7007 11.6067 11.6869 13.1578 13.1357 14.0003V17.1073H8.26571C6.92159 17.1073 5.83071 18.2007 5.83071 19.5423V33.1442L21.8676 17.1073H18.0057Z" fill="#99AAB5"/>
</svg>
